# Blender 4.0.2
# www.blender.org
mtllib M249_part_11.mtl
o M249_part_11
v -0.109599 -0.256704 0.360313
v -0.109599 -0.252235 0.365342
v -0.109599 -0.252662 0.360313
v -0.109599 -0.256704 0.342333
v -0.115596 -0.256704 0.360313
v -0.115596 -0.252235 0.365342
v -0.124781 -0.256704 0.360313
v -0.115596 -0.256704 0.342333
v -0.115596 -0.256704 0.328828
v -0.124781 -0.256704 0.342333
v -0.137157 -0.256704 0.342333
v -0.124781 -0.256704 0.328828
v -0.124781 -0.256704 0.310848
v -0.137157 -0.256704 0.328828
v -0.147978 -0.262803 0.328828
v -0.137157 -0.256704 0.310848
v -0.137157 -0.252662 0.310848
v -0.147978 -0.262803 0.310848
v -0.149529 -0.259545 0.310848
v -0.149529 -0.259545 0.328828
v -0.137157 -0.252662 0.328828
v -0.149529 -0.259545 0.342333
v -0.149529 -0.259545 0.360313
v -0.147978 -0.262803 0.342333
v -0.137157 -0.252662 0.342333
v -0.137157 -0.252662 0.360313
v -0.124781 -0.252662 0.341885
v -0.124781 -0.252662 0.329276
v -0.122027 -0.244857 0.341463
v -0.115596 -0.252662 0.341885
v -0.124781 -0.252662 0.360313
v -0.124781 -0.249943 0.363332
v -0.115596 -0.252662 0.360313
v -0.115596 -0.249943 0.363332
v -0.109599 -0.249943 0.363332
v -0.137157 -0.249943 0.363332
v -0.124781 -0.252235 0.365342
v -0.137157 -0.252235 0.365342
v -0.137157 -0.256704 0.360313
v -0.147978 -0.262803 0.360313
v -0.109599 -0.252662 0.342333
v -0.115596 -0.252662 0.329276
v -0.114325 -0.247979 0.341463
v -0.112857 -0.248544 0.341974
v -0.114325 -0.247979 0.329698
v -0.112857 -0.248544 0.328982
v -0.122027 -0.244857 0.329698
v -0.123213 -0.244368 0.328982
v -0.013049 0.028848 0.328982
v -0.123213 -0.244368 0.341974
v -0.013049 0.028848 0.341974
v -0.002694 0.024673 0.341974
v -0.002694 0.024673 0.328982
v -0.115596 -0.252662 0.310848
v -0.109599 -0.252662 0.328828
v -0.109599 -0.252662 0.310848
v -0.109599 -0.256704 0.328828
v -0.109599 -0.256704 0.310848
v -0.115596 -0.256704 0.310848
v -0.124781 -0.252662 0.310848
vn 0.6352 -0.7220 0.2744
vn 0.5777 -0.0508 0.8147
vn -0.0000 -0.0622 0.9981
vn -0.0000 -0.9348 0.3553
vn 0.7973 0.5635 -0.2163
vn 0.5767 0.8156 0.0481
vn 0.7071 -0.7071 -0.0000
vn 0.7071 0.7071 -0.0000
vn -0.0000 -1.0000 -0.0000
vn -0.0000 -0.9348 0.3552
vn -0.0141 -0.7960 0.6052
vn 0.2538 -0.9672 -0.0000
vn -0.0000 -0.7071 -0.7071
vn 0.1623 -0.6184 -0.7689
vn -0.3020 -0.9533 -0.0000
vn -0.2473 -0.7808 -0.5738
vn -0.1898 0.7317 -0.6547
vn -0.0000 0.7071 -0.7071
vn -0.7754 0.2480 -0.5808
vn -0.9525 0.3046 -0.0000
vn -0.2511 0.9680 -0.0000
vn -0.7754 0.2480 0.5808
vn -0.5980 0.8015 0.0024
vn -0.2473 -0.7808 0.5738
vn -0.0000 0.9336 -0.3584
vn -0.2525 0.9425 0.2188
vn -0.2525 0.9425 -0.2188
vn -0.6293 -0.7127 0.3098
vn -0.6306 -0.7140 -0.3043
vn 0.2897 0.8849 0.3648
vn -0.0229 -0.9346 0.3549
vn -0.0000 0.9983 0.0589
vn -0.5767 0.8156 0.0481
vn -0.5777 -0.0508 0.8147
vn 0.2897 0.8849 -0.3648
vn -0.0227 -0.9367 -0.3494
vn 0.3242 -0.7492 0.5776
vn -0.7510 -0.3166 0.5794
vn 0.3238 -0.7493 -0.5778
vn -0.7510 -0.3168 -0.5794
vn -0.3196 0.7514 -0.5774
vn 0.7514 0.3196 -0.5774
vn -0.3196 0.7514 0.5773
vn 0.7514 0.3196 0.5774
vn 0.5774 0.5774 -0.5774
vn 0.5774 -0.5774 -0.5774
vt 0.663714 0.839832
vt 0.663714 0.835321
vt 0.669105 0.835321
vt 0.669105 0.839832
vt 0.212568 0.888035
vt 0.214869 0.890873
vt 0.212717 0.892570
vt 0.208939 0.887847
vt 0.209776 0.871704
vt 0.213405 0.871892
vt 0.663714 0.855996
vt 0.669105 0.855996
vt 0.677363 0.835321
vt 0.677363 0.839832
vt 0.677363 0.855996
vt 0.663714 0.868139
vt 0.669105 0.868139
vt 0.677363 0.868139
vt 0.688490 0.839832
vt 0.688490 0.855996
vt 0.688490 0.868139
vt 0.669105 0.884303
vt 0.677363 0.884303
vt 0.688490 0.884303
vt 0.698219 0.855981
vt 0.698219 0.868123
vt 0.698219 0.884288
vt 0.781223 0.895866
vt 0.779477 0.906851
vt 0.775888 0.906280
vt 0.777635 0.895294
vt 0.783365 0.917319
vt 0.780253 0.918235
vt 0.662656 0.245043
vt 0.662656 0.228878
vt 0.665585 0.228873
vt 0.665585 0.245038
vt 0.771146 0.834712
vt 0.782273 0.834875
vt 0.782273 0.851034
vt 0.771146 0.850871
vt 0.782273 0.863172
vt 0.771146 0.863009
vt 0.662656 0.216736
vt 0.665585 0.216731
vt 0.782273 0.879331
vt 0.771146 0.879168
vt 0.662656 0.200571
vt 0.665585 0.200566
vt 0.760020 0.879168
vt 0.760020 0.862606
vt 0.760020 0.851274
vt 0.595132 0.843138
vt 0.602151 0.843526
vt 0.602151 0.854104
vt 0.595132 0.854475
vt 0.566302 0.381450
vt 0.570653 0.381774
vt 0.570995 0.389238
vt 0.563554 0.389238
vt 0.751761 0.879168
vt 0.751761 0.862606
vt 0.760019 0.881818
vt 0.751760 0.881818
vt 0.771145 0.881818
vt 0.746370 0.879168
vt 0.746370 0.863009
vt 0.746369 0.881818
vt 0.807698 0.562166
vt 0.807698 0.567557
vt 0.805635 0.567560
vt 0.805635 0.562169
vt 0.807698 0.553908
vt 0.805635 0.553911
vt 0.807698 0.542782
vt 0.805635 0.542785
vt 0.688489 0.835321
vt 0.425477 0.987612
vt 0.425477 0.993661
vt 0.422736 0.993678
vt 0.422761 0.990025
vt 0.698219 0.839816
vt 0.834420 0.955985
vt 0.834420 0.968714
vt 0.831182 0.968920
vt 0.831245 0.957752
vt 0.751761 0.851274
vt 0.746370 0.850871
vt 0.562514 0.987260
vt 0.558307 0.986877
vt 0.558307 0.976299
vt 0.562514 0.975923
vt 0.427007 0.977671
vt 0.425687 0.977210
vt 0.434997 0.977221
vt 0.433932 0.977679
vt 0.427007 0.988249
vt 0.425687 0.988891
vt 0.433932 0.988257
vt 0.434997 0.988901
vt 0.752387 0.385529
vt 0.744946 0.385529
vt 0.745279 0.378067
vt 0.749628 0.377747
vt 0.818337 0.284990
vt 0.818337 0.020134
vt 0.828373 0.020134
vt 0.828373 0.284990
vt 0.791184 0.128180
vt 0.791184 0.373928
vt 0.779504 0.373944
vt 0.779504 0.128196
vt 0.817921 0.650828
vt 0.817921 0.385972
vt 0.827960 0.385972
vt 0.827960 0.650828
vt 0.765053 0.976717
vt 0.765053 0.988393
vt 0.755744 0.988492
vt 0.755744 0.976816
vt 0.789127 0.489067
vt 0.789127 0.734410
vt 0.777446 0.734423
vt 0.777446 0.489081
vt 0.760020 0.834712
vt 0.751761 0.834712
vt 0.746370 0.834712
vt 0.210404 0.859578
vt 0.211240 0.843435
vt 0.214869 0.843623
vt 0.214033 0.859766
vt 0.663714 0.884303
vt 0.783365 0.882389
vt 0.782519 0.887712
vt 0.778931 0.887141
vt 0.779777 0.881818
s 1
usemtl M249_Gun
f 1/1/1 2/2/2 6/3/3 5/4/4
f 3/5/5 35/6/6 2/7/2 1/8/1
f 1/8/1 4/9/7 41/10/8 3/5/5
f 4/11/7 1/1/1 5/4/4 8/12/9
f 5/4/4 6/3/3 37/13/3 7/14/10
f 8/12/9 5/4/4 7/14/10 10/15/9
f 57/16/7 4/11/7 8/12/9 9/17/9
f 9/17/9 8/12/9 10/15/9 12/18/9
f 10/15/9 7/14/10 39/19/11 11/20/12
f 12/18/9 10/15/9 11/20/12 14/21/12
f 59/22/13 9/17/9 12/18/9 13/23/13
f 13/23/13 12/18/9 14/21/12 16/24/14
f 11/20/12 24/25/15 15/26/15 14/21/12
f 14/21/12 15/26/15 18/27/16 16/24/14
f 13/28/13 16/29/14 17/30/17 60/31/18
f 16/29/14 18/32/16 19/33/19 17/30/17
f 18/34/16 15/35/15 20/36/20 19/37/19
f 17/38/17 19/39/19 20/40/20 21/41/21
f 21/41/21 20/40/20 22/42/20 25/43/21
f 15/35/15 24/44/15 22/45/20 20/36/20
f 25/43/21 22/42/20 23/46/22 26/47/23
f 24/44/15 40/48/24 23/49/22 22/45/20
f 25/43/21 26/47/23 31/50/25 27/51/26
f 21/41/21 25/43/21 27/51/26 28/52/27
f 27/53/26 29/54/28 47/55/29 28/56/27
f 30/57/30 43/58/31 29/59/28 27/60/26
f 27/51/26 31/50/25 33/61/25 30/62/30
f 31/50/25 32/63/32 34/64/32 33/61/25
f 26/47/23 36/65/33 32/63/32 31/50/25
f 30/62/30 33/61/25 3/66/5 41/67/8
f 33/61/25 34/64/32 35/68/6 3/66/5
f 6/69/3 2/70/2 35/71/6 34/72/32
f 37/73/3 6/69/3 34/72/32 32/74/32
f 38/75/34 37/73/3 32/74/32 36/76/33
f 7/14/10 37/13/3 38/77/34 39/19/11
f 39/78/11 38/79/34 36/80/33 26/81/23
f 39/19/11 40/82/24 24/25/15 11/20/12
f 26/83/23 23/84/22 40/85/24 39/86/11
f 42/87/35 30/62/30 41/67/8 55/88/8
f 42/89/35 45/90/36 43/91/31 30/92/30
f 43/93/31 44/94/37 50/95/38 29/96/28
f 45/97/36 46/98/39 44/94/37 43/93/31
f 47/99/29 48/100/40 46/98/39 45/97/36
f 28/101/27 47/102/29 45/103/36 42/104/35
f 29/96/28 50/95/38 48/100/40 47/99/29
f 48/105/40 49/106/41 53/107/42 46/108/39
f 50/109/38 51/110/43 49/111/41 48/112/40
f 44/113/37 52/114/44 51/115/43 50/116/38
f 49/117/41 51/118/43 52/119/44 53/120/42
f 46/121/39 53/122/42 52/123/44 44/124/37
f 60/125/18 28/52/27 42/87/35 54/126/18
f 54/126/18 42/87/35 55/88/8 56/127/45
f 57/128/7 58/129/46 56/130/45 55/131/8
f 4/9/7 57/128/7 55/131/8 41/10/8
f 58/132/46 57/16/7 9/17/9 59/22/13
f 58/133/46 59/134/13 54/135/18 56/136/45
f 59/134/13 13/28/13 60/31/18 54/135/18
f 17/38/17 21/41/21 28/52/27 60/125/18
