# Blender 4.0.2
# www.blender.org
mtllib M249_part_09.mtl
o M249_part_09
v 0.109599 -0.256704 0.360313
v 0.109599 -0.252662 0.360313
v 0.109599 -0.252235 0.365342
v 0.109599 -0.256704 0.342333
v 0.115596 -0.256704 0.360313
v 0.115596 -0.252235 0.365342
v 0.124781 -0.256704 0.360313
v 0.115596 -0.256704 0.342333
v 0.115596 -0.256704 0.328828
v 0.124781 -0.256704 0.342333
v 0.137157 -0.256704 0.342333
v 0.124781 -0.256704 0.328828
v 0.137157 -0.256704 0.328828
v 0.124781 -0.256704 0.310848
v 0.124781 -0.252662 0.310848
v 0.137157 -0.256704 0.310848
v 0.115596 -0.256704 0.310848
v 0.109599 -0.256704 0.310848
v 0.115596 -0.252662 0.310848
v 0.109599 -0.252662 0.310848
v 0.115596 -0.252662 0.329276
v 0.109599 -0.252662 0.328828
v 0.115596 -0.252662 0.341885
v 0.124781 -0.252662 0.329276
v 0.114326 -0.247979 0.329698
v 0.114326 -0.247979 0.341463
v 0.112857 -0.248544 0.328982
v 0.122027 -0.244857 0.329698
v 0.122027 -0.244857 0.341463
v 0.123213 -0.244368 0.328982
v 0.123213 -0.244368 0.341974
v 0.013049 0.028848 0.328982
v 0.013049 0.028848 0.341974
v 0.002694 0.024673 0.328982
v 0.002694 0.024673 0.341974
v 0.112857 -0.248544 0.341974
v 0.124781 -0.252662 0.341885
v 0.137157 -0.252662 0.342333
v 0.124781 -0.252662 0.360313
v 0.137157 -0.252662 0.360313
v 0.124781 -0.249943 0.363332
v 0.115596 -0.252662 0.360313
v 0.115596 -0.249943 0.363332
v 0.109599 -0.249943 0.363332
v 0.137157 -0.249943 0.363332
v 0.124781 -0.252235 0.365342
v 0.137157 -0.252235 0.365342
v 0.137157 -0.256704 0.360313
v 0.147978 -0.262803 0.360313
v 0.149529 -0.259545 0.360313
v 0.147978 -0.262803 0.342333
v 0.149529 -0.259545 0.342333
v 0.147978 -0.262803 0.328828
v 0.147978 -0.262803 0.310848
v 0.149529 -0.259545 0.328828
v 0.137157 -0.252662 0.328828
v 0.149529 -0.259545 0.310848
v 0.137157 -0.252662 0.310848
v 0.109599 -0.252662 0.342333
v 0.109599 -0.256704 0.328828
vn -0.6352 -0.7220 0.2744
vn -0.7973 0.5635 -0.2163
vn -0.7071 0.7071 -0.0000
vn -0.7071 -0.7071 -0.0000
vn -0.5777 -0.0508 0.8147
vn -0.5767 0.8156 0.0481
vn -0.0000 -0.9348 0.3552
vn -0.0000 -0.0622 0.9981
vn -0.0000 -1.0000 -0.0000
vn -0.2538 -0.9672 -0.0000
vn 0.0141 -0.7960 0.6052
vn -0.0000 -0.7071 -0.7071
vn -0.1623 -0.6184 -0.7689
vn -0.0000 0.7071 -0.7071
vn 0.1898 0.7317 -0.6547
vn -0.5774 -0.5774 -0.5774
vn -0.5774 0.5774 -0.5774
vn -0.2897 0.8849 -0.3648
vn 0.2525 0.9425 -0.2188
vn -0.2897 0.8849 0.3648
vn 0.0229 -0.9346 0.3549
vn 0.0227 -0.9367 -0.3494
vn 0.6306 -0.7140 -0.3043
vn -0.3242 -0.7492 0.5776
vn -0.3238 -0.7493 -0.5778
vn 0.7510 -0.3168 -0.5794
vn 0.2525 0.9425 0.2188
vn 0.6293 -0.7127 0.3098
vn 0.7510 -0.3166 0.5794
vn 0.3196 0.7514 -0.5773
vn 0.3196 0.7514 0.5774
vn -0.7514 0.3196 -0.5774
vn -0.7514 0.3196 0.5774
vn 0.2511 0.9680 -0.0000
vn -0.0000 0.9336 -0.3584
vn 0.5980 0.8015 0.0024
vn -0.0000 0.9983 0.0589
vn 0.5767 0.8156 0.0481
vn 0.5777 -0.0508 0.8147
vn 0.3020 -0.9533 -0.0000
vn 0.2473 -0.7808 0.5738
vn 0.7754 0.2480 0.5808
vn 0.9525 0.3046 -0.0000
vn 0.2473 -0.7808 -0.5738
vn 0.7754 0.2480 -0.5808
vt 0.082780 0.878485
vt 0.086408 0.878297
vt 0.087245 0.894440
vt 0.083616 0.894628
vt 0.086558 0.873761
vt 0.088709 0.875459
vt 0.575772 0.840285
vt 0.570381 0.840285
vt 0.570381 0.835775
vt 0.575772 0.835775
vt 0.575772 0.856450
vt 0.570381 0.856450
vt 0.562123 0.840285
vt 0.562123 0.835775
vt 0.562123 0.856450
vt 0.570381 0.868592
vt 0.562123 0.868592
vt 0.575772 0.868592
vt 0.550996 0.868592
vt 0.550996 0.856450
vt 0.550996 0.840285
vt 0.562123 0.884757
vt 0.550996 0.884757
vt 0.570381 0.884757
vt 0.964712 0.804348
vt 0.961123 0.804918
vt 0.959827 0.796764
vt 0.963415 0.796194
vt 0.958080 0.785779
vt 0.961669 0.785209
vt 0.965558 0.809670
vt 0.961969 0.810240
vt 0.575772 0.884757
vt 0.470670 0.835093
vt 0.476061 0.835093
vt 0.476061 0.851252
vt 0.470670 0.851655
vt 0.462411 0.835093
vt 0.462411 0.851655
vt 0.476061 0.863390
vt 0.470670 0.862988
vt 0.663569 0.974202
vt 0.663569 0.985538
vt 0.659360 0.985163
vt 0.659360 0.974585
vt 0.752387 0.385536
vt 0.755124 0.377747
vt 0.759468 0.378074
vt 0.759821 0.385536
vt 0.501004 0.977582
vt 0.501004 0.988160
vt 0.499684 0.988621
vt 0.499684 0.976940
vt 0.507929 0.977574
vt 0.508995 0.976929
vt 0.403536 0.816691
vt 0.403536 0.828027
vt 0.396511 0.827655
vt 0.396511 0.817077
vt 0.507929 0.988152
vt 0.508995 0.988610
vt 0.767823 0.128180
vt 0.779504 0.128194
vt 0.779504 0.374129
vt 0.767823 0.374116
vt 0.817921 0.807598
vt 0.807884 0.807601
vt 0.807884 0.542785
vt 0.817921 0.542782
vt 0.384526 0.988473
vt 0.375214 0.988374
vt 0.375214 0.976698
vt 0.384526 0.976796
vt 0.789127 0.385972
vt 0.800807 0.385988
vt 0.800807 0.631521
vt 0.789127 0.631505
vt 0.808298 0.020134
vt 0.818337 0.020134
vt 0.818337 0.284990
vt 0.808298 0.284990
vt 0.575689 0.381450
vt 0.578436 0.389238
vt 0.570995 0.389238
vt 0.571338 0.381774
vt 0.451285 0.851253
vt 0.462411 0.862988
vt 0.451285 0.863391
vt 0.462411 0.879550
vt 0.451285 0.879550
vt 0.470670 0.879550
vt 0.462410 0.882199
vt 0.451283 0.882200
vt 0.470668 0.882199
vt 0.476061 0.879550
vt 0.476059 0.882199
vt 0.805635 0.578690
vt 0.807698 0.578687
vt 0.807698 0.586945
vt 0.805635 0.586948
vt 0.807698 0.592336
vt 0.805635 0.592339
vt 0.805635 0.567563
vt 0.807698 0.567560
vt 0.550996 0.835775
vt 0.549626 0.994042
vt 0.546909 0.991629
vt 0.546885 0.987976
vt 0.549626 0.987994
vt 0.541267 0.856434
vt 0.541267 0.840269
vt 0.478497 0.963551
vt 0.481779 0.965112
vt 0.482551 0.976254
vt 0.479307 0.976254
vt 0.215142 0.642147
vt 0.212216 0.642143
vt 0.212216 0.625978
vt 0.215142 0.625982
vt 0.215142 0.654289
vt 0.212216 0.654285
vt 0.541267 0.868576
vt 0.215142 0.670454
vt 0.212216 0.670450
vt 0.541267 0.884741
vt 0.440165 0.863554
vt 0.440165 0.851416
vt 0.451285 0.835094
vt 0.440165 0.835257
vt 0.962445 0.773826
vt 0.965558 0.774743
vt 0.440165 0.879713
vt 0.087873 0.906566
vt 0.084244 0.906754
vt 0.088709 0.922709
vt 0.085080 0.922897
s 1
usemtl M249_Gun
f 1/1/1 2/2/2 59/3/3 4/4/4
f 2/2/2 1/1/1 3/5/5 44/6/6
f 1/7/1 5/8/7 6/9/8 3/10/5
f 4/11/4 8/12/9 5/8/7 1/7/1
f 5/8/7 7/13/7 46/14/8 6/9/8
f 8/12/9 10/15/9 7/13/7 5/8/7
f 9/16/9 12/17/9 10/15/9 8/12/9
f 60/18/4 9/16/9 8/12/9 4/11/4
f 12/17/9 13/19/10 11/20/10 10/15/9
f 10/15/9 11/20/10 48/21/11 7/13/7
f 14/22/12 16/23/13 13/19/10 12/17/9
f 17/24/12 14/22/12 12/17/9 9/16/9
f 17/25/12 19/26/14 15/27/14 14/28/12
f 14/28/12 15/27/14 58/29/15 16/30/13
f 18/31/16 20/32/17 19/26/14 17/25/12
f 18/33/16 17/24/12 9/16/9 60/18/4
f 19/34/14 20/35/17 22/36/3 21/37/18
f 15/38/14 19/34/14 21/37/18 24/39/19
f 21/37/18 22/36/3 59/40/3 23/41/20
f 21/42/18 23/43/20 26/44/21 25/45/22
f 24/46/19 21/47/18 25/48/22 28/49/23
f 25/50/22 26/51/21 36/52/24 27/53/25
f 28/54/23 25/50/22 27/53/25 30/55/26
f 37/56/27 24/57/19 28/58/23 29/59/28
f 29/60/28 28/54/23 30/55/26 31/61/29
f 31/62/29 30/63/26 32/64/30 33/65/31
f 30/66/26 27/67/25 34/68/32 32/69/30
f 32/70/30 34/71/32 35/72/33 33/73/31
f 27/74/25 36/75/24 35/76/33 34/77/32
f 36/78/24 31/79/29 33/80/31 35/81/33
f 26/51/21 29/60/28 31/61/29 36/52/24
f 23/82/20 37/83/27 29/84/28 26/85/21
f 56/86/34 24/39/19 37/87/27 38/88/34
f 38/88/34 37/87/27 39/89/35 40/90/36
f 37/87/27 23/41/20 42/91/35 39/89/35
f 40/90/36 39/89/35 41/92/37 45/93/38
f 39/89/35 42/91/35 43/94/37 41/92/37
f 42/91/35 2/95/2 44/96/6 43/94/37
f 23/41/20 59/40/3 2/95/2 42/91/35
f 46/97/8 41/98/37 43/99/37 6/100/8
f 6/100/8 43/99/37 44/101/6 3/102/5
f 47/103/39 45/104/38 41/98/37 46/97/8
f 7/13/7 48/21/11 47/105/39 46/14/8
f 48/106/11 40/107/36 45/108/38 47/109/39
f 48/21/11 11/20/10 51/110/40 49/111/41
f 40/112/36 48/113/11 49/114/41 50/115/42
f 51/116/40 52/117/43 50/118/42 49/119/41
f 53/120/40 55/121/43 52/117/43 51/116/40
f 11/20/10 13/19/10 53/122/40 51/110/40
f 54/123/44 57/124/45 55/121/43 53/120/40
f 13/19/10 16/23/13 54/125/44 53/122/40
f 56/86/34 38/88/34 52/126/43 55/127/43
f 58/128/15 56/86/34 55/127/43 57/129/45
f 16/30/13 58/29/15 57/130/45 54/131/44
f 58/128/15 15/38/14 24/39/19 56/86/34
f 38/88/34 40/90/36 50/132/42 52/126/43
f 4/4/4 59/3/3 22/133/3 60/134/4
f 60/134/4 22/133/3 20/135/17 18/136/16
