# Blender 4.0.2
# www.blender.org
mtllib M249_part_02.mtl
o M249_part_02
v 0.041780 0.205821 0.147232
v 0.041780 0.198541 0.162434
v 0.043895 0.202497 0.145694
v 0.037550 0.205821 0.147232
v 0.037550 0.198541 0.162434
v 0.035436 0.202497 0.145694
v 0.035436 0.195670 0.160159
v 0.037550 0.199172 0.144156
v 0.037550 0.192799 0.157884
v 0.041780 0.199172 0.144156
v 0.041780 0.192799 0.157884
v 0.043895 0.195670 0.160159
v 0.041780 0.191483 0.158949
v 0.037550 0.191483 0.158949
v 0.043895 0.192997 0.162284
v 0.041780 0.190302 0.159119
v 0.037550 0.190302 0.159119
v 0.043895 0.190271 0.162782
v 0.041780 0.185461 0.158090
v 0.037550 0.185461 0.158090
v 0.043895 0.184529 0.161633
v 0.041780 0.163721 0.150559
v 0.041780 0.160709 0.148894
v 0.037550 0.163721 0.150559
v 0.043895 0.162177 0.153881
v 0.043895 0.158442 0.151772
v 0.041780 0.160634 0.157203
v 0.041780 0.156176 0.154651
v 0.037550 0.160634 0.157203
v 0.041780 0.183597 0.165175
v 0.041780 0.190240 0.166445
v 0.037550 0.183597 0.165175
v 0.037550 0.190240 0.166445
v 0.035436 0.184529 0.161633
v 0.035436 0.190271 0.162782
v 0.035436 0.162177 0.153881
v 0.035436 0.158442 0.151772
v 0.037550 0.156176 0.154651
v 0.037550 0.160709 0.148894
v 0.035436 0.156273 0.149448
v 0.037550 0.153239 0.151500
v 0.037550 0.159308 0.147395
v 0.035436 0.154902 0.146526
v 0.037550 0.151393 0.147577
v 0.037550 0.158412 0.145474
v 0.035436 0.154138 0.141233
v 0.037550 0.150487 0.141532
v 0.035436 0.153915 0.084262
v 0.037550 0.157789 0.140934
v 0.041780 0.157789 0.140934
v 0.037550 0.157578 0.084262
v 0.041780 0.157578 0.084262
v 0.043895 0.153915 0.084262
v 0.043895 0.154138 0.141233
v 0.041780 0.150252 0.084262
v 0.037550 0.150252 0.084262
v 0.041780 0.150487 0.141532
v 0.041780 0.151393 0.147577
v 0.041780 0.153239 0.151500
v 0.043895 0.154902 0.146526
v 0.043895 0.156273 0.149448
v 0.041780 0.158412 0.145474
v 0.041780 0.159308 0.147395
v 0.035436 0.192997 0.162284
v 0.037550 0.194511 0.165620
v 0.041780 0.194511 0.165620
vn -0.4957 0.7836 0.3744
vn -0.4722 0.6888 0.5501
vn 0.4722 0.6888 0.5501
vn 0.4957 0.7836 0.3744
vn 0.9974 0.0556 0.0460
vn 1.0000 0.0014 0.0026
vn -1.0000 0.0014 0.0026
vn -0.9974 0.0556 0.0460
vn -0.4976 -0.7863 -0.3661
vn -0.5351 -0.6650 -0.5210
vn 0.4977 -0.7863 -0.3661
vn 0.5351 -0.6650 -0.5210
vn 0.5419 -0.3389 -0.7691
vn -0.5419 -0.3389 -0.7691
vn 0.9969 0.0339 0.0703
vn 0.5258 0.0235 -0.8503
vn -0.5258 0.0235 -0.8503
vn 0.9982 0.0034 0.0597
vn 0.5078 0.2302 -0.8302
vn -0.5078 0.2302 -0.8302
vn 0.9998 -0.0045 0.0211
vn 0.5118 0.3502 -0.7845
vn -0.5118 0.3502 -0.7845
vn 0.9996 -0.0125 0.0257
vn 0.9988 -0.0310 0.0375
vn 0.5233 0.5244 -0.6716
vn -0.5233 0.5244 -0.6716
vn 0.4874 -0.3615 0.7949
vn 0.4807 -0.5443 0.6874
vn 0.4895 -0.2259 0.8422
vn -0.4874 -0.3615 0.7949
vn -0.4807 -0.5443 0.6874
vn -0.4895 -0.2259 0.8422
vn -0.4759 -0.0002 0.8795
vn 0.4759 -0.0002 0.8795
vn -0.9982 0.0034 0.0597
vn -0.9998 -0.0045 0.0211
vn -0.9996 -0.0125 0.0257
vn -0.9988 -0.0310 0.0375
vn -0.9988 -0.0410 0.0279
vn -0.4799 -0.7266 0.4918
vn -0.5231 0.7062 -0.4771
vn -0.9989 -0.0446 0.0145
vn -0.4813 -0.8390 0.2539
vn -0.5222 0.8179 -0.2417
vn -0.9998 -0.0220 0.0024
vn -0.4900 -0.8692 0.0664
vn -0.5090 0.8586 -0.0607
vn -1.0000 -0.0012 0.0001
vn -0.4992 -0.8665 0.0035
vn -0.5002 0.8659 -0.0032
vn 0.5222 0.8179 -0.2417
vn 0.5090 0.8586 -0.0607
vn 0.5002 0.8659 -0.0032
vn 0.9998 -0.0220 0.0024
vn 1.0000 -0.0012 0.0001
vn 0.4900 -0.8692 0.0664
vn 0.4992 -0.8665 0.0035
vn 0.4813 -0.8390 0.2539
vn 0.9989 -0.0446 0.0145
vn 0.4799 -0.7266 0.4918
vn 0.9988 -0.0410 0.0279
vn 0.5231 0.7062 -0.4771
vn -0.9969 0.0339 0.0703
vn -0.4704 0.3674 0.8023
vn 0.4704 0.3674 0.8023
vt 0.964486 0.966173
vt 0.964486 0.980009
vt 0.960684 0.980008
vt 0.960684 0.966173
vt 0.703574 0.720544
vt 0.690067 0.727413
vt 0.689253 0.724221
vt 0.702034 0.717630
vt 0.253842 0.649701
vt 0.241060 0.643110
vt 0.241871 0.639921
vt 0.255379 0.646790
vt 0.252315 0.652620
vt 0.240261 0.646308
vt 0.082184 0.976574
vt 0.082184 0.988933
vt 0.078381 0.988933
vt 0.078381 0.976574
vt 0.688456 0.721026
vt 0.700510 0.714713
vt 0.813461 0.933438
vt 0.813430 0.932246
vt 0.817232 0.932220
vt 0.817263 0.933412
vt 0.686184 0.724276
vt 0.686934 0.721066
vt 0.813420 0.931183
vt 0.817221 0.931156
vt 0.683966 0.723140
vt 0.685998 0.720542
vt 0.813413 0.926839
vt 0.817214 0.926813
vt 0.680497 0.719180
vt 0.683107 0.717161
vt 0.813444 0.907355
vt 0.817245 0.907328
vt 0.668783 0.701427
vt 0.671709 0.699899
vt 0.667270 0.697879
vt 0.670469 0.697064
vt 0.813461 0.904660
vt 0.817263 0.904634
vt 0.665873 0.702953
vt 0.664087 0.698694
vt 0.677902 0.721198
vt 0.463454 0.927567
vt 0.463457 0.923562
vt 0.467260 0.923560
vt 0.467257 0.927566
vt 0.463449 0.948207
vt 0.467252 0.948206
vt 0.463449 0.954179
vt 0.467252 0.954177
vt 0.681948 0.725737
vt 0.235773 0.644191
vt 0.232304 0.648151
vt 0.229707 0.646136
vt 0.233753 0.641597
vt 0.220590 0.665905
vt 0.217677 0.664381
vt 0.237803 0.646792
vt 0.234911 0.650173
vt 0.223514 0.667435
vt 0.219077 0.669452
vt 0.215892 0.668640
vt 0.222274 0.670270
vt 0.218800 0.672297
vt 0.215518 0.672495
vt 0.222094 0.672106
vt 0.219420 0.675132
vt 0.216346 0.676304
vt 0.222504 0.673967
vt 0.221768 0.679327
vt 0.219004 0.681114
vt 0.224542 0.677548
vt 0.252759 0.720108
vt 0.250150 0.722115
vt 0.255379 0.718109
vt 0.179413 0.785900
vt 0.179413 0.789966
vt 0.175610 0.789966
vt 0.175610 0.785901
vt 0.179414 0.840895
vt 0.175611 0.840895
vt 0.669961 0.688004
vt 0.700952 0.647223
vt 0.703574 0.649225
vt 0.672738 0.689786
vt 0.667200 0.686220
vt 0.698346 0.645219
vt 0.175619 0.945132
vt 0.175620 0.893644
vt 0.179423 0.893644
vt 0.179422 0.945132
vt 0.175620 0.950565
vt 0.179422 0.950565
vt 0.664541 0.691030
vt 0.667613 0.692199
vt 0.175620 0.954087
vt 0.179423 0.954087
vt 0.663714 0.694839
vt 0.666993 0.695034
vt 0.670700 0.693367
vt 0.670289 0.695228
vt 0.179414 0.784195
vt 0.175611 0.784195
vt 0.179414 0.782881
vt 0.175611 0.782881
vt 0.175620 0.956912
vt 0.179423 0.956912
vt 0.238739 0.646268
vt 0.237991 0.643055
vt 0.237253 0.639851
vt 0.463457 0.961645
vt 0.463451 0.958020
vt 0.467254 0.958019
vt 0.467260 0.961644
vt 0.685449 0.727483
s 1
usemtl M249_Gun
f 4/1/1 5/2/2 2/3/3 1/4/4
f 1/5/4 2/6/3 12/7/5 3/8/6
f 6/9/7 7/10/8 5/11/2 4/12/1
f 8/13/9 9/14/10 7/10/8 6/9/7
f 10/15/11 11/16/12 9/17/10 8/18/9
f 3/8/6 12/7/5 11/19/12 10/20/11
f 11/21/12 13/22/13 14/23/14 9/24/10
f 12/7/5 15/25/15 13/26/13 11/19/12
f 13/22/13 16/27/16 17/28/17 14/23/14
f 15/25/15 18/29/18 16/30/16 13/26/13
f 16/27/16 19/31/19 20/32/20 17/28/17
f 18/29/18 21/33/21 19/34/19 16/30/16
f 19/31/19 22/35/22 24/36/23 20/32/20
f 25/37/24 22/38/22 19/34/19 21/33/21
f 25/37/24 26/39/25 23/40/26 22/38/22
f 22/35/22 23/41/26 39/42/27 24/36/23
f 27/43/28 28/44/29 26/39/25 25/37/24
f 27/43/28 25/37/24 21/33/21 30/45/30
f 29/46/31 38/47/32 28/48/29 27/49/28
f 32/50/33 29/46/31 27/49/28 30/51/30
f 33/52/34 32/50/33 30/51/30 31/53/35
f 31/54/35 30/45/30 21/33/21 18/29/18
f 35/55/36 34/56/37 32/57/33 33/58/34
f 36/59/38 29/60/31 32/57/33 34/56/37
f 17/61/17 20/62/20 34/56/37 35/55/36
f 24/63/23 36/59/38 34/56/37 20/62/20
f 36/59/38 37/64/39 38/65/32 29/60/31
f 24/63/23 39/66/27 37/64/39 36/59/38
f 37/64/39 40/67/40 41/68/41 38/65/32
f 39/66/27 42/69/42 40/67/40 37/64/39
f 40/67/40 43/70/43 44/71/44 41/68/41
f 42/69/42 45/72/45 43/70/43 40/67/40
f 43/70/43 46/73/46 47/74/47 44/71/44
f 45/72/45 49/75/48 46/73/46 43/70/43
f 48/76/49 56/77/50 47/74/47 46/73/46
f 51/78/51 48/76/49 46/73/46 49/75/48
f 62/79/52 50/80/53 49/81/48 45/82/45
f 52/83/54 51/84/51 49/81/48 50/80/53
f 54/85/55 53/86/56 52/87/54 50/88/53
f 57/89/57 55/90/58 53/86/56 54/85/55
f 47/91/47 56/92/50 55/93/58 57/94/57
f 44/95/44 47/91/47 57/94/57 58/96/59
f 58/97/59 57/89/57 54/85/55 60/98/60
f 41/99/41 44/95/44 58/96/59 59/100/61
f 59/101/61 58/97/59 60/98/60 61/102/62
f 61/102/62 60/98/60 62/103/52 63/104/63
f 60/98/60 54/85/55 50/88/53 62/103/52
f 63/105/63 62/79/52 45/82/45 42/106/42
f 26/39/25 61/102/62 63/104/63 23/40/26
f 23/107/26 63/105/63 42/106/42 39/108/27
f 28/44/29 59/101/61 61/102/62 26/39/25
f 38/109/32 41/99/41 59/100/61 28/110/29
f 14/111/14 17/61/17 35/55/36 64/112/64
f 64/112/64 35/55/36 33/58/34 65/113/65
f 9/14/10 14/111/14 64/112/64 7/10/8
f 7/10/8 64/112/64 65/113/65 5/11/2
f 5/114/2 65/115/65 66/116/66 2/117/3
f 65/115/65 33/52/34 31/53/35 66/116/66
f 2/6/3 66/118/66 15/25/15 12/7/5
f 66/118/66 31/54/35 18/29/18 15/25/15
