# Blender 4.0.2
# www.blender.org
mtllib M249_part_05.mtl
o M249_part_05
v -0.012058 0.035825 -0.085246
v 0.012058 0.035825 -0.085246
v -0.012058 0.035825 -0.242668
v -0.012058 0.042703 -0.085246
v -0.012058 0.064471 -0.085246
v -0.012058 0.042703 -0.248545
v 0.012058 0.042703 -0.085246
v 0.012058 0.064471 -0.085246
v 0.012058 0.042703 -0.248545
v 0.012058 0.064470 -0.242668
v 0.012058 0.035825 -0.242668
v 0.012058 0.042703 -0.291467
v 0.012058 0.064470 -0.291467
v -0.012058 0.042703 -0.291467
v -0.012058 0.064470 -0.291467
v -0.012058 0.064470 -0.242668
vn 0.5774 -0.5774 0.5774
vn 0.7071 -0.0000 0.7071
vn -0.7071 -0.0000 0.7071
vn -0.5774 -0.5774 0.5774
vn -0.6239 -0.7097 -0.3271
vn 0.6239 -0.7097 -0.3271
vn -0.8145 -0.5269 -0.2428
vn 0.5774 0.5774 0.5774
vn -0.5774 0.5774 0.5774
vn -0.7071 0.7071 -0.0000
vn 0.8145 -0.5269 -0.2428
vn 0.7071 0.7071 -0.0000
vn 0.5774 -0.5774 -0.5774
vn 0.5774 0.5774 -0.5774
vn -0.5774 -0.5774 -0.5774
vn -0.5774 0.5774 -0.5774
vt 0.264282 0.920896
vt 0.264282 0.927080
vt 0.242601 0.927080
vt 0.242601 0.920896
vt 0.658566 0.726689
vt 0.636885 0.726689
vt 0.636885 0.585157
vt 0.658566 0.585157
vt 0.636902 0.200566
vt 0.643086 0.200566
vt 0.643086 0.347383
vt 0.636902 0.342098
vt 0.264282 0.946650
vt 0.242601 0.946650
vt 0.662656 0.200566
vt 0.662656 0.342098
vt 0.702022 0.532788
vt 0.682452 0.527504
vt 0.682452 0.385972
vt 0.702022 0.385972
vt 0.708205 0.527504
vt 0.708206 0.385972
vt 0.702022 0.571378
vt 0.682452 0.571378
vt 0.983219 0.340173
vt 0.976987 0.340298
vt 0.976987 0.318622
vt 0.983219 0.318498
vt 0.242601 0.882306
vt 0.264282 0.882306
vt 0.264282 0.920896
vt 0.242601 0.920896
vt 0.436388 0.962553
vt 0.416819 0.962548
vt 0.416819 0.940873
vt 0.436388 0.940877
vt 0.662656 0.385972
vt 0.643086 0.385972
vt 0.753117 0.235387
vt 0.731436 0.235387
vt 0.731436 0.191528
vt 0.753117 0.191528
vt 0.753117 0.376870
vt 0.731436 0.376871
s 1
usemtl M249_Gun
f 2/1/1 7/2/2 4/3/3 1/4/4
f 3/5/5 11/6/6 2/7/1 1/8/4
f 1/9/4 4/10/3 6/11/7 3/12/5
f 7/2/2 8/13/8 5/14/9 4/3/3
f 4/10/3 5/15/9 16/16/10 6/11/7
f 9/17/11 10/18/12 8/19/8 7/20/2
f 11/21/6 9/17/11 7/20/2 2/22/1
f 10/18/12 9/17/11 12/23/13 13/24/14
f 3/25/5 6/26/7 9/27/11 11/28/6
f 9/29/11 6/30/7 14/31/15 12/32/13
f 14/33/15 15/34/16 13/35/14 12/36/13
f 6/11/7 16/16/10 15/37/16 14/38/15
f 16/39/10 10/40/12 13/41/14 15/42/16
f 10/40/12 16/39/10 5/43/9 8/44/8
