# Blender 4.0.2
# www.blender.org
mtllib M249_part_08.mtl
o M249_part_08
v 0.032321 -0.025189 0.331833
v 0.032321 -0.025189 0.338814
v 0.034553 -0.024285 0.331833
v 0.037359 -0.037634 0.331833
v 0.042470 -0.035565 0.331833
v 0.042398 -0.050078 0.331833
v 0.042398 -0.050078 0.338814
v 0.044631 -0.049175 0.331833
v 0.044631 -0.049175 0.338814
v 0.042470 -0.035565 0.338814
v 0.034553 -0.024285 0.338814
v 0.037359 -0.037634 0.338814
vn -0.2654 0.6554 -0.7071
vn -0.2654 0.6554 0.7071
vn 0.2285 0.7742 0.5903
vn 0.2285 0.7742 -0.5903
vn 0.6966 0.2820 -0.6597
vn -0.0000 -0.0000 -1.0000
vn 0.2654 -0.6554 -0.7071
vn 0.7028 -0.3971 -0.5903
vn 0.2654 -0.6554 0.7071
vn 0.7028 -0.3971 0.5903
vn 0.6966 0.2820 0.6597
vn -0.0000 -0.0000 1.0000
vt 0.970512 0.624887
vt 0.970512 0.631161
vt 0.968505 0.631140
vt 0.968505 0.624866
vt 0.788701 0.995444
vt 0.786536 0.995445
vt 0.783745 0.983377
vt 0.788701 0.983375
vt 0.788701 0.971306
vt 0.786536 0.971306
vt 0.200881 0.975879
vt 0.200881 0.982155
vt 0.198874 0.982158
vt 0.198874 0.975881
vt 0.088709 0.922904
vt 0.088701 0.935146
vt 0.082424 0.935139
vt 0.082433 0.922897
vt 0.688586 0.995167
vt 0.686421 0.995167
vt 0.683629 0.983096
vt 0.688586 0.983096
vt 0.688586 0.971025
vt 0.686421 0.971025
vt 0.088709 0.945309
vt 0.082433 0.945301
s 1
usemtl M249_Gun
f 1/1/1 2/2/2 11/3/3 3/4/4
f 1/5/1 3/6/4 5/7/5 4/8/6
f 6/9/7 4/8/6 5/7/5 8/10/8
f 7/11/9 6/12/7 8/13/8 9/14/10
f 8/15/8 5/16/5 10/17/11 9/18/10
f 7/19/9 9/20/10 10/21/11 12/22/12
f 2/23/2 12/22/12 10/21/11 11/24/3
f 5/16/5 3/25/4 11/26/3 10/17/11
