# Blender 4.0.2
# www.blender.org
mtllib M249_part_07.mtl
o M249_part_07
v 0.022716 0.159071 0.070648
v 0.022716 0.159071 0.283652
v 0.013419 0.162280 0.070648
v 0.029381 0.150679 0.070648
v 0.019255 0.154182 0.070648
v 0.012455 0.156529 0.070648
v 0.019255 0.154182 0.283652
v 0.024174 0.147988 0.070648
v 0.024174 0.147988 0.283652
v 0.026473 0.140077 0.070648
v 0.026473 0.140077 0.283652
v 0.027259 0.126747 0.070648
v 0.032178 0.141052 0.070648
v 0.032178 0.141052 0.283652
v 0.033001 0.127067 0.070648
v 0.033001 0.127067 0.283652
v 0.027259 0.126747 0.283652
v 0.029381 0.150679 0.283652
v 0.012455 0.156529 0.283652
v 0.000000 0.156529 0.283652
v 0.013419 0.162280 0.283652
v 0.000000 0.162280 0.283652
v 0.000000 0.162280 0.070648
v -0.013419 0.162280 0.283652
v -0.013419 0.162280 0.070648
v -0.022716 0.159071 0.283652
v -0.012455 0.156529 0.283652
v -0.012455 0.156529 0.070648
v -0.019255 0.154182 0.283652
v -0.019255 0.154182 0.070648
v -0.024174 0.147988 0.283652
v -0.024174 0.147988 0.070648
v -0.026473 0.140077 0.283652
v -0.029381 0.150679 0.283652
v -0.029381 0.150679 0.070648
v -0.032178 0.141052 0.283652
v -0.032178 0.141052 0.070648
v -0.033001 0.127067 0.283652
v -0.033001 0.127067 0.070648
v -0.027259 0.126747 0.283652
v -0.027259 0.126747 0.070648
v -0.026473 0.140077 0.070648
v -0.022716 0.159071 0.070648
v 0.000000 0.156529 0.070648
vn 0.4395 0.6208 -0.6492
vn 0.4395 0.6208 0.6492
vn 0.6626 0.3424 0.6661
vn 0.6626 0.3424 -0.6661
vn 0.1225 0.7306 -0.6717
vn 0.1225 0.7306 0.6717
vn -0.3645 -0.5150 -0.7759
vn -0.1101 -0.6564 -0.7463
vn -0.5843 -0.3020 -0.7532
vn -0.3645 -0.5150 0.7759
vn -0.1101 -0.6564 0.7463
vn -0.5843 -0.3020 0.7532
vn -0.6702 -0.1156 -0.7331
vn -0.6702 -0.1156 0.7331
vn 0.7200 0.1242 -0.6828
vn -0.5432 -0.6094 -0.5775
vn -0.5432 -0.6094 0.5775
vn 0.6095 -0.5434 -0.5772
vn 0.7200 0.1242 0.6828
vn 0.6095 -0.5434 0.5772
vn -0.0000 -0.7071 0.7071
vn -0.0000 -0.7071 -0.7071
vn -0.0000 0.7071 0.7071
vn -0.0000 0.7071 -0.7071
vn -0.1225 0.7306 -0.6717
vn -0.1225 0.7306 0.6717
vn 0.1101 -0.6564 0.7463
vn -0.4395 0.6208 -0.6492
vn -0.4395 0.6208 0.6492
vn 0.3645 -0.5150 0.7759
vn 0.1101 -0.6564 -0.7463
vn 0.3645 -0.5150 -0.7759
vn 0.5843 -0.3020 0.7532
vn 0.5843 -0.3020 -0.7532
vn -0.6626 0.3424 0.6661
vn 0.6702 -0.1156 0.7331
vn 0.6702 -0.1156 -0.7331
vn -0.7200 0.1242 0.6828
vn -0.6626 0.3424 -0.6661
vn -0.7200 0.1242 -0.6828
vn -0.6095 -0.5434 -0.5772
vn -0.6095 -0.5434 0.5772
vn 0.5432 -0.6094 0.5775
vn 0.5432 -0.6094 -0.5775
vt 0.636902 0.194442
vt 0.636902 0.385946
vt 0.629339 0.385963
vt 0.629339 0.194459
vt 0.311003 0.387805
vt 0.311003 0.579243
vt 0.302645 0.579319
vt 0.302645 0.387881
vt 0.785976 0.825195
vt 0.788861 0.816839
vt 0.793257 0.819951
vt 0.791146 0.826063
vt 0.796406 0.810850
vt 0.798825 0.815531
vt 0.143925 0.602603
vt 0.137811 0.602597
vt 0.137811 0.411094
vt 0.143925 0.411100
vt 0.709135 0.191503
vt 0.703571 0.191518
vt 0.703571 0.000015
vt 0.709135 0.000000
vt 0.696461 0.191525
vt 0.696461 0.000022
vt 0.805060 0.808338
vt 0.805937 0.813466
vt 0.684477 0.191528
vt 0.684477 0.000024
vt 0.817633 0.807601
vt 0.817921 0.812762
vt 0.620677 0.194466
vt 0.620677 0.385970
vt 0.608101 0.385972
vt 0.608101 0.194468
vt 0.702639 0.918988
vt 0.702639 0.727484
vt 0.707802 0.727483
vt 0.707802 0.918987
vt 0.859619 0.644622
vt 0.847045 0.643882
vt 0.847922 0.638752
vt 0.859907 0.639459
vt 0.838391 0.641367
vt 0.840810 0.636686
vt 0.830845 0.635375
vt 0.835241 0.632264
vt 0.827960 0.627016
vt 0.833131 0.626149
vt 0.155122 0.411100
vt 0.155122 0.602603
vt 0.827960 0.614952
vt 0.833131 0.614952
vt 0.323067 0.579243
vt 0.323067 0.387805
vt 0.335132 0.387805
vt 0.335132 0.579243
vt 0.827960 0.602887
vt 0.833131 0.603754
vt 0.343492 0.387881
vt 0.343492 0.579319
vt 0.830845 0.594528
vt 0.835241 0.597640
vt 0.166320 0.411100
vt 0.166320 0.602603
vt 0.172434 0.411094
vt 0.172434 0.602597
vt 0.684477 0.383032
vt 0.690032 0.191541
vt 0.690032 0.383044
vt 0.838391 0.588537
vt 0.840810 0.593218
vt 0.697138 0.191547
vt 0.697138 0.383050
vt 0.847045 0.586021
vt 0.847922 0.591151
vt 0.615653 0.385992
vt 0.624310 0.386001
vt 0.624310 0.577504
vt 0.615653 0.577496
vt 0.608101 0.577475
vt 0.636885 0.386003
vt 0.636885 0.577507
vt 0.859619 0.585282
vt 0.859907 0.590444
vt 0.920332 0.223463
vt 0.920332 0.414966
vt 0.915169 0.414966
vt 0.915169 0.223462
vt 0.709121 0.191549
vt 0.709121 0.383053
vt 0.817633 0.866924
vt 0.805060 0.866182
vt 0.805937 0.861054
vt 0.817921 0.861763
vt 0.796406 0.863666
vt 0.798825 0.858986
vt 0.788861 0.857674
vt 0.793257 0.854564
vt 0.785976 0.849317
vt 0.791146 0.848451
vt 0.785976 0.837256
vt 0.791146 0.837257
s 1
usemtl M249_Gun
f 1/1/1 2/2/2 18/3/3 4/4/4
f 3/5/5 21/6/6 2/7/2 1/8/1
f 3/9/5 1/10/1 5/11/7 6/12/8
f 1/10/1 4/13/4 8/14/9 5/11/7
f 6/15/8 5/16/7 7/17/10 19/18/11
f 5/19/7 8/20/9 9/21/12 7/22/10
f 8/20/9 10/23/13 11/24/14 9/21/12
f 4/13/4 13/25/15 10/26/13 8/14/9
f 10/23/13 12/27/16 17/28/17 11/24/14
f 13/25/15 15/29/18 12/30/16 10/26/13
f 13/31/15 14/32/19 16/33/20 15/34/18
f 4/4/4 18/3/3 14/32/19 13/31/15
f 15/35/18 16/36/20 17/37/17 12/38/16
f 16/39/20 14/40/19 11/41/14 17/42/17
f 14/40/19 18/43/3 9/44/12 11/41/14
f 18/43/3 2/45/2 7/46/10 9/44/12
f 2/45/2 21/47/6 19/48/11 7/46/10
f 20/49/21 44/50/22 6/15/8 19/18/11
f 21/47/6 22/51/23 20/52/21 19/48/11
f 22/53/23 21/6/6 3/5/5 23/54/24
f 22/53/23 23/54/24 25/55/25 24/56/26
f 22/51/23 24/57/26 27/58/27 20/52/21
f 25/55/25 43/59/28 26/60/29 24/56/26
f 24/57/26 26/61/29 29/62/30 27/58/27
f 20/49/21 27/63/27 28/64/31 44/50/22
f 28/64/31 27/63/27 29/65/30 30/66/32
f 30/67/32 29/27/30 31/68/33 32/69/34
f 26/61/29 34/70/35 31/71/33 29/62/30
f 32/69/34 31/68/33 33/72/36 42/73/37
f 34/70/35 36/74/38 33/75/36 31/71/33
f 35/76/39 37/77/40 36/78/38 34/79/35
f 43/33/28 35/76/39 34/79/35 26/80/29
f 37/77/40 39/81/41 38/82/42 36/78/38
f 36/74/38 38/83/42 40/84/43 33/75/36
f 38/85/42 39/86/41 41/87/44 40/88/43
f 42/73/37 33/72/36 40/89/43 41/90/44
f 39/91/41 37/92/40 42/93/37 41/94/44
f 37/92/40 35/95/39 32/96/34 42/93/37
f 35/95/39 43/97/28 30/98/32 32/96/34
f 43/97/28 25/99/25 28/100/31 30/98/32
f 25/99/25 23/101/24 44/102/22 28/100/31
f 23/101/24 3/9/5 6/12/8 44/102/22
