# Blender 4.0.2
# www.blender.org
mtllib M249_part_00.mtl
o M249_part_00
v 0.039146 0.021088 -0.083151
v 0.032434 0.021088 -0.080722
v 0.032434 0.021088 -0.083151
v 0.033333 0.017732 -0.080722
v 0.033333 0.017732 -0.083151
v 0.035790 0.015275 -0.080722
v 0.035790 0.015275 -0.083151
v 0.039146 0.014376 -0.080722
v 0.039146 0.014376 -0.083151
v 0.042503 0.015275 -0.080722
v 0.042503 0.015275 -0.083151
v 0.044960 0.017732 -0.080722
v 0.044960 0.017732 -0.083151
v 0.045859 0.021088 -0.080722
v 0.045859 0.021088 -0.083151
v 0.044960 0.024445 -0.080722
v 0.044960 0.024445 -0.083151
v 0.042503 0.026902 -0.080722
v 0.042503 0.026902 -0.083151
v 0.039146 0.027801 -0.080722
v 0.039146 0.027801 -0.083151
v 0.035790 0.026902 -0.080722
v 0.035790 0.026902 -0.083151
v 0.033333 0.024445 -0.080722
v 0.033333 0.024445 -0.083151
v 0.001967 0.021088 -0.083151
v -0.003847 0.017732 -0.083151
v -0.004746 0.021088 -0.083151
v -0.001390 0.015275 -0.083151
v 0.001967 0.014376 -0.083151
v 0.005323 0.015275 -0.083151
v 0.007780 0.017732 -0.083151
v 0.008679 0.021088 -0.083151
v 0.007780 0.024445 -0.083151
v 0.005323 0.026902 -0.083151
v 0.001967 0.027801 -0.083151
v -0.001390 0.026902 -0.083151
v -0.003847 0.024445 -0.083151
v -0.003847 0.024445 -0.080722
v -0.001390 0.026902 -0.080722
v -0.004746 0.021088 -0.080722
v -0.003847 0.017732 -0.080722
v -0.001390 0.015275 -0.080722
v 0.001967 0.014376 -0.080722
v 0.005323 0.015275 -0.080722
v 0.007780 0.017732 -0.080722
v 0.008679 0.021088 -0.080722
v 0.007780 0.024445 -0.080722
v 0.005323 0.026902 -0.080722
v 0.001967 0.027801 -0.080722
v -0.038600 0.021088 -0.083151
v -0.044414 0.017732 -0.083151
v -0.045313 0.021088 -0.083151
v -0.041957 0.015275 -0.083151
v -0.038600 0.014376 -0.083151
v -0.035244 0.015275 -0.083151
v -0.032787 0.017732 -0.083151
v -0.031887 0.021088 -0.083151
v -0.032787 0.024445 -0.083151
v -0.035244 0.026902 -0.083151
v -0.038600 0.027801 -0.083151
v -0.041957 0.026902 -0.083151
v -0.044414 0.024445 -0.083151
v -0.044414 0.024445 -0.080722
v -0.041957 0.026902 -0.080722
v -0.045313 0.021088 -0.080722
v -0.044414 0.017732 -0.080722
v -0.041957 0.015275 -0.080722
v -0.038600 0.014376 -0.080722
v -0.035244 0.015275 -0.080722
v -0.032787 0.017732 -0.080722
v -0.031887 0.021088 -0.080722
v -0.032787 0.024445 -0.080722
v -0.035244 0.026902 -0.080722
v -0.038600 0.027801 -0.080722
v 0.040275 0.021088 0.004847
v 0.046089 0.017732 0.004847
v 0.046988 0.021088 0.004847
v 0.043632 0.015275 0.004847
v 0.040275 0.014376 0.004847
v 0.036919 0.015275 0.004847
v 0.034462 0.017732 0.004847
v 0.033563 0.021088 0.004847
v 0.034462 0.024445 0.004847
v 0.036919 0.026902 0.004847
v 0.040275 0.027801 0.004847
v 0.043632 0.026902 0.004847
v 0.046089 0.024445 0.004847
v 0.046089 0.024445 0.002419
v 0.043632 0.026902 0.002419
v 0.046988 0.021088 0.002419
v 0.046089 0.017732 0.002419
v 0.043632 0.015275 0.002419
v 0.040275 0.014376 0.002419
v 0.036919 0.015275 0.002419
v 0.034462 0.017732 0.002419
v 0.033563 0.021088 0.002419
v 0.034462 0.024445 0.002419
v 0.036919 0.026902 0.002419
v 0.040275 0.027801 0.002419
v -0.000291 0.021088 0.004847
v 0.005522 0.017732 0.004847
v 0.006421 0.021088 0.004847
v 0.003065 0.015275 0.004847
v -0.000291 0.014376 0.004847
v -0.003648 0.015275 0.004847
v -0.006105 0.017732 0.004847
v -0.007004 0.021088 0.004847
v -0.006105 0.024445 0.004847
v -0.003648 0.026902 0.004847
v -0.000291 0.027801 0.004847
v 0.003065 0.026902 0.004847
v 0.005522 0.024445 0.004847
v 0.005522 0.024445 0.002419
v 0.003065 0.026902 0.002419
v 0.006421 0.021088 0.002419
v 0.005522 0.017732 0.002419
v 0.003065 0.015275 0.002419
v -0.000291 0.014376 0.002419
v -0.003648 0.015275 0.002419
v -0.006105 0.017732 0.002419
v -0.007004 0.021088 0.002419
v -0.006105 0.024445 0.002419
v -0.003648 0.026902 0.002419
v -0.000291 0.027801 0.002419
v -0.037471 0.021088 0.004847
v -0.031658 0.017732 0.004847
v -0.030758 0.021088 0.004847
v -0.034115 0.015275 0.004847
v -0.037471 0.014376 0.004847
v -0.040828 0.015275 0.004847
v -0.043285 0.017732 0.004847
v -0.044184 0.021088 0.004847
v -0.043285 0.024445 0.004847
v -0.040828 0.026902 0.004847
v -0.037471 0.027801 0.004847
v -0.034115 0.026902 0.004847
v -0.031658 0.024445 0.004847
v -0.031658 0.024445 0.002419
v -0.034115 0.026902 0.002419
v -0.030758 0.021088 0.002419
v -0.031658 0.017732 0.002419
v -0.034115 0.015275 0.002419
v -0.037471 0.014376 0.002419
v -0.040828 0.015275 0.002419
v -0.043285 0.017732 0.002419
v -0.044184 0.021088 0.002419
v -0.043285 0.024445 0.002419
v -0.040828 0.026902 0.002419
v -0.037471 0.027801 0.002419
v -0.061981 0.021088 -0.064426
v -0.061981 0.017732 -0.058613
v -0.061981 0.021088 -0.057713
v -0.061981 0.015275 -0.061070
v -0.061981 0.014376 -0.064426
v -0.061981 0.015275 -0.067782
v -0.061981 0.017732 -0.070240
v -0.061981 0.021088 -0.071139
v -0.061981 0.024445 -0.070240
v -0.061981 0.026902 -0.067782
v -0.061981 0.027801 -0.064426
v -0.061981 0.026902 -0.061070
v -0.061981 0.024445 -0.058613
v -0.059552 0.024445 -0.058613
v -0.059552 0.026902 -0.061070
v -0.059552 0.021088 -0.057713
v -0.059552 0.017732 -0.058613
v -0.059552 0.015275 -0.061070
v -0.059552 0.014376 -0.064426
v -0.059552 0.015275 -0.067782
v -0.059552 0.017732 -0.070240
v -0.059552 0.021088 -0.071139
v -0.059552 0.024445 -0.070240
v -0.059552 0.026902 -0.067782
v -0.059552 0.027801 -0.064426
v -0.061981 0.021088 -0.013375
v -0.061981 0.017732 -0.007561
v -0.061981 0.021088 -0.006662
v -0.061981 0.015275 -0.010018
v -0.061981 0.014376 -0.013375
v -0.061981 0.015275 -0.016731
v -0.061981 0.017732 -0.019188
v -0.061981 0.021088 -0.020087
v -0.061981 0.024445 -0.019188
v -0.061981 0.026902 -0.016731
v -0.061981 0.027801 -0.013375
v -0.061981 0.026902 -0.010018
v -0.061981 0.024445 -0.007561
v -0.059552 0.024445 -0.007561
v -0.059552 0.026902 -0.010018
v -0.059552 0.021088 -0.006662
v -0.059552 0.017732 -0.007561
v -0.059552 0.015275 -0.010018
v -0.059552 0.014376 -0.013375
v -0.059552 0.015275 -0.016731
v -0.059552 0.017732 -0.019188
v -0.059552 0.021088 -0.020087
v -0.059552 0.024445 -0.019188
v -0.059552 0.026902 -0.016731
v -0.059552 0.027801 -0.013375
v 0.062377 0.021088 -0.064426
v 0.062377 0.017732 -0.070240
v 0.062377 0.021088 -0.071139
v 0.062377 0.015275 -0.067782
v 0.062377 0.014376 -0.064426
v 0.062377 0.015275 -0.061070
v 0.062377 0.017732 -0.058613
v 0.062377 0.021088 -0.057713
v 0.062377 0.024445 -0.058613
v 0.062377 0.026902 -0.061070
v 0.062377 0.027801 -0.064426
v 0.062377 0.026902 -0.067782
v 0.062377 0.024445 -0.070240
v 0.059948 0.024445 -0.070240
v 0.059948 0.026902 -0.067782
v 0.059948 0.021088 -0.071139
v 0.059948 0.017732 -0.070240
v 0.059948 0.015275 -0.067782
v 0.059948 0.014376 -0.064426
v 0.059948 0.015275 -0.061070
v 0.059948 0.017732 -0.058613
v 0.059948 0.021088 -0.057713
v 0.059948 0.024445 -0.058613
v 0.059948 0.026902 -0.061070
v 0.059948 0.027801 -0.064426
v 0.062377 0.021088 -0.013375
v 0.062377 0.017732 -0.019188
v 0.062377 0.021088 -0.020087
v 0.062377 0.015275 -0.016731
v 0.062377 0.014376 -0.013375
v 0.062377 0.015275 -0.010018
v 0.062377 0.017732 -0.007561
v 0.062377 0.021088 -0.006662
v 0.062377 0.024445 -0.007561
v 0.062377 0.026902 -0.010018
v 0.062377 0.027801 -0.013375
v 0.062377 0.026902 -0.016731
v 0.062377 0.024445 -0.019188
v 0.059948 0.024445 -0.019188
v 0.059948 0.026902 -0.016731
v 0.059948 0.021088 -0.020087
v 0.059948 0.017732 -0.019188
v 0.059948 0.015275 -0.016731
v 0.059948 0.014376 -0.013375
v 0.059948 0.015275 -0.010018
v 0.059948 0.017732 -0.007561
v 0.059948 0.021088 -0.006662
v 0.059948 0.024445 -0.007561
v 0.059948 0.026902 -0.010018
v 0.059948 0.027801 -0.013375
v 0.011890 0.035579 -0.094461
v 0.013687 0.035579 -0.094461
v 0.011890 0.035579 -0.103474
v 0.011890 0.041664 -0.089616
v 0.011890 0.055080 -0.089019
v 0.013687 0.041664 -0.089616
v 0.011890 0.041756 -0.104808
v 0.011890 0.055376 -0.104973
v 0.011890 0.041809 -0.113439
v 0.011890 0.055545 -0.114036
v 0.013687 0.041809 -0.113439
v 0.011890 0.035579 -0.108594
v 0.013687 0.035579 -0.108594
v 0.013687 0.035579 -0.103474
v 0.013687 0.041756 -0.104808
v 0.013687 0.055376 -0.104973
v 0.013687 0.055080 -0.089019
v 0.013687 0.066339 -0.104973
v 0.013687 0.055545 -0.114036
v 0.013687 0.066601 -0.114036
v 0.013687 0.072039 -0.112206
v 0.011890 0.066601 -0.114036
v 0.011890 0.072039 -0.112206
v 0.011890 0.066339 -0.104973
v 0.011890 0.072941 -0.104973
v 0.011890 0.065878 -0.089019
v 0.011890 0.065878 -0.080968
v 0.011890 0.072381 -0.089019
v 0.013687 0.072381 -0.089019
v 0.011890 0.071649 -0.080968
v 0.013687 0.071649 -0.080968
v 0.011890 0.067846 -0.077455
v 0.013687 0.067846 -0.077455
v 0.011890 0.064752 -0.077455
v 0.013687 0.064752 -0.077455
v 0.011890 0.059615 -0.077455
v 0.013687 0.059615 -0.077455
v 0.011890 0.055080 -0.080968
v 0.013687 0.055080 -0.080968
v 0.013687 0.065878 -0.080968
v 0.013687 0.065878 -0.089019
v 0.013687 0.072941 -0.104973
v -0.011890 0.035579 -0.094461
v -0.011890 0.035579 -0.103474
v -0.013687 0.035579 -0.094461
v -0.011890 0.041664 -0.089616
v -0.013687 0.041664 -0.089616
v -0.011890 0.055080 -0.089019
v -0.011890 0.041756 -0.104808
v -0.011890 0.041809 -0.113439
v -0.011890 0.055376 -0.104973
v -0.011890 0.055545 -0.114036
v -0.011890 0.066339 -0.104973
v -0.011890 0.066601 -0.114036
v -0.011890 0.072941 -0.104973
v -0.011890 0.065878 -0.089019
v -0.011890 0.065878 -0.080968
v -0.011890 0.072381 -0.089019
v -0.013687 0.072381 -0.089019
v -0.011890 0.071649 -0.080968
v -0.011890 0.067846 -0.077455
v -0.013687 0.071649 -0.080968
v -0.013687 0.067846 -0.077455
v -0.013687 0.065878 -0.080968
v -0.013687 0.064752 -0.077455
v -0.013687 0.065878 -0.089019
v -0.013687 0.055080 -0.080968
v -0.013687 0.059615 -0.077455
v -0.011890 0.055080 -0.080968
v -0.013687 0.055080 -0.089019
v -0.013687 0.055376 -0.104973
v -0.013687 0.041756 -0.104808
v -0.013687 0.066339 -0.104973
v -0.013687 0.055545 -0.114036
v -0.013687 0.041809 -0.113439
v -0.013687 0.066601 -0.114036
v -0.013687 0.072039 -0.112206
v -0.011890 0.072039 -0.112206
v -0.013687 0.072941 -0.104973
v -0.013687 0.035579 -0.108594
v -0.011890 0.035579 -0.108594
v -0.013687 0.035579 -0.103474
v -0.011890 0.059615 -0.077455
v -0.011890 0.064752 -0.077455
v -0.004931 0.019281 -0.088074
v -0.004931 0.036678 -0.089391
v -0.004931 0.019281 -0.090825
v 0.004931 0.019281 -0.088074
v -0.004931 0.011092 -0.088729
v 0.004931 0.011092 -0.088729
v -0.004931 0.003545 -0.092216
v -0.004931 0.011868 -0.091369
v 0.004931 0.011868 -0.091369
v -0.004931 0.005734 -0.093883
v 0.004931 0.005734 -0.093883
v -0.004931 0.001289 -0.099165
v 0.004931 0.001289 -0.099165
v -0.004931 -0.001370 -0.098455
v -0.004931 -0.000585 -0.106514
v -0.004931 -0.003336 -0.106467
v 0.004931 -0.000585 -0.106514
v -0.004931 -0.002145 -0.152476
v 0.004931 -0.002145 -0.152476
v -0.004931 -0.004896 -0.152429
v -0.004931 0.000505 -0.156833
v -0.004931 -0.001071 -0.159088
v 0.004931 0.000505 -0.156833
v -0.004931 0.006070 -0.158942
v -0.004931 0.006376 -0.161677
v 0.004931 0.006070 -0.158942
v -0.004931 0.020273 -0.159540
v 0.004931 0.020273 -0.159540
v -0.004931 0.020015 -0.162279
v 0.004931 0.020015 -0.162279
v 0.004931 0.006376 -0.161677
v 0.004931 -0.001071 -0.159088
v 0.004931 -0.004896 -0.152429
v 0.004931 -0.003336 -0.106467
v 0.004931 -0.001370 -0.098455
v 0.004931 0.003545 -0.092216
v 0.004931 0.019281 -0.090825
v 0.004931 0.036678 -0.093348
v -0.004931 0.036678 -0.093348
v 0.004931 0.036678 -0.089391
v -0.005745 0.026211 -0.131728
v -0.005745 0.025256 -0.148115
v -0.005745 0.038373 -0.110427
v 0.005745 0.026211 -0.131728
v -0.005745 0.017757 -0.133664
v 0.005745 0.017757 -0.133664
v -0.005745 0.012454 -0.133418
v -0.005745 0.017557 -0.146126
v 0.005745 0.017557 -0.146126
v -0.005745 0.006422 -0.142317
v 0.005745 0.006422 -0.142317
v -0.004673 0.000394 -0.134769
v 0.004673 0.000394 -0.134769
v -0.002631 -0.001663 -0.125129
v -0.004673 0.005481 -0.129367
v 0.004673 0.005481 -0.129367
v -0.002631 0.001238 -0.123511
v 0.002631 0.001238 -0.123511
v 0.002631 -0.001663 -0.125129
v 0.005745 0.012454 -0.133418
v 0.005745 0.025256 -0.148115
v 0.005745 0.037419 -0.150015
v 0.005745 0.038373 -0.110427
v -0.005745 0.037419 -0.150015
v -0.047519 -0.078965 -0.002732
v -0.062768 -0.061264 0.003687
v -0.014310 -0.078965 -0.002732
v -0.047519 -0.078965 -0.015186
v -0.014310 -0.078965 -0.015186
v -0.047519 -0.078965 -0.050423
v -0.062768 -0.061264 -0.014183
v -0.062768 -0.061264 -0.058971
v -0.067000 -0.033453 -0.015947
v -0.067000 -0.033453 0.007679
v -0.067000 -0.033453 -0.069062
v -0.060531 0.002543 -0.016992
v -0.060531 0.002543 0.002276
v -0.060531 0.002543 -0.062269
v -0.061833 0.010530 -0.015969
v -0.061833 0.010530 0.004142
v -0.061833 0.010530 -0.063291
v -0.060578 0.029327 -0.015969
v -0.059379 0.045440 -0.015969
v -0.060578 0.029327 0.004142
v -0.060578 0.029327 -0.063291
v -0.059379 0.045440 -0.063291
v -0.060578 0.029327 -0.082198
v -0.059379 0.045440 -0.082198
v -0.018244 0.029327 -0.082198
v -0.061833 0.010530 -0.082198
v -0.060531 0.002543 -0.080332
v -0.018622 0.010530 -0.082198
v -0.018230 0.002543 -0.080332
v 0.018630 0.010530 -0.082198
v 0.018238 0.002543 -0.080332
v 0.061833 0.010530 -0.082198
v 0.018252 0.029327 -0.082198
v 0.017891 0.045440 -0.082198
v 0.060578 0.029327 -0.082198
v 0.059379 0.045440 -0.082198
v 0.060578 0.029327 -0.063291
v 0.059379 0.045440 -0.063291
v 0.060578 0.029327 -0.015969
v 0.061833 0.010530 -0.063291
v 0.060531 0.002543 -0.062269
v 0.061833 0.010530 -0.015969
v 0.060531 0.002543 -0.016992
v 0.061833 0.010530 0.004142
v 0.060531 0.002543 0.002276
v 0.018630 0.010530 0.004142
v 0.060578 0.029327 0.004142
v 0.059379 0.045440 0.004142
v 0.018252 0.029327 0.004142
v 0.017891 0.045440 0.004142
v -0.018244 0.029327 0.004142
v -0.017883 0.045440 0.004142
v -0.018622 0.010530 0.004142
v -0.018230 0.002543 0.002276
v -0.020047 -0.033453 0.007679
v 0.018238 0.002543 0.002276
v 0.020450 -0.033453 0.007679
v 0.067437 -0.033453 0.007679
v 0.019014 -0.061264 0.003687
v 0.062938 -0.061264 0.003687
v 0.014318 -0.078965 -0.002732
v -0.018852 -0.061264 0.003687
v 0.047519 -0.078965 -0.002732
v 0.014318 -0.078965 -0.015186
v 0.047519 -0.078965 -0.015186
v 0.014318 -0.078965 -0.050423
v 0.014318 -0.078965 -0.067021
v -0.014310 -0.078965 -0.050423
v 0.047519 -0.078965 -0.050423
v 0.062938 -0.061264 -0.058971
v 0.047519 -0.078965 -0.067021
v 0.062938 -0.061264 -0.078029
v 0.067437 -0.033453 -0.089230
v 0.019014 -0.061264 -0.078029
v 0.020450 -0.033453 -0.089230
v -0.018852 -0.061264 -0.078029
v -0.062768 -0.061264 -0.078029
v -0.014310 -0.078965 -0.067021
v -0.020047 -0.033453 -0.089230
v -0.067000 -0.033453 -0.089230
v -0.047519 -0.078965 -0.067021
v 0.060531 0.002543 -0.080332
v 0.067437 -0.033453 -0.069062
v 0.067437 -0.033453 -0.015947
v 0.062938 -0.061264 -0.014183
v -0.014143 0.053647 0.003089
v -0.059379 0.045440 0.004142
v -0.046964 0.053647 0.003089
v -0.046964 0.053647 -0.016546
v -0.014143 0.053647 -0.016546
v -0.046964 0.053647 -0.062714
v -0.046964 0.053647 -0.081145
v -0.014143 0.053647 -0.062714
v -0.014143 0.053647 -0.081145
v 0.014151 0.053647 -0.062714
v -0.014143 0.055649 -0.062714
v 0.014151 0.055649 -0.062714
v -0.014143 0.064922 -0.072077
v -0.014143 0.055649 -0.016546
v 0.014151 0.055649 -0.016546
v -0.014143 0.064922 -0.007183
v 0.014151 0.064922 -0.007183
v 0.014151 0.064922 -0.072077
v 0.014151 0.053647 -0.016546
v 0.046964 0.053647 -0.016546
v 0.014151 0.053647 0.003089
v 0.046964 0.053647 0.003089
v 0.059379 0.045440 -0.015969
v 0.046964 0.053647 -0.062714
v 0.046964 0.053647 -0.081145
v 0.014151 0.053647 -0.081145
v -0.017883 0.045440 -0.082198
vn -0.0000 -0.0000 -1.0000
vn -0.6557 -0.3786 -0.6532
vn -0.7572 -0.0000 -0.6532
vn -1.0000 -0.0000 -0.0000
vn -0.8660 -0.5000 -0.0000
vn -0.3786 -0.6557 -0.6532
vn -0.5000 -0.8660 -0.0000
vn -0.0000 -0.7572 -0.6532
vn -0.0000 -1.0000 -0.0000
vn 0.3786 -0.6557 -0.6532
vn 0.5000 -0.8660 -0.0000
vn 0.6557 -0.3786 -0.6532
vn 0.8660 -0.5000 -0.0000
vn 0.7572 -0.0000 -0.6532
vn 1.0000 -0.0000 -0.0000
vn 0.6557 0.3786 -0.6532
vn 0.8660 0.5000 -0.0000
vn 0.3786 0.6557 -0.6532
vn 0.5000 0.8660 -0.0000
vn -0.0000 0.7572 -0.6532
vn -0.0000 1.0000 -0.0000
vn -0.3786 0.6557 -0.6532
vn -0.5000 0.8660 -0.0000
vn -0.6557 0.3786 -0.6532
vn -0.8660 0.5000 -0.0000
vn -0.0000 -0.0000 1.0000
vn 0.3786 -0.6557 0.6532
vn 0.6557 -0.3786 0.6532
vn 0.7572 -0.0000 0.6532
vn 0.6557 0.3786 0.6532
vn -0.0000 -0.7572 0.6532
vn -0.3786 -0.6557 0.6532
vn -0.6557 -0.3786 0.6532
vn -0.7572 -0.0000 0.6532
vn -0.6557 0.3786 0.6532
vn -0.3786 0.6557 0.6532
vn -0.0000 0.7572 0.6532
vn 0.3786 0.6557 0.6532
vn -0.6532 -0.6557 0.3786
vn -0.6532 -0.3786 0.6557
vn -0.6532 -0.0000 0.7572
vn -0.6532 0.3786 0.6557
vn -0.6532 -0.7572 -0.0000
vn -0.6532 -0.6557 -0.3786
vn -0.6532 -0.3786 -0.6557
vn -0.6532 -0.0000 -0.7572
vn -0.6532 0.3786 -0.6557
vn -0.6532 0.6557 -0.3786
vn -0.6532 0.7572 -0.0000
vn -0.6532 0.6557 0.3786
vn -0.0000 0.8660 0.5000
vn -0.0000 0.5000 0.8660
vn -0.0000 -0.5000 0.8660
vn -0.0000 -0.8660 0.5000
vn -0.0000 -0.8660 -0.5000
vn -0.0000 -0.5000 -0.8660
vn -0.0000 0.5000 -0.8660
vn -0.0000 0.8660 -0.5000
vn 0.6532 -0.6557 -0.3786
vn 0.6532 -0.3786 -0.6557
vn 0.6532 -0.0000 -0.7572
vn 0.6532 0.3786 -0.6557
vn 0.6532 -0.7572 -0.0000
vn 0.6532 -0.6557 0.3786
vn 0.6532 -0.3786 0.6557
vn 0.6532 -0.0000 0.7572
vn 0.6532 0.3786 0.6557
vn 0.6532 0.6557 0.3786
vn 0.6532 0.7572 -0.0000
vn 0.6532 0.6557 -0.3786
vn 0.6212 -0.7059 0.3403
vn 0.6438 -0.2685 0.7166
vn -0.6438 -0.2685 0.7166
vn -0.6212 -0.7059 0.3403
vn -0.7071 -0.7071 -0.0000
vn 0.7071 -0.7071 -0.0000
vn -0.8993 -0.3161 0.3023
vn 0.8993 -0.3161 0.3023
vn -0.7023 -0.0155 -0.7118
vn -0.6447 -0.2637 -0.7175
vn -0.6203 -0.7046 -0.3446
vn 0.7023 -0.0155 -0.7118
vn 0.6447 -0.2637 -0.7175
vn 0.6203 -0.7046 -0.3446
vn 0.6725 0.1196 -0.7304
vn -0.6725 0.1196 -0.7304
vn 0.6047 0.6167 -0.5040
vn 0.6896 0.7234 -0.0322
vn -0.6047 0.6167 -0.5040
vn -0.6896 0.7234 -0.0322
vn -0.7009 0.7118 0.0448
vn -0.6202 -0.7044 0.3453
vn -0.6345 0.6933 0.3416
vn 0.7009 0.7118 0.0448
vn 0.6345 0.6933 0.3416
vn -0.6336 0.2819 0.7205
vn 0.6336 0.2819 0.7205
vn -0.7071 -0.0000 0.7071
vn 0.7071 -0.0000 0.7071
vn 0.6410 -0.2484 0.7262
vn -0.6410 -0.2484 0.7262
vn 0.6202 -0.7044 0.3453
vn 0.6900 -0.0016 0.7238
vn 0.7235 0.0521 0.6883
vn -0.7235 0.0521 0.6883
vn -0.6900 -0.0016 0.7238
vn -0.6724 -0.1062 -0.7326
vn -0.7323 -0.0241 -0.6805
vn -0.7443 0.1530 -0.6501
vn -0.6697 -0.1883 0.7184
vn 0.6697 -0.1883 0.7184
vn -0.6582 -0.4664 0.5910
vn 0.6582 -0.4664 0.5910
vn -0.7650 0.3794 -0.5204
vn 0.7443 0.1530 -0.6501
vn 0.7650 0.3794 -0.5204
vn 0.7323 -0.0241 -0.6805
vn 0.7609 0.5771 -0.2965
vn -0.7609 0.5771 -0.2965
vn -0.6624 -0.6733 0.3285
vn 0.7322 0.6743 -0.0963
vn -0.7322 0.6743 -0.0963
vn -0.6846 -0.7221 0.0998
vn -0.7775 0.6083 0.1594
vn -0.6503 -0.7372 -0.1833
vn 0.7775 0.6083 0.1594
vn 0.7881 0.3934 0.4735
vn -0.7881 0.3934 0.4735
vn -0.6362 -0.4923 -0.5941
vn -0.7448 0.1340 0.6537
vn -0.6759 -0.1387 -0.7238
vn 0.7448 0.1340 0.6537
vn -0.6951 0.0302 0.7183
vn -0.7181 -0.0307 -0.6953
vn 0.6951 0.0302 0.7183
vn 0.6759 -0.1387 -0.7238
vn 0.7181 -0.0307 -0.6953
vn 0.6362 -0.4923 -0.5941
vn 0.6503 -0.7372 -0.1833
vn 0.6846 -0.7221 0.0998
vn 0.6624 -0.6733 0.3285
vn 0.6724 -0.1062 -0.7326
vn -0.8096 -0.3498 0.4713
vn -0.6963 -0.1453 -0.7029
vn -0.6986 -0.2054 -0.6854
vn -0.7389 -0.0602 0.6712
vn -0.6757 -0.1138 -0.7283
vn -0.3004 -0.8283 0.4729
vn 0.3004 -0.8283 0.4729
vn 0.8096 -0.3498 0.4713
vn 0.7389 -0.0602 0.6712
vn -0.7695 0.1386 0.6235
vn 0.7695 0.1386 0.6235
vn -0.6621 -0.4572 -0.5938
vn 0.6963 -0.1453 -0.7029
vn 0.6986 -0.2054 -0.6854
vn 0.6621 -0.4572 -0.5938
vn 0.6436 -0.7239 -0.2483
vn -0.6436 -0.7239 -0.2483
vn -0.7512 0.3111 0.5822
vn 0.5008 -0.7799 0.3754
vn -0.5008 -0.7799 0.3754
vn -0.5022 0.1390 0.8535
vn 0.7512 0.3111 0.5822
vn 0.5022 0.1390 0.8535
vn 0.6757 -0.1138 -0.7283
vn -0.3201 -0.8130 0.4863
vn -0.6622 -0.4092 0.6277
vn -0.9085 -0.4178 -0.0000
vn -0.4167 -0.9090 -0.0000
vn -0.0000 -0.8188 0.5741
vn -0.0000 -0.2428 0.9701
vn -0.7107 0.0106 0.7034
vn -0.9999 0.0134 -0.0000
vn -0.7124 -0.0245 0.7013
vn -1.0000 0.0081 -0.0000
vn -0.7048 -0.1055 0.7015
vn -0.9989 -0.0474 -0.0000
vn -0.7062 0.0499 0.7063
vn -0.9975 0.0704 -0.0000
vn -0.8626 0.5059 -0.0000
vn -0.6697 0.4036 0.6234
vn -0.6697 0.4036 -0.6234
vn -0.7062 0.0499 -0.7063
vn -0.7048 -0.1055 -0.7015
vn -0.0000 0.0637 -0.9980
vn -0.0000 -0.1145 -0.9934
vn -0.7251 0.0114 -0.6885
vn -0.0000 0.0064 -1.0000
vn 0.7048 -0.1055 -0.7015
vn 0.7235 0.0162 -0.6901
vn 0.7062 0.0499 -0.7063
vn 0.6697 0.4036 -0.6234
vn 0.8626 0.5059 -0.0000
vn 0.9975 0.0704 -0.0000
vn 0.9989 -0.0474 -0.0000
vn 0.9999 0.0140 -0.0000
vn 0.7048 -0.1055 0.7015
vn 0.7109 -0.0201 0.7030
vn 0.7062 0.0499 0.7063
vn -0.0000 -0.1145 0.9934
vn -0.0000 -0.0403 0.9992
vn 0.6697 0.4036 0.6234
vn -0.0000 0.0637 0.9980
vn -0.0000 0.0032 1.0000
vn 0.7127 0.0113 0.7013
vn 0.6595 -0.4138 0.6276
vn 0.3179 -0.8137 0.4867
vn 0.4142 -0.9102 -0.0000
vn -0.0000 -0.8741 -0.4857
vn 0.3211 -0.8597 -0.3973
vn 0.9054 -0.4246 -0.0000
vn 0.6508 -0.5132 -0.5595
vn -0.0000 -0.4526 -0.8917
vn 0.6816 -0.0378 -0.7307
vn 0.9999 0.0146 -0.0000
vn -0.0000 -0.0702 -0.9975
vn -0.6538 -0.5088 -0.5600
vn -0.6795 -0.0389 -0.7327
vn -0.3234 -0.8589 -0.3970
vn -0.0000 0.7507 0.6606
vn -0.2140 0.7718 0.5988
vn -0.2879 0.9576 -0.0000
vn -0.3015 0.9045 0.3015
vn -0.3015 0.9045 -0.3015
vn -0.2140 0.7718 -0.5988
vn -0.0000 0.7507 -0.6606
vn 0.3015 0.9045 -0.3015
vn -0.8048 -0.2285 -0.5478
vn 0.8048 -0.2285 -0.5478
vn -0.8048 -0.2285 0.5478
vn -0.5468 0.3185 -0.7743
vn 0.5468 0.3185 -0.7743
vn -0.5468 0.3185 0.7743
vn 0.8048 -0.2285 0.5478
vn 0.5468 0.3185 0.7743
vn 0.3015 0.9045 0.3015
vn 0.2879 0.9576 -0.0000
vn 0.2140 0.7718 0.5988
vn 0.2140 0.7718 -0.5988
vt 0.457197 0.975150
vt 0.452930 0.979417
vt 0.451369 0.976712
vt 0.226961 0.991516
vt 0.229144 0.991514
vt 0.229149 0.994531
vt 0.226966 0.994533
vt 0.455635 0.980979
vt 0.744098 0.969581
vt 0.746281 0.969581
vt 0.746275 0.971790
vt 0.744091 0.971790
vt 0.458758 0.980979
vt 0.746273 0.974808
vt 0.744089 0.974808
vt 0.461463 0.979417
vt 0.746275 0.977826
vt 0.744091 0.977826
vt 0.463024 0.976711
vt 0.746281 0.980035
vt 0.744098 0.980035
vt 0.463024 0.973587
vt 0.723214 0.983903
vt 0.725397 0.983905
vt 0.725392 0.986920
vt 0.723209 0.986919
vt 0.461463 0.970882
vt 0.725392 0.989940
vt 0.723209 0.989939
vt 0.458758 0.969320
vt 0.725397 0.992156
vt 0.723214 0.992154
vt 0.455635 0.969320
vt 0.616221 0.956302
vt 0.614039 0.956302
vt 0.614017 0.953285
vt 0.616200 0.953285
vt 0.452930 0.970882
vt 0.614039 0.950267
vt 0.616221 0.950267
vt 0.451369 0.973588
vt 0.226966 0.986286
vt 0.229149 0.986284
vt 0.229144 0.988495
vt 0.226961 0.988497
vt 0.248402 0.974967
vt 0.246840 0.980797
vt 0.244136 0.979235
vt 0.242574 0.976530
vt 0.242574 0.973406
vt 0.249964 0.980797
vt 0.252668 0.979235
vt 0.254230 0.976529
vt 0.254230 0.973405
vt 0.252668 0.970700
vt 0.249964 0.969138
vt 0.246840 0.969138
vt 0.244136 0.970700
vt 0.766474 0.986546
vt 0.768657 0.986544
vt 0.768652 0.988756
vt 0.766468 0.988758
vt 0.768652 0.991774
vt 0.766468 0.991776
vt 0.768657 0.994791
vt 0.766474 0.994793
vt 0.628373 0.981167
vt 0.626189 0.981167
vt 0.626196 0.978958
vt 0.628379 0.978958
vt 0.626198 0.975941
vt 0.628381 0.975941
vt 0.626196 0.972923
vt 0.628379 0.972923
vt 0.626189 0.970714
vt 0.628373 0.970714
vt 0.385029 0.984427
vt 0.387212 0.984428
vt 0.387208 0.987444
vt 0.385024 0.987442
vt 0.387208 0.990463
vt 0.385024 0.990462
vt 0.387212 0.992679
vt 0.385029 0.992678
vt 0.973711 0.635450
vt 0.971528 0.635450
vt 0.971507 0.632433
vt 0.973689 0.632433
vt 0.971528 0.629415
vt 0.973711 0.629415
vt 0.941853 0.975154
vt 0.943415 0.969324
vt 0.946119 0.970886
vt 0.947681 0.973592
vt 0.947681 0.976716
vt 0.940292 0.969325
vt 0.937587 0.970887
vt 0.936025 0.973592
vt 0.936025 0.976716
vt 0.937587 0.979422
vt 0.940292 0.980984
vt 0.943415 0.980984
vt 0.946119 0.979421
vt 0.321682 0.993832
vt 0.319498 0.993834
vt 0.319504 0.991623
vt 0.321687 0.991621
vt 0.319504 0.988604
vt 0.321687 0.988602
vt 0.319498 0.985587
vt 0.321682 0.985585
vt 0.403531 0.973109
vt 0.405714 0.973109
vt 0.405708 0.975318
vt 0.403525 0.975318
vt 0.405706 0.978336
vt 0.403522 0.978336
vt 0.405708 0.981354
vt 0.403525 0.981354
vt 0.405714 0.983563
vt 0.403531 0.983563
vt 0.802822 0.985209
vt 0.805006 0.985211
vt 0.805001 0.988226
vt 0.802818 0.988224
vt 0.805001 0.991246
vt 0.802818 0.991244
vt 0.805006 0.993462
vt 0.802822 0.993460
vt 0.791041 0.995399
vt 0.788859 0.995399
vt 0.788837 0.992382
vt 0.791020 0.992382
vt 0.788859 0.989364
vt 0.791041 0.989364
vt 0.773653 0.379959
vt 0.779482 0.378397
vt 0.779482 0.381521
vt 0.777920 0.384226
vt 0.775215 0.385788
vt 0.777920 0.375691
vt 0.775215 0.374129
vt 0.772091 0.374129
vt 0.769385 0.375691
vt 0.767823 0.378397
vt 0.767823 0.381521
vt 0.769385 0.384226
vt 0.772091 0.385788
vt 0.919950 0.992220
vt 0.917767 0.992218
vt 0.917762 0.990003
vt 0.919945 0.990004
vt 0.917762 0.986983
vt 0.919945 0.986984
vt 0.917767 0.983968
vt 0.919950 0.983969
vt 0.169374 0.982454
vt 0.167191 0.982454
vt 0.167185 0.980245
vt 0.169368 0.980245
vt 0.167182 0.977227
vt 0.169366 0.977227
vt 0.167185 0.974209
vt 0.169368 0.974209
vt 0.167191 0.972000
vt 0.169374 0.972000
vt 0.890967 0.993923
vt 0.888784 0.993925
vt 0.888778 0.990908
vt 0.890962 0.990906
vt 0.888778 0.987889
vt 0.890962 0.987887
vt 0.888784 0.985678
vt 0.890967 0.985676
vt 0.272813 0.988423
vt 0.274996 0.988423
vt 0.274975 0.991442
vt 0.272792 0.991442
vt 0.274996 0.994459
vt 0.272813 0.994459
vt 0.793383 0.097101
vt 0.797651 0.101368
vt 0.794945 0.102930
vt 0.791821 0.102930
vt 0.789115 0.101368
vt 0.799213 0.098663
vt 0.799213 0.095538
vt 0.797651 0.092833
vt 0.794945 0.091271
vt 0.791821 0.091271
vt 0.789115 0.092833
vt 0.787553 0.095538
vt 0.787553 0.098663
vt 0.293485 0.984016
vt 0.295669 0.984018
vt 0.295673 0.986234
vt 0.293490 0.986232
vt 0.295673 0.989254
vt 0.293490 0.989252
vt 0.295669 0.992269
vt 0.293485 0.992267
vt 0.789362 0.971306
vt 0.791546 0.971306
vt 0.791552 0.973515
vt 0.789369 0.973515
vt 0.791554 0.976533
vt 0.789371 0.976533
vt 0.791552 0.979550
vt 0.789369 0.979550
vt 0.791546 0.981759
vt 0.789362 0.981759
vt 0.935320 0.994244
vt 0.933137 0.994246
vt 0.933131 0.991229
vt 0.935315 0.991227
vt 0.933131 0.988211
vt 0.935315 0.988209
vt 0.933137 0.985999
vt 0.935320 0.985997
vt 0.964778 0.081645
vt 0.966961 0.081645
vt 0.966939 0.084663
vt 0.964757 0.084663
vt 0.966961 0.087680
vt 0.964778 0.087680
vt 0.785312 0.379959
vt 0.791142 0.381521
vt 0.789580 0.384226
vt 0.786874 0.385788
vt 0.783750 0.385788
vt 0.791142 0.378397
vt 0.789580 0.375691
vt 0.786874 0.374129
vt 0.783750 0.374129
vt 0.781044 0.375691
vt 0.779482 0.381521
vt 0.781044 0.384226
vt 0.776784 0.992463
vt 0.774600 0.992461
vt 0.774596 0.990245
vt 0.776779 0.990247
vt 0.774596 0.987225
vt 0.776779 0.987227
vt 0.774600 0.984210
vt 0.776784 0.984212
vt 0.847544 0.982438
vt 0.845360 0.982438
vt 0.845354 0.980229
vt 0.847537 0.980229
vt 0.845352 0.977211
vt 0.847535 0.977211
vt 0.845354 0.974194
vt 0.847537 0.974194
vt 0.845360 0.971985
vt 0.847544 0.971985
vt 0.992088 0.051720
vt 0.994272 0.051718
vt 0.994277 0.054735
vt 0.992094 0.054737
vt 0.994277 0.057754
vt 0.992094 0.057756
vt 0.994272 0.059965
vt 0.992088 0.059967
vt 0.992541 0.370228
vt 0.994724 0.370228
vt 0.994703 0.373246
vt 0.992520 0.373246
vt 0.994724 0.376263
vt 0.992541 0.376263
vt 0.968299 0.683288
vt 0.964032 0.679021
vt 0.966737 0.677459
vt 0.969861 0.677459
vt 0.972567 0.679021
vt 0.962470 0.681726
vt 0.962470 0.684850
vt 0.964032 0.687556
vt 0.966737 0.689118
vt 0.969861 0.689118
vt 0.972567 0.687556
vt 0.974129 0.684850
vt 0.974129 0.681726
vt 0.403522 0.989596
vt 0.405706 0.989596
vt 0.405707 0.991863
vt 0.403523 0.991863
vt 0.560328 0.987261
vt 0.562512 0.987260
vt 0.562514 0.990278
vt 0.560331 0.990279
vt 0.562514 0.993295
vt 0.560331 0.993296
vt 0.562512 0.995502
vt 0.560328 0.995503
vt 0.628050 0.995615
vt 0.625866 0.995615
vt 0.625866 0.992599
vt 0.628050 0.992599
vt 0.625866 0.989579
vt 0.628050 0.989579
vt 0.229008 0.976859
vt 0.226826 0.976859
vt 0.226773 0.974630
vt 0.228956 0.974630
vt 0.226754 0.971605
vt 0.228936 0.971605
vt 0.226773 0.968595
vt 0.228956 0.968595
vt 0.226826 0.966406
vt 0.229008 0.966406
vt 0.403523 0.983563
vt 0.405707 0.983563
vt 0.405706 0.986558
vt 0.403522 0.986558
vt 0.338229 0.973980
vt 0.342496 0.969713
vt 0.344058 0.972418
vt 0.344058 0.975542
vt 0.342496 0.978248
vt 0.339791 0.968151
vt 0.336667 0.968151
vt 0.333961 0.969713
vt 0.332399 0.972418
vt 0.332399 0.975542
vt 0.333961 0.978248
vt 0.336667 0.979810
vt 0.339791 0.979810
vt 0.744089 0.986068
vt 0.746273 0.986068
vt 0.746273 0.988335
vt 0.744090 0.988334
vt 0.754173 0.995220
vt 0.751989 0.995221
vt 0.751987 0.992202
vt 0.754170 0.992201
vt 0.751987 0.989185
vt 0.754170 0.989184
vt 0.751989 0.986978
vt 0.754173 0.986977
vt 0.847544 0.995792
vt 0.845360 0.995792
vt 0.845360 0.992777
vt 0.847544 0.992777
vt 0.845360 0.989757
vt 0.847544 0.989757
vt 0.325405 0.954835
vt 0.323222 0.954835
vt 0.323170 0.952607
vt 0.325352 0.952606
vt 0.323150 0.949582
vt 0.325333 0.949581
vt 0.323170 0.946571
vt 0.325352 0.946571
vt 0.323222 0.944383
vt 0.325405 0.944382
vt 0.744090 0.980035
vt 0.746273 0.980035
vt 0.746273 0.983030
vt 0.744089 0.983030
vt 0.028415 0.974648
vt 0.029977 0.968818
vt 0.032683 0.970380
vt 0.034245 0.973086
vt 0.034245 0.976210
vt 0.026853 0.968818
vt 0.024148 0.970380
vt 0.022586 0.973086
vt 0.022586 0.976210
vt 0.024148 0.978915
vt 0.026853 0.980478
vt 0.029977 0.980477
vt 0.032683 0.978915
vt 0.319571 0.965708
vt 0.321753 0.965707
vt 0.321701 0.967896
vt 0.319518 0.967897
vt 0.321681 0.970906
vt 0.319498 0.970907
vt 0.321701 0.973931
vt 0.319518 0.973932
vt 0.321753 0.976160
vt 0.319571 0.976161
vt 0.993239 0.642792
vt 0.995422 0.642792
vt 0.995422 0.645812
vt 0.993239 0.645812
vt 0.995422 0.648827
vt 0.993239 0.648827
vt 0.995289 0.282580
vt 0.993105 0.282581
vt 0.993108 0.280373
vt 0.995291 0.280372
vt 0.993108 0.277356
vt 0.995291 0.277355
vt 0.993105 0.274338
vt 0.995289 0.274337
vt 0.154638 0.983880
vt 0.156821 0.983881
vt 0.156822 0.986147
vt 0.154638 0.986147
vt 0.156822 0.989185
vt 0.154638 0.989185
vt 0.156821 0.992180
vt 0.154638 0.992180
vt 0.185252 0.974297
vt 0.189520 0.978565
vt 0.186814 0.980127
vt 0.183690 0.980127
vt 0.180985 0.978565
vt 0.191082 0.975859
vt 0.191082 0.972735
vt 0.189520 0.970030
vt 0.186814 0.968468
vt 0.183690 0.968468
vt 0.180985 0.970030
vt 0.179423 0.972735
vt 0.179423 0.975859
vt 0.933204 0.966120
vt 0.935386 0.966119
vt 0.935334 0.968308
vt 0.933151 0.968309
vt 0.935314 0.971318
vt 0.933131 0.971319
vt 0.935334 0.974343
vt 0.933151 0.974344
vt 0.935386 0.976572
vt 0.933204 0.976573
vt 0.996195 0.554968
vt 0.994012 0.554968
vt 0.994012 0.551948
vt 0.996195 0.551948
vt 0.994012 0.548932
vt 0.996195 0.548932
vt 0.736894 0.994904
vt 0.734711 0.994905
vt 0.734713 0.992698
vt 0.736897 0.992697
vt 0.734713 0.989681
vt 0.736897 0.989680
vt 0.734711 0.986663
vt 0.736894 0.986662
vt 0.698125 0.991944
vt 0.695942 0.991944
vt 0.695941 0.989677
vt 0.698124 0.989678
vt 0.695941 0.986639
vt 0.698124 0.986640
vt 0.695942 0.983644
vt 0.698125 0.983644
vt 0.302612 0.764654
vt 0.302607 0.770121
vt 0.300992 0.770122
vt 0.300997 0.764655
vt 0.528477 0.805186
vt 0.526862 0.805186
vt 0.526862 0.797083
vt 0.528477 0.797083
vt 0.558867 0.884757
vt 0.563223 0.890227
vt 0.549564 0.890311
vt 0.550763 0.884757
vt 0.563759 0.902289
vt 0.549416 0.902556
vt 0.302612 0.782182
vt 0.300997 0.782183
vt 0.541267 0.902708
vt 0.541804 0.890358
vt 0.546160 0.884757
vt 0.474395 0.698888
vt 0.474412 0.686534
vt 0.476026 0.686537
vt 0.476010 0.698891
vt 0.474486 0.704528
vt 0.476100 0.704532
vt 0.528477 0.809790
vt 0.526862 0.809790
vt 0.116706 0.891030
vt 0.121062 0.896631
vt 0.113302 0.896584
vt 0.112102 0.891030
vt 0.099643 0.896501
vt 0.103999 0.891030
vt 0.121598 0.908981
vt 0.113450 0.908830
vt 0.099106 0.908563
vt 0.113450 0.918686
vt 0.099106 0.918271
vt 0.121598 0.918921
vt 0.474435 0.676594
vt 0.476050 0.676597
vt 0.119953 0.923811
vt 0.113450 0.924621
vt 0.474486 0.671720
vt 0.476100 0.671723
vt 0.549416 0.912412
vt 0.549416 0.918348
vt 0.542912 0.917537
vt 0.541267 0.912648
vt 0.563759 0.911998
vt 0.563759 0.917844
vt 0.570998 0.902289
vt 0.570998 0.911998
vt 0.570998 0.917186
vt 0.474395 0.711011
vt 0.476010 0.711011
vt 0.476010 0.725363
vt 0.474395 0.725363
vt 0.476011 0.732617
vt 0.474396 0.732617
vt 0.302612 0.797080
vt 0.300997 0.797080
vt 0.300992 0.793658
vt 0.302607 0.793658
vt 0.574156 0.910985
vt 0.574156 0.913767
vt 0.302607 0.790877
vt 0.300992 0.790877
vt 0.302607 0.786258
vt 0.300992 0.786258
vt 0.574156 0.906367
vt 0.300997 0.782183
vt 0.302612 0.782183
vt 0.264139 0.963310
vt 0.262524 0.963310
vt 0.262524 0.956072
vt 0.264139 0.956072
vt 0.091868 0.908563
vt 0.091868 0.918271
vt 0.088709 0.917259
vt 0.088709 0.912640
vt 0.099106 0.924118
vt 0.091868 0.923460
vt 0.088709 0.920041
vt 0.474396 0.704532
vt 0.476011 0.704532
vt 0.610855 0.891281
vt 0.618959 0.891281
vt 0.620158 0.896834
vt 0.606499 0.896751
vt 0.526862 0.817893
vt 0.528477 0.817893
vt 0.526862 0.779554
vt 0.528477 0.779553
vt 0.528472 0.785020
vt 0.526857 0.785021
vt 0.528477 0.797082
vt 0.526862 0.797083
vt 0.620306 0.909080
vt 0.605963 0.908813
vt 0.623562 0.891280
vt 0.627918 0.896882
vt 0.628455 0.909231
vt 0.628455 0.919171
vt 0.620306 0.918936
vt 0.605963 0.918521
vt 0.626810 0.924061
vt 0.620306 0.924871
vt 0.605963 0.924368
vt 0.598724 0.923710
vt 0.598724 0.918522
vt 0.598724 0.908813
vt 0.589708 0.784714
vt 0.589708 0.791967
vt 0.588093 0.791967
vt 0.588093 0.784714
vt 0.589708 0.770362
vt 0.588093 0.770362
vt 0.595565 0.920291
vt 0.595565 0.917509
vt 0.588098 0.806864
vt 0.588093 0.803443
vt 0.589708 0.803443
vt 0.589713 0.806864
vt 0.014184 0.895817
vt 0.011025 0.896830
vt 0.011025 0.894048
vt 0.014184 0.890629
vt 0.021422 0.895817
vt 0.021422 0.889971
vt 0.014184 0.905526
vt 0.011025 0.901449
vt 0.021422 0.905526
vt 0.589713 0.791967
vt 0.589708 0.796042
vt 0.588093 0.796042
vt 0.588098 0.791967
vt 0.688076 0.962340
vt 0.688076 0.955102
vt 0.689691 0.955102
vt 0.689691 0.962340
vt 0.035618 0.917504
vt 0.021959 0.917588
vt 0.035766 0.905259
vt 0.035766 0.895403
vt 0.043378 0.917457
vt 0.043915 0.905108
vt 0.043915 0.895167
vt 0.476010 0.666079
vt 0.474395 0.666075
vt 0.474412 0.653722
vt 0.476026 0.653725
vt 0.474435 0.643782
vt 0.476050 0.643785
vt 0.474486 0.638908
vt 0.476100 0.638911
vt 0.035766 0.889467
vt 0.042269 0.890278
vt 0.589708 0.763882
vt 0.588093 0.763882
vt 0.476100 0.671720
vt 0.474486 0.671716
vt 0.039022 0.923058
vt 0.034418 0.923058
vt 0.526862 0.822497
vt 0.528477 0.822497
vt 0.026315 0.923058
vt 0.595565 0.912890
vt 0.589708 0.800661
vt 0.588093 0.800661
vt 0.971336 0.703262
vt 0.971340 0.718904
vt 0.962474 0.718906
vt 0.962470 0.703263
vt 0.762248 0.767664
vt 0.777730 0.765140
vt 0.778566 0.768598
vt 0.762829 0.770069
vt 0.756466 0.772110
vt 0.755231 0.769967
vt 0.962470 0.695902
vt 0.971336 0.695900
vt 0.962474 0.689119
vt 0.971340 0.689118
vt 0.751637 0.775603
vt 0.749372 0.774608
vt 0.971455 0.654405
vt 0.962592 0.654411
vt 0.962644 0.648917
vt 0.971507 0.648911
vt 0.971446 0.661065
vt 0.962583 0.661070
vt 0.693114 0.884304
vt 0.701980 0.884303
vt 0.701978 0.888945
vt 0.693112 0.888945
vt 0.748868 0.781158
vt 0.746395 0.781099
vt 0.701977 0.895505
vt 0.693111 0.895506
vt 0.748783 0.787976
vt 0.746369 0.788516
vt 0.757130 0.828471
vt 0.754716 0.829012
vt 0.701978 0.936777
vt 0.693113 0.936778
vt 0.701980 0.940756
vt 0.693114 0.940756
vt 0.760366 0.831719
vt 0.759465 0.834023
vt 0.765675 0.832387
vt 0.766520 0.834712
vt 0.425687 0.980330
vt 0.416821 0.980328
vt 0.416819 0.975322
vt 0.425685 0.975324
vt 0.778213 0.829908
vt 0.778566 0.832357
vt 0.416821 0.962553
vt 0.425687 0.962555
vt 0.384077 0.969981
vt 0.375214 0.969951
vt 0.375245 0.957685
vt 0.384108 0.957715
vt 0.198729 0.776188
vt 0.199573 0.773863
vt 0.211619 0.776218
vt 0.211267 0.778666
vt 0.384108 0.976698
vt 0.375245 0.976668
vt 0.193419 0.776856
vt 0.192519 0.774552
vt 0.008866 0.852825
vt 0.000000 0.852825
vt 0.000000 0.846828
vt 0.008866 0.846828
vt 0.190183 0.780103
vt 0.187769 0.779563
vt 0.008866 0.894144
vt 0.000000 0.894144
vt 0.181837 0.820599
vt 0.179423 0.820059
vt 0.008866 0.901342
vt 0.000000 0.901342
vt 0.181922 0.827417
vt 0.179449 0.827475
vt 0.008866 0.906938
vt 0.000000 0.906938
vt 0.184691 0.832972
vt 0.182426 0.833966
vt 0.189520 0.836464
vt 0.188284 0.838607
vt 0.195883 0.838506
vt 0.195301 0.840910
vt 0.211619 0.839977
vt 0.210783 0.843435
vt 0.971507 0.676726
vt 0.962644 0.676732
vt 0.318838 0.899686
vt 0.304090 0.899183
vt 0.305710 0.892220
vt 0.316915 0.892130
vt 0.302645 0.910156
vt 0.338247 0.910156
vt 0.882400 0.974533
vt 0.872069 0.974533
vt 0.872069 0.955413
vt 0.882400 0.955413
vt 0.488966 0.956079
vt 0.499297 0.956077
vt 0.499296 0.963676
vt 0.488965 0.963678
vt 0.499297 0.968444
vt 0.488966 0.968446
vt 0.308892 0.882129
vt 0.317021 0.887358
vt 0.405754 0.947048
vt 0.416082 0.947107
vt 0.416083 0.954045
vt 0.405756 0.953986
vt 0.416106 0.964087
vt 0.405778 0.964028
vt 0.965300 0.913930
vt 0.975631 0.913930
vt 0.974666 0.920732
vt 0.966263 0.920732
vt 0.315543 0.876548
vt 0.320509 0.881004
vt 0.972830 0.929404
vt 0.968100 0.929404
vt 0.324157 0.874493
vt 0.325673 0.877066
vt 0.498340 0.974716
vt 0.489937 0.974718
vt 0.928785 0.623729
vt 0.928785 0.615325
vt 0.934148 0.617160
vt 0.934148 0.621890
vt 0.592508 0.825782
vt 0.592508 0.821052
vt 0.595115 0.821054
vt 0.595115 0.825784
vt 0.730543 0.879559
vt 0.725577 0.884015
vt 0.720412 0.880080
vt 0.721928 0.877507
vt 0.737195 0.885138
vt 0.729065 0.890367
vt 0.740377 0.895229
vt 0.729171 0.895139
vt 0.741997 0.902192
vt 0.727248 0.902695
vt 0.743441 0.913165
vt 0.707839 0.913165
vt 0.405778 0.936098
vt 0.416106 0.936157
vt 0.293226 0.387805
vt 0.299044 0.403704
vt 0.282978 0.403704
vt 0.282030 0.387805
vt 0.050683 0.363707
vt 0.066593 0.367800
vt 0.066593 0.407283
vt 0.050683 0.393564
vt 0.415032 0.553462
vt 0.415032 0.583319
vt 0.403835 0.583319
vt 0.403835 0.553462
vt 0.446712 0.553462
vt 0.446712 0.583319
vt 0.242710 0.403704
vt 0.250349 0.387805
vt 0.302645 0.428703
vt 0.281405 0.428703
vt 0.233651 0.428703
vt 0.297768 0.461073
vt 0.280446 0.461073
vt 0.239739 0.461073
vt 0.299450 0.468252
vt 0.281369 0.468252
vt 0.238823 0.468252
vt 0.299446 0.485153
vt 0.281365 0.485153
vt 0.238820 0.485153
vt 0.281362 0.499641
vt 0.238816 0.499641
vt 0.299442 0.499641
vt 0.221818 0.499641
vt 0.221822 0.485153
vt 0.221826 0.468252
vt 0.237375 0.381869
vt 0.222889 0.380789
vt 0.222889 0.343491
vt 0.237375 0.343819
vt 0.254274 0.383001
vt 0.254274 0.344163
vt 0.223499 0.461073
vt 0.261469 0.381792
vt 0.261469 0.343772
vt 0.254274 0.310680
vt 0.261469 0.310994
vt 0.237375 0.311016
vt 0.254274 0.271849
vt 0.261469 0.272981
vt 0.237375 0.272974
vt 0.222889 0.311338
vt 0.222889 0.274048
vt 0.131505 0.508419
vt 0.131508 0.522909
vt 0.114510 0.522909
vt 0.114507 0.508419
vt 0.131502 0.491516
vt 0.114504 0.491516
vt 0.071964 0.522909
vt 0.071961 0.508419
vt 0.071958 0.491516
vt 0.129828 0.484339
vt 0.113588 0.484339
vt 0.072881 0.484339
vt 0.053877 0.491516
vt 0.055558 0.484339
vt 0.053881 0.508419
vt 0.123961 0.296427
vt 0.131140 0.295260
vt 0.131140 0.334102
vt 0.123961 0.334451
vt 0.148040 0.296388
vt 0.148040 0.334442
vt 0.162526 0.297466
vt 0.162526 0.334766
vt 0.053884 0.522909
vt 0.162526 0.366929
vt 0.148040 0.367254
vt 0.131140 0.367593
vt 0.162526 0.404237
vt 0.148040 0.405315
vt 0.131140 0.406443
vt 0.123961 0.367238
vt 0.123961 0.405270
vt 0.091594 0.368880
vt 0.091594 0.411094
vt 0.091594 0.332471
vt 0.091594 0.290226
vt 0.066593 0.294265
vt 0.066593 0.333755
vt 0.050683 0.308118
vt 0.050683 0.337968
vt 0.415032 0.609058
vt 0.415032 0.638908
vt 0.403835 0.638908
vt 0.403835 0.609058
vt 0.446712 0.609058
vt 0.446712 0.638908
vt 0.461635 0.609058
vt 0.461635 0.638908
vt 0.461635 0.583319
vt 0.102972 0.411094
vt 0.110617 0.426966
vt 0.070350 0.426966
vt 0.071292 0.411094
vt 0.117895 0.411094
vt 0.127752 0.426966
vt 0.334855 0.314247
vt 0.318852 0.310259
vt 0.318852 0.270780
vt 0.334855 0.284406
vt 0.137811 0.451957
vt 0.119678 0.451957
vt 0.293758 0.309204
vt 0.293758 0.266972
vt 0.318852 0.344294
vt 0.293758 0.345603
vt 0.334855 0.339979
vt 0.318852 0.383766
vt 0.293758 0.387805
vt 0.334855 0.369827
vt 0.215518 0.428703
vt 0.225576 0.403704
vt 0.461635 0.553462
vt 0.235426 0.387805
vt 0.071924 0.451957
vt 0.050683 0.451957
vt 0.054284 0.426966
vt 0.060095 0.411094
vt 0.169906 0.338127
vt 0.169906 0.363565
vt 0.169906 0.393074
vt 0.553723 0.282663
vt 0.552582 0.293828
vt 0.534935 0.293828
vt 0.535648 0.282662
vt 0.534935 0.323336
vt 0.552582 0.323337
vt 0.493441 0.323336
vt 0.493441 0.293827
vt 0.493117 0.282662
vt 0.476877 0.293827
vt 0.476125 0.282661
vt 0.476877 0.323336
vt 0.476877 0.348774
vt 0.493441 0.348774
vt 0.526677 0.779553
vt 0.526677 0.754122
vt 0.528477 0.754122
vt 0.778990 0.784350
vt 0.778990 0.742841
vt 0.780790 0.742841
vt 0.780790 0.784350
vt 0.199862 0.950440
vt 0.199862 0.975879
vt 0.191420 0.975878
vt 0.191420 0.950440
vt 0.789127 0.734423
vt 0.789127 0.792768
vt 0.968509 0.873622
vt 0.968509 0.848184
vt 0.976903 0.848183
vt 0.976903 0.873622
vt 0.302612 0.739215
vt 0.302612 0.764654
vt 0.300812 0.764654
vt 0.300812 0.739215
vt 0.682452 0.571378
vt 0.707890 0.571378
vt 0.707890 0.629702
vt 0.682452 0.629703
vt 0.252162 0.829375
vt 0.252162 0.787867
vt 0.260498 0.779449
vt 0.260498 0.837793
vt 0.250362 0.829375
vt 0.250362 0.787867
vt 0.493441 0.378275
vt 0.534935 0.348775
vt 0.534935 0.378276
vt 0.552582 0.348775
vt 0.552582 0.378276
vt 0.169906 0.308626
vt 0.535648 0.389433
vt 0.553723 0.389433
vt 0.493117 0.389432
vt 0.476877 0.378275
vt 0.476125 0.389432
vt 0.215518 0.314675
vt 0.215518 0.285182
vt 0.215518 0.340106
vt 0.215518 0.369606
s 1
usemtl M249_Gun
f 1/1/1 5/2/2 3/3/3
f 2/4/4 3/5/3 5/6/2 4/7/5
f 1/1/1 7/8/6 5/2/2
f 4/9/5 5/10/2 7/11/6 6/12/7
f 1/1/1 9/13/8 7/8/6
f 6/12/7 7/11/6 9/14/8 8/15/9
f 1/1/1 11/16/10 9/13/8
f 8/15/9 9/14/8 11/17/10 10/18/11
f 1/1/1 13/19/12 11/16/10
f 10/18/11 11/17/10 13/20/12 12/21/13
f 1/1/1 15/22/14 13/19/12
f 12/23/13 13/24/12 15/25/14 14/26/15
f 1/1/1 17/27/16 15/22/14
f 14/26/15 15/25/14 17/28/16 16/29/17
f 1/1/1 19/30/18 17/27/16
f 16/29/17 17/28/16 19/31/18 18/32/19
f 1/1/1 21/33/20 19/30/18
f 18/34/19 19/35/18 21/36/20 20/37/21
f 1/1/1 23/38/22 21/33/20
f 20/37/21 21/36/20 23/39/22 22/40/23
f 1/1/1 25/41/24 23/38/22
f 22/42/23 23/43/22 25/44/24 24/45/25
f 1/1/1 3/3/3 25/41/24
f 24/45/25 25/44/24 3/5/3 2/4/4
f 26/46/1 29/47/6 27/48/2
f 26/46/1 27/48/2 28/49/3
f 26/46/1 28/49/3 38/50/24
f 26/46/1 30/51/8 29/47/6
f 26/46/1 31/52/10 30/51/8
f 26/46/1 32/53/12 31/52/10
f 26/46/1 33/54/14 32/53/12
f 26/46/1 34/55/16 33/54/14
f 26/46/1 35/56/18 34/55/16
f 26/46/1 36/57/20 35/56/18
f 26/46/1 37/58/22 36/57/20
f 26/46/1 38/50/24 37/58/22
f 40/59/23 37/60/22 38/61/24 39/62/25
f 39/62/25 38/61/24 28/63/3 41/64/4
f 41/64/4 28/63/3 27/65/2 42/66/5
f 42/67/5 27/68/2 29/69/6 43/70/7
f 43/70/7 29/69/6 30/71/8 44/72/9
f 44/72/9 30/71/8 31/73/10 45/74/11
f 45/74/11 31/73/10 32/75/12 46/76/13
f 46/77/13 32/78/12 33/79/14 47/80/15
f 47/80/15 33/79/14 34/81/16 48/82/17
f 48/82/17 34/81/16 35/83/18 49/84/19
f 49/85/19 35/86/18 36/87/20 50/88/21
f 50/88/21 36/87/20 37/89/22 40/90/23
f 51/91/1 54/92/6 52/93/2
f 51/91/1 52/93/2 53/94/3
f 51/91/1 53/94/3 63/95/24
f 51/91/1 55/96/8 54/92/6
f 51/91/1 56/97/10 55/96/8
f 51/91/1 57/98/12 56/97/10
f 51/91/1 58/99/14 57/98/12
f 51/91/1 59/100/16 58/99/14
f 51/91/1 60/101/18 59/100/16
f 51/91/1 61/102/20 60/101/18
f 51/91/1 62/103/22 61/102/20
f 51/91/1 63/95/24 62/103/22
f 65/104/23 62/105/22 63/106/24 64/107/25
f 64/107/25 63/106/24 53/108/3 66/109/4
f 66/109/4 53/108/3 52/110/2 67/111/5
f 67/112/5 52/113/2 54/114/6 68/115/7
f 68/115/7 54/114/6 55/116/8 69/117/9
f 69/117/9 55/116/8 56/118/10 70/119/11
f 70/119/11 56/118/10 57/120/12 71/121/13
f 71/122/13 57/123/12 58/124/14 72/125/15
f 72/125/15 58/124/14 59/126/16 73/127/17
f 73/127/17 59/126/16 60/128/18 74/129/19
f 74/130/19 60/131/18 61/132/20 75/133/21
f 75/133/21 61/132/20 62/134/22 65/135/23
f 76/136/26 79/137/27 77/138/28
f 76/136/26 77/138/28 78/139/29
f 76/136/26 78/139/29 88/140/30
f 76/136/26 80/141/31 79/137/27
f 76/136/26 81/142/32 80/141/31
f 76/136/26 82/143/33 81/142/32
f 76/136/26 83/144/34 82/143/33
f 76/136/26 84/145/35 83/144/34
f 76/136/26 85/146/36 84/145/35
f 76/136/26 86/147/37 85/146/36
f 76/136/26 87/148/38 86/147/37
f 76/136/26 88/140/30 87/148/38
f 90/149/19 87/150/38 88/151/30 89/152/17
f 89/152/17 88/151/30 78/153/29 91/154/15
f 91/154/15 78/153/29 77/155/28 92/156/13
f 92/157/13 77/158/28 79/159/27 93/160/11
f 93/160/11 79/159/27 80/161/31 94/162/9
f 94/162/9 80/161/31 81/163/32 95/164/7
f 95/164/7 81/163/32 82/165/33 96/166/5
f 96/167/5 82/168/33 83/169/34 97/170/4
f 97/170/4 83/169/34 84/171/35 98/172/25
f 98/172/25 84/171/35 85/173/36 99/174/23
f 99/175/23 85/176/36 86/177/37 100/178/21
f 100/178/21 86/177/37 87/179/38 90/180/19
f 101/181/26 104/182/27 102/183/28
f 101/181/26 102/183/28 103/184/29
f 101/181/26 103/184/29 113/185/30
f 101/181/26 105/186/31 104/182/27
f 101/181/26 106/187/32 105/186/31
f 101/181/26 107/188/33 106/187/32
f 101/181/26 108/189/34 107/188/33
f 101/181/26 109/190/35 108/189/34
f 101/181/26 110/191/36 109/190/35
f 101/181/26 111/192/37 110/191/36
f 101/181/26 112/193/38 111/192/37
f 101/181/26 113/185/30 112/193/38
f 115/194/19 112/195/38 113/196/30 114/197/17
f 114/197/17 113/196/30 103/198/29 116/199/15
f 116/199/15 103/198/29 102/200/28 117/201/13
f 117/202/13 102/203/28 104/204/27 118/205/11
f 118/205/11 104/204/27 105/206/31 119/207/9
f 119/207/9 105/206/31 106/208/32 120/209/7
f 120/209/7 106/208/32 107/210/33 121/211/5
f 121/212/5 107/213/33 108/214/34 122/215/4
f 122/215/4 108/214/34 109/216/35 123/217/25
f 123/217/25 109/216/35 110/218/36 124/219/23
f 124/220/23 110/221/36 111/222/37 125/223/21
f 125/223/21 111/222/37 112/224/38 115/225/19
f 126/226/26 129/227/27 127/228/28
f 126/226/26 127/228/28 128/229/29
f 126/226/26 128/229/29 138/230/30
f 126/226/26 130/231/31 129/227/27
f 126/226/26 131/232/32 130/231/31
f 126/226/26 132/233/33 131/232/32
f 126/226/26 133/234/34 132/233/33
f 126/226/26 134/235/35 133/234/34
f 126/226/26 135/137/36 134/235/35
f 126/226/26 136/236/37 135/137/36
f 126/226/26 137/237/38 136/236/37
f 126/226/26 138/230/30 137/237/38
f 140/238/19 137/239/38 138/240/30 139/241/17
f 139/241/17 138/240/30 128/242/29 141/243/15
f 141/243/15 128/242/29 127/244/28 142/245/13
f 142/246/13 127/247/28 129/248/27 143/249/11
f 143/249/11 129/248/27 130/250/31 144/251/9
f 144/251/9 130/250/31 131/252/32 145/253/7
f 145/253/7 131/252/32 132/254/33 146/255/5
f 146/256/5 132/257/33 133/258/34 147/259/4
f 147/259/4 133/258/34 134/260/35 148/261/25
f 148/261/25 134/260/35 135/262/36 149/263/23
f 149/264/23 135/265/36 136/266/37 150/267/21
f 150/267/21 136/266/37 137/268/38 140/269/19
f 151/270/4 154/271/39 152/272/40
f 151/270/4 152/272/40 153/273/41
f 151/270/4 153/273/41 163/274/42
f 151/270/4 155/275/43 154/271/39
f 151/270/4 156/276/44 155/275/43
f 151/270/4 157/277/45 156/276/44
f 151/270/4 158/278/46 157/277/45
f 151/270/4 159/279/47 158/278/46
f 151/270/4 160/280/48 159/279/47
f 151/270/4 161/281/49 160/280/48
f 151/270/4 162/282/50 161/281/49
f 151/270/4 163/274/42 162/282/50
f 165/283/51 162/284/50 163/285/42 164/286/52
f 164/287/52 163/288/42 153/289/41 166/290/26
f 166/290/26 153/289/41 152/291/40 167/292/53
f 167/292/53 152/291/40 154/293/39 168/294/54
f 168/295/54 154/296/39 155/297/43 169/298/9
f 169/298/9 155/297/43 156/299/44 170/300/55
f 170/301/55 156/302/44 157/303/45 171/304/56
f 171/304/56 157/303/45 158/305/46 172/306/1
f 172/306/1 158/305/46 159/307/47 173/308/57
f 173/308/57 159/307/47 160/309/48 174/310/58
f 174/311/58 160/312/48 161/313/49 175/314/21
f 175/314/21 161/313/49 162/284/50 165/283/51
f 176/315/4 179/316/39 177/317/40
f 176/315/4 177/317/40 178/318/41
f 176/315/4 178/318/41 188/319/42
f 176/315/4 180/320/43 179/316/39
f 176/315/4 181/321/44 180/320/43
f 176/315/4 182/322/45 181/321/44
f 176/315/4 183/323/46 182/322/45
f 176/315/4 184/324/47 183/323/46
f 176/315/4 185/325/48 184/324/47
f 176/315/4 186/326/49 185/325/48
f 176/315/4 187/327/50 186/326/49
f 176/315/4 188/319/42 187/327/50
f 190/328/51 187/329/50 188/330/42 189/331/52
f 189/332/52 188/333/42 178/334/41 191/335/26
f 191/335/26 178/334/41 177/336/40 192/337/53
f 192/337/53 177/336/40 179/338/39 193/339/54
f 193/340/54 179/341/39 180/342/43 194/343/9
f 194/343/9 180/342/43 181/344/44 195/345/55
f 195/346/55 181/347/44 182/348/45 196/349/56
f 196/349/56 182/348/45 183/350/46 197/351/1
f 197/351/1 183/350/46 184/352/47 198/353/57
f 198/353/57 184/352/47 185/354/48 199/355/58
f 199/356/58 185/357/48 186/358/49 200/359/21
f 200/359/21 186/358/49 187/329/50 190/328/51
f 201/360/15 204/361/59 202/362/60
f 201/360/15 202/362/60 203/363/61
f 201/360/15 203/363/61 213/364/62
f 201/360/15 205/365/63 204/361/59
f 201/360/15 206/366/64 205/365/63
f 201/360/15 207/367/65 206/366/64
f 201/360/15 208/368/66 207/367/65
f 201/360/15 209/369/67 208/368/66
f 201/360/15 210/370/68 209/369/67
f 201/360/15 211/371/69 210/370/68
f 201/360/15 212/372/70 211/371/69
f 201/360/15 213/364/62 212/372/70
f 215/373/58 212/374/70 213/375/62 214/376/57
f 214/376/57 213/375/62 203/377/61 216/378/1
f 216/378/1 203/377/61 202/379/60 217/380/56
f 217/380/56 202/379/60 204/381/59 218/382/55
f 218/383/55 204/384/59 205/385/63 219/386/9
f 219/386/9 205/385/63 206/387/64 220/388/54
f 220/389/54 206/390/64 207/391/65 221/392/53
f 221/392/53 207/391/65 208/393/66 222/394/26
f 222/394/26 208/393/66 209/395/67 223/396/52
f 223/397/52 209/398/67 210/399/68 224/400/51
f 224/400/51 210/399/68 211/401/69 225/402/21
f 225/402/21 211/401/69 212/403/70 215/404/58
f 226/405/15 229/406/59 227/407/60
f 226/405/15 227/407/60 228/408/61
f 226/405/15 228/408/61 238/409/62
f 226/405/15 230/410/63 229/406/59
f 226/405/15 231/411/64 230/410/63
f 226/405/15 232/412/65 231/411/64
f 226/405/15 233/413/66 232/412/65
f 226/405/15 234/414/67 233/413/66
f 226/405/15 235/415/68 234/414/67
f 226/405/15 236/416/69 235/415/68
f 226/405/15 237/417/70 236/416/69
f 226/405/15 238/409/62 237/417/70
f 240/418/58 237/419/70 238/420/62 239/421/57
f 239/421/57 238/420/62 228/422/61 241/423/1
f 241/423/1 228/422/61 227/424/60 242/425/56
f 242/425/56 227/424/60 229/426/59 243/427/55
f 243/428/55 229/429/59 230/430/63 244/431/9
f 244/431/9 230/430/63 231/432/64 245/433/54
f 245/434/54 231/435/64 232/436/65 246/437/53
f 246/437/53 232/436/65 233/438/66 247/439/26
f 247/439/26 233/438/66 234/440/67 248/441/52
f 248/442/52 234/443/67 235/444/68 249/445/51
f 249/445/51 235/444/68 236/446/69 250/447/21
f 250/447/21 236/446/69 237/448/70 240/449/58
f 252/450/71 256/451/72 254/452/73 251/453/74
f 253/454/75 264/455/76 252/456/71 251/457/74
f 251/458/74 254/459/73 257/460/4 253/461/75
f 254/459/73 255/462/77 258/463/4 257/460/4
f 256/451/72 267/464/78 255/465/77 254/452/73
f 257/460/4 258/463/4 260/466/79 259/467/80
f 253/461/75 257/460/4 259/467/80 262/468/81
f 259/469/80 260/470/79 269/471/82 261/472/83
f 262/473/81 259/469/80 261/472/83 263/474/84
f 262/475/81 263/476/84 264/455/76 253/454/75
f 263/477/84 261/478/83 265/479/15 264/480/76
f 264/480/76 265/479/15 256/481/72 252/482/71
f 261/478/83 269/483/82 266/484/15 265/479/15
f 265/479/15 266/484/15 267/485/78 256/481/72
f 266/484/15 268/486/15 291/487/15 267/485/78
f 269/483/82 270/488/85 268/486/15 266/484/15
f 260/470/79 272/489/86 270/490/85 269/471/82
f 270/488/85 271/491/87 292/492/88 268/486/15
f 272/489/86 273/493/89 271/494/87 270/490/85
f 274/495/4 275/496/90 273/497/89 272/498/86
f 258/463/4 274/495/4 272/498/86 260/466/79
f 276/499/4 278/500/91 275/496/90 274/495/4
f 255/462/77 276/499/4 274/495/4 258/463/4
f 276/499/4 255/462/77 288/501/92 277/502/4
f 278/500/91 276/499/4 277/502/4 280/503/93
f 292/504/88 275/505/90 278/506/91 279/507/94
f 279/507/94 278/506/91 280/508/93 281/509/95
f 281/510/95 280/511/93 282/512/96 283/513/97
f 280/503/93 277/502/4 284/514/98 282/515/96
f 285/516/99 283/513/97 282/512/96 284/517/98
f 287/518/100 285/516/99 284/517/98 286/519/101
f 277/502/4 288/501/92 286/520/101 284/514/98
f 288/521/92 289/522/102 287/518/100 286/519/101
f 255/523/77 267/524/78 289/525/102 288/526/92
f 289/527/102 290/528/15 285/529/99 287/530/100
f 267/485/78 291/487/15 290/528/15 289/527/102
f 291/487/15 279/531/94 281/532/95 290/528/15
f 290/528/15 281/532/95 283/533/97 285/529/99
f 268/486/15 292/492/88 279/531/94 291/487/15
f 271/534/87 273/535/89 275/505/90 292/504/88
f 293/536/71 294/537/76 299/538/15 296/539/72
f 294/540/76 293/476/71 295/475/74 332/541/75
f 295/542/74 293/543/71 296/544/72 297/545/73
f 297/545/73 296/544/72 298/546/78 320/547/77
f 296/539/72 299/538/15 301/548/15 298/549/78
f 294/537/76 331/550/84 300/551/83 299/538/15
f 299/538/15 300/551/83 302/552/82 301/548/15
f 301/548/15 302/552/82 304/553/85 303/554/15
f 298/549/78 301/548/15 303/554/15 306/555/15
f 303/554/15 304/553/85 328/556/87 305/557/88
f 306/555/15 303/554/15 305/557/88 308/558/94
f 308/558/94 310/559/95 307/560/15 306/555/15
f 306/555/15 307/560/15 319/561/102 298/549/78
f 309/562/91 312/563/93 310/564/95 308/565/94
f 329/566/90 309/562/91 308/565/94 305/567/88
f 310/559/95 311/568/97 334/569/99 307/560/15
f 312/570/93 313/571/96 311/572/97 310/573/95
f 314/574/4 315/575/98 313/576/96 312/577/93
f 316/578/4 314/574/4 312/577/93 309/579/91
f 317/580/92 318/581/101 315/575/98 314/574/4
f 320/582/77 317/580/92 314/574/4 316/578/4
f 319/583/102 333/584/100 318/585/101 317/586/92
f 298/587/78 319/588/102 317/589/92 320/590/77
f 322/591/4 297/592/73 320/582/77 321/593/4
f 321/593/4 320/582/77 316/578/4 323/594/4
f 325/595/80 322/591/4 321/593/4 324/596/79
f 324/596/79 321/593/4 323/594/4 326/597/86
f 300/598/83 325/599/80 324/600/79 302/601/82
f 302/601/82 324/600/79 326/602/86 304/603/85
f 304/603/85 326/602/86 327/604/89 328/605/87
f 326/597/86 323/594/4 329/606/90 327/607/89
f 327/608/89 329/566/90 305/567/88 328/609/87
f 323/594/4 316/578/4 309/579/91 329/606/90
f 331/610/84 330/611/81 325/599/80 300/598/83
f 330/612/81 332/613/75 322/591/4 325/595/80
f 331/614/84 294/540/76 332/541/75 330/615/81
f 332/613/75 295/616/74 297/592/73 322/591/4
f 307/560/15 334/569/99 333/617/100 319/561/102
f 318/585/101 333/584/100 334/618/99 315/619/98
f 315/619/98 334/618/99 311/572/97 313/571/96
f 338/620/103 374/621/104 336/622/105 335/623/106
f 335/624/106 336/625/105 373/626/107 337/627/108
f 335/624/106 337/627/108 342/628/109 339/629/110
f 338/620/103 335/623/106 339/630/110 340/631/111
f 340/631/111 339/630/110 341/632/112 370/633/113
f 339/629/110 342/628/109 344/634/114 341/635/112
f 342/636/109 343/637/115 345/638/116 344/639/114
f 337/640/108 371/641/117 343/637/115 342/636/109
f 344/642/114 345/643/116 347/644/118 346/645/119
f 341/635/112 344/634/114 346/646/119 348/647/120
f 346/645/119 347/644/118 351/648/121 349/649/122
f 348/647/120 346/646/119 349/650/122 350/651/123
f 350/651/123 349/650/122 352/652/124 354/653/125
f 349/649/122 351/648/121 353/654/126 352/655/124
f 352/655/124 353/654/126 357/656/127 355/657/128
f 354/653/125 352/652/124 355/658/128 356/659/129
f 356/659/129 355/658/128 358/660/130 359/661/131
f 355/662/128 357/663/127 360/664/132 358/665/130
f 359/661/131 358/660/130 361/666/133 363/667/134
f 358/665/130 360/664/132 362/668/135 361/669/133
f 365/670/136 359/671/131 363/672/134 364/673/137
f 360/674/132 365/675/136 364/676/137 362/677/135
f 366/678/138 356/679/129 359/671/131 365/670/136
f 357/680/127 366/681/138 365/675/136 360/674/132
f 367/682/139 354/683/125 356/684/129 366/685/138
f 353/686/126 367/687/139 366/681/138 357/680/127
f 368/688/140 350/689/123 354/683/125 367/682/139
f 351/690/121 368/691/140 367/687/139 353/686/126
f 369/692/141 348/693/120 350/689/123 368/688/140
f 347/694/118 369/695/141 368/691/140 351/690/121
f 370/696/113 341/697/112 348/693/120 369/692/141
f 345/698/116 370/699/113 369/695/141 347/694/118
f 343/700/115 340/701/111 370/699/113 345/698/116
f 371/702/117 338/703/103 340/701/111 343/700/115
f 372/704/142 374/705/104 338/703/103 371/702/117
f 337/640/108 373/706/107 372/707/142 371/641/117
f 375/708/143 376/709/144 382/710/145 379/711/146
f 398/712/147 376/709/144 375/708/143 377/713/148
f 397/714/149 377/715/148 375/716/143 378/717/150
f 378/718/150 375/719/143 379/720/146 380/721/151
f 380/721/151 379/720/146 381/722/152 394/723/153
f 379/711/146 382/710/145 384/724/154 381/725/152
f 376/726/144 395/727/155 383/728/156 382/729/145
f 382/729/145 383/728/156 385/730/157 384/731/154
f 384/732/154 385/733/157 387/734/158 386/735/159
f 381/725/152 384/724/154 386/736/159 389/737/160
f 386/735/159 387/734/158 393/738/161 388/739/162
f 389/737/160 386/736/159 388/740/162 391/741/163
f 394/723/153 381/722/152 389/742/160 390/743/164
f 390/744/164 389/745/160 391/746/163 392/747/165
f 388/748/162 393/749/161 392/750/165 391/751/163
f 387/752/158 390/753/164 392/754/165 393/755/161
f 385/756/157 394/757/153 390/753/164 387/752/158
f 383/758/156 380/759/151 394/757/153 385/756/157
f 395/760/155 378/761/150 380/759/151 383/758/156
f 396/762/166 397/763/149 378/761/150 395/760/155
f 398/764/147 396/765/166 395/727/155 376/726/144
f 399/766/167 400/767/168 405/768/169 402/769/170
f 401/770/171 460/771/172 400/772/168 399/773/167
f 402/774/170 403/775/9 401/776/171 399/777/167
f 404/778/170 466/779/9 403/775/9 402/774/170
f 402/769/170 405/768/169 406/780/169 404/781/170
f 400/767/168 408/782/173 407/783/174 405/768/169
f 405/768/169 407/783/174 409/784/174 406/780/169
f 408/782/173 411/785/175 410/786/176 407/783/174
f 407/783/174 410/786/176 412/787/176 409/784/174
f 411/785/175 414/788/177 413/789/178 410/786/176
f 410/786/176 413/789/178 415/790/178 412/787/176
f 414/788/177 418/791/179 416/792/180 413/789/178
f 413/789/178 416/792/180 419/793/180 415/790/178
f 416/792/180 417/794/181 420/795/181 419/793/180
f 418/791/179 485/796/182 417/794/181 416/792/180
f 419/793/180 420/795/181 422/797/183 421/798/184
f 415/790/178 419/793/180 421/798/184 424/799/185
f 421/800/184 422/801/183 510/802/186 423/803/1
f 424/804/185 421/800/184 423/803/1 426/805/187
f 412/787/176 415/790/178 424/799/185 425/806/188
f 425/807/188 424/804/185 426/805/187 427/808/189
f 427/808/189 426/805/187 428/809/187 429/810/189
f 426/805/187 423/803/1 431/811/1 428/809/187
f 429/810/189 428/809/187 430/812/190 480/813/191
f 428/809/187 431/811/1 433/814/192 430/812/190
f 423/803/1 510/802/186 432/815/186 431/811/1
f 431/811/1 432/815/186 434/816/193 433/814/192
f 433/817/192 434/818/193 436/819/194 435/820/195
f 430/821/190 433/817/192 435/820/195 438/822/196
f 435/820/195 436/819/194 506/823/194 437/824/195
f 438/822/196 435/820/195 437/824/195 440/825/196
f 480/826/191 430/821/190 438/822/196 439/827/197
f 439/827/197 438/822/196 440/825/196 441/828/197
f 441/828/197 440/825/196 442/829/198 443/830/199
f 440/825/196 437/824/195 445/831/200 442/829/198
f 443/832/199 442/833/198 444/834/201 454/835/202
f 442/833/198 445/836/200 447/837/26 444/834/201
f 445/836/200 446/838/203 448/839/204 447/837/26
f 437/824/195 506/823/194 446/840/203 445/831/200
f 447/837/26 448/839/204 450/841/204 449/842/26
f 444/834/201 447/837/26 449/842/26 451/843/201
f 449/842/26 450/841/204 485/844/182 418/845/179
f 451/843/201 449/842/26 418/845/179 414/846/177
f 454/835/202 444/834/201 451/843/201 452/847/202
f 452/847/202 451/843/201 414/846/177 411/848/175
f 453/849/205 452/847/202 411/848/175 408/850/173
f 455/851/205 454/835/202 452/847/202 453/849/205
f 456/852/206 443/832/199 454/835/202 455/851/205
f 458/853/207 456/852/206 455/851/205 457/854/172
f 457/854/172 455/851/205 453/849/205 460/771/172
f 461/855/208 458/853/207 457/854/172 459/856/171
f 459/856/171 457/854/172 460/771/172 401/770/171
f 460/771/172 453/849/205 408/850/173 400/772/168
f 462/857/9 463/858/209 461/859/208 459/860/171
f 403/775/9 462/857/9 459/860/171 401/776/171
f 464/861/9 467/862/209 463/858/209 462/857/9
f 466/779/9 464/861/9 462/857/9 403/775/9
f 465/863/210 469/864/211 467/862/209 464/861/9
f 476/865/210 465/863/210 464/861/9 466/779/9
f 467/866/209 468/867/212 483/868/212 463/869/209
f 469/870/211 470/871/213 468/867/212 467/866/209
f 465/872/210 472/873/214 470/874/213 469/875/211
f 470/871/213 471/876/215 481/877/216 468/867/212
f 472/873/214 473/878/217 471/879/215 470/874/213
f 474/880/214 477/881/217 473/878/217 472/873/214
f 476/882/210 474/880/214 472/873/214 465/872/210
f 475/883/218 478/884/219 477/881/217 474/880/214
f 479/885/220 475/883/218 474/880/214 476/882/210
f 478/884/219 425/807/188 427/808/189 477/881/217
f 477/881/217 427/808/189 429/810/189 473/878/217
f 409/784/174 412/787/176 425/806/188 478/886/219
f 406/780/169 409/784/174 478/886/219 475/887/218
f 479/888/220 476/865/210 466/779/9 404/778/170
f 404/781/170 406/780/169 475/887/218 479/889/220
f 473/878/217 429/810/189 480/813/191 471/879/215
f 471/876/215 480/826/191 439/827/197 481/877/216
f 468/867/212 481/877/216 482/890/216 483/868/212
f 481/877/216 439/827/197 441/828/197 482/890/216
f 482/890/216 441/828/197 443/830/199 456/891/206
f 483/868/212 482/890/216 456/891/206 458/892/207
f 463/869/209 483/868/212 458/892/207 461/893/208
f 448/839/204 504/894/221 484/895/221 450/841/204
f 450/841/204 484/895/221 486/896/222 485/844/182
f 485/897/182 486/898/222 487/899/223 417/900/181
f 488/901/224 487/899/223 486/898/222 484/902/221
f 491/903/225 489/904/223 487/899/223 488/901/224
f 417/900/181 487/899/223 489/904/223 420/905/181
f 420/905/181 489/904/223 490/906/226 422/907/183
f 492/908/227 490/906/226 489/904/223 491/903/225
f 509/909/227 492/908/227 491/903/225 493/910/228
f 493/911/228 491/912/225 494/913/229 495/543/230
f 491/914/225 488/915/224 497/916/231 494/917/229
f 495/918/230 494/919/229 496/920/232 501/921/233
f 494/917/229 497/916/231 499/922/234 496/923/232
f 497/924/231 498/925/235 500/926/236 499/927/234
f 488/928/224 502/929/237 498/930/235 497/931/231
f 501/932/233 496/933/232 499/934/234 500/935/236
f 498/936/235 495/937/230 501/938/233 500/939/236
f 502/940/237 493/941/228 495/937/230 498/936/235
f 507/942/238 493/910/228 502/943/237 503/944/238
f 503/944/238 502/943/237 504/945/221 505/946/239
f 502/943/237 488/901/224 484/902/221 504/945/221
f 446/838/203 505/947/239 504/894/221 448/839/204
f 506/948/194 503/944/238 505/946/239 446/949/203
f 436/950/194 507/942/238 503/944/238 506/948/194
f 508/951/240 509/909/227 493/910/228 507/942/238
f 434/952/193 508/951/240 507/942/238 436/950/194
f 432/815/186 509/953/227 508/954/240 434/816/193
f 510/802/186 492/955/227 509/953/227 432/815/186
f 422/801/183 490/956/226 492/955/227 510/802/186
