# Blender 4.0.2
# www.blender.org
mtllib M249_part_03.mtl
o M249_part_03
v 0.039973 0.193346 0.141111
v 0.035133 0.194570 0.141538
v 0.039973 0.190769 0.146532
v 0.044812 0.194570 0.141538
v 0.039973 0.193653 0.134352
v 0.034164 0.195123 0.134865
v 0.045781 0.195123 0.134865
v 0.039973 0.194521 0.129386
v 0.046191 0.196094 0.129935
v 0.033755 0.196094 0.129935
v 0.039973 0.198455 0.123399
v 0.045320 0.199808 0.123872
v 0.034625 0.199808 0.123872
v 0.039973 0.200211 0.119204
v 0.045183 0.201529 0.119665
v 0.034762 0.201529 0.119665
v 0.039973 0.200154 0.112346
v 0.033604 0.201765 0.112908
v 0.046341 0.201765 0.112908
v 0.039973 0.201591 0.107482
v 0.033481 0.203233 0.108056
v 0.046464 0.203233 0.108056
v 0.039973 0.204509 0.102221
v 0.033991 0.206022 0.102749
v 0.045954 0.206022 0.102749
v 0.039973 0.206900 0.096443
v 0.034167 0.208368 0.096956
v 0.045778 0.208368 0.096956
v 0.039973 0.207028 0.088511
v 0.032920 0.208812 0.089134
v 0.047025 0.208812 0.089134
v 0.039973 0.208791 0.082762
v 0.032804 0.210604 0.083395
v 0.047141 0.210604 0.083395
v 0.039973 0.212587 0.075775
v 0.033445 0.214239 0.076352
v 0.046500 0.214239 0.076352
v 0.039973 0.215896 0.068697
v 0.033840 0.217447 0.069239
v 0.046106 0.217447 0.069239
v 0.039973 0.216432 0.060403
v 0.032725 0.218265 0.061043
v 0.047220 0.218265 0.061043
v 0.039973 0.218700 0.052111
v 0.032429 0.220608 0.052777
v 0.047516 0.220608 0.052777
v 0.039973 0.221769 0.043186
v 0.047539 0.223683 0.043855
v 0.039973 0.236347 0.047341
v 0.032406 0.223683 0.043855
v 0.026868 0.228912 0.045681
v 0.024840 0.236055 0.048176
v 0.026906 0.225822 0.054598
v 0.024885 0.232944 0.057086
v 0.027420 0.223274 0.062793
v 0.025478 0.230116 0.065182
v 0.029350 0.221686 0.070719
v 0.027707 0.227476 0.072741
v 0.028666 0.218750 0.077927
v 0.026917 0.224913 0.080079
v 0.027557 0.215558 0.085125
v 0.025636 0.222326 0.087489
v 0.027757 0.213686 0.090836
v 0.025867 0.220344 0.093161
v 0.029917 0.212380 0.098357
v 0.028362 0.217861 0.100271
v 0.029613 0.210156 0.104193
v 0.028010 0.215803 0.106165
v 0.028729 0.207719 0.109623
v 0.028943 0.206166 0.114446
v 0.026989 0.213848 0.111763
v 0.028729 0.219976 0.113903
v 0.027236 0.212178 0.116545
v 0.028943 0.218190 0.118645
v 0.029552 0.210049 0.122640
v 0.030948 0.214968 0.124358
v 0.029277 0.208552 0.126926
v 0.030948 0.205130 0.120922
v 0.030710 0.203504 0.125162
v 0.029203 0.200391 0.131436
v 0.029912 0.199137 0.136267
v 0.027537 0.206261 0.133486
v 0.029203 0.212132 0.135536
v 0.028355 0.204621 0.138183
v 0.029912 0.210105 0.140098
v 0.030293 0.202484 0.144302
v 0.031590 0.207053 0.145898
v 0.029648 0.200516 0.149937
v 0.031590 0.197915 0.142706
v 0.031031 0.195642 0.148235
v 0.030151 0.193989 0.151427
v 0.034810 0.192075 0.146989
v 0.034302 0.190070 0.150059
v 0.039973 0.188635 0.149558
v 0.034454 0.187487 0.158250
v 0.030413 0.191301 0.159582
v 0.039973 0.196383 0.161771
v 0.039973 0.186091 0.157763
v 0.045492 0.187487 0.158250
v 0.045643 0.190070 0.150059
v 0.049532 0.191301 0.159582
v 0.051011 0.196512 0.161402
v 0.049794 0.193989 0.151427
v 0.048914 0.195642 0.148235
v 0.051314 0.199342 0.153297
v 0.049794 0.204696 0.155167
v 0.050297 0.200516 0.149937
v 0.048914 0.205390 0.151639
v 0.049652 0.202484 0.144302
v 0.048355 0.197915 0.142706
v 0.048355 0.207053 0.145898
v 0.051590 0.204621 0.138183
v 0.050033 0.199137 0.136267
v 0.050033 0.210105 0.140098
v 0.052409 0.206261 0.133486
v 0.050743 0.212132 0.135536
v 0.050743 0.200391 0.131436
v 0.050668 0.208552 0.126926
v 0.049235 0.213601 0.128689
v 0.049235 0.203504 0.125162
v 0.050394 0.210049 0.122640
v 0.048997 0.214968 0.124358
v 0.048997 0.205130 0.120922
v 0.052709 0.212178 0.116545
v 0.051002 0.218190 0.118645
v 0.051002 0.206166 0.114446
v 0.052956 0.213848 0.111763
v 0.051216 0.219976 0.113903
v 0.051216 0.207719 0.109623
v 0.051935 0.215803 0.106165
v 0.050332 0.221450 0.108137
v 0.050332 0.210156 0.104193
v 0.051583 0.217861 0.100271
v 0.050028 0.223342 0.102185
v 0.050028 0.212380 0.098357
v 0.054078 0.220344 0.093161
v 0.052188 0.213686 0.090836
v 0.052188 0.227003 0.095487
v 0.054309 0.222326 0.087489
v 0.052388 0.215558 0.085125
v 0.052388 0.229093 0.089852
v 0.053028 0.224913 0.080079
v 0.051279 0.218750 0.077927
v 0.051279 0.231076 0.082232
v 0.052238 0.227476 0.072741
v 0.050595 0.221686 0.070719
v 0.050595 0.233266 0.074763
v 0.054467 0.230116 0.065182
v 0.052525 0.223274 0.062793
v 0.052525 0.236958 0.067572
v 0.055060 0.232944 0.057086
v 0.053039 0.225822 0.054598
v 0.053039 0.240065 0.059573
v 0.055105 0.236055 0.048176
v 0.053078 0.228912 0.045681
v 0.053078 0.243198 0.050670
v 0.047539 0.248427 0.052497
v 0.047516 0.245279 0.061394
v 0.039973 0.250341 0.053165
v 0.039973 0.247187 0.062060
v 0.032406 0.248427 0.052497
v 0.032429 0.245279 0.061394
v 0.026868 0.243198 0.050670
v 0.026906 0.240065 0.059573
v 0.027420 0.236958 0.067572
v 0.032725 0.241966 0.069321
v 0.029350 0.233266 0.074763
v 0.033840 0.237504 0.076244
v 0.028666 0.231076 0.082232
v 0.033445 0.235587 0.083807
v 0.027557 0.229093 0.089852
v 0.032804 0.234047 0.091582
v 0.027757 0.227003 0.095487
v 0.029917 0.223342 0.102185
v 0.032920 0.231877 0.097189
v 0.039973 0.233661 0.097812
v 0.034167 0.227354 0.103587
v 0.039973 0.228823 0.104100
v 0.033991 0.225583 0.109581
v 0.039973 0.227097 0.110109
v 0.033481 0.224463 0.115470
v 0.029613 0.221450 0.108137
v 0.039973 0.226105 0.116044
v 0.033605 0.222591 0.120182
v 0.039973 0.224202 0.120744
v 0.034762 0.218569 0.125616
v 0.039973 0.219887 0.126076
v 0.034625 0.217297 0.129980
v 0.039973 0.218650 0.130452
v 0.033755 0.216429 0.137037
v 0.030710 0.213601 0.128689
v 0.034164 0.214119 0.141500
v 0.039973 0.218002 0.137586
v 0.046191 0.216429 0.137037
v 0.039973 0.215589 0.142013
v 0.045781 0.214119 0.141500
v 0.039973 0.211622 0.147494
v 0.044812 0.210398 0.147066
v 0.039973 0.210263 0.153341
v 0.035133 0.210398 0.147066
v 0.034810 0.208957 0.152885
v 0.034302 0.208615 0.156536
v 0.031031 0.205390 0.151639
v 0.030151 0.204696 0.155167
v 0.030413 0.201722 0.163222
v 0.028631 0.199342 0.153297
v 0.028935 0.196512 0.161402
v 0.034454 0.205536 0.164554
v 0.039973 0.206933 0.165041
v 0.039973 0.210050 0.157036
v 0.045492 0.205536 0.164554
v 0.049532 0.201722 0.163222
v 0.045643 0.208615 0.156536
v 0.045135 0.208957 0.152885
v 0.045320 0.217297 0.129980
v 0.045183 0.218569 0.125616
v 0.046341 0.222591 0.120182
v 0.046464 0.224463 0.115470
v 0.045954 0.225583 0.109581
v 0.045778 0.227354 0.103587
v 0.047025 0.231877 0.097189
v 0.047141 0.234047 0.091582
v 0.039973 0.235860 0.092215
v 0.046500 0.235587 0.083807
v 0.039973 0.237239 0.084384
v 0.046106 0.237504 0.076244
v 0.039973 0.239056 0.076785
v 0.047220 0.241966 0.069321
v 0.039973 0.243800 0.069961
v 0.045135 0.192075 0.146989
vn -0.0000 -0.9710 -0.2391
vn -0.4978 -0.8451 -0.1951
vn -0.4875 -0.8705 -0.0682
vn -0.0000 -0.9938 -0.1113
vn -0.0000 -0.8619 -0.5070
vn -0.4905 -0.7379 -0.4637
vn 0.4905 -0.7379 -0.4637
vn 0.4978 -0.8451 -0.1951
vn 0.4875 -0.8705 -0.0682
vn -0.4996 -0.8038 -0.3229
vn -0.0000 -0.9302 -0.3670
vn 0.4996 -0.8038 -0.3229
vn -0.0000 -0.8817 -0.4718
vn 0.4940 -0.7568 -0.4281
vn -0.4940 -0.7568 -0.4281
vn -0.0000 -0.9822 -0.1880
vn 0.4946 -0.8570 -0.1443
vn -0.4946 -0.8570 -0.1443
vn -0.0000 -0.9896 -0.1436
vn 0.4908 -0.8655 -0.1002
vn -0.4908 -0.8655 -0.1002
vn -0.4991 -0.7964 -0.3415
vn -0.0000 -0.9227 -0.3855
vn 0.4991 -0.7964 -0.3415
vn -0.4967 -0.7746 -0.3915
vn -0.0000 -0.9003 -0.4354
vn 0.4967 -0.7746 -0.3915
vn -0.4954 -0.8548 -0.1549
vn -0.0000 -0.9801 -0.1986
vn 0.4954 -0.8548 -0.1549
vn -0.4923 -0.8625 -0.1167
vn -0.0000 -0.9871 -0.1602
vn 0.4923 -0.8625 -0.1167
vn -0.4991 -0.7961 -0.3423
vn -0.0000 -0.9223 -0.3864
vn 0.4991 -0.7961 -0.3423
vn -0.4956 -0.7670 -0.4075
vn -0.0000 -0.8924 -0.4512
vn 0.4956 -0.7670 -0.4075
vn -0.4981 -0.8434 -0.2016
vn -0.0000 -0.9694 -0.2456
vn 0.4981 -0.8434 -0.2016
vn -0.4930 -0.8611 -0.1242
vn -0.0000 -0.9858 -0.1677
vn 0.4930 -0.8611 -0.1242
vn -0.4997 -0.8291 -0.2507
vn -0.0000 -0.9555 -0.2949
vn 0.4997 -0.8291 -0.2507
vn -0.3873 -0.4249 -0.8182
vn -0.0000 -0.5229 -0.8524
vn 0.3873 -0.4249 -0.8182
vn -0.0000 0.3297 -0.9441
vn -0.8654 -0.4838 -0.1301
vn -0.6709 -0.1572 -0.7247
vn -0.7747 0.2085 -0.5970
vn -0.9993 -0.0121 0.0346
vn -0.8539 -0.5204 -0.0052
vn -0.9860 -0.0550 0.1574
vn -0.8627 -0.4991 -0.0814
vn -0.9961 -0.0289 0.0828
vn -0.8585 -0.4245 -0.2878
vn -0.9913 0.0435 -0.1244
vn -0.8644 -0.4512 -0.2218
vn -0.9982 0.0200 -0.0573
vn -0.8528 -0.5223 0.0022
vn -0.9847 -0.0575 0.1645
vn -0.8580 -0.5124 -0.0353
vn -0.9908 -0.0447 0.1280
vn -0.8604 -0.4313 -0.2716
vn -0.9935 0.0377 -0.1078
vn -0.8645 -0.4515 -0.2210
vn -0.9982 0.0197 -0.0564
vn -0.8501 -0.5263 0.0183
vn -0.9816 -0.0629 0.1801
vn -0.8645 0.4909 0.1081
vn -0.8604 0.5066 0.0560
vn -0.8501 0.4005 0.3419
vn -0.9892 -0.0482 0.1381
vn -0.8567 0.4187 0.3012
vn -0.8567 -0.5152 -0.0249
vn -0.9880 0.0510 -0.1460
vn -0.8556 0.5174 0.0168
vn -0.8556 -0.4154 -0.3089
vn -0.8653 -0.4585 -0.2023
vn -0.9992 0.0131 -0.0376
vn -0.8443 -0.5336 0.0494
vn -0.9749 -0.0734 0.2102
vn -0.8653 0.4848 0.1271
vn -0.8443 0.3868 0.3709
vn -0.9955 -0.0311 0.0891
vn -0.8622 0.4388 0.2532
vn -0.8622 -0.5011 -0.0750
vn -0.9809 0.0641 -0.1836
vn -0.8495 0.5271 -0.0219
vn -0.8495 -0.3989 -0.3453
vn -0.8600 -0.4298 -0.2753
vn -0.9930 0.0390 -0.1116
vn -0.4965 -0.7729 -0.3951
vn -0.0000 -0.8985 -0.4390
vn -0.6544 -0.5727 0.4938
vn -0.3778 -0.8338 0.4026
vn -0.0000 -0.9294 0.3692
vn -0.0000 -0.3297 0.9441
vn 0.3778 -0.8338 0.4026
vn 0.4965 -0.7729 -0.3951
vn 0.6544 -0.5727 0.4938
vn 0.8600 -0.4298 -0.2753
vn 0.7557 -0.2159 0.6183
vn 0.9930 0.0390 -0.1116
vn 0.8495 -0.3989 -0.3453
vn 0.9809 0.0641 -0.1836
vn 0.8600 0.5077 0.0521
vn 0.6544 0.1407 0.7429
vn 0.8495 0.5271 -0.0219
vn 0.9955 -0.0311 0.0891
vn 0.8622 0.4388 0.2532
vn 0.8622 -0.5011 -0.0750
vn 0.8443 -0.5336 0.0494
vn 0.9749 -0.0734 0.2102
vn 0.8443 0.3868 0.3709
vn 0.8653 -0.4585 -0.2023
vn 0.9992 0.0131 -0.0376
vn 0.8653 0.4848 0.1271
vn 0.9880 0.0510 -0.1460
vn 0.8556 0.5174 0.0168
vn 0.8556 -0.4154 -0.3089
vn 0.9892 -0.0482 0.1381
vn 0.8567 0.4187 0.3012
vn 0.8567 -0.5152 -0.0249
vn 0.9816 -0.0629 0.1801
vn 0.8501 0.4005 0.3419
vn 0.8501 -0.5263 0.0183
vn 0.9982 0.0197 -0.0564
vn 0.8645 0.4909 0.1081
vn 0.8645 -0.4515 -0.2210
vn 0.9935 0.0377 -0.1078
vn 0.8604 0.5066 0.0560
vn 0.8604 -0.4313 -0.2716
vn 0.9908 -0.0447 0.1280
vn 0.8580 0.4230 0.2914
vn 0.8580 -0.5124 -0.0353
vn 0.9847 -0.0575 0.1645
vn 0.8528 0.4074 0.3268
vn 0.8528 -0.5223 0.0022
vn 0.8644 -0.4512 -0.2218
vn 0.9982 0.0200 -0.0573
vn 0.8644 0.4912 0.1073
vn 0.8585 -0.4245 -0.2878
vn 0.9913 0.0434 -0.1244
vn 0.8585 0.5114 0.0390
vn 0.8627 -0.4991 -0.0814
vn 0.9961 -0.0289 0.0828
vn 0.8627 0.4413 0.2470
vn 0.8539 -0.5204 -0.0052
vn 0.9860 -0.0550 0.1574
vn 0.8539 0.4105 0.3199
vn 0.8654 -0.4838 -0.1301
vn 0.9993 -0.0121 0.0346
vn 0.8654 0.4596 0.1994
vn 0.6709 -0.1572 -0.7247
vn 0.7747 0.2085 -0.5970
vn 0.6709 0.5742 -0.4693
vn 0.4997 0.8050 0.3200
vn 0.3873 0.8419 -0.3758
vn -0.0000 0.9313 0.3641
vn -0.0000 0.9399 -0.3416
vn -0.4997 0.8050 0.3200
vn -0.3873 0.8419 -0.3758
vn -0.8654 0.4596 0.1994
vn -0.6709 0.5742 -0.4693
vn -0.8539 0.4105 0.3199
vn -0.4930 0.7512 0.4389
vn -0.8627 0.4413 0.2470
vn -0.4981 0.7855 0.3672
vn -0.8585 0.5114 0.0390
vn -0.4956 0.8539 0.1586
vn -0.8644 0.4912 0.1073
vn -0.4991 0.8361 0.2278
vn -0.8528 0.4074 0.3268
vn -0.4924 0.7476 0.4457
vn -0.8580 0.4230 0.2914
vn -0.4954 0.7653 0.4109
vn -0.0000 0.8722 0.4892
vn -0.0000 0.9623 0.2718
vn -0.0000 0.8906 0.4547
vn -0.4967 0.8499 0.1759
vn -0.0000 0.9756 0.2197
vn -0.4991 0.8358 0.2286
vn -0.0000 0.9621 0.2727
vn -0.4908 0.7397 0.4604
vn -0.0000 0.8638 0.5038
vn -0.4946 0.7606 0.4206
vn -0.0000 0.8857 0.4643
vn -0.4940 0.8588 0.1361
vn -0.0000 0.9837 0.1797
vn -0.4996 0.8301 0.2477
vn -0.0000 0.9565 0.2919
vn -0.4875 0.7237 0.4885
vn -0.0000 0.8470 0.5316
vn 0.4996 0.8301 0.2477
vn 0.4940 0.8588 0.1361
vn 0.4875 0.7237 0.4885
vn -0.0000 0.9087 0.4174
vn 0.4978 0.7828 0.3734
vn -0.4978 0.7828 0.3734
vn -0.0000 0.9902 0.1398
vn 0.4905 0.8661 0.0965
vn -0.4905 0.8661 0.0965
vn -0.4965 0.8508 0.1720
vn -0.0000 0.9764 0.2158
vn -0.8600 0.5077 0.0521
vn -0.3778 0.4019 0.8341
vn -0.6544 0.1407 0.7429
vn -0.7557 -0.2159 0.6183
vn -0.0000 0.4974 0.8675
vn 0.3778 0.4019 0.8341
vn 0.4965 0.8508 0.1720
vn 0.4946 0.7606 0.4206
vn 0.4908 0.7397 0.4604
vn 0.4991 0.8358 0.2286
vn 0.4967 0.8499 0.1759
vn 0.4954 0.7653 0.4109
vn 0.4924 0.7476 0.4457
vn 0.4991 0.8361 0.2278
vn 0.4956 0.8539 0.1586
vn -0.0000 0.9793 0.2024
vn 0.4981 0.7855 0.3672
vn -0.0000 0.9115 0.4112
vn 0.4930 0.7512 0.4389
vn -0.0000 0.8759 0.4825
vt 0.034949 0.833357
vt 0.030598 0.833739
vt 0.029727 0.827738
vt 0.034949 0.827280
vt 0.034949 0.838239
vt 0.030308 0.838645
vt 0.039591 0.838645
vt 0.039301 0.833739
vt 0.040172 0.827738
vt 0.029359 0.823303
vt 0.034949 0.822813
vt 0.040540 0.823303
vt 0.034950 0.817420
vt 0.039758 0.817842
vt 0.030142 0.817842
vt 0.034950 0.813644
vt 0.039634 0.814055
vt 0.030265 0.814055
vt 0.034950 0.807478
vt 0.040675 0.807980
vt 0.029224 0.807980
vt 0.029113 0.803613
vt 0.034950 0.803102
vt 0.040786 0.803613
vt 0.029572 0.798835
vt 0.034950 0.798364
vt 0.040328 0.798835
vt 0.029731 0.793621
vt 0.034950 0.793163
vt 0.040170 0.793621
vt 0.028609 0.786587
vt 0.034950 0.786031
vt 0.041291 0.786587
vt 0.028506 0.781423
vt 0.034950 0.780858
vt 0.041395 0.781423
vt 0.029081 0.775081
vt 0.034950 0.774567
vt 0.040819 0.775081
vt 0.029437 0.768678
vt 0.034950 0.768195
vt 0.040464 0.768678
vt 0.028435 0.761307
vt 0.034950 0.760737
vt 0.041466 0.761307
vt 0.028168 0.753870
vt 0.034951 0.753276
vt 0.041733 0.753870
vt 0.028148 0.745840
vt 0.034951 0.745244
vt 0.041753 0.745840
vt 0.511808 0.927720
vt 0.524462 0.923971
vt 0.524462 0.930999
vt 0.521142 0.937161
vt 0.663748 0.826836
vt 0.668714 0.826819
vt 0.668694 0.835304
vt 0.663714 0.835321
vt 0.515392 0.940806
vt 0.508753 0.940958
vt 0.675496 0.826812
vt 0.675496 0.835297
vt 0.668980 0.819110
vt 0.675496 0.819104
vt 0.664210 0.819127
vt 0.669982 0.811918
vt 0.675496 0.811912
vt 0.025400 0.769998
vt 0.023665 0.762867
vt 0.669627 0.804927
vt 0.675496 0.804921
vt 0.665330 0.804942
vt 0.665945 0.811932
vt 0.669051 0.797868
vt 0.675496 0.797862
vt 0.664333 0.797884
vt 0.669155 0.792466
vt 0.675496 0.792460
vt 0.664513 0.792482
vt 0.670276 0.785702
vt 0.675496 0.785697
vt 0.025910 0.794870
vt 0.023968 0.788105
vt 0.670118 0.780088
vt 0.675496 0.780083
vt 0.666181 0.780102
vt 0.666455 0.785716
vt 0.669660 0.774755
vt 0.675496 0.774749
vt 0.665387 0.774770
vt 0.669771 0.770201
vt 0.675496 0.770196
vt 0.665579 0.770216
vt 0.681332 0.774755
vt 0.680874 0.780088
vt 0.681221 0.770201
vt 0.675496 0.764399
vt 0.680180 0.764403
vt 0.670811 0.764403
vt 0.675496 0.760317
vt 0.680304 0.760321
vt 0.670688 0.760321
vt 0.667168 0.760334
vt 0.667382 0.764415
vt 0.026836 0.815176
vt 0.025033 0.809351
vt 0.669906 0.754069
vt 0.675496 0.754064
vt 0.665813 0.754084
vt 0.670273 0.749599
vt 0.675496 0.749594
vt 0.025904 0.828988
vt 0.025267 0.824641
vt 0.681086 0.754069
vt 0.680718 0.749599
vt 0.675496 0.743772
vt 0.679847 0.743776
vt 0.671144 0.743776
vt 0.675496 0.738404
vt 0.680137 0.738409
vt 0.670855 0.738409
vt 0.667457 0.738421
vt 0.667959 0.743787
vt 0.027413 0.834780
vt 0.670398 0.735206
vt 0.675496 0.735201
vt 0.666665 0.735219
vt 0.034949 0.840964
vt 0.029851 0.841411
vt 0.670534 0.727488
vt 0.666901 0.727501
vt 0.029987 0.848782
vt 0.034949 0.848347
vt 0.869702 0.009593
vt 0.863168 0.016802
vt 0.860736 0.012439
vt 0.860736 0.007320
vt 0.863168 0.002818
vt 0.040048 0.841411
vt 0.039911 0.848782
vt 0.867382 0.000138
vt 0.657257 0.726708
vt 0.657494 0.734426
vt 0.653768 0.734412
vt 0.653631 0.726694
vt 0.872248 0.000000
vt 0.648673 0.734407
vt 0.648672 0.726689
vt 0.656701 0.737628
vt 0.653310 0.737615
vt 0.648671 0.737610
vt 0.643572 0.734412
vt 0.643708 0.726694
vt 0.644027 0.737615
vt 0.648670 0.742978
vt 0.644316 0.742983
vt 0.653019 0.742983
vt 0.653893 0.748805
vt 0.648673 0.748800
vt 0.643448 0.748805
vt 0.654262 0.753275
vt 0.648675 0.753270
vt 0.643081 0.753275
vt 0.648672 0.759523
vt 0.643861 0.759528
vt 0.653477 0.759528
vt 0.648671 0.763605
vt 0.643984 0.763609
vt 0.653353 0.763609
vt 0.648675 0.769401
vt 0.642947 0.769407
vt 0.654398 0.769407
vt 0.648676 0.773955
vt 0.642836 0.773961
vt 0.654509 0.773961
vt 0.648674 0.779289
vt 0.643294 0.779295
vt 0.654049 0.779295
vt 0.648673 0.784903
vt 0.643451 0.784908
vt 0.653890 0.784908
vt 0.648678 0.791665
vt 0.642334 0.791672
vt 0.655015 0.791672
vt 0.655119 0.797074
vt 0.648678 0.797067
vt 0.642230 0.797073
vt 0.654542 0.804133
vt 0.648676 0.804127
vt 0.642804 0.804133
vt 0.654186 0.811124
vt 0.648675 0.811118
vt 0.643158 0.811124
vt 0.655191 0.818316
vt 0.648678 0.818309
vt 0.642159 0.818316
vt 0.655458 0.826025
vt 0.648679 0.826018
vt 0.641894 0.826025
vt 0.655479 0.834509
vt 0.648680 0.834503
vt 0.641874 0.834509
vt 0.515392 0.914578
vt 0.521142 0.917961
vt 0.508753 0.914730
vt 0.636919 0.826043
vt 0.636885 0.834528
vt 0.503003 0.918375
vt 0.839131 0.479481
vt 0.845913 0.480034
vt 0.845934 0.488105
vt 0.839133 0.487550
vt 0.499684 0.924536
vt 0.832348 0.480034
vt 0.832329 0.488105
vt 0.499684 0.931564
vt 0.682279 0.826819
vt 0.687243 0.826836
vt 0.687278 0.835321
vt 0.682299 0.835304
vt 0.503003 0.937575
vt 0.682012 0.819110
vt 0.686781 0.819127
vt 0.681010 0.811918
vt 0.685046 0.811932
vt 0.681365 0.804927
vt 0.685661 0.804942
vt 0.827960 0.454074
vt 0.832681 0.452636
vt 0.833257 0.459660
vt 0.828958 0.460970
vt 0.681941 0.797868
vt 0.681837 0.792466
vt 0.686478 0.792482
vt 0.686658 0.797884
vt 0.680715 0.785702
vt 0.684536 0.785716
vt 0.832783 0.447545
vt 0.839125 0.447028
vt 0.839126 0.452110
vt 0.833903 0.441689
vt 0.839123 0.441262
vt 0.833744 0.436259
vt 0.839122 0.435820
vt 0.684810 0.780102
vt 0.833284 0.430940
vt 0.839122 0.430463
vt 0.829010 0.432242
vt 0.829805 0.437459
vt 0.833395 0.426661
vt 0.839121 0.426193
vt 0.685412 0.770216
vt 0.685605 0.774770
vt 0.834433 0.421682
vt 0.839119 0.421299
vt 0.683609 0.764415
vt 0.834309 0.417729
vt 0.839118 0.417337
vt 0.683823 0.760334
vt 0.833527 0.411366
vt 0.839118 0.410910
vt 0.829432 0.412613
vt 0.830788 0.418802
vt 0.833894 0.407300
vt 0.839117 0.406874
vt 0.684541 0.749612
vt 0.685178 0.754084
vt 0.844708 0.411366
vt 0.843926 0.417729
vt 0.844338 0.407300
vt 0.839115 0.401854
vt 0.843465 0.402210
vt 0.834763 0.402210
vt 0.839114 0.396567
vt 0.843755 0.396946
vt 0.834472 0.396946
vt 0.683534 0.738421
vt 0.683032 0.743787
vt 0.834015 0.393657
vt 0.839114 0.393240
vt 0.830281 0.394794
vt 0.831073 0.397981
vt 0.680594 0.735206
vt 0.684090 0.727501
vt 0.684326 0.735219
vt 0.680458 0.727488
vt 0.675496 0.727483
vt 0.872248 0.019104
vt 0.867382 0.019242
vt 0.876461 0.016424
vt 0.839113 0.385972
vt 0.834150 0.386377
vt 0.878894 0.011922
vt 0.878894 0.006803
vt 0.844074 0.386377
vt 0.844212 0.393657
vt 0.639833 0.734426
vt 0.640068 0.726708
vt 0.876461 0.002440
vt 0.847942 0.394794
vt 0.847151 0.397981
vt 0.640623 0.737628
vt 0.641125 0.742994
vt 0.639618 0.748819
vt 0.638981 0.753290
vt 0.848798 0.412613
vt 0.847443 0.418802
vt 0.843803 0.421682
vt 0.640335 0.759541
vt 0.640549 0.763622
vt 0.844845 0.426661
vt 0.638748 0.769423
vt 0.844957 0.430940
vt 0.638556 0.773976
vt 0.849227 0.432242
vt 0.848433 0.437459
vt 0.844499 0.436259
vt 0.639350 0.779309
vt 0.639623 0.784922
vt 0.844342 0.441689
vt 0.637683 0.791689
vt 0.845465 0.447545
vt 0.637504 0.797091
vt 0.845570 0.452636
vt 0.850285 0.454074
vt 0.849289 0.460970
vt 0.844995 0.459660
vt 0.839127 0.459181
vt 0.638500 0.804149
vt 0.639114 0.811139
vt 0.844641 0.466504
vt 0.839128 0.466054
vt 0.637381 0.818333
vt 0.845645 0.472831
vt 0.839130 0.472299
vt 0.833613 0.466504
vt 0.832613 0.472831
vt 0.660414 0.826043
vt 0.660449 0.834528
vt 0.659952 0.818333
vt 0.044501 0.769998
vt 0.046236 0.762867
vt 0.658830 0.804149
vt 0.658215 0.811139
vt 0.659828 0.797091
vt 0.659648 0.791689
vt 0.043991 0.794870
vt 0.045933 0.788105
vt 0.657978 0.779309
vt 0.657704 0.784922
vt 0.658774 0.773977
vt 0.658581 0.769423
vt 0.043064 0.815176
vt 0.044867 0.809351
vt 0.656991 0.759541
vt 0.656776 0.763622
vt 0.658347 0.753290
vt 0.043995 0.828988
vt 0.044633 0.824641
vt 0.042486 0.834780
vt 0.656198 0.742994
s 1
usemtl M249_Gun
f 1/1/1 2/2/2 6/3/3 5/4/4
f 3/5/5 92/6/6 2/2/2 1/1/1
f 230/7/7 3/5/5 1/1/1 4/8/8
f 4/8/8 1/1/1 5/4/4 7/9/9
f 5/4/4 6/3/3 10/10/10 8/11/11
f 7/9/9 5/4/4 8/11/11 9/12/12
f 9/12/12 8/11/11 11/13/13 12/14/14
f 8/11/11 10/10/10 13/15/15 11/13/13
f 12/14/14 11/13/13 14/16/16 15/17/17
f 11/13/13 13/15/15 16/18/18 14/16/16
f 15/17/17 14/16/16 17/19/19 19/20/20
f 14/16/16 16/18/18 18/21/21 17/19/19
f 17/19/19 18/21/21 21/22/22 20/23/23
f 19/20/20 17/19/19 20/23/23 22/24/24
f 20/23/23 21/22/22 24/25/25 23/26/26
f 22/24/24 20/23/23 23/26/26 25/27/27
f 23/26/26 24/25/25 27/28/28 26/29/29
f 25/27/27 23/26/26 26/29/29 28/30/30
f 26/29/29 27/28/28 30/31/31 29/32/32
f 28/30/30 26/29/29 29/32/32 31/33/33
f 29/32/32 30/31/31 33/34/34 32/35/35
f 31/33/33 29/32/32 32/35/35 34/36/36
f 32/35/35 33/34/34 36/37/37 35/38/38
f 34/36/36 32/35/35 35/38/38 37/39/39
f 35/38/38 36/37/37 39/40/40 38/41/41
f 37/39/39 35/38/38 38/41/41 40/42/42
f 38/41/41 39/40/40 42/43/43 41/44/44
f 40/42/42 38/41/41 41/44/44 43/45/45
f 41/44/44 42/43/43 45/46/46 44/47/47
f 43/45/45 41/44/44 44/47/47 46/48/48
f 44/47/47 45/46/46 50/49/49 47/50/50
f 46/48/48 44/47/47 47/50/50 48/51/51
f 49/52/52 48/53/51 47/54/50
f 49/52/52 47/54/50 50/55/49
f 45/56/46 53/57/53 51/58/54 50/59/49
f 49/52/52 50/55/49 51/60/54
f 49/52/52 51/60/54 52/61/55
f 53/57/53 54/62/56 52/63/55 51/58/54
f 55/64/57 56/65/58 54/62/56 53/57/53
f 42/66/43 55/64/57 53/57/53 45/56/46
f 57/67/59 58/68/60 56/65/58 55/64/57
f 39/40/40 57/69/59 55/70/57 42/43/43
f 59/71/61 60/72/62 58/68/60 57/67/59
f 36/73/37 59/71/61 57/67/59 39/74/40
f 61/75/63 62/76/64 60/72/62 59/71/61
f 33/77/34 61/75/63 59/71/61 36/73/37
f 63/78/65 64/79/66 62/76/64 61/75/63
f 30/80/31 63/78/65 61/75/63 33/77/34
f 65/81/67 66/82/68 64/79/66 63/78/65
f 27/28/28 65/83/67 63/84/65 30/31/31
f 67/85/69 68/86/70 66/82/68 65/81/67
f 24/87/25 67/85/69 65/81/67 27/88/28
f 69/89/71 71/90/72 68/86/70 67/85/69
f 21/91/22 69/89/71 67/85/69 24/87/25
f 70/92/73 73/93/74 71/90/72 69/89/71
f 18/94/21 70/92/73 69/89/71 21/91/22
f 71/90/72 72/95/75 182/96/76 68/86/70
f 73/93/74 74/97/77 72/95/75 71/90/72
f 75/98/78 76/99/79 74/97/77 73/93/74
f 78/100/80 75/98/78 73/93/74 70/92/73
f 77/101/81 191/102/82 76/99/79 75/98/78
f 79/103/83 77/101/81 75/98/78 78/100/80
f 13/104/15 79/103/83 78/100/80 16/105/18
f 16/18/18 78/106/80 70/107/73 18/21/21
f 80/108/84 82/109/85 77/101/81 79/103/83
f 10/110/10 80/108/84 79/103/83 13/104/15
f 81/111/86 84/112/87 82/109/85 80/108/84
f 6/3/3 81/113/86 80/114/84 10/10/10
f 82/109/85 83/115/88 191/102/82 77/101/81
f 84/112/87 85/116/89 83/115/88 82/109/85
f 86/117/90 87/118/91 85/116/89 84/112/87
f 89/119/92 86/117/90 84/112/87 81/111/86
f 88/120/93 203/121/94 87/118/91 86/117/90
f 90/122/95 88/120/93 86/117/90 89/119/92
f 92/123/6 90/122/95 89/119/92 2/124/2
f 2/2/2 89/125/92 81/113/86 6/3/3
f 91/126/96 206/127/97 88/120/93 90/122/95
f 93/128/98 91/126/96 90/122/95 92/123/6
f 94/129/99 93/130/98 92/6/6 3/5/5
f 96/131/100 91/126/96 93/128/98 95/132/101
f 95/133/101 93/130/98 94/129/99 98/134/102
f 97/135/103 96/136/100 95/137/101
f 97/135/103 95/137/101 98/138/102
f 97/135/103 98/138/102 99/139/104
f 98/134/102 94/129/99 100/140/105 99/141/104
f 97/135/103 99/139/104 101/142/106
f 99/143/104 100/144/105 103/145/107 101/146/106
f 97/135/103 101/142/106 102/147/108
f 101/146/106 103/145/107 105/148/109 102/149/108
f 103/145/107 100/144/105 230/150/7 104/151/110
f 105/148/109 103/145/107 104/151/110 107/152/111
f 102/149/108 105/148/109 106/153/112 212/154/113
f 106/153/112 105/148/109 107/152/111 108/155/114
f 108/155/114 107/152/111 109/156/115 111/157/116
f 107/152/111 104/151/110 110/158/117 109/156/115
f 109/156/115 110/158/117 113/159/118 112/160/119
f 111/157/116 109/156/115 112/160/119 114/161/120
f 112/160/119 113/159/118 117/162/121 115/163/122
f 114/161/120 112/160/119 115/163/122 116/164/123
f 116/164/123 115/163/122 118/165/124 119/166/125
f 115/163/122 117/162/121 120/167/126 118/165/124
f 119/166/125 118/165/124 121/168/127 122/169/128
f 118/165/124 120/167/126 123/170/129 121/168/127
f 122/169/128 121/168/127 124/171/130 125/172/131
f 121/168/127 123/170/129 126/173/132 124/171/130
f 125/172/131 124/171/130 127/174/133 128/175/134
f 124/171/130 126/173/132 129/176/135 127/174/133
f 128/175/134 127/174/133 130/177/136 131/178/137
f 127/174/133 129/176/135 132/179/138 130/177/136
f 131/178/137 130/177/136 133/180/139 134/181/140
f 130/177/136 132/179/138 135/182/141 133/180/139
f 134/181/140 133/180/139 136/183/142 138/184/143
f 133/180/139 135/182/141 137/185/144 136/183/142
f 136/183/142 137/185/144 140/186/145 139/187/146
f 138/184/143 136/183/142 139/187/146 141/188/147
f 139/187/146 140/186/145 143/189/148 142/190/149
f 141/188/147 139/187/146 142/190/149 144/191/150
f 142/190/149 143/189/148 146/192/151 145/193/152
f 144/191/150 142/190/149 145/193/152 147/194/153
f 145/193/152 146/192/151 149/195/154 148/196/155
f 147/194/153 145/193/152 148/196/155 150/197/156
f 148/196/155 149/195/154 152/198/157 151/199/158
f 150/197/156 148/196/155 151/199/158 153/200/159
f 151/199/158 152/198/157 155/201/160 154/202/161
f 153/200/159 151/199/158 154/202/161 156/203/162
f 49/52/52 154/204/161 155/205/160
f 49/52/52 156/206/162 154/204/161
f 158/207/163 153/200/159 156/203/162 157/208/164
f 49/52/52 157/209/164 156/206/162
f 160/210/165 158/211/163 157/212/164 159/213/166
f 49/52/52 159/214/166 157/209/164
f 162/215/167 160/210/165 159/213/166 161/216/168
f 49/52/52 161/217/168 159/214/166
f 164/218/169 162/219/167 161/220/168 163/221/170
f 49/52/52 163/222/170 161/217/168
f 54/62/56 164/218/169 163/221/170 52/63/55
f 49/52/52 52/61/55 163/222/170
f 165/223/171 166/224/172 162/219/167 164/218/169
f 56/65/58 165/223/171 164/218/169 54/62/56
f 167/225/173 168/226/174 166/224/172 165/223/171
f 58/68/60 167/225/173 165/223/171 56/65/58
f 169/227/175 170/228/176 168/226/174 167/225/173
f 60/72/62 169/227/175 167/225/173 58/68/60
f 171/229/177 172/230/178 170/231/176 169/232/175
f 62/76/64 171/233/177 169/227/175 60/72/62
f 173/234/179 175/235/180 172/236/178 171/233/177
f 64/79/66 173/234/179 171/233/177 62/76/64
f 174/237/181 177/238/182 175/235/180 173/234/179
f 66/82/68 174/237/181 173/234/179 64/79/66
f 175/239/180 176/240/183 223/241/184 172/230/178
f 177/242/182 178/243/185 176/240/183 175/239/180
f 179/244/186 180/245/187 178/243/185 177/242/182
f 182/96/76 179/246/186 177/238/182 174/237/181
f 181/247/188 183/248/189 180/245/187 179/244/186
f 72/249/75 181/247/188 179/244/186 182/250/76
f 68/86/70 182/96/76 174/237/181 66/82/68
f 184/251/190 185/252/191 183/248/189 181/247/188
f 74/97/77 184/253/190 181/254/188 72/95/75
f 186/255/192 187/256/193 185/252/191 184/251/190
f 76/99/79 186/257/192 184/253/190 74/97/77
f 188/258/194 189/259/195 187/256/193 186/255/192
f 191/102/82 188/260/194 186/257/192 76/99/79
f 190/261/196 193/262/197 189/259/195 188/258/194
f 83/263/88 190/261/196 188/258/194 191/264/82
f 192/265/198 195/266/199 193/262/197 190/261/196
f 85/116/89 192/267/198 190/268/196 83/115/88
f 193/262/197 194/269/200 215/270/201 189/259/195
f 195/266/199 196/271/202 194/269/200 193/262/197
f 197/272/203 198/273/204 196/271/202 195/266/199
f 200/274/205 197/272/203 195/266/199 192/265/198
f 199/275/206 214/276/207 198/273/204 197/272/203
f 201/277/208 199/275/206 197/272/203 200/274/205
f 203/121/94 201/278/208 200/279/205 87/118/91
f 87/118/91 200/279/205 192/267/198 85/116/89
f 202/280/209 210/281/210 199/275/206 201/277/208
f 204/282/211 202/280/209 201/277/208 203/283/94
f 206/127/97 204/284/211 203/121/94 88/120/93
f 208/285/212 202/286/209 204/284/211 205/287/213
f 205/287/213 204/284/211 206/127/97 207/288/214
f 207/288/214 206/127/97 91/126/96 96/131/100
f 97/135/103 205/289/213 207/290/214
f 97/135/103 207/290/214 96/136/100
f 97/135/103 208/291/212 205/289/213
f 209/292/215 210/281/210 202/280/209 208/293/212
f 97/135/103 209/294/215 208/291/212
f 97/135/103 211/295/216 209/294/215
f 211/296/216 213/297/217 210/281/210 209/292/215
f 212/154/113 106/153/112 213/298/217 211/299/216
f 97/135/103 212/300/113 211/295/216
f 210/281/210 213/297/217 214/276/207 199/275/206
f 213/297/217 106/301/112 108/302/114 214/276/207
f 214/303/207 108/155/114 111/157/116 198/304/204
f 97/135/103 102/147/108 212/300/113
f 198/304/204 111/157/116 114/161/120 196/305/202
f 196/305/202 114/161/120 116/164/123 194/306/200
f 194/269/200 116/307/123 119/308/125 215/270/201
f 189/259/195 215/270/201 216/309/218 187/256/193
f 215/310/201 119/166/125 122/169/128 216/311/218
f 187/256/193 216/309/218 217/312/219 185/252/191
f 216/311/218 122/169/128 125/172/131 217/313/219
f 185/252/191 217/312/219 218/314/220 183/248/189
f 217/313/219 125/172/131 128/175/134 218/315/220
f 218/314/220 128/316/134 131/317/137 219/318/221
f 183/248/189 218/314/220 219/318/221 180/245/187
f 219/319/221 131/178/137 134/181/140 220/320/222
f 180/245/187 219/318/221 220/321/222 178/243/185
f 220/320/222 134/181/140 138/184/143 221/322/223
f 178/243/185 220/321/222 221/323/223 176/240/183
f 221/322/223 138/184/143 141/188/147 222/324/224
f 176/240/183 221/323/223 222/325/224 223/241/184
f 222/325/224 141/326/147 144/327/150 224/328/225
f 223/241/184 222/325/224 224/328/225 225/329/226
f 224/330/225 144/191/150 147/194/153 226/331/227
f 225/329/226 224/328/225 226/332/227 227/333/228
f 226/331/227 147/194/153 150/197/156 228/334/229
f 227/333/228 226/332/227 228/335/229 229/336/230
f 228/334/229 150/197/156 153/200/159 158/207/163
f 229/336/230 228/335/229 158/211/163 160/210/165
f 168/337/174 227/333/228 229/336/230 166/338/172
f 166/338/172 229/336/230 160/210/165 162/215/167
f 170/231/176 225/329/226 227/333/228 168/337/174
f 172/230/178 223/241/184 225/329/226 170/231/176
f 152/198/157 46/339/48 48/340/51 155/201/160
f 49/52/52 155/205/160 48/53/51
f 149/195/154 43/341/45 46/339/48 152/198/157
f 146/342/151 40/42/42 43/45/45 149/343/154
f 143/189/148 37/344/39 40/345/42 146/192/151
f 140/186/145 34/346/36 37/344/39 143/189/148
f 137/185/144 31/347/33 34/346/36 140/186/145
f 135/348/141 28/30/30 31/33/33 137/349/144
f 132/179/138 25/350/27 28/351/30 135/182/141
f 129/176/135 22/352/24 25/350/27 132/179/138
f 126/173/132 19/353/20 22/352/24 129/176/135
f 123/354/129 15/17/17 19/20/20 126/355/132
f 120/167/126 12/356/14 15/357/17 123/170/129
f 117/162/121 9/358/12 12/356/14 120/167/126
f 113/359/118 7/9/9 9/12/12 117/360/121
f 110/361/117 4/8/8 7/9/9 113/359/118
f 104/151/110 230/150/7 4/362/8 110/158/117
f 100/140/105 94/129/99 3/5/5 230/7/7
