# Blender 4.0.2
# www.blender.org
mtllib M249_part_16.mtl
o M249_part_16
v 0.000000 0.008747 -0.363752
v 0.000000 0.023687 -0.363752
v 0.003735 0.008747 -0.362751
v 0.000000 0.007295 -0.361172
v -0.003735 0.008747 -0.362751
v -0.006469 0.008747 -0.360017
v -0.002445 0.007295 -0.360517
v -0.003735 0.023687 -0.362751
v -0.006469 0.023687 -0.360017
v -0.007470 0.023687 -0.356282
v -0.006469 0.023687 -0.352547
v -0.007470 0.008747 -0.356282
v -0.004890 0.007295 -0.356282
v -0.006469 0.008747 -0.352547
v -0.004235 0.007295 -0.353837
v -0.003735 0.008747 -0.349813
v -0.003735 0.023687 -0.349813
v 0.000000 0.008747 -0.348812
v -0.002445 0.007295 -0.352048
v 0.000000 0.007295 -0.351393
v 0.000000 0.007295 -0.356282
v 0.002445 0.007295 -0.360517
v 0.004235 0.007295 -0.358727
v 0.004890 0.007295 -0.356282
v 0.004235 0.007295 -0.353837
v 0.002445 0.007295 -0.352048
v -0.004235 0.007295 -0.358727
v 0.003735 0.008747 -0.349813
v 0.006469 0.008747 -0.352547
v 0.003735 0.023687 -0.349813
v 0.006469 0.023687 -0.352547
v 0.000000 0.023687 -0.348812
v 0.007470 0.023687 -0.356282
v 0.006469 0.023687 -0.360017
v 0.007470 0.008747 -0.356282
v 0.006469 0.008747 -0.360017
v 0.003735 0.023687 -0.362751
vn -0.4409 -0.4716 -0.7637
vn -0.5000 -0.0000 -0.8660
vn -0.0000 -0.0000 -1.0000
vn -0.0000 -0.4716 -0.8818
vn 0.5000 -0.0000 -0.8660
vn 0.4409 -0.4716 -0.7637
vn 0.1461 -0.9564 -0.2530
vn -0.0000 -0.9564 -0.2921
vn -0.1461 -0.9564 -0.2530
vn -0.7637 -0.4716 -0.4409
vn -0.8660 -0.0000 -0.5000
vn -0.2530 -0.9564 -0.1461
vn -0.8818 -0.4716 -0.0000
vn -1.0000 -0.0000 -0.0000
vn -0.7637 -0.4716 0.4409
vn -0.8660 -0.0000 0.5000
vn -0.2921 -0.9564 -0.0000
vn -0.2530 -0.9564 0.1461
vn -0.4409 -0.4716 0.7637
vn -0.1461 -0.9564 0.2530
vn -0.5000 -0.0000 0.8660
vn -0.0000 -0.4716 0.8818
vn -0.0000 -0.0000 1.0000
vn -0.0000 -0.9564 0.2921
vn -0.0000 -1.0000 -0.0000
vn 0.2530 -0.9564 -0.1461
vn 0.2921 -0.9564 -0.0000
vn 0.2530 -0.9564 0.1461
vn 0.1461 -0.9564 0.2530
vn 0.4409 -0.4716 0.7637
vn 0.7637 -0.4716 0.4409
vn 0.5000 -0.0000 0.8660
vn 0.8660 -0.0000 0.5000
vn 0.8818 -0.4716 -0.0000
vn 1.0000 -0.0000 -0.0000
vn 0.7637 -0.4716 -0.4409
vn 0.8660 -0.0000 -0.5000
vt 0.971507 0.648891
vt 0.971507 0.635459
vt 0.974842 0.635450
vt 0.974842 0.648882
vt 0.978221 0.635458
vt 0.978221 0.648889
vt 0.909706 0.970216
vt 0.907968 0.967205
vt 0.910212 0.966602
vt 0.911350 0.968573
vt 0.912717 0.971954
vt 0.913320 0.969711
vt 0.981098 0.175985
vt 0.981098 0.162554
vt 0.983564 0.162551
vt 0.983564 0.175983
vt 0.916194 0.971954
vt 0.915596 0.969711
vt 0.977737 0.175986
vt 0.977737 0.162554
vt 0.974382 0.175985
vt 0.974382 0.162554
vt 0.919204 0.970216
vt 0.917567 0.968573
vt 0.920942 0.967205
vt 0.918704 0.966602
vt 0.920942 0.963729
vt 0.918704 0.964327
vt 0.502138 0.963496
vt 0.502138 0.976928
vt 0.499684 0.976929
vt 0.499684 0.963498
vt 0.505495 0.963495
vt 0.505495 0.976927
vt 0.919204 0.960718
vt 0.917567 0.962356
vt 0.914458 0.965464
vt 0.910212 0.964327
vt 0.911350 0.962356
vt 0.913320 0.961218
vt 0.915596 0.961218
vt 0.916194 0.958980
vt 0.912717 0.958980
vt 0.508854 0.963496
vt 0.508854 0.976928
vt 0.511316 0.963497
vt 0.511316 0.976929
vt 0.804163 0.616038
vt 0.804163 0.629470
vt 0.800807 0.629473
vt 0.800807 0.616041
vt 0.807523 0.616041
vt 0.807523 0.629473
vt 0.907968 0.963729
vt 0.909706 0.960718
vt 0.980737 0.635480
vt 0.980737 0.648911
s 1
usemtl M249_Gun
f 5/1/1 8/2/2 2/3/3 1/4/4
f 1/4/4 2/3/3 37/5/5 3/6/6
f 1/7/4 3/8/6 22/9/7 4/10/8
f 5/11/1 1/7/4 4/10/8 7/12/9
f 6/13/10 9/14/11 8/15/2 5/16/1
f 6/17/10 5/11/1 7/12/9 27/18/12
f 12/19/13 10/20/14 9/14/11 6/13/10
f 14/21/15 11/22/16 10/20/14 12/19/13
f 12/23/13 6/17/10 27/18/12 13/24/17
f 14/25/15 12/23/13 13/24/17 15/26/18
f 16/27/19 14/25/15 15/26/18 19/28/20
f 16/29/19 17/30/21 11/31/16 14/32/15
f 18/33/22 32/34/23 17/30/21 16/29/19
f 18/35/22 16/27/19 19/28/20 20/36/24
f 21/37/25 19/28/20 15/26/18
f 21/37/25 20/36/24 19/28/20
f 21/37/25 7/12/9 4/10/8
f 21/37/25 4/10/8 22/9/7
f 21/37/25 22/9/7 23/38/26
f 21/37/25 23/38/26 24/39/27
f 21/37/25 24/39/27 25/40/28
f 21/37/25 25/40/28 26/41/29
f 21/37/25 26/41/29 20/36/24
f 21/37/25 15/26/18 13/24/17
f 21/37/25 13/24/17 27/18/12
f 21/37/25 27/18/12 7/12/9
f 28/42/30 18/35/22 20/36/24 26/41/29
f 29/43/31 28/42/30 26/41/29 25/40/28
f 28/44/30 30/45/32 32/34/23 18/33/22
f 29/46/31 31/47/33 30/45/32 28/44/30
f 35/48/34 33/49/35 31/50/33 29/51/31
f 36/52/36 34/53/37 33/49/35 35/48/34
f 36/54/36 35/55/34 24/39/27 23/38/26
f 35/55/34 29/43/31 25/40/28 24/39/27
f 3/6/6 37/5/5 34/56/37 36/57/36
f 3/8/6 36/54/36 23/38/26 22/9/7
