# Blender 4.0.2
# www.blender.org
mtllib M249_part_17.mtl
o M249_part_17
v 0.012636 0.118248 -0.333955
v 0.012636 0.119734 -0.351462
v 0.017512 0.113352 -0.333837
v 0.005964 0.119965 -0.333955
v 0.005964 0.121451 -0.351462
v 0.008265 0.113352 -0.333837
v 0.000000 0.121500 -0.333955
v 0.000000 0.113352 -0.333837
v 0.000000 0.122986 -0.351462
v -0.005964 0.119965 -0.333955
v -0.005964 0.121451 -0.351462
v -0.012636 0.118248 -0.333955
v -0.008265 0.113352 -0.333837
v -0.008539 0.109975 -0.333777
v -0.017512 0.113352 -0.333837
v -0.017512 0.114453 -0.351373
v -0.018094 0.109975 -0.333777
v -0.018675 0.106598 -0.333717
v -0.018094 0.110743 -0.351327
v -0.018675 0.107033 -0.351282
v -0.018094 0.111680 -0.372732
v -0.018675 0.107564 -0.372704
v -0.018094 0.113693 -0.418735
v -0.017512 0.115795 -0.372760
v -0.012636 0.121546 -0.372814
v -0.017512 0.118680 -0.418725
v -0.012636 0.125441 -0.418705
v -0.017512 0.119225 -0.424888
v -0.012636 0.126176 -0.424854
v -0.017512 0.120681 -0.450600
v -0.018094 0.114073 -0.424906
v -0.018675 0.108921 -0.424923
v -0.018094 0.115088 -0.450637
v -0.018675 0.109496 -0.450674
v -0.018094 0.115648 -0.463417
v -0.018675 0.109813 -0.463464
v -0.018094 0.116045 -0.472500
v -0.017512 0.121482 -0.463370
v -0.012636 0.129224 -0.463277
v -0.017512 0.122052 -0.472445
v -0.017512 0.122453 -0.478839
v -0.012636 0.129993 -0.472338
v -0.012636 0.130535 -0.478721
v -0.005964 0.131710 -0.472338
v -0.005964 0.132252 -0.478721
v -0.005964 0.130941 -0.463277
v 0.000000 0.133245 -0.472338
v 0.005964 0.131710 -0.472338
v 0.000000 0.132476 -0.463277
v 0.000000 0.133787 -0.478721
v 0.005964 0.132252 -0.478721
v 0.000000 0.135419 -0.478721
v 0.005941 0.135400 -0.478721
v -0.005941 0.135400 -0.478721
v -0.015403 0.135379 -0.478721
v -0.005820 0.137420 -0.484902
v -0.005941 0.145843 -0.479041
v 0.000000 0.135400 -0.478721
v 0.000000 0.145843 -0.479041
v 0.005941 0.145843 -0.479041
v 0.000000 0.151700 -0.482238
v 0.000000 0.153560 -0.489005
v 0.005820 0.151700 -0.482238
v -0.005820 0.151700 -0.482238
v -0.005700 0.153560 -0.489005
v -0.005700 0.139441 -0.491084
v -0.005581 0.151234 -0.495519
v -0.005581 0.141430 -0.497171
v -0.005462 0.148269 -0.499528
v 0.000000 0.151234 -0.495519
v 0.000000 0.148269 -0.499528
v 0.005581 0.151234 -0.495519
v 0.005581 0.141430 -0.497171
v 0.005700 0.153560 -0.489005
v 0.005462 0.148269 -0.499528
v 0.005462 0.143420 -0.503258
v 0.006787 0.136349 -0.509681
v 0.020290 0.143420 -0.503258
v 0.000000 0.143420 -0.503258
v 0.000000 0.136349 -0.509681
v -0.005462 0.143420 -0.503258
v -0.020290 0.143420 -0.503258
v -0.006787 0.136349 -0.509681
v -0.020279 0.136349 -0.509681
v -0.006787 0.127599 -0.515249
v 0.000000 0.127599 -0.515249
v -0.020279 0.127599 -0.515249
v -0.006787 0.117390 -0.514719
v -0.020279 0.117390 -0.514719
v 0.000000 0.117390 -0.514719
v -0.006787 0.110628 -0.509283
v -0.020279 0.110628 -0.509283
v 0.000000 0.110628 -0.509283
v -0.006787 0.097478 -0.506154
v 0.000000 0.097478 -0.506154
v -0.020279 0.097478 -0.506154
v -0.006787 0.086527 -0.503549
v -0.006787 0.074963 -0.500797
v -0.020279 0.086527 -0.503549
v 0.000000 0.086527 -0.503549
v 0.006787 0.086527 -0.503549
v 0.000000 0.074963 -0.500797
v 0.006787 0.074963 -0.500797
v 0.000000 0.065063 -0.500637
v 0.006787 0.065063 -0.500637
v 0.000000 0.059043 -0.500540
v -0.006787 0.065063 -0.500637
v -0.020279 0.065063 -0.500637
v -0.006787 0.059043 -0.500540
v -0.020279 0.059043 -0.500540
v -0.006787 0.030145 -0.500072
v -0.006787 0.001247 -0.499604
v -0.020279 0.030145 -0.500072
v 0.000000 0.030145 -0.500072
v 0.006787 0.030145 -0.500072
v 0.000000 0.001247 -0.499604
v 0.006787 0.001247 -0.499604
v 0.000000 -0.011695 -0.493738
v 0.006660 -0.011684 -0.493524
v 0.000000 -0.016830 -0.493885
v -0.006660 -0.011684 -0.493524
v -0.006610 -0.016815 -0.493586
v -0.019194 -0.011664 -0.493130
v -0.018763 -0.016787 -0.493035
v -0.020279 0.001247 -0.499604
v -0.022157 -0.011388 -0.492259
v -0.021942 -0.016779 -0.492211
v -0.025120 -0.011112 -0.491387
v -0.022699 0.000630 -0.495496
v -0.025120 0.000014 -0.491387
v -0.022684 0.029716 -0.495914
v -0.022668 0.058801 -0.496333
v -0.025088 0.029286 -0.491757
v -0.027174 0.029286 -0.489362
v -0.025057 0.058558 -0.492126
v -0.024971 0.065288 -0.492126
v -0.027143 0.058558 -0.489731
v -0.027057 0.065288 -0.489731
v -0.027143 0.058558 -0.484257
v -0.027057 0.065288 -0.484257
v -0.027143 0.058558 -0.478783
v -0.027174 0.029286 -0.483888
v -0.027206 0.000014 -0.483518
v -0.027174 0.029286 -0.478413
v -0.018438 0.031809 -0.478413
v -0.027206 0.000014 -0.478044
v -0.017387 0.004233 -0.478044
v -0.027206 -0.013587 -0.478044
v -0.017387 -0.010393 -0.478044
v -0.027206 -0.020508 -0.478044
v -0.027206 -0.013588 -0.483518
v -0.027206 -0.013588 -0.488992
v -0.027206 -0.020508 -0.483518
v -0.027206 -0.020508 -0.488992
v -0.023764 -0.020511 -0.483518
v -0.023764 -0.020511 -0.488992
v -0.020322 -0.020513 -0.483518
v -0.023764 -0.020510 -0.478044
v -0.015187 -0.017857 -0.478044
v -0.020322 -0.020513 -0.478044
v -0.012987 -0.017881 -0.478044
v -0.007159 -0.020525 -0.478044
v -0.004575 -0.017970 -0.478044
v 0.000000 -0.020531 -0.478044
v -0.007159 -0.020525 -0.483518
v -0.007159 -0.020525 -0.488992
v 0.000000 -0.020531 -0.483518
v 0.007159 -0.020525 -0.483518
v 0.000000 -0.020531 -0.488992
v 0.007159 -0.020525 -0.488992
v 0.006610 -0.016815 -0.493586
v 0.020322 -0.020513 -0.488992
v 0.018763 -0.016787 -0.493035
v 0.020322 -0.020513 -0.483518
v 0.023764 -0.020511 -0.488992
v 0.023764 -0.020511 -0.483518
v 0.021942 -0.016779 -0.492211
v 0.027206 -0.020508 -0.488992
v 0.027206 -0.020508 -0.483518
v 0.027206 -0.013588 -0.488992
v 0.025120 -0.016772 -0.491387
v 0.025120 -0.011112 -0.491387
v 0.025120 0.000014 -0.491387
v 0.022157 -0.011388 -0.492259
v 0.019194 -0.011664 -0.493130
v 0.022699 0.000630 -0.495496
v 0.020279 0.001247 -0.499604
v 0.022684 0.029716 -0.495914
v 0.020279 0.030145 -0.500072
v 0.022668 0.058801 -0.496333
v 0.025088 0.029286 -0.491757
v 0.027174 0.029286 -0.489362
v 0.025057 0.058558 -0.492126
v 0.027143 0.058558 -0.489731
v 0.024970 0.065288 -0.492126
v 0.027057 0.065288 -0.489731
v 0.024891 0.075021 -0.492126
v 0.022625 0.065176 -0.496382
v 0.020279 0.065063 -0.500637
v 0.022585 0.074992 -0.496462
v 0.020279 0.074963 -0.500797
v 0.022578 0.086444 -0.497837
v 0.020279 0.086527 -0.503549
v 0.022632 0.096718 -0.499140
v 0.024877 0.086362 -0.492126
v 0.026964 0.086362 -0.489731
v 0.024984 0.095957 -0.492126
v 0.027070 0.095957 -0.489731
v 0.025081 0.103227 -0.492126
v 0.027167 0.103227 -0.489731
v 0.025081 0.110247 -0.492215
v 0.022680 0.106928 -0.500705
v 0.020279 0.110628 -0.509283
v 0.022680 0.113819 -0.503467
v 0.020279 0.117390 -0.514719
v 0.022680 0.122433 -0.503776
v 0.020279 0.127599 -0.515249
v 0.022689 0.131683 -0.501173
v 0.025081 0.117267 -0.492303
v 0.027167 0.117267 -0.489908
v 0.025099 0.127016 -0.492665
v 0.027185 0.127917 -0.490270
v 0.027185 0.125928 -0.484585
v 0.027202 0.139145 -0.490523
v 0.027185 0.132105 -0.499975
v 0.027202 0.141282 -0.496890
v 0.027185 0.136293 -0.509681
v 0.027202 0.143420 -0.503258
v 0.020279 0.136349 -0.509681
v 0.019077 0.141425 -0.497171
v 0.017865 0.139430 -0.491084
v 0.016634 0.137405 -0.484902
v 0.005700 0.139441 -0.491084
v 0.005820 0.137420 -0.484902
v 0.027202 0.137265 -0.484681
v 0.015403 0.135379 -0.478721
v 0.027202 0.135385 -0.478839
v 0.012636 0.130535 -0.478721
v 0.012636 0.129993 -0.472338
v 0.017512 0.122453 -0.478839
v 0.017512 0.122052 -0.472445
v 0.018094 0.116325 -0.478899
v 0.018094 0.116045 -0.472500
v 0.018675 0.110197 -0.478959
v 0.027185 0.123939 -0.478899
v 0.027167 0.112494 -0.478959
v 0.027167 0.107860 -0.478871
v 0.027167 0.114881 -0.484434
v 0.027167 0.109054 -0.484345
v 0.027167 0.103227 -0.484257
v 0.027167 0.110247 -0.489819
v 0.027070 0.095957 -0.484257
v 0.027167 0.103227 -0.478783
v 0.027070 0.095957 -0.478783
v 0.018675 0.101467 -0.478783
v 0.018675 0.101394 -0.472377
v 0.018675 0.105832 -0.478871
v 0.021915 0.094619 -0.478783
v 0.021915 0.094546 -0.472377
v 0.025491 0.085579 -0.478783
v 0.025491 0.085506 -0.472377
v 0.025030 0.074896 -0.478783
v 0.026964 0.086362 -0.478783
v 0.026977 0.075021 -0.478783
v 0.026964 0.086362 -0.484257
v 0.026977 0.075021 -0.484257
v 0.027057 0.065288 -0.484257
v 0.026977 0.075021 -0.489731
v 0.027143 0.058558 -0.484257
v 0.027057 0.065288 -0.478783
v 0.022379 0.065726 -0.478783
v 0.027143 0.058558 -0.478783
v 0.019489 0.059386 -0.478783
v 0.027174 0.029286 -0.478413
v 0.027206 0.000014 -0.478044
v 0.018438 0.031809 -0.478413
v 0.027174 0.029286 -0.483888
v 0.027206 0.000014 -0.483518
v 0.027206 0.000014 -0.488992
v 0.027206 -0.013588 -0.483518
v 0.027206 -0.013587 -0.478044
v 0.027206 -0.020508 -0.478044
v 0.017387 -0.010393 -0.478044
v 0.017387 -0.010466 -0.471637
v 0.017387 -0.017834 -0.478044
v 0.017387 0.004233 -0.478044
v 0.017387 0.004160 -0.471637
v 0.017387 0.004160 -0.464563
v 0.011959 0.004160 -0.469317
v 0.018438 0.031736 -0.472007
v 0.019489 0.059313 -0.472377
v 0.013019 0.029805 -0.469545
v 0.014079 0.055451 -0.469772
v 0.012922 0.029827 -0.462556
v 0.013884 0.055495 -0.462316
v 0.012784 0.029654 -0.448014
v 0.011959 0.004160 -0.462796
v 0.011959 0.003752 -0.447706
v 0.017387 0.003752 -0.448191
v 0.011324 0.015218 -0.422053
v 0.016751 0.015218 -0.420358
v 0.011315 0.017520 -0.416910
v 0.012217 0.035443 -0.423083
v 0.013110 0.055669 -0.424114
v 0.012119 0.036616 -0.417778
v 0.012923 0.055711 -0.418645
v 0.012329 0.055519 -0.376348
v 0.011934 0.055934 -0.376355
v 0.012723 0.055105 -0.376340
v 0.015636 0.058174 -0.372502
v 0.015636 0.057929 -0.351074
v 0.016883 0.058174 -0.372502
v 0.014388 0.058174 -0.372502
v 0.021523 0.064514 -0.372502
v 0.016741 0.058699 -0.418555
v 0.014388 0.057929 -0.351074
v 0.014388 0.057729 -0.333505
v 0.021523 0.064270 -0.351074
v 0.021523 0.064069 -0.333505
v 0.025030 0.073439 -0.351074
v 0.025030 0.073239 -0.333505
v 0.025491 0.084122 -0.351074
v 0.025030 0.073683 -0.372502
v 0.025030 0.074209 -0.418555
v 0.025491 0.084367 -0.372502
v 0.025491 0.084892 -0.418555
v 0.021915 0.093407 -0.372502
v 0.021915 0.093932 -0.418555
v 0.018675 0.100255 -0.372502
v 0.021915 0.093162 -0.351074
v 0.021915 0.092962 -0.333505
v 0.018675 0.100011 -0.351074
v 0.018675 0.099810 -0.333505
v 0.018675 0.103522 -0.351178
v 0.018675 0.103204 -0.333611
v 0.018675 0.103910 -0.372603
v 0.018675 0.107033 -0.351282
v 0.018675 0.106598 -0.333717
v 0.018094 0.110743 -0.351327
v 0.018675 0.107564 -0.372704
v 0.018094 0.111680 -0.372732
v 0.018675 0.108705 -0.418746
v 0.018094 0.113693 -0.418735
v 0.018675 0.104743 -0.418650
v 0.018675 0.108921 -0.424923
v 0.018094 0.114073 -0.424906
v 0.018675 0.109496 -0.450674
v 0.018675 0.104900 -0.424829
v 0.018675 0.100879 -0.424735
v 0.018675 0.105320 -0.450582
v 0.018675 0.101144 -0.450491
v 0.018675 0.105552 -0.463374
v 0.018675 0.101290 -0.463284
v 0.018675 0.105716 -0.472466
v 0.018675 0.109813 -0.463464
v 0.018094 0.115648 -0.463417
v 0.018675 0.110039 -0.472554
v 0.018094 0.115088 -0.450637
v 0.017512 0.121482 -0.463370
v 0.017512 0.120681 -0.450600
v 0.012636 0.129224 -0.463277
v 0.005964 0.130941 -0.463277
v 0.012636 0.128142 -0.450529
v 0.012636 0.126176 -0.424854
v 0.005964 0.129859 -0.450529
v 0.005964 0.127776 -0.424793
v 0.000000 0.131394 -0.450529
v 0.000000 0.129205 -0.424738
v -0.005964 0.129859 -0.450529
v -0.005964 0.127776 -0.424793
v -0.012636 0.128142 -0.450529
v -0.005964 0.127158 -0.418705
v 0.000000 0.128693 -0.418705
v -0.005964 0.123263 -0.372814
v 0.000000 0.124798 -0.372814
v 0.005964 0.123263 -0.372814
v 0.012636 0.121546 -0.372814
v 0.005964 0.127158 -0.418705
v 0.012636 0.125441 -0.418705
v 0.017512 0.118680 -0.418725
v 0.017512 0.115795 -0.372760
v 0.017512 0.119225 -0.424888
v 0.017512 0.114453 -0.351373
v 0.021915 0.094442 -0.463284
v 0.021915 0.094296 -0.450491
v 0.025491 0.085402 -0.463284
v 0.025491 0.085256 -0.450491
v 0.025030 0.074719 -0.463284
v 0.025030 0.074573 -0.450491
v 0.022301 0.065549 -0.463284
v 0.025030 0.074822 -0.472377
v 0.022379 0.065653 -0.472377
v 0.022192 0.065404 -0.450491
v 0.019025 0.059209 -0.463284
v 0.018372 0.059063 -0.449652
v 0.017185 0.058798 -0.424735
v 0.013609 0.055557 -0.448322
v 0.021992 0.065139 -0.424735
v 0.021918 0.065039 -0.418555
v 0.025030 0.074308 -0.424735
v 0.025491 0.084991 -0.424735
v 0.021915 0.094031 -0.424735
v 0.018675 0.100780 -0.418555
v 0.018094 0.109975 -0.333777
v 0.008539 0.109975 -0.333777
v 0.000000 0.109975 -0.333777
v 0.008814 0.106598 -0.333717
v 0.008814 0.103204 -0.333611
v 0.000000 0.106598 -0.333717
v 0.000000 0.103204 -0.333611
v -0.008814 0.106598 -0.333717
v -0.008814 0.103204 -0.333611
v -0.018675 0.103204 -0.333611
v -0.008814 0.099810 -0.333505
v 0.000000 0.099810 -0.333505
v -0.010343 0.092962 -0.333505
v -0.018675 0.099810 -0.333505
v -0.018675 0.100011 -0.351074
v -0.021915 0.092962 -0.333505
v -0.021915 0.093162 -0.351074
v -0.025491 0.083922 -0.333505
v -0.025491 0.084122 -0.351074
v -0.025030 0.073239 -0.333505
v -0.012030 0.083922 -0.333505
v 0.000000 0.083922 -0.333505
v -0.011813 0.073239 -0.333505
v 0.000000 0.073239 -0.333505
v -0.010158 0.064069 -0.333505
v 0.000000 0.064069 -0.333505
v -0.006791 0.057729 -0.333505
v -0.021523 0.064069 -0.333505
v -0.021523 0.064270 -0.351074
v -0.014388 0.057729 -0.333505
v -0.014388 0.057929 -0.351074
v -0.014388 0.057729 -0.328725
v -0.015636 0.057729 -0.333505
v -0.015636 0.057729 -0.328725
v -0.016883 0.057729 -0.333505
v -0.015636 0.057929 -0.351074
v -0.016883 0.057929 -0.351074
v -0.015636 0.058174 -0.372502
v -0.016883 0.058174 -0.372502
v -0.012329 0.055519 -0.376348
v -0.014388 0.058174 -0.372502
v -0.016741 0.058699 -0.418555
v -0.021523 0.064514 -0.372502
v -0.011934 0.055934 -0.376355
v -0.012923 0.055711 -0.418645
v -0.012119 0.036616 -0.417778
v -0.013110 0.055669 -0.424114
v -0.017185 0.058798 -0.424735
v -0.013609 0.055557 -0.448322
v -0.012217 0.035443 -0.423083
v -0.012784 0.029654 -0.448014
v -0.011324 0.015218 -0.422053
v -0.011315 0.017520 -0.416910
v -0.016751 0.015218 -0.420358
v -0.011959 0.003752 -0.447706
v -0.017387 0.003752 -0.448191
v -0.011959 0.004160 -0.462796
v -0.017387 0.004160 -0.464563
v -0.011959 0.004160 -0.469317
v -0.012922 0.029827 -0.462556
v -0.013884 0.055495 -0.462316
v -0.013019 0.029805 -0.469545
v -0.018438 0.031736 -0.472007
v -0.014079 0.055451 -0.469772
v -0.019489 0.059313 -0.472377
v -0.019489 0.059386 -0.478783
v -0.022379 0.065653 -0.472377
v -0.019025 0.059209 -0.463284
v -0.018372 0.059063 -0.449652
v -0.022301 0.065549 -0.463284
v -0.025030 0.074719 -0.463284
v -0.022192 0.065404 -0.450491
v -0.021992 0.065139 -0.424735
v -0.025030 0.074573 -0.450491
v -0.025030 0.074308 -0.424735
v -0.025491 0.085256 -0.450491
v -0.025491 0.084991 -0.424735
v -0.021915 0.094296 -0.450491
v -0.025491 0.085402 -0.463284
v -0.021915 0.094442 -0.463284
v -0.025491 0.085506 -0.472377
v -0.025491 0.085579 -0.478783
v -0.021915 0.094546 -0.472377
v -0.025030 0.074822 -0.472377
v -0.025030 0.074896 -0.478783
v -0.022379 0.065726 -0.478783
v -0.026977 0.075021 -0.478783
v -0.027057 0.065288 -0.478783
v -0.026964 0.086362 -0.478783
v -0.026977 0.075021 -0.484257
v -0.026977 0.075021 -0.489731
v -0.026964 0.086362 -0.484257
v -0.026964 0.086362 -0.489731
v -0.027070 0.095957 -0.484257
v -0.027070 0.095957 -0.489731
v -0.027167 0.103227 -0.484257
v -0.027070 0.095957 -0.478783
v -0.021915 0.094619 -0.478783
v -0.027167 0.103227 -0.478783
v -0.018675 0.101467 -0.478783
v -0.027167 0.107860 -0.478871
v -0.018675 0.105832 -0.478871
v -0.027167 0.112494 -0.478959
v -0.027167 0.109054 -0.484345
v -0.027167 0.110247 -0.489819
v -0.027167 0.114881 -0.484434
v -0.027167 0.117267 -0.489908
v -0.027185 0.125928 -0.484585
v -0.027185 0.127917 -0.490270
v -0.027202 0.137265 -0.484681
v -0.027185 0.123939 -0.478899
v -0.018094 0.116325 -0.478899
v -0.027202 0.135385 -0.478839
v -0.018675 0.110197 -0.478959
v -0.018675 0.110039 -0.472554
v -0.018675 0.105716 -0.472466
v -0.018675 0.101394 -0.472377
v -0.018675 0.105552 -0.463374
v -0.018675 0.101290 -0.463284
v -0.018675 0.105320 -0.450582
v -0.018675 0.101144 -0.450491
v -0.018675 0.104900 -0.424829
v -0.018675 0.100879 -0.424735
v -0.018675 0.104743 -0.418650
v -0.018675 0.100780 -0.418555
v -0.018675 0.103910 -0.372603
v -0.018675 0.108705 -0.418746
v -0.018675 0.100255 -0.372502
v -0.018675 0.103522 -0.351178
v -0.021915 0.093407 -0.372502
v -0.025491 0.084367 -0.372502
v -0.021915 0.093932 -0.418555
v -0.025491 0.084892 -0.418555
v -0.021915 0.094031 -0.424735
v -0.025030 0.074209 -0.418555
v -0.021918 0.065039 -0.418555
v -0.025030 0.073683 -0.372502
v -0.025030 0.073439 -0.351074
v -0.027202 0.139145 -0.490523
v -0.016634 0.137405 -0.484902
v -0.017865 0.139430 -0.491084
v -0.019077 0.141425 -0.497171
v -0.027202 0.141282 -0.496890
v -0.027202 0.143420 -0.503258
v -0.027185 0.132105 -0.499975
v -0.027185 0.136293 -0.509681
v -0.022689 0.131683 -0.501173
v -0.025099 0.127016 -0.492665
v -0.022680 0.122433 -0.503776
v -0.022680 0.113819 -0.503467
v -0.025081 0.117267 -0.492303
v -0.025081 0.110247 -0.492215
v -0.025081 0.103227 -0.492126
v -0.027167 0.103227 -0.489731
v -0.024984 0.095957 -0.492126
v -0.022680 0.106928 -0.500705
v -0.022632 0.096718 -0.499140
v -0.022578 0.086444 -0.497837
v -0.022585 0.074992 -0.496462
v -0.024877 0.086362 -0.492126
v -0.024891 0.075021 -0.492126
v -0.020279 0.074963 -0.500797
v -0.022625 0.065176 -0.496382
v -0.017387 0.004160 -0.471637
v -0.017387 -0.010466 -0.471637
v -0.017387 -0.017907 -0.471637
v -0.017387 -0.010466 -0.464563
v -0.017387 -0.000064 -0.448191
v -0.017387 -0.017907 -0.464563
v -0.017387 -0.002005 -0.448191
v -0.015187 -0.017930 -0.464563
v -0.012987 -0.017954 -0.464563
v -0.015187 -0.002005 -0.448191
v -0.015187 -0.017930 -0.471637
v -0.012987 -0.017954 -0.471637
v -0.004575 -0.018043 -0.471637
v 0.000000 -0.018091 -0.471637
v -0.004575 -0.018043 -0.464563
v 0.000000 -0.018091 -0.464563
v -0.004575 -0.002005 -0.448191
v 0.000000 -0.002005 -0.448191
v -0.004406 0.011235 -0.420124
v -0.012987 -0.002005 -0.448191
v -0.012505 0.011620 -0.420124
v -0.012505 -0.015113 -0.420124
v -0.014624 0.011721 -0.420124
v -0.014624 -0.015113 -0.420124
v -0.016742 0.011822 -0.420124
v -0.019377 0.011822 -0.420124
v -0.016742 -0.015113 -0.420124
v -0.016742 0.017390 -0.414778
v -0.016745 0.012967 -0.420203
v -0.019377 0.017185 -0.414614
v -0.019377 -0.011247 -0.414614
v -0.019377 0.058174 -0.372502
v -0.019377 0.018297 -0.372502
v -0.019377 0.057929 -0.351074
v -0.019377 0.018053 -0.351074
v -0.019377 0.057729 -0.333505
v -0.019377 0.017853 -0.333505
v -0.019377 0.057729 -0.328725
v -0.016883 0.057729 -0.328725
v -0.019377 0.017853 -0.327046
v -0.016875 0.017853 -0.327046
v -0.019377 0.008609 -0.322852
v -0.019377 0.006708 -0.327038
v -0.016875 0.008609 -0.322852
v -0.016742 0.006708 -0.327038
v -0.015624 0.008609 -0.322852
v -0.014373 0.008609 -0.322852
v -0.015624 0.017853 -0.327046
v -0.014624 0.006708 -0.327038
v -0.012505 0.006708 -0.327038
v -0.014624 0.001727 -0.338444
v -0.012505 0.001727 -0.338444
v -0.014624 0.018053 -0.351074
v -0.016742 0.001727 -0.338444
v -0.019377 0.001727 -0.338444
v -0.016742 0.018053 -0.351074
v -0.016742 0.018217 -0.372502
v -0.016742 -0.011257 -0.414614
v -0.014624 0.018152 -0.372502
v -0.014624 -0.011264 -0.414614
v -0.012505 0.018087 -0.372502
v -0.004406 0.017838 -0.372502
v -0.012505 -0.011272 -0.414614
v -0.012505 0.018053 -0.351074
v -0.004406 0.018053 -0.351074
v 0.000000 0.018053 -0.351074
v -0.004406 0.001727 -0.338444
v 0.000000 0.001727 -0.338444
v -0.004406 0.006708 -0.327038
v 0.000000 0.006708 -0.327038
v -0.006783 0.008609 -0.322852
v 0.000000 0.008609 -0.322852
v -0.006783 0.017853 -0.327046
v 0.000000 0.017853 -0.327046
v -0.006791 0.057729 -0.328725
v -0.014373 0.017853 -0.327046
v 0.000000 0.057729 -0.328725
v 0.006791 0.057729 -0.328725
v 0.000000 0.057729 -0.333505
v 0.006791 0.057729 -0.333505
v 0.010158 0.064069 -0.333505
v 0.011813 0.073239 -0.333505
v 0.012030 0.083922 -0.333505
v 0.010343 0.092962 -0.333505
v 0.025491 0.083922 -0.333505
v 0.000000 0.092962 -0.333505
v 0.008814 0.099810 -0.333505
v 0.006783 0.017853 -0.327046
v 0.014388 0.057729 -0.328725
v 0.015636 0.057729 -0.328725
v 0.014373 0.017853 -0.327046
v 0.015624 0.017853 -0.327046
v 0.014373 0.008609 -0.322852
v 0.015624 0.008609 -0.322852
v 0.006783 0.008609 -0.322852
v 0.012505 0.006708 -0.327038
v 0.012505 0.001727 -0.338444
v 0.004406 0.006708 -0.327038
v 0.014624 0.006708 -0.327038
v 0.014624 0.001727 -0.338444
v 0.016742 0.006708 -0.327038
v 0.019377 0.006708 -0.327038
v 0.016742 0.001727 -0.338444
v 0.016875 0.008609 -0.322852
v 0.019377 0.008609 -0.322852
v 0.016875 0.017853 -0.327046
v 0.016883 0.057729 -0.328725
v 0.019377 0.017853 -0.327046
v 0.019377 0.057729 -0.328725
v 0.019377 0.017853 -0.333505
v 0.019377 0.057729 -0.333505
v 0.019377 0.018053 -0.351074
v 0.019377 0.057929 -0.351074
v 0.019377 0.018297 -0.372502
v 0.019377 0.001727 -0.338444
v 0.016742 0.018053 -0.351074
v 0.016742 0.018217 -0.372502
v 0.014624 0.018053 -0.351074
v 0.012505 0.018053 -0.351074
v 0.014624 0.018152 -0.372502
v 0.014624 -0.011264 -0.414614
v 0.012505 0.018087 -0.372502
v 0.004406 0.017838 -0.372502
v 0.012505 -0.011272 -0.414614
v 0.004406 -0.011300 -0.414614
v 0.012505 -0.015113 -0.420124
v 0.004406 -0.015113 -0.420124
v 0.012505 0.011620 -0.420124
v 0.014624 -0.015113 -0.420124
v 0.014624 0.011721 -0.420124
v 0.016742 -0.015113 -0.420124
v 0.016742 -0.011257 -0.414614
v 0.019377 -0.015113 -0.420124
v 0.016742 0.011822 -0.420124
v 0.019377 0.011822 -0.420124
v 0.016742 0.017390 -0.414778
v 0.016745 0.012967 -0.420203
v 0.017387 -0.002005 -0.448191
v 0.017387 -0.000064 -0.448191
v 0.017387 -0.017907 -0.464563
v 0.015187 -0.002005 -0.448191
v 0.015187 -0.017930 -0.464563
v 0.012987 -0.002005 -0.448191
v 0.004575 -0.002005 -0.448191
v 0.012987 -0.017954 -0.464563
v 0.012987 -0.017954 -0.471637
v 0.004575 -0.018043 -0.464563
v 0.004575 -0.018043 -0.471637
v 0.004575 -0.017970 -0.478044
v 0.000000 -0.018018 -0.478044
v 0.007159 -0.020525 -0.478044
v 0.012987 -0.017881 -0.478044
v 0.020322 -0.020513 -0.478044
v 0.015187 -0.017857 -0.478044
v 0.015187 -0.017930 -0.471637
v 0.023764 -0.020510 -0.478044
v 0.017387 -0.017907 -0.471637
v 0.004406 0.011235 -0.420124
v 0.000000 0.011025 -0.420124
v 0.000000 -0.015113 -0.420124
v 0.000000 -0.011316 -0.414614
v -0.004406 -0.015113 -0.420124
v -0.004406 -0.011300 -0.414614
v 0.000000 0.017703 -0.372502
v 0.017387 -0.010466 -0.464563
v 0.019377 0.017185 -0.414614
v 0.019377 -0.011247 -0.414614
v 0.019377 0.058174 -0.372502
v 0.004406 0.018053 -0.351074
v 0.004406 0.001727 -0.338444
v 0.016883 0.057929 -0.351074
v 0.016883 0.057729 -0.333505
v 0.015636 0.057729 -0.333505
v -0.019377 -0.015113 -0.420124
v -0.017387 -0.017834 -0.478044
v -0.012723 0.055105 -0.376340
v 0.006787 0.127599 -0.515249
v 0.006787 0.117390 -0.514719
v 0.006787 0.110628 -0.509283
v 0.006787 0.097478 -0.506154
v 0.020279 0.097478 -0.506154
v 0.020279 0.059043 -0.500540
v 0.006787 0.059043 -0.500540
v -0.020322 -0.020513 -0.488992
v -0.025120 -0.016772 -0.491387
v -0.027206 0.000014 -0.488992
v -0.012636 0.119734 -0.351462
vn 0.1688 0.6629 0.7294
vn 0.3755 0.6405 0.6699
vn 0.5127 0.8558 0.0687
vn 0.2484 0.9652 0.0819
vn 0.6774 0.3388 0.6529
vn 0.9001 0.4346 0.0304
vn 0.0011 0.0187 0.9998
vn -0.0000 0.7322 0.6811
vn -0.0000 0.9964 0.0846
vn -0.0000 0.0170 0.9999
vn -0.1688 0.6629 0.7294
vn -0.0011 0.0187 0.9998
vn -0.2484 0.9652 0.0819
vn -0.5127 0.8558 0.0687
vn -0.3755 0.6405 0.6699
vn -0.6774 0.3388 0.6529
vn -0.0000 0.0178 0.9998
vn -0.6943 0.1265 0.7085
vn -0.9001 0.4346 0.0304
vn -0.9880 0.1545 0.0068
vn -0.7230 0.0741 0.6869
vn -0.0000 0.0245 0.9997
vn -0.9970 0.0776 0.0027
vn -0.9906 0.1369 0.0060
vn -0.9976 0.0687 0.0024
vn -0.9146 0.4034 0.0283
vn -0.9927 0.1203 0.0063
vn -0.9982 0.0601 0.0025
vn -0.9288 0.3693 0.0310
vn -0.5567 0.8270 0.0780
vn -0.5348 0.8423 0.0678
vn -0.5650 0.8217 0.0748
vn -0.9352 0.3530 0.0290
vn -0.9938 0.1107 0.0056
vn -0.5794 0.8126 0.0631
vn -0.9415 0.3362 0.0225
vn -0.9945 0.1044 0.0043
vn -0.9986 0.0522 0.0017
vn -0.9984 0.0557 0.0022
vn -0.9950 0.0994 0.0044
vn -0.9988 0.0498 0.0017
vn -0.9454 0.3251 0.0229
vn -0.9953 0.0965 0.0042
vn -0.9988 0.0483 0.0017
vn -0.9478 0.3181 0.0225
vn -0.5931 0.8025 0.0650
vn -0.5883 0.8060 0.0652
vn -0.6108 0.2003 0.7660
vn -0.7044 0.0624 0.7071
vn -0.3409 0.4603 0.8197
vn -0.1689 0.6561 0.7355
vn -0.0000 0.6087 0.7934
vn 0.1689 0.6561 0.7355
vn 0.2212 0.2816 0.9337
vn -0.0000 -0.0000 1.0000
vn -0.2212 0.2816 0.9337
vn -0.0061 0.5840 0.8117
vn -0.7089 0.6747 0.2054
vn -0.0037 0.9506 0.3103
vn -0.6677 0.1995 0.7172
vn -0.6317 0.6121 0.4757
vn -0.0000 0.0306 0.9995
vn -0.0000 0.2621 0.9651
vn 0.6677 0.1995 0.7172
vn 0.6317 0.6121 0.4757
vn -0.0000 0.7840 0.6208
vn -0.0000 0.9993 -0.0374
vn -0.6440 0.7641 -0.0376
vn 0.6440 0.7641 -0.0376
vn -0.7083 0.6748 0.2073
vn -0.6717 0.6493 -0.3567
vn -0.7075 0.6763 0.2049
vn -0.0000 0.8824 -0.4706
vn -0.6663 0.5275 -0.5270
vn -0.2176 0.8055 -0.5512
vn -0.0000 0.7137 -0.7004
vn 0.6717 0.6493 -0.3567
vn 0.6663 0.5275 -0.5270
vn 0.7075 0.6763 0.2049
vn 0.2176 0.8055 -0.5512
vn 0.7083 0.6748 0.2073
vn -0.0000 0.6416 -0.7671
vn -0.0000 0.6068 -0.7948
vn 0.0019 0.9669 -0.2550
vn 0.3252 0.3666 -0.8717
vn 0.0031 0.9497 0.3133
vn -0.0031 0.9497 0.3133
vn -0.0019 0.9669 -0.2550
vn -0.3252 0.3666 -0.8717
vn -0.0000 0.2546 -0.9671
vn -0.5764 0.2037 -0.7913
vn -0.0000 -0.3565 -0.9343
vn -0.5660 -0.2743 -0.7774
vn -0.0000 -0.4398 -0.8981
vn -0.6200 -0.3452 -0.7045
vn -0.0000 -0.2315 -0.9728
vn -0.5790 -0.1817 -0.7949
vn -0.5554 -0.1811 -0.8116
vn -0.0000 -0.1246 -0.9922
vn -0.5428 -0.0960 -0.8344
vn -0.0000 -0.0162 -0.9999
vn -0.5088 -0.0114 -0.8608
vn -0.5036 -0.0122 -0.8639
vn -0.4995 -0.0136 -0.8662
vn -0.0000 -0.2225 -0.9749
vn -0.0074 -0.2274 -0.9738
vn -0.4250 -0.2014 -0.8825
vn 0.0074 -0.2274 -0.9738
vn 0.0271 -0.2159 -0.9760
vn -0.0000 -0.2055 -0.9787
vn -0.0271 -0.2159 -0.9760
vn 0.0296 -0.4242 -0.9051
vn -0.0000 -0.4247 -0.9054
vn -0.0296 -0.4242 -0.9051
vn -0.1055 -0.3947 -0.9128
vn -0.2517 -0.2087 -0.9451
vn -0.1928 -0.3482 -0.9174
vn -0.4753 -0.1239 -0.8711
vn -0.7716 -0.1250 -0.6237
vn -0.4428 -0.2172 -0.8699
vn -0.6353 -0.0344 -0.7715
vn -0.7615 -0.0355 -0.6472
vn -0.8653 -0.0067 -0.5012
vn -0.8133 -0.0068 -0.5817
vn -0.8162 0.0007 -0.5778
vn -0.8700 -0.0022 -0.4930
vn -0.9362 0.0043 -0.3515
vn -0.9365 -0.0034 -0.3507
vn -0.9370 -0.0017 -0.3494
vn -0.8198 0.0065 -0.5727
vn -0.8760 0.0009 -0.4822
vn -0.9364 0.0098 -0.3508
vn -0.9999 0.0105 -0.0000
vn -1.0000 0.0070 -0.0000
vn -1.0000 0.0011 -0.0000
vn -0.7065 0.0074 0.7076
vn -0.7103 0.0098 0.7038
vn -0.7085 0.0099 0.7057
vn -1.0000 0.0005 -0.0000
vn -0.7064 0.0038 0.7078
vn -0.7259 -0.1689 0.6667
vn -0.7082 -0.0178 0.7058
vn -0.7139 -0.0081 0.7002
vn -0.7071 -0.0000 0.7071
vn -1.0000 -0.0000 -0.0000
vn -0.5776 -0.5771 0.5774
vn -0.3079 -0.3024 0.9021
vn -0.7074 -0.7068 -0.0000
vn -0.9365 -0.0000 -0.3507
vn -0.6480 -0.6444 -0.4061
vn -0.0557 -0.8966 -0.4394
vn -0.0009 -1.0000 -0.0000
vn -0.0006 -0.7071 0.7071
vn -0.0333 -0.9245 -0.3798
vn -0.0075 -0.7111 0.7031
vn -0.0000 -0.7073 0.7069
vn -0.0000 -0.7087 0.7055
vn -0.0000 -1.0000 -0.0000
vn -0.0084 -0.9410 -0.3382
vn -0.0000 -0.9454 -0.3258
vn 0.0006 -0.7071 0.7071
vn 0.0009 -1.0000 -0.0000
vn 0.0084 -0.9410 -0.3382
vn 0.0333 -0.9245 -0.3798
vn 0.1055 -0.3947 -0.9128
vn 0.0557 -0.8966 -0.4394
vn 0.1928 -0.3482 -0.9174
vn 0.7074 -0.7068 -0.0000
vn 0.6480 -0.6444 -0.4061
vn 0.4428 -0.2172 -0.8699
vn 1.0000 -0.0000 -0.0000
vn 0.9365 -0.0000 -0.3507
vn 0.6353 -0.0344 -0.7715
vn 0.4753 -0.1239 -0.8711
vn 0.9370 -0.0017 -0.3494
vn 0.7615 -0.0355 -0.6472
vn 0.7716 -0.1250 -0.6237
vn 0.2517 -0.2087 -0.9451
vn 0.4250 -0.2014 -0.8825
vn 0.4995 -0.0136 -0.8662
vn 0.8653 -0.0068 -0.5012
vn 0.8133 -0.0068 -0.5817
vn 0.5036 -0.0122 -0.8639
vn 0.8700 -0.0022 -0.4930
vn 0.8162 0.0007 -0.5778
vn 0.9365 -0.0034 -0.3507
vn 0.9362 0.0043 -0.3515
vn 0.9364 0.0098 -0.3508
vn 0.8198 0.0065 -0.5727
vn 0.8760 0.0009 -0.4822
vn 0.9364 0.0044 -0.3509
vn 0.8311 -0.0035 -0.5561
vn 0.8944 -0.0241 -0.4467
vn 0.5088 -0.0114 -0.8608
vn 0.5428 -0.0960 -0.8344
vn 0.5554 -0.1811 -0.8116
vn 0.9231 -0.0490 -0.3813
vn 0.8504 -0.0157 -0.5258
vn 0.5790 -0.1817 -0.7949
vn 0.9445 -0.0489 -0.3248
vn 0.8659 -0.0212 -0.4998
vn 0.9363 -0.0047 -0.3511
vn 0.9364 -0.0115 -0.3507
vn 0.9371 -0.0084 -0.3489
vn 0.8758 -0.0257 -0.4820
vn 0.9562 -0.0691 -0.2846
vn 0.9365 -0.0044 -0.3507
vn 0.8880 -0.0213 -0.4593
vn 0.9665 -0.0737 -0.2460
vn 0.6200 -0.3452 -0.7045
vn 0.5660 -0.2743 -0.7774
vn 0.5764 0.2037 -0.7913
vn 0.9776 0.0226 -0.2094
vn 0.8930 -0.0057 -0.4500
vn 0.7512 -0.5124 -0.4162
vn 0.8026 -0.3356 -0.4932
vn 0.9375 -0.0092 -0.3480
vn 0.9651 -0.1403 -0.2213
vn 0.7977 -0.5336 -0.2811
vn 1.0000 -0.0016 -0.0006
vn 1.0000 -0.0008 -0.0003
vn 0.7099 0.6698 0.2180
vn 0.7120 0.6670 0.2194
vn 0.7097 0.6685 0.2221
vn 0.5851 -0.1526 -0.7965
vn 0.6038 0.7708 -0.2032
vn 0.0045 0.9501 0.3118
vn 0.0037 0.9506 0.3103
vn 0.7089 0.6747 0.2054
vn 0.0061 0.5840 0.8117
vn 0.5987 0.4697 0.6488
vn 0.3409 0.4603 0.8197
vn 0.6108 0.2003 0.7660
vn 0.5931 0.8025 0.0650
vn 0.9478 0.3181 0.0225
vn 0.9953 0.0965 0.0042
vn 0.7044 0.0624 0.7071
vn 0.7095 -0.0058 0.7047
vn 0.9988 0.0483 0.0017
vn 0.6907 0.0396 0.7220
vn 0.7098 0.0026 0.7044
vn 0.7055 0.0139 0.7086
vn 0.7054 0.0139 0.7086
vn 0.7056 0.0031 0.7086
vn 1.0000 -0.0067 -0.0000
vn 0.9999 -0.0122 -0.0000
vn 0.7068 -0.0086 0.7074
vn 0.7325 0.1691 0.6594
vn 0.6403 0.2779 0.7161
vn 0.9757 0.2192 0.0025
vn 0.9174 0.3979 0.0045
vn 0.9861 0.1660 0.0019
vn 0.6433 0.1093 0.7578
vn 0.7057 -0.0035 0.7085
vn 0.9867 -0.1625 -0.0008
vn 0.6701 -0.1091 0.7343
vn 0.7063 0.0033 0.7079
vn 1.0000 0.0047 -0.0000
vn 1.0000 -0.0050 -0.0000
vn 0.7065 0.0074 0.7076
vn 0.9999 0.0105 -0.0000
vn 1.0000 0.0070 -0.0000
vn 0.7103 0.0098 0.7038
vn 0.6484 -0.2397 0.7226
vn 0.7259 -0.1689 0.6667
vn 0.7082 -0.0178 0.7058
vn 0.7085 0.0099 0.7057
vn 1.0000 0.0011 -0.0000
vn 0.7064 0.0038 0.7078
vn 1.0000 0.0005 -0.0000
vn 0.7139 -0.0081 0.7002
vn 0.7071 -0.0000 0.7071
vn 0.5776 -0.5771 0.5774
vn 0.3079 -0.3025 0.9021
vn 0.9458 0.1942 0.2604
vn 0.7096 -0.7046 -0.0040
vn 0.8418 -0.0264 0.5392
vn 0.7051 0.7091 0.0074
vn 0.6799 0.5892 0.4365
vn 0.7242 0.6894 0.0152
vn 0.8363 -0.0270 0.5476
vn 0.9104 -0.3853 0.1508
vn 0.8105 -0.3694 0.4545
vn 0.8831 -0.4688 0.0201
vn 0.9992 -0.0370 0.0115
vn 0.8856 -0.4639 0.0211
vn 0.9992 -0.0355 0.0204
vn 0.6814 0.7183 -0.1403
vn 0.7661 0.6345 -0.1030
vn 0.7410 0.6212 -0.2550
vn 0.7550 0.6076 -0.2465
vn 0.9988 -0.0391 0.0289
vn 0.1849 0.7528 -0.6318
vn 0.7466 0.5684 -0.3458
vn 0.9994 -0.0313 0.0151
vn 0.8875 -0.4598 0.0291
vn 0.8938 -0.4476 0.0265
vn 0.9464 -0.2048 -0.2497
vn 0.7767 0.4632 -0.4268
vn 0.5771 0.5813 -0.5736
vn 0.9193 0.0943 -0.3820
vn 0.0993 0.9284 -0.3580
vn 0.0653 0.9274 -0.3684
vn 0.9348 0.3553 0.0041
vn -0.0000 0.9999 0.0114
vn 0.8355 -0.5496 0.0003
vn 0.8226 -0.5686 -0.0065
vn 0.8643 -0.5028 0.0095
vn 0.6894 -0.7241 0.0219
vn 0.2352 0.8027 0.5481
vn -0.0000 1.0000 0.0057
vn 0.6210 -0.4305 0.6550
vn 0.9792 -0.2028 -0.0023
vn 0.7251 -0.1510 0.6719
vn 0.9802 -0.1981 -0.0012
vn 0.7377 0.1231 0.6638
vn 0.9862 0.1657 0.0023
vn 0.9822 -0.1881 -0.0001
vn 0.9174 0.3979 0.0055
vn 0.9756 0.2195 0.0030
vn 0.6539 0.2835 0.7015
vn 0.6282 0.1540 0.7627
vn 0.7071 0.0220 0.7068
vn 0.9970 0.0776 0.0027
vn 0.7230 0.0741 0.6869
vn 0.9976 0.0687 0.0024
vn 0.9880 0.1545 0.0068
vn 0.6943 0.1265 0.7085
vn 0.9906 0.1369 0.0060
vn 0.9927 0.1203 0.0063
vn 0.9982 0.0601 0.0025
vn 0.9938 0.1107 0.0056
vn 0.9984 0.0557 0.0022
vn 0.9945 0.1044 0.0043
vn 0.9986 0.0522 0.0017
vn 0.9758 0.2188 0.0029
vn 0.9757 0.2192 0.0024
vn 0.9988 0.0498 0.0017
vn 0.9950 0.0994 0.0044
vn 0.9454 0.3251 0.0229
vn 0.9415 0.3362 0.0225
vn 0.5883 0.8060 0.0652
vn 0.5794 0.8126 0.0631
vn 0.2446 0.9663 0.0801
vn 0.2406 0.9666 0.0883
vn 0.5650 0.8217 0.0748
vn 0.9352 0.3530 0.0290
vn -0.0000 0.9961 0.0877
vn -0.0000 0.9965 0.0836
vn -0.2446 0.9663 0.0801
vn -0.2406 0.9666 0.0883
vn -0.0000 0.9961 0.0887
vn -0.2444 0.9655 0.0902
vn 0.2444 0.9655 0.0902
vn 0.5348 0.8423 0.0678
vn 0.5567 0.8270 0.0780
vn 0.9146 0.4034 0.0283
vn 0.9288 0.3693 0.0310
vn 0.9174 0.3979 0.0043
vn 0.9861 0.1659 0.0018
vn 0.9851 -0.1719 0.0001
vn 0.9862 -0.1658 0.0002
vn 0.9106 -0.4131 0.0096
vn 0.9266 -0.3758 0.0109
vn 0.9353 -0.3538 0.0037
vn 0.7575 -0.6525 0.0205
vn 0.7354 -0.6774 0.0183
vn 0.7148 -0.6990 0.0218
vn 0.8898 -0.4562 0.0103
vn 0.9839 -0.1787 -0.0000
vn 0.9861 0.1664 0.0022
vn 0.9174 0.3980 0.0052
vn -0.0000 0.0312 0.9995
vn -0.7071 0.0220 0.7068
vn -0.0000 0.0156 0.9999
vn -0.6282 0.1540 0.7627
vn -0.6539 0.2835 0.7015
vn -0.9757 0.2192 0.0025
vn -0.9174 0.3979 0.0045
vn -0.9861 0.1660 0.0019
vn -0.7377 0.1231 0.6638
vn -0.9792 -0.2028 -0.0023
vn -0.7251 -0.1510 0.6719
vn -0.6210 -0.4305 0.6550
vn -0.0000 0.7071 0.7071
vn -0.2352 0.8027 0.5481
vn -0.8226 -0.5686 -0.0065
vn -0.9348 0.3553 0.0041
vn -0.0000 0.7218 0.6921
vn -0.0993 0.9284 -0.3580
vn -0.0653 0.9274 -0.3684
vn -0.9193 0.0943 -0.3820
vn -0.7767 0.4632 -0.4268
vn -0.5771 0.5813 -0.5736
vn -0.9464 -0.2048 -0.2497
vn -0.6894 -0.7241 0.0219
vn -0.8938 -0.4476 0.0265
vn -0.8643 -0.5028 0.0095
vn -0.8355 -0.5496 0.0003
vn -0.9994 -0.0313 0.0151
vn -0.9988 -0.0391 0.0289
vn -0.8875 -0.4598 0.0291
vn -0.7148 -0.6990 0.0218
vn -0.7354 -0.6774 0.0183
vn -0.8856 -0.4639 0.0211
vn -0.9992 -0.0355 0.0204
vn -0.7550 0.6076 -0.2465
vn -0.7466 0.5684 -0.3458
vn -0.6814 0.7183 -0.1403
vn -0.1849 0.7528 -0.6318
vn -0.7410 0.6212 -0.2550
vn -0.7661 0.6345 -0.1030
vn -0.7242 0.6894 0.0152
vn -0.7051 0.7091 0.0074
vn -0.9992 -0.0370 0.0115
vn -0.6799 0.5892 0.4365
vn -0.9458 0.1942 0.2604
vn -0.8363 -0.0270 0.5476
vn -0.8831 -0.4688 0.0201
vn -0.8105 -0.3694 0.4545
vn -0.8418 -0.0264 0.5392
vn -0.9104 -0.3853 0.1508
vn -0.7575 -0.6525 0.0205
vn -0.6484 -0.2397 0.7226
vn -0.9353 -0.3538 0.0037
vn -0.9266 -0.3758 0.0109
vn -0.9106 -0.4131 0.0096
vn -0.9867 -0.1625 -0.0008
vn -0.9862 -0.1658 0.0002
vn -0.9851 -0.1719 0.0001
vn -0.8898 -0.4562 0.0103
vn -0.9839 -0.1787 -0.0000
vn -0.9861 0.1659 0.0018
vn -0.9861 0.1664 0.0022
vn -0.9174 0.3979 0.0043
vn -0.9174 0.3980 0.0052
vn -0.6433 0.1093 0.7578
vn -0.6701 -0.1091 0.7343
vn -0.6403 0.2779 0.7161
vn -0.7057 -0.0035 0.7085
vn -0.7063 0.0033 0.7079
vn -1.0000 0.0047 -0.0000
vn -1.0000 -0.0050 -0.0000
vn -0.9363 -0.0047 -0.3511
vn -0.9364 0.0044 -0.3509
vn -0.9999 -0.0122 -0.0000
vn -0.9364 -0.0115 -0.3507
vn -0.7068 -0.0086 0.7074
vn -1.0000 -0.0067 -0.0000
vn -0.9371 -0.0084 -0.3489
vn -0.7056 0.0031 0.7086
vn -0.7325 0.1691 0.6594
vn -0.7055 0.0139 0.7086
vn -0.7054 0.0139 0.7086
vn -0.6907 0.0396 0.7220
vn -0.7098 0.0026 0.7044
vn -1.0000 -0.0008 -0.0003
vn -0.9375 -0.0092 -0.3480
vn -0.9365 -0.0044 -0.3507
vn -1.0000 -0.0016 -0.0006
vn -0.9651 -0.1403 -0.2213
vn -0.7095 -0.0058 0.7047
vn -0.7099 0.6698 0.2180
vn -0.7120 0.6670 0.2194
vn -0.5987 0.4697 0.6488
vn -0.9757 0.2192 0.0024
vn -0.9758 0.2188 0.0029
vn -0.9756 0.2195 0.0030
vn -0.9174 0.3979 0.0055
vn -0.9862 0.1657 0.0023
vn -0.9822 -0.1881 -0.0001
vn -0.9802 -0.1981 -0.0012
vn -0.0045 0.9501 0.3118
vn -0.7097 0.6685 0.2221
vn -0.6038 0.7708 -0.2032
vn -0.5851 -0.1526 -0.7965
vn -0.7977 -0.5336 -0.2811
vn -0.7512 -0.5124 -0.4162
vn -0.8026 -0.3356 -0.4932
vn -0.8930 -0.0057 -0.4500
vn -0.9776 0.0226 -0.2094
vn -0.8880 -0.0213 -0.4593
vn -0.9665 -0.0737 -0.2460
vn -0.8758 -0.0257 -0.4820
vn -0.9562 -0.0691 -0.2846
vn -0.8659 -0.0212 -0.4998
vn -0.9445 -0.0489 -0.3248
vn -0.8504 -0.0157 -0.5258
vn -0.9231 -0.0490 -0.3813
vn -0.8311 -0.0035 -0.5561
vn -0.8944 -0.0241 -0.4467
vn -0.7096 -0.7046 -0.0040
vn -0.6342 -0.7161 0.2915
vn -0.9999 -0.0002 0.0116
vn -0.7482 -0.5393 0.3864
vn -0.0078 -0.9265 0.3763
vn -0.0125 -0.8176 0.5756
vn -0.0106 -0.9999 -0.0057
vn -0.0078 -0.9262 0.3769
vn -0.0126 -0.8187 0.5741
vn -0.0078 -0.9259 0.3778
vn -0.0000 -1.0000 -0.0057
vn -0.0000 -0.9261 0.3774
vn -0.0000 -0.8215 0.5703
vn -0.0126 -0.8204 0.5716
vn -0.0000 -0.8364 -0.5482
vn -0.0197 -0.8447 -0.5349
vn -0.0198 -0.8468 -0.5315
vn -0.0198 -0.8482 -0.5294
vn -0.0016 -0.8858 -0.4640
vn -0.0016 -0.8864 -0.4629
vn -0.0016 -0.8867 -0.4623
vn -0.6405 -0.0676 -0.7649
vn -0.0016 -0.8870 -0.4618
vn -0.6404 0.2925 -0.7102
vn -0.7247 0.4902 -0.4843
vn -0.5525 -0.7394 -0.3847
vn -0.9999 -0.0015 0.0129
vn -0.6431 0.7114 -0.2832
vn -0.7098 -0.5768 0.4042
vn -0.7883 -0.5879 0.1813
vn -0.8211 -0.5112 -0.2539
vn -0.7071 0.7071 0.0081
vn -0.7084 0.7058 0.0040
vn -0.7527 0.1527 0.6404
vn -0.5796 0.5882 0.5640
vn -0.0000 0.2319 0.9727
vn -0.5774 -0.2871 0.7644
vn -0.0000 -0.3516 0.9362
vn -0.7055 -0.6474 0.2884
vn -0.0000 -0.9135 0.4069
vn -0.0000 -0.9688 -0.2477
vn -0.0085 -0.8967 -0.4426
vn -0.0085 -0.8978 -0.4403
vn -0.0085 -0.8960 -0.4440
vn -0.5914 -0.7812 -0.1997
vn -0.0154 -0.9548 0.2969
vn -0.0154 -0.9545 0.2979
vn -0.0077 -0.8192 0.5734
vn -0.0077 -0.8198 0.5726
vn -0.0078 -0.8207 0.5713
vn -0.0154 -0.9539 0.2997
vn -0.0154 -0.9531 0.3024
vn -0.0086 -0.8996 -0.4366
vn -0.0078 -0.8221 0.5693
vn -0.0000 -0.9522 0.3055
vn -0.0000 -0.9006 -0.4346
vn 0.7055 -0.6474 0.2884
vn 0.5774 -0.2871 0.7644
vn 0.5914 -0.7812 -0.1997
vn 0.7527 0.1527 0.6404
vn 0.5796 0.5882 0.5640
vn 0.7084 0.7058 0.0040
vn 0.7071 0.7071 0.0081
vn 0.8211 -0.5112 -0.2539
vn 0.6431 0.7114 -0.2832
vn 0.7883 -0.5879 0.1813
vn 0.0085 -0.8960 -0.4440
vn 0.0154 -0.9548 0.2969
vn 0.0085 -0.8967 -0.4426
vn 0.0154 -0.9545 0.2979
vn 0.0085 -0.8978 -0.4403
vn 0.0154 -0.9539 0.2997
vn 0.0077 -0.8192 0.5734
vn 0.0077 -0.8198 0.5726
vn 0.0078 -0.8207 0.5713
vn 0.0086 -0.8996 -0.4366
vn 0.0154 -0.9531 0.3024
vn 0.0078 -0.8221 0.5693
vn 0.0016 -0.8864 -0.4630
vn 0.0016 -0.8858 -0.4640
vn 0.0016 -0.8867 -0.4623
vn 0.0198 -0.8468 -0.5315
vn 0.0197 -0.8447 -0.5349
vn 0.0198 -0.8482 -0.5294
vn 0.6405 -0.0676 -0.7649
vn 0.0016 -0.8870 -0.4618
vn 0.5525 -0.7394 -0.3847
vn 0.7098 -0.5768 0.4042
vn 0.6404 0.2925 -0.7102
vn 0.7247 0.4902 -0.4843
vn 0.9999 -0.0015 0.0129
vn 0.7482 -0.5393 0.3864
vn 0.9999 -0.0002 0.0116
vn 0.0125 -0.8176 0.5756
vn 0.6342 -0.7161 0.2915
vn 0.0078 -0.9265 0.3763
vn 0.0126 -0.8187 0.5741
vn 0.0078 -0.9262 0.3769
vn 0.0126 -0.8204 0.5716
vn 0.0078 -0.9259 0.3778
vn 0.0106 -0.9999 -0.0057
vn 0.0075 -0.7111 0.7031
vn -0.0000 -0.8855 -0.4646
vn -0.0000 -0.8229 0.5682
vt 0.752367 0.765099
vt 0.746369 0.765139
vt 0.746369 0.749369
vt 0.752367 0.749329
vt 0.330142 0.009866
vt 0.345881 0.011223
vt 0.345993 0.015638
vt 0.330229 0.014627
vt 0.233074 0.723495
vt 0.231005 0.729440
vt 0.222691 0.729440
vt 0.227074 0.725038
vt 0.757729 0.765063
vt 0.757729 0.749293
vt 0.238435 0.722115
vt 0.238436 0.729440
vt 0.243797 0.723495
vt 0.245866 0.729440
vt 0.763091 0.749329
vt 0.763091 0.765099
vt 0.769091 0.749370
vt 0.769091 0.765140
vt 0.249796 0.725038
vt 0.254180 0.729440
vt 0.246113 0.732476
vt 0.238436 0.732476
vt 0.254703 0.732476
vt 0.330229 0.252326
vt 0.330266 0.248991
vt 0.346044 0.248275
vt 0.345993 0.251312
vt 0.330141 0.257079
vt 0.345879 0.255718
vt 0.255226 0.735512
vt 0.246360 0.735512
vt 0.330304 0.245655
vt 0.346095 0.245238
vt 0.311024 0.249863
vt 0.311045 0.246163
vt 0.311003 0.253564
vt 0.269667 0.251739
vt 0.269652 0.247254
vt 0.269681 0.256223
vt 0.269694 0.262306
vt 0.310947 0.258739
vt 0.264167 0.262977
vt 0.264141 0.256722
vt 0.264119 0.252089
vt 0.241087 0.264780
vt 0.241026 0.258068
vt 0.240987 0.253039
vt 0.240948 0.248011
vt 0.264098 0.247457
vt 0.229498 0.253560
vt 0.229449 0.248314
vt 0.229547 0.258806
vt 0.221333 0.253931
vt 0.221277 0.248530
vt 0.221389 0.259331
vt 0.221482 0.266476
vt 0.229626 0.265771
vt 0.215640 0.259701
vt 0.215579 0.254192
vt 0.215743 0.266972
vt 0.763091 0.640449
vt 0.763091 0.634698
vt 0.769091 0.634739
vt 0.769091 0.640490
vt 0.763091 0.648610
vt 0.769091 0.648651
vt 0.757729 0.640412
vt 0.757729 0.634662
vt 0.757729 0.648573
vt 0.752367 0.640448
vt 0.752367 0.634698
vt 0.752367 0.648609
vt 0.239979 0.638383
vt 0.245341 0.637003
vt 0.245320 0.639834
vt 0.239979 0.639851
vt 0.234638 0.639834
vt 0.234617 0.637003
vt 0.226130 0.639815
vt 0.228618 0.635459
vt 0.916906 0.958980
vt 0.908398 0.958978
vt 0.908290 0.953375
vt 0.918013 0.953377
vt 0.968004 0.358559
vt 0.959169 0.355369
vt 0.955058 0.351001
vt 0.968004 0.352713
vt 0.425687 0.962553
vt 0.431028 0.962553
vt 0.431028 0.971942
vt 0.425687 0.971942
vt 0.436369 0.962553
vt 0.436369 0.971942
vt 0.436265 0.977210
vt 0.431033 0.977210
vt 0.425800 0.977210
vt 0.334855 0.371089
vt 0.340088 0.371089
vt 0.340089 0.377215
vt 0.334965 0.377215
vt 0.345321 0.371089
vt 0.345214 0.377215
vt 0.955358 0.344698
vt 0.968004 0.346866
vt 0.959165 0.339781
vt 0.968004 0.341108
vt 0.340088 0.383014
vt 0.335070 0.383014
vt 0.962819 0.337183
vt 0.968004 0.335350
vt 0.340086 0.386547
vt 0.335175 0.386547
vt 0.345105 0.383014
vt 0.344997 0.386547
vt 0.968116 0.019510
vt 0.968116 0.025268
vt 0.962930 0.023435
vt 0.959276 0.020837
vt 0.968116 0.013752
vt 0.955469 0.015920
vt 0.544103 0.122221
vt 0.544014 0.126550
vt 0.539104 0.126540
vt 0.539193 0.122212
vt 0.545053 0.132856
vt 0.538953 0.132844
vt 0.557341 0.126575
vt 0.557180 0.132879
vt 0.859829 0.956292
vt 0.860920 0.961810
vt 0.847589 0.961810
vt 0.847695 0.956292
vt 0.534195 0.126531
vt 0.532853 0.132833
vt 0.534284 0.122203
vt 0.920209 0.942256
vt 0.908075 0.942254
vt 0.907968 0.936736
vt 0.921299 0.936738
vt 0.520868 0.126506
vt 0.520726 0.132810
vt 0.532717 0.140654
vt 0.520590 0.140631
vt 0.538817 0.140666
vt 0.538809 0.149848
vt 0.532709 0.149837
vt 0.520582 0.149814
vt 0.532813 0.155960
vt 0.520686 0.155937
vt 0.538913 0.155972
vt 0.532855 0.167808
vt 0.520729 0.167785
vt 0.538955 0.167820
vt 0.538990 0.177687
vt 0.532890 0.177675
vt 0.520764 0.177652
vt 0.539028 0.188105
vt 0.532928 0.188094
vt 0.520801 0.188071
vt 0.545055 0.167831
vt 0.545090 0.177698
vt 0.545128 0.188117
vt 0.545112 0.197019
vt 0.539012 0.197007
vt 0.532912 0.196996
vt 0.545103 0.202431
vt 0.539003 0.202420
vt 0.532903 0.202408
vt 0.520786 0.196973
vt 0.520776 0.202385
vt 0.538959 0.228404
vt 0.532859 0.228392
vt 0.520732 0.228369
vt 0.538914 0.254388
vt 0.532814 0.254377
vt 0.520687 0.254354
vt 0.545059 0.228415
vt 0.545014 0.254399
vt 0.545006 0.266074
vt 0.539015 0.266071
vt 0.533034 0.266052
vt 0.544950 0.270686
vt 0.539003 0.270686
vt 0.533068 0.270664
vt 0.522156 0.270623
vt 0.521777 0.266016
vt 0.519317 0.270617
vt 0.519133 0.265770
vt 0.518599 0.254937
vt 0.516478 0.270612
vt 0.516489 0.265523
vt 0.516510 0.255521
vt 0.281534 0.518742
vt 0.281311 0.544893
vt 0.277568 0.545303
vt 0.277836 0.519320
vt 0.285232 0.518163
vt 0.285054 0.544482
vt 0.284876 0.570801
vt 0.281088 0.571044
vt 0.277300 0.571287
vt 0.287036 0.570787
vt 0.287214 0.544468
vt 0.287391 0.518149
vt 0.284911 0.576852
vt 0.281078 0.576776
vt 0.287071 0.576838
vt 0.291993 0.576809
vt 0.291957 0.570758
vt 0.292135 0.544439
vt 0.296914 0.576780
vt 0.296879 0.570729
vt 0.297057 0.544410
vt 0.292313 0.518120
vt 0.297234 0.518091
vt 0.222457 0.571492
vt 0.215576 0.570748
vt 0.215547 0.544430
vt 0.223402 0.546699
vt 0.215518 0.518112
vt 0.224346 0.521905
vt 0.215518 0.505884
vt 0.224346 0.508756
vt 0.292241 0.505891
vt 0.297163 0.505862
vt 0.215518 0.499662
vt 0.224346 0.502066
vt 0.292204 0.499670
vt 0.297126 0.499641
vt 0.287320 0.505920
vt 0.287283 0.499699
vt 0.471204 0.602376
vt 0.466282 0.602376
vt 0.466282 0.599281
vt 0.471204 0.599281
vt 0.476125 0.602376
vt 0.476125 0.599281
vt 0.466282 0.596187
vt 0.471204 0.596187
vt 0.476125 0.596187
vt 0.218613 0.499659
vt 0.226324 0.502045
vt 0.221708 0.499657
vt 0.228302 0.502024
vt 0.233542 0.499646
vt 0.235865 0.501944
vt 0.471204 0.584353
vt 0.476125 0.584353
vt 0.239978 0.499641
vt 0.239978 0.501900
vt 0.471204 0.577916
vt 0.476125 0.577916
vt 0.466282 0.584353
vt 0.466282 0.577916
vt 0.476125 0.571480
vt 0.471204 0.571480
vt 0.466282 0.571480
vt 0.461873 0.577916
vt 0.462142 0.571973
vt 0.462142 0.583859
vt 0.471204 0.559646
vt 0.466282 0.559646
vt 0.462637 0.561047
vt 0.560460 0.274076
vt 0.557366 0.274072
vt 0.555886 0.270686
vt 0.558760 0.270692
vt 0.471204 0.556551
vt 0.466282 0.556551
vt 0.471204 0.553456
vt 0.466282 0.553456
vt 0.563554 0.274079
vt 0.561634 0.270697
vt 0.207223 0.664482
vt 0.207186 0.670704
vt 0.202265 0.670675
vt 0.202301 0.664454
vt 0.200126 0.667298
vt 0.200155 0.662209
vt 0.558963 0.265845
vt 0.561645 0.265608
vt 0.202373 0.652225
vt 0.200214 0.652207
vt 0.559403 0.255014
vt 0.561666 0.255606
vt 0.556280 0.266081
vt 0.557141 0.254422
vt 0.196518 0.651625
vt 0.192821 0.651042
vt 0.192553 0.625059
vt 0.196295 0.625473
vt 0.200036 0.625888
vt 0.192285 0.599075
vt 0.196072 0.599322
vt 0.199859 0.599569
vt 0.202195 0.625906
vt 0.202017 0.599587
vt 0.202053 0.593536
vt 0.199894 0.593518
vt 0.196062 0.593590
vt 0.202104 0.584785
vt 0.199945 0.584767
vt 0.196041 0.584764
vt 0.192229 0.593663
vt 0.192137 0.584761
vt 0.189725 0.574351
vt 0.194865 0.574461
vt 0.200005 0.574572
vt 0.187440 0.564491
vt 0.193748 0.565218
vt 0.200056 0.565945
vt 0.202164 0.574590
vt 0.202215 0.565963
vt 0.202253 0.559428
vt 0.200095 0.559410
vt 0.192396 0.556031
vt 0.202211 0.553116
vt 0.200052 0.553098
vt 0.189949 0.549821
vt 0.184697 0.552652
vt 0.179846 0.546544
vt 0.179423 0.537363
vt 0.189716 0.542074
vt 0.200010 0.546786
vt 0.184475 0.529525
vt 0.192106 0.533772
vt 0.199736 0.538019
vt 0.202169 0.546804
vt 0.201900 0.537228
vt 0.270647 0.986167
vt 0.270647 0.994903
vt 0.268771 0.992752
vt 0.266605 0.985091
vt 0.207000 0.539046
vt 0.207078 0.548979
vt 0.206974 0.528853
vt 0.201731 0.527132
vt 0.193196 0.533411
vt 0.196018 0.525177
vt 0.184493 0.529595
vt 0.190305 0.523221
vt 0.270647 0.977430
vt 0.264438 0.977430
vt 0.563554 0.126586
vt 0.563387 0.132941
vt 0.557044 0.140700
vt 0.544917 0.140677
vt 0.867134 0.956036
vt 0.867135 0.961810
vt 0.867133 0.950263
vt 0.858739 0.950773
vt 0.847801 0.950774
vt 0.867132 0.944968
vt 0.857631 0.945170
vt 0.847909 0.945171
vt 0.968116 0.007905
vt 0.955169 0.009617
vt 0.856524 0.939567
vt 0.848016 0.939568
vt 0.968116 0.002058
vt 0.959281 0.005249
vt 0.867131 0.939673
vt 0.251340 0.635459
vt 0.255724 0.628194
vt 0.264436 0.639820
vt 0.253828 0.639815
vt 0.215742 0.000000
vt 0.221480 0.000495
vt 0.221387 0.007648
vt 0.215638 0.007279
vt 0.746369 0.640489
vt 0.746369 0.634738
vt 0.221332 0.013049
vt 0.215578 0.012790
vt 0.256247 0.622684
vt 0.264420 0.629530
vt 0.221276 0.018451
vt 0.215518 0.018301
vt 0.256770 0.617175
vt 0.264405 0.619240
vt 0.212101 0.540864
vt 0.211987 0.551153
vt 0.212216 0.530574
vt 0.256769 0.613250
vt 0.264405 0.615074
vt 0.212041 0.555319
vt 0.207126 0.554218
vt 0.212096 0.559486
vt 0.207175 0.559457
vt 0.207136 0.565992
vt 0.212058 0.566021
vt 0.256769 0.609326
vt 0.259682 0.603169
vt 0.264317 0.604372
vt 0.264404 0.610908
vt 0.215666 0.026150
vt 0.221426 0.026223
vt 0.221426 0.032389
vt 0.215666 0.032316
vt 0.215592 0.022225
vt 0.221351 0.022337
vt 0.221424 0.040526
vt 0.215664 0.040453
vt 0.262897 0.595041
vt 0.264221 0.595745
vt 0.221410 0.050130
vt 0.215650 0.050056
vt 0.262483 0.585436
vt 0.264234 0.585549
vt 0.212007 0.574648
vt 0.211947 0.584843
vt 0.207025 0.584814
vt 0.207085 0.574619
vt 0.211896 0.593594
vt 0.206974 0.593565
vt 0.206939 0.599616
vt 0.211860 0.599645
vt 0.260100 0.577192
vt 0.257501 0.571492
vt 0.264383 0.570748
vt 0.264305 0.576799
vt 0.256556 0.546699
vt 0.264410 0.544430
vt 0.212038 0.625964
vt 0.207117 0.625935
vt 0.212216 0.652283
vt 0.207294 0.652254
vt 0.255610 0.521905
vt 0.264438 0.518112
vt 0.212144 0.664511
vt 0.212108 0.670733
vt 0.255610 0.508756
vt 0.255610 0.502066
vt 0.264438 0.499662
vt 0.264438 0.505883
vt 0.216208 0.113567
vt 0.221968 0.113640
vt 0.221950 0.126790
vt 0.216190 0.126716
vt 0.221941 0.133480
vt 0.216181 0.133406
vt 0.221672 0.088850
vt 0.215912 0.088776
vt 0.228328 0.113649
vt 0.228310 0.126798
vt 0.001795 0.559644
vt 0.001794 0.553286
vt 0.006674 0.555370
vt 0.006675 0.561230
vt 0.386952 0.850745
vt 0.386952 0.875556
vt 0.382147 0.873634
vt 0.382073 0.850557
vt 0.221376 0.064059
vt 0.215616 0.063986
vt 0.386952 0.900368
vt 0.382220 0.896711
vt 0.499648 0.605426
vt 0.522702 0.605343
vt 0.522708 0.612047
vt 0.499635 0.611708
vt 0.476593 0.605508
vt 0.476563 0.611370
vt 0.522699 0.624627
vt 0.499412 0.624781
vt 0.476125 0.624935
vt 0.001799 0.574368
vt 0.006679 0.574802
vt 0.002371 0.599112
vt 0.007250 0.597587
vt 0.504502 0.647221
vt 0.486316 0.648051
vt 0.002380 0.604075
vt 0.007259 0.602154
vt 0.505532 0.651996
vt 0.488362 0.652685
vt 0.522689 0.646391
vt 0.522701 0.651308
vt 0.522708 0.689327
vt 0.522334 0.689333
vt 0.521961 0.689338
vt 0.004485 0.641104
vt 0.003364 0.641104
vt 0.006338 0.637710
vt 0.006692 0.637694
vt 0.578344 0.165284
vt 0.578995 0.164371
vt 0.578995 0.169066
vt 0.578485 0.169139
vt 0.004491 0.660368
vt 0.003369 0.660368
vt 0.002248 0.660369
vt 0.002243 0.641105
vt 0.972800 0.283323
vt 0.972800 0.302588
vt 0.966385 0.302604
vt 0.966385 0.283339
vt 0.269779 0.058983
vt 0.311181 0.059510
vt 0.311155 0.065191
vt 0.269758 0.064669
vt 0.341895 0.627773
vt 0.341784 0.669233
vt 0.339412 0.665885
vt 0.338464 0.627866
vt 0.004495 0.676163
vt 0.003373 0.676163
vt 0.972800 0.318384
vt 0.966385 0.318401
vt 0.330466 0.051522
vt 0.346262 0.051723
vt 0.346241 0.059958
vt 0.330446 0.059756
vt 0.311202 0.051276
vt 0.330481 0.041918
vt 0.346276 0.042119
vt 0.311216 0.041672
vt 0.269813 0.041144
vt 0.269798 0.050747
vt 0.269814 0.033007
vt 0.311218 0.033535
vt 0.330482 0.033781
vt 0.269814 0.026841
vt 0.311218 0.027369
vt 0.330482 0.027615
vt 0.346278 0.033982
vt 0.346278 0.027817
vt 0.330393 0.024458
vt 0.346187 0.024765
vt 0.311132 0.024083
vt 0.330305 0.021301
vt 0.346096 0.021714
vt 0.311045 0.020797
vt 0.330267 0.017964
vt 0.346045 0.018676
vt 0.311024 0.017096
vt 0.269666 0.015230
vt 0.269652 0.019716
vt 0.269733 0.023278
vt 0.264119 0.014881
vt 0.264098 0.019514
vt 0.264178 0.023129
vt 0.240986 0.013936
vt 0.240948 0.018965
vt 0.241025 0.022720
vt 0.264258 0.026744
vt 0.241102 0.026474
vt 0.229524 0.022496
vt 0.229600 0.026328
vt 0.229449 0.018665
vt 0.229497 0.013418
vt 0.229545 0.008171
vt 0.241025 0.008907
vt 0.229625 0.001197
vt 0.241086 0.002186
vt 0.752367 0.660093
vt 0.746369 0.660133
vt 0.746369 0.648650
vt 0.752367 0.683272
vt 0.746369 0.683255
vt 0.264166 0.003984
vt 0.264140 0.010247
vt 0.757729 0.683288
vt 0.757729 0.660057
vt 0.763091 0.660093
vt 0.763091 0.683273
vt 0.769091 0.660134
vt 0.769091 0.683256
vt 0.757729 0.688723
vt 0.763091 0.688759
vt 0.769091 0.688800
vt 0.763091 0.730096
vt 0.757729 0.730059
vt 0.769091 0.730137
vt 0.752367 0.730096
vt 0.752367 0.688759
vt 0.746369 0.730136
vt 0.746369 0.688799
vt 0.269694 0.004653
vt 0.310948 0.008211
vt 0.311002 0.013394
vt 0.269680 0.010744
vt 0.241102 0.032640
vt 0.229600 0.032493
vt 0.241100 0.040777
vt 0.229598 0.040630
vt 0.241086 0.050381
vt 0.229584 0.050234
vt 0.241067 0.058617
vt 0.229566 0.058471
vt 0.221392 0.058366
vt 0.215632 0.058293
vt 0.229549 0.064162
vt 0.241804 0.064308
vt 0.342004 0.587505
vt 0.342009 0.599776
vt 0.337790 0.601186
vt 0.337429 0.588607
vt 0.342026 0.579319
vt 0.337281 0.581903
vt 0.342026 0.622204
vt 0.338394 0.622946
vt 0.264223 0.058886
vt 0.264203 0.064574
vt 0.264242 0.050651
vt 0.264257 0.041047
vt 0.264258 0.032910
vt 0.221646 0.735512
vt 0.222168 0.732476
vt 0.230758 0.732476
vt 0.230512 0.735512
vt 0.238436 0.735512
vt 0.221646 0.738564
vt 0.230512 0.738564
vt 0.238436 0.738564
vt 0.246360 0.738564
vt 0.255226 0.738564
vt 0.246360 0.741615
vt 0.238436 0.741615
vt 0.255226 0.741615
vt 0.247735 0.747772
vt 0.238436 0.747772
vt 0.258139 0.747772
vt 0.330480 0.239340
vt 0.330480 0.233180
vt 0.346276 0.232975
vt 0.346276 0.239135
vt 0.330392 0.242498
vt 0.346185 0.242187
vt 0.330478 0.225049
vt 0.346273 0.224844
vt 0.261354 0.755900
vt 0.249252 0.755900
vt 0.330461 0.215445
vt 0.346257 0.215239
vt 0.260940 0.765505
vt 0.249057 0.765505
vt 0.238436 0.765505
vt 0.238436 0.755900
vt 0.247569 0.773749
vt 0.238436 0.773749
vt 0.257787 0.773749
vt 0.244541 0.779449
vt 0.238436 0.779449
vt 0.251372 0.779449
vt 0.967236 0.044533
vt 0.973650 0.044550
vt 0.973650 0.060346
vt 0.967236 0.060330
vt 0.330438 0.207204
vt 0.346233 0.206999
vt 0.030363 0.660361
vt 0.031484 0.660360
vt 0.031489 0.676156
vt 0.030367 0.676156
vt 0.030368 0.680452
vt 0.023537 0.680454
vt 0.023536 0.676158
vt 0.031490 0.680452
vt 0.032610 0.676155
vt 0.032611 0.680451
vt 0.032606 0.660360
vt 0.031479 0.641096
vt 0.032600 0.641096
vt 0.030358 0.641097
vt 0.578344 0.172863
vt 0.578503 0.169139
vt 0.579014 0.169200
vt 0.579014 0.173761
vt 0.028151 0.637688
vt 0.028506 0.637704
vt 0.636286 0.735504
vt 0.632855 0.735412
vt 0.633803 0.697393
vt 0.636174 0.694045
vt 0.269771 0.207992
vt 0.269746 0.202297
vt 0.311142 0.201761
vt 0.311173 0.207455
vt 0.967236 0.025268
vt 0.973650 0.025284
vt 0.587846 0.621972
vt 0.570675 0.621283
vt 0.587480 0.583947
vt 0.587853 0.583953
vt 0.569646 0.626058
vt 0.587834 0.626889
vt 0.636417 0.741074
vt 0.632785 0.740332
vt 0.636400 0.763502
vt 0.632182 0.762092
vt 0.564556 0.648497
vt 0.587844 0.648652
vt 0.551458 0.625228
vt 0.553504 0.620593
vt 0.541267 0.648342
vt 0.032484 0.604066
vt 0.027604 0.602149
vt 0.027612 0.597581
vt 0.032492 0.599103
vt 0.028183 0.574796
vt 0.033063 0.574359
vt 0.028179 0.561224
vt 0.033059 0.559636
vt 0.541704 0.661907
vt 0.564778 0.661570
vt 0.028178 0.555364
vt 0.033057 0.553277
vt 0.541734 0.667770
vt 0.564791 0.667853
vt 0.587853 0.661233
vt 0.587847 0.667936
vt 0.941982 0.669717
vt 0.937110 0.669904
vt 0.937184 0.646827
vt 0.941982 0.644905
vt 0.937258 0.623751
vt 0.941982 0.620094
vt 0.636417 0.783958
vt 0.631672 0.781375
vt 0.631820 0.774670
vt 0.636395 0.775773
vt 0.221366 0.202923
vt 0.215606 0.202998
vt 0.215896 0.178205
vt 0.221656 0.178131
vt 0.215624 0.208695
vt 0.221384 0.208621
vt 0.229539 0.202817
vt 0.229558 0.208514
vt 0.241793 0.202667
vt 0.241060 0.208365
vt 0.221405 0.216862
vt 0.229580 0.216756
vt 0.241082 0.216606
vt 0.264192 0.202395
vt 0.264215 0.208090
vt 0.264238 0.216331
vt 0.241098 0.226211
vt 0.264254 0.225936
vt 0.229596 0.226360
vt 0.241100 0.234342
vt 0.264256 0.234067
vt 0.229598 0.234491
vt 0.221424 0.234597
vt 0.221422 0.226466
vt 0.215662 0.226541
vt 0.215646 0.216937
vt 0.215664 0.234672
vt 0.217061 0.595041
vt 0.215737 0.595745
vt 0.215725 0.585549
vt 0.217475 0.585436
vt 0.215653 0.576799
vt 0.219859 0.577192
vt 0.296965 0.585530
vt 0.292044 0.585559
vt 0.297025 0.595726
vt 0.292104 0.595755
vt 0.287182 0.595784
vt 0.287122 0.585588
vt 0.292155 0.604382
vt 0.287233 0.604411
vt 0.297076 0.604353
vt 0.292193 0.610917
vt 0.287272 0.610946
vt 0.297115 0.610888
vt 0.223189 0.609326
vt 0.215554 0.610908
vt 0.215641 0.604372
vt 0.220276 0.603169
vt 0.223189 0.613250
vt 0.215554 0.615074
vt 0.297060 0.615055
vt 0.292145 0.616156
vt 0.223189 0.617175
vt 0.215554 0.619240
vt 0.297005 0.619221
vt 0.292096 0.621395
vt 0.287187 0.623570
vt 0.287230 0.617258
vt 0.292019 0.631329
vt 0.286918 0.633147
vt 0.297120 0.629511
vt 0.291992 0.641521
vt 0.286750 0.643242
vt 0.297234 0.639800
vt 0.224234 0.628194
vt 0.215523 0.639820
vt 0.215538 0.629530
vt 0.223712 0.622684
vt 0.927514 0.958876
vt 0.927514 0.953581
vt 0.215518 0.248682
vt 0.215591 0.244757
vt 0.221350 0.244644
vt 0.229523 0.244483
vt 0.221424 0.240758
vt 0.229598 0.240651
vt 0.215664 0.240833
vt 0.241100 0.240502
vt 0.241024 0.244257
vt 0.264256 0.240227
vt 0.264177 0.243842
vt 0.269812 0.240129
vt 0.269732 0.243692
vt 0.311216 0.239591
vt 0.311130 0.242877
vt 0.311216 0.233431
vt 0.269812 0.233969
vt 0.311214 0.225300
vt 0.269810 0.225838
vt 0.269794 0.216233
vt 0.311197 0.215695
vt 0.919119 0.947774
vt 0.927514 0.948286
vt 0.908182 0.947772
vt 0.927514 0.942512
vt 0.927514 0.936739
vt 0.281036 0.645198
vt 0.275323 0.647153
vt 0.269511 0.640779
vt 0.278215 0.636963
vt 0.994382 0.222099
vt 0.988173 0.222099
vt 0.990340 0.214438
vt 0.994382 0.213362
vt 0.992507 0.206777
vt 0.994382 0.204626
vt 0.285028 0.623585
vt 0.284754 0.632351
vt 0.277122 0.636594
vt 0.274733 0.628292
vt 0.269491 0.640837
vt 0.264438 0.632999
vt 0.285070 0.617273
vt 0.274965 0.620546
vt 0.264861 0.623818
vt 0.285112 0.610961
vt 0.277412 0.614336
vt 0.285074 0.604425
vt 0.278765 0.605148
vt 0.269712 0.617710
vt 0.272456 0.605871
vt 0.285022 0.595798
vt 0.279881 0.595905
vt 0.274740 0.596012
vt 0.284963 0.585603
vt 0.281058 0.585602
vt 0.277153 0.585601
vt 0.277244 0.576699
vt 0.514655 0.126494
vt 0.514519 0.132849
vt 0.216186 0.153413
vt 0.221945 0.153338
vt 0.221924 0.140189
vt 0.228285 0.140178
vt 0.228306 0.153328
vt 0.216165 0.140263
vt 0.221914 0.133498
vt 0.228274 0.133488
vt 0.216154 0.133573
vt 0.243019 0.149507
vt 0.243025 0.152938
vt 0.243016 0.147762
vt 0.850353 0.032255
vt 0.852330 0.032255
vt 0.852331 0.046933
vt 0.850353 0.046933
vt 0.850353 0.025894
vt 0.852331 0.025894
vt 0.854308 0.025894
vt 0.854308 0.032255
vt 0.854308 0.046933
vt 0.852331 0.020134
vt 0.854308 0.020134
vt 0.850353 0.020134
vt 0.861871 0.020135
vt 0.861871 0.025895
vt 0.861871 0.032255
vt 0.865984 0.025895
vt 0.865984 0.032256
vt 0.865985 0.020135
vt 0.865985 0.046933
vt 0.861871 0.046933
vt 0.865984 0.072134
vt 0.862024 0.072133
vt 0.854741 0.072132
vt 0.852837 0.072132
vt 0.924648 0.066472
vt 0.924301 0.073752
vt 0.900614 0.073747
vt 0.900614 0.066467
vt 0.924738 0.064568
vt 0.900614 0.064563
vt 0.924829 0.062664
vt 0.900614 0.062659
vt 0.850932 0.072131
vt 0.924829 0.060296
vt 0.929606 0.060415
vt 0.929791 0.062780
vt 0.900614 0.060290
vt 0.268268 0.160153
vt 0.273082 0.165152
vt 0.268063 0.163207
vt 0.268199 0.161183
vt 0.028861 0.637720
vt 0.034843 0.641096
vt 0.034854 0.604218
vt 0.504573 0.522354
vt 0.508295 0.516528
vt 0.532013 0.511639
vt 0.529609 0.517192
vt 0.476125 0.566877
vt 0.511238 0.559637
vt 0.515343 0.578461
vt 0.480230 0.585700
vt 0.034848 0.660360
vt 0.518709 0.593895
vt 0.483596 0.601134
vt 0.034853 0.676155
vt 0.519882 0.599582
vt 0.484464 0.605343
vt 0.034854 0.680451
vt 0.850358 0.080447
vt 0.852608 0.080447
vt 0.852601 0.116300
vt 0.850358 0.116300
vt 0.850353 0.072134
vt 0.852602 0.072134
vt 0.529697 0.597566
vt 0.528783 0.601598
vt 0.465632 0.602376
vt 0.465632 0.604746
vt 0.461874 0.604626
vt 0.461874 0.602377
vt 0.465632 0.606650
vt 0.461873 0.605751
vt 0.853727 0.072134
vt 0.853733 0.080447
vt 0.465632 0.608555
vt 0.461873 0.606876
vt 0.854852 0.072134
vt 0.854858 0.080448
vt 0.475874 0.606650
vt 0.475874 0.608554
vt 0.475874 0.604746
vt 0.049635 0.649008
vt 0.049635 0.650912
vt 0.034854 0.651180
vt 0.034854 0.649276
vt 0.049635 0.647104
vt 0.034854 0.647372
vt 0.049635 0.644735
vt 0.034854 0.645003
vt 0.475874 0.602376
vt 0.247992 0.798715
vt 0.246087 0.798715
vt 0.246088 0.779450
vt 0.247992 0.779450
vt 0.250361 0.798715
vt 0.250362 0.779450
vt 0.250362 0.836500
vt 0.247992 0.836500
vt 0.246088 0.836500
vt 0.244183 0.836500
vt 0.244183 0.798715
vt 0.244183 0.779450
vt 0.236901 0.798714
vt 0.236901 0.779450
vt 0.236901 0.836500
vt 0.049635 0.658192
vt 0.034854 0.658460
vt 0.232940 0.798713
vt 0.232940 0.779450
vt 0.049635 0.662152
vt 0.034854 0.662420
vt 0.475874 0.615837
vt 0.475874 0.619798
vt 0.465632 0.619798
vt 0.465632 0.615837
vt 0.461873 0.619798
vt 0.461873 0.613699
vt 0.861676 0.072134
vt 0.867774 0.072135
vt 0.867780 0.080448
vt 0.861681 0.080448
vt 0.867780 0.116301
vt 0.861674 0.116301
vt 0.854843 0.116300
vt 0.853722 0.116300
vt 0.017432 0.680456
vt 0.017431 0.676160
vt 0.011327 0.680457
vt 0.011326 0.676161
vt 0.873878 0.080449
vt 0.873885 0.116302
vt 0.232331 0.779449
vt 0.229303 0.773749
vt 0.004496 0.680459
vt 0.225500 0.779449
vt 0.219085 0.773749
vt 0.227815 0.765505
vt 0.215932 0.765505
vt 0.215518 0.755900
vt 0.227620 0.755900
vt 0.218733 0.747772
vt 0.229137 0.747772
vt 0.230512 0.741615
vt 0.221646 0.741615
vt 0.880702 0.080449
vt 0.880716 0.116302
vt 0.003375 0.680459
vt 0.881827 0.080449
vt 0.881837 0.116302
vt 0.881821 0.072136
vt 0.880696 0.072136
vt 0.873873 0.072135
vt 0.465632 0.632946
vt 0.461873 0.633845
vt 0.461873 0.632720
vt 0.465632 0.631041
vt 0.461873 0.625897
vt 0.465632 0.623759
vt 0.475874 0.632945
vt 0.475874 0.631041
vt 0.475874 0.623759
vt 0.465632 0.634850
vt 0.461873 0.634970
vt 0.475874 0.634850
vt 0.465632 0.637219
vt 0.461873 0.637219
vt 0.475874 0.637219
vt 0.885196 0.072136
vt 0.885201 0.080450
vt 0.882951 0.080449
vt 0.882946 0.072136
vt 0.882958 0.116302
vt 0.885201 0.116302
vt 0.093267 0.534357
vt 0.058154 0.527118
vt 0.059022 0.522909
vt 0.094440 0.528670
vt 0.103341 0.526654
vt 0.104255 0.530686
vt 0.054788 0.542552
vt 0.089901 0.549791
vt 0.106570 0.541633
vt 0.050683 0.561375
vt 0.085796 0.568615
vt 0.215518 0.798715
vt 0.215519 0.779449
vt 0.217888 0.779449
vt 0.217888 0.798714
vt 0.049635 0.679569
vt 0.034854 0.679837
vt 0.034854 0.677468
vt 0.049635 0.677200
vt 0.219793 0.779449
vt 0.219792 0.798714
vt 0.034854 0.675564
vt 0.049635 0.675296
vt 0.034854 0.673660
vt 0.049635 0.673392
vt 0.221697 0.779449
vt 0.221696 0.798714
vt 0.217888 0.836499
vt 0.219792 0.836499
vt 0.221697 0.836499
vt 0.228979 0.779449
vt 0.228979 0.798714
vt 0.228979 0.836500
vt 0.221697 0.841443
vt 0.228979 0.841444
vt 0.219793 0.841443
vt 0.924648 0.088952
vt 0.900614 0.088947
vt 0.900614 0.081667
vt 0.924301 0.081672
vt 0.924738 0.090856
vt 0.900614 0.090851
vt 0.924829 0.092760
vt 0.900614 0.092755
vt 0.217888 0.841443
vt 0.215519 0.841443
vt 0.215519 0.836499
vt 0.924829 0.095129
vt 0.900614 0.095124
vt 0.929791 0.092876
vt 0.929606 0.095248
vt 0.268289 0.106813
vt 0.268220 0.105783
vt 0.268083 0.103759
vt 0.273102 0.101813
vt 0.243040 0.119212
vt 0.243042 0.117466
vt 0.881616 0.046934
vt 0.881037 0.072132
vt 0.879132 0.072132
vt 0.879638 0.046934
vt 0.228301 0.133488
vt 0.881616 0.032256
vt 0.879638 0.032256
vt 0.877661 0.046934
vt 0.877660 0.032256
vt 0.877228 0.072132
vt 0.869945 0.072133
vt 0.870098 0.046934
vt 0.870098 0.032256
vt 0.879638 0.025895
vt 0.877661 0.025895
vt 0.870098 0.025895
vt 0.877661 0.020135
vt 0.870098 0.020135
vt 0.244091 0.501944
vt 0.246415 0.499646
vt 0.251654 0.502024
vt 0.258249 0.499657
vt 0.253632 0.502045
vt 0.261343 0.499659
vt 0.879638 0.020135
vt 0.881616 0.020135
vt 0.881616 0.025895
vt 0.476125 0.556551
vt 0.476125 0.559646
vt 0.476125 0.553456
vt 0.900614 0.077707
vt 0.924113 0.077712
vt 0.232940 0.836500
vt 0.232940 0.841444
vt 0.236901 0.841444
vt 0.244183 0.841444
vt 0.243047 0.114036
vt 0.000000 0.641105
vt 0.000011 0.604228
vt 0.005983 0.637727
vt 0.104167 0.611060
vt 0.079131 0.605898
vt 0.106570 0.616613
vt 0.082853 0.611724
vt 0.000005 0.660369
vt 0.034854 0.666380
vt 0.049635 0.666112
vt 0.002252 0.676164
vt 0.000009 0.676164
vt 0.002253 0.680460
vt 0.000011 0.680460
vt 0.246088 0.841444
vt 0.247992 0.841444
vt 0.250362 0.841444
vt 0.532013 0.586619
vt 0.587107 0.583941
vt 0.557036 0.149883
vt 0.544909 0.149860
vt 0.557140 0.156006
vt 0.545013 0.155983
vt 0.557182 0.167854
vt 0.557217 0.177721
vt 0.557254 0.188139
vt 0.557239 0.197041
vt 0.557230 0.202454
vt 0.557185 0.228438
vt 0.462637 0.594786
vt 0.517742 0.273995
vt 0.520835 0.274004
vt 0.514648 0.273987
vt 0.285173 0.508161
vt 0.285143 0.503072
s 1
usemtl M249_Gun
f 4/1/1 1/2/2 2/3/3 5/4/4
f 2/5/3 1/6/2 3/7/5 383/8/6
f 4/9/1 6/10/7 3/11/5 1/12/2
f 7/13/8 4/1/1 5/4/4 9/14/9
f 7/15/8 8/16/10 6/10/7 4/9/1
f 7/15/8 10/17/11 13/18/12 8/16/10
f 7/13/8 9/14/9 11/19/13 10/20/11
f 10/20/11 11/19/13 753/21/14 12/22/15
f 10/17/11 12/23/15 15/24/16 13/18/12
f 14/25/17 406/26/17 8/16/10 13/18/12
f 17/27/18 14/25/17 13/18/12 15/24/16
f 16/28/19 19/29/20 17/30/18 15/31/16
f 753/32/14 16/28/19 15/31/16 12/33/15
f 18/34/21 411/35/22 14/25/17 17/27/18
f 19/29/20 20/36/23 18/37/21 17/30/18
f 21/38/24 22/39/25 20/36/23 19/29/20
f 24/40/26 21/38/24 19/29/20 16/28/19
f 23/41/27 530/42/28 22/39/25 21/38/24
f 23/41/27 21/38/24 24/40/26 26/43/29
f 27/44/30 26/43/29 24/40/26 25/45/31
f 25/45/31 24/40/26 16/28/19 753/32/14
f 29/46/32 28/47/33 26/43/29 27/44/30
f 28/47/33 31/48/34 23/41/27 26/43/29
f 371/49/35 30/50/36 28/47/33 29/46/32
f 30/50/36 33/51/37 31/48/34 28/47/33
f 33/51/37 34/52/38 32/53/39 31/48/34
f 31/48/34 32/53/39 530/42/28 23/41/27
f 35/54/40 36/55/41 34/52/38 33/51/37
f 38/56/42 35/54/40 33/51/37 30/50/36
f 37/57/43 518/58/44 36/55/41 35/54/40
f 40/59/45 37/57/43 35/54/40 38/56/42
f 42/60/46 40/59/45 38/56/42 39/61/47
f 39/61/47 38/56/42 30/50/36 371/49/35
f 41/62/48 515/63/49 37/57/43 40/59/45
f 43/64/50 41/62/48 40/59/45 42/60/46
f 44/65/13 45/66/51 43/67/50 42/68/46
f 46/69/13 44/65/13 42/68/46 39/70/47
f 47/71/9 50/72/52 45/66/51 44/65/13
f 49/73/9 47/71/9 44/65/13 46/69/13
f 47/71/9 48/74/4 51/75/53 50/72/52
f 49/73/9 362/76/4 48/74/4 47/71/9
f 50/77/52 51/78/53 53/79/54 52/80/55
f 50/77/52 52/80/55 54/81/56 45/82/51
f 45/82/51 54/81/56 55/83/57 43/84/50
f 55/85/57 54/86/56 56/87/58 543/88/59
f 54/89/56 57/90/60 64/91/61 56/92/58
f 54/93/56 58/94/62 59/95/63 57/96/60
f 53/97/54 60/98/64 59/95/63 58/94/62
f 60/98/64 63/99/65 61/100/66 59/95/63
f 57/96/60 59/95/63 61/100/66 64/101/61
f 64/102/61 61/103/66 62/104/67 65/105/68
f 63/106/65 74/107/69 62/104/67 61/103/66
f 56/92/58 64/91/61 65/108/68 66/109/70
f 66/109/70 65/108/68 67/110/71 68/111/72
f 65/105/68 62/104/67 70/112/73 67/113/71
f 68/111/72 67/110/71 69/114/74 81/115/75
f 67/113/71 70/112/73 71/116/76 69/117/74
f 72/118/77 75/119/78 71/116/76 70/112/73
f 74/107/69 72/118/77 70/112/73 62/104/67
f 73/120/79 76/121/80 75/122/78 72/123/77
f 233/124/81 73/120/79 72/123/77 74/125/69
f 75/126/78 76/127/80 79/128/82 71/129/76
f 76/127/80 77/130/83 80/131/83 79/128/82
f 78/132/84 229/133/85 77/130/83 76/127/80
f 230/134/86 78/135/84 76/136/80 73/137/79
f 81/138/75 79/128/82 80/131/83 83/139/83
f 69/140/74 71/129/76 79/128/82 81/138/75
f 545/141/87 68/142/72 81/143/75 82/144/88
f 82/145/88 81/138/75 83/139/83 84/146/89
f 83/139/83 85/147/90 87/148/91 84/146/89
f 80/131/83 86/149/90 85/147/90 83/139/83
f 86/149/90 90/150/92 88/151/92 85/147/90
f 85/147/90 88/151/92 89/152/93 87/148/91
f 88/151/92 91/153/94 92/154/95 89/152/93
f 90/150/92 93/155/94 91/153/94 88/151/92
f 91/153/94 94/156/96 96/157/97 92/154/95
f 93/155/94 95/158/96 94/156/96 91/153/94
f 95/158/96 100/159/96 97/160/96 94/156/96
f 94/156/96 97/160/96 99/161/98 96/157/97
f 100/159/96 102/162/99 98/163/99 97/160/96
f 97/160/96 98/163/99 565/164/100 99/161/98
f 95/158/96 746/165/96 101/166/96 100/159/96
f 100/159/96 101/166/96 103/167/99 102/162/99
f 102/162/99 103/167/99 105/168/101 104/169/101
f 102/162/99 104/169/101 107/170/101 98/163/99
f 104/169/101 105/168/101 749/171/101 106/172/101
f 104/169/101 106/172/101 109/173/101 107/170/101
f 98/163/99 107/170/101 108/174/102 565/164/100
f 107/170/101 109/173/101 110/175/103 108/174/102
f 106/172/101 114/176/101 111/177/101 109/173/101
f 109/173/101 111/177/101 113/178/104 110/175/103
f 114/176/101 116/179/105 112/180/106 111/177/101
f 111/177/101 112/180/106 125/181/107 113/178/104
f 106/172/101 749/171/101 115/182/101 114/176/101
f 114/176/101 115/182/101 117/183/108 116/179/105
f 116/179/105 117/183/108 119/184/109 118/185/110
f 116/179/105 118/185/110 121/186/111 112/180/106
f 118/185/110 119/184/109 171/187/112 120/188/113
f 118/185/110 120/188/113 122/189/114 121/186/111
f 121/186/111 122/189/114 124/190/115 123/191/116
f 112/180/106 121/186/111 123/191/116 125/181/107
f 123/191/116 124/190/115 127/192/117 126/193/118
f 126/193/118 129/194/119 125/181/107 123/191/116
f 126/193/118 127/192/117 751/195/120 128/196/121
f 128/196/121 130/197/122 129/194/119 126/193/118
f 129/198/119 131/199/123 113/200/104 125/201/107
f 130/202/122 133/203/124 131/199/123 129/198/119
f 133/203/124 135/204/125 132/205/126 131/199/123
f 131/199/123 132/205/126 110/206/103 113/200/104
f 137/207/127 135/204/125 133/203/124 134/208/128
f 134/208/128 133/203/124 130/202/122 752/209/129
f 135/204/125 136/210/130 566/211/131 132/205/126
f 138/212/132 136/210/130 135/204/125 137/207/127
f 140/213/133 138/212/132 137/207/127 139/214/134
f 139/214/134 137/207/127 134/208/128 142/215/135
f 491/216/136 140/213/133 139/214/134 141/217/137
f 141/217/137 139/214/134 142/215/135 144/218/138
f 142/215/135 134/208/128 752/209/129 143/219/139
f 144/218/138 142/215/135 143/219/139 146/220/140
f 469/221/141 141/222/137 144/223/138 145/224/142
f 145/224/142 144/223/138 146/225/140 147/226/143
f 147/226/143 146/225/140 148/227/144 149/228/144
f 146/220/140 143/219/139 151/229/145 148/230/144
f 149/228/144 148/227/144 150/231/146 741/232/147
f 148/230/144 151/229/145 153/233/148 150/234/146
f 143/219/139 752/209/129 152/235/149 151/229/145
f 151/229/145 152/235/149 154/236/150 153/233/148
f 153/237/148 154/238/150 156/239/151 155/240/152
f 150/241/146 153/237/148 155/240/152 158/242/153
f 155/240/152 156/239/151 750/243/154 157/244/152
f 158/242/153 155/240/152 157/244/152 160/245/153
f 741/232/147 150/231/146 158/246/153 159/247/155
f 159/247/155 158/246/153 160/248/153 161/249/155
f 161/249/155 160/248/153 162/250/153 163/251/155
f 160/245/153 157/244/152 165/252/152 162/253/153
f 163/251/155 162/250/153 164/254/156 716/255/157
f 162/253/153 165/252/152 167/256/158 164/257/156
f 157/244/152 750/243/154 166/258/159 165/252/152
f 165/252/152 166/258/159 169/259/160 167/256/158
f 717/260/161 164/257/156 167/256/158 168/261/162
f 168/261/162 167/256/158 169/259/160 170/262/163
f 170/262/163 169/259/160 120/263/113 171/264/112
f 166/258/159 122/265/114 120/263/113 169/259/160
f 174/266/162 168/261/162 170/262/163 172/267/164
f 172/267/164 170/262/163 171/264/112 173/268/165
f 175/269/166 172/270/164 173/271/165 177/272/167
f 176/273/162 174/266/162 172/267/164 175/274/166
f 179/275/168 176/273/162 175/274/166 178/276/169
f 178/277/169 175/269/166 177/272/167 181/278/170
f 280/279/171 179/280/168 178/281/169 180/282/172
f 180/282/172 178/281/169 181/283/170 182/284/173
f 184/285/174 182/286/173 181/278/170 177/272/167
f 279/287/175 180/282/172 182/284/173 183/288/176
f 182/286/173 184/285/174 186/289/177 183/290/176
f 185/291/178 184/285/174 177/272/167 173/271/165
f 184/285/174 185/291/178 187/292/179 186/289/177
f 186/293/177 187/294/179 189/295/180 188/296/181
f 183/288/176 186/293/177 188/296/181 191/297/182
f 188/296/181 189/295/180 748/298/183 190/299/184
f 191/297/182 188/296/181 190/299/184 193/300/185
f 192/301/186 279/287/175 183/288/176 191/297/182
f 194/302/187 192/301/186 191/297/182 193/300/185
f 196/303/188 194/302/187 193/300/185 195/304/189
f 193/300/185 190/299/184 198/305/190 195/304/189
f 268/306/191 196/303/188 195/304/189 197/307/192
f 195/304/189 198/305/190 200/308/193 197/307/192
f 198/305/190 199/309/194 201/310/195 200/308/193
f 190/299/184 748/298/183 199/309/194 198/305/190
f 200/308/193 201/310/195 203/311/196 202/312/197
f 197/307/192 200/308/193 202/312/197 205/313/198
f 202/312/197 203/311/196 747/314/199 204/315/200
f 205/313/198 202/312/197 204/315/200 207/316/201
f 206/317/202 268/306/191 197/307/192 205/313/198
f 208/318/203 206/317/202 205/313/198 207/316/201
f 210/319/204 208/318/203 207/316/201 209/320/205
f 207/316/201 204/315/200 212/321/206 209/320/205
f 251/322/207 210/319/204 209/320/205 211/323/208
f 209/320/205 212/321/206 214/324/209 211/323/208
f 204/315/200 747/314/199 213/325/210 212/321/206
f 212/321/206 213/325/210 215/326/211 214/324/209
f 214/324/209 215/326/211 217/327/212 216/328/213
f 211/323/208 214/324/209 216/328/213 219/329/214
f 216/328/213 217/327/212 229/330/85 218/331/215
f 219/329/214 216/328/213 218/331/215 221/332/216
f 220/333/217 251/322/207 211/323/208 219/329/214
f 222/334/218 220/333/217 219/329/214 221/332/216
f 225/335/219 222/336/218 221/337/216 218/338/215
f 223/339/220 248/340/221 220/333/217 222/334/218
f 235/341/222 223/339/220 222/334/218 224/342/223
f 224/342/223 222/334/218 225/343/219 226/344/224
f 226/344/224 225/343/219 227/345/225 228/346/226
f 227/347/225 225/335/219 218/338/215 229/348/85
f 228/349/226 227/350/225 229/133/85 78/132/84
f 77/130/83 229/133/85 217/351/212 743/352/90
f 226/353/224 228/354/226 78/135/84 230/134/86
f 224/355/223 226/353/224 230/134/86 231/356/227
f 231/356/227 230/134/86 73/137/79 233/357/81
f 235/358/222 224/355/223 231/356/227 232/359/228
f 232/359/228 231/356/227 233/357/81 234/360/229
f 234/361/229 233/124/81 74/125/69 63/362/65
f 236/363/230 232/359/228 234/360/229 53/364/54
f 53/365/54 234/361/229 63/362/65 60/366/64
f 237/367/231 235/358/222 232/359/228 236/363/230
f 238/368/232 240/369/233 237/370/231 236/371/230
f 51/78/53 238/368/232 236/371/230 53/79/54
f 238/372/232 239/373/234 241/374/235 240/375/233
f 48/74/4 239/376/234 238/377/232 51/75/53
f 240/375/233 241/374/235 243/378/236 242/379/237
f 240/369/233 242/380/237 245/381/238 237/370/231
f 242/379/237 243/378/236 357/382/239 244/383/240
f 242/380/237 244/384/240 246/385/241 245/381/238
f 245/386/238 246/387/241 248/340/221 223/339/220
f 237/388/231 245/386/238 223/339/220 235/341/222
f 244/384/240 257/389/242 247/390/243 246/385/241
f 246/387/241 247/391/243 249/392/171 248/340/221
f 248/340/221 249/392/171 251/322/207 220/333/217
f 247/391/243 253/393/244 250/394/245 249/392/171
f 249/392/171 250/394/245 210/319/204 251/322/207
f 250/394/245 252/395/246 208/318/203 210/319/204
f 253/393/244 254/396/247 252/395/246 250/394/245
f 255/397/248 258/398/249 254/399/247 253/400/244
f 257/389/242 255/397/248 253/400/244 247/390/243
f 255/401/248 256/402/250 259/403/251 258/404/249
f 257/405/242 354/406/171 256/402/250 255/401/248
f 258/404/249 259/403/251 261/407/252 260/408/253
f 258/398/249 260/409/253 263/410/254 254/399/247
f 260/408/253 261/407/252 391/411/255 262/412/256
f 260/409/253 262/413/256 264/414/257 263/410/254
f 263/415/254 264/416/257 266/417/258 265/418/259
f 254/396/247 263/415/254 265/418/259 252/395/246
f 252/395/246 265/418/259 206/317/202 208/318/203
f 265/418/259 266/417/258 268/306/191 206/317/202
f 264/416/257 270/419/260 267/420/261 266/417/258
f 266/417/258 267/420/261 196/303/188 268/306/191
f 267/420/261 269/421/262 194/302/187 196/303/188
f 270/419/260 272/422/263 269/421/262 267/420/261
f 271/423/264 273/424/265 272/425/263 270/426/260
f 262/413/256 271/423/264 270/426/260 264/414/257
f 273/424/265 276/427/266 274/428/267 272/425/263
f 272/422/263 274/429/267 277/430/268 269/421/262
f 274/429/267 275/431/269 278/432/270 277/430/268
f 276/427/266 286/433/271 275/434/269 274/428/267
f 277/430/268 278/432/270 279/287/175 192/301/186
f 269/421/262 277/430/268 192/301/186 194/302/187
f 278/432/270 280/279/171 180/282/172 279/287/175
f 275/431/269 281/435/272 280/279/171 278/432/270
f 281/435/272 282/436/273 179/280/168 280/279/171
f 283/437/272 285/438/274 282/439/273 281/440/272
f 286/433/271 283/437/272 281/440/272 275/434/269
f 286/441/271 287/442/275 284/443/171 283/444/272
f 283/444/272 284/443/171 723/445/276 285/446/274
f 290/447/277 287/442/275 286/441/271 276/448/266
f 284/443/171 287/442/275 288/449/278 731/450/171
f 288/451/278 287/452/275 289/453/279 297/454/280
f 287/455/275 290/456/277 292/457/281 289/458/279
f 291/459/282 290/447/277 276/448/266 273/460/265
f 290/456/277 291/461/282 293/462/283 292/457/281
f 292/463/281 293/464/283 295/465/284 294/466/285
f 289/467/279 292/463/281 294/466/285 297/468/280
f 294/466/285 295/465/284 397/469/286 296/470/287
f 297/468/280 294/466/285 296/470/287 298/471/288
f 299/472/289 288/451/278 297/454/280 298/473/288
f 301/474/290 299/472/289 298/473/288 300/475/291
f 298/471/288 296/470/287 303/476/292 300/477/291
f 702/478/293 301/474/290 300/475/291 302/479/294
f 300/477/291 303/476/292 305/480/295 302/481/294
f 296/470/287 397/469/286 304/482/296 303/476/292
f 303/476/292 304/482/296 306/483/297 305/480/295
f 305/480/295 306/483/297 308/484/298 307/485/299
f 305/480/295 307/485/299 309/486/300 302/481/294
f 313/487/301 310/488/302 307/489/299 308/490/298
f 310/491/302 312/492/303 309/493/300 307/494/299
f 313/487/301 316/495/304 311/496/305 310/488/302
f 310/488/302 311/496/305 737/497/305 312/498/303
f 314/499/306 318/500/307 316/501/304 313/502/301
f 399/503/308 314/504/306 313/505/301 315/506/309
f 315/507/309 313/508/301 308/509/298 306/510/297
f 316/495/304 317/511/310 739/512/311 311/496/305
f 318/500/307 319/513/312 317/514/310 316/501/304
f 320/515/313 321/516/314 319/517/312 318/518/307
f 323/519/315 320/515/313 318/518/307 314/504/306
f 322/520/252 651/521/316 321/516/314 320/515/313
f 325/522/252 322/520/252 320/515/313 323/519/315
f 326/523/317 325/522/252 323/519/315 324/524/318
f 324/524/318 323/519/315 314/504/306 399/503/308
f 328/525/319 327/526/251 325/522/252 326/523/317
f 327/526/251 330/527/251 322/520/252 325/522/252
f 403/528/320 329/529/250 327/526/251 328/525/319
f 329/529/250 332/530/250 330/527/251 327/526/251
f 330/527/251 331/531/321 651/521/316 322/520/252
f 332/530/250 333/532/322 331/531/321 330/527/251
f 334/533/171 335/534/323 333/532/322 332/530/250
f 336/535/171 334/533/171 332/530/250 329/529/250
f 337/536/324 338/537/325 335/534/323 334/533/171
f 340/538/326 337/536/324 334/533/171 336/535/171
f 339/539/327 404/540/328 338/537/325 337/536/324
f 341/541/329 339/539/327 337/536/324 340/538/326
f 343/542/330 341/541/329 340/538/326 342/543/331
f 342/543/331 340/538/326 336/535/171 344/544/171
f 346/545/332 343/542/330 342/543/331 345/546/333
f 345/546/333 342/543/331 344/544/171 348/547/171
f 358/548/334 346/545/332 345/546/333 347/549/335
f 347/549/335 345/546/333 348/547/171 350/550/171
f 348/547/171 344/544/171 403/528/320 349/551/336
f 350/550/171 348/547/171 349/551/336 351/552/337
f 352/553/171 350/550/171 351/552/337 353/554/250
f 355/555/338 347/549/335 350/550/171 352/553/171
f 354/406/171 352/553/171 353/554/250 256/402/250
f 357/382/239 355/555/338 352/553/171 354/406/171
f 356/556/339 358/548/334 347/549/335 355/555/338
f 243/378/236 356/556/339 355/555/338 357/382/239
f 244/383/240 357/382/239 354/406/171 257/405/242
f 359/557/340 360/558/341 358/548/334 356/556/339
f 241/374/235 359/557/340 356/556/339 243/378/236
f 361/559/342 363/560/343 360/558/341 359/557/340
f 239/373/234 361/559/342 359/557/340 241/374/235
f 365/561/344 363/562/343 361/563/342 362/76/4
f 362/76/4 361/563/342 239/376/234 48/74/4
f 366/564/345 364/565/346 363/562/343 365/561/344
f 363/560/343 364/566/346 382/567/347 360/558/341
f 368/568/348 366/564/345 365/561/344 367/569/349
f 367/569/349 365/561/344 362/76/4 49/73/9
f 367/569/349 49/73/9 46/69/13 369/570/350
f 368/568/348 367/569/349 369/570/350 370/571/351
f 370/571/351 369/570/350 371/572/35 29/573/32
f 369/570/350 46/69/13 39/70/47 371/572/35
f 373/574/352 368/568/348 370/571/351 372/575/353
f 372/575/353 370/571/351 29/573/32 27/576/30
f 373/574/352 372/575/353 374/577/13 375/578/9
f 374/577/13 372/575/353 27/576/30 25/579/31
f 9/14/9 375/578/9 374/577/13 11/19/13
f 11/19/13 374/577/13 25/579/31 753/21/14
f 376/580/4 378/581/354 373/574/352 375/578/9
f 9/14/9 5/4/4 376/580/4 375/578/9
f 376/580/4 377/582/355 379/583/356 378/581/354
f 5/4/4 2/3/3 377/582/355 376/580/4
f 378/581/354 379/583/356 364/565/346 366/564/345
f 373/574/352 378/581/354 366/564/345 368/568/348
f 379/584/356 377/585/355 381/586/357 380/587/358
f 364/566/346 379/584/356 380/587/358 382/567/347
f 380/587/358 381/586/357 341/541/329 343/542/330
f 382/567/347 380/587/358 343/542/330 346/545/332
f 360/558/341 382/567/347 346/545/332 358/548/334
f 381/586/357 383/8/6 339/539/327 341/541/329
f 377/585/355 2/5/3 383/8/6 381/586/357
f 383/8/6 3/7/5 404/540/328 339/539/327
f 353/554/250 351/552/337 385/588/359 384/589/251
f 256/402/250 353/554/250 384/589/251 259/403/251
f 384/589/251 385/588/359 387/590/360 386/591/252
f 259/403/251 384/589/251 386/591/252 261/407/252
f 386/591/252 387/590/360 389/592/361 388/593/362
f 261/407/252 386/591/252 388/593/362 391/411/255
f 388/593/362 389/592/361 393/594/363 390/595/364
f 391/411/255 388/593/362 390/595/364 392/596/365
f 262/412/256 391/411/255 392/596/365 271/597/264
f 271/597/264 392/596/365 291/459/282 273/460/265
f 392/596/365 390/595/364 394/598/366 291/459/282
f 390/595/364 393/594/363 395/599/367 394/598/366
f 394/600/366 395/601/367 397/602/286 295/603/284
f 291/604/282 394/600/366 295/603/284 293/605/283
f 395/601/367 396/606/368 304/607/296 397/602/286
f 393/594/363 398/608/369 396/609/368 395/599/367
f 398/608/369 399/503/308 315/506/309 396/609/368
f 396/606/368 315/507/309 306/510/297 304/607/296
f 400/610/370 324/524/318 399/503/308 398/608/369
f 389/592/361 400/610/370 398/608/369 393/594/363
f 401/611/371 326/523/317 324/524/318 400/610/370
f 387/590/360 401/611/371 400/610/370 389/592/361
f 402/612/372 328/525/319 326/523/317 401/611/371
f 385/588/359 402/612/372 401/611/371 387/590/360
f 349/551/336 403/528/320 328/525/319 402/612/372
f 351/552/337 349/551/336 402/612/372 385/588/359
f 344/544/171 336/535/171 329/529/250 403/528/320
f 338/613/325 404/614/328 405/615/17 407/616/22
f 404/614/328 3/11/5 6/10/7 405/615/17
f 405/615/17 6/10/7 8/16/10 406/26/17
f 407/616/22 405/615/17 406/26/17 409/617/22
f 335/618/323 338/613/325 407/616/22 408/619/373
f 408/619/373 407/616/22 409/617/22 410/620/373
f 412/621/373 410/620/373 409/617/22 411/35/22
f 411/35/22 409/617/22 406/26/17 14/25/17
f 413/622/374 412/621/373 411/35/22 18/34/21
f 414/623/375 415/624/375 410/620/373 412/621/373
f 417/625/376 414/623/375 412/621/373 413/622/374
f 416/626/55 652/627/55 415/624/375 414/623/375
f 419/628/377 416/626/55 414/623/375 417/625/376
f 418/629/378 420/630/379 419/631/377 417/632/376
f 532/633/145 418/629/378 417/632/376 413/634/374
f 420/630/379 422/635/380 421/636/381 419/631/377
f 421/637/381 424/638/55 416/626/55 419/628/377
f 422/635/380 541/639/382 423/640/383 421/636/381
f 423/641/383 426/642/55 424/638/55 421/637/381
f 426/642/55 427/643/55 425/644/55 424/638/55
f 424/638/55 425/644/55 652/627/55 416/626/55
f 428/645/55 429/646/55 427/643/55 426/642/55
f 431/647/384 428/645/55 426/642/55 423/641/383
f 430/648/385 645/649/385 429/646/55 428/645/55
f 433/650/386 430/648/385 428/645/55 431/647/384
f 432/651/387 434/652/388 433/653/386 431/654/384
f 541/639/382 432/655/387 431/656/384 423/640/383
f 434/657/388 439/658/305 436/659/311 433/660/386
f 435/661/389 641/662/389 430/663/385 433/660/386
f 436/659/311 437/664/389 435/661/389 433/660/386
f 438/665/311 605/666/389 437/664/389 436/659/311
f 439/658/305 440/667/305 438/665/311 436/659/311
f 441/668/390 442/669/391 440/667/305 439/658/305
f 444/670/392 441/668/390 439/658/305 434/657/388
f 441/671/390 443/672/393 742/673/394 442/674/391
f 444/670/392 447/675/395 443/676/393 441/668/390
f 445/677/396 448/678/397 447/679/395 444/680/392
f 539/681/398 445/682/396 444/683/392 446/684/399
f 446/685/399 444/686/392 434/652/388 432/651/387
f 448/687/397 449/688/400 443/689/393 447/690/395
f 453/691/401 449/688/400 448/687/397 450/692/402
f 451/693/403 450/694/402 448/678/397 445/677/396
f 472/695/404 452/696/405 450/694/402 451/693/403
f 454/697/406 453/691/401 450/692/402 452/698/405
f 455/699/407 456/700/408 449/688/400 453/691/401
f 458/701/409 455/699/407 453/691/401 454/697/406
f 594/702/410 456/703/408 455/704/407 457/705/411
f 457/705/411 455/704/407 458/706/409 459/707/412
f 459/707/412 458/706/409 460/708/413 461/709/414
f 460/710/413 458/701/409 454/697/406 463/711/415
f 461/709/414 460/708/413 462/712/416 567/713/417
f 462/714/416 460/710/413 463/711/415 465/715/418
f 463/711/415 454/697/406 452/698/405 464/716/419
f 465/715/418 463/711/415 464/716/419 467/717/420
f 567/718/417 462/719/416 465/720/418 466/721/421
f 466/721/421 465/720/418 467/722/420 468/723/422
f 468/724/422 467/725/420 464/726/419 471/727/423
f 468/728/422 469/729/141 145/730/142 466/731/421
f 489/732/424 469/729/141 468/728/422 470/733/425
f 470/733/425 468/728/422 471/734/423 473/735/426
f 471/727/423 464/726/419 452/696/405 472/695/404
f 473/735/426 471/734/423 472/736/404 475/737/427
f 487/738/428 470/733/425 473/735/426 474/739/429
f 474/739/429 473/735/426 475/737/427 477/740/430
f 475/737/427 472/736/404 451/741/403 476/742/431
f 477/740/430 475/737/427 476/742/431 478/743/432
f 479/744/433 477/740/430 478/743/432 480/745/434
f 482/746/380 474/739/429 477/740/430 479/744/433
f 481/747/435 479/744/433 480/745/434 537/748/436
f 483/749/379 482/746/380 479/744/433 481/747/435
f 486/750/379 484/751/380 482/746/380 483/749/379
f 484/751/380 487/738/428 474/739/429 482/746/380
f 485/752/437 488/753/438 487/738/428 484/751/380
f 501/754/439 485/752/437 484/751/380 486/750/379
f 488/753/438 489/732/424 470/733/425 487/738/428
f 485/755/437 492/756/440 490/757/441 488/758/438
f 488/758/438 490/757/441 491/759/136 489/760/424
f 490/761/441 493/762/442 140/213/133 491/216/136
f 492/763/440 495/764/443 493/762/442 490/761/441
f 495/764/443 496/765/444 494/766/445 493/762/442
f 493/762/442 494/766/445 138/212/132 140/213/133
f 497/767/446 498/768/447 496/765/444 495/764/443
f 500/769/448 497/767/446 495/764/443 492/763/440
f 499/770/449 557/771/450 498/768/447 497/767/446
f 502/772/451 499/770/449 497/767/446 500/769/448
f 503/773/452 502/774/451 500/775/448 501/776/439
f 501/776/439 500/775/448 492/756/440 485/755/437
f 505/777/453 504/778/454 502/774/451 503/773/452
f 504/779/454 507/780/145 499/770/449 502/772/451
f 517/781/455 506/782/456 504/778/454 505/777/453
f 506/783/456 509/784/457 507/780/145 504/779/454
f 509/784/457 510/785/458 508/786/459 507/780/145
f 507/780/145 508/786/459 557/771/450 499/770/449
f 511/787/460 512/788/461 510/785/458 509/784/457
f 514/789/462 511/787/460 509/784/457 506/783/456
f 513/790/463 542/791/464 512/788/461 511/787/460
f 516/792/465 513/790/463 511/787/460 514/789/462
f 41/793/48 516/794/465 514/795/462 515/796/49
f 515/796/49 514/795/462 506/782/456 517/781/455
f 516/797/465 55/85/57 543/88/59 513/798/463
f 43/84/50 55/83/57 516/794/465 41/793/48
f 515/63/49 517/799/455 518/58/44 37/57/43
f 517/799/455 505/800/453 519/801/145 518/58/44
f 518/58/44 519/801/145 521/802/145 36/55/41
f 519/801/145 520/803/378 522/804/378 521/802/145
f 505/800/453 503/805/452 520/803/378 519/801/145
f 521/802/145 522/804/378 524/806/466 523/807/145
f 36/55/41 521/802/145 523/807/145 34/52/38
f 523/807/145 524/806/466 526/808/467 525/809/145
f 34/52/38 523/807/145 525/809/145 32/53/39
f 525/809/145 526/808/467 528/810/468 527/811/145
f 32/53/39 525/809/145 527/811/145 530/42/28
f 527/811/145 528/810/468 531/812/378 529/813/145
f 527/811/145 529/813/145 22/39/25 530/42/28
f 529/813/145 531/812/378 418/629/378 532/633/145
f 22/39/25 529/813/145 532/633/145 20/36/23
f 20/36/23 532/633/145 413/634/374 18/37/21
f 531/812/378 533/814/379 420/630/379 418/629/378
f 528/810/468 535/815/469 533/814/379 531/812/378
f 533/814/379 534/816/380 422/635/380 420/630/379
f 535/815/469 536/817/470 534/816/380 533/814/379
f 537/748/436 480/745/434 536/817/470 535/815/469
f 526/808/467 537/748/436 535/815/469 528/810/468
f 524/806/466 481/747/435 537/748/436 526/808/467
f 480/745/434 478/743/432 538/818/471 536/817/470
f 536/817/470 538/818/471 540/819/472 534/816/380
f 478/743/432 476/742/431 539/681/398 538/818/471
f 538/818/471 539/681/398 446/684/399 540/819/472
f 540/819/472 446/684/399 432/655/387 541/639/382
f 534/816/380 540/819/472 541/639/382 422/635/380
f 476/742/431 451/741/403 445/682/396 539/681/398
f 522/804/378 483/749/379 481/747/435 524/806/466
f 520/803/378 486/750/379 483/749/379 522/804/378
f 503/805/452 501/754/439 486/750/379 520/803/378
f 513/798/463 543/88/59 544/820/473 542/821/464
f 543/88/59 56/87/58 66/822/70 544/820/473
f 544/820/473 66/822/70 68/142/72 545/141/87
f 542/821/464 544/820/473 545/141/87 546/823/474
f 546/823/474 545/141/87 82/144/88 547/824/475
f 546/825/474 547/826/475 549/827/476 548/828/477
f 542/791/464 546/825/474 548/828/477 512/788/461
f 549/829/476 84/830/89 550/831/478 548/832/477
f 548/832/477 550/831/478 551/833/479 512/834/461
f 554/835/480 551/836/479 550/837/478 552/838/481
f 552/838/481 550/837/478 84/839/89 87/840/91
f 555/841/482 554/835/480 552/838/481 553/842/483
f 553/842/483 552/838/481 87/840/91 89/843/93
f 512/788/461 551/836/479 554/835/480 510/785/458
f 510/785/458 554/835/480 555/841/482 508/786/459
f 508/786/459 555/841/482 556/844/484 557/771/450
f 556/844/484 555/841/482 553/842/483 559/845/485
f 557/771/450 556/844/484 558/846/486 498/768/447
f 558/846/486 556/844/484 559/845/485 560/847/487
f 559/845/485 553/842/483 89/843/93 92/848/95
f 560/847/487 559/845/485 92/848/95 96/849/97
f 563/850/488 558/846/486 560/847/487 561/851/489
f 561/851/489 560/847/487 96/849/97 99/852/98
f 564/853/490 563/850/488 561/851/489 562/854/491
f 562/854/491 561/851/489 99/852/98 565/855/100
f 498/768/447 558/846/486 563/850/488 496/765/444
f 496/765/444 563/850/488 564/853/490 494/766/445
f 494/766/445 564/853/490 136/210/130 138/212/132
f 136/210/130 564/853/490 562/854/491 566/211/131
f 566/211/131 562/854/491 565/855/100 108/856/102
f 132/205/126 566/211/131 108/856/102 110/206/103
f 547/857/475 82/145/88 84/146/89 549/858/476
f 489/760/424 491/759/136 141/222/137 469/221/141
f 466/731/421 145/730/142 147/859/143 567/860/417
f 568/861/145 570/862/145 461/863/414 567/860/417
f 147/859/143 149/864/144 568/861/145 567/860/417
f 569/865/492 572/866/493 570/862/145 568/861/145
f 149/864/144 741/867/147 569/865/492 568/861/145
f 570/862/145 571/868/494 459/869/412 461/863/414
f 572/866/493 573/870/495 571/868/494 570/862/145
f 572/871/493 574/872/496 576/873/497 573/874/495
f 569/875/492 577/876/498 574/872/496 572/871/493
f 577/876/498 578/877/498 575/878/499 574/872/496
f 574/872/496 575/878/499 586/879/500 576/873/497
f 159/880/155 161/881/155 578/877/498 577/876/498
f 741/882/147 159/880/155 577/876/498 569/875/492
f 161/881/155 163/883/155 579/884/498 578/877/498
f 578/877/498 579/884/498 581/885/501 575/878/499
f 579/884/498 580/886/502 582/887/503 581/885/501
f 163/883/155 716/888/157 580/886/502 579/884/498
f 581/885/501 582/887/503 584/889/504 583/890/505
f 575/878/499 581/885/501 583/890/505 586/879/500
f 583/890/505 584/889/504 725/891/506 585/892/507
f 586/879/500 583/890/505 585/892/507 587/893/508
f 576/873/497 586/879/500 587/893/508 589/894/509
f 587/895/508 585/896/507 728/897/510 588/898/511
f 589/899/509 587/895/508 588/898/511 590/900/512
f 591/901/513 589/899/509 590/900/512 593/902/514
f 573/874/495 576/873/497 589/894/509 591/903/513
f 592/904/515 596/905/516 594/906/410 591/901/513
f 592/904/515 591/901/513 593/902/514 740/907/517
f 591/908/513 594/909/410 457/910/411 595/911/518
f 573/870/495 591/908/513 595/911/518 571/868/494
f 571/868/494 595/911/518 457/910/411 459/869/412
f 442/669/391 742/912/394 456/703/408 594/702/410
f 598/913/519 442/669/391 594/702/410 596/914/516
f 596/915/516 592/916/515 740/917/517 597/918/520
f 598/919/519 596/915/516 597/918/520 599/920/521
f 598/919/519 599/920/521 601/921/522 600/922/523
f 442/669/391 598/913/519 600/923/523 440/667/305
f 600/922/523 601/921/522 603/924/145 602/925/524
f 440/667/305 600/923/523 602/926/524 438/665/311
f 603/924/145 606/927/525 604/928/526 602/925/524
f 602/926/524 604/929/526 605/666/389 438/665/311
f 606/930/525 607/931/527 605/932/389 604/933/526
f 608/934/528 610/935/529 607/931/527 606/930/525
f 603/924/145 609/936/530 608/937/528 606/927/525
f 609/938/530 611/939/531 610/940/529 608/941/528
f 611/939/531 615/942/531 612/943/529 610/940/529
f 610/935/529 612/944/529 614/945/527 607/931/527
f 615/942/531 616/946/531 613/947/529 612/943/529
f 612/944/529 613/948/529 642/949/527 614/945/527
f 617/950/532 618/951/532 616/946/531 615/942/531
f 620/952/532 617/950/532 615/942/531 611/939/531
f 619/953/533 630/954/534 618/955/532 617/956/532
f 622/957/535 619/953/533 617/956/532 620/958/532
f 601/959/522 622/957/535 620/958/532 621/960/536
f 621/961/536 620/952/532 611/939/531 609/938/530
f 623/962/537 625/963/538 619/964/533 622/965/535
f 599/966/521 623/962/537 622/965/535 601/967/522
f 597/968/520 624/969/539 623/962/537 599/966/521
f 626/970/540 625/963/538 623/962/537 624/969/539
f 626/970/540 629/971/541 627/972/542 625/963/538
f 625/963/538 627/972/542 630/973/534 619/964/533
f 627/972/542 628/974/543 631/975/544 630/973/534
f 729/976/545 628/974/543 627/972/542 629/971/541
f 630/954/534 631/977/544 633/978/532 618/955/532
f 628/974/543 730/979/546 632/980/547 631/975/544
f 631/977/544 632/981/547 634/982/532 633/978/532
f 633/983/532 634/984/532 636/985/531 635/986/531
f 618/951/532 633/983/532 635/986/531 616/946/531
f 635/986/531 636/985/531 638/987/529 637/988/529
f 616/946/531 635/986/531 637/988/529 613/947/529
f 637/989/529 638/990/529 640/991/527 639/992/527
f 613/948/529 637/989/529 639/992/527 642/949/527
f 639/992/527 640/991/527 643/993/389 641/994/389
f 642/949/527 639/992/527 641/994/389 435/995/389
f 614/945/527 642/949/527 435/995/389 437/996/389
f 641/662/389 643/997/389 645/998/385 430/663/385
f 644/999/389 646/1000/385 645/998/385 643/997/389
f 654/1001/527 644/1002/389 643/993/389 640/991/527
f 646/1003/385 647/1004/55 429/646/55 645/649/385
f 655/1005/389 317/511/310 646/1000/385 644/999/389
f 317/1006/310 319/1007/312 647/1004/55 646/1003/385
f 647/1004/55 648/1008/55 427/643/55 429/646/55
f 319/1007/312 321/1009/314 648/1008/55 647/1004/55
f 321/1009/314 651/1010/316 649/1011/55 648/1008/55
f 648/1008/55 649/1011/55 425/644/55 427/643/55
f 651/1010/316 331/1012/321 650/1013/55 649/1011/55
f 649/1011/55 650/1013/55 652/627/55 425/644/55
f 650/1013/55 653/1014/375 415/624/375 652/627/55
f 331/1012/321 333/1015/322 653/1014/375 650/1013/55
f 653/1014/375 408/619/373 410/620/373 415/624/375
f 333/1015/322 335/618/323 408/619/373 653/1014/375
f 657/1016/527 655/1017/389 644/1002/389 654/1001/527
f 739/512/311 317/511/310 655/1005/389 656/1018/389
f 658/1019/527 656/1020/389 655/1017/389 657/1016/527
f 660/1021/529 658/1019/527 657/1016/527 659/1022/529
f 659/1022/529 657/1016/527 654/1001/527 661/1023/529
f 665/1024/531 660/1025/529 659/1026/529 662/1027/531
f 662/1027/531 659/1026/529 661/1028/529 664/1029/531
f 666/1030/532 665/1024/531 662/1027/531 663/1031/532
f 663/1031/532 662/1027/531 664/1029/531 736/1032/532
f 667/1033/531 670/1034/529 660/1025/529 665/1024/531
f 669/1035/532 667/1033/531 665/1024/531 666/1030/532
f 668/1036/548 671/1037/549 670/1034/529 667/1033/531
f 681/1038/550 668/1036/548 667/1033/531 669/1035/532
f 671/1039/549 674/1040/551 672/1041/527 670/1042/529
f 670/1042/529 672/1041/527 658/1019/527 660/1021/529
f 672/1041/527 673/1043/389 656/1020/389 658/1019/527
f 674/1040/551 675/1044/552 673/1043/389 672/1041/527
f 676/1045/171 677/1046/553 675/1047/552 674/1048/551
f 676/1045/171 674/1048/551 671/1049/549 668/1050/548
f 679/1051/554 677/1046/553 676/1045/171 678/1052/555
f 678/1052/555 676/1045/171 668/1050/548 681/1053/550
f 734/1054/556 679/1051/554 678/1052/555 680/1055/557
f 680/1056/557 678/1057/555 682/1058/558 683/1059/559
f 678/1060/555 681/1061/550 669/1062/532 682/1063/558
f 683/1059/559 682/1058/558 684/1064/560 686/1065/561
f 682/1063/558 669/1062/532 666/1066/532 684/1067/560
f 684/1067/560 666/1066/532 663/1068/532 685/1069/562
f 686/1065/561 684/1064/560 685/1070/562 688/1071/563
f 698/1072/564 683/1059/559 686/1065/561 687/1073/565
f 687/1073/565 686/1065/561 688/1071/563 690/1074/566
f 688/1071/563 685/1070/562 735/1075/567 689/1076/568
f 688/1071/563 689/1076/568 691/1077/569 690/1074/566
f 692/1078/570 690/1074/566 691/1077/569 693/1079/571
f 695/1080/572 687/1073/565 690/1074/566 692/1078/570
f 694/1081/573 692/1082/570 693/1083/571 724/1084/574
f 696/1085/575 695/1086/572 692/1082/570 694/1081/573
f 700/1087/576 697/1088/577 695/1086/572 696/1085/575
f 697/1089/577 698/1072/564 687/1073/565 695/1080/572
f 699/1090/578 733/1091/579 698/1072/564 697/1089/577
f 701/1092/580 699/1093/578 697/1088/577 700/1087/576
f 701/1092/580 700/1087/576 702/1094/293 732/1095/581
f 700/1096/576 703/1097/582 301/1098/290 702/1099/293
f 704/1100/583 705/1101/584 703/1097/582 700/1096/576
f 704/1102/583 700/1103/576 696/1104/575 707/1105/585
f 706/1106/586 731/450/171 705/1101/584 704/1100/583
f 706/1107/586 704/1102/583 707/1105/585 708/1108/587
f 708/1108/587 707/1105/585 709/1109/588 711/1110/589
f 707/1105/585 696/1104/575 694/1111/573 709/1109/588
f 709/1109/588 694/1111/573 724/1112/574 710/1113/590
f 711/1110/589 709/1109/588 710/1113/590 713/1114/591
f 721/1115/592 708/1108/587 711/1110/589 712/1116/592
f 712/1116/592 711/1110/589 713/1114/591 714/1117/592
f 713/1114/591 710/1113/590 584/889/504 582/887/503
f 714/1117/592 713/1114/591 582/887/503 580/886/502
f 718/1118/593 712/1116/592 714/1117/592 715/1119/593
f 715/1119/593 714/1117/592 580/886/502 716/888/157
f 715/1120/593 716/255/157 164/254/156 717/1121/161
f 718/1122/593 715/1120/593 717/1121/161 719/1123/161
f 720/1124/593 718/1122/593 719/1123/161 722/1125/161
f 720/1126/593 721/1115/592 712/1116/592 718/1118/593
f 285/1127/274 723/1128/276 721/1115/592 720/1126/593
f 285/438/274 720/1124/593 722/1125/161 282/439/273
f 722/1129/161 719/1130/161 174/266/162 176/273/162
f 282/1131/273 722/1129/161 176/273/162 179/275/168
f 723/1128/276 706/1107/586 708/1108/587 721/1115/592
f 723/445/276 284/443/171 731/450/171 706/1106/586
f 719/1130/161 717/260/161 168/261/162 174/266/162
f 710/1113/590 724/1112/574 725/891/506 584/889/504
f 724/1084/574 693/1083/571 726/1132/594 725/1133/506
f 585/896/507 725/1133/506 726/1132/594 728/897/510
f 693/1079/571 691/1077/569 727/1134/595 726/1135/594
f 728/1136/510 726/1135/594 727/1134/595 729/976/545
f 588/1137/511 728/1136/510 729/976/545 629/971/541
f 729/976/545 727/1134/595 730/979/546 628/974/543
f 691/1077/569 689/1076/568 730/979/546 727/1134/595
f 689/1076/568 735/1075/567 632/980/547 730/979/546
f 731/450/171 288/449/278 299/1138/289 705/1101/584
f 705/1101/584 299/1138/289 301/1098/290 703/1097/582
f 734/1139/556 732/1140/581 702/478/293 312/498/303
f 312/498/303 702/478/293 302/479/294 309/1141/300
f 734/1054/556 680/1055/557 733/1142/579 732/1143/581
f 732/1143/581 733/1142/579 699/1144/578 701/1145/580
f 312/498/303 737/497/305 679/1146/554 734/1139/556
f 733/1091/579 680/1056/557 683/1059/559 698/1072/564
f 685/1069/562 663/1068/532 736/1147/532 735/1148/567
f 735/1148/567 736/1147/532 634/982/532 632/981/547
f 736/1032/532 664/1029/531 636/985/531 634/984/532
f 737/497/305 738/1149/311 677/1150/553 679/1146/554
f 311/496/305 739/512/311 738/1149/311 737/497/305
f 677/1150/553 738/1149/311 673/1151/389 675/1152/552
f 738/1149/311 739/512/311 656/1018/389 673/1151/389
f 664/1029/531 661/1028/529 638/987/529 636/985/531
f 661/1023/529 654/1001/527 640/991/527 638/990/529
f 590/1153/512 588/1137/511 629/971/541 626/970/540
f 593/1154/514 590/1153/512 626/970/540 624/969/539
f 740/1155/517 593/1154/514 624/969/539 597/968/520
f 601/921/522 621/1156/536 609/936/530 603/924/145
f 607/931/527 614/945/527 437/996/389 605/932/389
f 742/1157/394 443/689/393 449/688/400 456/700/408
f 743/352/90 217/351/212 215/1158/211 744/1159/92
f 80/131/83 77/130/83 743/352/90 86/149/90
f 86/149/90 743/352/90 744/1159/92 90/150/92
f 744/1159/92 215/1158/211 213/1160/210 745/1161/94
f 90/150/92 744/1159/92 745/1161/94 93/155/94
f 745/1161/94 213/1160/210 747/1162/199 746/165/96
f 93/155/94 745/1161/94 746/165/96 95/158/96
f 746/165/96 747/1162/199 203/1163/196 101/166/96
f 101/166/96 203/1163/196 201/1164/195 103/167/99
f 103/167/99 201/1164/195 199/1165/194 105/168/101
f 105/168/101 199/1165/194 748/1166/183 749/171/101
f 749/171/101 748/1166/183 189/1167/180 115/182/101
f 115/182/101 189/1167/180 187/292/179 117/183/108
f 117/183/108 187/292/179 185/291/178 119/184/109
f 119/184/109 185/291/178 173/271/165 171/187/112
f 750/243/154 124/1168/115 122/265/114 166/258/159
f 156/1169/151 127/192/117 124/190/115 750/1170/154
f 154/1171/150 751/195/120 127/192/117 156/1169/151
f 152/235/149 128/1172/121 751/1173/120 154/236/150
f 752/209/129 130/202/122 128/1172/121 152/235/149
