# Blender 4.0.2
# www.blender.org
mtllib M249_part_14.mtl
o M249_part_14
v -0.010634 0.029566 -0.161800
v -0.009865 0.038190 -0.161448
v 0.000000 0.029566 -0.155508
v -0.010880 0.019564 -0.163516
v -0.012988 0.029566 -0.192424
v -0.012049 0.038190 -0.195803
v -0.010634 0.029566 -0.223048
v -0.013290 0.019564 -0.190504
v -0.010880 0.019564 -0.217492
v -0.014179 0.001381 -0.196238
v -0.011609 0.001381 -0.224149
v -0.016164 -0.025894 -0.208161
v -0.011609 0.001381 -0.168327
v 0.000000 0.001381 -0.163809
v -0.013234 -0.025894 -0.177121
v 0.000000 -0.025894 -0.174243
v -0.014728 -0.049798 -0.188049
v 0.000000 -0.049798 -0.183291
v -0.015760 -0.065685 -0.193905
v -0.017989 -0.049798 -0.219426
v -0.014728 -0.049798 -0.250804
v -0.019250 -0.065685 -0.226863
v -0.015760 -0.065685 -0.259821
v -0.020005 -0.072922 -0.225953
v -0.016379 -0.070029 -0.261363
v -0.018723 -0.081308 -0.221113
v -0.016379 -0.075815 -0.190542
v 0.000000 -0.075815 -0.185428
v -0.015329 -0.084201 -0.190192
v 0.000000 -0.084201 -0.184351
v -0.009841 -0.092814 -0.195434
v 0.000000 -0.092814 -0.193573
v -0.011420 -0.086961 -0.220551
v -0.008858 -0.081108 -0.245668
v 0.000000 -0.086961 -0.221999
v 0.011420 -0.086961 -0.220551
v 0.000000 -0.081108 -0.250425
v 0.008858 -0.081108 -0.245668
v 0.000000 -0.078415 -0.257630
v 0.015329 -0.078415 -0.252034
v 0.000000 -0.070029 -0.268188
v -0.015329 -0.078415 -0.252034
v 0.016379 -0.070029 -0.261363
v 0.000000 -0.065685 -0.266442
v 0.015760 -0.065685 -0.259821
v 0.000000 -0.049798 -0.257818
v 0.014728 -0.049798 -0.250804
v 0.000000 -0.025894 -0.244686
v 0.013234 -0.025894 -0.239200
v 0.000000 0.001381 -0.228652
v -0.013234 -0.025894 -0.239200
v 0.011609 0.001381 -0.224149
v 0.000000 0.019564 -0.221117
v 0.010880 0.019564 -0.217492
v 0.000000 0.029566 -0.226141
v 0.000000 0.038190 -0.234189
v 0.010634 0.029566 -0.223048
v 0.009865 0.038190 -0.230159
v 0.012988 0.029566 -0.192424
v 0.012049 0.038190 -0.195803
v 0.010634 0.029566 -0.161800
v 0.013290 0.019564 -0.190504
v 0.010880 0.019564 -0.163516
v 0.014179 0.001381 -0.196238
v 0.011609 0.001381 -0.168327
v 0.016164 -0.025894 -0.208161
v 0.013234 -0.025894 -0.177121
v 0.017989 -0.049798 -0.219426
v 0.014728 -0.049798 -0.188049
v 0.019250 -0.065685 -0.226863
v 0.015760 -0.065685 -0.193905
v 0.020005 -0.072922 -0.225953
v 0.016379 -0.075815 -0.190542
v 0.018723 -0.081308 -0.221113
v 0.015329 -0.084201 -0.190192
v 0.009841 -0.092814 -0.195434
v 0.000000 -0.065685 -0.188172
v 0.000000 0.019564 -0.157247
v 0.009865 0.038190 -0.161448
v 0.000000 0.038190 -0.155109
v 0.000000 0.038190 -0.194649
v -0.009865 0.038190 -0.230159
vn -0.8450 -0.0073 0.5347
vn -0.6483 0.6387 0.4144
vn -0.6936 0.7202 -0.0115
vn -0.9987 0.0501 0.0032
vn -0.0000 -0.0879 0.9961
vn -0.0000 0.5967 0.8025
vn -0.8250 -0.1086 0.5546
vn -0.0000 -0.2233 0.9747
vn -0.9995 0.0278 0.0138
vn -0.6258 0.4087 -0.6643
vn -0.8009 -0.2899 -0.5239
vn -0.8605 0.0063 -0.5093
vn -0.7869 0.2932 -0.5430
vn -0.9984 0.0565 0.0035
vn -0.7888 -0.1620 0.5929
vn -0.7734 0.3352 -0.5380
vn -0.9976 0.0693 0.0019
vn -0.7569 -0.1978 0.6229
vn -0.0000 -0.3067 0.9518
vn -0.0000 -0.3508 0.9364
vn -0.7797 -0.1800 0.5998
vn -0.0000 -0.3474 0.9377
vn -0.9973 0.0731 0.0010
vn -0.8373 0.0482 0.5446
vn -0.0000 -0.0077 1.0000
vn -0.9946 0.1027 -0.0158
vn -0.7864 0.3263 -0.5246
vn -0.7630 0.3170 -0.5634
vn -0.7289 -0.1904 -0.6576
vn -0.9989 -0.0432 -0.0189
vn -0.7714 0.0973 0.6288
vn -0.6437 -0.6895 -0.3319
vn -0.8665 -0.4971 -0.0457
vn -0.7118 -0.3870 0.5862
vn -0.0000 0.1778 0.9841
vn -0.0000 -0.3131 0.9497
vn -0.3767 -0.9046 0.1997
vn -0.0000 -0.9384 0.3456
vn -0.3560 -0.9196 -0.1663
vn -0.0000 -0.9766 -0.2153
vn -0.2250 -0.9453 -0.2362
vn -0.0000 -0.9601 -0.2795
vn 0.2250 -0.9453 -0.2362
vn 0.3560 -0.9196 -0.1663
vn 0.3767 -0.9046 0.1997
vn -0.0000 -0.8582 -0.5133
vn 0.6437 -0.6895 -0.3319
vn -0.0000 -0.2149 -0.9766
vn 0.7289 -0.1904 -0.6576
vn -0.0000 0.4312 -0.9023
vn 0.7630 0.3170 -0.5634
vn -0.0000 0.4839 -0.8751
vn 0.7864 0.3263 -0.5246
vn -0.0000 0.4842 -0.8749
vn 0.7734 0.3352 -0.5380
vn -0.0000 0.4440 -0.8960
vn 0.7869 0.2932 -0.5430
vn -0.0000 -0.0592 -0.9982
vn 0.8605 0.0063 -0.5093
vn -0.0000 -0.5724 -0.8200
vn 0.8009 -0.2899 -0.5239
vn -0.0000 0.3473 -0.9377
vn 0.6259 0.4087 -0.6643
vn 0.6936 0.7202 -0.0115
vn 0.9987 0.0501 0.0032
vn 0.9995 0.0278 0.0138
vn 0.6483 0.6387 0.4144
vn 0.8450 -0.0073 0.5347
vn 0.8250 -0.1086 0.5546
vn 0.7888 -0.1620 0.5929
vn 0.9984 0.0565 0.0035
vn 0.7569 -0.1978 0.6229
vn 0.9976 0.0693 0.0019
vn 0.7797 -0.1800 0.5998
vn 0.9973 0.0731 0.0010
vn 0.8373 0.0482 0.5446
vn 0.9946 0.1027 -0.0158
vn 0.7714 0.0973 0.6288
vn 0.9989 -0.0432 -0.0189
vn 0.7118 -0.3870 0.5862
vn 0.8665 -0.4971 -0.0457
vn -0.0000 1.0000 -0.0000
vt 0.578916 0.114615
vt 0.577292 0.122203
vt 0.547382 0.114516
vt 0.552257 0.107763
vt 0.152485 0.712605
vt 0.152484 0.720357
vt 0.143624 0.720362
vt 0.142933 0.712609
vt 0.142714 0.703618
vt 0.152487 0.703613
vt 0.556168 0.099483
vt 0.579661 0.105521
vt 0.517459 0.106830
vt 0.525583 0.100912
vt 0.532660 0.093445
vt 0.530933 0.076122
vt 0.555246 0.082366
vt 0.579542 0.088611
vt 0.523934 0.049004
vt 0.550972 0.055947
vt 0.577992 0.062892
vt 0.142066 0.687273
vt 0.152497 0.687270
vt 0.140618 0.662757
vt 0.152512 0.662755
vt 0.139291 0.641273
vt 0.152525 0.641270
vt 0.546516 0.032611
vt 0.573828 0.039632
vt 0.138371 0.626994
vt 0.152532 0.626990
vt 0.543598 0.017113
vt 0.572286 0.024488
vt 0.519183 0.025592
vt 0.514888 0.009741
vt 0.514519 0.005612
vt 0.546013 0.011015
vt 0.577483 0.016418
vt 0.524515 0.000397
vt 0.552099 0.004795
vt 0.579661 0.009194
vt 0.137811 0.617884
vt 0.152529 0.617880
vt 0.138754 0.610344
vt 0.152527 0.610340
vt 0.143696 0.602605
vt 0.152540 0.602603
vt 0.553830 0.000000
vt 0.577006 0.000523
vt 0.329670 0.788700
vt 0.319496 0.790596
vt 0.318010 0.765067
vt 0.326940 0.766223
vt 0.328683 0.811392
vt 0.320981 0.816124
vt 0.336255 0.788837
vt 0.334824 0.816775
vt 0.312783 0.812318
vt 0.309170 0.789893
vt 0.309275 0.767252
vt 0.321358 0.822598
vt 0.307308 0.818377
vt 0.321911 0.832096
vt 0.306854 0.826827
vt 0.336255 0.825115
vt 0.616843 0.787169
vt 0.631150 0.787223
vt 0.631672 0.791116
vt 0.616804 0.791060
vt 0.602819 0.787223
vt 0.602230 0.791116
vt 0.617031 0.772956
vt 0.630419 0.773013
vt 0.603944 0.773013
vt 0.617317 0.751573
vt 0.629330 0.751617
vt 0.605540 0.751617
vt 0.617667 0.727182
vt 0.628198 0.727219
vt 0.607329 0.727219
vt 0.617832 0.710896
vt 0.627689 0.710926
vt 0.608131 0.710926
vt 0.617726 0.701863
vt 0.627350 0.701888
vt 0.608235 0.701888
vt 0.608775 0.694078
vt 0.617555 0.694045
vt 0.626508 0.694078
vt 0.487189 0.410726
vt 0.479065 0.404806
vt 0.508989 0.397124
vt 0.513863 0.403879
vt 0.517774 0.412160
vt 0.494266 0.418193
vt 0.538898 0.389433
vt 0.540523 0.397023
vt 0.541267 0.406117
vt 0.541148 0.423028
vt 0.516852 0.429278
vt 0.492539 0.435517
vt 0.539598 0.448750
vt 0.512578 0.455700
vt 0.485540 0.462639
vt 0.535435 0.472013
vt 0.508122 0.479039
vt 0.480789 0.486053
vt 0.533893 0.487159
vt 0.505205 0.494539
vt 0.476495 0.501906
vt 0.539090 0.495229
vt 0.507619 0.500639
vt 0.476125 0.506036
vt 0.541267 0.502451
vt 0.513705 0.506857
vt 0.486122 0.511249
vt 0.538612 0.511113
vt 0.515436 0.511639
vt 0.302645 0.790793
vt 0.167261 0.617884
vt 0.166317 0.610344
vt 0.161391 0.602605
vt 0.166710 0.626994
vt 0.165774 0.641273
vt 0.164415 0.662757
vt 0.162941 0.687273
vt 0.162279 0.703618
vt 0.162054 0.712609
vt 0.161362 0.720362
vt 0.684278 0.350855
vt 0.673401 0.350507
vt 0.671146 0.315042
vt 0.680359 0.320164
vt 0.662656 0.352230
vt 0.662656 0.321290
vt 0.675657 0.385972
vt 0.666576 0.382921
vt 0.684278 0.381795
s 1
usemtl M249_Gun
f 1/1/1 2/2/2 6/3/3 5/4/4
f 3/5/5 80/6/6 2/7/2 1/8/1
f 3/5/5 1/8/1 4/9/7 78/10/8
f 1/1/1 5/4/4 8/11/9 4/12/7
f 5/4/4 6/3/3 82/13/10 7/14/11
f 5/4/4 7/14/11 9/15/12 8/11/9
f 8/11/9 9/15/12 11/16/13 10/17/14
f 4/12/7 8/11/9 10/17/14 13/18/15
f 10/17/14 11/16/13 51/19/16 12/20/17
f 13/18/15 10/17/14 12/20/17 15/21/18
f 78/10/8 4/9/7 13/22/15 14/23/19
f 14/23/19 13/22/15 15/24/18 16/25/20
f 16/25/20 15/24/18 17/26/21 18/27/22
f 15/21/18 12/20/17 20/28/23 17/29/21
f 18/27/22 17/26/21 19/30/24 77/31/25
f 17/29/21 20/28/23 22/32/26 19/33/24
f 12/20/17 51/19/16 21/34/27 20/28/23
f 20/28/23 21/34/27 23/35/28 22/32/26
f 22/32/26 23/35/28 25/36/29 24/37/30
f 19/33/24 22/32/26 24/37/30 27/38/31
f 24/37/30 25/36/29 42/39/32 26/40/33
f 27/38/31 24/37/30 26/40/33 29/41/34
f 77/31/25 19/30/24 27/42/31 28/43/35
f 28/43/35 27/42/31 29/44/34 30/45/36
f 30/45/36 29/44/34 31/46/37 32/47/38
f 29/41/34 26/40/33 33/48/39 31/49/37
f 33/50/39 35/51/40 32/52/38 31/53/37
f 34/54/41 37/55/42 35/51/40 33/50/39
f 26/56/33 42/57/32 34/54/41 33/50/39
f 37/55/42 38/58/43 36/59/44 35/51/40
f 35/51/40 36/59/44 76/60/45 32/52/38
f 39/61/46 40/62/47 38/58/43 37/55/42
f 42/57/32 39/61/46 37/55/42 34/54/41
f 41/63/48 43/64/49 40/62/47 39/61/46
f 25/65/29 41/63/48 39/61/46 42/57/32
f 44/66/50 45/67/51 43/68/49 41/69/48
f 23/70/28 44/66/50 41/69/48 25/71/29
f 46/72/52 47/73/53 45/67/51 44/66/50
f 21/74/27 46/72/52 44/66/50 23/70/28
f 48/75/54 49/76/55 47/73/53 46/72/52
f 51/77/16 48/75/54 46/72/52 21/74/27
f 50/78/56 52/79/57 49/76/55 48/75/54
f 11/80/13 50/78/56 48/75/54 51/77/16
f 53/81/58 54/82/59 52/79/57 50/78/56
f 9/83/12 53/81/58 50/78/56 11/80/13
f 55/84/60 57/85/61 54/82/59 53/81/58
f 7/86/11 55/84/60 53/81/58 9/83/12
f 7/86/11 82/87/10 56/88/62 55/84/60
f 55/84/60 56/88/62 58/89/63 57/85/61
f 57/90/61 58/91/63 60/92/64 59/93/65
f 57/90/61 59/93/65 62/94/66 54/95/59
f 59/93/65 60/92/64 79/96/67 61/97/68
f 59/93/65 61/97/68 63/98/69 62/94/66
f 62/94/66 63/98/69 65/99/70 64/100/71
f 54/95/59 62/94/66 64/100/71 52/101/57
f 64/100/71 65/99/70 67/102/72 66/103/73
f 52/101/57 64/100/71 66/103/73 49/104/55
f 66/103/73 67/102/72 69/105/74 68/106/75
f 49/104/55 66/103/73 68/106/75 47/107/53
f 68/106/75 69/105/74 71/108/76 70/109/77
f 47/107/53 68/106/75 70/109/77 45/110/51
f 70/109/77 71/108/76 73/111/78 72/112/79
f 45/110/51 70/109/77 72/112/79 43/113/49
f 72/112/79 73/111/78 75/114/80 74/115/81
f 43/113/49 72/112/79 74/115/81 40/116/47
f 74/115/81 75/114/80 76/117/45 36/118/44
f 40/62/47 74/119/81 36/59/44 38/58/43
f 73/120/78 28/43/35 30/45/36 75/121/80
f 75/121/80 30/45/36 32/47/38 76/122/45
f 71/123/76 77/31/25 28/43/35 73/120/78
f 69/124/74 18/27/22 77/31/25 71/123/76
f 67/125/72 16/25/20 18/27/22 69/124/74
f 65/126/70 14/23/19 16/25/20 67/125/72
f 63/127/69 78/10/8 14/23/19 65/126/70
f 61/128/68 3/5/5 78/10/8 63/127/69
f 61/128/68 79/129/67 80/6/6 3/5/5
f 60/130/64 81/131/82 80/132/6 79/133/67
f 81/131/82 6/134/3 2/135/2 80/132/6
f 56/136/62 82/137/10 6/134/3 81/131/82
f 58/138/63 56/136/62 81/131/82 60/130/64
