# Blender 4.0.2
# www.blender.org
mtllib M249_part_04.mtl
o M249_part_04
v 0.025372 0.084765 0.195978
v 0.025372 0.057597 0.195978
v 0.025372 0.084765 0.189729
v 0.030756 0.081554 0.195978
v 0.030756 0.081554 0.189729
v 0.030756 0.060807 0.195978
v 0.030756 0.060807 0.189729
v 0.025372 0.057597 0.189729
v 0.025372 0.084765 0.183325
v 0.025372 0.057597 0.183325
v 0.025372 0.084765 0.177076
v 0.030756 0.081554 0.183325
v 0.030756 0.081554 0.177076
v 0.030756 0.060807 0.183325
v 0.030756 0.060807 0.177076
v 0.025372 0.057597 0.177076
v 0.025372 0.084765 0.170672
v 0.025372 0.057597 0.170672
v 0.025372 0.084765 0.164423
v 0.030756 0.081554 0.170672
v 0.030756 0.081554 0.164423
v 0.030756 0.060807 0.170672
v 0.030756 0.060807 0.164423
v 0.025372 0.057597 0.164423
v 0.025372 0.084765 0.158019
v 0.025372 0.057597 0.158019
v 0.025372 0.084765 0.151770
v 0.030756 0.081554 0.158019
v 0.030756 0.081554 0.151770
v 0.030756 0.060807 0.158019
v 0.030756 0.060807 0.151770
v 0.025372 0.057597 0.151770
v 0.025372 0.084765 0.145366
v 0.025372 0.057597 0.145366
v 0.025372 0.084765 0.139117
v 0.030756 0.081554 0.145366
v 0.030756 0.081554 0.139117
v 0.030756 0.060807 0.145366
v 0.030756 0.060807 0.139117
v 0.025372 0.057597 0.139117
v 0.025372 0.084765 0.132713
v 0.025372 0.057597 0.132713
v 0.025372 0.084765 0.126464
v 0.030756 0.081554 0.132713
v 0.030756 0.081554 0.126464
v 0.030756 0.060807 0.132713
v 0.030756 0.060807 0.126464
v 0.025372 0.057597 0.126464
v 0.025372 0.084765 0.120060
v 0.025372 0.057597 0.120060
v 0.025372 0.084765 0.113811
v 0.030756 0.081554 0.120060
v 0.030756 0.081554 0.113811
v 0.030756 0.060807 0.120060
v 0.030756 0.060807 0.113811
v 0.025372 0.057597 0.113811
v 0.025372 0.084765 0.107407
v 0.025372 0.057597 0.107407
v 0.025372 0.084765 0.101158
v 0.030756 0.081554 0.107407
v 0.030756 0.081554 0.101158
v 0.030756 0.060807 0.107407
v 0.030756 0.060807 0.101158
v 0.025372 0.057597 0.101158
v 0.025372 0.084765 0.094754
v 0.025372 0.057597 0.094754
v 0.025372 0.084765 0.088505
v 0.030756 0.081554 0.094754
v 0.030756 0.081554 0.088505
v 0.030756 0.060807 0.094754
v 0.030756 0.060807 0.088505
v 0.025372 0.057597 0.088505
v 0.025372 0.084765 0.082101
v 0.025372 0.057597 0.082101
v 0.025372 0.084765 0.075852
v 0.030756 0.081554 0.082101
v 0.030756 0.081554 0.075852
v 0.030756 0.060807 0.082101
v 0.030756 0.060807 0.075852
v 0.025372 0.057597 0.075852
v 0.025372 0.084765 0.069447
v 0.025372 0.057597 0.069447
v 0.025372 0.084765 0.063199
v 0.030756 0.081554 0.069447
v 0.030756 0.081554 0.063199
v 0.030756 0.060807 0.069447
v 0.030756 0.060807 0.063199
v 0.025372 0.057597 0.063199
v 0.025372 0.084765 0.056794
v 0.025372 0.057597 0.056794
v 0.025372 0.084765 0.050546
v 0.030756 0.081554 0.056794
v 0.030756 0.081554 0.050546
v 0.030756 0.060807 0.056794
v 0.030756 0.060807 0.050546
v 0.025372 0.057597 0.050546
v 0.025372 0.084765 0.044141
v 0.025372 0.057597 0.044141
v 0.025372 0.084765 0.037893
v 0.030756 0.081554 0.044141
v 0.030756 0.081554 0.037893
v 0.030756 0.060807 0.044141
v 0.030756 0.060807 0.037893
v 0.025372 0.057597 0.037893
v -0.025372 0.084765 0.195978
v -0.025372 0.084765 0.189729
v -0.025372 0.057597 0.195978
v -0.030756 0.081554 0.195978
v -0.030756 0.081554 0.189729
v -0.030756 0.060807 0.195978
v -0.030756 0.060807 0.189729
v -0.025372 0.057597 0.189729
v -0.025372 0.084765 0.183325
v -0.025372 0.084765 0.177076
v -0.025372 0.057597 0.183325
v -0.030756 0.081554 0.183325
v -0.030756 0.081554 0.177076
v -0.030756 0.060807 0.183325
v -0.030756 0.060807 0.177076
v -0.025372 0.057597 0.177076
v -0.025372 0.084765 0.170672
v -0.025372 0.084765 0.164423
v -0.025372 0.057597 0.170672
v -0.030756 0.081554 0.170672
v -0.030756 0.081554 0.164423
v -0.030756 0.060807 0.170672
v -0.030756 0.060807 0.164423
v -0.025372 0.057597 0.164423
v -0.025372 0.084765 0.158019
v -0.025372 0.084765 0.151770
v -0.025372 0.057597 0.158019
v -0.030756 0.081554 0.158019
v -0.030756 0.081554 0.151770
v -0.030756 0.060807 0.158019
v -0.030756 0.060807 0.151770
v -0.025372 0.057597 0.151770
v -0.025372 0.084765 0.145366
v -0.025372 0.084765 0.139117
v -0.025372 0.057597 0.145366
v -0.030756 0.081554 0.145366
v -0.030756 0.081554 0.139117
v -0.030756 0.060807 0.145366
v -0.030756 0.060807 0.139117
v -0.025372 0.057597 0.139117
v -0.025372 0.084765 0.132713
v -0.025372 0.084765 0.126464
v -0.025372 0.057597 0.132713
v -0.030756 0.081554 0.132713
v -0.030756 0.081554 0.126464
v -0.030756 0.060807 0.132713
v -0.030756 0.060807 0.126464
v -0.025372 0.057597 0.126464
v -0.025372 0.084765 0.120060
v -0.025372 0.084765 0.113811
v -0.025372 0.057597 0.120060
v -0.030756 0.081554 0.120060
v -0.030756 0.081554 0.113811
v -0.030756 0.060807 0.120060
v -0.030756 0.060807 0.113811
v -0.025372 0.057597 0.113811
v -0.025372 0.084765 0.107407
v -0.025372 0.084765 0.101158
v -0.025372 0.057597 0.107407
v -0.030756 0.081554 0.107407
v -0.030756 0.081554 0.101158
v -0.030756 0.060807 0.107407
v -0.030756 0.060807 0.101158
v -0.025372 0.057597 0.101158
v -0.025372 0.084765 0.094754
v -0.025372 0.084765 0.088505
v -0.025372 0.057597 0.094754
v -0.030756 0.081554 0.094754
v -0.030756 0.081554 0.088505
v -0.030756 0.060807 0.094754
v -0.030756 0.060807 0.088505
v -0.025372 0.057597 0.088505
v -0.025372 0.084765 0.082101
v -0.025372 0.084765 0.075852
v -0.025372 0.057597 0.082101
v -0.030756 0.081554 0.082101
v -0.030756 0.081554 0.075852
v -0.030756 0.060807 0.082101
v -0.030756 0.060807 0.075852
v -0.025372 0.057597 0.075852
v -0.025372 0.084765 0.069447
v -0.025372 0.084765 0.063199
v -0.025372 0.057597 0.069447
v -0.030756 0.081554 0.069447
v -0.030756 0.081554 0.063199
v -0.030756 0.060807 0.069447
v -0.030756 0.060807 0.063199
v -0.025372 0.057597 0.063199
v -0.025372 0.084765 0.056794
v -0.025372 0.084765 0.050546
v -0.025372 0.057597 0.056794
v -0.030756 0.081554 0.056794
v -0.030756 0.081554 0.050546
v -0.030756 0.060807 0.056794
v -0.030756 0.060807 0.050546
v -0.025372 0.057597 0.050546
v -0.025372 0.084765 0.044141
v -0.025372 0.084765 0.037893
v -0.025372 0.057597 0.044141
v -0.030756 0.081554 0.044141
v -0.030756 0.081554 0.037893
v -0.030756 0.060807 0.044141
v -0.030756 0.060807 0.037893
v -0.025372 0.057597 0.037893
v 0.014438 0.049517 0.195614
v -0.012730 0.049517 0.195614
v 0.014438 0.049517 0.190093
v 0.011228 0.044133 0.195614
v 0.011228 0.044133 0.190093
v -0.009519 0.044133 0.195614
v -0.009519 0.044133 0.190093
v -0.012730 0.049517 0.190093
v 0.014438 0.049632 0.226568
v -0.012730 0.049632 0.226568
v 0.014438 0.049517 0.201606
v 0.011228 0.044133 0.222852
v 0.011228 0.044133 0.201606
v -0.009519 0.044133 0.222852
v -0.009519 0.044133 0.201606
v -0.012730 0.049517 0.201606
v 0.014438 0.049517 0.096202
v -0.012730 0.049517 0.096202
v 0.014438 0.049517 0.038776
v 0.011228 0.044133 0.096202
v 0.011228 0.044133 0.038776
v -0.009519 0.044133 0.096202
v -0.009519 0.044133 0.038776
v -0.012730 0.049517 0.038776
v 0.025078 0.084765 0.211750
v 0.025078 0.057597 0.211750
v 0.025078 0.084765 0.201783
v 0.030461 0.081554 0.211750
v 0.030461 0.081554 0.201783
v 0.030461 0.060807 0.211750
v 0.030461 0.060807 0.201783
v 0.025078 0.057597 0.201783
v -0.025078 0.084765 0.211750
v -0.025078 0.084765 0.201783
v -0.025078 0.057597 0.211750
v -0.030461 0.081554 0.211750
v -0.030461 0.081554 0.201783
v -0.030461 0.060807 0.211750
v -0.030461 0.060807 0.201783
v -0.025078 0.057597 0.201783
v 0.014198 0.061132 0.037384
v 0.007099 0.061132 0.037384
v 0.012065 0.065535 0.037384
v 0.026134 0.061132 0.037384
v 0.014198 0.061132 0.210742
v 0.007099 0.061132 0.210742
v 0.014198 0.061132 0.211799
v 0.026134 0.061132 0.210742
v 0.026134 0.081187 0.210726
v 0.026134 0.061132 0.211799
v 0.026134 0.081187 0.211791
v 0.012068 0.081187 0.211791
v 0.012068 0.081187 0.210726
v 0.012069 0.065544 0.211799
v 0.006932 0.065544 0.211799
v 0.007099 0.057282 0.211799
v 0.000000 0.065543 0.211799
v 0.006932 0.065544 0.226065
v 0.007099 0.057282 0.226065
v 0.000000 0.065543 0.226065
v 0.000000 0.057282 0.226065
v -0.006932 0.065544 0.226065
v -0.007099 0.057282 0.226065
v -0.006932 0.065544 0.211799
v -0.007099 0.057282 0.211799
v -0.012069 0.065544 0.211799
v -0.014198 0.061132 0.211799
v -0.012068 0.081187 0.211791
v -0.026134 0.081187 0.211791
v -0.012068 0.081187 0.210726
v -0.026134 0.081187 0.210726
v -0.012068 0.081187 0.037363
v -0.026134 0.081187 0.037363
v -0.012065 0.065535 0.037384
v -0.014198 0.061132 0.037384
v -0.006032 0.065539 0.037384
v -0.007099 0.061132 0.037384
v -0.006032 0.065539 0.037384
v 0.000000 0.065543 0.037384
v 0.006032 0.065539 0.037384
v 0.000000 0.065543 0.037384
v 0.000000 0.065543 0.023121
v 0.006032 0.065539 0.037384
v 0.006032 0.065539 0.023121
v 0.007099 0.061132 0.037384
v 0.007099 0.061132 0.023121
v 0.007099 0.053472 0.037384
v 0.007099 0.053472 0.023121
v 0.000000 0.053472 0.037384
v 0.007099 0.053472 0.037384
v 0.007099 0.053472 0.210742
v 0.007099 0.048982 0.037384
v 0.000000 0.053472 0.037384
v 0.000000 0.048982 0.037384
v -0.007099 0.053472 0.037384
v -0.007099 0.048982 0.037384
v -0.007099 0.053472 0.210742
v -0.007099 0.053472 0.037384
v -0.007099 0.061132 0.037384
v -0.007099 0.053472 0.023121
v -0.007099 0.061132 0.023121
v 0.000000 0.053472 0.023121
v 0.000000 0.061132 0.023121
v -0.006032 0.065539 0.023121
v -0.007099 0.048982 0.210742
v -0.007099 0.053472 0.211799
v -0.007099 0.061132 0.210742
v -0.014198 0.061132 0.210742
v -0.026134 0.061132 0.210742
v -0.026134 0.061132 0.037384
v -0.026134 0.061132 0.211799
v -0.007099 0.053472 0.226065
v -0.007099 0.048982 0.211799
v -0.007099 0.048982 0.226065
v 0.000000 0.048982 0.211799
v 0.007099 0.048982 0.211799
v 0.000000 0.048982 0.210742
v 0.000000 0.048982 0.226065
v 0.000000 0.053472 0.226065
v 0.007099 0.048982 0.226065
v 0.007099 0.053472 0.226065
v 0.007099 0.053472 0.211799
v 0.007099 0.048982 0.210742
v 0.012068 0.081187 0.037363
v 0.026134 0.081187 0.037363
v 0.000000 0.061132 0.037384
v 0.000000 0.061132 0.037384
v 0.016376 0.056388 0.232100
v 0.016376 0.064929 0.234389
v 0.016376 0.056388 0.234777
v 0.016376 0.047847 0.234389
v 0.013919 0.056388 0.232100
v 0.013919 0.056388 0.241579
v 0.013919 0.047847 0.234389
v 0.013919 0.064929 0.234389
v 0.013919 0.060189 0.242598
v 0.013919 0.071181 0.240641
v 0.013919 0.073469 0.249182
v 0.013919 0.062972 0.245380
v 0.016376 0.071181 0.240641
v 0.016376 0.073469 0.249182
v 0.016376 0.068863 0.241979
v 0.016376 0.070792 0.249182
v 0.016376 0.063590 0.236707
v 0.018813 0.068863 0.241979
v 0.018813 0.070792 0.249182
v 0.018813 0.063590 0.236707
v 0.018813 0.065854 0.243716
v 0.018813 0.067319 0.249182
v 0.018813 0.061853 0.239715
v 0.014803 0.065854 0.243716
v 0.014803 0.067319 0.249182
v 0.014803 0.062198 0.245827
v 0.014803 0.061853 0.239715
v 0.014803 0.056388 0.238251
v 0.014803 0.059742 0.243372
v 0.000000 0.059742 0.243372
v 0.014803 0.056388 0.242473
v 0.000000 0.056388 0.242473
v 0.014803 0.053034 0.243372
v 0.014803 0.050923 0.239715
v 0.014803 0.050578 0.245827
v 0.000000 0.053034 0.243372
v 0.000000 0.050578 0.245827
v -0.014803 0.053034 0.243372
v -0.014803 0.050923 0.239715
v -0.014803 0.056388 0.242473
v -0.014803 0.050578 0.245827
v -0.014803 0.049680 0.249182
v -0.014803 0.046922 0.243716
v -0.018813 0.046922 0.243716
v -0.014803 0.045457 0.249182
v -0.014803 0.046922 0.254647
v -0.018813 0.045457 0.249182
v -0.018813 0.041984 0.249182
v -0.018813 0.046922 0.254647
v -0.018813 0.050923 0.258648
v -0.018813 0.043914 0.256384
v -0.018813 0.049186 0.261656
v -0.016376 0.043914 0.256384
v -0.016376 0.049186 0.261656
v -0.016376 0.041595 0.257722
v -0.016376 0.041984 0.249182
v -0.016376 0.039307 0.249182
v -0.016376 0.043914 0.241979
v -0.016376 0.041595 0.240641
v -0.016376 0.049186 0.236707
v -0.018813 0.043914 0.241979
v -0.018813 0.049186 0.236707
v -0.018813 0.056388 0.234777
v -0.018813 0.050923 0.239715
v -0.018813 0.056388 0.238251
v -0.018813 0.061853 0.239715
v -0.014803 0.056388 0.238251
v -0.014803 0.061853 0.239715
v -0.014803 0.059742 0.243372
v -0.014803 0.065854 0.243716
v -0.014803 0.062198 0.245827
v -0.014803 0.067319 0.249182
v -0.018813 0.065854 0.243716
v -0.018813 0.068863 0.241979
v -0.018813 0.067319 0.249182
v -0.018813 0.070792 0.249182
v -0.018813 0.065854 0.254647
v -0.018813 0.068863 0.256384
v -0.018813 0.061853 0.258648
v -0.014803 0.065854 0.254647
v -0.014803 0.062198 0.252536
v -0.014803 0.061853 0.258648
v -0.014803 0.059742 0.254991
v -0.014803 0.056388 0.260112
v -0.014803 0.056388 0.255890
v -0.014803 0.050923 0.258648
v -0.018813 0.056388 0.260112
v -0.018813 0.056388 0.263586
v -0.018813 0.063590 0.261656
v -0.016376 0.056388 0.263586
v -0.016376 0.063590 0.261656
v -0.016376 0.056388 0.266263
v -0.016376 0.064929 0.263974
v -0.016376 0.047847 0.263974
v -0.013919 0.056388 0.266263
v -0.013919 0.064929 0.263974
v -0.013919 0.056388 0.256784
v -0.013919 0.047847 0.263974
v -0.013919 0.052587 0.255765
v -0.013919 0.041595 0.257722
v -0.013919 0.049804 0.252983
v -0.013919 0.039307 0.249182
v -0.013919 0.048786 0.249182
v -0.013919 0.041595 0.240641
v -0.013919 0.049804 0.245380
v -0.013919 0.047847 0.234389
v -0.013919 0.052587 0.242598
v -0.013919 0.056388 0.232100
v -0.016376 0.047847 0.234389
v -0.016376 0.056388 0.232100
v -0.016376 0.056388 0.234777
v -0.016376 0.064929 0.234389
v -0.016376 0.063590 0.236707
v -0.016376 0.071181 0.240641
v -0.013919 0.064929 0.234389
v -0.013919 0.060189 0.242598
v -0.013919 0.071181 0.240641
v -0.013919 0.062972 0.245380
v -0.013919 0.073469 0.249182
v -0.013919 0.063990 0.249182
v -0.013919 0.071181 0.257722
v -0.016376 0.073469 0.249182
v -0.016376 0.070792 0.249182
v -0.016376 0.071181 0.257722
v -0.016376 0.068863 0.256384
v -0.016376 0.068863 0.241979
v -0.013919 0.062972 0.252983
v 0.013919 0.062972 0.252983
v -0.013919 0.060189 0.255765
v 0.013919 0.060189 0.255765
v 0.013919 0.056388 0.256784
v 0.013919 0.064929 0.263974
v 0.013919 0.056388 0.266263
v 0.013919 0.071181 0.257722
v 0.016376 0.064929 0.263974
v 0.016376 0.056388 0.266263
v 0.016376 0.063590 0.261656
v 0.016376 0.071181 0.257722
v 0.016376 0.068863 0.256384
v 0.018813 0.068863 0.256384
v 0.018813 0.063590 0.261656
v 0.018813 0.065854 0.254647
v 0.018813 0.061853 0.258648
v 0.014803 0.065854 0.254647
v 0.014803 0.061853 0.258648
v 0.014803 0.062198 0.252536
v 0.014803 0.059742 0.254991
v 0.014803 0.063097 0.249182
v 0.000000 0.062198 0.252536
v 0.000000 0.059742 0.254991
v 0.000000 0.063097 0.249182
v 0.000000 0.062198 0.245827
v -0.014803 0.063097 0.249182
v 0.000000 0.056388 0.255890
v 0.000000 0.053034 0.254991
v 0.014803 0.056388 0.255890
v 0.014803 0.053034 0.254991
v 0.014803 0.056388 0.260112
v 0.014803 0.050923 0.258648
v 0.018813 0.056388 0.260112
v 0.018813 0.056388 0.263586
v 0.018813 0.050923 0.258648
v 0.018813 0.046922 0.254647
v 0.018813 0.049186 0.261656
v 0.018813 0.043914 0.256384
v 0.016376 0.049186 0.261656
v 0.016376 0.043914 0.256384
v 0.016376 0.047847 0.263974
v 0.016376 0.056388 0.263586
v 0.016376 0.041595 0.257722
v 0.013919 0.047847 0.263974
v 0.013919 0.041595 0.257722
v 0.013919 0.052587 0.255765
v 0.013919 0.049804 0.252983
v 0.013919 0.048786 0.249182
v 0.013919 0.049804 0.245380
v 0.013919 0.039307 0.249182
v 0.013919 0.041595 0.240641
v 0.016376 0.039307 0.249182
v 0.016376 0.041595 0.240641
v 0.016376 0.041984 0.249182
v 0.016376 0.043914 0.241979
v 0.018813 0.041984 0.249182
v 0.018813 0.043914 0.241979
v 0.018813 0.045457 0.249182
v 0.018813 0.046922 0.243716
v 0.014803 0.045457 0.249182
v 0.014803 0.046922 0.243716
v 0.014803 0.049680 0.249182
v 0.014803 0.046922 0.254647
v 0.014803 0.050578 0.252536
v 0.000000 0.050578 0.252536
v 0.000000 0.049680 0.249182
v -0.014803 0.050578 0.252536
v -0.014803 0.053034 0.254991
v 0.018813 0.050923 0.239715
v 0.018813 0.049186 0.236707
v 0.018813 0.056388 0.238251
v 0.018813 0.056388 0.234777
v 0.016376 0.049186 0.236707
v 0.013919 0.052587 0.242598
v 0.013919 0.063990 0.249182
v -0.013919 0.056388 0.241579
v -0.018813 0.063590 0.236707
v -0.012370 0.068043 0.311913
v -0.012370 0.095981 0.311913
v 0.012370 0.068043 0.311913
v -0.012370 0.063971 0.297046
v 0.012370 0.063971 0.297046
v -0.012370 0.095981 0.297046
v -0.012370 0.063971 0.271912
v -0.012370 0.095981 0.271912
v -0.012370 0.063971 0.037447
v 0.012370 0.063971 0.271912
v 0.012370 0.063971 0.037447
v 0.012370 0.095981 0.271912
v 0.012370 0.095981 0.037447
v 0.025053 0.098592 0.271912
v 0.012370 0.095981 0.297046
v 0.012370 0.095981 0.311913
v 0.020471 0.098592 0.297046
v 0.020471 0.126402 0.297046
v 0.015822 0.098592 0.311913
v -0.015822 0.098592 0.311913
v 0.015822 0.126402 0.311913
v -0.015822 0.126402 0.311913
v -0.020471 0.126402 0.297046
v -0.020471 0.098592 0.297046
v -0.025053 0.126402 0.271912
v -0.028187 0.126402 0.037447
v 0.025053 0.126402 0.271912
v -0.025053 0.098592 0.271912
v -0.028187 0.098592 0.037447
v -0.012370 0.095981 0.037447
v -0.017760 0.098592 -0.008315
v -0.012370 0.095981 -0.008315
v -0.017760 0.098592 -0.303691
v -0.017760 0.126402 -0.008315
v -0.017760 0.126402 -0.303691
v 0.017760 0.126402 -0.008315
v 0.017760 0.126402 -0.303691
v 0.017760 0.098592 -0.008315
v 0.028187 0.126402 0.037447
v 0.028187 0.098592 0.037447
v 0.017760 0.098592 -0.303691
v 0.012370 0.095981 -0.008315
v 0.012370 0.095981 -0.303691
v 0.012370 0.063971 -0.008315
v 0.012370 0.063971 -0.303691
v -0.012370 0.063971 -0.008315
v -0.012370 0.063971 -0.303691
v -0.012370 0.095981 -0.303691
vn -0.4111 -0.7238 0.5542
vn 0.6883 -0.3910 0.6110
vn 0.6883 0.3910 0.6110
vn -0.4111 0.7238 0.5542
vn -0.4111 0.7238 -0.5542
vn -0.4111 -0.7238 -0.5542
vn 0.6883 0.3910 -0.6110
vn 0.6883 -0.3910 -0.6110
vn 0.4111 0.7238 0.5542
vn 0.4111 0.7238 -0.5542
vn -0.6883 0.3910 -0.6110
vn -0.6883 0.3910 0.6110
vn 0.4111 -0.7238 0.5542
vn 0.4111 -0.7238 -0.5542
vn -0.6883 -0.3910 0.6110
vn -0.6883 -0.3910 -0.6110
vn -0.7238 0.4111 0.5542
vn -0.3910 -0.6883 0.6110
vn 0.3910 -0.6883 0.6110
vn 0.7238 0.4111 0.5542
vn 0.7238 0.4111 -0.5542
vn -0.7238 0.4111 -0.5542
vn 0.3910 -0.6883 -0.6110
vn -0.3910 -0.6883 -0.6110
vn -0.6623 0.3077 0.6831
vn -0.4012 -0.8369 0.3723
vn 0.4012 -0.8369 0.3723
vn 0.6623 0.3077 0.6831
vn 0.7238 0.4110 -0.5542
vn -0.7238 0.4110 -0.5542
vn 0.3924 -0.6874 -0.6111
vn -0.3924 -0.6874 -0.6111
vn 0.0361 -0.9695 -0.2423
vn 0.6043 -0.6867 -0.4040
vn 0.5484 0.5484 -0.6313
vn -0.0001 -0.7074 -0.7069
vn -0.0000 0.9206 -0.3905
vn -0.0001 -0.0006 -1.0000
vn -0.0001 0.7067 -0.7076
vn 0.5772 0.5771 -0.5777
vn 0.5773 -0.5777 -0.5770
vn 0.7071 -0.7071 -0.0000
vn 0.0625 -0.7128 0.6985
vn 0.9966 -0.0793 0.0233
vn 0.5774 -0.5772 0.5775
vn 0.7071 0.7071 -0.0000
vn 0.5774 0.5774 0.5772
vn -0.0000 0.7073 0.7070
vn -0.0000 0.0002 1.0000
vn -0.0000 1.0000 -0.0000
vn 0.5758 0.5876 0.5685
vn 0.5709 0.5827 0.5784
vn 0.7093 0.0072 0.7048
vn -0.0000 0.7071 0.7071
vn -0.0000 -0.0000 1.0000
vn -0.5709 0.5827 0.5784
vn -0.7093 0.0072 0.7048
vn -0.5758 0.5876 0.5685
vn -0.9966 -0.0793 0.0233
vn -0.0625 -0.7128 0.6985
vn -0.5774 0.5774 0.5772
vn -0.5774 -0.5772 0.5775
vn -0.7071 0.7071 -0.0000
vn -0.5772 0.5771 -0.5777
vn 0.0001 0.7067 -0.7076
vn 0.0001 -0.7074 -0.7069
vn -0.5773 -0.5777 -0.5770
vn 0.0001 -0.0006 -1.0000
vn -0.5484 0.5484 -0.6313
vn -0.2879 0.9577 -0.0000
vn -0.6616 0.7499 -0.0000
vn 0.2879 0.9577 -0.0000
vn -0.0000 0.7073 -0.7070
vn -0.4991 0.6338 -0.5909
vn 0.4991 0.6338 -0.5909
vn 0.7268 0.0867 -0.6814
vn 0.6616 0.7499 -0.0000
vn 0.5774 -0.5774 -0.5774
vn 0.6667 0.6667 -0.3333
vn -0.0000 -0.7071 -0.7071
vn -0.0000 0.8196 0.5730
vn -0.0000 0.7071 -0.7071
vn 1.0000 -0.0000 -0.0000
vn -0.5774 -0.5774 -0.5774
vn -0.6667 0.6667 -0.3333
vn -0.7071 -0.7071 -0.0000
vn -1.0000 -0.0000 -0.0000
vn -0.6043 -0.6867 -0.4040
vn -0.7268 0.0867 -0.6814
vn -0.0000 -0.0000 -1.0000
vn -0.0361 -0.9695 -0.2423
vn -0.7071 -0.0000 0.7071
vn -0.5774 -0.5774 0.5774
vn -0.0000 -1.0000 -0.0000
vn -0.0000 -0.7071 0.7071
vn 0.5774 -0.5774 0.5774
vn 0.7071 -0.0000 0.7071
vn -0.6532 0.3786 -0.6557
vn 0.6532 0.3786 -0.6557
vn 0.6532 -0.0000 -0.7572
vn -0.6532 -0.0000 -0.7572
vn 0.7703 0.3189 -0.5523
vn 0.7703 -0.0000 -0.6377
vn 0.6532 -0.3786 -0.6557
vn 0.7703 -0.3189 -0.5523
vn -0.6532 -0.3786 -0.6557
vn -0.7703 -0.0000 -0.6377
vn -0.7703 0.3189 -0.5523
vn -0.7703 -0.3189 -0.5523
vn -0.7703 0.5523 -0.3189
vn -0.6532 0.6557 -0.3786
vn 0.6532 0.6557 -0.3786
vn -0.6532 0.7572 -0.0000
vn 0.6532 0.7572 -0.0000
vn -0.7703 0.6377 -0.0000
vn 0.7703 0.6377 -0.0000
vn 0.7703 0.5523 -0.3189
vn 0.7703 -0.6377 -0.0000
vn 0.7703 -0.5523 0.3189
vn 0.7703 -0.3189 0.5523
vn 0.6532 -0.7572 -0.0000
vn 0.6532 -0.6557 0.3786
vn 0.6532 -0.3786 0.6557
vn 0.6532 -0.0000 0.7572
vn 0.7703 -0.0000 0.6377
vn -0.0000 -0.8660 0.5000
vn -0.0000 -0.5000 0.8660
vn -0.0000 0.5000 0.8660
vn 0.7703 0.3189 0.5523
vn 0.6532 0.3786 0.6557
vn 0.6532 0.6557 0.3786
vn 0.7703 0.5523 0.3189
vn -0.0000 0.8660 0.5000
vn -0.7703 -0.0000 0.6377
vn -0.7703 0.3189 0.5523
vn -0.7703 0.5523 0.3189
vn -0.6532 0.6557 0.3786
vn -0.6532 0.3786 0.6557
vn -0.6532 -0.0000 0.7572
vn -0.6532 -0.6557 0.3786
vn -0.6532 -0.7572 -0.0000
vn -0.6532 -0.6557 -0.3786
vn -0.6532 -0.3786 0.6557
vn -0.7703 -0.3189 0.5523
vn -0.7703 -0.5523 0.3189
vn -0.7703 -0.6377 -0.0000
vn -0.7703 -0.5523 -0.3189
vn 0.6532 -0.6557 -0.3786
vn 0.7703 -0.5523 -0.3189
vn -0.0000 -0.5000 -0.8660
vn -0.0000 -0.8660 -0.5000
vn -0.0000 0.5000 -0.8660
vn -0.0000 0.8660 -0.5000
vn -0.5927 -0.4885 0.6403
vn -0.4496 -0.2897 0.8449
vn -0.8160 -0.5775 0.0266
vn -0.6783 -0.7282 0.0979
vn 0.5927 -0.4885 0.6403
vn 0.4496 -0.2897 0.8449
vn 0.6783 -0.7282 0.0979
vn -0.7786 -0.6274 0.0075
vn -0.7779 -0.6283 -0.0084
vn 0.7779 -0.6283 -0.0084
vn 0.7786 -0.6274 0.0075
vn 0.8160 -0.5775 0.0266
vn 0.7911 -0.6068 -0.0775
vn 0.7874 -0.6124 0.0706
vn 0.8011 -0.5725 0.1747
vn 0.5680 -0.4169 0.7097
vn 0.7215 0.6888 0.0701
vn 0.6995 0.6936 0.1724
vn 0.4760 0.5950 0.6476
vn -0.5680 -0.4169 0.7097
vn -0.4760 0.5950 0.6476
vn -0.6995 0.6936 0.1724
vn -0.8011 -0.5725 0.1747
vn -0.7874 -0.6124 0.0706
vn -0.7215 0.6888 0.0701
vn -0.7911 -0.6068 -0.0775
vn -0.7279 0.6814 -0.0769
vn 0.7279 0.6814 -0.0769
vn -0.8195 -0.5730 -0.0083
vn -0.7999 -0.5953 -0.0755
vn -0.6758 0.7332 -0.0760
vn -0.4489 -0.2813 -0.8481
vn -0.6748 -0.4229 -0.6049
vn -0.5774 0.5774 -0.5774
vn 0.5774 0.5774 -0.5774
vn 0.6758 0.7332 -0.0760
vn 0.7999 -0.5953 -0.0755
vn 0.6748 -0.4229 -0.6049
vn 0.8195 -0.5730 -0.0083
vn 0.4489 -0.2813 -0.8481
vt 0.997401 0.307748
vt 0.992561 0.304862
vt 0.992561 0.286209
vt 0.997401 0.283323
vt 0.236752 0.948096
vt 0.236752 0.923671
vt 0.242370 0.923671
vt 0.242370 0.948096
vt 0.137811 0.987856
vt 0.142649 0.987780
vt 0.142649 0.993395
vt 0.137811 0.993472
vt 0.540499 0.979025
vt 0.540499 0.997678
vt 0.534881 0.997678
vt 0.534881 0.979025
vt 0.994900 0.961472
vt 0.990060 0.961481
vt 0.990060 0.955863
vt 0.994900 0.955855
vt 0.654521 0.998626
vt 0.649683 0.995741
vt 0.649683 0.977089
vt 0.654521 0.974202
vt 0.583717 0.996588
vt 0.578876 0.993701
vt 0.578876 0.975048
vt 0.583717 0.972162
vt 0.221136 0.990831
vt 0.221136 0.966406
vt 0.226754 0.966406
vt 0.226754 0.990831
vt 0.380052 0.994089
vt 0.375214 0.994165
vt 0.375214 0.988549
vt 0.380052 0.988473
vt 0.120586 0.981147
vt 0.120586 0.999800
vt 0.114968 0.999800
vt 0.114968 0.981147
vt 0.990154 0.988474
vt 0.994994 0.988466
vt 0.994994 0.994084
vt 0.990154 0.994092
vt 0.161830 0.998400
vt 0.156991 0.995515
vt 0.156991 0.976863
vt 0.161830 0.973976
vt 0.200973 0.972238
vt 0.205813 0.975124
vt 0.205813 0.993777
vt 0.200973 0.996663
vt 0.669331 0.991530
vt 0.669331 0.967105
vt 0.674949 0.967105
vt 0.674949 0.991530
vt 0.384891 0.994089
vt 0.380052 0.994165
vt 0.380052 0.988549
vt 0.384891 0.988473
vt 1.000000 0.204626
vt 1.000000 0.223279
vt 0.994382 0.223279
vt 0.994382 0.204626
vt 0.730320 0.995152
vt 0.725480 0.995160
vt 0.725480 0.989542
vt 0.730320 0.989534
vt 0.998897 0.870583
vt 0.994059 0.867698
vt 0.994059 0.849046
vt 0.998897 0.846159
vt 0.996275 0.798252
vt 0.991435 0.795366
vt 0.991435 0.776713
vt 0.996275 0.773826
vt 0.981256 0.988466
vt 0.981256 0.964040
vt 0.986874 0.964040
vt 0.986874 0.988466
vt 0.087023 0.993640
vt 0.082184 0.993716
vt 0.082184 0.988100
vt 0.087023 0.988024
vt 0.248192 0.999450
vt 0.248192 0.980797
vt 0.253810 0.980797
vt 0.253810 0.999450
vt 0.275290 0.989101
vt 0.280130 0.989093
vt 0.280130 0.994711
vt 0.275290 0.994719
vt 0.998732 0.402147
vt 0.993893 0.399262
vt 0.993893 0.380609
vt 0.998732 0.377722
vt 0.844221 0.996411
vt 0.839381 0.993524
vt 0.839381 0.974871
vt 0.844221 0.971985
vt 0.901217 0.984714
vt 0.901217 0.960288
vt 0.906834 0.960288
vt 0.906834 0.984714
vt 0.712978 0.987887
vt 0.717817 0.987810
vt 0.717817 0.993426
vt 0.712978 0.993502
vt 0.185040 0.980127
vt 0.185040 0.998780
vt 0.179423 0.998780
vt 0.179423 0.980127
vt 0.097228 0.988551
vt 0.102068 0.988542
vt 0.102068 0.994160
vt 0.097228 0.994168
vt 0.364922 0.998699
vt 0.360083 0.995814
vt 0.360083 0.977162
vt 0.364922 0.974275
vt 0.167182 0.996426
vt 0.162342 0.993540
vt 0.162342 0.974887
vt 0.167182 0.972000
vt 0.702184 0.943413
vt 0.702184 0.918988
vt 0.707802 0.918988
vt 0.707802 0.943413
vt 0.990154 0.994082
vt 0.985315 0.994158
vt 0.985315 0.988542
vt 0.990154 0.988466
vt 0.422437 0.980330
vt 0.422437 0.998983
vt 0.416819 0.998983
vt 0.416819 0.980330
vt 0.964597 0.989221
vt 0.969437 0.989213
vt 0.969437 0.994831
vt 0.964597 0.994839
vt 0.360083 0.998699
vt 0.355244 0.995814
vt 0.355244 0.977162
vt 0.360083 0.974275
vt 0.355089 0.996217
vt 0.350249 0.993330
vt 0.350249 0.974677
vt 0.355089 0.971791
vt 0.988005 0.060346
vt 0.988005 0.084772
vt 0.982387 0.084772
vt 0.982387 0.060346
vt 0.712678 0.993426
vt 0.707839 0.993502
vt 0.707839 0.987887
vt 0.712678 0.987810
vt 0.947681 0.980984
vt 0.947681 0.999637
vt 0.942063 0.999637
vt 0.942063 0.980984
vt 0.509364 0.994238
vt 0.504524 0.994247
vt 0.504524 0.988629
vt 0.509364 0.988621
vt 0.998078 0.616342
vt 0.993239 0.613457
vt 0.993239 0.594804
vt 0.998078 0.591917
vt 0.578876 0.996588
vt 0.574036 0.993701
vt 0.574036 0.975048
vt 0.578876 0.972162
vt 0.901737 0.926170
vt 0.901737 0.901744
vt 0.907355 0.901744
vt 0.907355 0.926170
vt 0.567814 0.987260
vt 0.572652 0.987184
vt 0.572652 0.992799
vt 0.567814 0.992875
vt 0.516934 0.979129
vt 0.516934 0.997781
vt 0.511316 0.997782
vt 0.511316 0.979129
vt 0.760584 0.994110
vt 0.755744 0.994118
vt 0.755744 0.988501
vt 0.760584 0.988492
vt 0.876908 0.998958
vt 0.872069 0.996073
vt 0.872069 0.977420
vt 0.876908 0.974533
vt 0.991484 0.873622
vt 0.996324 0.876509
vt 0.996324 0.895162
vt 0.991484 0.898048
vt 0.975638 0.988466
vt 0.975638 0.964040
vt 0.981256 0.964040
vt 0.476937 0.993116
vt 0.472098 0.993193
vt 0.472098 0.987577
vt 0.476937 0.987501
vt 0.248192 0.980797
vt 0.242574 0.999450
vt 0.242574 0.980797
vt 0.765425 0.994110
vt 0.760584 0.994118
vt 0.760584 0.988501
vt 0.765425 0.988492
vt 0.998640 0.429398
vt 0.993802 0.426513
vt 0.993802 0.407860
vt 0.998640 0.404973
vt 0.350249 0.996217
vt 0.345409 0.993330
vt 0.345409 0.974677
vt 0.350249 0.971791
vt 0.989117 0.000131
vt 0.989117 0.024557
vt 0.983500 0.024557
vt 0.983500 0.000131
vt 0.472098 0.993116
vt 0.467260 0.993193
vt 0.467260 0.987577
vt 0.472098 0.987501
vt 0.022586 0.999131
vt 0.022586 0.980478
vt 0.028204 0.980478
vt 0.028204 0.999130
vt 0.994888 0.842332
vt 0.990048 0.842340
vt 0.990048 0.836722
vt 0.994888 0.836714
vt 0.998383 0.152339
vt 0.993544 0.149454
vt 0.993544 0.130802
vt 0.998383 0.127915
vt 0.839381 0.996411
vt 0.834540 0.993524
vt 0.834540 0.974871
vt 0.839381 0.971985
vt 0.275290 0.989093
vt 0.275290 0.964667
vt 0.280908 0.964667
vt 0.280908 0.989093
vt 0.985315 0.994082
vt 0.980477 0.994158
vt 0.980477 0.988542
vt 0.985315 0.988466
vt 0.456987 0.980979
vt 0.456987 0.999632
vt 0.451369 0.999632
vt 0.451369 0.980979
vt 0.425687 0.988910
vt 0.430527 0.988901
vt 0.430527 0.994519
vt 0.425687 0.994528
vt 0.998890 0.112302
vt 0.994051 0.109417
vt 0.994051 0.090764
vt 0.998890 0.087877
vt 0.174715 0.996426
vt 0.169875 0.993540
vt 0.169875 0.974887
vt 0.174715 0.972000
vt 0.983535 0.404173
vt 0.983535 0.379747
vt 0.989153 0.379747
vt 0.989153 0.404173
vt 0.980477 0.994082
vt 0.975638 0.994158
vt 0.975638 0.988542
vt 0.980477 0.988466
vt 0.456987 0.980979
vt 0.462604 0.980979
vt 0.462604 0.999632
vt 0.504524 0.994238
vt 0.499684 0.994247
vt 0.499684 0.988629
vt 0.504524 0.988621
vt 0.871975 0.998628
vt 0.867136 0.995743
vt 0.867136 0.977091
vt 0.871975 0.974203
vt 0.996324 0.922474
vt 0.991484 0.919587
vt 0.991484 0.900934
vt 0.996324 0.898048
vt 0.097228 0.988542
vt 0.097228 0.964117
vt 0.102845 0.964117
vt 0.102845 0.988542
vt 0.147488 0.993395
vt 0.142649 0.993472
vt 0.142649 0.987856
vt 0.147488 0.987780
vt 0.088709 0.999075
vt 0.088709 0.980422
vt 0.094327 0.980422
vt 0.094327 0.999075
vt 0.994190 0.929396
vt 0.989350 0.929404
vt 0.989350 0.923786
vt 0.994190 0.923778
vt 0.659360 0.998626
vt 0.654521 0.995741
vt 0.654521 0.977089
vt 0.659360 0.974202
vt 0.365185 0.992749
vt 0.365185 0.987134
vt 0.370027 0.987210
vt 0.370027 0.992825
vt 0.989318 0.872609
vt 0.983701 0.872609
vt 0.983701 0.848184
vt 0.989318 0.848183
vt 0.996716 0.340298
vt 0.996716 0.364724
vt 0.991876 0.361837
vt 0.991876 0.343184
vt 0.033821 0.980478
vt 0.033821 0.999131
vt 0.028204 0.999131
vt 0.307485 0.990141
vt 0.307485 0.995759
vt 0.302645 0.995750
vt 0.302645 0.990133
vt 0.993105 0.274337
vt 0.993105 0.249912
vt 0.997944 0.252798
vt 0.997944 0.271450
vt 0.562972 0.992799
vt 0.562972 0.987184
vt 0.567814 0.987260
vt 0.567814 0.992875
vt 0.992491 0.964040
vt 0.992491 0.988466
vt 0.986874 0.988466
vt 0.996697 0.440019
vt 0.996697 0.464445
vt 0.991857 0.461559
vt 0.991857 0.442906
vt 0.405754 0.980392
vt 0.411372 0.980392
vt 0.411372 0.999045
vt 0.405754 0.999045
vt 0.226754 0.990840
vt 0.226754 0.996457
vt 0.221914 0.996449
vt 0.221914 0.990831
vt 0.590501 0.999410
vt 0.590501 0.974985
vt 0.595339 0.977871
vt 0.595339 0.996523
vt 0.374976 0.987210
vt 0.374976 0.992825
vt 0.370134 0.992749
vt 0.370134 0.987134
vt 0.005618 0.992239
vt 0.000000 0.992239
vt 0.000000 0.967814
vt 0.005618 0.967813
vt 0.997653 0.025268
vt 0.997653 0.049694
vt 0.992812 0.046807
vt 0.992812 0.028154
vt 0.126515 0.999800
vt 0.120897 0.999800
vt 0.120897 0.981147
vt 0.126515 0.981147
vt 0.215518 0.996449
vt 0.215518 0.990831
vt 0.220358 0.990840
vt 0.220358 0.996457
vt 0.998078 0.565467
vt 0.998078 0.589891
vt 0.993239 0.587006
vt 0.993239 0.568354
vt 0.968505 0.516866
vt 0.968505 0.522482
vt 0.963663 0.522406
vt 0.963663 0.516790
vt 0.669331 0.991530
vt 0.663714 0.991530
vt 0.663714 0.967105
vt 0.259070 0.973270
vt 0.259070 0.997695
vt 0.254230 0.994809
vt 0.254230 0.976156
vt 0.628455 0.980002
vt 0.634072 0.980002
vt 0.634072 0.998655
vt 0.628455 0.998655
vt 0.313103 0.990141
vt 0.313103 0.995759
vt 0.308263 0.995750
vt 0.308263 0.990133
vt 0.998919 0.000131
vt 0.998919 0.024556
vt 0.994080 0.021671
vt 0.994080 0.003018
vt 0.958059 0.648376
vt 0.958059 0.642760
vt 0.962900 0.642836
vt 0.962900 0.648452
vt 0.319498 0.990133
vt 0.313881 0.990133
vt 0.313881 0.965707
vt 0.319498 0.965707
vt 0.997403 0.308955
vt 0.997403 0.333380
vt 0.992563 0.330494
vt 0.992563 0.311841
vt 0.892256 0.978941
vt 0.897874 0.978941
vt 0.897874 0.997594
vt 0.892256 0.997594
vt 0.313103 0.995750
vt 0.313103 0.990133
vt 0.317943 0.990141
vt 0.317943 0.995759
vt 0.131804 0.974621
vt 0.131804 0.999046
vt 0.126966 0.996161
vt 0.126966 0.977509
vt 0.962900 0.648376
vt 0.962900 0.642760
vt 0.967742 0.642836
vt 0.967742 0.648452
vt 0.313881 0.990133
vt 0.308263 0.965707
vt 0.313881 0.965707
vt 0.263910 0.973270
vt 0.263910 0.997695
vt 0.259070 0.994809
vt 0.259070 0.976156
vt 0.936025 0.980984
vt 0.941643 0.980984
vt 0.941643 0.999637
vt 0.936025 0.999637
vt 0.555302 0.990722
vt 0.555302 0.996340
vt 0.550462 0.996332
vt 0.550462 0.990714
vt 0.997944 0.223462
vt 0.997944 0.247887
vt 0.993105 0.245001
vt 0.993105 0.226349
vt 0.955446 0.162394
vt 0.955446 0.156778
vt 0.960288 0.156854
vt 0.960288 0.162470
vt 0.302645 0.965707
vt 0.308263 0.965707
vt 0.308263 0.990133
vt 0.997331 0.964040
vt 0.997331 0.988466
vt 0.992491 0.985580
vt 0.992491 0.966927
vt 0.529263 0.979025
vt 0.534881 0.979025
vt 0.534881 0.997678
vt 0.529263 0.997678
vt 0.555302 0.996332
vt 0.555302 0.990714
vt 0.560142 0.990722
vt 0.560142 0.996340
vt 0.332161 0.975094
vt 0.332161 0.999518
vt 0.327322 0.996633
vt 0.327322 0.977981
vt 0.945763 0.162394
vt 0.945763 0.156778
vt 0.950605 0.156854
vt 0.950605 0.162470
vt 0.082184 0.963598
vt 0.087802 0.963598
vt 0.087802 0.988024
vt 0.082184 0.988024
vt 0.912808 0.971954
vt 0.912808 0.996380
vt 0.907968 0.993494
vt 0.907968 0.974841
vt 0.990007 0.503086
vt 0.995624 0.503086
vt 0.995624 0.521739
vt 0.990007 0.521739
vt 0.927514 0.996162
vt 0.927514 0.990545
vt 0.932354 0.990553
vt 0.932354 0.996171
vt 0.322484 0.999518
vt 0.322484 0.975094
vt 0.327322 0.977979
vt 0.327322 0.996631
vt 0.850254 0.650238
vt 0.850254 0.644622
vt 0.855096 0.644698
vt 0.855096 0.650314
vt 0.933132 0.990545
vt 0.927514 0.966119
vt 0.933132 0.966119
vt 0.997455 0.689118
vt 0.997455 0.713543
vt 0.992615 0.710657
vt 0.992615 0.692004
vt 0.746369 0.979132
vt 0.751987 0.979132
vt 0.751987 0.997785
vt 0.746369 0.997785
vt 0.955066 0.990606
vt 0.955066 0.996224
vt 0.950226 0.996216
vt 0.950226 0.990598
vt 0.493803 0.974718
vt 0.493803 0.999143
vt 0.488965 0.996257
vt 0.488965 0.977605
vt 0.987222 0.340190
vt 0.987222 0.334575
vt 0.992064 0.334651
vt 0.992064 0.340266
vt 0.221136 0.990831
vt 0.215518 0.990831
vt 0.215518 0.966406
vt 0.210653 0.972238
vt 0.210653 0.996663
vt 0.541267 0.980371
vt 0.546885 0.980371
vt 0.546885 0.999024
vt 0.541267 0.999024
vt 0.739249 0.996359
vt 0.739249 0.990741
vt 0.744089 0.990749
vt 0.744089 0.996367
vt 0.998078 0.618368
vt 0.998078 0.642792
vt 0.993239 0.639907
vt 0.993239 0.621255
vt 0.850254 0.644698
vt 0.850254 0.650314
vt 0.845412 0.650238
vt 0.845412 0.644622
vt 0.955066 0.990598
vt 0.949448 0.990598
vt 0.949448 0.966173
vt 0.955066 0.966173
vt 0.997622 0.648911
vt 0.997622 0.673337
vt 0.992782 0.670450
vt 0.992782 0.651797
vt 0.338017 0.979810
vt 0.343634 0.979810
vt 0.343634 0.998463
vt 0.338017 0.998463
vt 0.991435 0.803870
vt 0.991435 0.798252
vt 0.996275 0.798260
vt 0.996275 0.803878
vt 0.609896 0.974692
vt 0.609896 0.999117
vt 0.605057 0.996232
vt 0.605057 0.977580
vt 0.976182 0.713430
vt 0.976182 0.719046
vt 0.971340 0.718970
vt 0.971340 0.713354
vt 0.960684 0.990598
vt 0.955066 0.990598
vt 0.955066 0.966173
vt 0.960684 0.966173
vt 0.997251 0.522482
vt 0.997251 0.546908
vt 0.992411 0.544021
vt 0.992411 0.525368
vt 0.191082 0.998780
vt 0.185464 0.998780
vt 0.185464 0.980127
vt 0.191082 0.980127
vt 0.991435 0.809496
vt 0.991435 0.803878
vt 0.996275 0.803886
vt 0.996275 0.809504
vt 0.136643 0.974621
vt 0.136643 0.999046
vt 0.131804 0.996161
vt 0.131804 0.977509
vt 0.950605 0.162394
vt 0.950605 0.156778
vt 0.955446 0.156854
vt 0.955446 0.162470
vt 0.982551 0.258897
vt 0.988169 0.258897
vt 0.988169 0.283322
vt 0.982551 0.283323
vt 0.997235 0.732170
vt 0.997235 0.756596
vt 0.992394 0.753709
vt 0.992394 0.735056
vt 0.332399 0.979810
vt 0.338017 0.998463
vt 0.332399 0.998463
vt 0.955066 0.996216
vt 0.959906 0.990606
vt 0.959906 0.996224
vt 0.998383 0.176764
vt 0.993544 0.173879
vt 0.993544 0.155227
vt 0.778300 0.971619
vt 0.783140 0.974505
vt 0.783140 0.993158
vt 0.778300 0.996045
vt 0.989117 0.024557
vt 0.989117 0.000131
vt 0.994080 0.000131
vt 0.994080 0.024557
vt 0.850113 0.815445
vt 0.854944 0.815453
vt 0.854944 0.820417
vt 0.850113 0.820409
vt 0.994788 0.828916
vt 0.994788 0.810263
vt 0.999752 0.810263
vt 0.999752 0.828916
vt 0.845276 0.815454
vt 0.850113 0.820409
vt 0.845276 0.820419
vt 0.600405 0.997903
vt 0.595565 0.995016
vt 0.595565 0.976369
vt 0.600405 0.973484
vt 0.829468 0.970575
vt 0.834410 0.973466
vt 0.834410 0.992119
vt 0.829468 0.995000
vt 0.462597 0.923561
vt 0.462597 0.947986
vt 0.440165 0.947986
vt 0.440165 0.923560
vt 0.692238 0.944853
vt 0.687318 0.941480
vt 0.687407 0.922379
vt 0.692238 0.922410
vt 0.789127 0.788350
vt 0.807780 0.788350
vt 0.807780 0.807451
vt 0.789127 0.807451
vt 0.920325 0.482241
vt 0.915488 0.482273
vt 0.915400 0.463172
vt 0.920325 0.459798
vt 0.992914 0.178175
vt 0.997754 0.181062
vt 0.997754 0.199710
vt 0.992914 0.202594
vt 0.997585 0.084772
vt 0.992745 0.081885
vt 0.992745 0.063232
vt 0.997585 0.060346
vt 0.879206 0.778720
vt 0.903632 0.778720
vt 0.903632 0.830332
vt 0.879206 0.830332
vt 0.906329 0.314377
vt 0.911161 0.314386
vt 0.911161 0.366015
vt 0.906329 0.366007
vt 0.594425 0.887404
vt 0.575772 0.887404
vt 0.575772 0.835775
vt 0.594425 0.835775
vt 0.886453 0.071764
vt 0.881616 0.071773
vt 0.881616 0.020144
vt 0.886453 0.020134
vt 0.493803 0.974718
vt 0.498643 0.977604
vt 0.498643 0.996252
vt 0.493803 0.999137
vt 0.917648 0.996380
vt 0.912808 0.993494
vt 0.912808 0.974841
vt 0.917648 0.971954
vt 0.614017 0.950267
vt 0.614017 0.974692
vt 0.605057 0.974692
vt 0.605057 0.950267
vt 0.957458 0.848420
vt 0.952620 0.848496
vt 0.952620 0.839539
vt 0.957458 0.839462
vt 0.976987 0.321645
vt 0.976987 0.340298
vt 0.968027 0.340298
vt 0.968027 0.321645
vt 0.956671 0.899684
vt 0.961511 0.899676
vt 0.961511 0.908636
vt 0.956671 0.908644
vt 0.590464 0.999410
vt 0.585625 0.996525
vt 0.585625 0.977873
vt 0.590464 0.974985
vt 0.947778 0.848420
vt 0.947778 0.839462
vt 0.952620 0.839538
vt 0.952620 0.848496
vt 0.974706 0.283322
vt 0.965746 0.283323
vt 0.965746 0.258897
vt 0.974706 0.258897
vt 0.215493 0.972238
vt 0.215493 0.996663
vt 0.210653 0.993777
vt 0.210653 0.975124
vt 0.892256 0.960288
vt 0.901217 0.960288
vt 0.901217 0.978941
vt 0.892256 0.978941
vt 0.961511 0.908636
vt 0.966351 0.899684
vt 0.966351 0.908644
vt 0.877561 0.998958
vt 0.877561 0.974533
vt 0.882400 0.977418
vt 0.882400 0.996071
vt 0.801916 0.129131
vt 0.808298 0.129131
vt 0.808298 0.284990
vt 0.801915 0.284990
vt 0.707839 0.956412
vt 0.707839 0.962793
vt 0.703877 0.963751
vt 0.703880 0.958329
vt 0.689809 0.958323
vt 0.689809 0.945680
vt 0.707839 0.945684
vt 0.791184 0.284990
vt 0.791184 0.129131
vt 0.984371 0.563450
vt 0.987414 0.557842
vt 0.987432 0.557826
vt 0.987432 0.565086
vt 0.801916 0.128180
vt 0.791184 0.128180
vt 0.789127 0.787399
vt 0.789127 0.631540
vt 0.807158 0.631521
vt 0.807158 0.787385
vt 0.807158 0.788343
vt 0.953756 0.547436
vt 0.964487 0.547436
vt 0.964487 0.565467
vt 0.951841 0.565467
vt 0.951842 0.551403
vt 0.853315 0.226806
vt 0.840669 0.226806
vt 0.840669 0.225849
vt 0.853315 0.225849
vt 0.947374 0.543974
vt 0.947223 0.551402
vt 0.738941 0.802031
vt 0.746369 0.802031
vt 0.746369 0.814857
vt 0.738941 0.814857
vt 0.832812 0.807597
vt 0.839044 0.807597
vt 0.839044 0.820419
vt 0.832812 0.820419
vt 0.790127 0.963843
vt 0.783745 0.963843
vt 0.783895 0.956416
vt 0.790127 0.956416
vt 0.796359 0.956416
vt 0.796510 0.963843
vt 0.845276 0.807596
vt 0.845276 0.820418
vt 0.825349 0.807637
vt 0.825349 0.820464
vt 0.817921 0.820463
vt 0.817921 0.807637
vt 0.964337 0.522482
vt 0.964487 0.529910
vt 0.959869 0.529910
vt 0.957955 0.525943
vt 0.959869 0.543974
vt 0.947223 0.543974
vt 0.947223 0.525943
vt 0.832812 0.651785
vt 0.832812 0.650828
vt 0.845458 0.650828
vt 0.845458 0.651785
vt 0.832812 0.807596
vt 0.845458 0.807596
vt 0.764399 0.953162
vt 0.764399 0.963891
vt 0.746369 0.963887
vt 0.746369 0.951245
vt 0.760441 0.951244
vt 0.760437 0.945822
vt 0.764399 0.946782
vt 0.000000 0.000000
vt 0.718686 0.976836
vt 0.713262 0.976836
vt 0.713262 0.964017
vt 0.718686 0.964017
vt 0.707839 0.976836
vt 0.707839 0.964017
vt 0.762631 0.963893
vt 0.766596 0.963891
vt 0.766596 0.976714
vt 0.762631 0.976717
vt 0.755744 0.976717
vt 0.755744 0.963893
vt 0.963007 0.127915
vt 0.956625 0.127915
vt 0.956625 0.115091
vt 0.963007 0.115091
vt 0.742402 0.645221
vt 0.742402 0.801081
vt 0.735516 0.801080
vt 0.735516 0.645221
vt 0.731479 0.801080
vt 0.731479 0.645221
vt 0.527678 0.747572
vt 0.527678 0.753953
vt 0.523641 0.753952
vt 0.523641 0.747571
vt 0.523641 0.741191
vt 0.527678 0.741191
vt 0.828774 0.650828
vt 0.832811 0.650828
vt 0.832812 0.806687
vt 0.828775 0.806687
vt 0.821888 0.650828
vt 0.821888 0.806687
vt 0.148660 0.976802
vt 0.141774 0.976802
vt 0.141774 0.963979
vt 0.148660 0.963979
vt 0.969390 0.115091
vt 0.969390 0.127915
vt 0.268404 0.971048
vt 0.275290 0.971050
vt 0.275290 0.977430
vt 0.268404 0.977429
vt 0.268404 0.964667
vt 0.275290 0.964669
vt 0.264438 0.971047
vt 0.264441 0.965625
vt 0.264441 0.976469
vt 0.137811 0.976799
vt 0.137811 0.963975
vt 0.832812 0.807637
vt 0.828775 0.807637
vt 0.422437 0.982002
vt 0.425477 0.980330
vt 0.425474 0.987588
vt 0.425477 0.987612
vt 0.807190 0.386923
vt 0.807190 0.542782
vt 0.800807 0.542782
vt 0.800807 0.386923
vt 0.807190 0.385972
vt 0.817921 0.385972
vt 0.817921 0.386923
vt 0.817921 0.542782
vt 0.102908 0.616620
vt 0.102908 0.617578
vt 0.084877 0.617564
vt 0.084877 0.616613
vt 0.102908 0.773442
vt 0.084877 0.773423
vt 0.828775 0.820464
vt 0.832812 0.820464
vt 0.534885 0.680762
vt 0.534885 0.667936
vt 0.541267 0.667936
vt 0.541267 0.680762
vt 0.534885 0.681713
vt 0.541267 0.681713
vt 0.528502 0.680762
vt 0.528502 0.667936
vt 0.528502 0.681713
vt 0.796510 0.967269
vt 0.796510 0.971306
vt 0.790127 0.971306
vt 0.790127 0.967269
vt 0.783745 0.967269
vt 0.783745 0.971306
vt 0.731479 0.802031
vt 0.735516 0.802031
vt 0.735516 0.814857
vt 0.731479 0.814857
vt 0.528502 0.837572
vt 0.534885 0.837572
vt 0.541267 0.837572
vt 0.853315 0.382617
vt 0.840669 0.382617
vt 0.879255 0.656398
vt 0.881464 0.656398
vt 0.881414 0.664057
vt 0.879206 0.664058
vt 0.809438 0.908608
vt 0.813413 0.915493
vt 0.811088 0.916116
vt 0.807736 0.910310
vt 0.802553 0.904634
vt 0.801930 0.906959
vt 0.881464 0.671755
vt 0.879255 0.671755
vt 0.839357 0.918129
vt 0.839357 0.914591
vt 0.847589 0.912385
vt 0.847589 0.920334
vt 0.837588 0.921193
vt 0.843615 0.927219
vt 0.837588 0.911527
vt 0.843615 0.905500
vt 0.879390 0.650828
vt 0.881598 0.650828
vt 0.807844 0.599961
vt 0.805635 0.599961
vt 0.805637 0.592339
vt 0.807846 0.592339
vt 0.834524 0.909758
vt 0.836730 0.901526
vt 0.813413 0.923443
vt 0.809438 0.930327
vt 0.807736 0.928625
vt 0.811088 0.922820
vt 0.387103 0.907288
vt 0.384912 0.907287
vt 0.384914 0.900860
vt 0.387105 0.900860
vt 0.879361 0.728720
vt 0.881551 0.728720
vt 0.881438 0.733417
vt 0.879248 0.733417
vt 0.802649 0.118991
vt 0.799297 0.124797
vt 0.797089 0.122588
vt 0.799632 0.118183
vt 0.802649 0.112287
vt 0.799632 0.113096
vt 0.963388 0.054903
vt 0.966993 0.054903
vt 0.966993 0.059813
vt 0.963388 0.059813
vt 0.298391 0.971427
vt 0.301996 0.971426
vt 0.301991 0.975020
vt 0.298387 0.975021
vt 0.844294 0.016442
vt 0.841751 0.012036
vt 0.845417 0.011054
vt 0.846978 0.013757
vt 0.848700 0.018985
vt 0.849682 0.015318
vt 0.301991 0.979933
vt 0.298387 0.979934
vt 0.853787 0.018985
vt 0.852804 0.015318
vt 0.975473 0.060351
vt 0.975473 0.073660
vt 0.973267 0.073656
vt 0.973267 0.060347
vt 0.970252 0.073655
vt 0.970252 0.060346
vt 0.967236 0.073656
vt 0.967236 0.060347
vt 0.858192 0.016442
vt 0.855508 0.013757
vt 0.860736 0.012036
vt 0.857069 0.011054
vt 0.254230 0.973270
vt 0.254230 0.959961
vt 0.256495 0.959960
vt 0.256495 0.973269
vt 0.970252 0.086964
vt 0.967236 0.086965
vt 0.254230 0.946652
vt 0.256495 0.946650
vt 0.822765 0.012036
vt 0.826432 0.011054
vt 0.827993 0.013757
vt 0.825309 0.016442
vt 0.830697 0.015318
vt 0.829714 0.018985
vt 0.259531 0.946650
vt 0.259531 0.959959
vt 0.822765 0.006949
vt 0.826432 0.007932
vt 0.044007 0.981243
vt 0.044007 0.976297
vt 0.047612 0.976297
vt 0.047612 0.981244
vt 0.044009 0.984934
vt 0.047613 0.984935
vt 0.825309 0.002544
vt 0.827993 0.005228
vt 0.044009 0.971419
vt 0.047613 0.971420
vt 0.774279 0.124797
vt 0.772070 0.122588
vt 0.774614 0.118183
vt 0.777630 0.118991
vt 0.774614 0.113096
vt 0.777630 0.112287
vt 0.264230 0.822704
vt 0.264144 0.826268
vt 0.260540 0.826269
vt 0.260626 0.822704
vt 0.768473 0.128148
vt 0.767665 0.125132
vt 0.242460 0.953681
vt 0.240269 0.953682
vt 0.240275 0.948945
vt 0.242466 0.948944
vt 0.766684 0.962609
vt 0.768875 0.962609
vt 0.768875 0.969079
vt 0.766684 0.969079
vt 0.366103 0.900860
vt 0.366726 0.903185
vt 0.360921 0.906537
vt 0.359219 0.904835
vt 0.357569 0.912342
vt 0.355244 0.911720
vt 0.357569 0.919046
vt 0.355244 0.919669
vt 0.768875 0.975560
vt 0.766684 0.975560
vt 0.360921 0.924852
vt 0.359219 0.926553
vt 0.881551 0.773580
vt 0.879361 0.773580
vt 0.879248 0.768797
vt 0.881438 0.768797
vt 0.772070 0.108690
vt 0.774279 0.106482
vt 0.879206 0.762307
vt 0.881396 0.762306
vt 0.767665 0.106147
vt 0.768473 0.103130
vt 0.986824 0.327005
vt 0.986828 0.331919
vt 0.983223 0.331921
vt 0.983219 0.327006
vt 0.762578 0.106147
vt 0.761769 0.103130
vt 0.986824 0.322092
vt 0.983219 0.322094
vt 0.833819 0.015318
vt 0.834801 0.018985
vt 0.836523 0.013757
vt 0.839207 0.016442
vt 0.986828 0.318498
vt 0.983223 0.318499
vt 0.838084 0.011054
vt 0.841750 0.012036
vt 0.765053 0.981627
vt 0.765053 0.976717
vt 0.768657 0.976717
vt 0.768657 0.981627
vt 0.758172 0.108690
vt 0.755964 0.106482
vt 0.755629 0.113096
vt 0.752612 0.112287
vt 0.755629 0.118183
vt 0.752612 0.118991
vt 0.765053 0.986544
vt 0.768657 0.986544
vt 0.758172 0.122588
vt 0.755964 0.124797
vt 0.264144 0.836095
vt 0.264230 0.839725
vt 0.260626 0.839725
vt 0.260540 0.836096
vt 0.838084 0.007932
vt 0.841750 0.006949
vt 0.836523 0.005228
vt 0.839207 0.002544
vt 0.833819 0.003667
vt 0.834801 0.000000
vt 0.264112 0.831170
vt 0.260509 0.831170
vt 0.830697 0.003667
vt 0.829714 0.000000
vt 0.762578 0.125132
vt 0.761769 0.128148
vt 0.242466 0.966631
vt 0.240275 0.966632
vt 0.240269 0.960156
vt 0.242460 0.960155
vt 0.380937 0.904835
vt 0.379235 0.906537
vt 0.373430 0.903185
vt 0.374053 0.900860
vt 0.911073 0.239142
vt 0.911080 0.246823
vt 0.908871 0.246824
vt 0.908864 0.239143
vt 0.911073 0.231465
vt 0.908864 0.231466
vt 0.888672 0.909976
vt 0.890878 0.901744
vt 0.897762 0.905719
vt 0.891736 0.911745
vt 0.901737 0.912603
vt 0.893505 0.914809
vt 0.901737 0.920553
vt 0.893505 0.918347
vt 0.911080 0.225849
vt 0.908871 0.225850
vt 0.897762 0.927437
vt 0.891736 0.921411
vt 0.967465 0.327042
vt 0.967465 0.334715
vt 0.965256 0.334715
vt 0.965256 0.327042
vt 0.890878 0.931412
vt 0.888672 0.923180
vt 0.967465 0.319357
vt 0.965256 0.319357
vt 0.882928 0.931412
vt 0.885134 0.923180
vt 0.881464 0.698354
vt 0.881598 0.704026
vt 0.879390 0.704026
vt 0.879255 0.698354
vt 0.876044 0.927437
vt 0.882070 0.921411
vt 0.881414 0.690657
vt 0.879206 0.690657
vt 0.366726 0.928203
vt 0.366103 0.930528
vt 0.373430 0.928203
vt 0.374053 0.930528
vt 0.881464 0.682997
vt 0.879255 0.682997
vt 0.379235 0.924852
vt 0.380937 0.926553
vt 0.881598 0.677427
vt 0.879390 0.677427
vt 0.872069 0.920553
vt 0.880301 0.918347
vt 0.872069 0.912603
vt 0.880301 0.914809
vt 0.876044 0.905719
vt 0.882070 0.911745
vt 0.177116 0.877046
vt 0.177118 0.869424
vt 0.179327 0.869424
vt 0.179325 0.877046
vt 0.882928 0.901744
vt 0.885134 0.909976
vt 0.177116 0.884776
vt 0.179325 0.884776
vt 0.382587 0.919046
vt 0.384912 0.919669
vt 0.382587 0.912342
vt 0.384912 0.911719
vt 0.177118 0.890543
vt 0.179327 0.890543
vt 0.908864 0.293548
vt 0.911055 0.293548
vt 0.911055 0.300067
vt 0.908864 0.300067
vt 0.911057 0.304931
vt 0.908866 0.304930
vt 0.908866 0.287121
vt 0.911057 0.287121
vt 0.881438 0.755847
vt 0.879248 0.755848
vt 0.879361 0.751150
vt 0.881551 0.751150
vt 0.347679 0.578497
vt 0.347679 0.553469
vt 0.351119 0.553468
vt 0.351119 0.578497
vt 0.353686 0.553467
vt 0.353686 0.578496
vt 0.678672 0.971021
vt 0.678672 0.945993
vt 0.682091 0.945991
vt 0.682090 0.971020
vt 0.827923 0.911527
vt 0.826154 0.914591
vt 0.817921 0.912385
vt 0.821896 0.905500
vt 0.830986 0.909758
vt 0.828781 0.901526
vt 0.661498 0.901085
vt 0.663707 0.901084
vt 0.663714 0.908764
vt 0.661505 0.908765
vt 0.807846 0.613459
vt 0.805637 0.613458
vt 0.805635 0.607691
vt 0.807844 0.607691
vt 0.794604 0.934302
vt 0.787719 0.930327
vt 0.789421 0.928625
vt 0.795227 0.931977
vt 0.802553 0.934302
vt 0.801930 0.931977
vt 0.387103 0.913806
vt 0.384912 0.913806
vt 0.387105 0.918670
vt 0.384914 0.918670
vt 0.793491 0.128148
vt 0.786788 0.128148
vt 0.787596 0.125132
vt 0.792683 0.125132
vt 0.883765 0.172181
vt 0.887368 0.172180
vt 0.887454 0.175810
vt 0.883851 0.175810
vt 0.963388 0.049985
vt 0.966993 0.049985
vt 0.841751 0.006949
vt 0.844294 0.002543
vt 0.846978 0.005228
vt 0.845417 0.007931
vt 0.966277 0.642741
vt 0.966277 0.629436
vt 0.968505 0.629384
vt 0.968505 0.642689
vt 0.343312 0.669233
vt 0.343312 0.682542
vt 0.340294 0.682542
vt 0.340294 0.669233
vt 0.966277 0.616131
vt 0.968505 0.616078
vt 0.343312 0.695851
vt 0.340294 0.695851
vt 0.337281 0.682542
vt 0.337281 0.669233
vt 0.337281 0.695851
vt 0.975473 0.086969
vt 0.973267 0.086965
vt 0.963254 0.642760
vt 0.963255 0.629454
vt 0.963254 0.616149
vt 0.960246 0.616129
vt 0.960246 0.629435
vt 0.960246 0.642740
vt 0.848700 0.000000
vt 0.853787 0.000000
vt 0.852804 0.003667
vt 0.849682 0.003667
vt 0.883765 0.162354
vt 0.887368 0.162353
vt 0.887337 0.167255
vt 0.883733 0.167255
vt 0.780982 0.124797
vt 0.777630 0.118991
vt 0.780647 0.118183
vt 0.783190 0.122588
vt 0.883851 0.158789
vt 0.887454 0.158789
vt 0.777630 0.112287
vt 0.780647 0.113096
vt 0.947237 0.946718
vt 0.949428 0.946717
vt 0.949422 0.951453
vt 0.947232 0.951454
vt 0.949422 0.957927
vt 0.947232 0.957928
vt 0.783745 0.923443
vt 0.783745 0.915493
vt 0.786070 0.916116
vt 0.786070 0.922820
vt 0.949428 0.964404
vt 0.947237 0.964405
vt 0.661505 0.887791
vt 0.663714 0.887790
vt 0.663707 0.893407
vt 0.661498 0.893408
vt 0.826154 0.918129
vt 0.827923 0.921193
vt 0.821896 0.927219
vt 0.817921 0.920334
vt 0.685507 0.971021
vt 0.685507 0.945993
vt 0.688007 0.945997
vt 0.688007 0.971025
vt 0.830986 0.922962
vt 0.828781 0.931194
vt 0.970664 0.465048
vt 0.970664 0.440019
vt 0.974079 0.440019
vt 0.974079 0.465048
vt 0.977499 0.440019
vt 0.977499 0.465048
vt 0.834524 0.922962
vt 0.836730 0.931194
vt 0.496879 0.903933
vt 0.499088 0.903933
vt 0.499088 0.911618
vt 0.496879 0.911618
vt 0.499088 0.919290
vt 0.496879 0.919290
vt 0.787719 0.908608
vt 0.794604 0.904634
vt 0.795227 0.906959
vt 0.789421 0.910310
vt 0.538640 0.963783
vt 0.540830 0.963783
vt 0.540830 0.970264
vt 0.538640 0.970264
vt 0.540830 0.976734
vt 0.538640 0.976734
vt 0.780982 0.106482
vt 0.786788 0.103130
vt 0.787596 0.106147
vt 0.783190 0.108690
vt 0.678554 0.976929
vt 0.674949 0.976929
vt 0.674949 0.971982
vt 0.678554 0.971982
vt 0.674950 0.967105
vt 0.678555 0.967105
vt 0.860736 0.006949
vt 0.857069 0.007932
vt 0.858192 0.002544
vt 0.855508 0.005228
vt 0.958059 0.642687
vt 0.958059 0.629381
vt 0.259531 0.973268
vt 0.262524 0.959960
vt 0.262524 0.973269
vt 0.262524 0.946651
vt 0.958059 0.616076
vt 0.678555 0.980620
vt 0.674950 0.980619
vt 0.793491 0.103130
vt 0.792683 0.106147
vt 0.799297 0.106482
vt 0.797089 0.108690
vt 0.301996 0.984847
vt 0.298391 0.984849
vt 0.881396 0.739876
vt 0.879206 0.739876
vt 0.881438 0.746367
vt 0.879248 0.746367
vt 0.881551 0.751150
vt 0.879361 0.751150
vt 0.881598 0.677426
vt 0.879390 0.677427
vt 0.968509 0.848520
vt 0.968509 0.873542
vt 0.965984 0.873601
vt 0.965984 0.848580
vt 0.962559 0.873622
vt 0.962559 0.848601
vt 0.344287 0.578497
vt 0.344287 0.553468
vt 0.959150 0.848578
vt 0.959150 0.873600
vt 0.956671 0.873539
vt 0.956671 0.848518
vt 0.371396 0.553466
vt 0.346278 0.553466
vt 0.346278 0.540100
vt 0.375057 0.540100
vt 0.638367 0.887790
vt 0.638367 0.862672
vt 0.660610 0.862672
vt 0.660610 0.887790
vt 0.453882 0.540101
vt 0.476125 0.540101
vt 0.476125 0.553456
vt 0.453882 0.553456
vt 0.453882 0.517503
vt 0.476125 0.517503
vt 0.346278 0.517503
vt 0.375057 0.517503
vt 0.346278 0.306705
vt 0.375057 0.306705
vt 0.453882 0.306705
vt 0.476125 0.306705
vt 0.403835 0.246762
vt 0.375057 0.246762
vt 0.375057 0.035963
vt 0.403835 0.035964
vt 0.375057 0.013366
vt 0.403835 0.013366
vt 0.593881 0.035963
vt 0.593881 0.246762
vt 0.579661 0.246769
vt 0.582478 0.035970
vt 0.593881 0.013366
vt 0.586598 0.013373
vt 0.375057 0.000000
vt 0.400175 0.000000
vt 0.593881 0.000000
vt 0.590778 0.000007
vt 0.403854 0.540108
vt 0.403842 0.517522
vt 0.428844 0.517523
vt 0.428856 0.540108
vt 0.403866 0.553462
vt 0.428868 0.553462
vt 0.635264 0.860324
vt 0.663714 0.860324
vt 0.635264 0.835321
vt 0.663714 0.835321
vt 0.006934 0.539916
vt 0.043743 0.539916
vt 0.039563 0.553277
vt 0.011113 0.553277
vt 0.428875 0.013352
vt 0.428880 0.000000
vt 0.453882 0.000000
vt 0.453878 0.013352
vt 0.428871 0.035936
vt 0.453873 0.035935
vt 0.002814 0.517326
vt 0.047863 0.517326
vt 0.428869 0.246724
vt 0.453871 0.246724
vt 0.000000 0.306600
vt 0.050683 0.306600
vt 0.608101 0.517510
vt 0.608101 0.540107
vt 0.600818 0.540101
vt 0.596699 0.517503
vt 0.608101 0.306712
vt 0.593881 0.306705
vt 0.608101 0.265568
vt 0.603255 0.265561
vt 0.428879 0.287899
vt 0.453881 0.287899
vt 0.608101 0.000007
vt 0.603255 0.000000
vt 0.428880 0.553460
vt 0.453882 0.553460
vt 0.009379 0.000000
vt 0.041314 0.000000
vt 0.041310 0.265470
vt 0.009375 0.265470
vt 0.403864 0.265561
vt 0.403866 0.000000
vt 0.428869 0.000000
vt 0.428866 0.265562
vt 0.403835 0.306732
vt 0.428838 0.306732
vt 0.593881 0.287905
vt 0.589035 0.287912
vt 0.593881 0.553467
vt 0.589035 0.553474
vt 0.403835 0.553467
vt 0.375057 0.553467
vt 0.375057 0.287905
vt 0.403835 0.287906
vt 0.453882 0.000000
vt 0.476125 0.000000
vt 0.476125 0.265561
vt 0.453882 0.265561
vt 0.346278 0.265561
vt 0.375057 0.265561
vt 0.346278 0.000000
vt 0.375057 0.000000
vt 0.877022 0.529149
vt 0.877022 0.557927
vt 0.854786 0.557931
vt 0.854786 0.529154
vt 0.881867 0.560273
vt 0.849941 0.560280
vt 0.881867 0.585275
vt 0.849941 0.585282
vt 0.608101 0.553474
vt 0.604998 0.553467
s 1
usemtl M249_Gun
f 2/1/1 6/2/2 4/3/3 1/4/4
f 3/5/5 8/6/6 2/7/1 1/8/4
f 1/9/4 4/10/3 5/11/7 3/12/5
f 7/13/8 5/14/7 4/15/3 6/16/2
f 8/17/6 7/18/8 6/19/2 2/20/1
f 3/21/5 5/22/7 7/23/8 8/24/6
f 10/25/1 14/26/2 12/27/3 9/28/4
f 11/29/5 16/30/6 10/31/1 9/32/4
f 9/33/4 12/34/3 13/35/7 11/36/5
f 15/37/8 13/38/7 12/39/3 14/40/2
f 16/41/6 15/42/8 14/43/2 10/44/1
f 11/45/5 13/46/7 15/47/8 16/48/6
f 18/49/1 22/50/2 20/51/3 17/52/4
f 19/53/5 24/54/6 18/55/1 17/56/4
f 17/57/4 20/58/3 21/59/7 19/60/5
f 23/61/8 21/62/7 20/63/3 22/64/2
f 24/65/6 23/66/8 22/67/2 18/68/1
f 19/69/5 21/70/7 23/71/8 24/72/6
f 26/73/1 30/74/2 28/75/3 25/76/4
f 27/77/5 32/78/6 26/79/1 25/80/4
f 25/81/4 28/82/3 29/83/7 27/84/5
f 31/85/8 29/86/7 28/87/3 30/88/2
f 32/89/6 31/90/8 30/91/2 26/92/1
f 27/93/5 29/94/7 31/95/8 32/96/6
f 34/97/1 38/98/2 36/99/3 33/100/4
f 35/101/5 40/102/6 34/103/1 33/104/4
f 33/105/4 36/106/3 37/107/7 35/108/5
f 39/109/8 37/110/7 36/111/3 38/112/2
f 40/113/6 39/114/8 38/115/2 34/116/1
f 35/117/5 37/118/7 39/119/8 40/120/6
f 42/121/1 46/122/2 44/123/3 41/124/4
f 43/125/5 48/126/6 42/127/1 41/128/4
f 41/129/4 44/130/3 45/131/7 43/132/5
f 47/133/8 45/134/7 44/135/3 46/136/2
f 48/137/6 47/138/8 46/139/2 42/140/1
f 43/141/5 45/142/7 47/143/8 48/144/6
f 50/145/1 54/146/2 52/147/3 49/148/4
f 51/149/5 56/150/6 50/151/1 49/152/4
f 49/153/4 52/154/3 53/155/7 51/156/5
f 55/157/8 53/158/7 52/159/3 54/160/2
f 56/161/6 55/162/8 54/163/2 50/164/1
f 51/165/5 53/166/7 55/167/8 56/168/6
f 58/169/1 62/170/2 60/171/3 57/172/4
f 59/173/5 64/174/6 58/175/1 57/176/4
f 57/177/4 60/178/3 61/179/7 59/180/5
f 63/181/8 61/182/7 60/183/3 62/184/2
f 64/185/6 63/186/8 62/187/2 58/188/1
f 59/189/5 61/190/7 63/191/8 64/192/6
f 66/193/1 70/194/2 68/195/3 65/196/4
f 67/197/5 72/198/6 66/199/1 65/77/4
f 65/200/4 68/201/3 69/202/7 67/203/5
f 71/204/8 69/85/7 68/205/3 70/206/2
f 72/207/6 71/208/8 70/209/2 66/210/1
f 67/211/5 69/212/7 71/213/8 72/214/6
f 74/215/1 78/216/2 76/217/3 73/218/4
f 75/219/5 80/220/6 74/221/1 73/222/4
f 73/223/4 76/224/3 77/225/7 75/226/5
f 79/227/8 77/228/7 76/229/3 78/230/2
f 80/231/6 79/232/8 78/233/2 74/234/1
f 75/235/5 77/236/7 79/237/8 80/238/6
f 82/239/1 86/240/2 84/241/3 81/242/4
f 83/243/5 88/244/6 82/245/1 81/246/4
f 81/247/4 84/248/3 85/249/7 83/250/5
f 87/251/8 85/252/7 84/253/3 86/254/2
f 88/255/6 87/256/8 86/257/2 82/258/1
f 83/259/5 85/260/7 87/261/8 88/262/6
f 90/263/1 94/264/2 92/265/3 89/266/4
f 91/267/5 96/268/6 90/269/1 89/270/4
f 89/271/4 92/272/3 93/273/7 91/274/5
f 95/252/8 93/275/7 92/276/3 94/277/2
f 96/278/6 95/279/8 94/280/2 90/281/1
f 91/282/5 93/283/7 95/284/8 96/285/6
f 98/286/1 102/287/2 100/288/3 97/289/4
f 99/290/5 104/291/6 98/292/1 97/293/4
f 97/294/4 100/295/3 101/296/7 99/297/5
f 103/298/8 101/299/7 100/300/3 102/301/2
f 104/302/6 103/303/8 102/304/2 98/305/1
f 99/306/5 101/307/7 103/308/8 104/309/6
f 105/310/9 106/311/10 109/312/11 108/313/12
f 106/314/10 105/315/9 107/316/13 112/317/14
f 107/318/13 105/319/9 108/320/12 110/321/15
f 111/229/16 110/322/15 108/323/12 109/324/11
f 112/325/14 107/326/13 110/327/15 111/328/16
f 106/329/10 112/330/14 111/331/16 109/332/11
f 113/333/9 114/334/10 117/335/11 116/336/12
f 114/79/10 113/337/9 115/338/13 120/339/14
f 115/340/13 113/341/9 116/342/12 118/343/15
f 119/344/16 118/345/15 116/346/12 117/347/11
f 120/348/14 115/349/13 118/350/15 119/351/16
f 114/352/10 120/353/14 119/354/16 117/355/11
f 121/356/9 122/357/10 125/358/11 124/359/12
f 122/360/10 121/361/9 123/362/13 128/363/14
f 123/364/13 121/365/9 124/366/12 126/367/15
f 127/368/16 126/369/15 124/370/12 125/371/11
f 128/372/14 123/373/13 126/374/15 127/375/16
f 122/376/10 128/377/14 127/378/16 125/379/11
f 129/380/9 130/381/10 133/382/11 132/383/12
f 130/384/10 129/385/9 131/386/13 136/54/14
f 131/387/13 129/388/9 132/389/12 134/390/15
f 135/391/16 134/392/15 132/393/12 133/394/11
f 136/395/14 131/396/13 134/397/15 135/398/16
f 130/399/10 136/400/14 135/401/16 133/402/11
f 137/403/9 138/404/10 141/405/11 140/406/12
f 138/407/10 137/408/9 139/409/13 144/410/14
f 139/411/13 137/412/9 140/413/12 142/414/15
f 143/415/16 142/416/15 140/417/12 141/418/11
f 144/419/14 139/420/13 142/421/15 143/422/16
f 138/423/10 144/424/14 143/425/16 141/426/11
f 145/427/9 146/428/10 149/429/11 148/430/12
f 146/431/10 145/398/9 147/432/13 152/433/14
f 147/434/13 145/435/9 148/436/12 150/437/15
f 151/438/16 150/439/15 148/440/12 149/441/11
f 152/442/14 147/443/13 150/444/15 151/445/16
f 146/446/10 152/447/14 151/448/16 149/449/11
f 153/450/9 154/451/10 157/452/11 156/453/12
f 154/454/10 153/455/9 155/456/13 160/328/14
f 155/457/13 153/458/9 156/459/12 158/460/15
f 159/461/16 158/462/15 156/463/12 157/464/11
f 160/465/14 155/466/13 158/467/15 159/468/16
f 154/469/10 160/470/14 159/471/16 157/472/11
f 161/473/9 162/474/10 165/475/11 164/476/12
f 162/477/10 161/478/9 163/479/13 168/480/14
f 163/481/13 161/482/9 164/483/12 166/484/15
f 167/485/16 166/486/15 164/487/12 165/488/11
f 168/489/14 163/490/13 166/491/15 167/492/16
f 162/493/10 168/494/14 167/495/16 165/496/11
f 169/497/9 170/498/10 173/499/11 172/500/12
f 170/501/10 169/490/9 171/502/13 176/503/14
f 171/504/13 169/505/9 172/506/12 174/507/15
f 175/508/16 174/509/15 172/510/12 173/511/11
f 176/512/14 171/513/13 174/514/15 175/515/16
f 170/516/10 176/517/14 175/518/16 173/519/11
f 177/520/9 178/521/10 181/522/11 180/523/12
f 178/524/10 177/525/9 179/526/13 184/30/14
f 179/527/13 177/528/9 180/51/12 182/50/15
f 183/529/16 182/530/15 180/531/12 181/532/11
f 184/533/14 179/534/13 182/535/15 183/536/16
f 178/537/10 184/538/14 183/539/16 181/540/11
f 185/541/9 186/542/10 189/543/11 188/544/12
f 186/545/10 185/546/9 187/547/13 192/548/14
f 187/549/13 185/550/9 188/551/12 190/552/15
f 191/553/16 190/554/15 188/555/12 189/556/11
f 192/557/14 187/558/13 190/559/15 191/560/16
f 186/561/10 192/562/14 191/563/16 189/564/11
f 193/565/9 194/566/10 197/567/11 196/568/12
f 194/569/10 193/570/9 195/571/13 200/572/14
f 195/573/13 193/574/9 196/575/12 198/576/15
f 199/577/16 198/578/15 196/579/12 197/580/11
f 200/581/14 195/582/13 198/583/15 199/584/16
f 194/585/10 200/586/14 199/587/16 197/588/11
f 201/589/9 202/590/10 205/591/11 204/592/12
f 202/593/10 201/594/9 203/595/13 208/596/14
f 203/597/13 201/598/9 204/599/12 206/600/15
f 207/601/16 206/553/15 204/602/12 205/603/11
f 208/604/14 203/570/13 206/605/15 207/606/16
f 202/235/10 208/607/14 207/608/16 205/609/11
f 210/610/17 214/611/18 212/612/19 209/613/20
f 211/614/21 216/615/22 210/616/17 209/617/20
f 209/618/20 212/619/19 213/620/23 211/621/21
f 215/622/24 213/623/23 212/624/19 214/625/18
f 216/626/22 215/618/24 214/627/18 210/628/17
f 211/629/21 213/630/23 215/631/24 216/632/22
f 218/633/25 222/634/26 220/635/27 217/636/28
f 219/637/29 224/638/30 218/639/25 217/640/28
f 217/641/28 220/642/27 221/643/31 219/644/29
f 223/645/32 221/646/31 220/647/27 222/648/26
f 224/649/30 223/650/32 222/651/26 218/652/25
f 219/653/29 221/654/31 223/655/32 224/656/30
f 226/657/17 230/658/18 228/659/19 225/660/20
f 227/661/21 232/662/22 226/663/17 225/664/20
f 225/665/20 228/666/19 229/667/23 227/668/21
f 231/669/24 229/670/23 228/671/19 230/672/18
f 232/673/22 231/674/24 230/675/18 226/676/17
f 227/677/21 229/678/23 231/679/24 232/680/22
f 234/681/1 238/682/2 236/683/3 233/684/4
f 235/685/5 240/686/6 234/687/1 233/688/4
f 233/689/4 236/690/3 237/691/7 235/692/5
f 239/693/8 237/694/7 236/695/3 238/696/2
f 240/697/6 239/698/8 238/699/2 234/700/1
f 235/701/5 237/702/7 239/703/8 240/704/6
f 241/705/9 242/706/10 245/707/11 244/708/12
f 242/709/10 241/710/9 243/711/13 248/712/14
f 243/713/13 241/714/9 244/715/12 246/716/15
f 247/717/16 246/718/15 244/719/12 245/720/11
f 248/721/14 243/698/13 246/722/15 247/723/16
f 242/724/10 248/725/14 247/726/16 245/727/11
f 253/728/33 254/729/34 250/730/35 249/731/36
f 249/732/36 250/733/35 288/734/37 251/735/38
f 249/732/36 251/735/38 332/736/39 333/737/40 252/738/41
f 253/728/33 249/731/36 252/739/41 256/740/42
f 254/741/34 253/742/33 255/743/43 264/744/44
f 255/745/43 253/728/33 256/740/42 258/746/45
f 256/747/42 252/748/41 333/749/40 257/750/46
f 259/751/47 258/645/45 256/747/42 257/750/46
f 255/752/43 258/753/45 259/754/47 260/755/48 262/756/49
f 257/757/46 261/758/50 260/759/48 259/760/47
f 264/761/44 255/752/43 262/756/49 263/762/51
f 264/763/44 263/764/51 266/765/52 267/766/53
f 263/767/51 265/768/50 268/769/54 266/770/52
f 269/771/55 267/772/53 266/773/52 268/774/54
f 269/771/55 268/774/54 270/775/56 271/776/57
f 272/777/58 270/778/56 268/769/54 265/768/50
f 273/779/59 271/780/57 270/781/56 272/782/58
f 273/783/59 272/784/58 274/785/49 275/786/60
f 275/786/60 274/785/49 276/787/48 277/788/61 319/789/62
f 279/790/63 277/791/61 276/792/48 278/793/50
f 281/794/64 279/790/63 278/793/50 280/795/65
f 283/796/66 318/797/67 281/798/64 280/799/65 282/800/68
f 283/796/66 282/800/68 284/801/37 285/802/69
f 284/803/37 286/803/70 307/803/71 285/803/69
f 287/803/50 289/803/50 286/803/70 284/803/37
f 287/803/50 288/803/37 291/803/72 289/803/50
f 286/804/70 289/805/50 290/806/73 312/807/74
f 291/808/72 292/809/75 290/806/73 289/805/50
f 294/810/76 292/811/75 291/812/72 293/813/77
f 288/803/37 250/803/35 293/803/77 291/803/72
f 295/814/46 296/815/78 294/810/76 293/813/77
f 250/803/35 298/803/79 295/803/46 293/803/77
f 310/816/80 296/817/78 295/818/46 297/819/81
f 298/803/79 301/803/82 297/803/81 295/803/46
f 250/820/35 254/821/34 299/822/83 298/823/79
f 298/823/79 299/822/83 331/824/42 300/825/78
f 301/826/82 298/827/79 300/828/78 302/829/80
f 301/826/82 302/829/80 304/830/84 303/831/85
f 303/803/85 306/803/63 297/803/81 301/803/82
f 303/832/85 304/833/84 313/834/86 305/835/87
f 285/836/69 303/832/85 305/835/87 315/837/88
f 285/803/69 307/803/71 306/803/63 303/803/85
f 306/838/63 307/839/71 309/840/89 308/841/84
f 310/816/80 297/819/81 306/842/63 308/843/84
f 311/844/90 310/845/80 308/846/84 309/847/89
f 311/844/90 294/848/76 296/849/78 310/845/80
f 311/844/90 290/850/73 292/851/75 294/848/76
f 311/844/90 309/847/89 312/852/74 290/850/73
f 309/840/89 307/839/71 286/853/70 312/854/74
f 305/835/87 313/834/86 321/855/86 314/856/87
f 315/837/88 305/835/87 314/856/87 273/779/59
f 315/857/88 273/858/59 275/859/60 316/860/91
f 316/861/91 283/862/66 285/863/69 315/864/88
f 275/865/60 319/866/62 317/867/86 316/861/91
f 316/861/91 317/867/86 318/868/67 283/862/66
f 277/869/61 279/870/63 317/871/86 319/872/62
f 317/871/86 279/870/63 281/873/64 318/874/67
f 314/856/87 320/875/92 271/780/57 273/779/59
f 321/855/86 322/876/93 320/875/92 314/856/87
f 323/877/94 326/878/95 322/879/93 321/880/86
f 325/881/94 323/877/94 321/880/86 313/882/86
f 323/877/94 324/883/42 328/884/96 326/878/95
f 325/881/94 331/885/42 324/883/42 323/877/94
f 320/886/92 322/887/93 326/888/95 327/889/55
f 329/890/97 327/889/55 326/888/95 328/891/96
f 324/892/42 330/893/83 329/894/97 328/895/96
f 330/893/83 264/763/44 267/766/53 329/894/97
f 269/771/55 327/889/55 329/890/97 267/772/53
f 299/822/83 330/893/83 324/892/42 331/824/42
f 254/821/34 264/763/44 330/893/83 299/822/83
f 269/771/55 271/776/57 320/886/92 327/889/55
f 300/896/78 331/885/42 325/881/94 302/897/80
f 304/898/84 302/897/80 325/881/94 313/882/86
f 333/899/40 332/900/39 261/758/50 257/757/46
f 343/901/98 337/902/99 336/903/100 340/904/101
f 336/905/100 337/906/99 352/907/102 338/908/103
f 339/909/104 336/905/100 338/908/103 535/910/105
f 340/904/101 336/903/100 339/911/104 342/912/106
f 341/913/107 344/914/108 343/915/98 340/916/101
f 536/917/109 341/913/107 340/916/101 342/918/106
f 344/914/108 347/919/110 345/920/111 343/915/98
f 345/921/111 348/922/112 337/902/99 343/901/98
f 346/923/113 349/924/114 348/925/112 345/926/111
f 347/919/110 537/927/115 346/928/113 345/920/111
f 348/929/112 349/930/114 351/931/116 350/932/117
f 337/906/99 348/929/112 350/932/117 352/907/102
f 351/933/116 354/934/114 353/935/112 350/936/117
f 350/937/117 353/938/112 355/939/99 352/940/102
f 353/941/112 354/942/114 357/943/118 356/944/119
f 355/945/99 353/941/112 356/944/119 358/946/120
f 357/947/118 360/948/121 359/949/122 356/950/119
f 356/951/119 359/952/122 362/953/123 358/954/120
f 359/955/122 360/956/121 483/957/118 361/958/119
f 362/959/123 359/955/122 361/958/119 364/960/120
f 358/954/120 362/953/123 363/961/124 533/962/125
f 363/963/124 362/959/123 364/960/120 366/964/125
f 361/965/119 487/966/126 365/967/127 364/968/120
f 364/968/120 365/967/127 367/969/55 366/970/125
f 366/970/125 367/969/55 371/971/128 368/972/129
f 369/973/130 363/963/124 366/964/125 368/974/129
f 523/975/131 369/973/130 368/974/129 370/976/132
f 368/977/129 371/978/128 372/979/133 370/980/132
f 375/981/134 373/982/135 371/971/128 367/969/55
f 373/983/135 376/984/136 372/979/133 371/978/128
f 378/985/137 376/986/136 373/987/135 374/988/138
f 374/988/138 373/987/135 375/989/134 402/990/139
f 376/984/136 377/991/115 528/992/50 372/979/133
f 380/993/113 377/994/115 376/986/136 378/985/137
f 379/995/136 382/996/115 380/997/113 378/998/137
f 399/999/135 379/995/136 378/998/137 374/1000/138
f 381/1001/111 529/1002/110 377/994/115 380/993/113
f 382/996/115 384/1003/110 381/1004/111 380/997/113
f 386/1005/140 384/1006/110 382/1007/115 383/1008/141
f 383/1008/141 382/1007/115 379/1009/136 396/1010/142
f 384/1011/110 385/1012/108 421/1013/98 381/1014/111
f 387/1015/143 385/1016/108 384/1006/110 386/1005/140
f 389/1017/144 387/1018/143 386/1019/140 388/1020/145
f 388/1021/145 386/1022/140 383/1023/141 391/1024/146
f 429/1025/143 389/1026/144 388/1027/145 390/1028/140
f 390/1028/140 388/1027/145 391/1029/146 392/1030/141
f 392/1030/141 391/1029/146 393/1031/147 394/1032/142
f 391/1024/146 383/1023/141 396/1033/142 393/1034/147
f 394/1032/142 393/1031/147 395/1035/109 444/1036/106
f 393/1037/147 396/1038/142 397/1039/106 395/1040/109
f 396/1010/142 379/1009/136 399/1041/135 397/1042/106
f 395/1040/109 397/1039/106 398/1043/101 446/1044/107
f 397/1042/106 399/1041/135 400/1045/134 398/1046/101
f 400/1047/134 399/1048/135 374/1049/138 402/1050/139
f 398/1046/101 400/1045/134 401/1051/144 539/1052/98
f 401/1053/144 400/1047/134 402/1050/139 403/1054/143
f 402/990/139 375/989/134 404/1055/144 403/1056/143
f 403/1056/143 404/1055/144 406/1057/145 405/1058/140
f 408/1059/145 401/1053/144 403/1054/143 405/1060/140
f 405/1058/140 406/1057/145 488/1061/146 407/1062/141
f 410/1063/146 408/1064/145 405/1065/140 407/1066/141
f 539/1052/98 401/1051/144 408/1067/145 409/1068/111
f 409/1068/111 408/1067/145 410/1069/146 411/1070/113
f 411/1070/113 410/1069/146 412/1071/147 413/1072/137
f 412/1073/147 410/1063/146 407/1066/141 415/1074/142
f 413/1072/137 412/1071/147 414/1075/109 424/1076/138
f 414/1077/109 412/1078/147 415/1079/142 417/1080/106
f 407/1062/141 488/1061/146 416/1081/147 415/1082/142
f 415/1082/142 416/1081/147 418/1083/109 417/1084/106
f 417/1084/106 418/1083/109 420/1085/107 419/1086/101
f 422/1087/107 414/1077/109 417/1080/106 419/1088/101
f 419/1086/101 420/1085/107 530/1089/108 421/1090/98
f 385/1012/108 422/1087/107 419/1088/101 421/1013/98
f 424/1076/138 414/1075/109 422/1091/107 423/1092/139
f 423/1092/139 422/1091/107 385/1016/108 387/1015/143
f 426/1093/135 424/1094/138 423/1095/139 425/1096/134
f 425/1096/134 423/1095/139 387/1018/143 389/1017/144
f 428/1097/138 426/1098/135 425/1099/134 427/1100/139
f 427/1100/139 425/1099/134 389/1026/144 429/1025/143
f 430/1101/124 431/1102/130 428/1103/138 427/1104/139
f 433/1105/123 430/1101/124 427/1104/139 429/1106/143
f 464/1107/129 431/1108/130 430/1109/124 432/1110/125
f 432/1110/125 430/1109/124 433/1111/123 434/1112/120
f 434/1112/120 433/1111/123 435/1113/122 436/1114/119
f 435/1115/122 433/1105/123 429/1106/143 390/1116/140
f 436/1114/119 435/1113/122 437/1117/121 438/1118/118
f 437/1119/121 435/1120/122 390/1121/140 392/1122/141
f 438/1118/118 437/1117/121 439/1123/148 440/1124/149
f 439/1125/148 437/1119/121 392/1122/141 394/1126/142
f 440/1124/149 439/1123/148 441/1127/104 442/1128/105
f 441/1129/104 439/1130/148 394/1131/142 444/1132/106
f 442/1128/105 441/1127/104 443/1133/100 538/1134/103
f 443/1135/100 441/1129/104 444/1132/106 445/1136/101
f 444/1036/106 395/1035/109 446/1137/107 445/1138/101
f 445/1138/101 446/1137/107 448/1139/108 447/1140/98
f 450/1141/99 443/1135/100 445/1136/101 447/1142/98
f 447/1140/98 448/1139/108 461/1143/110 449/1144/111
f 452/1145/112 450/1141/99 447/1142/98 449/1146/111
f 538/1134/103 443/1133/100 450/1147/99 451/1148/102
f 451/1148/102 450/1147/99 452/1149/112 453/1150/117
f 453/1150/117 452/1149/112 454/1151/114 455/1152/116
f 454/1153/114 452/1154/112 449/1155/111 457/1156/113
f 455/1152/116 454/1151/114 456/1157/131 462/1158/132
f 456/1159/131 454/1153/114 457/1156/113 459/1160/137
f 449/1144/111 461/1143/110 458/1161/115 457/1162/113
f 457/1162/113 458/1161/115 460/1163/136 459/1164/137
f 459/1164/137 460/1163/136 426/1098/135 428/1097/138
f 431/1165/130 456/1159/131 459/1160/137 428/1166/138
f 458/1167/115 411/1168/113 413/1169/137 460/1170/136
f 460/1170/136 413/1169/137 424/1171/138 426/1172/135
f 461/1173/110 409/1174/111 411/1168/113 458/1167/115
f 448/1175/108 539/1176/98 409/1177/111 461/1178/110
f 462/1158/132 456/1157/131 431/1108/130 464/1107/129
f 537/1179/115 455/1180/116 462/1181/132 463/1182/136
f 463/1182/136 462/1181/132 464/1183/129 465/1184/135
f 465/1185/135 464/1186/129 432/1187/125 466/1188/134
f 465/1189/135 466/1190/134 468/1191/139 467/1192/138
f 463/1193/136 465/1189/135 467/1192/138 469/1194/137
f 468/1195/139 471/1196/124 470/1197/130 467/1198/138
f 467/1199/138 470/1200/130 473/1201/131 469/1202/137
f 470/1203/130 471/1204/124 504/1205/125 472/1206/129
f 473/1207/131 470/1203/130 472/1206/129 474/1208/132
f 469/1202/137 473/1201/131 349/924/114 346/923/113
f 349/930/114 473/1207/131 474/1208/132 351/931/116
f 474/1209/132 475/1210/131 354/934/114 351/933/116
f 472/1211/129 476/1212/130 475/1210/131 474/1209/132
f 475/1213/131 476/1214/130 478/1215/105 477/1216/149
f 354/942/114 475/1213/131 477/1216/149 357/943/118
f 478/1217/105 480/1218/104 479/1219/148 477/1220/149
f 477/1221/149 479/1222/148 360/948/121 357/947/118
f 479/1223/148 480/1224/104 482/1225/105 481/1226/149
f 360/956/121 479/1223/148 481/1226/149 483/957/118
f 482/1227/105 485/1228/150 484/1229/151 481/1230/149
f 481/1231/149 484/1232/151 486/1233/94 483/1234/118
f 418/1235/109 416/1236/147 484/1229/151 485/1228/150
f 416/1237/147 488/1238/146 486/1233/94 484/1232/151
f 483/1234/118 486/1233/94 487/1239/126 361/1240/119
f 488/1238/146 406/1241/145 487/1239/126 486/1233/94
f 406/1242/145 404/1243/144 365/967/127 487/966/126
f 491/1244/103 489/1245/90 485/1228/150 482/1227/105
f 420/1246/107 418/1235/109 485/1228/150 489/1245/90
f 530/1247/108 420/1246/107 489/1245/90 490/1248/152
f 492/1249/102 490/1248/152 489/1245/90 491/1244/103
f 493/1250/100 494/1251/99 492/1252/102 491/1253/103
f 480/1224/104 493/1250/100 491/1253/103 482/1225/105
f 497/1254/102 494/1255/99 493/1256/100 495/1257/103
f 495/1257/103 493/1256/100 480/1218/104 478/1217/105
f 496/1258/124 499/1259/123 497/1260/102 495/1261/103
f 476/1214/130 496/1258/124 495/1261/103 478/1215/105
f 498/1262/117 525/1263/112 494/1255/99 497/1254/102
f 499/1259/123 500/1264/122 498/1265/117 497/1260/102
f 502/1266/119 500/1267/122 499/1268/123 501/1269/120
f 501/1269/120 499/1268/123 496/1270/124 504/1271/125
f 503/1272/123 505/1273/122 502/1274/119 501/1275/120
f 471/1204/124 503/1272/123 501/1275/120 504/1205/125
f 504/1271/125 496/1270/124 476/1276/130 472/1277/129
f 507/1278/140 505/1279/122 503/1280/123 506/1281/143
f 506/1281/143 503/1280/123 471/1196/124 468/1195/139
f 508/1282/144 509/1283/145 507/1284/140 506/1285/143
f 466/1190/134 508/1282/144 506/1285/143 468/1191/139
f 508/1286/144 434/1287/120 436/1288/119 509/1289/145
f 466/1188/134 432/1187/125 434/1287/120 508/1286/144
f 509/1283/145 510/1290/146 512/1291/141 507/1284/140
f 509/1292/145 436/1293/119 438/1294/118 510/1295/146
f 510/1295/146 438/1294/118 440/1296/149 511/1297/147
f 510/1290/146 511/1298/147 513/1299/142 512/1291/141
f 513/1300/142 515/1301/148 514/1302/121 512/1303/141
f 512/1303/141 514/1302/121 505/1304/122 507/1305/140
f 514/1306/121 515/1307/148 517/1308/149 516/1309/118
f 505/1273/122 514/1306/121 516/1309/118 502/1274/119
f 517/1310/149 519/1311/148 518/1312/121 516/1313/118
f 516/1313/118 518/1312/121 500/1314/122 502/1315/119
f 518/1316/121 519/1317/148 521/1318/132 520/1319/116
f 500/1264/122 518/1316/121 520/1319/116 498/1265/117
f 521/1320/132 523/1321/131 522/1322/114 520/1323/116
f 520/1323/116 522/1322/114 525/1324/112 498/1325/117
f 522/1326/114 523/975/131 370/976/132 524/1327/116
f 525/1328/112 522/1326/114 524/1327/116 526/1329/117
f 494/1251/99 525/1328/112 526/1329/117 492/1252/102
f 526/1330/117 527/1331/153 490/1248/152 492/1249/102
f 524/1332/116 528/992/50 527/1333/153 526/1334/117
f 377/991/115 529/1335/110 527/1333/153 528/992/50
f 529/1336/110 530/1247/108 490/1248/152 527/1331/153
f 421/1090/98 530/1089/108 529/1002/110 381/1001/111
f 370/980/132 372/979/133 528/992/50 524/1332/116
f 531/1337/129 369/1338/130 523/1321/131 521/1320/132
f 519/1317/148 532/1339/104 531/1340/129 521/1318/132
f 532/1339/104 534/1341/100 533/1342/125 531/1340/129
f 533/962/125 363/961/124 369/1343/130 531/1344/129
f 534/1341/100 355/945/99 358/946/120 533/1342/125
f 352/940/102 355/939/99 534/1345/100 338/1346/103
f 338/1346/103 534/1345/100 532/1347/104 535/1348/105
f 535/1348/105 532/1347/104 519/1349/148 517/1350/149
f 515/1307/148 339/909/104 535/910/105 517/1308/149
f 342/912/106 339/911/104 515/1351/148 513/1352/142
f 511/1298/147 536/917/109 342/918/106 513/1299/142
f 511/1353/147 440/1354/149 442/1355/105 536/1356/109
f 536/1356/109 442/1355/105 538/1357/103 341/1358/107
f 537/927/115 463/1193/136 469/1194/137 346/928/113
f 347/1359/110 453/1360/117 455/1180/116 537/1179/115
f 344/1361/108 451/1362/102 453/1363/117 347/1364/110
f 341/1358/107 538/1357/103 451/1362/102 344/1361/108
f 446/1044/107 398/1043/101 539/1176/98 448/1175/108
f 404/1243/144 375/981/134 367/969/55 365/967/127
f 540/1365/154 541/1366/155 545/1367/156 543/1368/157
f 542/1369/158 555/1370/159 541/1371/155 540/1372/154
f 543/1373/157 544/1374/160 542/1375/158 540/1376/154
f 546/1377/86 549/1378/42 544/1374/160 543/1373/157
f 543/1368/157 545/1367/156 547/1379/161 546/1380/86
f 546/1380/86 547/1379/161 569/1381/162 548/1382/86
f 548/1383/86 550/1384/42 549/1378/42 546/1377/86
f 550/1385/42 552/1386/163 551/1387/164 549/1388/42
f 549/1388/42 551/1387/164 554/1389/165 544/1390/160
f 551/1391/164 552/1392/163 579/1393/166 553/1394/167
f 554/1395/165 551/1391/164 553/1394/167 556/1396/168
f 544/1390/160 554/1389/165 555/1397/159 542/1398/158
f 555/1399/159 554/1395/165 556/1396/168 558/1400/169
f 556/1401/168 553/1402/167 566/1403/170 557/1404/171
f 558/1405/169 556/1401/168 557/1404/171 560/1406/172
f 541/1371/155 555/1370/159 558/1407/169 559/1408/173
f 559/1408/173 558/1407/169 560/1409/172 561/1410/174
f 557/1411/171 562/1412/175 561/1413/174 560/1414/172
f 563/1415/176 559/1416/173 561/1417/174 562/1418/175
f 567/1419/177 563/1415/176 562/1418/175 564/1420/178
f 566/1421/170 564/1422/178 562/1412/175 557/1411/171
f 568/1423/179 567/1419/177 564/1420/178 565/1424/180
f 578/1425/181 565/1426/180 564/1422/178 566/1421/170
f 547/1427/161 545/1428/156 563/1429/176 567/1430/177
f 569/1431/162 547/1427/161 567/1430/177 568/1432/179
f 571/1433/182 569/1431/162 568/1432/179 570/1434/183
f 570/1435/183 568/1423/179 565/1424/180 573/1436/184
f 587/1437/185 571/1433/182 570/1434/183 572/1438/186
f 572/1439/186 570/1435/183 573/1436/184 574/1440/187
f 576/1441/188 574/1442/187 573/1443/184 575/1444/189
f 575/1444/189 573/1443/184 565/1426/180 578/1425/181
f 577/1445/190 580/1446/191 576/1447/188 575/1448/189
f 579/1449/166 577/1445/190 575/1448/189 578/1450/181
f 553/1402/167 579/1449/166 578/1450/181 566/1403/170
f 552/1392/163 581/1451/192 577/1452/190 579/1393/166
f 581/1451/192 582/1453/193 580/1454/191 577/1452/190
f 584/1455/78 582/1456/193 581/1457/192 583/1458/42
f 583/1458/42 581/1457/192 552/1386/163 550/1385/42
f 586/1459/84 584/1460/78 583/1461/42 585/1462/86
f 585/1462/86 583/1461/42 550/1384/42 548/1383/86
f 548/1382/86 569/1381/162 571/1463/182 585/1464/86
f 585/1464/86 571/1463/182 587/1465/185 586/1466/84
f 586/1467/84 587/1468/185 582/1469/193 584/1470/78
f 582/1469/193 587/1468/185 572/1471/186 580/1472/191
f 580/1472/191 572/1471/186 574/1473/187 576/1474/188
f 545/1428/156 541/1475/155 559/1476/173 563/1429/176
