# Blender 4.0.2
# www.blender.org
mtllib M249_part_10.mtl
o M249_part_10
v -0.032321 -0.025189 0.331833
v -0.034553 -0.024285 0.331833
v -0.032321 -0.025189 0.338814
v -0.037359 -0.037634 0.331833
v -0.042470 -0.035565 0.331833
v -0.042398 -0.050078 0.331833
v -0.044631 -0.049175 0.331833
v -0.042398 -0.050078 0.338814
v -0.037359 -0.037634 0.338814
v -0.044631 -0.049175 0.338814
v -0.042470 -0.035565 0.338814
v -0.034553 -0.024285 0.338814
vn 0.2654 0.6554 -0.7071
vn -0.0000 -0.0000 -1.0000
vn -0.6966 0.2820 -0.6597
vn -0.2285 0.7742 -0.5903
vn -0.2285 0.7742 0.5903
vn 0.2654 0.6554 0.7071
vn -0.2654 -0.6554 -0.7071
vn -0.7028 -0.3971 -0.5903
vn -0.2654 -0.6554 0.7071
vn -0.7028 -0.3971 0.5903
vn -0.0000 -0.0000 1.0000
vn -0.6966 0.2820 0.6597
vt 0.796510 0.971306
vt 0.796510 0.983377
vt 0.791554 0.983377
vt 0.794345 0.971306
vt 0.280954 0.964689
vt 0.282961 0.964667
vt 0.282961 0.970942
vt 0.280954 0.970963
vt 0.796510 0.995448
vt 0.794345 0.995448
vt 0.198874 0.982158
vt 0.200881 0.982160
vt 0.200881 0.988436
vt 0.198874 0.988434
vt 0.683629 0.971025
vt 0.683629 0.983096
vt 0.678672 0.983096
vt 0.681464 0.971025
vt 0.927229 0.981367
vt 0.920953 0.981376
vt 0.920942 0.969137
vt 0.927219 0.969129
vt 0.920953 0.958989
vt 0.927229 0.958980
vt 0.683629 0.995167
vt 0.681464 0.995167
s 1
usemtl M249_Gun
f 1/1/1 4/2/2 5/3/3 2/4/4
f 1/5/1 2/6/4 12/7/5 3/8/6
f 6/9/7 7/10/8 5/3/3 4/2/2
f 8/11/9 10/12/10 7/13/8 6/14/7
f 8/15/9 9/16/11 11/17/12 10/18/10
f 7/19/8 10/20/10 11/21/12 5/22/3
f 5/22/3 11/21/12 12/23/5 2/24/4
f 3/25/6 12/26/5 11/17/12 9/16/11
