# Blender 4.0.2
# www.blender.org
mtllib M249_handguard.mtl
o M249_handguard
v 0.109599 -0.256704 0.360313
v 0.109599 -0.252662 0.360313
v 0.109599 -0.252235 0.365342
v 0.109599 -0.256704 0.342333
v 0.115596 -0.256704 0.360313
v 0.115596 -0.252235 0.365342
v 0.124781 -0.256704 0.360313
v 0.115596 -0.256704 0.342333
v 0.115596 -0.256704 0.328828
v 0.124781 -0.256704 0.342333
v 0.137157 -0.256704 0.342333
v 0.124781 -0.256704 0.328828
v 0.137157 -0.256704 0.328828
v 0.124781 -0.256704 0.310848
v 0.124781 -0.252662 0.310848
v 0.137157 -0.256704 0.310848
v 0.115596 -0.256704 0.310848
v 0.109599 -0.256704 0.310848
v 0.115596 -0.252662 0.310848
v 0.109599 -0.252662 0.310848
v 0.115596 -0.252662 0.329276
v 0.109599 -0.252662 0.328828
v 0.115596 -0.252662 0.341885
v 0.124781 -0.252662 0.329276
v 0.114326 -0.247979 0.329698
v 0.114326 -0.247979 0.341463
v 0.112857 -0.248544 0.328982
v 0.122027 -0.244857 0.329698
v 0.122027 -0.244857 0.341463
v 0.123213 -0.244368 0.328982
v 0.123213 -0.244368 0.341974
v 0.013049 0.028848 0.328982
v 0.013049 0.028848 0.341974
v 0.002694 0.024673 0.328982
v 0.002694 0.024673 0.341974
v 0.112857 -0.248544 0.341974
v 0.124781 -0.252662 0.341885
v 0.137157 -0.252662 0.342333
v 0.124781 -0.252662 0.360313
v 0.137157 -0.252662 0.360313
v 0.124781 -0.249943 0.363332
v 0.115596 -0.252662 0.360313
v 0.115596 -0.249943 0.363332
v 0.109599 -0.249943 0.363332
v 0.137157 -0.249943 0.363332
v 0.124781 -0.252235 0.365342
v 0.137157 -0.252235 0.365342
v 0.137157 -0.256704 0.360313
v 0.147978 -0.262803 0.360313
v 0.149529 -0.259545 0.360313
v 0.147978 -0.262803 0.342333
v 0.149529 -0.259545 0.342333
v 0.147978 -0.262803 0.328828
v 0.147978 -0.262803 0.310848
v 0.149529 -0.259545 0.328828
v 0.137157 -0.252662 0.328828
v 0.149529 -0.259545 0.310848
v 0.137157 -0.252662 0.310848
v 0.109599 -0.252662 0.342333
v 0.109599 -0.256704 0.328828
v -0.109599 -0.256704 0.360313
v -0.109599 -0.252235 0.365342
v -0.109599 -0.252662 0.360313
v -0.109599 -0.256704 0.342333
v -0.115596 -0.256704 0.360313
v -0.115596 -0.252235 0.365342
v -0.124781 -0.256704 0.360313
v -0.115596 -0.256704 0.342333
v -0.115596 -0.256704 0.328828
v -0.124781 -0.256704 0.342333
v -0.137157 -0.256704 0.342333
v -0.124781 -0.256704 0.328828
v -0.124781 -0.256704 0.310848
v -0.137157 -0.256704 0.328828
v -0.147978 -0.262803 0.328828
v -0.137157 -0.256704 0.310848
v -0.137157 -0.252662 0.310848
v -0.147978 -0.262803 0.310848
v -0.149529 -0.259545 0.310848
v -0.149529 -0.259545 0.328828
v -0.137157 -0.252662 0.328828
v -0.149529 -0.259545 0.342333
v -0.149529 -0.259545 0.360313
v -0.147978 -0.262803 0.342333
v -0.137157 -0.252662 0.342333
v -0.137157 -0.252662 0.360313
v -0.124781 -0.252662 0.341885
v -0.124781 -0.252662 0.329276
v -0.122027 -0.244857 0.341463
v -0.115596 -0.252662 0.341885
v -0.124781 -0.252662 0.360313
v -0.124781 -0.249943 0.363332
v -0.115596 -0.252662 0.360313
v -0.115596 -0.249943 0.363332
v -0.109599 -0.249943 0.363332
v -0.137157 -0.249943 0.363332
v -0.124781 -0.252235 0.365342
v -0.137157 -0.252235 0.365342
v -0.137157 -0.256704 0.360313
v -0.147978 -0.262803 0.360313
v -0.109599 -0.252662 0.342333
v -0.115596 -0.252662 0.329276
v -0.114325 -0.247979 0.341463
v -0.112857 -0.248544 0.341974
v -0.114325 -0.247979 0.329698
v -0.112857 -0.248544 0.328982
v -0.122027 -0.244857 0.329698
v -0.123213 -0.244368 0.328982
v -0.013049 0.028848 0.328982
v -0.123213 -0.244368 0.341974
v -0.013049 0.028848 0.341974
v -0.002694 0.024673 0.341974
v -0.002694 0.024673 0.328982
v -0.115596 -0.252662 0.310848
v -0.109599 -0.252662 0.328828
v -0.109599 -0.252662 0.310848
v -0.109599 -0.256704 0.328828
v -0.109599 -0.256704 0.310848
v -0.115596 -0.256704 0.310848
v -0.124781 -0.252662 0.310848
vn -0.6352 -0.7220 0.2744
vn -0.7973 0.5635 -0.2163
vn -0.7071 0.7071 -0.0000
vn -0.7071 -0.7071 -0.0000
vn -0.5777 -0.0508 0.8147
vn -0.5767 0.8156 0.0481
vn -0.0000 -0.9348 0.3552
vn -0.0000 -0.0622 0.9981
vn -0.0000 -1.0000 -0.0000
vn -0.2538 -0.9672 -0.0000
vn 0.0141 -0.7960 0.6052
vn -0.0000 -0.7071 -0.7071
vn -0.1623 -0.6184 -0.7689
vn -0.0000 0.7071 -0.7071
vn 0.1898 0.7317 -0.6547
vn -0.5774 -0.5774 -0.5774
vn -0.5774 0.5774 -0.5774
vn -0.2897 0.8849 -0.3648
vn 0.2525 0.9425 -0.2188
vn -0.2897 0.8849 0.3648
vn 0.0229 -0.9346 0.3549
vn 0.0227 -0.9367 -0.3494
vn 0.6306 -0.7140 -0.3043
vn -0.3242 -0.7492 0.5776
vn -0.3238 -0.7493 -0.5778
vn 0.7510 -0.3168 -0.5794
vn 0.2525 0.9425 0.2188
vn 0.6293 -0.7127 0.3098
vn 0.7510 -0.3166 0.5794
vn 0.3196 0.7514 -0.5773
vn 0.3196 0.7514 0.5774
vn -0.7514 0.3196 -0.5774
vn -0.7514 0.3196 0.5774
vn 0.2511 0.9680 -0.0000
vn -0.0000 0.9336 -0.3584
vn 0.5980 0.8015 0.0024
vn -0.0000 0.9983 0.0589
vn 0.5767 0.8156 0.0481
vn 0.5777 -0.0508 0.8147
vn 0.3020 -0.9533 -0.0000
vn 0.2473 -0.7808 0.5738
vn 0.7754 0.2480 0.5808
vn 0.9525 0.3046 -0.0000
vn 0.2473 -0.7808 -0.5738
vn 0.7754 0.2480 -0.5808
vn 0.6352 -0.7220 0.2744
vn -0.0000 -0.9348 0.3553
vn 0.7973 0.5635 -0.2163
vn 0.7071 -0.7071 -0.0000
vn 0.7071 0.7071 -0.0000
vn -0.0141 -0.7960 0.6052
vn 0.2538 -0.9672 -0.0000
vn 0.1623 -0.6184 -0.7689
vn -0.3020 -0.9533 -0.0000
vn -0.2473 -0.7808 -0.5738
vn -0.1898 0.7317 -0.6547
vn -0.7754 0.2480 -0.5808
vn -0.9525 0.3046 -0.0000
vn -0.2511 0.9680 -0.0000
vn -0.7754 0.2480 0.5808
vn -0.5980 0.8015 0.0024
vn -0.2473 -0.7808 0.5738
vn -0.2525 0.9425 0.2188
vn -0.2525 0.9425 -0.2188
vn -0.6293 -0.7127 0.3098
vn -0.6306 -0.7140 -0.3043
vn 0.2897 0.8849 0.3648
vn -0.0229 -0.9346 0.3549
vn 0.2897 0.8849 -0.3648
vn -0.0227 -0.9367 -0.3494
vn 0.3242 -0.7492 0.5776
vn -0.7510 -0.3166 0.5794
vn 0.3238 -0.7493 -0.5778
vn -0.7510 -0.3168 -0.5794
vn -0.3196 0.7514 -0.5774
vn 0.7514 0.3196 -0.5774
vn -0.3196 0.7514 0.5773
vn 0.7514 0.3196 0.5774
vn 0.5774 0.5774 -0.5774
vn 0.5774 -0.5774 -0.5774
vt 0.082780 0.878485
vt 0.086408 0.878297
vt 0.087245 0.894440
vt 0.083616 0.894628
vt 0.086558 0.873761
vt 0.088709 0.875459
vt 0.575772 0.840285
vt 0.570381 0.840285
vt 0.570381 0.835775
vt 0.575772 0.835775
vt 0.575772 0.856450
vt 0.570381 0.856450
vt 0.562123 0.840285
vt 0.562123 0.835775
vt 0.562123 0.856450
vt 0.570381 0.868592
vt 0.562123 0.868592
vt 0.575772 0.868592
vt 0.550996 0.868592
vt 0.550996 0.856450
vt 0.550996 0.840285
vt 0.562123 0.884757
vt 0.550996 0.884757
vt 0.570381 0.884757
vt 0.964712 0.804348
vt 0.961123 0.804918
vt 0.959827 0.796764
vt 0.963415 0.796194
vt 0.958080 0.785779
vt 0.961669 0.785209
vt 0.965558 0.809670
vt 0.961969 0.810240
vt 0.575772 0.884757
vt 0.470670 0.835093
vt 0.476061 0.835093
vt 0.476061 0.851252
vt 0.470670 0.851655
vt 0.462411 0.835093
vt 0.462411 0.851655
vt 0.476061 0.863390
vt 0.470670 0.862988
vt 0.663569 0.974202
vt 0.663569 0.985538
vt 0.659360 0.985163
vt 0.659360 0.974585
vt 0.752387 0.385536
vt 0.755124 0.377747
vt 0.759468 0.378074
vt 0.759821 0.385536
vt 0.501004 0.977582
vt 0.501004 0.988160
vt 0.499684 0.988621
vt 0.499684 0.976940
vt 0.507929 0.977574
vt 0.508995 0.976929
vt 0.403536 0.816691
vt 0.403536 0.828027
vt 0.396511 0.827655
vt 0.396511 0.817077
vt 0.507929 0.988152
vt 0.508995 0.988610
vt 0.767823 0.128180
vt 0.779504 0.128194
vt 0.779504 0.374129
vt 0.767823 0.374116
vt 0.817921 0.807598
vt 0.807884 0.807601
vt 0.807884 0.542785
vt 0.817921 0.542782
vt 0.384526 0.988473
vt 0.375214 0.988374
vt 0.375214 0.976698
vt 0.384526 0.976796
vt 0.789127 0.385972
vt 0.800807 0.385988
vt 0.800807 0.631521
vt 0.789127 0.631505
vt 0.808298 0.020134
vt 0.818337 0.020134
vt 0.818337 0.284990
vt 0.808298 0.284990
vt 0.575689 0.381450
vt 0.578436 0.389238
vt 0.570995 0.389238
vt 0.571338 0.381774
vt 0.451285 0.851253
vt 0.462411 0.862988
vt 0.451285 0.863391
vt 0.462411 0.879550
vt 0.451285 0.879550
vt 0.470670 0.879550
vt 0.462410 0.882199
vt 0.451283 0.882200
vt 0.470668 0.882199
vt 0.476061 0.879550
vt 0.476059 0.882199
vt 0.805635 0.578690
vt 0.807698 0.578687
vt 0.807698 0.586945
vt 0.805635 0.586948
vt 0.807698 0.592336
vt 0.805635 0.592339
vt 0.805635 0.567563
vt 0.807698 0.567560
vt 0.550996 0.835775
vt 0.549626 0.994042
vt 0.546909 0.991629
vt 0.546885 0.987976
vt 0.549626 0.987994
vt 0.541267 0.856434
vt 0.541267 0.840269
vt 0.478497 0.963551
vt 0.481779 0.965112
vt 0.482551 0.976254
vt 0.479307 0.976254
vt 0.215142 0.642147
vt 0.212216 0.642143
vt 0.212216 0.625978
vt 0.215142 0.625982
vt 0.215142 0.654289
vt 0.212216 0.654285
vt 0.541267 0.868576
vt 0.215142 0.670454
vt 0.212216 0.670450
vt 0.541267 0.884741
vt 0.440165 0.863554
vt 0.440165 0.851416
vt 0.451285 0.835094
vt 0.440165 0.835257
vt 0.962445 0.773826
vt 0.965558 0.774743
vt 0.440165 0.879713
vt 0.087873 0.906566
vt 0.084244 0.906754
vt 0.088709 0.922709
vt 0.085080 0.922897
vt 0.663714 0.839832
vt 0.663714 0.835321
vt 0.669105 0.835321
vt 0.669105 0.839832
vt 0.212568 0.888035
vt 0.214869 0.890873
vt 0.212717 0.892570
vt 0.208939 0.887847
vt 0.209776 0.871704
vt 0.213405 0.871892
vt 0.663714 0.855996
vt 0.669105 0.855996
vt 0.677363 0.835321
vt 0.677363 0.839832
vt 0.677363 0.855996
vt 0.663714 0.868139
vt 0.669105 0.868139
vt 0.677363 0.868139
vt 0.688490 0.839832
vt 0.688490 0.855996
vt 0.688490 0.868139
vt 0.669105 0.884303
vt 0.677363 0.884303
vt 0.688490 0.884303
vt 0.698219 0.855981
vt 0.698219 0.868123
vt 0.698219 0.884288
vt 0.781223 0.895866
vt 0.779477 0.906851
vt 0.775888 0.906280
vt 0.777635 0.895294
vt 0.783365 0.917319
vt 0.780253 0.918235
vt 0.662656 0.245043
vt 0.662656 0.228878
vt 0.665585 0.228873
vt 0.665585 0.245038
vt 0.771146 0.834712
vt 0.782273 0.834875
vt 0.782273 0.851034
vt 0.771146 0.850871
vt 0.782273 0.863172
vt 0.771146 0.863009
vt 0.662656 0.216736
vt 0.665585 0.216731
vt 0.782273 0.879331
vt 0.771146 0.879168
vt 0.662656 0.200571
vt 0.665585 0.200566
vt 0.760020 0.879168
vt 0.760020 0.862606
vt 0.760020 0.851274
vt 0.595132 0.843138
vt 0.602151 0.843526
vt 0.602151 0.854104
vt 0.595132 0.854475
vt 0.566302 0.381450
vt 0.570653 0.381774
vt 0.570995 0.389238
vt 0.563554 0.389238
vt 0.751761 0.879168
vt 0.751761 0.862606
vt 0.760019 0.881818
vt 0.751760 0.881818
vt 0.771145 0.881818
vt 0.746370 0.879168
vt 0.746370 0.863009
vt 0.746369 0.881818
vt 0.807698 0.562166
vt 0.807698 0.567557
vt 0.805635 0.567560
vt 0.805635 0.562169
vt 0.807698 0.553908
vt 0.805635 0.553911
vt 0.807698 0.542782
vt 0.805635 0.542785
vt 0.688489 0.835321
vt 0.425477 0.987612
vt 0.425477 0.993661
vt 0.422736 0.993678
vt 0.422761 0.990025
vt 0.698219 0.839816
vt 0.834420 0.955985
vt 0.834420 0.968714
vt 0.831182 0.968920
vt 0.831245 0.957752
vt 0.751761 0.851274
vt 0.746370 0.850871
vt 0.562514 0.987260
vt 0.558307 0.986877
vt 0.558307 0.976299
vt 0.562514 0.975923
vt 0.427007 0.977671
vt 0.425687 0.977210
vt 0.434997 0.977221
vt 0.433932 0.977679
vt 0.427007 0.988249
vt 0.425687 0.988891
vt 0.433932 0.988257
vt 0.434997 0.988901
vt 0.752387 0.385529
vt 0.744946 0.385529
vt 0.745279 0.378067
vt 0.749628 0.377747
vt 0.818337 0.284990
vt 0.818337 0.020134
vt 0.828373 0.020134
vt 0.828373 0.284990
vt 0.791184 0.128180
vt 0.791184 0.373928
vt 0.779504 0.373944
vt 0.779504 0.128196
vt 0.817921 0.650828
vt 0.817921 0.385972
vt 0.827960 0.385972
vt 0.827960 0.650828
vt 0.765053 0.976717
vt 0.765053 0.988393
vt 0.755744 0.988492
vt 0.755744 0.976816
vt 0.789127 0.489067
vt 0.789127 0.734410
vt 0.777446 0.734423
vt 0.777446 0.489081
vt 0.760020 0.834712
vt 0.751761 0.834712
vt 0.746370 0.834712
vt 0.210404 0.859578
vt 0.211240 0.843435
vt 0.214869 0.843623
vt 0.214033 0.859766
vt 0.663714 0.884303
vt 0.783365 0.882389
vt 0.782519 0.887712
vt 0.778931 0.887141
vt 0.779777 0.881818
s 1
usemtl M249_Gun
f 1/1/1 2/2/2 59/3/3 4/4/4
f 2/2/2 1/1/1 3/5/5 44/6/6
f 1/7/1 5/8/7 6/9/8 3/10/5
f 4/11/4 8/12/9 5/8/7 1/7/1
f 5/8/7 7/13/7 46/14/8 6/9/8
f 8/12/9 10/15/9 7/13/7 5/8/7
f 9/16/9 12/17/9 10/15/9 8/12/9
f 60/18/4 9/16/9 8/12/9 4/11/4
f 12/17/9 13/19/10 11/20/10 10/15/9
f 10/15/9 11/20/10 48/21/11 7/13/7
f 14/22/12 16/23/13 13/19/10 12/17/9
f 17/24/12 14/22/12 12/17/9 9/16/9
f 17/25/12 19/26/14 15/27/14 14/28/12
f 14/28/12 15/27/14 58/29/15 16/30/13
f 18/31/16 20/32/17 19/26/14 17/25/12
f 18/33/16 17/24/12 9/16/9 60/18/4
f 19/34/14 20/35/17 22/36/3 21/37/18
f 15/38/14 19/34/14 21/37/18 24/39/19
f 21/37/18 22/36/3 59/40/3 23/41/20
f 21/42/18 23/43/20 26/44/21 25/45/22
f 24/46/19 21/47/18 25/48/22 28/49/23
f 25/50/22 26/51/21 36/52/24 27/53/25
f 28/54/23 25/50/22 27/53/25 30/55/26
f 37/56/27 24/57/19 28/58/23 29/59/28
f 29/60/28 28/54/23 30/55/26 31/61/29
f 31/62/29 30/63/26 32/64/30 33/65/31
f 30/66/26 27/67/25 34/68/32 32/69/30
f 32/70/30 34/71/32 35/72/33 33/73/31
f 27/74/25 36/75/24 35/76/33 34/77/32
f 36/78/24 31/79/29 33/80/31 35/81/33
f 26/51/21 29/60/28 31/61/29 36/52/24
f 23/82/20 37/83/27 29/84/28 26/85/21
f 56/86/34 24/39/19 37/87/27 38/88/34
f 38/88/34 37/87/27 39/89/35 40/90/36
f 37/87/27 23/41/20 42/91/35 39/89/35
f 40/90/36 39/89/35 41/92/37 45/93/38
f 39/89/35 42/91/35 43/94/37 41/92/37
f 42/91/35 2/95/2 44/96/6 43/94/37
f 23/41/20 59/40/3 2/95/2 42/91/35
f 46/97/8 41/98/37 43/99/37 6/100/8
f 6/100/8 43/99/37 44/101/6 3/102/5
f 47/103/39 45/104/38 41/98/37 46/97/8
f 7/13/7 48/21/11 47/105/39 46/14/8
f 48/106/11 40/107/36 45/108/38 47/109/39
f 48/21/11 11/20/10 51/110/40 49/111/41
f 40/112/36 48/113/11 49/114/41 50/115/42
f 51/116/40 52/117/43 50/118/42 49/119/41
f 53/120/40 55/121/43 52/117/43 51/116/40
f 11/20/10 13/19/10 53/122/40 51/110/40
f 54/123/44 57/124/45 55/121/43 53/120/40
f 13/19/10 16/23/13 54/125/44 53/122/40
f 56/86/34 38/88/34 52/126/43 55/127/43
f 58/128/15 56/86/34 55/127/43 57/129/45
f 16/30/13 58/29/15 57/130/45 54/131/44
f 58/128/15 15/38/14 24/39/19 56/86/34
f 38/88/34 40/90/36 50/132/42 52/126/43
f 4/4/4 59/3/3 22/133/3 60/134/4
f 60/134/4 22/133/3 20/135/17 18/136/16
f 61/137/46 62/138/39 66/139/8 65/140/47
f 63/141/48 95/142/38 62/143/39 61/144/46
f 61/144/46 64/145/49 101/146/50 63/141/48
f 64/147/49 61/137/46 65/140/47 68/148/9
f 65/140/47 66/139/8 97/149/8 67/150/7
f 68/148/9 65/140/47 67/150/7 70/151/9
f 117/152/49 64/147/49 68/148/9 69/153/9
f 69/153/9 68/148/9 70/151/9 72/154/9
f 70/151/9 67/150/7 99/155/51 71/156/52
f 72/154/9 70/151/9 71/156/52 74/157/52
f 119/158/12 69/153/9 72/154/9 73/159/12
f 73/159/12 72/154/9 74/157/52 76/160/53
f 71/156/52 84/161/54 75/162/54 74/157/52
f 74/157/52 75/162/54 78/163/55 76/160/53
f 73/164/12 76/165/53 77/166/56 120/167/14
f 76/165/53 78/168/55 79/169/57 77/166/56
f 78/170/55 75/171/54 80/172/58 79/173/57
f 77/174/56 79/175/57 80/176/58 81/177/59
f 81/177/59 80/176/58 82/178/58 85/179/59
f 75/171/54 84/180/54 82/181/58 80/172/58
f 85/179/59 82/178/58 83/182/60 86/183/61
f 84/180/54 100/184/62 83/185/60 82/181/58
f 85/179/59 86/183/61 91/186/35 87/187/63
f 81/177/59 85/179/59 87/187/63 88/188/64
f 87/189/63 89/190/65 107/191/66 88/192/64
f 90/193/67 103/194/68 89/195/65 87/196/63
f 87/187/63 91/186/35 93/197/35 90/198/67
f 91/186/35 92/199/37 94/200/37 93/197/35
f 86/183/61 96/201/6 92/199/37 91/186/35
f 90/198/67 93/197/35 63/202/48 101/203/50
f 93/197/35 94/200/37 95/204/38 63/202/48
f 66/205/8 62/206/39 95/207/38 94/208/37
f 97/209/8 66/205/8 94/208/37 92/210/37
f 98/211/5 97/209/8 92/210/37 96/212/6
f 67/150/7 97/149/8 98/213/5 99/155/51
f 99/214/51 98/215/5 96/216/6 86/217/61
f 99/155/51 100/218/62 84/161/54 71/156/52
f 86/219/61 83/220/60 100/221/62 99/222/51
f 102/223/69 90/198/67 101/203/50 115/224/50
f 102/225/69 105/226/70 103/227/68 90/228/67
f 103/229/68 104/230/71 110/231/72 89/232/65
f 105/233/70 106/234/73 104/230/71 103/229/68
f 107/235/66 108/236/74 106/234/73 105/233/70
f 88/237/64 107/238/66 105/239/70 102/240/69
f 89/232/65 110/231/72 108/236/74 107/235/66
f 108/241/74 109/242/75 113/243/76 106/244/73
f 110/245/72 111/246/77 109/247/75 108/248/74
f 104/249/71 112/250/78 111/251/77 110/252/72
f 109/253/75 111/254/77 112/255/78 113/256/76
f 106/257/73 113/258/76 112/259/78 104/260/71
f 120/261/14 88/188/64 102/223/69 114/262/14
f 114/262/14 102/223/69 115/224/50 116/263/79
f 117/264/49 118/265/80 116/266/79 115/267/50
f 64/145/49 117/264/49 115/267/50 101/146/50
f 118/268/80 117/152/49 69/153/9 119/158/12
f 118/269/80 119/270/12 114/271/14 116/272/79
f 119/270/12 73/164/12 120/167/14 114/271/14
f 77/174/56 81/177/59 88/188/64 120/261/14
