# Blender 4.0.2
# www.blender.org
mtllib M249_receiver.mtl
o M249_receiver
v 0.039146 0.021088 -0.083151
v 0.032434 0.021088 -0.080722
v 0.032434 0.021088 -0.083151
v 0.033333 0.017732 -0.080722
v 0.033333 0.017732 -0.083151
v 0.035790 0.015275 -0.080722
v 0.035790 0.015275 -0.083151
v 0.039146 0.014376 -0.080722
v 0.039146 0.014376 -0.083151
v 0.042503 0.015275 -0.080722
v 0.042503 0.015275 -0.083151
v 0.044960 0.017732 -0.080722
v 0.044960 0.017732 -0.083151
v 0.045859 0.021088 -0.080722
v 0.045859 0.021088 -0.083151
v 0.044960 0.024445 -0.080722
v 0.044960 0.024445 -0.083151
v 0.042503 0.026902 -0.080722
v 0.042503 0.026902 -0.083151
v 0.039146 0.027801 -0.080722
v 0.039146 0.027801 -0.083151
v 0.035790 0.026902 -0.080722
v 0.035790 0.026902 -0.083151
v 0.033333 0.024445 -0.080722
v 0.033333 0.024445 -0.083151
v 0.001967 0.021088 -0.083151
v -0.003847 0.017732 -0.083151
v -0.004746 0.021088 -0.083151
v -0.001390 0.015275 -0.083151
v 0.001967 0.014376 -0.083151
v 0.005323 0.015275 -0.083151
v 0.007780 0.017732 -0.083151
v 0.008679 0.021088 -0.083151
v 0.007780 0.024445 -0.083151
v 0.005323 0.026902 -0.083151
v 0.001967 0.027801 -0.083151
v -0.001390 0.026902 -0.083151
v -0.003847 0.024445 -0.083151
v -0.003847 0.024445 -0.080722
v -0.001390 0.026902 -0.080722
v -0.004746 0.021088 -0.080722
v -0.003847 0.017732 -0.080722
v -0.001390 0.015275 -0.080722
v 0.001967 0.014376 -0.080722
v 0.005323 0.015275 -0.080722
v 0.007780 0.017732 -0.080722
v 0.008679 0.021088 -0.080722
v 0.007780 0.024445 -0.080722
v 0.005323 0.026902 -0.080722
v 0.001967 0.027801 -0.080722
v -0.038600 0.021088 -0.083151
v -0.044414 0.017732 -0.083151
v -0.045313 0.021088 -0.083151
v -0.041957 0.015275 -0.083151
v -0.038600 0.014376 -0.083151
v -0.035244 0.015275 -0.083151
v -0.032787 0.017732 -0.083151
v -0.031887 0.021088 -0.083151
v -0.032787 0.024445 -0.083151
v -0.035244 0.026902 -0.083151
v -0.038600 0.027801 -0.083151
v -0.041957 0.026902 -0.083151
v -0.044414 0.024445 -0.083151
v -0.044414 0.024445 -0.080722
v -0.041957 0.026902 -0.080722
v -0.045313 0.021088 -0.080722
v -0.044414 0.017732 -0.080722
v -0.041957 0.015275 -0.080722
v -0.038600 0.014376 -0.080722
v -0.035244 0.015275 -0.080722
v -0.032787 0.017732 -0.080722
v -0.031887 0.021088 -0.080722
v -0.032787 0.024445 -0.080722
v -0.035244 0.026902 -0.080722
v -0.038600 0.027801 -0.080722
v 0.040275 0.021088 0.004847
v 0.046089 0.017732 0.004847
v 0.046988 0.021088 0.004847
v 0.043632 0.015275 0.004847
v 0.040275 0.014376 0.004847
v 0.036919 0.015275 0.004847
v 0.034462 0.017732 0.004847
v 0.033563 0.021088 0.004847
v 0.034462 0.024445 0.004847
v 0.036919 0.026902 0.004847
v 0.040275 0.027801 0.004847
v 0.043632 0.026902 0.004847
v 0.046089 0.024445 0.004847
v 0.046089 0.024445 0.002419
v 0.043632 0.026902 0.002419
v 0.046988 0.021088 0.002419
v 0.046089 0.017732 0.002419
v 0.043632 0.015275 0.002419
v 0.040275 0.014376 0.002419
v 0.036919 0.015275 0.002419
v 0.034462 0.017732 0.002419
v 0.033563 0.021088 0.002419
v 0.034462 0.024445 0.002419
v 0.036919 0.026902 0.002419
v 0.040275 0.027801 0.002419
v -0.000291 0.021088 0.004847
v 0.005522 0.017732 0.004847
v 0.006421 0.021088 0.004847
v 0.003065 0.015275 0.004847
v -0.000291 0.014376 0.004847
v -0.003648 0.015275 0.004847
v -0.006105 0.017732 0.004847
v -0.007004 0.021088 0.004847
v -0.006105 0.024445 0.004847
v -0.003648 0.026902 0.004847
v -0.000291 0.027801 0.004847
v 0.003065 0.026902 0.004847
v 0.005522 0.024445 0.004847
v 0.005522 0.024445 0.002419
v 0.003065 0.026902 0.002419
v 0.006421 0.021088 0.002419
v 0.005522 0.017732 0.002419
v 0.003065 0.015275 0.002419
v -0.000291 0.014376 0.002419
v -0.003648 0.015275 0.002419
v -0.006105 0.017732 0.002419
v -0.007004 0.021088 0.002419
v -0.006105 0.024445 0.002419
v -0.003648 0.026902 0.002419
v -0.000291 0.027801 0.002419
v -0.037471 0.021088 0.004847
v -0.031658 0.017732 0.004847
v -0.030758 0.021088 0.004847
v -0.034115 0.015275 0.004847
v -0.037471 0.014376 0.004847
v -0.040828 0.015275 0.004847
v -0.043285 0.017732 0.004847
v -0.044184 0.021088 0.004847
v -0.043285 0.024445 0.004847
v -0.040828 0.026902 0.004847
v -0.037471 0.027801 0.004847
v -0.034115 0.026902 0.004847
v -0.031658 0.024445 0.004847
v -0.031658 0.024445 0.002419
v -0.034115 0.026902 0.002419
v -0.030758 0.021088 0.002419
v -0.031658 0.017732 0.002419
v -0.034115 0.015275 0.002419
v -0.037471 0.014376 0.002419
v -0.040828 0.015275 0.002419
v -0.043285 0.017732 0.002419
v -0.044184 0.021088 0.002419
v -0.043285 0.024445 0.002419
v -0.040828 0.026902 0.002419
v -0.037471 0.027801 0.002419
v -0.061981 0.021088 -0.064426
v -0.061981 0.017732 -0.058613
v -0.061981 0.021088 -0.057713
v -0.061981 0.015275 -0.061070
v -0.061981 0.014376 -0.064426
v -0.061981 0.015275 -0.067782
v -0.061981 0.017732 -0.070240
v -0.061981 0.021088 -0.071139
v -0.061981 0.024445 -0.070240
v -0.061981 0.026902 -0.067782
v -0.061981 0.027801 -0.064426
v -0.061981 0.026902 -0.061070
v -0.061981 0.024445 -0.058613
v -0.059552 0.024445 -0.058613
v -0.059552 0.026902 -0.061070
v -0.059552 0.021088 -0.057713
v -0.059552 0.017732 -0.058613
v -0.059552 0.015275 -0.061070
v -0.059552 0.014376 -0.064426
v -0.059552 0.015275 -0.067782
v -0.059552 0.017732 -0.070240
v -0.059552 0.021088 -0.071139
v -0.059552 0.024445 -0.070240
v -0.059552 0.026902 -0.067782
v -0.059552 0.027801 -0.064426
v -0.061981 0.021088 -0.013375
v -0.061981 0.017732 -0.007561
v -0.061981 0.021088 -0.006662
v -0.061981 0.015275 -0.010018
v -0.061981 0.014376 -0.013375
v -0.061981 0.015275 -0.016731
v -0.061981 0.017732 -0.019188
v -0.061981 0.021088 -0.020087
v -0.061981 0.024445 -0.019188
v -0.061981 0.026902 -0.016731
v -0.061981 0.027801 -0.013375
v -0.061981 0.026902 -0.010018
v -0.061981 0.024445 -0.007561
v -0.059552 0.024445 -0.007561
v -0.059552 0.026902 -0.010018
v -0.059552 0.021088 -0.006662
v -0.059552 0.017732 -0.007561
v -0.059552 0.015275 -0.010018
v -0.059552 0.014376 -0.013375
v -0.059552 0.015275 -0.016731
v -0.059552 0.017732 -0.019188
v -0.059552 0.021088 -0.020087
v -0.059552 0.024445 -0.019188
v -0.059552 0.026902 -0.016731
v -0.059552 0.027801 -0.013375
v 0.062377 0.021088 -0.064426
v 0.062377 0.017732 -0.070240
v 0.062377 0.021088 -0.071139
v 0.062377 0.015275 -0.067782
v 0.062377 0.014376 -0.064426
v 0.062377 0.015275 -0.061070
v 0.062377 0.017732 -0.058613
v 0.062377 0.021088 -0.057713
v 0.062377 0.024445 -0.058613
v 0.062377 0.026902 -0.061070
v 0.062377 0.027801 -0.064426
v 0.062377 0.026902 -0.067782
v 0.062377 0.024445 -0.070240
v 0.059948 0.024445 -0.070240
v 0.059948 0.026902 -0.067782
v 0.059948 0.021088 -0.071139
v 0.059948 0.017732 -0.070240
v 0.059948 0.015275 -0.067782
v 0.059948 0.014376 -0.064426
v 0.059948 0.015275 -0.061070
v 0.059948 0.017732 -0.058613
v 0.059948 0.021088 -0.057713
v 0.059948 0.024445 -0.058613
v 0.059948 0.026902 -0.061070
v 0.059948 0.027801 -0.064426
v 0.062377 0.021088 -0.013375
v 0.062377 0.017732 -0.019188
v 0.062377 0.021088 -0.020087
v 0.062377 0.015275 -0.016731
v 0.062377 0.014376 -0.013375
v 0.062377 0.015275 -0.010018
v 0.062377 0.017732 -0.007561
v 0.062377 0.021088 -0.006662
v 0.062377 0.024445 -0.007561
v 0.062377 0.026902 -0.010018
v 0.062377 0.027801 -0.013375
v 0.062377 0.026902 -0.016731
v 0.062377 0.024445 -0.019188
v 0.059948 0.024445 -0.019188
v 0.059948 0.026902 -0.016731
v 0.059948 0.021088 -0.020087
v 0.059948 0.017732 -0.019188
v 0.059948 0.015275 -0.016731
v 0.059948 0.014376 -0.013375
v 0.059948 0.015275 -0.010018
v 0.059948 0.017732 -0.007561
v 0.059948 0.021088 -0.006662
v 0.059948 0.024445 -0.007561
v 0.059948 0.026902 -0.010018
v 0.059948 0.027801 -0.013375
v 0.014438 0.049517 0.195614
v -0.012730 0.049517 0.195614
v 0.014438 0.049517 0.190093
v 0.011228 0.044133 0.195614
v 0.011228 0.044133 0.190093
v -0.009519 0.044133 0.195614
v -0.009519 0.044133 0.190093
v -0.012730 0.049517 0.190093
v 0.014438 0.049517 0.096202
v -0.012730 0.049517 0.096202
v 0.014438 0.049517 0.038776
v 0.011228 0.044133 0.096202
v 0.011228 0.044133 0.038776
v -0.009519 0.044133 0.096202
v -0.009519 0.044133 0.038776
v -0.012730 0.049517 0.038776
v -0.004931 0.019281 -0.088074
v -0.004931 0.036678 -0.089391
v -0.004931 0.019281 -0.090825
v 0.004931 0.019281 -0.088074
v -0.004931 0.011092 -0.088729
v 0.004931 0.011092 -0.088729
v -0.004931 0.003545 -0.092216
v -0.004931 0.011868 -0.091369
v 0.004931 0.011868 -0.091369
v -0.004931 0.005734 -0.093883
v 0.004931 0.005734 -0.093883
v -0.004931 0.001289 -0.099165
v 0.004931 0.001289 -0.099165
v -0.004931 -0.001370 -0.098455
v -0.004931 -0.000585 -0.106514
v -0.004931 -0.003336 -0.106467
v 0.004931 -0.000585 -0.106514
v -0.004931 -0.002145 -0.152476
v 0.004931 -0.002145 -0.152476
v -0.004931 -0.004896 -0.152429
v -0.004931 0.000505 -0.156833
v -0.004931 -0.001071 -0.159088
v 0.004931 0.000505 -0.156833
v -0.004931 0.006070 -0.158942
v -0.004931 0.006376 -0.161677
v 0.004931 0.006070 -0.158942
v -0.004931 0.020273 -0.159540
v 0.004931 0.020273 -0.159540
v -0.004931 0.020015 -0.162279
v 0.004931 0.020015 -0.162279
v 0.004931 0.006376 -0.161677
v 0.004931 -0.001071 -0.159088
v 0.004931 -0.004896 -0.152429
v 0.004931 -0.003336 -0.106467
v 0.004931 -0.001370 -0.098455
v 0.004931 0.003545 -0.092216
v 0.004931 0.019281 -0.090825
v 0.004931 0.036678 -0.093348
v -0.004931 0.036678 -0.093348
v 0.004931 0.036678 -0.089391
v -0.005745 0.026211 -0.131728
v -0.005745 0.025256 -0.148115
v -0.005745 0.038373 -0.110427
v 0.005745 0.026211 -0.131728
v -0.005745 0.017757 -0.133664
v 0.005745 0.017757 -0.133664
v -0.005745 0.012454 -0.133418
v -0.005745 0.017557 -0.146126
v 0.005745 0.017557 -0.146126
v -0.005745 0.006422 -0.142317
v 0.005745 0.006422 -0.142317
v -0.004673 0.000394 -0.134769
v 0.004673 0.000394 -0.134769
v -0.002631 -0.001663 -0.125129
v -0.004673 0.005481 -0.129367
v 0.004673 0.005481 -0.129367
v -0.002631 0.001238 -0.123511
v 0.002631 0.001238 -0.123511
v 0.002631 -0.001663 -0.125129
v 0.005745 0.012454 -0.133418
v 0.005745 0.025256 -0.148115
v 0.005745 0.037419 -0.150015
v 0.005745 0.038373 -0.110427
v -0.005745 0.037419 -0.150015
v -0.010634 0.029566 -0.161800
v -0.009865 0.038190 -0.161448
v 0.000000 0.029566 -0.155508
v -0.010880 0.019564 -0.163516
v -0.012988 0.029566 -0.192424
v -0.012049 0.038190 -0.195803
v -0.010634 0.029566 -0.223048
v -0.013290 0.019564 -0.190504
v -0.010880 0.019564 -0.217492
v -0.014179 0.001381 -0.196238
v -0.011609 0.001381 -0.224149
v -0.016164 -0.025894 -0.208161
v -0.011609 0.001381 -0.168327
v 0.000000 0.001381 -0.163809
v -0.013234 -0.025894 -0.177121
v 0.000000 -0.025894 -0.174243
v -0.014728 -0.049798 -0.188049
v 0.000000 -0.049798 -0.183291
v -0.015760 -0.065685 -0.193905
v -0.017989 -0.049798 -0.219426
v -0.014728 -0.049798 -0.250804
v -0.019250 -0.065685 -0.226863
v -0.015760 -0.065685 -0.259821
v -0.020005 -0.072922 -0.225953
v -0.016379 -0.070029 -0.261363
v -0.018723 -0.081308 -0.221113
v -0.016379 -0.075815 -0.190542
v 0.000000 -0.075815 -0.185428
v -0.015329 -0.084201 -0.190192
v 0.000000 -0.084201 -0.184351
v -0.009841 -0.092814 -0.195434
v 0.000000 -0.092814 -0.193573
v -0.011420 -0.086961 -0.220551
v -0.008858 -0.081108 -0.245668
v 0.000000 -0.086961 -0.221999
v 0.011420 -0.086961 -0.220551
v 0.000000 -0.081108 -0.250425
v 0.008858 -0.081108 -0.245668
v 0.000000 -0.078415 -0.257630
v 0.015329 -0.078415 -0.252034
v 0.000000 -0.070029 -0.268188
v -0.015329 -0.078415 -0.252034
v 0.016379 -0.070029 -0.261363
v 0.000000 -0.065685 -0.266442
v 0.015760 -0.065685 -0.259821
v 0.000000 -0.049798 -0.257818
v 0.014728 -0.049798 -0.250804
v 0.000000 -0.025894 -0.244686
v 0.013234 -0.025894 -0.239200
v 0.000000 0.001381 -0.228652
v -0.013234 -0.025894 -0.239200
v 0.011609 0.001381 -0.224149
v 0.000000 0.019564 -0.221117
v 0.010880 0.019564 -0.217492
v 0.000000 0.029566 -0.226141
v 0.000000 0.038190 -0.234189
v 0.010634 0.029566 -0.223048
v 0.009865 0.038190 -0.230159
v 0.012988 0.029566 -0.192424
v 0.012049 0.038190 -0.195803
v 0.010634 0.029566 -0.161800
v 0.013290 0.019564 -0.190504
v 0.010880 0.019564 -0.163516
v 0.014179 0.001381 -0.196238
v 0.011609 0.001381 -0.168327
v 0.016164 -0.025894 -0.208161
v 0.013234 -0.025894 -0.177121
v 0.017989 -0.049798 -0.219426
v 0.014728 -0.049798 -0.188049
v 0.019250 -0.065685 -0.226863
v 0.015760 -0.065685 -0.193905
v 0.020005 -0.072922 -0.225953
v 0.016379 -0.075815 -0.190542
v 0.018723 -0.081308 -0.221113
v 0.015329 -0.084201 -0.190192
v 0.009841 -0.092814 -0.195434
v 0.000000 -0.065685 -0.188172
v 0.000000 0.019564 -0.157247
v 0.009865 0.038190 -0.161448
v 0.000000 0.038190 -0.155109
v 0.000000 0.038190 -0.194649
v -0.009865 0.038190 -0.230159
v -0.047519 -0.078965 -0.002732
v -0.062768 -0.061264 0.003687
v -0.014310 -0.078965 -0.002732
v -0.047519 -0.078965 -0.015186
v -0.014310 -0.078965 -0.015186
v -0.047519 -0.078965 -0.050423
v -0.062768 -0.061264 -0.014183
v -0.062768 -0.061264 -0.058971
v -0.067000 -0.033453 -0.015947
v -0.067000 -0.033453 0.007679
v -0.067000 -0.033453 -0.069062
v -0.060531 0.002543 -0.016992
v -0.060531 0.002543 0.002276
v -0.060531 0.002543 -0.062269
v -0.061833 0.010530 -0.015969
v -0.061833 0.010530 0.004142
v -0.061833 0.010530 -0.063291
v -0.060578 0.029327 -0.015969
v -0.059379 0.045440 -0.015969
v -0.060578 0.029327 0.004142
v -0.060578 0.029327 -0.063291
v -0.059379 0.045440 -0.063291
v -0.060578 0.029327 -0.082198
v -0.059379 0.045440 -0.082198
v -0.018244 0.029327 -0.082198
v -0.061833 0.010530 -0.082198
v -0.060531 0.002543 -0.080332
v -0.018622 0.010530 -0.082198
v -0.018230 0.002543 -0.080332
v 0.018630 0.010530 -0.082198
v 0.018238 0.002543 -0.080332
v 0.061833 0.010530 -0.082198
v 0.018252 0.029327 -0.082198
v 0.017891 0.045440 -0.082198
v 0.060578 0.029327 -0.082198
v 0.059379 0.045440 -0.082198
v 0.060578 0.029327 -0.063291
v 0.059379 0.045440 -0.063291
v 0.060578 0.029327 -0.015969
v 0.061833 0.010530 -0.063291
v 0.060531 0.002543 -0.062269
v 0.061833 0.010530 -0.015969
v 0.060531 0.002543 -0.016992
v 0.061833 0.010530 0.004142
v 0.060531 0.002543 0.002276
v 0.018630 0.010530 0.004142
v 0.060578 0.029327 0.004142
v 0.059379 0.045440 0.004142
v 0.018252 0.029327 0.004142
v 0.017891 0.045440 0.004142
v -0.018244 0.029327 0.004142
v -0.017883 0.045440 0.004142
v -0.018622 0.010530 0.004142
v -0.018230 0.002543 0.002276
v -0.020047 -0.033453 0.007679
v 0.018238 0.002543 0.002276
v 0.020450 -0.033453 0.007679
v 0.067437 -0.033453 0.007679
v 0.019014 -0.061264 0.003687
v 0.062938 -0.061264 0.003687
v 0.014318 -0.078965 -0.002732
v -0.018852 -0.061264 0.003687
v 0.047519 -0.078965 -0.002732
v 0.014318 -0.078965 -0.015186
v 0.047519 -0.078965 -0.015186
v 0.014318 -0.078965 -0.050423
v 0.014318 -0.078965 -0.067021
v -0.014310 -0.078965 -0.050423
v 0.047519 -0.078965 -0.050423
v 0.062938 -0.061264 -0.058971
v 0.047519 -0.078965 -0.067021
v 0.062938 -0.061264 -0.078029
v 0.067437 -0.033453 -0.089230
v 0.019014 -0.061264 -0.078029
v 0.020450 -0.033453 -0.089230
v -0.018852 -0.061264 -0.078029
v -0.062768 -0.061264 -0.078029
v -0.014310 -0.078965 -0.067021
v -0.020047 -0.033453 -0.089230
v -0.067000 -0.033453 -0.089230
v -0.047519 -0.078965 -0.067021
v 0.060531 0.002543 -0.080332
v 0.067437 -0.033453 -0.069062
v 0.067437 -0.033453 -0.015947
v 0.062938 -0.061264 -0.014183
v -0.014143 0.053647 0.003089
v -0.059379 0.045440 0.004142
v -0.046964 0.053647 0.003089
v -0.046964 0.053647 -0.016546
v -0.014143 0.053647 -0.016546
v -0.046964 0.053647 -0.062714
v -0.046964 0.053647 -0.081145
v -0.014143 0.053647 -0.062714
v -0.014143 0.053647 -0.081145
v 0.014151 0.053647 -0.062714
v -0.014143 0.055649 -0.062714
v 0.014151 0.055649 -0.062714
v -0.014143 0.064922 -0.072077
v -0.014143 0.055649 -0.016546
v 0.014151 0.055649 -0.016546
v -0.014143 0.064922 -0.007183
v 0.014151 0.064922 -0.007183
v 0.014151 0.064922 -0.072077
v 0.014151 0.053647 -0.016546
v 0.046964 0.053647 -0.016546
v 0.014151 0.053647 0.003089
v 0.046964 0.053647 0.003089
v 0.059379 0.045440 -0.015969
v 0.046964 0.053647 -0.062714
v 0.046964 0.053647 -0.081145
v 0.014151 0.053647 -0.081145
v -0.017883 0.045440 -0.082198
v 0.000000 0.008747 -0.363752
v 0.000000 0.023687 -0.363752
v 0.003735 0.008747 -0.362751
v 0.000000 0.007295 -0.361172
v -0.003735 0.008747 -0.362751
v -0.006469 0.008747 -0.360017
v -0.002445 0.007295 -0.360517
v -0.003735 0.023687 -0.362751
v -0.006469 0.023687 -0.360017
v -0.007470 0.023687 -0.356282
v -0.006469 0.023687 -0.352547
v -0.007470 0.008747 -0.356282
v -0.004890 0.007295 -0.356282
v -0.006469 0.008747 -0.352547
v -0.004235 0.007295 -0.353837
v -0.003735 0.008747 -0.349813
v -0.003735 0.023687 -0.349813
v 0.000000 0.008747 -0.348812
v -0.002445 0.007295 -0.352048
v 0.000000 0.007295 -0.351393
v 0.000000 0.007295 -0.356282
v 0.002445 0.007295 -0.360517
v 0.004235 0.007295 -0.358727
v 0.004890 0.007295 -0.356282
v 0.004235 0.007295 -0.353837
v 0.002445 0.007295 -0.352048
v -0.004235 0.007295 -0.358727
v 0.003735 0.008747 -0.349813
v 0.006469 0.008747 -0.352547
v 0.003735 0.023687 -0.349813
v 0.006469 0.023687 -0.352547
v 0.000000 0.023687 -0.348812
v 0.007470 0.023687 -0.356282
v 0.006469 0.023687 -0.360017
v 0.007470 0.008747 -0.356282
v 0.006469 0.008747 -0.360017
v 0.003735 0.023687 -0.362751
vn -0.0000 -0.0000 -1.0000
vn -0.6557 -0.3786 -0.6532
vn -0.7572 -0.0000 -0.6532
vn -1.0000 -0.0000 -0.0000
vn -0.8660 -0.5000 -0.0000
vn -0.3786 -0.6557 -0.6532
vn -0.5000 -0.8660 -0.0000
vn -0.0000 -0.7572 -0.6532
vn -0.0000 -1.0000 -0.0000
vn 0.3786 -0.6557 -0.6532
vn 0.5000 -0.8660 -0.0000
vn 0.6557 -0.3786 -0.6532
vn 0.8660 -0.5000 -0.0000
vn 0.7572 -0.0000 -0.6532
vn 1.0000 -0.0000 -0.0000
vn 0.6557 0.3786 -0.6532
vn 0.8660 0.5000 -0.0000
vn 0.3786 0.6557 -0.6532
vn 0.5000 0.8660 -0.0000
vn -0.0000 0.7572 -0.6532
vn -0.0000 1.0000 -0.0000
vn -0.3786 0.6557 -0.6532
vn -0.5000 0.8660 -0.0000
vn -0.6557 0.3786 -0.6532
vn -0.8660 0.5000 -0.0000
vn -0.0000 -0.0000 1.0000
vn 0.3786 -0.6557 0.6532
vn 0.6557 -0.3786 0.6532
vn 0.7572 -0.0000 0.6532
vn 0.6557 0.3786 0.6532
vn -0.0000 -0.7572 0.6532
vn -0.3786 -0.6557 0.6532
vn -0.6557 -0.3786 0.6532
vn -0.7572 -0.0000 0.6532
vn -0.6557 0.3786 0.6532
vn -0.3786 0.6557 0.6532
vn -0.0000 0.7572 0.6532
vn 0.3786 0.6557 0.6532
vn -0.6532 -0.6557 0.3786
vn -0.6532 -0.3786 0.6557
vn -0.6532 -0.0000 0.7572
vn -0.6532 0.3786 0.6557
vn -0.6532 -0.7572 -0.0000
vn -0.6532 -0.6557 -0.3786
vn -0.6532 -0.3786 -0.6557
vn -0.6532 -0.0000 -0.7572
vn -0.6532 0.3786 -0.6557
vn -0.6532 0.6557 -0.3786
vn -0.6532 0.7572 -0.0000
vn -0.6532 0.6557 0.3786
vn -0.0000 0.8660 0.5000
vn -0.0000 0.5000 0.8660
vn -0.0000 -0.5000 0.8660
vn -0.0000 -0.8660 0.5000
vn -0.0000 -0.8660 -0.5000
vn -0.0000 -0.5000 -0.8660
vn -0.0000 0.5000 -0.8660
vn -0.0000 0.8660 -0.5000
vn 0.6532 -0.6557 -0.3786
vn 0.6532 -0.3786 -0.6557
vn 0.6532 -0.0000 -0.7572
vn 0.6532 0.3786 -0.6557
vn 0.6532 -0.7572 -0.0000
vn 0.6532 -0.6557 0.3786
vn 0.6532 -0.3786 0.6557
vn 0.6532 -0.0000 0.7572
vn 0.6532 0.3786 0.6557
vn 0.6532 0.6557 0.3786
vn 0.6532 0.7572 -0.0000
vn 0.6532 0.6557 -0.3786
vn -0.7238 0.4111 0.5542
vn -0.3910 -0.6883 0.6110
vn 0.3910 -0.6883 0.6110
vn 0.7238 0.4111 0.5542
vn 0.7238 0.4111 -0.5542
vn -0.7238 0.4111 -0.5542
vn 0.3910 -0.6883 -0.6110
vn -0.3910 -0.6883 -0.6110
vn 0.6900 -0.0016 0.7238
vn 0.7235 0.0521 0.6883
vn -0.7235 0.0521 0.6883
vn -0.6900 -0.0016 0.7238
vn -0.6724 -0.1062 -0.7326
vn -0.7323 -0.0241 -0.6805
vn -0.7443 0.1530 -0.6501
vn -0.6697 -0.1883 0.7184
vn 0.6697 -0.1883 0.7184
vn -0.6582 -0.4664 0.5910
vn 0.6582 -0.4664 0.5910
vn -0.7650 0.3794 -0.5204
vn 0.7443 0.1530 -0.6501
vn 0.7650 0.3794 -0.5204
vn 0.7323 -0.0241 -0.6805
vn 0.7609 0.5771 -0.2965
vn -0.7609 0.5771 -0.2965
vn -0.6624 -0.6733 0.3285
vn 0.7322 0.6743 -0.0963
vn -0.7322 0.6743 -0.0963
vn -0.6846 -0.7221 0.0998
vn -0.7775 0.6083 0.1594
vn -0.6503 -0.7372 -0.1833
vn 0.7775 0.6083 0.1594
vn 0.7881 0.3934 0.4735
vn -0.7881 0.3934 0.4735
vn -0.6362 -0.4923 -0.5941
vn -0.7448 0.1340 0.6537
vn -0.6759 -0.1387 -0.7238
vn 0.7448 0.1340 0.6537
vn -0.6951 0.0302 0.7183
vn -0.7181 -0.0307 -0.6953
vn 0.6951 0.0302 0.7183
vn 0.6759 -0.1387 -0.7238
vn 0.7181 -0.0307 -0.6953
vn 0.6362 -0.4923 -0.5941
vn 0.6503 -0.7372 -0.1833
vn 0.6846 -0.7221 0.0998
vn 0.6624 -0.6733 0.3285
vn 0.6724 -0.1062 -0.7326
vn -0.8096 -0.3498 0.4713
vn -0.6963 -0.1453 -0.7029
vn -0.6986 -0.2054 -0.6854
vn -0.7389 -0.0602 0.6712
vn -0.6757 -0.1138 -0.7283
vn -0.3004 -0.8283 0.4729
vn 0.3004 -0.8283 0.4729
vn 0.8096 -0.3498 0.4713
vn 0.7389 -0.0602 0.6712
vn -0.7695 0.1386 0.6235
vn 0.7695 0.1386 0.6235
vn -0.6621 -0.4572 -0.5938
vn 0.6963 -0.1453 -0.7029
vn 0.6986 -0.2054 -0.6854
vn 0.6621 -0.4572 -0.5938
vn 0.6436 -0.7239 -0.2483
vn -0.6436 -0.7239 -0.2483
vn -0.7512 0.3111 0.5822
vn 0.5008 -0.7799 0.3754
vn -0.5008 -0.7799 0.3754
vn -0.5022 0.1390 0.8535
vn 0.7512 0.3111 0.5822
vn 0.5022 0.1390 0.8535
vn 0.6757 -0.1138 -0.7283
vn -0.8450 -0.0073 0.5347
vn -0.6483 0.6387 0.4144
vn -0.6936 0.7202 -0.0115
vn -0.9987 0.0501 0.0032
vn -0.0000 -0.0879 0.9961
vn -0.0000 0.5967 0.8025
vn -0.8250 -0.1086 0.5546
vn -0.0000 -0.2233 0.9747
vn -0.9995 0.0278 0.0138
vn -0.6258 0.4087 -0.6643
vn -0.8009 -0.2899 -0.5239
vn -0.8605 0.0063 -0.5093
vn -0.7869 0.2932 -0.5430
vn -0.9984 0.0565 0.0035
vn -0.7888 -0.1620 0.5929
vn -0.7734 0.3352 -0.5380
vn -0.9976 0.0693 0.0019
vn -0.7569 -0.1978 0.6229
vn -0.0000 -0.3067 0.9518
vn -0.0000 -0.3508 0.9364
vn -0.7797 -0.1800 0.5998
vn -0.0000 -0.3474 0.9377
vn -0.9973 0.0731 0.0010
vn -0.8373 0.0482 0.5446
vn -0.0000 -0.0077 1.0000
vn -0.9946 0.1027 -0.0158
vn -0.7864 0.3263 -0.5246
vn -0.7630 0.3170 -0.5634
vn -0.7289 -0.1904 -0.6576
vn -0.9989 -0.0432 -0.0189
vn -0.7714 0.0973 0.6288
vn -0.6437 -0.6895 -0.3319
vn -0.8665 -0.4971 -0.0457
vn -0.7118 -0.3870 0.5862
vn -0.0000 0.1778 0.9841
vn -0.0000 -0.3131 0.9497
vn -0.3767 -0.9046 0.1997
vn -0.0000 -0.9384 0.3456
vn -0.3560 -0.9196 -0.1663
vn -0.0000 -0.9766 -0.2153
vn -0.2250 -0.9453 -0.2362
vn -0.0000 -0.9601 -0.2795
vn 0.2250 -0.9453 -0.2362
vn 0.3560 -0.9196 -0.1663
vn 0.3767 -0.9046 0.1997
vn -0.0000 -0.8582 -0.5133
vn 0.6437 -0.6895 -0.3319
vn -0.0000 -0.2149 -0.9766
vn 0.7289 -0.1904 -0.6576
vn -0.0000 0.4312 -0.9023
vn 0.7630 0.3170 -0.5634
vn -0.0000 0.4839 -0.8751
vn 0.7864 0.3263 -0.5246
vn -0.0000 0.4842 -0.8749
vn 0.7734 0.3352 -0.5380
vn -0.0000 0.4440 -0.8960
vn 0.7869 0.2932 -0.5430
vn -0.0000 -0.0592 -0.9982
vn 0.8605 0.0063 -0.5093
vn -0.0000 -0.5724 -0.8200
vn 0.8009 -0.2899 -0.5239
vn -0.0000 0.3473 -0.9377
vn 0.6259 0.4087 -0.6643
vn 0.6936 0.7202 -0.0115
vn 0.9987 0.0501 0.0032
vn 0.9995 0.0278 0.0138
vn 0.6483 0.6387 0.4144
vn 0.8450 -0.0073 0.5347
vn 0.8250 -0.1086 0.5546
vn 0.7888 -0.1620 0.5929
vn 0.9984 0.0565 0.0035
vn 0.7569 -0.1978 0.6229
vn 0.9976 0.0693 0.0019
vn 0.7797 -0.1800 0.5998
vn 0.9973 0.0731 0.0010
vn 0.8373 0.0482 0.5446
vn 0.9946 0.1027 -0.0158
vn 0.7714 0.0973 0.6288
vn 0.9989 -0.0432 -0.0189
vn 0.7118 -0.3870 0.5862
vn 0.8665 -0.4971 -0.0457
vn -0.3201 -0.8130 0.4863
vn -0.6622 -0.4092 0.6277
vn -0.9085 -0.4178 -0.0000
vn -0.4167 -0.9090 -0.0000
vn -0.0000 -0.8188 0.5741
vn -0.0000 -0.2428 0.9701
vn -0.7107 0.0106 0.7034
vn -0.9999 0.0134 -0.0000
vn -0.7124 -0.0245 0.7013
vn -1.0000 0.0081 -0.0000
vn -0.7048 -0.1055 0.7015
vn -0.9989 -0.0474 -0.0000
vn -0.7062 0.0499 0.7063
vn -0.9975 0.0704 -0.0000
vn -0.8626 0.5059 -0.0000
vn -0.6697 0.4036 0.6234
vn -0.6697 0.4036 -0.6234
vn -0.7062 0.0499 -0.7063
vn -0.7048 -0.1055 -0.7015
vn -0.0000 0.0637 -0.9980
vn -0.0000 -0.1145 -0.9934
vn -0.7251 0.0114 -0.6885
vn -0.0000 0.0064 -1.0000
vn 0.7048 -0.1055 -0.7015
vn 0.7235 0.0162 -0.6901
vn 0.7062 0.0499 -0.7063
vn 0.6697 0.4036 -0.6234
vn 0.8626 0.5059 -0.0000
vn 0.9975 0.0704 -0.0000
vn 0.9989 -0.0474 -0.0000
vn 0.9999 0.0140 -0.0000
vn 0.7048 -0.1055 0.7015
vn 0.7109 -0.0201 0.7030
vn 0.7062 0.0499 0.7063
vn -0.0000 -0.1145 0.9934
vn -0.0000 -0.0403 0.9992
vn 0.6697 0.4036 0.6234
vn -0.0000 0.0637 0.9980
vn -0.0000 0.0032 1.0000
vn 0.7127 0.0113 0.7013
vn 0.6595 -0.4138 0.6276
vn 0.3179 -0.8137 0.4867
vn 0.4142 -0.9102 -0.0000
vn -0.0000 -0.8741 -0.4857
vn 0.3211 -0.8597 -0.3973
vn 0.9054 -0.4246 -0.0000
vn 0.6508 -0.5132 -0.5595
vn -0.0000 -0.4526 -0.8917
vn 0.6816 -0.0378 -0.7307
vn 0.9999 0.0146 -0.0000
vn -0.0000 -0.0702 -0.9975
vn -0.6538 -0.5088 -0.5600
vn -0.6795 -0.0389 -0.7327
vn -0.3234 -0.8589 -0.3970
vn -0.0000 0.7507 0.6606
vn -0.2140 0.7718 0.5988
vn -0.2879 0.9576 -0.0000
vn -0.3015 0.9045 0.3015
vn -0.3015 0.9045 -0.3015
vn -0.2140 0.7718 -0.5988
vn -0.0000 0.7507 -0.6606
vn 0.3015 0.9045 -0.3015
vn -0.8048 -0.2285 -0.5478
vn 0.8048 -0.2285 -0.5478
vn -0.8048 -0.2285 0.5478
vn -0.5468 0.3185 -0.7743
vn 0.5468 0.3185 -0.7743
vn -0.5468 0.3185 0.7743
vn 0.8048 -0.2285 0.5478
vn 0.5468 0.3185 0.7743
vn 0.3015 0.9045 0.3015
vn 0.2879 0.9576 -0.0000
vn 0.2140 0.7718 0.5988
vn 0.2140 0.7718 -0.5988
vn -0.4409 -0.4716 -0.7637
vn -0.5000 -0.0000 -0.8660
vn -0.0000 -0.4716 -0.8818
vn 0.5000 -0.0000 -0.8660
vn 0.4409 -0.4716 -0.7637
vn 0.1461 -0.9564 -0.2530
vn -0.0000 -0.9564 -0.2921
vn -0.1461 -0.9564 -0.2530
vn -0.7637 -0.4716 -0.4409
vn -0.8660 -0.0000 -0.5000
vn -0.2530 -0.9564 -0.1461
vn -0.8818 -0.4716 -0.0000
vn -0.7637 -0.4716 0.4409
vn -0.8660 -0.0000 0.5000
vn -0.2921 -0.9564 -0.0000
vn -0.2530 -0.9564 0.1461
vn -0.4409 -0.4716 0.7637
vn -0.1461 -0.9564 0.2530
vn -0.5000 -0.0000 0.8660
vn -0.0000 -0.4716 0.8818
vn -0.0000 -0.9564 0.2921
vn 0.2530 -0.9564 -0.1461
vn 0.2921 -0.9564 -0.0000
vn 0.2530 -0.9564 0.1461
vn 0.1461 -0.9564 0.2530
vn 0.4409 -0.4716 0.7637
vn 0.7637 -0.4716 0.4409
vn 0.5000 -0.0000 0.8660
vn 0.8660 -0.0000 0.5000
vn 0.8818 -0.4716 -0.0000
vn 0.7637 -0.4716 -0.4409
vn 0.8660 -0.0000 -0.5000
vt 0.457197 0.975150
vt 0.452930 0.979417
vt 0.451369 0.976712
vt 0.226961 0.991516
vt 0.229144 0.991514
vt 0.229149 0.994531
vt 0.226966 0.994533
vt 0.455635 0.980979
vt 0.744098 0.969581
vt 0.746281 0.969581
vt 0.746275 0.971790
vt 0.744091 0.971790
vt 0.458758 0.980979
vt 0.746273 0.974808
vt 0.744089 0.974808
vt 0.461463 0.979417
vt 0.746275 0.977826
vt 0.744091 0.977826
vt 0.463024 0.976711
vt 0.746281 0.980035
vt 0.744098 0.980035
vt 0.463024 0.973587
vt 0.723214 0.983903
vt 0.725397 0.983905
vt 0.725392 0.986920
vt 0.723209 0.986919
vt 0.461463 0.970882
vt 0.725392 0.989940
vt 0.723209 0.989939
vt 0.458758 0.969320
vt 0.725397 0.992156
vt 0.723214 0.992154
vt 0.455635 0.969320
vt 0.616221 0.956302
vt 0.614039 0.956302
vt 0.614017 0.953285
vt 0.616200 0.953285
vt 0.452930 0.970882
vt 0.614039 0.950267
vt 0.616221 0.950267
vt 0.451369 0.973588
vt 0.226966 0.986286
vt 0.229149 0.986284
vt 0.229144 0.988495
vt 0.226961 0.988497
vt 0.248402 0.974967
vt 0.246840 0.980797
vt 0.244136 0.979235
vt 0.242574 0.976530
vt 0.242574 0.973406
vt 0.249964 0.980797
vt 0.252668 0.979235
vt 0.254230 0.976529
vt 0.254230 0.973405
vt 0.252668 0.970700
vt 0.249964 0.969138
vt 0.246840 0.969138
vt 0.244136 0.970700
vt 0.766474 0.986546
vt 0.768657 0.986544
vt 0.768652 0.988756
vt 0.766468 0.988758
vt 0.768652 0.991774
vt 0.766468 0.991776
vt 0.768657 0.994791
vt 0.766474 0.994793
vt 0.628373 0.981167
vt 0.626189 0.981167
vt 0.626196 0.978958
vt 0.628379 0.978958
vt 0.626198 0.975941
vt 0.628381 0.975941
vt 0.626196 0.972923
vt 0.628379 0.972923
vt 0.626189 0.970714
vt 0.628373 0.970714
vt 0.385029 0.984427
vt 0.387212 0.984428
vt 0.387208 0.987444
vt 0.385024 0.987442
vt 0.387208 0.990463
vt 0.385024 0.990462
vt 0.387212 0.992679
vt 0.385029 0.992678
vt 0.973711 0.635450
vt 0.971528 0.635450
vt 0.971507 0.632433
vt 0.973689 0.632433
vt 0.971528 0.629415
vt 0.973711 0.629415
vt 0.941853 0.975154
vt 0.943415 0.969324
vt 0.946119 0.970886
vt 0.947681 0.973592
vt 0.947681 0.976716
vt 0.940292 0.969325
vt 0.937587 0.970887
vt 0.936025 0.973592
vt 0.936025 0.976716
vt 0.937587 0.979422
vt 0.940292 0.980984
vt 0.943415 0.980984
vt 0.946119 0.979421
vt 0.321682 0.993832
vt 0.319498 0.993834
vt 0.319504 0.991623
vt 0.321687 0.991621
vt 0.319504 0.988604
vt 0.321687 0.988602
vt 0.319498 0.985587
vt 0.321682 0.985585
vt 0.403531 0.973109
vt 0.405714 0.973109
vt 0.405708 0.975318
vt 0.403525 0.975318
vt 0.405706 0.978336
vt 0.403522 0.978336
vt 0.405708 0.981354
vt 0.403525 0.981354
vt 0.405714 0.983563
vt 0.403531 0.983563
vt 0.802822 0.985209
vt 0.805006 0.985211
vt 0.805001 0.988226
vt 0.802818 0.988224
vt 0.805001 0.991246
vt 0.802818 0.991244
vt 0.805006 0.993462
vt 0.802822 0.993460
vt 0.791041 0.995399
vt 0.788859 0.995399
vt 0.788837 0.992382
vt 0.791020 0.992382
vt 0.788859 0.989364
vt 0.791041 0.989364
vt 0.773653 0.379959
vt 0.779482 0.378397
vt 0.779482 0.381521
vt 0.777920 0.384226
vt 0.775215 0.385788
vt 0.777920 0.375691
vt 0.775215 0.374129
vt 0.772091 0.374129
vt 0.769385 0.375691
vt 0.767823 0.378397
vt 0.767823 0.381521
vt 0.769385 0.384226
vt 0.772091 0.385788
vt 0.919950 0.992220
vt 0.917767 0.992218
vt 0.917762 0.990003
vt 0.919945 0.990004
vt 0.917762 0.986983
vt 0.919945 0.986984
vt 0.917767 0.983968
vt 0.919950 0.983969
vt 0.169374 0.982454
vt 0.167191 0.982454
vt 0.167185 0.980245
vt 0.169368 0.980245
vt 0.167182 0.977227
vt 0.169366 0.977227
vt 0.167185 0.974209
vt 0.169368 0.974209
vt 0.167191 0.972000
vt 0.169374 0.972000
vt 0.890967 0.993923
vt 0.888784 0.993925
vt 0.888778 0.990908
vt 0.890962 0.990906
vt 0.888778 0.987889
vt 0.890962 0.987887
vt 0.888784 0.985678
vt 0.890967 0.985676
vt 0.272813 0.988423
vt 0.274996 0.988423
vt 0.274975 0.991442
vt 0.272792 0.991442
vt 0.274996 0.994459
vt 0.272813 0.994459
vt 0.793383 0.097101
vt 0.797651 0.101368
vt 0.794945 0.102930
vt 0.791821 0.102930
vt 0.789115 0.101368
vt 0.799213 0.098663
vt 0.799213 0.095538
vt 0.797651 0.092833
vt 0.794945 0.091271
vt 0.791821 0.091271
vt 0.789115 0.092833
vt 0.787553 0.095538
vt 0.787553 0.098663
vt 0.293485 0.984016
vt 0.295669 0.984018
vt 0.295673 0.986234
vt 0.293490 0.986232
vt 0.295673 0.989254
vt 0.293490 0.989252
vt 0.295669 0.992269
vt 0.293485 0.992267
vt 0.789362 0.971306
vt 0.791546 0.971306
vt 0.791552 0.973515
vt 0.789369 0.973515
vt 0.791554 0.976533
vt 0.789371 0.976533
vt 0.791552 0.979550
vt 0.789369 0.979550
vt 0.791546 0.981759
vt 0.789362 0.981759
vt 0.935320 0.994244
vt 0.933137 0.994246
vt 0.933131 0.991229
vt 0.935315 0.991227
vt 0.933131 0.988211
vt 0.935315 0.988209
vt 0.933137 0.985999
vt 0.935320 0.985997
vt 0.964778 0.081645
vt 0.966961 0.081645
vt 0.966939 0.084663
vt 0.964757 0.084663
vt 0.966961 0.087680
vt 0.964778 0.087680
vt 0.785312 0.379959
vt 0.791142 0.381521
vt 0.789580 0.384226
vt 0.786874 0.385788
vt 0.783750 0.385788
vt 0.791142 0.378397
vt 0.789580 0.375691
vt 0.786874 0.374129
vt 0.783750 0.374129
vt 0.781044 0.375691
vt 0.779482 0.381521
vt 0.781044 0.384226
vt 0.776784 0.992463
vt 0.774600 0.992461
vt 0.774596 0.990245
vt 0.776779 0.990247
vt 0.774596 0.987225
vt 0.776779 0.987227
vt 0.774600 0.984210
vt 0.776784 0.984212
vt 0.847544 0.982438
vt 0.845360 0.982438
vt 0.845354 0.980229
vt 0.847537 0.980229
vt 0.845352 0.977211
vt 0.847535 0.977211
vt 0.845354 0.974194
vt 0.847537 0.974194
vt 0.845360 0.971985
vt 0.847544 0.971985
vt 0.992088 0.051720
vt 0.994272 0.051718
vt 0.994277 0.054735
vt 0.992094 0.054737
vt 0.994277 0.057754
vt 0.992094 0.057756
vt 0.994272 0.059965
vt 0.992088 0.059967
vt 0.992541 0.370228
vt 0.994724 0.370228
vt 0.994703 0.373246
vt 0.992520 0.373246
vt 0.994724 0.376263
vt 0.992541 0.376263
vt 0.968299 0.683288
vt 0.964032 0.679021
vt 0.966737 0.677459
vt 0.969861 0.677459
vt 0.972567 0.679021
vt 0.962470 0.681726
vt 0.962470 0.684850
vt 0.964032 0.687556
vt 0.966737 0.689118
vt 0.969861 0.689118
vt 0.972567 0.687556
vt 0.974129 0.684850
vt 0.974129 0.681726
vt 0.403522 0.989596
vt 0.405706 0.989596
vt 0.405707 0.991863
vt 0.403523 0.991863
vt 0.560328 0.987261
vt 0.562512 0.987260
vt 0.562514 0.990278
vt 0.560331 0.990279
vt 0.562514 0.993295
vt 0.560331 0.993296
vt 0.562512 0.995502
vt 0.560328 0.995503
vt 0.628050 0.995615
vt 0.625866 0.995615
vt 0.625866 0.992599
vt 0.628050 0.992599
vt 0.625866 0.989579
vt 0.628050 0.989579
vt 0.229008 0.976859
vt 0.226826 0.976859
vt 0.226773 0.974630
vt 0.228956 0.974630
vt 0.226754 0.971605
vt 0.228936 0.971605
vt 0.226773 0.968595
vt 0.228956 0.968595
vt 0.226826 0.966406
vt 0.229008 0.966406
vt 0.403523 0.983563
vt 0.405707 0.983563
vt 0.405706 0.986558
vt 0.403522 0.986558
vt 0.338229 0.973980
vt 0.342496 0.969713
vt 0.344058 0.972418
vt 0.344058 0.975542
vt 0.342496 0.978248
vt 0.339791 0.968151
vt 0.336667 0.968151
vt 0.333961 0.969713
vt 0.332399 0.972418
vt 0.332399 0.975542
vt 0.333961 0.978248
vt 0.336667 0.979810
vt 0.339791 0.979810
vt 0.744089 0.986068
vt 0.746273 0.986068
vt 0.746273 0.988335
vt 0.744090 0.988334
vt 0.754173 0.995220
vt 0.751989 0.995221
vt 0.751987 0.992202
vt 0.754170 0.992201
vt 0.751987 0.989185
vt 0.754170 0.989184
vt 0.751989 0.986978
vt 0.754173 0.986977
vt 0.847544 0.995792
vt 0.845360 0.995792
vt 0.845360 0.992777
vt 0.847544 0.992777
vt 0.845360 0.989757
vt 0.847544 0.989757
vt 0.325405 0.954835
vt 0.323222 0.954835
vt 0.323170 0.952607
vt 0.325352 0.952606
vt 0.323150 0.949582
vt 0.325333 0.949581
vt 0.323170 0.946571
vt 0.325352 0.946571
vt 0.323222 0.944383
vt 0.325405 0.944382
vt 0.744090 0.980035
vt 0.746273 0.980035
vt 0.746273 0.983030
vt 0.744089 0.983030
vt 0.028415 0.974648
vt 0.029977 0.968818
vt 0.032683 0.970380
vt 0.034245 0.973086
vt 0.034245 0.976210
vt 0.026853 0.968818
vt 0.024148 0.970380
vt 0.022586 0.973086
vt 0.022586 0.976210
vt 0.024148 0.978915
vt 0.026853 0.980478
vt 0.029977 0.980477
vt 0.032683 0.978915
vt 0.319571 0.965708
vt 0.321753 0.965707
vt 0.321701 0.967896
vt 0.319518 0.967897
vt 0.321681 0.970906
vt 0.319498 0.970907
vt 0.321701 0.973931
vt 0.319518 0.973932
vt 0.321753 0.976160
vt 0.319571 0.976161
vt 0.993239 0.642792
vt 0.995422 0.642792
vt 0.995422 0.645812
vt 0.993239 0.645812
vt 0.995422 0.648827
vt 0.993239 0.648827
vt 0.995289 0.282580
vt 0.993105 0.282581
vt 0.993108 0.280373
vt 0.995291 0.280372
vt 0.993108 0.277356
vt 0.995291 0.277355
vt 0.993105 0.274338
vt 0.995289 0.274337
vt 0.154638 0.983880
vt 0.156821 0.983881
vt 0.156822 0.986147
vt 0.154638 0.986147
vt 0.156822 0.989185
vt 0.154638 0.989185
vt 0.156821 0.992180
vt 0.154638 0.992180
vt 0.185252 0.974297
vt 0.189520 0.978565
vt 0.186814 0.980127
vt 0.183690 0.980127
vt 0.180985 0.978565
vt 0.191082 0.975859
vt 0.191082 0.972735
vt 0.189520 0.970030
vt 0.186814 0.968468
vt 0.183690 0.968468
vt 0.180985 0.970030
vt 0.179423 0.972735
vt 0.179423 0.975859
vt 0.933204 0.966120
vt 0.935386 0.966119
vt 0.935334 0.968308
vt 0.933151 0.968309
vt 0.935314 0.971318
vt 0.933131 0.971319
vt 0.935334 0.974343
vt 0.933151 0.974344
vt 0.935386 0.976572
vt 0.933204 0.976573
vt 0.996195 0.554968
vt 0.994012 0.554968
vt 0.994012 0.551948
vt 0.996195 0.551948
vt 0.994012 0.548932
vt 0.996195 0.548932
vt 0.736894 0.994904
vt 0.734711 0.994905
vt 0.734713 0.992698
vt 0.736897 0.992697
vt 0.734713 0.989681
vt 0.736897 0.989680
vt 0.734711 0.986663
vt 0.736894 0.986662
vt 0.698125 0.991944
vt 0.695942 0.991944
vt 0.695941 0.989677
vt 0.698124 0.989678
vt 0.695941 0.986639
vt 0.698124 0.986640
vt 0.695942 0.983644
vt 0.698125 0.983644
vt 0.778300 0.971619
vt 0.783140 0.974505
vt 0.783140 0.993158
vt 0.778300 0.996045
vt 0.989117 0.024557
vt 0.989117 0.000131
vt 0.994080 0.000131
vt 0.994080 0.024557
vt 0.850113 0.815445
vt 0.854944 0.815453
vt 0.854944 0.820417
vt 0.850113 0.820409
vt 0.994788 0.828916
vt 0.994788 0.810263
vt 0.999752 0.810263
vt 0.999752 0.828916
vt 0.845276 0.815454
vt 0.850113 0.820409
vt 0.845276 0.820419
vt 0.600405 0.997903
vt 0.595565 0.995016
vt 0.595565 0.976369
vt 0.600405 0.973484
vt 0.997585 0.084772
vt 0.992745 0.081885
vt 0.992745 0.063232
vt 0.997585 0.060346
vt 0.879206 0.778720
vt 0.903632 0.778720
vt 0.903632 0.830332
vt 0.879206 0.830332
vt 0.906329 0.314377
vt 0.911161 0.314386
vt 0.911161 0.366015
vt 0.906329 0.366007
vt 0.594425 0.887404
vt 0.575772 0.887404
vt 0.575772 0.835775
vt 0.594425 0.835775
vt 0.886453 0.071764
vt 0.881616 0.071773
vt 0.881616 0.020144
vt 0.886453 0.020134
vt 0.493803 0.974718
vt 0.498643 0.977604
vt 0.498643 0.996252
vt 0.493803 0.999137
vt 0.971336 0.703262
vt 0.971340 0.718904
vt 0.962474 0.718906
vt 0.962470 0.703263
vt 0.762248 0.767664
vt 0.777730 0.765140
vt 0.778566 0.768598
vt 0.762829 0.770069
vt 0.756466 0.772110
vt 0.755231 0.769967
vt 0.962470 0.695902
vt 0.971336 0.695900
vt 0.962474 0.689119
vt 0.971340 0.689118
vt 0.751637 0.775603
vt 0.749372 0.774608
vt 0.971455 0.654405
vt 0.962592 0.654411
vt 0.962644 0.648917
vt 0.971507 0.648911
vt 0.971446 0.661065
vt 0.962583 0.661070
vt 0.693114 0.884304
vt 0.701980 0.884303
vt 0.701978 0.888945
vt 0.693112 0.888945
vt 0.748868 0.781158
vt 0.746395 0.781099
vt 0.701977 0.895505
vt 0.693111 0.895506
vt 0.748783 0.787976
vt 0.746369 0.788516
vt 0.757130 0.828471
vt 0.754716 0.829012
vt 0.701978 0.936777
vt 0.693113 0.936778
vt 0.701980 0.940756
vt 0.693114 0.940756
vt 0.760366 0.831719
vt 0.759465 0.834023
vt 0.765675 0.832387
vt 0.766520 0.834712
vt 0.425687 0.980330
vt 0.416821 0.980328
vt 0.416819 0.975322
vt 0.425685 0.975324
vt 0.778213 0.829908
vt 0.778566 0.832357
vt 0.416821 0.962553
vt 0.425687 0.962555
vt 0.384077 0.969981
vt 0.375214 0.969951
vt 0.375245 0.957685
vt 0.384108 0.957715
vt 0.198729 0.776188
vt 0.199573 0.773863
vt 0.211619 0.776218
vt 0.211267 0.778666
vt 0.384108 0.976698
vt 0.375245 0.976668
vt 0.193419 0.776856
vt 0.192519 0.774552
vt 0.008866 0.852825
vt 0.000000 0.852825
vt 0.000000 0.846828
vt 0.008866 0.846828
vt 0.190183 0.780103
vt 0.187769 0.779563
vt 0.008866 0.894144
vt 0.000000 0.894144
vt 0.181837 0.820599
vt 0.179423 0.820059
vt 0.008866 0.901342
vt 0.000000 0.901342
vt 0.181922 0.827417
vt 0.179449 0.827475
vt 0.008866 0.906938
vt 0.000000 0.906938
vt 0.184691 0.832972
vt 0.182426 0.833966
vt 0.189520 0.836464
vt 0.188284 0.838607
vt 0.195883 0.838506
vt 0.195301 0.840910
vt 0.211619 0.839977
vt 0.210783 0.843435
vt 0.971507 0.676726
vt 0.962644 0.676732
vt 0.318838 0.899686
vt 0.304090 0.899183
vt 0.305710 0.892220
vt 0.316915 0.892130
vt 0.302645 0.910156
vt 0.338247 0.910156
vt 0.882400 0.974533
vt 0.872069 0.974533
vt 0.872069 0.955413
vt 0.882400 0.955413
vt 0.488966 0.956079
vt 0.499297 0.956077
vt 0.499296 0.963676
vt 0.488965 0.963678
vt 0.499297 0.968444
vt 0.488966 0.968446
vt 0.308892 0.882129
vt 0.317021 0.887358
vt 0.405754 0.947048
vt 0.416082 0.947107
vt 0.416083 0.954045
vt 0.405756 0.953986
vt 0.416106 0.964087
vt 0.405778 0.964028
vt 0.965300 0.913930
vt 0.975631 0.913930
vt 0.974666 0.920732
vt 0.966263 0.920732
vt 0.315543 0.876548
vt 0.320509 0.881004
vt 0.972830 0.929404
vt 0.968100 0.929404
vt 0.324157 0.874493
vt 0.325673 0.877066
vt 0.498340 0.974716
vt 0.489937 0.974718
vt 0.928785 0.623729
vt 0.928785 0.615325
vt 0.934148 0.617160
vt 0.934148 0.621890
vt 0.592508 0.825782
vt 0.592508 0.821052
vt 0.595115 0.821054
vt 0.595115 0.825784
vt 0.730543 0.879559
vt 0.725577 0.884015
vt 0.720412 0.880080
vt 0.721928 0.877507
vt 0.737195 0.885138
vt 0.729065 0.890367
vt 0.740377 0.895229
vt 0.729171 0.895139
vt 0.741997 0.902192
vt 0.727248 0.902695
vt 0.743441 0.913165
vt 0.707839 0.913165
vt 0.405778 0.936098
vt 0.416106 0.936157
vt 0.578916 0.114615
vt 0.577292 0.122203
vt 0.547382 0.114516
vt 0.552257 0.107763
vt 0.152485 0.712605
vt 0.152484 0.720357
vt 0.143624 0.720362
vt 0.142933 0.712609
vt 0.142714 0.703618
vt 0.152487 0.703613
vt 0.556168 0.099483
vt 0.579661 0.105521
vt 0.517459 0.106830
vt 0.525583 0.100912
vt 0.532660 0.093445
vt 0.530933 0.076122
vt 0.555246 0.082366
vt 0.579542 0.088611
vt 0.523934 0.049004
vt 0.550972 0.055947
vt 0.577992 0.062892
vt 0.142066 0.687273
vt 0.152497 0.687270
vt 0.140618 0.662757
vt 0.152512 0.662755
vt 0.139291 0.641273
vt 0.152525 0.641270
vt 0.546516 0.032611
vt 0.573828 0.039632
vt 0.138371 0.626994
vt 0.152532 0.626990
vt 0.543598 0.017113
vt 0.572286 0.024488
vt 0.519183 0.025592
vt 0.514888 0.009741
vt 0.514519 0.005612
vt 0.546013 0.011015
vt 0.577483 0.016418
vt 0.524515 0.000397
vt 0.552099 0.004795
vt 0.579661 0.009194
vt 0.137811 0.617884
vt 0.152529 0.617880
vt 0.138754 0.610344
vt 0.152527 0.610340
vt 0.143696 0.602605
vt 0.152540 0.602603
vt 0.553830 0.000000
vt 0.577006 0.000523
vt 0.329670 0.788700
vt 0.319496 0.790596
vt 0.318010 0.765067
vt 0.326940 0.766223
vt 0.328683 0.811392
vt 0.320981 0.816124
vt 0.336255 0.788837
vt 0.334824 0.816775
vt 0.312783 0.812318
vt 0.309170 0.789893
vt 0.309275 0.767252
vt 0.321358 0.822598
vt 0.307308 0.818377
vt 0.321911 0.832096
vt 0.306854 0.826827
vt 0.336255 0.825115
vt 0.616843 0.787169
vt 0.631150 0.787223
vt 0.631672 0.791116
vt 0.616804 0.791060
vt 0.602819 0.787223
vt 0.602230 0.791116
vt 0.617031 0.772956
vt 0.630419 0.773013
vt 0.603944 0.773013
vt 0.617317 0.751573
vt 0.629330 0.751617
vt 0.605540 0.751617
vt 0.617667 0.727182
vt 0.628198 0.727219
vt 0.607329 0.727219
vt 0.617832 0.710896
vt 0.627689 0.710926
vt 0.608131 0.710926
vt 0.617726 0.701863
vt 0.627350 0.701888
vt 0.608235 0.701888
vt 0.608775 0.694078
vt 0.617555 0.694045
vt 0.626508 0.694078
vt 0.487189 0.410726
vt 0.479065 0.404806
vt 0.508989 0.397124
vt 0.513863 0.403879
vt 0.517774 0.412160
vt 0.494266 0.418193
vt 0.538898 0.389433
vt 0.540523 0.397023
vt 0.541267 0.406117
vt 0.541148 0.423028
vt 0.516852 0.429278
vt 0.492539 0.435517
vt 0.539598 0.448750
vt 0.512578 0.455700
vt 0.485540 0.462639
vt 0.535435 0.472013
vt 0.508122 0.479039
vt 0.480789 0.486053
vt 0.533893 0.487159
vt 0.505205 0.494539
vt 0.476495 0.501906
vt 0.539090 0.495229
vt 0.507619 0.500639
vt 0.476125 0.506036
vt 0.541267 0.502451
vt 0.513705 0.506857
vt 0.486122 0.511249
vt 0.538612 0.511113
vt 0.515436 0.511639
vt 0.302645 0.790793
vt 0.167261 0.617884
vt 0.166317 0.610344
vt 0.161391 0.602605
vt 0.166710 0.626994
vt 0.165774 0.641273
vt 0.164415 0.662757
vt 0.162941 0.687273
vt 0.162279 0.703618
vt 0.162054 0.712609
vt 0.161362 0.720362
vt 0.684278 0.350855
vt 0.673401 0.350507
vt 0.671146 0.315042
vt 0.680359 0.320164
vt 0.662656 0.352230
vt 0.662656 0.321290
vt 0.675657 0.385972
vt 0.666576 0.382921
vt 0.684278 0.381795
vt 0.293226 0.387805
vt 0.299044 0.403704
vt 0.282978 0.403704
vt 0.282030 0.387805
vt 0.050683 0.363707
vt 0.066593 0.367800
vt 0.066593 0.407283
vt 0.050683 0.393564
vt 0.415032 0.553462
vt 0.415032 0.583319
vt 0.403835 0.583319
vt 0.403835 0.553462
vt 0.446712 0.553462
vt 0.446712 0.583319
vt 0.242710 0.403704
vt 0.250349 0.387805
vt 0.302645 0.428703
vt 0.281405 0.428703
vt 0.233651 0.428703
vt 0.297768 0.461073
vt 0.280446 0.461073
vt 0.239739 0.461073
vt 0.299450 0.468252
vt 0.281369 0.468252
vt 0.238823 0.468252
vt 0.299446 0.485153
vt 0.281365 0.485153
vt 0.238820 0.485153
vt 0.281362 0.499641
vt 0.238816 0.499641
vt 0.299442 0.499641
vt 0.221818 0.499641
vt 0.221822 0.485153
vt 0.221826 0.468252
vt 0.237375 0.381869
vt 0.222889 0.380789
vt 0.222889 0.343491
vt 0.237375 0.343819
vt 0.254274 0.383001
vt 0.254274 0.344163
vt 0.223499 0.461073
vt 0.261469 0.381792
vt 0.261469 0.343772
vt 0.254274 0.310680
vt 0.261469 0.310994
vt 0.237375 0.311016
vt 0.254274 0.271849
vt 0.261469 0.272981
vt 0.237375 0.272974
vt 0.222889 0.311338
vt 0.222889 0.274048
vt 0.131505 0.508419
vt 0.131508 0.522909
vt 0.114510 0.522909
vt 0.114507 0.508419
vt 0.131502 0.491516
vt 0.114504 0.491516
vt 0.071964 0.522909
vt 0.071961 0.508419
vt 0.071958 0.491516
vt 0.129828 0.484339
vt 0.113588 0.484339
vt 0.072881 0.484339
vt 0.053877 0.491516
vt 0.055558 0.484339
vt 0.053881 0.508419
vt 0.123961 0.296427
vt 0.131140 0.295260
vt 0.131140 0.334102
vt 0.123961 0.334451
vt 0.148040 0.296388
vt 0.148040 0.334442
vt 0.162526 0.297466
vt 0.162526 0.334766
vt 0.053884 0.522909
vt 0.162526 0.366929
vt 0.148040 0.367254
vt 0.131140 0.367593
vt 0.162526 0.404237
vt 0.148040 0.405315
vt 0.131140 0.406443
vt 0.123961 0.367238
vt 0.123961 0.405270
vt 0.091594 0.368880
vt 0.091594 0.411094
vt 0.091594 0.332471
vt 0.091594 0.290226
vt 0.066593 0.294265
vt 0.066593 0.333755
vt 0.050683 0.308118
vt 0.050683 0.337968
vt 0.415032 0.609058
vt 0.415032 0.638908
vt 0.403835 0.638908
vt 0.403835 0.609058
vt 0.446712 0.609058
vt 0.446712 0.638908
vt 0.461635 0.609058
vt 0.461635 0.638908
vt 0.461635 0.583319
vt 0.102972 0.411094
vt 0.110617 0.426966
vt 0.070350 0.426966
vt 0.071292 0.411094
vt 0.117895 0.411094
vt 0.127752 0.426966
vt 0.334855 0.314247
vt 0.318852 0.310259
vt 0.318852 0.270780
vt 0.334855 0.284406
vt 0.137811 0.451957
vt 0.119678 0.451957
vt 0.293758 0.309204
vt 0.293758 0.266972
vt 0.318852 0.344294
vt 0.293758 0.345603
vt 0.334855 0.339979
vt 0.318852 0.383766
vt 0.293758 0.387805
vt 0.334855 0.369827
vt 0.215518 0.428703
vt 0.225576 0.403704
vt 0.461635 0.553462
vt 0.235426 0.387805
vt 0.071924 0.451957
vt 0.050683 0.451957
vt 0.054284 0.426966
vt 0.060095 0.411094
vt 0.169906 0.338127
vt 0.169906 0.363565
vt 0.169906 0.393074
vt 0.553723 0.282663
vt 0.552582 0.293828
vt 0.534935 0.293828
vt 0.535648 0.282662
vt 0.534935 0.323336
vt 0.552582 0.323337
vt 0.493441 0.323336
vt 0.493441 0.293827
vt 0.493117 0.282662
vt 0.476877 0.293827
vt 0.476125 0.282661
vt 0.476877 0.323336
vt 0.476877 0.348774
vt 0.493441 0.348774
vt 0.526677 0.779553
vt 0.526677 0.754122
vt 0.528477 0.754122
vt 0.528477 0.779553
vt 0.778990 0.784350
vt 0.778990 0.742841
vt 0.780790 0.742841
vt 0.780790 0.784350
vt 0.199862 0.950440
vt 0.199862 0.975879
vt 0.191420 0.975878
vt 0.191420 0.950440
vt 0.789127 0.734423
vt 0.789127 0.792768
vt 0.968509 0.873622
vt 0.968509 0.848184
vt 0.976903 0.848183
vt 0.976903 0.873622
vt 0.302612 0.739215
vt 0.302612 0.764654
vt 0.300812 0.764654
vt 0.300812 0.739215
vt 0.682452 0.571378
vt 0.707890 0.571378
vt 0.707890 0.629702
vt 0.682452 0.629703
vt 0.252162 0.829375
vt 0.252162 0.787867
vt 0.260498 0.779449
vt 0.260498 0.837793
vt 0.250362 0.829375
vt 0.250362 0.787867
vt 0.493441 0.378275
vt 0.534935 0.348775
vt 0.534935 0.378276
vt 0.552582 0.348775
vt 0.552582 0.378276
vt 0.169906 0.308626
vt 0.535648 0.389433
vt 0.553723 0.389433
vt 0.493117 0.389432
vt 0.476877 0.378275
vt 0.476125 0.389432
vt 0.215518 0.314675
vt 0.215518 0.285182
vt 0.215518 0.340106
vt 0.215518 0.369606
vt 0.971507 0.648891
vt 0.971507 0.635459
vt 0.974842 0.635450
vt 0.974842 0.648882
vt 0.978221 0.635458
vt 0.978221 0.648889
vt 0.909706 0.970216
vt 0.907968 0.967205
vt 0.910212 0.966602
vt 0.911350 0.968573
vt 0.912717 0.971954
vt 0.913320 0.969711
vt 0.981098 0.175985
vt 0.981098 0.162554
vt 0.983564 0.162551
vt 0.983564 0.175983
vt 0.916194 0.971954
vt 0.915596 0.969711
vt 0.977737 0.175986
vt 0.977737 0.162554
vt 0.974382 0.175985
vt 0.974382 0.162554
vt 0.919204 0.970216
vt 0.917567 0.968573
vt 0.920942 0.967205
vt 0.918704 0.966602
vt 0.920942 0.963729
vt 0.918704 0.964327
vt 0.502138 0.963496
vt 0.502138 0.976928
vt 0.499684 0.976929
vt 0.499684 0.963498
vt 0.505495 0.963495
vt 0.505495 0.976927
vt 0.919204 0.960718
vt 0.917567 0.962356
vt 0.914458 0.965464
vt 0.910212 0.964327
vt 0.911350 0.962356
vt 0.913320 0.961218
vt 0.915596 0.961218
vt 0.916194 0.958980
vt 0.912717 0.958980
vt 0.508854 0.963496
vt 0.508854 0.976928
vt 0.511316 0.963497
vt 0.511316 0.976929
vt 0.804163 0.616038
vt 0.804163 0.629470
vt 0.800807 0.629473
vt 0.800807 0.616041
vt 0.807523 0.616041
vt 0.807523 0.629473
vt 0.907968 0.963729
vt 0.909706 0.960718
vt 0.980737 0.635480
vt 0.980737 0.648911
s 1
usemtl M249_Gun
f 1/1/1 5/2/2 3/3/3
f 2/4/4 3/5/3 5/6/2 4/7/5
f 1/1/1 7/8/6 5/2/2
f 4/9/5 5/10/2 7/11/6 6/12/7
f 1/1/1 9/13/8 7/8/6
f 6/12/7 7/11/6 9/14/8 8/15/9
f 1/1/1 11/16/10 9/13/8
f 8/15/9 9/14/8 11/17/10 10/18/11
f 1/1/1 13/19/12 11/16/10
f 10/18/11 11/17/10 13/20/12 12/21/13
f 1/1/1 15/22/14 13/19/12
f 12/23/13 13/24/12 15/25/14 14/26/15
f 1/1/1 17/27/16 15/22/14
f 14/26/15 15/25/14 17/28/16 16/29/17
f 1/1/1 19/30/18 17/27/16
f 16/29/17 17/28/16 19/31/18 18/32/19
f 1/1/1 21/33/20 19/30/18
f 18/34/19 19/35/18 21/36/20 20/37/21
f 1/1/1 23/38/22 21/33/20
f 20/37/21 21/36/20 23/39/22 22/40/23
f 1/1/1 25/41/24 23/38/22
f 22/42/23 23/43/22 25/44/24 24/45/25
f 1/1/1 3/3/3 25/41/24
f 24/45/25 25/44/24 3/5/3 2/4/4
f 26/46/1 29/47/6 27/48/2
f 26/46/1 27/48/2 28/49/3
f 26/46/1 28/49/3 38/50/24
f 26/46/1 30/51/8 29/47/6
f 26/46/1 31/52/10 30/51/8
f 26/46/1 32/53/12 31/52/10
f 26/46/1 33/54/14 32/53/12
f 26/46/1 34/55/16 33/54/14
f 26/46/1 35/56/18 34/55/16
f 26/46/1 36/57/20 35/56/18
f 26/46/1 37/58/22 36/57/20
f 26/46/1 38/50/24 37/58/22
f 40/59/23 37/60/22 38/61/24 39/62/25
f 39/62/25 38/61/24 28/63/3 41/64/4
f 41/64/4 28/63/3 27/65/2 42/66/5
f 42/67/5 27/68/2 29/69/6 43/70/7
f 43/70/7 29/69/6 30/71/8 44/72/9
f 44/72/9 30/71/8 31/73/10 45/74/11
f 45/74/11 31/73/10 32/75/12 46/76/13
f 46/77/13 32/78/12 33/79/14 47/80/15
f 47/80/15 33/79/14 34/81/16 48/82/17
f 48/82/17 34/81/16 35/83/18 49/84/19
f 49/85/19 35/86/18 36/87/20 50/88/21
f 50/88/21 36/87/20 37/89/22 40/90/23
f 51/91/1 54/92/6 52/93/2
f 51/91/1 52/93/2 53/94/3
f 51/91/1 53/94/3 63/95/24
f 51/91/1 55/96/8 54/92/6
f 51/91/1 56/97/10 55/96/8
f 51/91/1 57/98/12 56/97/10
f 51/91/1 58/99/14 57/98/12
f 51/91/1 59/100/16 58/99/14
f 51/91/1 60/101/18 59/100/16
f 51/91/1 61/102/20 60/101/18
f 51/91/1 62/103/22 61/102/20
f 51/91/1 63/95/24 62/103/22
f 65/104/23 62/105/22 63/106/24 64/107/25
f 64/107/25 63/106/24 53/108/3 66/109/4
f 66/109/4 53/108/3 52/110/2 67/111/5
f 67/112/5 52/113/2 54/114/6 68/115/7
f 68/115/7 54/114/6 55/116/8 69/117/9
f 69/117/9 55/116/8 56/118/10 70/119/11
f 70/119/11 56/118/10 57/120/12 71/121/13
f 71/122/13 57/123/12 58/124/14 72/125/15
f 72/125/15 58/124/14 59/126/16 73/127/17
f 73/127/17 59/126/16 60/128/18 74/129/19
f 74/130/19 60/131/18 61/132/20 75/133/21
f 75/133/21 61/132/20 62/134/22 65/135/23
f 76/136/26 79/137/27 77/138/28
f 76/136/26 77/138/28 78/139/29
f 76/136/26 78/139/29 88/140/30
f 76/136/26 80/141/31 79/137/27
f 76/136/26 81/142/32 80/141/31
f 76/136/26 82/143/33 81/142/32
f 76/136/26 83/144/34 82/143/33
f 76/136/26 84/145/35 83/144/34
f 76/136/26 85/146/36 84/145/35
f 76/136/26 86/147/37 85/146/36
f 76/136/26 87/148/38 86/147/37
f 76/136/26 88/140/30 87/148/38
f 90/149/19 87/150/38 88/151/30 89/152/17
f 89/152/17 88/151/30 78/153/29 91/154/15
f 91/154/15 78/153/29 77/155/28 92/156/13
f 92/157/13 77/158/28 79/159/27 93/160/11
f 93/160/11 79/159/27 80/161/31 94/162/9
f 94/162/9 80/161/31 81/163/32 95/164/7
f 95/164/7 81/163/32 82/165/33 96/166/5
f 96/167/5 82/168/33 83/169/34 97/170/4
f 97/170/4 83/169/34 84/171/35 98/172/25
f 98/172/25 84/171/35 85/173/36 99/174/23
f 99/175/23 85/176/36 86/177/37 100/178/21
f 100/178/21 86/177/37 87/179/38 90/180/19
f 101/181/26 104/182/27 102/183/28
f 101/181/26 102/183/28 103/184/29
f 101/181/26 103/184/29 113/185/30
f 101/181/26 105/186/31 104/182/27
f 101/181/26 106/187/32 105/186/31
f 101/181/26 107/188/33 106/187/32
f 101/181/26 108/189/34 107/188/33
f 101/181/26 109/190/35 108/189/34
f 101/181/26 110/191/36 109/190/35
f 101/181/26 111/192/37 110/191/36
f 101/181/26 112/193/38 111/192/37
f 101/181/26 113/185/30 112/193/38
f 115/194/19 112/195/38 113/196/30 114/197/17
f 114/197/17 113/196/30 103/198/29 116/199/15
f 116/199/15 103/198/29 102/200/28 117/201/13
f 117/202/13 102/203/28 104/204/27 118/205/11
f 118/205/11 104/204/27 105/206/31 119/207/9
f 119/207/9 105/206/31 106/208/32 120/209/7
f 120/209/7 106/208/32 107/210/33 121/211/5
f 121/212/5 107/213/33 108/214/34 122/215/4
f 122/215/4 108/214/34 109/216/35 123/217/25
f 123/217/25 109/216/35 110/218/36 124/219/23
f 124/220/23 110/221/36 111/222/37 125/223/21
f 125/223/21 111/222/37 112/224/38 115/225/19
f 126/226/26 129/227/27 127/228/28
f 126/226/26 127/228/28 128/229/29
f 126/226/26 128/229/29 138/230/30
f 126/226/26 130/231/31 129/227/27
f 126/226/26 131/232/32 130/231/31
f 126/226/26 132/233/33 131/232/32
f 126/226/26 133/234/34 132/233/33
f 126/226/26 134/235/35 133/234/34
f 126/226/26 135/137/36 134/235/35
f 126/226/26 136/236/37 135/137/36
f 126/226/26 137/237/38 136/236/37
f 126/226/26 138/230/30 137/237/38
f 140/238/19 137/239/38 138/240/30 139/241/17
f 139/241/17 138/240/30 128/242/29 141/243/15
f 141/243/15 128/242/29 127/244/28 142/245/13
f 142/246/13 127/247/28 129/248/27 143/249/11
f 143/249/11 129/248/27 130/250/31 144/251/9
f 144/251/9 130/250/31 131/252/32 145/253/7
f 145/253/7 131/252/32 132/254/33 146/255/5
f 146/256/5 132/257/33 133/258/34 147/259/4
f 147/259/4 133/258/34 134/260/35 148/261/25
f 148/261/25 134/260/35 135/262/36 149/263/23
f 149/264/23 135/265/36 136/266/37 150/267/21
f 150/267/21 136/266/37 137/268/38 140/269/19
f 151/270/4 154/271/39 152/272/40
f 151/270/4 152/272/40 153/273/41
f 151/270/4 153/273/41 163/274/42
f 151/270/4 155/275/43 154/271/39
f 151/270/4 156/276/44 155/275/43
f 151/270/4 157/277/45 156/276/44
f 151/270/4 158/278/46 157/277/45
f 151/270/4 159/279/47 158/278/46
f 151/270/4 160/280/48 159/279/47
f 151/270/4 161/281/49 160/280/48
f 151/270/4 162/282/50 161/281/49
f 151/270/4 163/274/42 162/282/50
f 165/283/51 162/284/50 163/285/42 164/286/52
f 164/287/52 163/288/42 153/289/41 166/290/26
f 166/290/26 153/289/41 152/291/40 167/292/53
f 167/292/53 152/291/40 154/293/39 168/294/54
f 168/295/54 154/296/39 155/297/43 169/298/9
f 169/298/9 155/297/43 156/299/44 170/300/55
f 170/301/55 156/302/44 157/303/45 171/304/56
f 171/304/56 157/303/45 158/305/46 172/306/1
f 172/306/1 158/305/46 159/307/47 173/308/57
f 173/308/57 159/307/47 160/309/48 174/310/58
f 174/311/58 160/312/48 161/313/49 175/314/21
f 175/314/21 161/313/49 162/284/50 165/283/51
f 176/315/4 179/316/39 177/317/40
f 176/315/4 177/317/40 178/318/41
f 176/315/4 178/318/41 188/319/42
f 176/315/4 180/320/43 179/316/39
f 176/315/4 181/321/44 180/320/43
f 176/315/4 182/322/45 181/321/44
f 176/315/4 183/323/46 182/322/45
f 176/315/4 184/324/47 183/323/46
f 176/315/4 185/325/48 184/324/47
f 176/315/4 186/326/49 185/325/48
f 176/315/4 187/327/50 186/326/49
f 176/315/4 188/319/42 187/327/50
f 190/328/51 187/329/50 188/330/42 189/331/52
f 189/332/52 188/333/42 178/334/41 191/335/26
f 191/335/26 178/334/41 177/336/40 192/337/53
f 192/337/53 177/336/40 179/338/39 193/339/54
f 193/340/54 179/341/39 180/342/43 194/343/9
f 194/343/9 180/342/43 181/344/44 195/345/55
f 195/346/55 181/347/44 182/348/45 196/349/56
f 196/349/56 182/348/45 183/350/46 197/351/1
f 197/351/1 183/350/46 184/352/47 198/353/57
f 198/353/57 184/352/47 185/354/48 199/355/58
f 199/356/58 185/357/48 186/358/49 200/359/21
f 200/359/21 186/358/49 187/329/50 190/328/51
f 201/360/15 204/361/59 202/362/60
f 201/360/15 202/362/60 203/363/61
f 201/360/15 203/363/61 213/364/62
f 201/360/15 205/365/63 204/361/59
f 201/360/15 206/366/64 205/365/63
f 201/360/15 207/367/65 206/366/64
f 201/360/15 208/368/66 207/367/65
f 201/360/15 209/369/67 208/368/66
f 201/360/15 210/370/68 209/369/67
f 201/360/15 211/371/69 210/370/68
f 201/360/15 212/372/70 211/371/69
f 201/360/15 213/364/62 212/372/70
f 215/373/58 212/374/70 213/375/62 214/376/57
f 214/376/57 213/375/62 203/377/61 216/378/1
f 216/378/1 203/377/61 202/379/60 217/380/56
f 217/380/56 202/379/60 204/381/59 218/382/55
f 218/383/55 204/384/59 205/385/63 219/386/9
f 219/386/9 205/385/63 206/387/64 220/388/54
f 220/389/54 206/390/64 207/391/65 221/392/53
f 221/392/53 207/391/65 208/393/66 222/394/26
f 222/394/26 208/393/66 209/395/67 223/396/52
f 223/397/52 209/398/67 210/399/68 224/400/51
f 224/400/51 210/399/68 211/401/69 225/402/21
f 225/402/21 211/401/69 212/403/70 215/404/58
f 226/405/15 229/406/59 227/407/60
f 226/405/15 227/407/60 228/408/61
f 226/405/15 228/408/61 238/409/62
f 226/405/15 230/410/63 229/406/59
f 226/405/15 231/411/64 230/410/63
f 226/405/15 232/412/65 231/411/64
f 226/405/15 233/413/66 232/412/65
f 226/405/15 234/414/67 233/413/66
f 226/405/15 235/415/68 234/414/67
f 226/405/15 236/416/69 235/415/68
f 226/405/15 237/417/70 236/416/69
f 226/405/15 238/409/62 237/417/70
f 240/418/58 237/419/70 238/420/62 239/421/57
f 239/421/57 238/420/62 228/422/61 241/423/1
f 241/423/1 228/422/61 227/424/60 242/425/56
f 242/425/56 227/424/60 229/426/59 243/427/55
f 243/428/55 229/429/59 230/430/63 244/431/9
f 244/431/9 230/430/63 231/432/64 245/433/54
f 245/434/54 231/435/64 232/436/65 246/437/53
f 246/437/53 232/436/65 233/438/66 247/439/26
f 247/439/26 233/438/66 234/440/67 248/441/52
f 248/442/52 234/443/67 235/444/68 249/445/51
f 249/445/51 235/444/68 236/446/69 250/447/21
f 250/447/21 236/446/69 237/448/70 240/449/58
f 252/450/71 256/451/72 254/452/73 251/453/74
f 253/454/75 258/455/76 252/456/71 251/457/74
f 251/458/74 254/459/73 255/460/77 253/461/75
f 257/462/78 255/463/77 254/464/73 256/465/72
f 258/466/76 257/458/78 256/467/72 252/468/71
f 253/469/75 255/470/77 257/471/78 258/472/76
f 260/473/71 264/474/72 262/475/73 259/476/74
f 261/477/75 266/478/76 260/479/71 259/480/74
f 259/481/74 262/482/73 263/483/77 261/484/75
f 265/485/78 263/486/77 262/487/73 264/488/72
f 266/489/76 265/490/78 264/491/72 260/492/71
f 261/493/75 263/494/77 265/495/78 266/496/76
f 270/497/79 306/498/80 268/499/81 267/500/82
f 267/501/82 268/502/81 305/503/83 269/504/84
f 267/501/82 269/504/84 274/505/85 271/506/86
f 270/497/79 267/500/82 271/507/86 272/508/87
f 272/508/87 271/507/86 273/509/88 302/510/89
f 271/506/86 274/505/85 276/511/90 273/512/88
f 274/513/85 275/514/91 277/515/92 276/516/90
f 269/517/84 303/518/93 275/514/91 274/513/85
f 276/519/90 277/520/92 279/521/94 278/522/95
f 273/512/88 276/511/90 278/523/95 280/524/96
f 278/522/95 279/521/94 283/525/97 281/526/98
f 280/524/96 278/523/95 281/527/98 282/528/99
f 282/528/99 281/527/98 284/529/100 286/530/101
f 281/526/98 283/525/97 285/531/102 284/532/100
f 284/532/100 285/531/102 289/533/103 287/534/104
f 286/530/101 284/529/100 287/535/104 288/536/105
f 288/536/105 287/535/104 290/537/106 291/538/107
f 287/539/104 289/540/103 292/541/108 290/542/106
f 291/538/107 290/537/106 293/543/109 295/544/110
f 290/542/106 292/541/108 294/545/111 293/546/109
f 297/547/112 291/548/107 295/549/110 296/550/113
f 292/551/108 297/552/112 296/553/113 294/554/111
f 298/555/114 288/556/105 291/548/107 297/547/112
f 289/557/103 298/558/114 297/552/112 292/551/108
f 299/559/115 286/560/101 288/561/105 298/562/114
f 285/563/102 299/564/115 298/558/114 289/557/103
f 300/565/116 282/566/99 286/560/101 299/559/115
f 283/567/97 300/568/116 299/564/115 285/563/102
f 301/569/117 280/570/96 282/566/99 300/565/116
f 279/571/94 301/572/117 300/568/116 283/567/97
f 302/573/89 273/574/88 280/570/96 301/569/117
f 277/575/92 302/576/89 301/572/117 279/571/94
f 275/577/91 272/578/87 302/576/89 277/575/92
f 303/579/93 270/580/79 272/578/87 275/577/91
f 304/581/118 306/582/80 270/580/79 303/579/93
f 269/517/84 305/583/83 304/584/118 303/518/93
f 307/585/119 308/586/120 314/587/121 311/588/122
f 330/589/123 308/586/120 307/585/119 309/590/124
f 329/591/125 309/592/124 307/593/119 310/594/126
f 310/595/126 307/596/119 311/597/122 312/598/127
f 312/598/127 311/597/122 313/599/128 326/600/129
f 311/588/122 314/587/121 316/601/130 313/602/128
f 308/603/120 327/604/131 315/605/132 314/606/121
f 314/606/121 315/605/132 317/607/133 316/608/130
f 316/609/130 317/610/133 319/611/134 318/612/135
f 313/602/128 316/601/130 318/613/135 321/614/136
f 318/612/135 319/611/134 325/615/137 320/616/138
f 321/614/136 318/613/135 320/617/138 323/618/139
f 326/600/129 313/599/128 321/619/136 322/620/140
f 322/621/140 321/622/136 323/623/139 324/624/141
f 320/625/138 325/626/137 324/627/141 323/628/139
f 319/629/134 322/630/140 324/631/141 325/632/137
f 317/633/133 326/634/129 322/630/140 319/629/134
f 315/635/132 312/636/127 326/634/129 317/633/133
f 327/637/131 310/638/126 312/636/127 315/635/132
f 328/639/142 329/640/125 310/638/126 327/637/131
f 330/641/123 328/642/142 327/604/131 308/603/120
f 331/643/143 332/644/144 336/645/145 335/646/146
f 333/647/147 410/648/148 332/649/144 331/650/143
f 333/647/147 331/650/143 334/651/149 408/652/150
f 331/643/143 335/646/146 338/653/151 334/654/149
f 335/646/146 336/645/145 412/655/152 337/656/153
f 335/646/146 337/656/153 339/657/154 338/653/151
f 338/653/151 339/657/154 341/658/155 340/659/156
f 334/654/149 338/653/151 340/659/156 343/660/157
f 340/659/156 341/658/155 381/661/158 342/662/159
f 343/660/157 340/659/156 342/662/159 345/663/160
f 408/652/150 334/651/149 343/664/157 344/665/161
f 344/665/161 343/664/157 345/666/160 346/667/162
f 346/667/162 345/666/160 347/668/163 348/669/164
f 345/663/160 342/662/159 350/670/165 347/671/163
f 348/669/164 347/668/163 349/672/166 407/673/167
f 347/671/163 350/670/165 352/674/168 349/675/166
f 342/662/159 381/661/158 351/676/169 350/670/165
f 350/670/165 351/676/169 353/677/170 352/674/168
f 352/674/168 353/677/170 355/678/171 354/679/172
f 349/675/166 352/674/168 354/679/172 357/680/173
f 354/679/172 355/678/171 372/681/174 356/682/175
f 357/680/173 354/679/172 356/682/175 359/683/176
f 407/673/167 349/672/166 357/684/173 358/685/177
f 358/685/177 357/684/173 359/686/176 360/687/178
f 360/687/178 359/686/176 361/688/179 362/689/180
f 359/683/176 356/682/175 363/690/181 361/691/179
f 363/692/181 365/693/182 362/694/180 361/695/179
f 364/696/183 367/697/184 365/693/182 363/692/181
f 356/698/175 372/699/174 364/696/183 363/692/181
f 367/697/184 368/700/185 366/701/186 365/693/182
f 365/693/182 366/701/186 406/702/187 362/694/180
f 369/703/188 370/704/189 368/700/185 367/697/184
f 372/699/174 369/703/188 367/697/184 364/696/183
f 371/705/190 373/706/191 370/704/189 369/703/188
f 355/707/171 371/705/190 369/703/188 372/699/174
f 374/708/192 375/709/193 373/710/191 371/711/190
f 353/712/170 374/708/192 371/711/190 355/713/171
f 376/714/194 377/715/195 375/709/193 374/708/192
f 351/716/169 376/714/194 374/708/192 353/712/170
f 378/717/196 379/718/197 377/715/195 376/714/194
f 381/719/158 378/717/196 376/714/194 351/716/169
f 380/720/198 382/721/199 379/718/197 378/717/196
f 341/722/155 380/720/198 378/717/196 381/719/158
f 383/723/200 384/724/201 382/721/199 380/720/198
f 339/725/154 383/723/200 380/720/198 341/722/155
f 385/726/202 387/727/203 384/724/201 383/723/200
f 337/728/153 385/726/202 383/723/200 339/725/154
f 337/728/153 412/729/152 386/730/204 385/726/202
f 385/726/202 386/730/204 388/731/205 387/727/203
f 387/732/203 388/733/205 390/734/206 389/735/207
f 387/732/203 389/735/207 392/736/208 384/737/201
f 389/735/207 390/734/206 409/738/209 391/739/210
f 389/735/207 391/739/210 393/740/211 392/736/208
f 392/736/208 393/740/211 395/741/212 394/742/213
f 384/737/201 392/736/208 394/742/213 382/743/199
f 394/742/213 395/741/212 397/744/214 396/745/215
f 382/743/199 394/742/213 396/745/215 379/746/197
f 396/745/215 397/744/214 399/747/216 398/748/217
f 379/746/197 396/745/215 398/748/217 377/749/195
f 398/748/217 399/747/216 401/750/218 400/751/219
f 377/749/195 398/748/217 400/751/219 375/752/193
f 400/751/219 401/750/218 403/753/220 402/754/221
f 375/752/193 400/751/219 402/754/221 373/755/191
f 402/754/221 403/753/220 405/756/222 404/757/223
f 373/755/191 402/754/221 404/757/223 370/758/189
f 404/757/223 405/756/222 406/759/187 366/760/186
f 370/704/189 404/761/223 366/701/186 368/700/185
f 403/762/220 358/685/177 360/687/178 405/763/222
f 405/763/222 360/687/178 362/689/180 406/764/187
f 401/765/218 407/673/167 358/685/177 403/762/220
f 399/766/216 348/669/164 407/673/167 401/765/218
f 397/767/214 346/667/162 348/669/164 399/766/216
f 395/768/212 344/665/161 346/667/162 397/767/214
f 393/769/211 408/652/150 344/665/161 395/768/212
f 391/770/210 333/647/147 408/652/150 393/769/211
f 391/770/210 409/771/209 410/648/148 333/647/147
f 390/772/206 411/773/21 410/774/148 409/775/209
f 411/773/21 336/776/145 332/777/144 410/774/148
f 386/778/204 412/779/152 336/776/145 411/773/21
f 388/780/205 386/778/204 411/773/21 390/772/206
f 413/781/224 414/782/225 419/783/226 416/784/227
f 415/785/228 474/786/229 414/787/225 413/788/224
f 416/789/227 417/790/9 415/791/228 413/792/224
f 418/793/227 480/794/9 417/790/9 416/789/227
f 416/784/227 419/783/226 420/795/226 418/796/227
f 414/782/225 422/797/230 421/798/231 419/783/226
f 419/783/226 421/798/231 423/799/231 420/795/226
f 422/797/230 425/800/232 424/801/233 421/798/231
f 421/798/231 424/801/233 426/802/233 423/799/231
f 425/800/232 428/803/234 427/804/235 424/801/233
f 424/801/233 427/804/235 429/805/235 426/802/233
f 428/803/234 432/806/236 430/807/237 427/804/235
f 427/804/235 430/807/237 433/808/237 429/805/235
f 430/807/237 431/809/238 434/810/238 433/808/237
f 432/806/236 499/811/239 431/809/238 430/807/237
f 433/808/237 434/810/238 436/812/240 435/813/241
f 429/805/235 433/808/237 435/813/241 438/814/242
f 435/815/241 436/816/240 524/817/243 437/818/1
f 438/819/242 435/815/241 437/818/1 440/820/244
f 426/802/233 429/805/235 438/814/242 439/821/245
f 439/822/245 438/819/242 440/820/244 441/823/246
f 441/823/246 440/820/244 442/824/244 443/825/246
f 440/820/244 437/818/1 445/826/1 442/824/244
f 443/825/246 442/824/244 444/827/247 494/828/248
f 442/824/244 445/826/1 447/829/249 444/827/247
f 437/818/1 524/817/243 446/830/243 445/826/1
f 445/826/1 446/830/243 448/831/250 447/829/249
f 447/832/249 448/833/250 450/834/251 449/835/252
f 444/836/247 447/832/249 449/835/252 452/837/253
f 449/835/252 450/834/251 520/838/251 451/839/252
f 452/837/253 449/835/252 451/839/252 454/840/253
f 494/841/248 444/836/247 452/837/253 453/842/254
f 453/842/254 452/837/253 454/840/253 455/843/254
f 455/843/254 454/840/253 456/844/255 457/845/256
f 454/840/253 451/839/252 459/846/257 456/844/255
f 457/847/256 456/848/255 458/849/258 468/850/259
f 456/848/255 459/851/257 461/852/26 458/849/258
f 459/851/257 460/853/260 462/854/261 461/852/26
f 451/839/252 520/838/251 460/855/260 459/846/257
f 461/852/26 462/854/261 464/856/261 463/857/26
f 458/849/258 461/852/26 463/857/26 465/858/258
f 463/857/26 464/856/261 499/859/239 432/860/236
f 465/858/258 463/857/26 432/860/236 428/861/234
f 468/850/259 458/849/258 465/858/258 466/862/259
f 466/862/259 465/858/258 428/861/234 425/863/232
f 467/864/262 466/862/259 425/863/232 422/865/230
f 469/866/262 468/850/259 466/862/259 467/864/262
f 470/867/263 457/847/256 468/850/259 469/866/262
f 472/868/264 470/867/263 469/866/262 471/869/229
f 471/869/229 469/866/262 467/864/262 474/786/229
f 475/870/265 472/868/264 471/869/229 473/871/228
f 473/871/228 471/869/229 474/786/229 415/785/228
f 474/786/229 467/864/262 422/865/230 414/787/225
f 476/872/9 477/873/266 475/874/265 473/875/228
f 417/790/9 476/872/9 473/875/228 415/791/228
f 478/876/9 481/877/266 477/873/266 476/872/9
f 480/794/9 478/876/9 476/872/9 417/790/9
f 479/878/267 483/879/268 481/877/266 478/876/9
f 490/880/267 479/878/267 478/876/9 480/794/9
f 481/881/266 482/882/269 497/883/269 477/884/266
f 483/885/268 484/886/270 482/882/269 481/881/266
f 479/887/267 486/888/271 484/889/270 483/890/268
f 484/886/270 485/891/272 495/892/273 482/882/269
f 486/888/271 487/893/274 485/894/272 484/889/270
f 488/895/271 491/896/274 487/893/274 486/888/271
f 490/897/267 488/895/271 486/888/271 479/887/267
f 489/898/275 492/899/276 491/896/274 488/895/271
f 493/900/277 489/898/275 488/895/271 490/897/267
f 492/899/276 439/822/245 441/823/246 491/896/274
f 491/896/274 441/823/246 443/825/246 487/893/274
f 423/799/231 426/802/233 439/821/245 492/901/276
f 420/795/226 423/799/231 492/901/276 489/902/275
f 493/903/277 490/880/267 480/794/9 418/793/227
f 418/796/227 420/795/226 489/902/275 493/904/277
f 487/893/274 443/825/246 494/828/248 485/894/272
f 485/891/272 494/841/248 453/842/254 495/892/273
f 482/882/269 495/892/273 496/905/273 497/883/269
f 495/892/273 453/842/254 455/843/254 496/905/273
f 496/905/273 455/843/254 457/845/256 470/906/263
f 497/883/269 496/905/273 470/906/263 472/907/264
f 477/884/266 497/883/269 472/907/264 475/908/265
f 462/854/261 518/909/278 498/910/278 464/856/261
f 464/856/261 498/910/278 500/911/279 499/859/239
f 499/912/239 500/913/279 501/914/280 431/915/238
f 502/916/281 501/914/280 500/913/279 498/917/278
f 505/918/282 503/919/280 501/914/280 502/916/281
f 431/915/238 501/914/280 503/919/280 434/920/238
f 434/920/238 503/919/280 504/921/283 436/922/240
f 506/923/284 504/921/283 503/919/280 505/918/282
f 523/924/284 506/923/284 505/918/282 507/925/285
f 507/926/285 505/927/282 508/928/286 509/929/287
f 505/930/282 502/931/281 511/932/288 508/933/286
f 509/934/287 508/935/286 510/936/289 515/937/290
f 508/933/286 511/932/288 513/938/291 510/939/289
f 511/940/288 512/941/292 514/942/293 513/943/291
f 502/944/281 516/945/294 512/946/292 511/947/288
f 515/948/290 510/949/289 513/950/291 514/951/293
f 512/952/292 509/953/287 515/954/290 514/955/293
f 516/956/294 507/957/285 509/953/287 512/952/292
f 521/958/295 507/925/285 516/959/294 517/960/295
f 517/960/295 516/959/294 518/961/278 519/962/296
f 516/959/294 502/916/281 498/917/278 518/961/278
f 460/853/260 519/963/296 518/909/278 462/854/261
f 520/964/251 517/960/295 519/962/296 460/965/260
f 450/966/251 521/958/295 517/960/295 520/964/251
f 522/967/297 523/924/284 507/925/285 521/958/295
f 448/968/250 522/967/297 521/958/295 450/966/251
f 446/830/243 523/969/284 522/970/297 448/831/250
f 524/817/243 506/971/284 523/969/284 446/830/243
f 436/816/240 504/972/283 506/971/284 524/817/243
f 529/973/298 532/974/299 526/975/1 525/976/300
f 525/976/300 526/975/1 561/977/301 527/978/302
f 525/979/300 527/980/302 546/981/303 528/982/304
f 529/983/298 525/979/300 528/982/304 531/984/305
f 530/985/306 533/986/307 532/987/299 529/988/298
f 530/989/306 529/983/298 531/984/305 551/990/308
f 536/991/309 534/992/4 533/986/307 530/985/306
f 538/993/310 535/994/311 534/992/4 536/991/309
f 536/995/309 530/989/306 551/990/308 537/996/312
f 538/997/310 536/995/309 537/996/312 539/998/313
f 540/999/314 538/997/310 539/998/313 543/1000/315
f 540/1001/314 541/1002/316 535/1003/311 538/1004/310
f 542/1005/317 556/1006/26 541/1002/316 540/1001/314
f 542/1007/317 540/999/314 543/1000/315 544/1008/318
f 545/1009/9 543/1000/315 539/998/313
f 545/1009/9 544/1008/318 543/1000/315
f 545/1009/9 531/984/305 528/982/304
f 545/1009/9 528/982/304 546/981/303
f 545/1009/9 546/981/303 547/1010/319
f 545/1009/9 547/1010/319 548/1011/320
f 545/1009/9 548/1011/320 549/1012/321
f 545/1009/9 549/1012/321 550/1013/322
f 545/1009/9 550/1013/322 544/1008/318
f 545/1009/9 539/998/313 537/996/312
f 545/1009/9 537/996/312 551/990/308
f 545/1009/9 551/990/308 531/984/305
f 552/1014/323 542/1007/317 544/1008/318 550/1013/322
f 553/1015/324 552/1014/323 550/1013/322 549/1012/321
f 552/1016/323 554/1017/325 556/1006/26 542/1005/317
f 553/1018/324 555/1019/326 554/1017/325 552/1016/323
f 559/1020/327 557/1021/15 555/1022/326 553/1023/324
f 560/1024/328 558/1025/329 557/1021/15 559/1020/327
f 560/1026/328 559/1027/327 548/1011/320 547/1010/319
f 559/1027/327 553/1015/324 549/1012/321 548/1011/320
f 527/978/302 561/977/301 558/1028/329 560/1029/328
f 527/980/302 560/1026/328 547/1010/319 546/981/303
