# Blender 4.0.2
# www.blender.org
mtllib M249_part_13.mtl
o M249_part_13
v 0.006782 0.135072 0.471932
v 0.005397 0.132675 0.474045
v 0.000000 0.136890 0.471932
v 0.011746 0.130108 0.471932
v 0.006782 0.135072 0.459406
v 0.000000 0.136890 0.459406
v 0.011746 0.130108 0.459406
v 0.005376 0.132637 0.453926
v 0.009311 0.128702 0.453926
v 0.000000 0.134078 0.453926
v 0.005376 0.132637 0.427700
v 0.009311 0.128702 0.427700
v 0.000000 0.134078 0.427700
v 0.006659 0.134861 0.422690
v 0.011534 0.129986 0.422690
v 0.000000 0.136645 0.422690
v 0.006659 0.134861 0.419950
v 0.011534 0.129986 0.419950
v 0.000000 0.136645 0.419950
v 0.005597 0.133021 0.418776
v 0.009695 0.128924 0.418776
v 0.000000 0.134521 0.418776
v 0.005597 0.133021 0.417993
v 0.009695 0.128924 0.417993
v 0.000000 0.134521 0.417993
v 0.006797 0.135100 0.416427
v 0.011773 0.130124 0.416427
v 0.000000 0.136921 0.416427
v 0.006797 0.135100 0.412904
v 0.000000 0.136921 0.412904
v 0.011773 0.130124 0.412904
v 0.004868 0.131758 0.410477
v 0.000000 0.133063 0.410477
v 0.008432 0.128195 0.410477
v 0.004868 0.131758 0.405858
v 0.000000 0.133063 0.405858
v 0.008432 0.128195 0.405858
v 0.006658 0.134858 0.398813
v 0.000000 0.136642 0.398813
v 0.011531 0.129984 0.398813
v 0.006658 0.134858 0.392969
v 0.000000 0.136642 0.392969
v 0.011531 0.129984 0.392969
v 0.013315 0.123327 0.392969
v 0.013315 0.123327 0.398813
v 0.011531 0.116669 0.392969
v 0.011531 0.116669 0.398813
v 0.006658 0.111795 0.392969
v 0.000000 0.110011 0.392969
v 0.006658 0.111795 0.398813
v 0.004868 0.114895 0.405858
v 0.000000 0.110011 0.398813
v 0.000000 0.113590 0.405858
v -0.006658 0.111795 0.398813
v -0.011531 0.116669 0.398813
v -0.004868 0.114895 0.405858
v -0.006658 0.111795 0.392969
v -0.011531 0.116669 0.392969
v -0.013315 0.123326 0.392969
v -0.011531 0.129984 0.392969
v -0.013315 0.123326 0.398813
v -0.011531 0.129984 0.398813
v -0.009736 0.123327 0.405858
v -0.008432 0.128195 0.405858
v -0.009736 0.123327 0.410477
v -0.008432 0.118458 0.405858
v -0.008432 0.118458 0.410477
v -0.011773 0.116529 0.412904
v -0.004868 0.114895 0.410477
v -0.006797 0.111553 0.412904
v 0.000000 0.113590 0.410477
v 0.000000 0.109732 0.412904
v 0.004868 0.114895 0.410477
v 0.006797 0.111553 0.412904
v 0.008432 0.118458 0.410477
v 0.011773 0.116529 0.412904
v 0.009736 0.123327 0.410477
v 0.008432 0.118458 0.405858
v 0.009736 0.123327 0.405858
v 0.013595 0.123327 0.412904
v 0.013595 0.123327 0.416427
v 0.011195 0.123327 0.417993
v 0.011773 0.116529 0.416427
v 0.006797 0.111553 0.416427
v 0.009695 0.117729 0.417993
v 0.005597 0.113632 0.417993
v 0.009695 0.117729 0.418776
v 0.005597 0.113632 0.418776
v 0.011534 0.116667 0.419950
v 0.011195 0.123327 0.418776
v 0.013319 0.123327 0.419950
v 0.013319 0.123327 0.422690
v 0.011534 0.116667 0.422690
v 0.010751 0.123327 0.427700
v 0.009311 0.117951 0.427700
v 0.010751 0.123327 0.453926
v 0.009311 0.117951 0.453926
v 0.013563 0.123327 0.459406
v 0.011746 0.116545 0.459406
v 0.013563 0.123327 0.471932
v 0.011746 0.116545 0.471932
v 0.010795 0.123327 0.474045
v 0.014124 0.123327 0.477020
v 0.009348 0.128724 0.474045
v 0.009348 0.117929 0.474045
v 0.005397 0.113978 0.474045
v 0.012232 0.116264 0.477020
v 0.007062 0.111095 0.477020
v 0.012232 0.116264 0.516307
v 0.014124 0.123327 0.516307
v 0.007062 0.111095 0.516307
v 0.009000 0.118130 0.516307
v 0.010392 0.123327 0.516307
v 0.005196 0.114327 0.516307
v 0.009000 0.118130 0.476590
v 0.005196 0.114327 0.476590
v 0.010392 0.123327 0.476590
v 0.000000 0.123327 0.476590
v 0.005196 0.132326 0.476590
v 0.000000 0.133719 0.476590
v 0.009000 0.128523 0.476590
v 0.000000 0.112934 0.476590
v -0.005196 0.114327 0.476590
v -0.009000 0.118130 0.476590
v -0.010392 0.123327 0.476590
v -0.009000 0.128523 0.476590
v -0.005196 0.132326 0.476590
v -0.005196 0.132326 0.516307
v -0.009000 0.128523 0.516307
v -0.007062 0.135558 0.516307
v 0.000000 0.133719 0.516307
v 0.000000 0.137451 0.516307
v 0.005196 0.132326 0.516307
v 0.007062 0.135558 0.516307
v 0.009000 0.128523 0.516307
v 0.012232 0.130389 0.516307
v 0.012232 0.130389 0.477020
v 0.007062 0.135558 0.477020
v 0.000000 0.137451 0.477020
v -0.007062 0.135558 0.477020
v 0.000000 0.134121 0.474045
v -0.005397 0.132675 0.474045
v -0.009348 0.128724 0.474045
v -0.006782 0.135072 0.471932
v -0.011746 0.130108 0.471932
v -0.006782 0.135072 0.459406
v -0.011746 0.130108 0.459406
v -0.005376 0.132637 0.453926
v -0.009311 0.128702 0.453926
v -0.005376 0.132637 0.427700
v -0.009311 0.128702 0.427700
v -0.006659 0.134861 0.422690
v -0.011534 0.129986 0.422690
v -0.006659 0.134861 0.419950
v -0.011534 0.129986 0.419950
v -0.005597 0.133021 0.418776
v -0.009695 0.128924 0.418776
v -0.005597 0.133021 0.417993
v -0.009695 0.128924 0.417993
v -0.006797 0.135100 0.416427
v -0.011773 0.130124 0.416427
v -0.006797 0.135100 0.412904
v -0.011773 0.130124 0.412904
v -0.004868 0.131758 0.410477
v -0.008432 0.128195 0.410477
v -0.004868 0.131758 0.405858
v -0.006658 0.134858 0.398813
v -0.006658 0.134858 0.392969
v -0.013595 0.123326 0.412904
v -0.013595 0.123326 0.416427
v -0.011195 0.123327 0.417993
v -0.011773 0.116529 0.416427
v -0.009695 0.117729 0.417993
v -0.006797 0.111553 0.416427
v -0.005597 0.113632 0.417993
v 0.000000 0.109732 0.416427
v 0.000000 0.112132 0.417993
v 0.000000 0.112132 0.418776
v -0.005597 0.113632 0.418776
v 0.000000 0.110008 0.419950
v -0.006659 0.111792 0.419950
v 0.000000 0.110008 0.422690
v 0.006659 0.111792 0.419950
v 0.006659 0.111792 0.422690
v 0.005376 0.114016 0.427700
v 0.005376 0.114016 0.453926
v 0.000000 0.112575 0.427700
v -0.005376 0.114016 0.427700
v 0.000000 0.112575 0.453926
v 0.000000 0.109763 0.459406
v -0.005376 0.114016 0.453926
v -0.006782 0.111581 0.459406
v -0.009311 0.117951 0.453926
v -0.010751 0.123327 0.453926
v -0.011746 0.116545 0.459406
v -0.009311 0.117951 0.427700
v -0.010751 0.123327 0.427700
v -0.011534 0.116667 0.422690
v -0.013319 0.123327 0.422690
v -0.006659 0.111792 0.422690
v -0.011534 0.116667 0.419950
v -0.013319 0.123326 0.419950
v -0.009695 0.117729 0.418776
v -0.011195 0.123327 0.418776
v -0.013563 0.123327 0.459406
v -0.011746 0.116545 0.471932
v -0.013563 0.123327 0.471932
v -0.009348 0.117929 0.474045
v -0.006782 0.111581 0.471932
v -0.005397 0.113978 0.474045
v 0.000000 0.109763 0.471932
v 0.000000 0.112532 0.474045
v 0.006782 0.111581 0.471932
v 0.006782 0.111581 0.459406
v 0.000000 0.109202 0.477020
v -0.007062 0.111095 0.477020
v 0.000000 0.109202 0.516307
v -0.007062 0.111095 0.516307
v 0.000000 0.112934 0.516307
v -0.005196 0.114327 0.516307
v -0.009000 0.118130 0.516307
v -0.012232 0.116264 0.516307
v -0.010392 0.123327 0.516307
v -0.014124 0.123327 0.516307
v -0.014124 0.123327 0.477020
v -0.012232 0.130389 0.516307
v -0.012232 0.130389 0.477020
v -0.012232 0.116264 0.477020
v -0.010795 0.123327 0.474045
vn 0.4995 0.8652 0.0446
vn 0.8652 0.4995 0.0446
vn 0.7873 0.4545 0.4167
vn 0.4545 0.7873 0.4167
vn -0.0000 0.9990 0.0446
vn -0.0000 0.9091 0.4167
vn 0.4870 0.8435 -0.2264
vn -0.0000 0.9740 -0.2264
vn 0.8435 0.4870 -0.2264
vn 0.4849 0.8398 -0.2442
vn -0.0000 0.9697 -0.2442
vn 0.8398 0.4849 -0.2442
vn 0.8399 0.4849 0.2439
vn 0.4849 0.8399 0.2439
vn -0.0000 0.9698 0.2439
vn 0.8436 0.4870 0.2262
vn 0.4870 0.8436 0.2262
vn -0.0000 0.9741 0.2262
vn 0.7623 0.4401 -0.4745
vn 0.4401 0.7623 -0.4745
vn -0.0000 0.8803 -0.4745
vn 0.7241 0.4181 -0.5485
vn 0.4181 0.7241 -0.5485
vn -0.0000 0.8362 -0.5485
vn 0.7437 0.4294 0.5125
vn 0.4294 0.7437 0.5125
vn -0.0000 0.8587 0.5124
vn 0.7751 0.4475 0.4461
vn 0.4475 0.7751 0.4461
vn -0.0000 0.8950 0.4461
vn 0.7723 0.4459 -0.4526
vn 0.4459 0.7723 -0.4526
vn -0.0000 0.8917 -0.4526
vn 0.4269 0.7394 -0.5207
vn -0.0000 0.8537 -0.5207
vn 0.7394 0.4269 -0.5207
vn 0.4851 0.8403 0.2420
vn -0.0000 0.9703 0.2420
vn 0.8403 0.4851 0.2420
vn 0.4872 0.8439 0.2246
vn -0.0000 0.9745 0.2246
vn 0.8439 0.4872 0.2246
vn 0.5000 0.8660 -0.0000
vn -0.0000 1.0000 -0.0000
vn 0.8660 0.5000 -0.0000
vn 0.9745 -0.0000 0.2246
vn 1.0000 -0.0000 -0.0000
vn 0.8439 -0.4872 0.2246
vn 0.8660 -0.5000 -0.0000
vn 0.4872 -0.8439 0.2246
vn 0.5000 -0.8660 -0.0000
vn -0.0000 -0.9745 0.2246
vn -0.0000 -1.0000 -0.0000
vn 0.4851 -0.8403 0.2420
vn -0.0000 -0.9703 0.2420
vn 0.8403 -0.4851 0.2420
vn -0.4851 -0.8403 0.2420
vn -0.4872 -0.8439 0.2246
vn -0.5000 -0.8660 -0.0000
vn -0.8439 -0.4872 0.2246
vn -0.8660 -0.5000 -0.0000
vn -0.8403 -0.4851 0.2420
vn -0.9745 -0.0000 0.2246
vn -1.0000 -0.0000 -0.0000
vn -0.8439 0.4872 0.2246
vn -0.8660 0.5000 -0.0000
vn -0.9703 -0.0000 0.2420
vn -0.8403 0.4851 0.2420
vn -0.8537 -0.0000 -0.5207
vn -0.7394 0.4269 -0.5207
vn -0.7394 -0.4269 -0.5207
vn -0.4269 -0.7394 -0.5207
vn -0.7723 -0.4459 -0.4526
vn -0.8917 -0.0000 -0.4526
vn -0.4459 -0.7723 -0.4526
vn -0.0000 -0.8917 -0.4526
vn -0.0000 -0.8537 -0.5207
vn 0.4459 -0.7723 -0.4526
vn 0.4269 -0.7394 -0.5207
vn 0.7723 -0.4459 -0.4526
vn 0.7394 -0.4269 -0.5207
vn 0.8917 -0.0000 -0.4526
vn 0.8537 -0.0000 -0.5207
vn 0.9703 -0.0000 0.2420
vn 0.8950 -0.0000 0.4461
vn 0.7751 -0.4475 0.4461
vn 0.8587 -0.0000 0.5125
vn 0.7437 -0.4294 0.5125
vn 0.4475 -0.7751 0.4461
vn 0.4294 -0.7437 0.5125
vn 0.7241 -0.4181 -0.5485
vn 0.4181 -0.7241 -0.5485
vn 0.8362 -0.0000 -0.5485
vn 0.7623 -0.4401 -0.4745
vn 0.4401 -0.7623 -0.4745
vn 0.8803 -0.0000 -0.4745
vn 0.9741 -0.0000 0.2262
vn 0.8436 -0.4870 0.2262
vn 0.9698 -0.0000 0.2439
vn 0.8399 -0.4849 0.2439
vn 0.9697 -0.0000 -0.2442
vn 0.8398 -0.4849 -0.2442
vn 0.9740 -0.0000 -0.2264
vn 0.8435 -0.4870 -0.2264
vn 0.9091 -0.0000 0.4167
vn 0.7873 -0.4545 0.4167
vn 0.9990 -0.0000 0.0446
vn 0.8652 -0.4995 0.0446
vn 0.9228 -0.0000 -0.3853
vn 0.7992 -0.4614 -0.3853
vn 0.7992 0.4614 -0.3853
vn 0.4995 -0.8652 0.0446
vn 0.4545 -0.7873 0.4167
vn 0.4614 -0.7992 -0.3853
vn 0.6557 -0.3786 0.6532
vn 0.3786 -0.6557 0.6532
vn 0.7572 -0.0000 0.6532
vn -0.6377 -0.0000 0.7703
vn -0.5523 0.3189 0.7703
vn -0.3189 0.5523 0.7703
vn -0.7572 -0.0000 0.6532
vn -0.6557 0.3786 0.6532
vn -0.3786 0.6557 0.6532
vn -0.0000 -0.0000 1.0000
vn -0.6557 -0.3786 0.6532
vn -0.3786 -0.6557 0.6532
vn -0.0000 -0.7572 0.6532
vn -0.0000 0.7572 0.6532
vn 0.3786 0.6557 0.6532
vn 0.6557 0.3786 0.6532
vn 0.3189 -0.5523 0.7703
vn 0.5523 -0.3189 0.7703
vn -0.0000 -0.6377 0.7703
vn -0.3189 -0.5523 0.7703
vn -0.5523 -0.3189 0.7703
vn 0.4614 0.7992 -0.3853
vn -0.0000 0.9228 -0.3853
vn -0.4614 0.7992 -0.3853
vn -0.4995 0.8652 0.0446
vn -0.4545 0.7873 0.4167
vn -0.7992 0.4614 -0.3853
vn -0.8652 0.4995 0.0446
vn -0.7873 0.4545 0.4167
vn -0.4870 0.8435 -0.2264
vn -0.8435 0.4870 -0.2264
vn -0.4849 0.8398 -0.2442
vn -0.8398 0.4849 -0.2442
vn -0.4849 0.8399 0.2439
vn -0.8399 0.4849 0.2439
vn -0.4870 0.8436 0.2262
vn -0.8436 0.4870 0.2262
vn -0.4401 0.7623 -0.4745
vn -0.7623 0.4401 -0.4745
vn -0.4181 0.7241 -0.5485
vn -0.7241 0.4181 -0.5485
vn -0.4294 0.7437 0.5125
vn -0.7437 0.4294 0.5125
vn -0.4475 0.7751 0.4461
vn -0.7751 0.4475 0.4461
vn -0.4459 0.7723 -0.4526
vn -0.7723 0.4459 -0.4526
vn -0.4269 0.7394 -0.5207
vn -0.4851 0.8403 0.2420
vn -0.4872 0.8439 0.2246
vn -0.5000 0.8660 -0.0000
vn -0.8950 -0.0000 0.4461
vn -0.7751 -0.4475 0.4461
vn -0.8587 -0.0000 0.5125
vn -0.7437 -0.4294 0.5125
vn -0.4294 -0.7437 0.5125
vn -0.4475 -0.7751 0.4461
vn -0.0000 -0.8587 0.5125
vn -0.0000 -0.8950 0.4461
vn -0.0000 -0.8362 -0.5485
vn -0.4181 -0.7241 -0.5485
vn -0.0000 -0.8803 -0.4745
vn -0.4401 -0.7623 -0.4745
vn -0.0000 -0.9741 0.2262
vn -0.4870 -0.8436 0.2262
vn 0.4870 -0.8436 0.2262
vn 0.4849 -0.8399 0.2439
vn -0.0000 -0.9698 0.2439
vn 0.4849 -0.8398 -0.2442
vn -0.0000 -0.9697 -0.2442
vn -0.4849 -0.8399 0.2439
vn -0.4849 -0.8398 -0.2442
vn -0.0000 -0.9740 -0.2264
vn -0.4870 -0.8435 -0.2264
vn 0.4870 -0.8435 -0.2264
vn -0.8435 -0.4870 -0.2264
vn -0.8398 -0.4849 -0.2442
vn -0.8399 -0.4849 0.2439
vn -0.9697 -0.0000 -0.2442
vn -0.9698 -0.0000 0.2439
vn -0.9740 -0.0000 -0.2264
vn -0.9741 -0.0000 0.2262
vn -0.8436 -0.4870 0.2262
vn -0.8803 -0.0000 -0.4745
vn -0.7623 -0.4401 -0.4745
vn -0.8362 -0.0000 -0.5485
vn -0.7241 -0.4181 -0.5485
vn -0.7873 -0.4545 0.4167
vn -0.9091 -0.0000 0.4167
vn -0.4545 -0.7873 0.4167
vn -0.8652 -0.4995 0.0446
vn -0.9990 -0.0000 0.0446
vn -0.4995 -0.8652 0.0446
vn -0.0000 -0.9990 0.0446
vn -0.0000 -0.9091 0.4167
vn -0.0000 -0.9228 -0.3853
vn -0.4614 -0.7992 -0.3853
vn -0.0000 0.6377 0.7703
vn 0.3189 0.5523 0.7703
vn 0.5523 0.3189 0.7703
vn 0.6377 -0.0000 0.7703
vn -0.7992 -0.4614 -0.3853
vn -0.9228 -0.0000 -0.3853
vt 0.032175 0.937350
vt 0.032175 0.932326
vt 0.034583 0.931681
vt 0.034583 0.937993
vt 0.029663 0.941701
vt 0.031427 0.943459
vt 0.913998 0.825433
vt 0.907902 0.825476
vt 0.907902 0.814218
vt 0.913998 0.814175
vt 0.539940 0.661504
vt 0.535463 0.661517
vt 0.535463 0.650255
vt 0.539940 0.650243
vt 0.909167 0.809351
vt 0.914000 0.809317
vt 0.534206 0.645322
vt 0.537755 0.645312
vt 0.534206 0.621744
vt 0.537755 0.621734
vt 0.909168 0.785780
vt 0.914000 0.785746
vt 0.905632 0.785874
vt 0.903632 0.781340
vt 0.908012 0.781225
vt 0.913999 0.781182
vt 0.539750 0.617232
vt 0.535354 0.617245
vt 0.535354 0.614781
vt 0.539750 0.614769
vt 0.908013 0.778762
vt 0.913999 0.778720
vt 0.103370 0.924621
vt 0.108736 0.927720
vt 0.107360 0.929068
vt 0.102849 0.926463
vt 0.097174 0.924622
vt 0.097641 0.926463
vt 0.540644 0.555716
vt 0.540652 0.559411
vt 0.539948 0.559411
vt 0.539940 0.555716
vt 0.344196 0.572251
vt 0.344232 0.577283
vt 0.343528 0.577283
vt 0.343492 0.572251
vt 0.598898 0.575000
vt 0.603410 0.572395
vt 0.604938 0.573922
vt 0.599459 0.577086
vt 0.593688 0.575000
vt 0.593132 0.577086
vt 0.384118 0.974394
vt 0.384108 0.969907
vt 0.387276 0.969910
vt 0.387285 0.974397
vt 0.405671 0.966999
vt 0.405714 0.973109
vt 0.402548 0.973109
vt 0.402505 0.966999
vt 0.678678 0.945991
vt 0.672353 0.945991
vt 0.673306 0.942646
vt 0.677836 0.942646
vt 0.666876 0.942828
vt 0.669383 0.940381
vt 0.965269 0.919038
vt 0.965300 0.923415
vt 0.961149 0.923414
vt 0.961118 0.919038
vt 0.467267 0.960758
vt 0.467260 0.957544
vt 0.471412 0.957547
vt 0.471419 0.960761
vt 0.954743 0.925025
vt 0.954700 0.919040
vt 0.961233 0.926617
vt 0.954858 0.929404
vt 0.949490 0.925025
vt 0.949448 0.919040
vt 0.477747 0.963547
vt 0.477738 0.959152
vt 0.482992 0.959156
vt 0.483001 0.963551
vt 0.477738 0.953162
vt 0.482992 0.953166
vt 0.477747 0.947181
vt 0.483001 0.947185
vt 0.959943 0.950139
vt 0.959931 0.945757
vt 0.965185 0.945757
vt 0.965197 0.950139
vt 0.959926 0.939771
vt 0.965180 0.939771
vt 0.953604 0.944148
vt 0.953601 0.939771
vt 0.953613 0.947352
vt 0.953604 0.935395
vt 0.959931 0.933786
vt 0.965185 0.933786
vt 0.959943 0.929404
vt 0.965197 0.929404
vt 0.953613 0.932191
vt 0.099196 0.964117
vt 0.099185 0.958133
vt 0.104440 0.958128
vt 0.104450 0.964112
vt 0.099185 0.952145
vt 0.104440 0.952141
vt 0.092862 0.958135
vt 0.092862 0.953757
vt 0.092870 0.962511
vt 0.088709 0.958139
vt 0.088709 0.953761
vt 0.088717 0.962514
vt 0.949452 0.935395
vt 0.949461 0.932191
vt 0.684156 0.925543
vt 0.687318 0.931022
vt 0.684024 0.931925
vt 0.681759 0.928001
vt 0.678679 0.922379
vt 0.677837 0.925736
vt 0.672354 0.922379
vt 0.673307 0.925736
vt 0.949448 0.939771
vt 0.666877 0.925543
vt 0.669384 0.928001
vt 0.949452 0.944148
vt 0.663714 0.931022
vt 0.667119 0.931925
vt 0.949461 0.947352
vt 0.663714 0.937349
vt 0.667119 0.936457
vt 0.467260 0.953164
vt 0.467267 0.948790
vt 0.471419 0.948794
vt 0.471412 0.953167
vt 0.384108 0.963791
vt 0.384118 0.957685
vt 0.387285 0.957687
vt 0.387276 0.963794
vt 0.606015 0.567883
vt 0.606015 0.562673
vt 0.608101 0.562116
vt 0.608101 0.568443
vt 0.079613 0.894931
vt 0.079600 0.890457
vt 0.082767 0.890457
vt 0.082780 0.894931
vt 0.603410 0.558161
vt 0.604938 0.556637
vt 0.345557 0.379033
vt 0.345547 0.375348
vt 0.346251 0.375348
vt 0.346261 0.379033
vt 0.540652 0.564447
vt 0.540644 0.569476
vt 0.539940 0.569475
vt 0.539948 0.564447
vt 0.111834 0.939286
vt 0.108736 0.944654
vt 0.107360 0.943301
vt 0.109964 0.938789
vt 0.111834 0.933088
vt 0.109964 0.933579
vt 0.529362 0.617249
vt 0.523380 0.617245
vt 0.523380 0.614781
vt 0.529362 0.614786
vt 0.529369 0.621747
vt 0.524540 0.621744
vt 0.529369 0.645326
vt 0.524540 0.645322
vt 0.529362 0.650260
vt 0.523269 0.650255
vt 0.529362 0.661522
vt 0.523269 0.661517
vt 0.029663 0.927976
vt 0.025313 0.925464
vt 0.025960 0.923058
vt 0.031426 0.926214
vt 0.264438 0.933219
vt 0.264438 0.926646
vt 0.267397 0.927428
vt 0.267397 0.932452
vt 0.267723 0.938912
vt 0.269907 0.936802
vt 0.020289 0.925464
vt 0.019648 0.923058
vt 0.267724 0.920954
vt 0.269908 0.923077
vt 0.923768 0.163254
vt 0.923768 0.127933
vt 0.928417 0.127920
vt 0.928417 0.163241
vt 0.396434 0.816672
vt 0.396434 0.781351
vt 0.402778 0.781356
vt 0.402778 0.816677
vt 0.146790 0.941507
vt 0.141097 0.938220
vt 0.143470 0.935847
vt 0.147658 0.938266
vt 0.153363 0.941507
vt 0.152495 0.938266
vt 0.778218 0.956142
vt 0.773545 0.956138
vt 0.773545 0.920430
vt 0.778218 0.920434
vt 0.781642 0.956154
vt 0.781642 0.920446
vt 0.531071 0.954759
vt 0.540095 0.952340
vt 0.540095 0.957177
vt 0.537677 0.961365
vt 0.533489 0.963783
vt 0.528652 0.963783
vt 0.524464 0.961365
vt 0.522046 0.957177
vt 0.537677 0.948152
vt 0.533489 0.945734
vt 0.528652 0.945734
vt 0.524464 0.948152
vt 0.522046 0.952340
vt 0.436331 0.870438
vt 0.439751 0.870428
vt 0.439751 0.906136
vt 0.436331 0.906146
vt 0.431659 0.870442
vt 0.431659 0.906150
vt 0.146790 0.916975
vt 0.153363 0.916975
vt 0.152494 0.920216
vt 0.147658 0.920216
vt 0.141097 0.920262
vt 0.143470 0.922634
vt 0.137811 0.925954
vt 0.141051 0.926822
vt 0.426988 0.870438
vt 0.426988 0.906146
vt 0.137811 0.932527
vt 0.141051 0.931659
vt 0.423568 0.870428
vt 0.423568 0.906136
vt 0.768875 0.956142
vt 0.768875 0.920434
vt 0.385418 0.816691
vt 0.385418 0.781370
vt 0.390080 0.781356
vt 0.390080 0.816677
vt 0.273414 0.942199
vt 0.274256 0.939314
vt 0.040933 0.958412
vt 0.040933 0.923103
vt 0.047281 0.923058
vt 0.047281 0.958367
vt 0.279985 0.942199
vt 0.279278 0.939314
vt 0.034583 0.958368
vt 0.034583 0.923059
vt 0.285676 0.938912
vt 0.283628 0.936802
vt 0.025313 0.944212
vt 0.025960 0.946616
vt 0.288962 0.933219
vt 0.286139 0.932452
vt 0.020289 0.944212
vt 0.019648 0.946616
vt 0.342716 0.921243
vt 0.338247 0.921228
vt 0.338247 0.909967
vt 0.342716 0.909982
vt 0.920096 0.825476
vt 0.920096 0.814218
vt 0.340435 0.905036
vt 0.343977 0.905048
vt 0.918833 0.809351
vt 0.340435 0.881457
vt 0.343977 0.881469
vt 0.918834 0.785780
vt 0.922374 0.785874
vt 0.919987 0.781225
vt 0.924372 0.781340
vt 0.919987 0.778762
vt 0.342825 0.876971
vt 0.338438 0.876957
vt 0.338438 0.874493
vt 0.342825 0.874508
vt 0.091807 0.927721
vt 0.093130 0.929069
vt 0.088709 0.933089
vt 0.090526 0.933581
vt 0.344232 0.567218
vt 0.343528 0.567218
vt 0.344205 0.563529
vt 0.344196 0.567217
vt 0.343492 0.567218
vt 0.343502 0.563530
vt 0.589176 0.572395
vt 0.587653 0.573922
vt 0.586572 0.567883
vt 0.584489 0.568443
vt 0.405714 0.960887
vt 0.402548 0.960887
vt 0.660498 0.959726
vt 0.660509 0.955247
vt 0.663677 0.955244
vt 0.663665 0.959723
vt 0.684155 0.942828
vt 0.681759 0.940381
vt 0.687318 0.937349
vt 0.684024 0.936456
vt 0.965300 0.914661
vt 0.961148 0.914661
vt 0.088717 0.950553
vt 0.092870 0.950549
vt 0.954743 0.913053
vt 0.961233 0.911455
vt 0.954858 0.908669
vt 0.949490 0.913053
vt 0.099196 0.947759
vt 0.104450 0.947754
vt 0.660498 0.965839
vt 0.663665 0.965836
vt 0.660509 0.971948
vt 0.663677 0.971945
vt 0.586572 0.562673
vt 0.584489 0.562116
vt 0.589176 0.558161
vt 0.587653 0.556637
vt 0.593688 0.555556
vt 0.593132 0.553474
vt 0.079600 0.878235
vt 0.079613 0.873761
vt 0.082780 0.873761
vt 0.082767 0.878235
vt 0.598898 0.555556
vt 0.599459 0.553474
vt 0.079595 0.884346
vt 0.082762 0.884346
vt 0.345543 0.370316
vt 0.345547 0.365284
vt 0.346251 0.365284
vt 0.346247 0.370316
vt 0.103370 0.947754
vt 0.097174 0.947754
vt 0.097641 0.945907
vt 0.102849 0.945907
vt 0.875545 0.222367
vt 0.881532 0.222371
vt 0.881532 0.224835
vt 0.875545 0.224830
vt 0.869558 0.222371
vt 0.869558 0.224835
vt 0.865175 0.222384
vt 0.865175 0.224847
vt 0.870712 0.217872
vt 0.875545 0.217869
vt 0.867174 0.217883
vt 0.870712 0.194294
vt 0.875545 0.194290
vt 0.867174 0.194304
vt 0.880378 0.217872
vt 0.880378 0.194294
vt 0.875545 0.189356
vt 0.881642 0.189361
vt 0.869448 0.189361
vt 0.886105 0.189373
vt 0.883916 0.194304
vt 0.883916 0.217883
vt 0.353643 0.905048
vt 0.348812 0.905052
vt 0.348812 0.881473
vt 0.353643 0.881469
vt 0.354910 0.909982
vt 0.348814 0.909987
vt 0.348814 0.876977
vt 0.354800 0.876971
vt 0.885915 0.222384
vt 0.348814 0.874513
vt 0.354800 0.874508
vt 0.885915 0.224847
vt 0.091807 0.944655
vt 0.088709 0.939288
vt 0.090526 0.938791
vt 0.093130 0.943302
vt 0.344196 0.553464
vt 0.344205 0.558495
vt 0.343502 0.558496
vt 0.343492 0.553465
vt 0.345557 0.361600
vt 0.346261 0.361600
vt 0.354910 0.921243
vt 0.348814 0.921249
vt 0.881642 0.178099
vt 0.886105 0.178112
vt 0.013426 0.937350
vt 0.015938 0.941701
vt 0.014181 0.943460
vt 0.011025 0.937993
vt 0.013426 0.932326
vt 0.011025 0.931681
vt 0.015938 0.927976
vt 0.014181 0.926214
vt 0.875545 0.178094
vt 0.869448 0.178099
vt 0.864984 0.178112
vt 0.864984 0.189373
vt 0.273415 0.917667
vt 0.279986 0.917667
vt 0.279280 0.920565
vt 0.274258 0.920565
vt 0.934766 0.163236
vt 0.934766 0.127915
vt 0.941115 0.127920
vt 0.941115 0.163241
vt 0.162342 0.932527
vt 0.159055 0.938220
vt 0.156683 0.935847
vt 0.159101 0.931659
vt 0.498308 0.956044
vt 0.493637 0.956077
vt 0.493637 0.920382
vt 0.498308 0.920349
vt 0.488965 0.956045
vt 0.488965 0.920349
vt 0.162342 0.925954
vt 0.159101 0.926823
vt 0.292392 0.953378
vt 0.288962 0.953388
vt 0.288962 0.917681
vt 0.292392 0.917671
vt 0.159055 0.920262
vt 0.156683 0.922634
vt 0.297067 0.953375
vt 0.297067 0.917667
vt 0.301735 0.953379
vt 0.301735 0.917671
vt 0.854136 0.900638
vt 0.854136 0.865317
vt 0.860484 0.865311
vt 0.860484 0.900632
vt 0.866835 0.865317
vt 0.866835 0.900638
vt 0.871488 0.865332
vt 0.871488 0.900653
vt 0.288962 0.926646
vt 0.286139 0.927428
vt 0.285677 0.920954
vt 0.283629 0.923077
vt 0.945763 0.127933
vt 0.945763 0.163254
s 1
usemtl M249_Gun
f 2/1/1 104/2/2 4/3/3 1/4/4
f 141/5/5 2/1/1 1/4/4 3/6/6
f 3/7/6 1/8/4 5/9/7 6/10/8
f 1/11/4 4/12/3 7/13/9 5/14/7
f 6/10/8 5/9/7 8/15/10 10/16/11
f 5/14/7 7/13/9 9/17/12 8/18/10
f 8/18/10 9/17/12 12/19/13 11/20/14
f 10/16/11 8/15/10 11/21/14 13/22/15
f 11/21/14 12/23/13 15/24/16 14/25/17
f 13/22/15 11/21/14 14/25/17 16/26/18
f 14/27/17 15/28/16 18/29/19 17/30/20
f 16/26/18 14/25/17 17/31/20 19/32/21
f 17/33/20 18/34/19 21/35/22 20/36/23
f 19/37/21 17/33/20 20/36/23 22/38/24
f 20/39/23 21/40/22 24/41/25 23/42/26
f 22/43/24 20/44/23 23/45/26 25/46/27
f 23/47/26 24/48/25 27/49/28 26/50/29
f 25/51/27 23/47/26 26/50/29 28/52/30
f 26/53/29 27/54/28 31/55/31 29/56/32
f 28/57/30 26/58/29 29/59/32 30/60/33
f 30/61/33 29/62/32 32/63/34 33/64/35
f 29/62/32 31/65/31 34/66/36 32/63/34
f 33/67/35 32/68/34 35/69/37 36/70/38
f 32/71/34 34/72/36 37/73/39 35/74/37
f 36/70/38 35/69/37 38/75/40 39/76/41
f 35/69/37 37/77/39 40/78/42 38/75/40
f 39/76/41 38/75/40 41/79/43 42/80/44
f 38/81/40 40/82/42 43/83/45 41/84/43
f 40/82/42 45/85/46 44/86/47 43/83/45
f 45/85/46 47/87/48 46/88/49 44/86/47
f 47/89/48 50/90/50 48/91/51 46/92/49
f 50/90/50 52/93/52 49/94/53 48/91/51
f 51/95/54 53/96/55 52/93/52 50/90/50
f 78/97/56 51/95/54 50/90/50 47/89/48
f 53/96/55 56/98/57 54/99/58 52/93/52
f 52/93/52 54/99/58 57/100/59 49/94/53
f 54/99/58 55/101/60 58/102/61 57/100/59
f 56/98/57 66/103/62 55/101/60 54/99/58
f 55/104/60 61/105/63 59/106/64 58/107/61
f 61/105/63 62/108/65 60/109/66 59/106/64
f 63/110/67 64/111/68 62/108/65 61/105/63
f 66/112/62 63/110/67 61/105/63 55/104/60
f 65/113/69 165/114/70 64/111/68 63/110/67
f 67/115/71 65/113/69 63/110/67 66/112/62
f 69/116/72 67/117/71 66/103/62 56/98/57
f 68/118/73 169/119/74 65/120/69 67/121/71
f 70/122/75 68/118/73 67/121/71 69/123/72
f 72/124/76 70/122/75 69/123/72 71/125/77
f 71/126/77 69/116/72 56/98/57 53/96/55
f 74/127/78 72/124/76 71/125/77 73/128/79
f 73/129/79 71/126/77 53/96/55 51/95/54
f 76/130/80 74/127/78 73/128/79 75/131/81
f 75/132/81 73/129/79 51/95/54 78/97/56
f 80/133/82 76/130/80 75/131/81 77/134/83
f 77/135/83 75/136/81 78/137/56 79/138/84
f 79/138/84 78/137/56 47/87/48 45/85/46
f 34/72/36 77/135/83 79/138/84 37/73/39
f 37/73/39 79/138/84 45/85/46 40/82/42
f 31/65/31 80/133/82 77/134/83 34/66/36
f 81/139/85 83/140/86 76/141/80 80/142/82
f 27/54/28 81/139/85 80/142/82 31/55/31
f 82/143/87 85/144/88 83/145/86 81/146/85
f 24/48/25 82/143/87 81/146/85 27/49/28
f 83/147/86 84/148/89 74/149/78 76/150/80
f 85/144/88 86/151/90 84/152/89 83/145/86
f 87/153/91 88/154/92 86/155/90 85/156/88
f 90/157/93 87/158/91 85/159/88 82/160/87
f 89/161/94 183/162/95 88/163/92 87/164/91
f 91/165/96 89/161/94 87/164/91 90/166/93
f 18/34/19 91/165/96 90/166/93 21/35/22
f 21/40/22 90/157/93 82/160/87 24/41/25
f 92/167/97 93/168/98 89/169/94 91/170/96
f 15/28/16 92/167/97 91/170/96 18/29/19
f 94/171/99 95/172/100 93/168/98 92/167/97
f 12/19/13 94/171/99 92/167/97 15/28/16
f 96/173/101 97/174/102 95/172/100 94/171/99
f 9/17/12 96/173/101 94/171/99 12/19/13
f 98/175/103 99/176/104 97/174/102 96/173/101
f 7/13/9 98/175/103 96/173/101 9/17/12
f 100/177/105 101/178/106 99/176/104 98/175/103
f 4/12/3 100/177/105 98/175/103 7/13/9
f 102/179/107 105/180/108 101/181/106 100/182/105
f 104/2/2 102/179/107 100/182/105 4/3/3
f 103/183/109 107/184/110 105/185/108 102/186/107
f 137/187/111 103/183/109 102/186/107 104/188/2
f 105/180/108 106/189/112 213/190/113 101/181/106
f 107/184/110 108/191/114 106/192/112 105/185/108
f 107/193/110 109/194/115 111/195/116 108/196/114
f 103/197/109 110/198/117 109/199/115 107/200/110
f 109/201/115 110/202/117 113/203/118 112/204/119
f 111/205/116 109/201/115 112/204/119 114/206/120
f 112/207/119 113/208/118 117/209/121 115/210/122
f 114/211/120 112/207/119 115/210/122 116/212/123
f 118/213/124 116/214/123 115/215/122
f 118/213/124 115/215/122 117/216/121
f 118/213/124 121/217/125 119/218/126
f 118/213/124 119/218/126 120/219/127
f 118/213/124 120/219/127 127/220/116
f 118/213/124 117/216/121 121/217/125
f 118/213/124 122/221/128 116/214/123
f 118/213/124 123/222/129 122/221/128
f 118/213/124 124/223/130 123/222/129
f 118/213/124 125/224/117 124/223/130
f 118/213/124 126/225/115 125/224/117
f 118/213/124 127/220/116 126/225/115
f 128/226/131 129/227/132 126/228/115 127/229/116
f 131/230/133 128/226/131 127/229/116 120/231/127
f 130/232/123 226/233/122 129/234/132 128/235/131
f 132/236/128 130/232/123 128/235/131 131/237/133
f 134/238/129 132/236/128 131/237/133 133/239/134
f 133/240/134 131/230/133 120/231/127 119/241/126
f 136/242/130 134/238/129 133/239/134 135/243/135
f 135/244/135 133/240/134 119/241/126 121/245/125
f 110/202/117 136/242/130 135/243/135 113/203/118
f 113/208/118 135/246/135 121/247/125 117/209/121
f 138/248/136 134/249/129 136/250/130 137/251/111
f 137/251/111 136/250/130 110/198/117 103/197/109
f 138/252/136 137/187/111 104/188/2 2/253/1
f 139/254/137 132/255/128 134/256/129 138/257/136
f 139/258/137 138/252/136 2/253/1 141/259/5
f 140/260/138 130/261/123 132/255/128 139/254/137
f 140/262/138 139/258/137 141/259/5 142/263/139
f 142/264/139 141/5/5 3/6/6 144/265/140
f 227/266/141 140/262/138 142/263/139 143/267/142
f 143/268/142 142/264/139 144/265/140 145/269/143
f 145/270/143 144/271/140 146/272/144 147/273/145
f 144/274/140 3/7/6 6/10/8 146/275/144
f 147/273/145 146/272/144 148/276/146 149/277/147
f 146/275/144 6/10/8 10/16/11 148/278/146
f 149/277/147 148/276/146 150/279/148 151/280/149
f 148/278/146 10/16/11 13/22/15 150/281/148
f 151/282/149 150/281/148 152/283/150 153/284/151
f 150/281/148 13/22/15 16/26/18 152/283/150
f 152/283/150 16/26/18 19/32/21 154/285/152
f 153/286/151 152/287/150 154/288/152 155/289/153
f 154/290/152 19/37/21 22/38/24 156/291/154
f 155/292/153 154/290/152 156/291/154 157/293/155
f 156/294/154 22/43/24 25/46/27 158/295/156
f 157/296/155 156/297/154 158/298/156 159/299/157
f 158/300/156 25/51/27 28/52/30 160/301/158
f 159/302/157 158/300/156 160/301/158 161/303/159
f 160/304/158 28/57/30 30/60/33 162/305/160
f 161/306/159 160/307/158 162/308/160 163/309/161
f 162/310/160 30/61/33 33/64/35 164/311/162
f 163/312/161 162/310/160 164/311/162 165/313/70
f 164/314/162 33/67/35 36/70/38 166/315/163
f 165/114/70 164/316/162 166/317/163 64/111/68
f 166/315/163 36/70/38 39/76/41 167/318/164
f 64/319/68 166/315/163 167/318/164 62/320/65
f 167/318/164 39/76/41 42/80/44 168/321/165
f 62/108/65 167/322/164 168/323/165 60/109/66
f 169/119/74 163/312/161 165/313/70 65/120/69
f 170/324/166 161/306/159 163/309/161 169/325/74
f 172/326/167 170/324/166 169/325/74 68/327/73
f 171/328/168 159/302/157 161/303/159 170/329/166
f 173/330/169 171/328/168 170/329/166 172/331/167
f 175/332/170 173/330/169 172/331/167 174/333/171
f 174/334/171 172/335/167 68/336/73 70/337/75
f 177/338/172 175/332/170 174/333/171 176/339/173
f 176/340/173 174/334/171 70/337/75 72/341/76
f 86/151/90 177/338/172 176/339/173 84/152/89
f 84/148/89 176/340/173 72/341/76 74/149/78
f 178/342/174 179/343/175 175/344/170 177/345/172
f 88/154/92 178/342/174 177/345/172 86/155/90
f 180/346/176 181/347/177 179/348/175 178/349/174
f 183/162/95 180/346/176 178/349/174 88/163/92
f 182/350/178 200/351/179 181/352/177 180/353/176
f 184/354/180 182/350/178 180/353/176 183/355/95
f 93/356/98 184/354/180 183/355/95 89/357/94
f 185/358/181 187/359/182 182/350/178 184/354/180
f 95/360/100 185/358/181 184/354/180 93/356/98
f 186/361/183 189/362/184 187/359/182 185/358/181
f 97/363/102 186/361/183 185/358/181 95/360/100
f 187/359/182 188/364/185 200/351/179 182/350/178
f 189/362/184 191/365/186 188/364/185 187/359/182
f 190/366/187 192/367/188 191/365/186 189/362/184
f 214/368/189 190/366/187 189/362/184 186/361/183
f 192/367/188 195/369/190 193/370/191 191/365/186
f 191/365/186 193/370/191 196/371/192 188/364/185
f 193/372/191 194/373/193 197/374/194 196/375/192
f 195/376/190 205/377/195 194/373/193 193/372/191
f 196/375/192 197/374/194 199/378/196 198/379/197
f 188/364/185 196/371/192 198/380/197 200/351/179
f 198/379/197 199/378/196 202/381/198 201/382/199
f 200/351/179 198/380/197 201/383/199 181/352/177
f 201/384/199 202/385/198 204/386/200 203/387/201
f 181/347/177 201/384/199 203/387/201 179/348/175
f 203/388/201 204/389/200 171/390/168 173/391/169
f 179/343/175 203/392/201 173/393/169 175/344/170
f 202/385/198 155/292/153 157/293/155 204/386/200
f 204/389/200 157/296/155 159/299/157 171/390/168
f 199/378/196 153/286/151 155/289/153 202/381/198
f 197/374/194 151/280/149 153/286/151 199/378/196
f 194/373/193 149/277/147 151/280/149 197/374/194
f 206/394/202 207/395/203 205/377/195 195/376/190
f 209/396/204 206/397/202 195/369/190 192/367/188
f 208/398/205 229/399/206 207/400/203 206/401/202
f 210/402/207 208/398/205 206/401/202 209/403/204
f 212/404/208 210/402/207 209/403/204 211/405/209
f 211/406/209 209/396/204 192/367/188 190/366/187
f 106/189/112 212/404/208 211/405/209 213/190/113
f 213/407/113 211/406/209 190/366/187 214/368/189
f 101/408/106 213/407/113 214/368/189 99/409/104
f 99/409/104 214/368/189 186/361/183 97/363/102
f 215/410/210 216/411/211 210/412/207 212/413/208
f 108/191/114 215/410/210 212/413/208 106/192/112
f 215/414/210 217/415/127 218/416/126 216/417/211
f 108/196/114 111/195/116 217/415/127 215/414/210
f 218/418/126 217/419/127 219/420/212 220/421/213
f 217/419/127 111/205/116 114/206/120 219/420/212
f 220/422/213 219/423/212 122/424/128 123/425/129
f 219/423/212 114/426/120 116/427/123 122/424/128
f 222/428/125 218/418/126 220/421/213 221/429/214
f 221/430/214 220/431/213 123/432/129 124/433/130
f 224/434/121 222/428/125 221/429/214 223/435/215
f 223/436/215 221/430/214 124/433/130 125/437/117
f 226/233/122 224/434/121 223/435/215 129/234/132
f 129/438/132 223/436/215 125/437/117 126/439/115
f 228/440/216 222/441/125 224/442/121 225/443/217
f 225/443/217 224/442/121 226/444/122 227/445/141
f 227/445/141 226/444/122 130/446/123 140/447/138
f 225/448/217 227/266/141 143/267/142 229/449/206
f 228/450/216 225/448/217 229/449/206 208/451/205
f 229/399/206 143/268/142 145/269/143 207/400/203
f 216/411/211 228/450/216 208/451/205 210/412/207
f 216/417/211 218/416/126 222/452/125 228/453/216
f 207/395/203 145/270/143 147/273/145 205/377/195
f 205/377/195 147/273/145 149/277/147 194/373/193
