# Blender 4.0.2
# www.blender.org
mtllib M249_part_15.mtl
o M249_part_15
v 0.000000 0.228224 -0.052875
v 0.011742 0.248561 -0.052875
v 0.000000 0.251707 -0.052875
v 0.020337 0.239966 -0.052875
v 0.023484 0.228224 -0.052875
v 0.020337 0.216482 -0.052875
v 0.011742 0.207886 -0.052875
v 0.000000 0.204740 -0.052875
v -0.011742 0.207886 -0.052875
v -0.020337 0.216482 -0.052875
v -0.023484 0.228224 -0.052875
v -0.020337 0.239965 -0.052875
v -0.011742 0.248561 -0.052875
v -0.011742 0.248561 -0.069435
v -0.020337 0.239965 -0.069435
v 0.000000 0.251707 -0.069435
v -0.012910 0.250585 -0.071674
v -0.022361 0.241134 -0.071674
v 0.000000 0.254044 -0.071674
v -0.012910 0.250585 -0.076431
v -0.022361 0.241134 -0.076431
v 0.000000 0.254044 -0.076431
v -0.011019 0.247310 -0.078949
v -0.019086 0.239243 -0.078949
v 0.000000 0.250262 -0.078949
v -0.011019 0.247310 -0.088649
v -0.019086 0.239243 -0.088649
v 0.000000 0.250262 -0.088649
v -0.009913 0.245393 -0.093499
v -0.017169 0.238136 -0.093499
v 0.000000 0.248049 -0.093499
v -0.009913 0.245393 -0.124932
v -0.017169 0.238136 -0.124932
v 0.000000 0.248049 -0.124932
v 0.009913 0.245393 -0.124932
v 0.009913 0.245393 -0.093499
v 0.017169 0.238136 -0.124932
v 0.019826 0.228224 -0.124932
v 0.017169 0.238136 -0.093499
v 0.019826 0.228224 -0.093499
v 0.019086 0.239243 -0.088649
v 0.022039 0.228224 -0.088649
v 0.019086 0.239243 -0.078949
v 0.011019 0.247310 -0.088649
v 0.011019 0.247310 -0.078949
v 0.012910 0.250585 -0.076431
v 0.012910 0.250585 -0.071674
v 0.022361 0.241134 -0.076431
v 0.022361 0.241134 -0.071674
v 0.025820 0.228224 -0.076431
v 0.022361 0.215313 -0.076431
v 0.025820 0.228224 -0.071674
v 0.022039 0.228224 -0.078949
v 0.019086 0.217204 -0.078949
v 0.011019 0.209138 -0.078949
v 0.019086 0.217204 -0.088649
v 0.011019 0.209138 -0.088649
v 0.017169 0.218311 -0.093499
v 0.009913 0.211054 -0.093499
v 0.017169 0.218311 -0.124932
v 0.009913 0.211054 -0.124932
v 0.000000 0.208398 -0.124932
v 0.000000 0.208398 -0.093499
v -0.009913 0.211054 -0.124932
v -0.009913 0.211054 -0.093499
v -0.017169 0.218311 -0.124932
v -0.017169 0.218311 -0.093499
v -0.019826 0.228224 -0.124932
v -0.019826 0.228224 -0.093499
v -0.022039 0.228224 -0.088649
v -0.022039 0.228224 -0.078949
v -0.019086 0.217204 -0.088649
v -0.019086 0.217204 -0.078949
v -0.011019 0.209138 -0.088649
v -0.011019 0.209138 -0.078949
v 0.000000 0.206185 -0.088649
v 0.000000 0.206185 -0.078949
v 0.000000 0.202403 -0.076431
v -0.012910 0.205863 -0.076431
v 0.000000 0.202403 -0.071674
v 0.012910 0.205863 -0.076431
v 0.012910 0.205863 -0.071674
v 0.011742 0.207886 -0.069435
v 0.022361 0.215313 -0.071674
v 0.020337 0.216482 -0.069435
v 0.023484 0.228224 -0.069435
v 0.020337 0.239966 -0.069435
v 0.011742 0.248561 -0.069435
v 0.000000 0.204740 -0.069435
v -0.011742 0.207886 -0.069435
v -0.020337 0.216482 -0.069435
v -0.012910 0.205863 -0.071674
v -0.022361 0.215313 -0.071674
v -0.025820 0.228224 -0.071674
v -0.022361 0.215313 -0.076431
v -0.025820 0.228224 -0.076431
v -0.023484 0.228224 -0.069435
vn -0.0000 -0.0000 1.0000
vn 0.6557 0.3786 0.6532
vn 0.3786 0.6557 0.6532
vn -0.0000 0.7572 0.6532
vn -0.3786 0.6557 0.6532
vn 0.7572 -0.0000 0.6532
vn 0.6557 -0.3786 0.6532
vn 0.3786 -0.6557 0.6532
vn -0.0000 -0.7572 0.6532
vn -0.3786 -0.6557 0.6532
vn -0.6557 -0.3786 0.6532
vn -0.7572 -0.0000 0.6532
vn -0.6557 0.3786 0.6532
vn -0.7867 0.4542 0.4181
vn -0.4542 0.7867 0.4181
vn -0.0000 0.9084 0.4181
vn -0.4643 0.8042 0.3710
vn -0.8042 0.4643 0.3710
vn -0.0000 0.9286 0.3710
vn -0.4484 0.7767 -0.4424
vn -0.7767 0.4484 -0.4424
vn -0.0000 0.8968 -0.4424
vn -0.4308 0.7461 -0.5078
vn -0.7461 0.4308 -0.5078
vn -0.0000 0.8615 -0.5078
vn -0.4893 0.8475 -0.2055
vn -0.8475 0.4893 -0.2055
vn -0.0000 0.9787 -0.2055
vn -0.4877 0.8448 -0.2201
vn -0.8448 0.4877 -0.2201
vn -0.0000 0.9755 -0.2201
vn -0.5000 0.8660 -0.0000
vn -0.8660 0.5000 -0.0000
vn -0.0000 1.0000 -0.0000
vn 0.4877 0.8448 -0.2201
vn 0.5000 0.8660 -0.0000
vn 0.8448 0.4877 -0.2201
vn 0.8660 0.5000 -0.0000
vn 0.9755 -0.0000 -0.2201
vn 1.0000 -0.0000 -0.0000
vn 0.8475 0.4893 -0.2055
vn 0.9787 -0.0000 -0.2055
vn 0.4893 0.8475 -0.2055
vn 0.7461 0.4307 -0.5078
vn 0.8615 -0.0000 -0.5078
vn 0.4307 0.7461 -0.5078
vn 0.4484 0.7767 -0.4424
vn 0.7767 0.4484 -0.4424
vn 0.4643 0.8042 0.3710
vn 0.8042 0.4643 0.3710
vn 0.9286 -0.0000 0.3710
vn 0.8968 -0.0000 -0.4424
vn 0.7767 -0.4484 -0.4424
vn 0.7461 -0.4307 -0.5078
vn 0.8042 -0.4643 0.3710
vn 0.8475 -0.4893 -0.2055
vn 0.4484 -0.7767 -0.4424
vn 0.4307 -0.7461 -0.5078
vn 0.4893 -0.8475 -0.2055
vn 0.8448 -0.4877 -0.2201
vn 0.4877 -0.8448 -0.2201
vn 0.8660 -0.5000 -0.0000
vn 0.5000 -0.8660 -0.0000
vn -0.0000 -0.9755 -0.2201
vn -0.0000 -1.0000 -0.0000
vn -0.4877 -0.8448 -0.2201
vn -0.5000 -0.8660 -0.0000
vn -0.8448 -0.4877 -0.2201
vn -0.8660 -0.5000 -0.0000
vn -0.9755 -0.0000 -0.2201
vn -1.0000 -0.0000 -0.0000
vn -0.9787 -0.0000 -0.2055
vn -0.8475 -0.4893 -0.2055
vn -0.8615 -0.0000 -0.5078
vn -0.7461 -0.4308 -0.5078
vn -0.4307 -0.7461 -0.5078
vn -0.4893 -0.8475 -0.2055
vn -0.0000 -0.8615 -0.5078
vn -0.0000 -0.9787 -0.2055
vn -0.0000 -0.8968 -0.4424
vn -0.4484 -0.7767 -0.4424
vn -0.0000 -0.9286 0.3710
vn -0.4643 -0.8042 0.3710
vn 0.4643 -0.8042 0.3710
vn 0.4542 -0.7867 0.4181
vn -0.0000 -0.9084 0.4181
vn 0.7867 -0.4542 0.4181
vn 0.9084 -0.0000 0.4181
vn 0.7867 0.4542 0.4181
vn 0.4542 0.7867 0.4181
vn -0.4542 -0.7867 0.4181
vn -0.7867 -0.4542 0.4181
vn -0.8042 -0.4643 0.3710
vn -0.7767 -0.4484 -0.4424
vn -0.9084 -0.0000 0.4181
vn -0.9286 -0.0000 0.3710
vn -0.8968 -0.0000 -0.4424
vt 0.520078 0.858672
vt 0.540472 0.864136
vt 0.535007 0.873601
vt 0.525542 0.879066
vt 0.514613 0.879066
vt 0.540472 0.853207
vt 0.535007 0.843742
vt 0.525542 0.838278
vt 0.514613 0.838278
vt 0.505148 0.843742
vt 0.499684 0.853207
vt 0.499684 0.864136
vt 0.505148 0.873601
vt 0.960652 0.135651
vt 0.945763 0.135665
vt 0.945782 0.127928
vt 0.960671 0.127915
vt 0.678598 0.967105
vt 0.663714 0.967105
vt 0.663788 0.956546
vt 0.678672 0.956546
vt 0.090737 0.821766
vt 0.090737 0.832695
vt 0.088709 0.833243
vt 0.088709 0.821226
vt 0.096202 0.842160
vt 0.094717 0.843649
vt 0.171274 0.892022
vt 0.171295 0.883516
vt 0.175571 0.883512
vt 0.175550 0.892018
vt 0.707932 0.704269
vt 0.707850 0.715878
vt 0.703574 0.715878
vt 0.703656 0.704269
vt 0.862753 0.848894
vt 0.856747 0.859301
vt 0.854401 0.856903
vt 0.859528 0.848020
vt 0.846344 0.865310
vt 0.845522 0.862032
vt 0.235332 0.882306
vt 0.242593 0.882324
vt 0.242601 0.891045
vt 0.235340 0.891028
vt 0.941770 0.615325
vt 0.931862 0.615255
vt 0.931862 0.606537
vt 0.941770 0.606607
vt 0.240883 0.895411
vt 0.234351 0.895395
vt 0.931863 0.602230
vt 0.940776 0.602293
vt 0.240908 0.923671
vt 0.234377 0.923654
vt 0.931863 0.573980
vt 0.940776 0.574043
vt 0.922952 0.602293
vt 0.922952 0.574043
vt 0.441882 0.895301
vt 0.448425 0.895287
vt 0.448404 0.923547
vt 0.441860 0.923560
vt 0.457345 0.895287
vt 0.457323 0.923547
vt 0.447439 0.890921
vt 0.457354 0.890921
vt 0.440165 0.890936
vt 0.447446 0.882200
vt 0.457361 0.882200
vt 0.440172 0.882215
vt 0.921956 0.615325
vt 0.921956 0.606607
vt 0.834331 0.865311
vt 0.823928 0.859303
vt 0.826389 0.856905
vt 0.835268 0.862032
vt 0.179405 0.956915
vt 0.179423 0.965437
vt 0.175146 0.965434
vt 0.175128 0.956912
vt 0.707932 0.727483
vt 0.703656 0.727483
vt 0.179423 0.977054
vt 0.175146 0.977050
vt 0.817921 0.848897
vt 0.821262 0.848023
vt 0.817921 0.836880
vt 0.821262 0.837766
vt 0.179405 0.988651
vt 0.175128 0.988648
vt 0.467260 0.882215
vt 0.467253 0.890936
vt 0.823928 0.826473
vt 0.826389 0.828883
vt 0.088709 0.849686
vt 0.095962 0.849665
vt 0.095962 0.858386
vt 0.088709 0.858407
vt 0.466250 0.895301
vt 0.096957 0.862752
vt 0.090432 0.862771
vt 0.466228 0.923560
vt 0.096957 0.891012
vt 0.090432 0.891030
vt 0.105869 0.862745
vt 0.105869 0.891005
vt 0.114781 0.862752
vt 0.114781 0.891012
vt 0.121305 0.862771
vt 0.121305 0.891030
vt 0.216527 0.895411
vt 0.225436 0.895395
vt 0.225462 0.923654
vt 0.216552 0.923671
vt 0.225430 0.891028
vt 0.215526 0.891046
vt 0.225422 0.882306
vt 0.215518 0.882324
vt 0.115776 0.849665
vt 0.123028 0.849686
vt 0.123028 0.858407
vt 0.115776 0.858386
vt 0.105869 0.849658
vt 0.105869 0.858379
vt 0.834331 0.820464
vt 0.846344 0.820464
vt 0.845522 0.823754
vt 0.835268 0.823754
vt 0.971328 0.949508
vt 0.971337 0.937901
vt 0.975614 0.937901
vt 0.975605 0.949508
vt 0.971337 0.961115
vt 0.975614 0.961115
vt 0.971361 0.969612
vt 0.975638 0.969612
vt 0.131525 0.821766
vt 0.126061 0.812302
vt 0.127547 0.810819
vt 0.133556 0.821226
vt 0.131525 0.832695
vt 0.133556 0.833243
vt 0.126061 0.842160
vt 0.127547 0.843649
vt 0.136518 0.927600
vt 0.121629 0.927600
vt 0.121606 0.919871
vt 0.136496 0.919871
vt 0.907146 0.941972
vt 0.892256 0.941960
vt 0.892273 0.931412
vt 0.907162 0.931424
vt 0.907146 0.952537
vt 0.892256 0.952525
vt 0.116596 0.847625
vt 0.117141 0.849658
vt 0.907162 0.960288
vt 0.892273 0.960277
vt 0.105667 0.847625
vt 0.105124 0.849658
vt 0.663714 0.945991
vt 0.678598 0.945991
vt 0.121598 0.909314
vt 0.136488 0.909314
vt 0.121606 0.898758
vt 0.136496 0.898758
vt 0.116596 0.806837
vt 0.117141 0.804811
vt 0.121629 0.891030
vt 0.136518 0.891030
vt 0.105667 0.806837
vt 0.105124 0.804811
vt 0.971361 0.929404
vt 0.975638 0.929404
vt 0.096202 0.812302
vt 0.094717 0.810819
vt 0.171295 0.915236
vt 0.171274 0.903633
vt 0.175550 0.903629
vt 0.175571 0.915232
vt 0.856747 0.826471
vt 0.854401 0.828881
vt 0.862753 0.836877
vt 0.859528 0.837763
vt 0.960652 0.146211
vt 0.945763 0.146224
vt 0.960671 0.156764
vt 0.945782 0.156778
s 1
usemtl M249_Gun
f 1/1/1 4/2/2 2/3/3
f 1/1/1 2/3/3 3/4/4
f 1/1/1 3/4/4 13/5/5
f 1/1/1 5/6/6 4/2/2
f 1/1/1 6/7/7 5/6/6
f 1/1/1 7/8/8 6/7/7
f 1/1/1 8/9/9 7/8/8
f 1/1/1 9/10/10 8/9/9
f 1/1/1 10/11/11 9/10/10
f 1/1/1 11/12/12 10/11/11
f 1/1/1 12/13/13 11/12/12
f 1/1/1 13/5/5 12/13/13
f 15/14/14 12/15/13 13/16/5 14/17/15
f 14/18/15 13/19/5 3/20/4 16/21/16
f 15/22/14 14/23/15 17/24/17 18/25/18
f 14/23/15 16/26/16 19/27/19 17/24/17
f 18/28/18 17/29/17 20/30/20 21/31/21
f 17/32/17 19/33/19 22/34/22 20/35/20
f 21/36/21 20/37/20 23/38/23 24/39/24
f 20/37/20 22/40/22 25/41/25 23/38/23
f 24/42/24 23/43/23 26/44/26 27/45/27
f 23/46/23 25/47/25 28/48/28 26/49/26
f 27/45/27 26/44/26 29/50/29 30/51/30
f 26/49/26 28/48/28 31/52/31 29/53/29
f 30/51/30 29/50/29 32/54/32 33/55/33
f 29/53/29 31/52/31 34/56/34 32/57/32
f 31/52/31 36/58/35 35/59/36 34/56/34
f 36/60/35 39/61/37 37/62/38 35/63/36
f 39/61/37 40/64/39 38/65/40 37/62/38
f 41/66/41 42/67/42 40/64/39 39/61/37
f 44/68/43 41/66/41 39/61/37 36/60/35
f 43/69/44 53/70/45 42/67/42 41/66/41
f 45/71/46 43/69/44 41/66/41 44/68/43
f 25/47/25 45/72/46 44/73/43 28/48/28
f 28/48/28 44/73/43 36/58/35 31/52/31
f 46/74/47 48/75/48 43/76/44 45/77/46
f 22/40/22 46/74/47 45/77/46 25/41/25
f 47/78/49 49/79/50 48/80/48 46/81/47
f 19/33/19 47/82/49 46/83/47 22/34/22
f 49/79/50 52/84/51 50/85/52 48/80/48
f 48/75/48 50/86/52 53/87/45 43/76/44
f 50/86/52 51/88/53 54/89/54 53/87/45
f 52/84/51 84/90/55 51/91/53 50/85/52
f 53/70/45 54/92/54 56/93/56 42/67/42
f 51/88/53 81/94/57 55/95/58 54/89/54
f 54/96/54 55/97/58 57/98/59 56/99/56
f 42/67/42 56/93/56 58/100/60 40/64/39
f 56/99/56 57/98/59 59/101/61 58/102/60
f 40/64/39 58/100/60 60/103/62 38/65/40
f 58/102/60 59/101/61 61/104/63 60/105/62
f 59/101/61 63/106/64 62/107/65 61/104/63
f 63/106/64 65/108/66 64/109/67 62/107/65
f 65/108/66 67/110/68 66/111/69 64/109/67
f 67/112/68 69/113/70 68/114/71 66/115/69
f 69/113/70 30/51/30 33/55/33 68/114/71
f 70/116/72 27/45/27 30/51/30 69/113/70
f 72/117/73 70/116/72 69/113/70 67/112/68
f 71/118/74 24/42/24 27/45/27 70/116/72
f 73/119/75 71/118/74 70/116/72 72/117/73
f 75/120/76 73/121/75 72/122/73 74/123/77
f 74/123/77 72/122/73 67/110/68 65/108/66
f 77/124/78 75/120/76 74/123/77 76/125/79
f 76/125/79 74/123/77 65/108/66 63/106/64
f 55/97/58 77/124/78 76/125/79 57/98/59
f 57/98/59 76/125/79 63/106/64 59/101/61
f 78/126/80 79/127/81 75/128/76 77/129/78
f 81/94/57 78/126/80 77/129/78 55/95/58
f 80/130/82 92/131/83 79/132/81 78/133/80
f 82/134/84 80/130/82 78/133/80 81/135/57
f 84/136/55 82/134/84 81/135/57 51/137/53
f 83/138/85 89/139/86 80/140/82 82/141/84
f 85/142/87 83/138/85 82/141/84 84/143/55
f 86/144/88 85/142/87 84/143/55 52/145/51
f 85/146/87 6/147/7 7/148/8 83/149/85
f 86/150/88 5/151/6 6/152/7 85/153/87
f 87/154/89 4/155/2 5/151/6 86/150/88
f 87/156/89 86/144/88 52/145/51 49/157/50
f 88/158/90 2/159/3 4/155/2 87/154/89
f 88/160/90 87/156/89 49/157/50 47/161/49
f 16/21/16 3/20/4 2/162/3 88/163/90
f 16/26/16 88/160/90 47/161/49 19/27/19
f 83/149/85 7/148/8 8/164/9 89/165/86
f 89/165/86 8/164/9 9/166/10 90/167/91
f 89/139/86 90/168/91 92/169/83 80/140/82
f 90/167/91 9/166/10 10/170/11 91/171/92
f 90/168/91 91/172/92 93/173/93 92/169/83
f 92/131/83 93/174/93 95/175/94 79/132/81
f 91/172/92 97/176/95 94/177/96 93/173/93
f 93/178/93 94/179/96 96/180/97 95/181/94
f 79/127/81 95/182/94 73/183/75 75/128/76
f 95/182/94 96/184/97 71/185/74 73/183/75
f 94/179/96 18/28/18 21/31/21 96/180/97
f 96/184/97 21/36/21 24/39/24 71/185/74
f 97/176/95 15/22/14 18/25/18 94/177/96
f 97/186/95 11/187/12 12/15/13 15/14/14
f 91/188/92 10/189/11 11/187/12 97/186/95
