# Blender 4.0.2
# www.blender.org
mtllib M249_part_06.mtl
o M249_part_06
v 0.021352 0.126969 0.284960
v 0.021352 0.142073 0.284960
v 0.015310 0.126197 0.288484
v 0.021352 0.126969 0.079809
v 0.020087 0.126969 0.284201
v 0.014009 0.126197 0.287790
v 0.019955 0.142073 0.284500
v 0.020074 0.126969 0.079809
v 0.020074 0.142073 0.079809
v 0.020074 0.148818 0.079809
v 0.021352 0.142073 0.079809
v 0.021352 0.148818 0.079809
v 0.021352 0.152975 0.079809
v 0.021352 0.148818 0.284960
v 0.021352 0.152975 0.284960
v 0.015310 0.148269 0.288484
v 0.019980 0.148818 0.284468
v 0.020037 0.151789 0.284185
v 0.014002 0.148269 0.287799
v 0.014367 0.150720 0.287608
v 0.013810 0.142072 0.328010
v 0.013739 0.140089 0.340665
v 0.013811 0.144373 0.327790
v 0.013810 0.136286 0.328010
v 0.015088 0.142072 0.328017
v 0.015088 0.145639 0.328017
v 0.015017 0.140089 0.340669
v 0.015088 0.136286 0.328017
v 0.015310 0.141456 0.288484
v 0.015088 0.123328 0.328017
v 0.015017 0.134632 0.340669
v 0.015017 0.122410 0.340669
v 0.015017 0.132958 0.354827
v 0.015017 0.122410 0.354827
v 0.015017 0.131998 0.393942
v 0.015017 0.137668 0.354827
v 0.015017 0.140572 0.354827
v 0.015017 0.136279 0.393942
v 0.015017 0.138919 0.393942
v 0.013739 0.136279 0.393942
v 0.013739 0.137668 0.354827
v 0.013739 0.138919 0.393942
v 0.013739 0.131998 0.393942
v 0.013739 0.122410 0.393942
v 0.013739 0.132958 0.354827
v 0.013739 0.122410 0.354827
v 0.013739 0.134632 0.340665
v 0.013739 0.122410 0.340665
v 0.013810 0.123328 0.328010
v 0.015017 0.122410 0.393942
v 0.011627 0.139952 0.354718
v 0.013745 0.142202 0.340446
v 0.005923 0.142175 0.342230
v 0.005941 0.142175 0.355276
v 0.000000 0.142175 0.342329
v 0.005934 0.142182 0.339981
v 0.005941 0.143453 0.342329
v 0.000000 0.143453 0.342329
v 0.005941 0.143453 0.355276
v 0.005941 0.143453 0.340147
v 0.005969 0.145639 0.327622
v 0.015017 0.143453 0.340669
v 0.000000 0.143453 0.340147
v 0.000000 0.145639 0.327622
v -0.005941 0.143453 0.340147
v -0.015017 0.143453 0.340669
v -0.005969 0.145639 0.327622
v -0.005941 0.143453 0.342329
v -0.005941 0.143453 0.355276
v -0.015017 0.140572 0.354827
v -0.005923 0.142175 0.342230
v -0.005941 0.142175 0.355276
v -0.005934 0.142182 0.339981
v -0.011627 0.139952 0.354718
v -0.013739 0.137668 0.354827
v -0.013739 0.138919 0.393942
v -0.013745 0.142202 0.340446
v -0.013811 0.144373 0.327790
v -0.013739 0.140089 0.340665
v -0.013810 0.142072 0.328010
v -0.013739 0.134632 0.340665
v -0.013739 0.122410 0.340665
v -0.013739 0.132958 0.354827
v -0.013810 0.136286 0.328010
v -0.014063 0.141456 0.287695
v -0.013810 0.123328 0.328010
v -0.015088 0.136286 0.328017
v -0.015088 0.123328 0.328017
v -0.015310 0.141456 0.288484
v -0.015017 0.134632 0.340669
v -0.015088 0.142072 0.328017
v -0.015017 0.140089 0.340669
v -0.015088 0.145639 0.328017
v -0.015310 0.148269 0.288484
v -0.021352 0.148818 0.284960
v -0.015310 0.152469 0.288484
v -0.014002 0.148269 0.287799
v -0.014367 0.150720 0.287608
v -0.019980 0.148818 0.284468
v -0.020037 0.151789 0.284185
v -0.020074 0.148818 0.079809
v -0.019955 0.142073 0.284500
v -0.020087 0.126969 0.284201
v -0.020074 0.142073 0.079809
v -0.021352 0.142073 0.284960
v -0.021352 0.126969 0.284960
v -0.021352 0.142073 0.079809
v -0.021352 0.126969 0.079809
v -0.021352 0.148818 0.079809
v -0.021352 0.152975 0.079809
v -0.021352 0.152975 0.284960
v -0.008447 0.152975 0.079809
v -0.020074 0.151697 0.079809
v -0.008447 0.151697 0.079809
v -0.008447 0.151697 0.284869
v 0.000000 0.151697 0.079809
v 0.000000 0.151697 0.284869
v 0.008447 0.151697 0.079809
v 0.000000 0.152975 0.079809
v 0.008447 0.152975 0.079809
v 0.000000 0.152975 0.284960
v 0.008447 0.152975 0.284960
v 0.000000 0.152469 0.288484
v -0.008447 0.152975 0.284960
v -0.006057 0.152469 0.288484
v 0.006057 0.152469 0.288484
v 0.015310 0.152469 0.288484
v 0.008447 0.151697 0.284869
v 0.020074 0.151697 0.079809
v 0.006058 0.151207 0.288284
v 0.000000 0.151207 0.288284
v 0.005973 0.144380 0.327403
v 0.000000 0.144380 0.327403
v 0.000000 0.142175 0.340036
v -0.005973 0.144380 0.327403
v -0.006058 0.151207 0.288284
v -0.020074 0.126969 0.079809
v -0.015310 0.126197 0.288484
v -0.014009 0.126197 0.287790
v -0.015017 0.137668 0.354827
v -0.015017 0.136279 0.393942
v -0.015017 0.132958 0.354827
v -0.015017 0.122410 0.354827
v -0.015017 0.131998 0.393942
v -0.015017 0.122410 0.393942
v -0.013739 0.131998 0.393942
v -0.013739 0.122410 0.393942
v -0.013739 0.136279 0.393942
v -0.013739 0.122410 0.354827
v -0.015017 0.122410 0.340669
v -0.015017 0.138919 0.393942
v 0.000000 0.142175 0.355276
v 0.000000 0.143453 0.355276
v 0.014063 0.141456 0.287695
v -0.034886 0.055475 0.306334
v -0.034886 0.055475 0.302523
v -0.034886 0.053569 0.303034
v -0.034886 0.052174 0.304429
v -0.034886 0.051664 0.306334
v -0.034886 0.052174 0.308240
v -0.034886 0.053569 0.309635
v -0.034886 0.055475 0.310146
v -0.034886 0.057381 0.309635
v -0.034886 0.058776 0.308240
v -0.034886 0.059286 0.306334
v -0.034886 0.058776 0.304429
v -0.034886 0.057381 0.303034
v 0.034652 0.057381 0.303034
v 0.034652 0.055475 0.306334
v 0.034652 0.058776 0.304429
v 0.034652 0.055475 0.302523
v 0.034652 0.053569 0.303034
v 0.034652 0.052174 0.304429
v 0.034652 0.051664 0.306334
v 0.034652 0.052174 0.308240
v 0.034652 0.053569 0.309635
v 0.034652 0.055475 0.310146
v 0.034652 0.057381 0.309635
v 0.034652 0.058776 0.308240
v 0.034652 0.059286 0.306334
v 0.017356 0.055507 0.306340
v 0.017356 0.055507 0.298237
v 0.017356 0.051455 0.299322
v 0.017356 0.048490 0.302288
v 0.017356 0.047404 0.306340
v 0.017356 0.048490 0.310391
v 0.017356 0.051455 0.313357
v 0.017356 0.055507 0.314442
v 0.017356 0.059558 0.313357
v 0.017356 0.062524 0.310391
v 0.017356 0.063610 0.306340
v 0.017356 0.062524 0.302100
v 0.017356 0.059558 0.299322
v 0.023719 0.059558 0.299322
v 0.023719 0.055507 0.306340
v 0.023719 0.062524 0.302100
v 0.023719 0.055507 0.298237
v 0.023719 0.051455 0.299322
v 0.023719 0.048490 0.302288
v 0.023719 0.047404 0.306340
v 0.023719 0.048490 0.310391
v 0.023719 0.051455 0.313357
v 0.023719 0.055507 0.314442
v 0.023719 0.059558 0.313357
v 0.023719 0.061611 0.316348
v 0.017356 0.061611 0.316348
v 0.023719 0.065643 0.314401
v 0.023719 0.061611 0.324822
v 0.017356 0.061611 0.324822
v 0.023719 0.065643 0.324741
v 0.017356 0.065643 0.324741
v 0.023719 0.069976 0.324658
v 0.017356 0.069976 0.324658
v 0.023719 0.069976 0.312411
v 0.023719 0.069809 0.307547
v 0.023719 0.062524 0.310391
v 0.017356 0.069976 0.312411
v 0.017356 0.069809 0.307547
v 0.000000 0.069976 0.312411
v 0.000000 0.069976 0.324658
v 0.000000 0.069809 0.307547
v 0.000000 0.069805 0.303308
v 0.000000 0.062524 0.302100
v 0.017356 0.069805 0.303308
v 0.023719 0.069805 0.303308
v 0.000000 0.063610 0.306340
v 0.000000 0.062524 0.310391
v 0.000000 0.059558 0.313357
v 0.000000 0.055507 0.314442
v 0.000000 0.061611 0.316348
v 0.000000 0.061611 0.324822
v 0.000000 0.065643 0.324741
v 0.023719 0.063610 0.306340
v -0.021179 0.069847 0.324868
v -0.021179 0.095359 0.324868
v -0.015471 0.069847 0.324868
v -0.021179 0.069847 0.314125
v -0.021179 0.095359 0.314125
v -0.021179 0.069847 0.309934
v -0.015471 0.069847 0.314125
v 0.015431 0.069847 0.314125
v -0.015471 0.069847 0.309934
v -0.015471 0.095359 0.309934
v 0.015431 0.069847 0.309934
v 0.015431 0.095359 0.309934
v 0.021140 0.069847 0.309934
v 0.021140 0.095359 0.309934
v 0.021140 0.069847 0.314125
v 0.021140 0.095359 0.314125
v 0.021140 0.069847 0.324868
v 0.021140 0.095359 0.324868
v 0.015431 0.069847 0.324868
v 0.015431 0.095359 0.324868
v 0.015431 0.095359 0.314125
v -0.015471 0.095359 0.324868
v 0.015431 0.116065 0.324868
v -0.015471 0.116065 0.324868
v 0.015431 0.116065 0.314125
v -0.015471 0.116065 0.314125
v -0.015471 0.095359 0.314125
v -0.021179 0.095359 0.309934
v -0.007822 0.015223 0.350566
v -0.007822 0.028943 0.350566
v -0.007822 0.015223 0.344956
v -0.003117 0.015223 0.350566
v -0.003117 0.028943 0.350566
v -0.003117 0.015223 0.344956
v 0.003117 0.015223 0.350566
v 0.007822 0.015223 0.350566
v 0.003117 0.015223 0.344956
v 0.003117 0.028943 0.350566
v 0.007822 0.028943 0.350566
v 0.003117 0.039162 0.348243
v 0.007822 0.039162 0.348243
v 0.003512 0.043132 0.344823
v -0.003117 0.039162 0.348243
v -0.007822 0.039162 0.348243
v -0.003512 0.043132 0.344823
v -0.007822 0.043132 0.344823
v -0.003512 0.045357 0.335652
v -0.003512 0.039430 0.342291
v -0.007822 0.039684 0.341375
v -0.003117 0.037424 0.343166
v -0.003512 0.040540 0.335652
v 0.003512 0.039430 0.342291
v 0.007822 0.039684 0.341375
v 0.003512 0.040540 0.335652
v 0.003117 0.037424 0.343166
v 0.007822 0.037424 0.343166
v 0.003117 0.028943 0.344956
v 0.007822 0.028943 0.344956
v -0.003117 0.028943 0.344956
v -0.007822 0.028943 0.344956
v -0.007822 0.037424 0.343166
v 0.007822 0.015223 0.344956
v 0.007822 0.040540 0.335652
v 0.003512 0.045357 0.335652
v 0.007822 0.045357 0.335652
v 0.007822 0.043132 0.344823
v -0.007822 0.040540 0.335652
v -0.007822 0.045357 0.335652
v 0.000000 0.088646 0.323847
v 0.000000 0.109305 0.323847
v 0.010329 0.106537 0.323847
v 0.017891 0.098975 0.323847
v 0.020658 0.088646 0.323847
v 0.017891 0.078317 0.323847
v 0.010329 0.070756 0.323847
v 0.000000 0.067988 0.323847
v -0.010329 0.070756 0.323847
v -0.017891 0.078317 0.323847
v -0.020658 0.088646 0.323847
v -0.017891 0.098975 0.323847
v -0.010329 0.106537 0.323847
v -0.010329 0.106537 0.331665
v -0.017891 0.098975 0.331665
v -0.010329 0.106537 0.338649
v 0.000000 0.109305 0.331665
v 0.010329 0.106537 0.331665
v 0.000000 0.109305 0.338649
v 0.000000 0.109305 0.344797
v 0.010329 0.106537 0.338649
v 0.010329 0.106537 0.344797
v 0.017891 0.098975 0.338649
v 0.017891 0.098975 0.344797
v 0.020658 0.088646 0.338649
v 0.017891 0.098975 0.331665
v 0.020658 0.088646 0.331665
v 0.017891 0.078317 0.331665
v 0.017891 0.078317 0.338649
v 0.010329 0.070756 0.331665
v 0.010329 0.070756 0.338649
v 0.011087 0.062552 0.331665
v 0.013505 0.059313 0.331665
v 0.011087 0.062552 0.323847
v 0.011087 0.062552 0.338649
v 0.011087 0.062552 0.344797
v 0.013505 0.059313 0.338649
v 0.013505 0.059313 0.344797
v 0.013507 0.053755 0.338649
v 0.013507 0.053755 0.344797
v 0.013510 0.048576 0.338816
v 0.013507 0.053755 0.331665
v 0.013507 0.053755 0.323847
v 0.013510 0.048576 0.331749
v 0.013510 0.048576 0.323847
v 0.013510 0.040101 0.331749
v 0.013510 0.040101 0.323847
v 0.013510 0.040101 0.338816
v 0.013510 0.029394 0.332173
v 0.013510 0.029394 0.323847
v 0.007465 0.029302 0.332173
v 0.015561 0.023142 0.332173
v 0.013510 0.029394 0.338140
v 0.013510 0.029394 0.344797
v 0.007465 0.029302 0.338140
v 0.015561 0.023142 0.338140
v 0.010882 0.023050 0.338140
v 0.010882 0.023050 0.332173
v 0.007465 0.029302 0.344797
v 0.007465 0.040010 0.338816
v 0.007465 0.048484 0.338816
v 0.007465 0.040010 0.345048
v 0.007465 0.040010 0.331749
v 0.007465 0.040010 0.323847
v 0.007465 0.048484 0.331749
v 0.007465 0.048484 0.323847
v 0.007463 0.053663 0.331665
v 0.007463 0.053663 0.323847
v 0.006625 0.059221 0.331665
v 0.007463 0.053663 0.338649
v 0.007463 0.053663 0.344797
v 0.006625 0.059221 0.338649
v 0.000000 0.062460 0.338649
v 0.006625 0.059221 0.344797
v 0.000000 0.062460 0.344797
v 0.006625 0.059221 0.348850
v 0.000000 0.062460 0.348850
v 0.012969 0.059313 0.348850
v 0.007463 0.053663 0.348850
v 0.012971 0.053755 0.348850
v 0.007465 0.048484 0.348850
v 0.012974 0.048576 0.348850
v 0.007465 0.048484 0.345048
v 0.013510 0.048576 0.345048
v 0.013510 0.040101 0.345048
v 0.012974 0.040101 0.348344
v 0.007465 0.040010 0.348344
v 0.012974 0.029394 0.345743
v 0.007465 0.029302 0.345743
v 0.011087 0.062552 0.348850
v 0.010329 0.070756 0.348850
v 0.000000 0.088646 0.348850
v 0.017891 0.078317 0.348850
v 0.010329 0.070756 0.344797
v 0.000000 0.067988 0.348850
v -0.010329 0.070756 0.348850
v -0.017891 0.078317 0.348850
v -0.010329 0.070756 0.344797
v -0.011087 0.062552 0.348850
v -0.012969 0.059313 0.348850
v -0.011087 0.062552 0.344797
v -0.013505 0.059313 0.344797
v -0.011087 0.062552 0.338649
v -0.013505 0.059313 0.338649
v -0.011087 0.062552 0.331665
v -0.010329 0.070756 0.338649
v -0.017891 0.078317 0.338649
v -0.010329 0.070756 0.331665
v -0.017891 0.078317 0.331665
v -0.020658 0.088646 0.331665
v -0.020658 0.088646 0.338649
v -0.020658 0.088646 0.344797
v -0.017891 0.098975 0.338649
v -0.017891 0.098975 0.344797
v -0.017891 0.098975 0.348850
v -0.010329 0.106537 0.344797
v -0.010329 0.106537 0.348850
v 0.000000 0.109305 0.348850
v 0.010329 0.106537 0.348850
v 0.017891 0.098975 0.348850
v 0.020658 0.088646 0.348850
v 0.020658 0.088646 0.344797
v 0.017891 0.078317 0.344797
v -0.020658 0.088646 0.348850
v -0.017891 0.078317 0.344797
v -0.011087 0.062552 0.323847
v -0.013505 0.059313 0.331665
v -0.013505 0.059313 0.323847
v -0.013503 0.053755 0.331665
v -0.013503 0.053755 0.323847
v -0.013501 0.048576 0.331749
v -0.013503 0.053755 0.338649
v -0.013503 0.053755 0.344797
v -0.013501 0.048576 0.338816
v -0.013501 0.048576 0.345048
v -0.013501 0.040133 0.338816
v -0.013501 0.040133 0.345048
v -0.013501 0.040133 0.331749
v -0.013501 0.029394 0.338140
v -0.013501 0.029394 0.344797
v -0.007140 0.029302 0.338140
v -0.013501 0.029394 0.332173
v -0.015572 0.023142 0.338140
v -0.010528 0.023050 0.338140
v -0.015572 0.023142 0.332173
v -0.010528 0.023050 0.332173
v -0.007140 0.029302 0.332173
v -0.007140 0.040041 0.331749
v -0.007140 0.029302 0.323847
v -0.007140 0.040041 0.323847
v -0.013501 0.029394 0.323847
v -0.013501 0.040133 0.323847
v -0.013501 0.048576 0.323847
v -0.007140 0.048484 0.323847
v -0.007143 0.053663 0.323847
v -0.007140 0.048484 0.331749
v -0.007140 0.048484 0.338816
v -0.007143 0.053663 0.331665
v -0.006309 0.059221 0.331665
v -0.007143 0.053663 0.338649
v -0.007143 0.053663 0.344797
v -0.006309 0.059221 0.338649
v -0.006309 0.059221 0.344797
v -0.006309 0.059221 0.348850
v -0.007143 0.053663 0.348850
v -0.012968 0.053755 0.348850
v -0.007140 0.048484 0.348850
v -0.012965 0.048576 0.348850
v -0.007140 0.048484 0.345048
v -0.007140 0.040041 0.345048
v -0.007140 0.040041 0.348344
v -0.007140 0.040041 0.338816
v -0.007140 0.029302 0.344797
v -0.007140 0.029302 0.345743
v -0.012965 0.029394 0.345743
v -0.012965 0.040133 0.348344
v 0.000000 0.062460 0.331665
v -0.006309 0.059221 0.323847
v 0.000000 0.062460 0.323847
v 0.006625 0.059221 0.323847
v 0.013505 0.059313 0.323847
v 0.007465 0.029302 0.323847
v -0.011339 0.055475 0.330892
v 0.011105 0.055475 0.330892
v -0.011339 0.058197 0.331622
v -0.011339 0.052753 0.331622
v 0.011105 0.052753 0.331622
v -0.011339 0.050760 0.333614
v 0.011105 0.050760 0.333614
v -0.011339 0.050031 0.336336
v 0.011105 0.050031 0.336336
v -0.011339 0.050760 0.339058
v 0.011105 0.050760 0.339058
v -0.011339 0.052753 0.341051
v 0.011105 0.052753 0.341051
v -0.011339 0.055475 0.341780
v 0.011105 0.055475 0.341780
v -0.011339 0.058197 0.341051
v 0.011105 0.058197 0.341051
v -0.011339 0.060190 0.339058
v 0.011105 0.060190 0.339058
v -0.011339 0.060919 0.336336
v 0.011105 0.060919 0.336336
v -0.011339 0.060190 0.333614
v 0.011105 0.060190 0.333614
v 0.011105 0.058197 0.331622
v 0.000000 0.133516 0.341188
v 0.000000 0.133516 0.355525
v 0.005910 0.131932 0.341188
v -0.005910 0.131932 0.341188
v 0.000000 0.132991 0.337667
v -0.005648 0.131478 0.337667
v 0.005648 0.131478 0.337667
v 0.000000 0.133728 0.333476
v 0.006016 0.132116 0.333476
v -0.006016 0.132116 0.333476
v 0.000000 0.133728 0.067189
v 0.006016 0.132116 0.067189
v -0.006016 0.132116 0.067189
v -0.010421 0.127711 0.067189
v -0.010421 0.127711 0.333476
v -0.012033 0.121695 0.067189
v -0.012033 0.121695 0.333476
v -0.010421 0.115678 0.067189
v -0.010421 0.115678 0.333476
v -0.006016 0.111274 0.067189
v -0.006016 0.111274 0.333476
v 0.000000 0.109662 0.067189
v 0.000000 0.109662 0.333476
v 0.006016 0.111274 0.067189
v 0.006016 0.111274 0.333476
v 0.010421 0.115678 0.067189
v 0.010421 0.115678 0.333476
v 0.012033 0.121695 0.067189
v 0.012033 0.121695 0.333476
v 0.010421 0.127711 0.067189
v 0.010421 0.127711 0.333476
v 0.009783 0.127343 0.337667
v 0.011297 0.121695 0.337667
v 0.010237 0.127605 0.341188
v 0.010237 0.127605 0.355525
v 0.011821 0.121695 0.341188
v 0.011821 0.121695 0.355525
v 0.010237 0.115784 0.341188
v 0.010237 0.115784 0.355525
v 0.005910 0.111458 0.341188
v 0.009783 0.116047 0.337667
v 0.005648 0.111912 0.337667
v 0.000000 0.110398 0.337667
v -0.005648 0.111912 0.337667
v 0.000000 0.109874 0.341188
v 0.000000 0.109874 0.355525
v -0.005910 0.111458 0.341188
v -0.005910 0.111458 0.355525
v -0.010237 0.115784 0.341188
v -0.010237 0.115784 0.355525
v -0.011821 0.121695 0.341188
v -0.009783 0.116047 0.337667
v -0.011297 0.121695 0.337667
v -0.009783 0.127343 0.337667
v -0.010237 0.127605 0.341188
v -0.010237 0.127605 0.355525
v -0.011821 0.121695 0.355525
v -0.005910 0.131932 0.355525
v 0.005910 0.111458 0.355525
v 0.005910 0.131932 0.355525
vn 0.5774 -0.5774 -0.5774
vn 0.7071 -0.0000 -0.7071
vn 0.7466 0.1899 0.6376
vn 0.7073 -0.5961 0.3799
vn 0.4173 0.8247 0.3818
vn 0.5150 -0.8381 0.1800
vn -0.6660 -0.6110 -0.4278
vn -0.4538 -0.8268 -0.3324
vn -0.5765 -0.5790 -0.5766
vn -0.6984 0.6166 -0.3633
vn -0.8851 0.4581 0.0815
vn -0.7070 -0.0009 -0.7072
vn -0.8808 -0.4717 -0.0417
vn -0.7069 0.0041 -0.7073
vn 0.7631 -0.1891 0.6180
vn 0.5774 0.5774 -0.5774
vn -0.3008 -0.2989 -0.9057
vn 0.6803 0.6136 0.4008
vn 0.4339 0.8056 0.4034
vn 0.5321 -0.8314 0.1598
vn -0.6983 -0.5847 -0.4129
vn -0.6826 -0.6254 -0.3780
vn -0.4558 -0.7464 -0.4849
vn -0.8873 -0.2866 -0.3614
vn -0.7239 -0.6792 -0.1213
vn 0.8905 -0.2983 -0.3435
vn -0.9195 0.2929 -0.2623
vn -1.0000 -0.0000 -0.0028
vn -0.9904 -0.1307 -0.0441
vn -0.6455 -0.7509 -0.1393
vn 0.9189 0.2987 -0.2576
vn 0.7046 0.6985 0.1253
vn 0.7074 0.6958 0.1240
vn 1.0000 -0.0000 0.0028
vn 0.7107 -0.7019 -0.0467
vn 0.6985 -0.7152 -0.0240
vn 1.0000 -0.0000 -0.0000
vn 0.7071 -0.7071 -0.0000
vn 0.7071 -0.0000 0.7071
vn 0.5774 -0.5774 0.5774
vn 0.6631 0.7341 0.1463
vn 0.5292 0.5859 0.6137
vn -0.6590 0.3838 0.6469
vn -0.6840 -0.1371 0.7165
vn -0.7071 -0.0000 0.7071
vn -1.0000 -0.0000 -0.0000
vn -0.9785 -0.2042 -0.0282
vn -0.9474 0.2819 0.1513
vn -0.5774 -0.5774 0.5774
vn -0.7071 -0.7071 -0.0000
vn -0.6996 -0.7140 -0.0278
vn -0.7038 -0.7082 -0.0551
vn -0.0041 -0.9926 -0.1217
vn 0.1436 -0.9869 0.0733
vn 0.1538 0.9761 0.1538
vn 0.5788 0.5748 0.5784
vn 0.5763 -0.5798 0.5759
vn -0.0000 -0.7071 0.7071
vn -0.0000 -1.0000 -0.0008
vn -0.0000 -0.9962 -0.0866
vn 0.0054 0.9916 0.1295
vn -0.0000 0.9963 0.0863
vn -0.0000 1.0000 -0.0000
vn -0.0000 0.7071 0.7071
vn -0.0030 0.9852 0.1715
vn -0.0000 0.9851 0.1719
vn 0.0030 0.9852 0.1715
vn -0.0054 0.9916 0.1295
vn -0.1538 0.9761 0.1538
vn -0.7074 0.6958 0.1240
vn -0.6631 0.7341 0.1463
vn -0.7046 0.6985 0.1253
vn -0.5788 0.5748 0.5784
vn -0.1436 -0.9869 0.0733
vn -0.5763 -0.5798 0.5759
vn 0.9474 0.2819 0.1513
vn 0.0041 -0.9926 -0.1217
vn 0.6455 -0.7509 -0.1393
vn 0.9904 -0.1307 -0.0441
vn 0.9785 -0.2042 -0.0282
vn 0.6590 0.3838 0.6469
vn 0.6840 -0.1371 0.7165
vn -0.5292 0.5859 0.6137
vn 0.7239 -0.6792 -0.1213
vn 0.0061 -0.9855 -0.1696
vn 0.8873 -0.2866 -0.3614
vn 0.9195 0.2929 -0.2623
vn 1.0000 -0.0000 -0.0028
vn 0.7038 -0.7082 -0.0551
vn 0.6996 -0.7140 -0.0278
vn -0.4173 0.8247 0.3818
vn -0.9189 0.2987 -0.2576
vn 0.6984 0.6166 -0.3633
vn 0.6660 -0.6110 -0.4278
vn -0.8905 -0.2983 -0.3435
vn -0.7107 -0.7019 -0.0467
vn -0.6985 -0.7152 -0.0240
vn -1.0000 -0.0000 0.0028
vn -0.5150 -0.8381 0.1800
vn -0.5321 -0.8314 0.1598
vn -0.4339 0.8056 0.4034
vn 0.6983 -0.5847 -0.4129
vn -0.7631 -0.1891 0.6180
vn 0.8808 -0.4717 -0.0417
vn -0.6803 0.6136 0.4008
vn 0.4558 -0.7464 -0.4849
vn 0.6826 -0.6254 -0.3780
vn 0.7069 0.0041 -0.7073
vn 0.3008 -0.2989 -0.9057
vn 0.7070 -0.0009 -0.7072
vn 0.8851 0.4581 0.0815
vn -0.7466 0.1899 0.6376
vn 0.5765 -0.5790 -0.5766
vn 0.4538 -0.8268 -0.3324
vn -0.7073 -0.5961 0.3799
vn -0.5774 -0.5774 -0.5774
vn -0.7071 -0.0000 -0.7071
vn -0.5774 0.5774 -0.5774
vn -0.0000 0.9975 0.0712
vn -0.0000 0.7071 -0.7071
vn -0.0014 -0.7071 -0.7071
vn 0.0124 -0.9931 -0.1165
vn -0.0000 -0.7071 -0.7071
vn -0.0000 -0.9975 -0.0712
vn 0.0014 -0.7071 -0.7071
vn -0.0124 -0.9931 -0.1165
vn -0.0000 0.9876 0.1570
vn -0.0009 0.9876 0.1568
vn 0.0009 0.9876 0.1568
vn -0.0140 -0.9849 -0.1727
vn -0.0000 -0.9876 -0.1570
vn -0.0061 -0.9855 -0.1696
vn -0.0000 -0.9851 -0.1720
vn 0.0140 -0.9849 -0.1727
vn -0.6532 0.3786 -0.6557
vn -0.6532 -0.0000 -0.7572
vn -0.6532 -0.3786 -0.6557
vn -0.6532 -0.6557 -0.3786
vn -0.6532 -0.7572 -0.0000
vn -0.6532 -0.6557 0.3786
vn -0.6532 -0.3786 0.6557
vn -0.6532 -0.0000 0.7572
vn -0.6532 0.3786 0.6557
vn -0.6532 0.6557 0.3786
vn -0.6532 0.7572 -0.0000
vn -0.6532 0.6557 -0.3786
vn 0.6532 0.6557 -0.3786
vn 0.6532 0.3786 -0.6557
vn 0.6532 -0.0000 -0.7572
vn 0.6532 -0.3786 -0.6557
vn 0.6532 -0.6557 -0.3786
vn 0.6532 -0.7572 -0.0000
vn 0.6532 -0.6557 0.3786
vn 0.6532 -0.3786 0.6557
vn 0.6532 -0.0000 0.7572
vn 0.6532 0.3786 0.6557
vn 0.6532 0.6557 0.3786
vn 0.6532 0.7572 -0.0000
vn -0.6563 0.3665 -0.6595
vn -0.6021 -0.4023 0.6897
vn -0.6543 -0.7563 -0.0042
vn -0.5552 0.0143 -0.8316
vn 0.7786 0.2778 -0.5628
vn 0.6563 0.3665 -0.6595
vn 0.7117 -0.1956 0.6747
vn 0.8673 -0.4010 0.2949
vn -0.0000 -0.8056 0.5925
vn 0.5763 -0.5720 0.5837
vn -0.0000 -0.6999 0.7142
vn 0.7072 0.0139 0.7069
vn -0.0000 0.0197 0.9998
vn 0.5784 0.5823 0.5713
vn -0.0000 0.7139 0.7003
vn 0.7033 0.7108 -0.0122
vn -0.0000 0.9999 -0.0171
vn 0.7109 0.7032 -0.0124
vn -0.0000 0.9998 -0.0176
vn -0.0000 0.7624 -0.6471
vn -0.0000 -0.7370 -0.6759
vn 0.5865 0.6175 -0.5241
vn -0.0000 -1.0000 -0.0056
vn -0.0000 -0.8660 -0.5000
vn -0.0000 -0.5000 -0.8660
vn -0.0000 -0.9998 -0.0204
vn -0.5774 0.5774 0.5774
vn -0.7071 0.7071 -0.0000
vn -0.3015 0.3015 0.9045
vn -0.0000 -1.0000 -0.0000
vn 0.7071 0.7071 -0.0000
vn 0.5774 0.5774 0.5774
vn 0.3015 0.3015 0.9045
vn 0.3015 0.9045 -0.3015
vn -0.3015 0.9045 -0.3015
vn -0.0000 0.1115 0.9938
vn -0.6828 0.0815 0.7260
vn -0.7312 -0.0708 -0.6784
vn 0.6828 0.0815 0.7260
vn 0.6566 0.3398 0.6734
vn -0.0000 0.4505 0.8928
vn 0.6443 0.6524 0.3990
vn -0.2494 0.9208 0.2999
vn 0.2494 0.9208 0.2999
vn -0.6566 0.3398 0.6734
vn -0.6443 0.6524 0.3990
vn 0.6470 0.7410 0.1798
vn -0.6470 0.7410 0.1798
vn 0.7378 -0.6666 -0.1060
vn 0.4034 -0.3787 -0.8330
vn -0.4034 -0.3787 -0.8330
vn -0.7969 -0.5209 -0.3060
vn -0.7421 -0.6620 -0.1053
vn 0.0160 -0.3340 -0.9424
vn -0.7487 -0.2459 -0.6156
vn -0.0160 -0.3340 -0.9424
vn 0.7487 -0.2459 -0.6156
vn 0.7969 -0.5209 -0.3060
vn -0.7378 -0.6666 -0.1060
vn 0.7421 -0.6620 -0.1053
vn 0.7312 -0.0708 -0.6784
vn -0.0000 -0.1038 -0.9946
vn -0.0000 -0.0000 -1.0000
vn -0.3786 0.6557 -0.6532
vn -0.0000 0.7572 -0.6532
vn 0.3786 0.6557 -0.6532
vn 0.6557 0.3786 -0.6532
vn 0.7572 -0.0000 -0.6532
vn 0.6557 -0.3786 -0.6532
vn 0.5433 -0.1962 -0.8163
vn -0.5433 -0.1962 -0.8163
vn -0.6557 -0.3786 -0.6532
vn -0.7572 -0.0000 -0.6532
vn -0.6557 0.3786 -0.6532
vn -0.8660 0.5000 -0.0000
vn -0.5000 0.8660 -0.0000
vn 0.5000 0.8660 -0.0000
vn 0.8660 0.5000 -0.0000
vn 0.8660 -0.5000 -0.0000
vn 0.9405 -0.3397 -0.0000
vn 0.9335 0.3585 -0.0000
vn 0.5917 0.2272 -0.7735
vn 0.9490 0.3152 -0.0000
vn 0.7271 0.2415 -0.6426
vn 0.9384 0.3454 0.0142
vn 0.9531 0.2988 0.0487
vn 0.9978 0.0012 0.0657
vn 1.0000 0.0004 -0.0000
vn 0.9007 -0.2717 0.3389
vn 1.0000 0.0002 -0.0000
vn 0.7071 0.0003 -0.7071
vn 0.7072 0.0002 -0.7071
vn 0.9070 -0.2105 -0.3647
vn 0.5813 -0.5725 -0.5782
vn 0.9070 -0.2105 0.3647
vn -0.8686 -0.4490 -0.2098
vn -0.5733 -0.5821 -0.5766
vn 0.6739 -0.4781 -0.5633
vn -0.3987 -0.6875 -0.6069
vn 0.6739 -0.4781 0.5633
vn 0.7575 -0.6462 0.0928
vn -0.7016 -0.7126 0.0016
vn -0.8686 -0.4490 0.2098
vn 0.8885 0.2599 0.3781
vn -0.3987 -0.6875 0.6069
vn -0.9063 0.3005 0.2972
vn -1.0000 -0.0002 -0.0000
vn -0.9027 -0.3027 0.3058
vn -0.7071 -0.0002 -0.7072
vn -0.9972 -0.0749 -0.0000
vn -0.6876 -0.0517 -0.7243
vn -0.8064 -0.5914 -0.0000
vn -0.4522 -0.3316 -0.8280
vn 0.0098 -1.0000 -0.0000
vn -0.4522 -0.3316 0.8280
vn 0.0056 -0.5679 0.8231
vn -0.6876 -0.0517 0.7243
vn 0.6916 0.2142 0.6898
vn 0.6029 0.2125 0.7690
vn 0.6584 0.0014 0.7527
vn -0.5729 -0.5823 0.5768
vn 0.5382 -0.5793 0.6121
vn 0.4905 0.5091 0.7072
vn 0.4815 -0.6881 0.5429
vn -0.5696 0.5041 0.6492
vn -0.5856 -0.6381 0.4999
vn 0.5433 -0.1962 0.8163
vn -0.0000 -0.0000 1.0000
vn 0.6557 -0.3786 0.6532
vn -0.5433 -0.1962 0.8163
vn -0.6029 0.2125 0.7690
vn -0.6557 -0.3786 0.6532
vn -0.9405 -0.3397 -0.0000
vn -0.8660 -0.5000 -0.0000
vn -0.9383 0.3454 0.0142
vn -0.6917 0.2140 0.6898
vn 0.4585 -0.3291 0.8255
vn -0.9532 0.2984 0.0488
vn -0.9335 0.3585 -0.0000
vn -0.9491 0.3149 -0.0000
vn -0.5917 0.2272 -0.7735
vn -0.6557 0.3786 0.6532
vn -0.3786 0.6557 0.6532
vn -0.7572 -0.0000 0.6532
vn -0.0000 0.7572 0.6532
vn 0.3786 0.6557 0.6532
vn 0.6557 0.3786 0.6532
vn 0.7572 -0.0000 0.6532
vn -0.7273 0.2413 -0.6426
vn -0.7071 -0.0003 -0.7071
vn -1.0000 -0.0004 -0.0000
vn -0.9978 0.0004 0.0657
vn -0.9005 -0.2723 0.3390
vn -0.8886 0.2599 0.3779
vn -0.9069 -0.2097 0.3655
vn -0.7573 -0.6465 0.0927
vn -0.9069 -0.2097 -0.3655
vn 0.8690 -0.4479 0.2102
vn 0.7019 -0.7123 0.0015
vn -0.6743 -0.4777 0.5631
vn 0.4004 -0.6866 0.6068
vn -0.6743 -0.4777 -0.5631
vn 0.4004 -0.6866 -0.6068
vn 0.8690 -0.4479 -0.2102
vn 0.5735 -0.5819 -0.5766
vn -0.5811 -0.5728 -0.5781
vn 0.6876 -0.0511 -0.7243
vn 0.9972 -0.0741 -0.0000
vn 0.8123 -0.5832 -0.0000
vn 0.4585 -0.3291 -0.8255
vn 0.9029 -0.3022 0.3056
vn 0.6876 -0.0511 0.7243
vn -0.6584 0.0008 0.7527
vn -0.5377 -0.5798 0.6121
vn 0.5734 -0.5818 0.5768
vn 0.9062 0.3005 0.2974
vn -0.4907 0.5091 0.7071
vn 0.5694 0.5046 0.6489
vn 0.5858 -0.6378 0.5001
vn -0.4812 -0.6883 0.5430
vn 0.0056 -0.5679 -0.8231
vn -0.0000 0.5000 -0.8660
vn -0.0000 -0.8660 0.5000
vn -0.0000 -0.5000 0.8660
vn -0.0000 0.5000 0.8660
vn -0.0000 0.8660 0.5000
vn -0.0000 0.8660 -0.5000
vn -0.4987 0.8637 -0.0730
vn -0.0000 0.9973 -0.0730
vn 0.4987 0.8637 -0.0730
vn 0.5000 0.8659 0.0134
vn -0.0000 0.9999 0.0134
vn -0.5000 0.8659 0.0134
vn -0.0000 0.9963 0.0856
vn -0.4982 0.8628 0.0856
vn 0.4982 0.8628 0.0856
vn -0.8628 0.4982 0.0856
vn -0.9963 -0.0000 0.0856
vn -0.8628 -0.4982 0.0856
vn -0.4982 -0.8628 0.0856
vn -0.5000 -0.8660 -0.0000
vn -0.0000 -0.9963 0.0856
vn 0.4982 -0.8628 0.0856
vn 0.5000 -0.8660 -0.0000
vn 0.8628 -0.4982 0.0856
vn 0.9963 -0.0000 0.0856
vn 0.8628 0.4982 0.0856
vn 0.8659 0.5000 0.0134
vn 0.9999 -0.0000 0.0134
vn 0.8637 0.4987 -0.0730
vn 0.9973 -0.0000 -0.0730
vn 0.8637 -0.4987 -0.0730
vn 0.8659 -0.5000 0.0134
vn 0.4987 -0.8637 -0.0730
vn 0.5000 -0.8659 0.0134
vn -0.0000 -0.9999 0.0134
vn -0.0000 -0.9973 -0.0730
vn -0.5000 -0.8659 0.0134
vn -0.4987 -0.8637 -0.0730
vn -0.8637 -0.4987 -0.0730
vn -0.8659 -0.5000 0.0134
vn -0.9973 -0.0000 -0.0730
vn -0.9999 -0.0000 0.0134
vn -0.8659 0.5000 0.0134
vn -0.8637 0.4987 -0.0730
vt 0.708206 0.385972
vt 0.721785 0.385972
vt 0.721785 0.570415
vt 0.708206 0.570415
vt 0.109368 0.995084
vt 0.109368 0.981504
vt 0.114806 0.982061
vt 0.114806 0.995780
vt 0.172898 0.373686
vt 0.178236 0.370358
vt 0.179423 0.370949
vt 0.174054 0.374335
vt 0.178274 0.558051
vt 0.179423 0.558017
vt 0.867071 0.995594
vt 0.861679 0.996274
vt 0.861839 0.982556
vt 0.867071 0.982017
vt 0.731436 0.191528
vt 0.731436 0.375288
vt 0.717856 0.375558
vt 0.717856 0.191528
vt 0.928287 0.865843
vt 0.914707 0.865840
vt 0.914707 0.864691
vt 0.928287 0.864694
vt 0.711792 0.375529
vt 0.711792 0.191528
vt 0.934350 0.865844
vt 0.934350 0.864695
vt 0.727849 0.385972
vt 0.727849 0.570415
vt 0.938088 0.865845
vt 0.936939 0.864696
vt 0.731587 0.385972
vt 0.731587 0.570416
vt 0.960762 0.988160
vt 0.964486 0.987847
vt 0.964486 0.993304
vt 0.960724 0.993620
vt 0.970282 0.476896
vt 0.965362 0.480815
vt 0.964110 0.480374
vt 0.968997 0.476636
vt 0.578344 0.138195
vt 0.578345 0.132131
vt 0.579578 0.132131
vt 0.579598 0.138195
vt 0.709121 0.375275
vt 0.709203 0.191528
vt 0.994721 0.334882
vt 0.994721 0.340208
vt 0.992558 0.339670
vt 0.992064 0.334575
vt 0.830558 0.020464
vt 0.833533 0.056922
vt 0.831483 0.056577
vt 0.828373 0.020134
vt 0.970282 0.516032
vt 0.969144 0.516191
vt 0.838721 0.057294
vt 0.839392 0.068749
vt 0.834498 0.068398
vt 0.832617 0.068066
vt 0.578344 0.159169
vt 0.578344 0.153967
vt 0.579492 0.153967
vt 0.579492 0.159169
vt 0.479891 0.850368
vt 0.476125 0.850641
vt 0.479677 0.814748
vt 0.482875 0.814516
vt 0.480814 0.803261
vt 0.483830 0.803042
vt 0.488064 0.814139
vt 0.488724 0.802687
vt 0.970650 0.565625
vt 0.965731 0.600938
vt 0.964519 0.601479
vt 0.969512 0.565467
vt 0.499684 0.848932
vt 0.486001 0.849924
vt 0.499684 0.813296
vt 0.499684 0.801892
vt 0.489303 0.789882
vt 0.498763 0.789196
vt 0.485080 0.790189
vt 0.487620 0.754746
vt 0.496218 0.754122
vt 0.483780 0.755024
vt 0.482477 0.790377
vt 0.481414 0.755196
vt 0.345112 0.310829
vt 0.345112 0.308457
vt 0.346261 0.308457
vt 0.346261 0.310829
vt 0.345112 0.314679
vt 0.346261 0.314679
vt 0.839983 0.081557
vt 0.838332 0.116695
vt 0.834492 0.116420
vt 0.835759 0.081254
vt 0.832126 0.116250
vt 0.833720 0.081016
vt 0.345112 0.323299
vt 0.346261 0.323299
vt 0.849443 0.082234
vt 0.846930 0.117311
vt 0.850353 0.069534
vt 0.850342 0.058126
vt 0.177131 0.323444
vt 0.176760 0.310720
vt 0.177909 0.310686
vt 0.178280 0.323413
vt 0.177399 0.334817
vt 0.178548 0.334790
vt 0.850353 0.021873
vt 0.836675 0.020808
vt 0.175735 0.275568
vt 0.176884 0.275535
vt 0.481828 0.282661
vt 0.481827 0.247468
vt 0.484875 0.247385
vt 0.482977 0.282661
vt 0.192136 0.289286
vt 0.185114 0.288868
vt 0.187018 0.276030
vt 0.192146 0.287264
vt 0.489986 0.236167
vt 0.490003 0.236108
vt 0.346261 0.349960
vt 0.346261 0.361600
vt 0.345112 0.361600
vt 0.345112 0.349871
vt 0.192130 0.275535
vt 0.197471 0.275535
vt 0.197471 0.287175
vt 0.197471 0.289236
vt 0.489986 0.234206
vt 0.495327 0.234206
vt 0.495327 0.236167
vt 0.495327 0.247803
vt 0.489986 0.247803
vt 0.481826 0.234675
vt 0.489959 0.222897
vt 0.495326 0.222897
vt 0.481761 0.223252
vt 0.500692 0.222897
vt 0.500668 0.234206
vt 0.500668 0.236166
vt 0.508828 0.234674
vt 0.508829 0.247468
vt 0.508891 0.223252
vt 0.346261 0.338142
vt 0.346261 0.349782
vt 0.345112 0.338142
vt 0.500668 0.247803
vt 0.505782 0.247384
vt 0.500652 0.236108
vt 0.202806 0.289286
vt 0.202796 0.287264
vt 0.202812 0.275535
vt 0.207925 0.276031
vt 0.209828 0.288868
vt 0.834086 0.537018
vt 0.832205 0.537350
vt 0.833311 0.524401
vt 0.835347 0.524162
vt 0.831713 0.489166
vt 0.834080 0.488996
vt 0.508830 0.282661
vt 0.507681 0.282661
vt 0.209888 0.300252
vt 0.202841 0.300600
vt 0.833121 0.548494
vt 0.831071 0.548839
vt 0.838309 0.548122
vt 0.838980 0.536667
vt 0.839571 0.523859
vt 0.849930 0.547290
vt 0.849941 0.535882
vt 0.849031 0.523182
vt 0.966409 0.933562
vt 0.971328 0.968874
vt 0.970190 0.969032
vt 0.965197 0.933020
vt 0.849941 0.583543
vt 0.836263 0.584608
vt 0.579492 0.159169
vt 0.579492 0.164371
vt 0.578344 0.164371
vt 0.578344 0.159169
vt 0.840669 0.323443
vt 0.840669 0.334847
vt 0.829709 0.334052
vt 0.829049 0.322600
vt 0.840669 0.287808
vt 0.826986 0.286815
vt 0.824816 0.333697
vt 0.823861 0.322223
vt 0.821799 0.333478
vt 0.820662 0.321991
vt 0.820877 0.286371
vt 0.817111 0.286098
vt 0.970659 0.522641
vt 0.965739 0.557858
vt 0.964487 0.558299
vt 0.969521 0.522482
vt 0.970659 0.561777
vt 0.969374 0.562037
vt 0.634111 0.993789
vt 0.634072 0.988339
vt 0.637835 0.988656
vt 0.637835 0.994103
vt 0.830146 0.584952
vt 0.827960 0.585282
vt 0.082184 0.994402
vt 0.079528 0.994713
vt 0.080021 0.989473
vt 0.082184 0.988933
vt 0.711806 0.184030
vt 0.709217 0.184030
vt 0.709135 0.000283
vt 0.711806 0.000029
vt 0.717869 0.184030
vt 0.717870 0.000000
vt 0.541195 0.569476
vt 0.541196 0.575539
vt 0.539940 0.575539
vt 0.539960 0.569476
vt 0.731449 0.184030
vt 0.731449 0.000270
vt 0.993422 0.716239
vt 0.993422 0.729817
vt 0.988052 0.729286
vt 0.987875 0.715568
vt 0.971328 0.929633
vt 0.970026 0.929404
vt 0.483001 0.982514
vt 0.488428 0.981817
vt 0.488428 0.995536
vt 0.483001 0.996094
vt 0.106570 0.707352
vt 0.106570 0.522909
vt 0.120150 0.522909
vt 0.120150 0.707352
vt 0.126214 0.522909
vt 0.126214 0.707352
vt 0.914707 0.827457
vt 0.928287 0.827460
vt 0.928287 0.828609
vt 0.914707 0.828606
vt 0.934350 0.827462
vt 0.934350 0.828610
vt 0.129952 0.522909
vt 0.129952 0.707352
vt 0.938088 0.827462
vt 0.936939 0.828611
vt 0.514519 0.000000
vt 0.514519 0.184380
vt 0.502917 0.184380
vt 0.502917 0.000000
vt 0.938088 0.839061
vt 0.936939 0.839061
vt 0.215518 0.523221
vt 0.205065 0.523221
vt 0.205065 0.338860
vt 0.215485 0.339474
vt 0.197470 0.523221
vt 0.197471 0.338860
vt 0.938088 0.846654
vt 0.936939 0.846653
vt 0.189876 0.523221
vt 0.189876 0.338860
vt 0.938088 0.854246
vt 0.936939 0.854246
vt 0.487728 0.000000
vt 0.495322 0.000000
vt 0.495322 0.184380
vt 0.487728 0.184381
vt 0.495322 0.187560
vt 0.489877 0.187560
vt 0.500768 0.187560
vt 0.509087 0.187560
vt 0.476125 0.184381
vt 0.481558 0.187560
vt 0.476125 0.000001
vt 0.179423 0.523221
vt 0.179456 0.339474
vt 0.192024 0.335788
vt 0.197471 0.335788
vt 0.184553 0.336394
vt 0.185054 0.300252
vt 0.192101 0.300600
vt 0.197471 0.300600
vt 0.202917 0.335788
vt 0.210388 0.336394
vt 0.853315 0.410214
vt 0.858692 0.225849
vt 0.859840 0.225882
vt 0.854472 0.409564
vt 0.858653 0.413541
vt 0.859840 0.412951
vt 0.857816 0.449082
vt 0.858965 0.449109
vt 0.826065 0.346550
vt 0.823462 0.346361
vt 0.830289 0.346857
vt 0.828604 0.381993
vt 0.824765 0.381715
vt 0.822399 0.381543
vt 0.839748 0.347543
vt 0.837202 0.382617
vt 0.346261 0.329521
vt 0.346261 0.338142
vt 0.345112 0.338142
vt 0.345112 0.329521
vt 0.346261 0.325672
vt 0.345112 0.325672
vt 0.837919 0.488721
vt 0.846518 0.488105
vt 0.346261 0.323299
vt 0.856152 0.508331
vt 0.857177 0.473180
vt 0.858326 0.473213
vt 0.857301 0.508365
vt 0.857549 0.460456
vt 0.858697 0.460486
vt 0.539940 0.528472
vt 0.539940 0.523131
vt 0.541089 0.523131
vt 0.541089 0.528472
vt 0.539940 0.533813
vt 0.541089 0.533813
vt 0.970650 0.604867
vt 0.969348 0.605096
vt 0.943299 0.056835
vt 0.944186 0.060144
vt 0.942412 0.060144
vt 0.940876 0.059258
vt 0.939989 0.057721
vt 0.939989 0.055948
vt 0.940876 0.054412
vt 0.942412 0.053525
vt 0.944186 0.053525
vt 0.945722 0.054412
vt 0.946609 0.055948
vt 0.946609 0.057721
vt 0.945722 0.059258
vt 0.396705 0.778320
vt 0.396705 0.715820
vt 0.397947 0.715850
vt 0.397947 0.778351
vt 0.399656 0.715861
vt 0.399656 0.778362
vt 0.949919 0.056835
vt 0.952342 0.059258
vt 0.950806 0.060144
vt 0.949032 0.060144
vt 0.401374 0.715851
vt 0.401374 0.778351
vt 0.953229 0.057721
vt 0.953229 0.055948
vt 0.402639 0.715821
vt 0.402639 0.778322
vt 0.952342 0.054412
vt 0.970650 0.627985
vt 0.970650 0.565467
vt 0.972365 0.565467
vt 0.972365 0.627985
vt 0.950806 0.053525
vt 0.974077 0.565467
vt 0.974077 0.627985
vt 0.949032 0.053525
vt 0.807961 0.019489
vt 0.807961 0.082008
vt 0.806707 0.082006
vt 0.806707 0.019487
vt 0.947496 0.054412
vt 0.804994 0.082005
vt 0.804994 0.019486
vt 0.946609 0.055948
vt 0.803281 0.082006
vt 0.803281 0.019487
vt 0.946609 0.057721
vt 0.179414 0.720362
vt 0.179414 0.782880
vt 0.178127 0.782881
vt 0.178127 0.720362
vt 0.947496 0.059258
vt 0.176403 0.782881
vt 0.176403 0.720363
vt 0.174702 0.782881
vt 0.174702 0.720362
vt 0.937489 0.900661
vt 0.935603 0.893624
vt 0.939374 0.893624
vt 0.942640 0.895510
vt 0.944525 0.898776
vt 0.944525 0.902546
vt 0.942640 0.905812
vt 0.939374 0.907698
vt 0.935603 0.907698
vt 0.932337 0.905812
vt 0.930452 0.902546
vt 0.930452 0.898775
vt 0.932381 0.895347
vt 0.959842 0.298922
vt 0.959850 0.304641
vt 0.957206 0.304585
vt 0.957198 0.298865
vt 0.953572 0.304565
vt 0.953565 0.298846
vt 0.879353 0.938696
vt 0.879490 0.931412
vt 0.883113 0.932457
vt 0.885732 0.935004
vt 0.949921 0.304593
vt 0.949914 0.298874
vt 0.875830 0.932320
vt 0.873113 0.934935
vt 0.947231 0.304660
vt 0.947223 0.298941
vt 0.872069 0.938559
vt 0.774596 0.991495
vt 0.768875 0.991495
vt 0.768875 0.987850
vt 0.774596 0.987850
vt 0.872977 0.942219
vt 0.768875 0.984210
vt 0.774596 0.984210
vt 0.875592 0.944935
vt 0.451369 0.953707
vt 0.451369 0.947986
vt 0.454033 0.947991
vt 0.454033 0.953711
vt 0.879216 0.945980
vt 0.457675 0.947992
vt 0.457675 0.953713
vt 0.882876 0.945072
vt 0.463161 0.947995
vt 0.463161 0.953716
vt 0.888328 0.946113
vt 0.884670 0.947796
vt 0.394984 0.976491
vt 0.394984 0.982212
vt 0.387365 0.982212
vt 0.387365 0.976491
vt 0.888153 0.955408
vt 0.884527 0.955413
vt 0.402505 0.976491
vt 0.402505 0.982212
vt 0.398879 0.982212
vt 0.398880 0.976491
vt 0.394984 0.982212
vt 0.394984 0.976491
vt 0.892256 0.944398
vt 0.892050 0.955407
vt 0.313652 0.944382
vt 0.313652 0.950103
vt 0.302645 0.950103
vt 0.302645 0.944382
vt 0.318020 0.944382
vt 0.318020 0.950103
vt 0.885592 0.942456
vt 0.886636 0.938833
vt 0.892189 0.940023
vt 0.313652 0.965707
vt 0.302645 0.965707
vt 0.318020 0.965707
vt 0.321830 0.950103
vt 0.321830 0.965707
vt 0.966378 0.298941
vt 0.959821 0.283323
vt 0.966357 0.283341
vt 0.966385 0.304660
vt 0.321830 0.944382
vt 0.892256 0.936212
vt 0.198874 0.991483
vt 0.195066 0.991483
vt 0.195066 0.975879
vt 0.198874 0.975879
vt 0.191420 0.991483
vt 0.191420 0.975879
vt 0.874501 0.635160
vt 0.877191 0.635097
vt 0.877191 0.650696
vt 0.874501 0.650759
vt 0.880842 0.635074
vt 0.880842 0.650674
vt 0.463161 0.969320
vt 0.457675 0.969317
vt 0.387365 0.960887
vt 0.394984 0.960887
vt 0.398880 0.960887
vt 0.402505 0.960887
vt 0.394984 0.960887
vt 0.953941 0.770522
vt 0.953941 0.747586
vt 0.963600 0.747586
vt 0.963600 0.770522
vt 0.712971 0.835954
vt 0.712971 0.858891
vt 0.707839 0.858891
vt 0.707839 0.835954
vt 0.929561 0.707951
vt 0.929561 0.702819
vt 0.939220 0.702819
vt 0.939220 0.707951
vt 0.967368 0.747586
vt 0.967368 0.770522
vt 0.925793 0.707951
vt 0.925793 0.702819
vt 0.929561 0.675036
vt 0.939220 0.675036
vt 0.925793 0.675036
vt 0.847589 0.906656
vt 0.870525 0.906661
vt 0.870525 0.934436
vt 0.847589 0.934431
vt 0.847589 0.901526
vt 0.870525 0.901531
vt 0.870525 0.939567
vt 0.847589 0.939562
vt 0.925793 0.669904
vt 0.929561 0.669904
vt 0.967408 0.190083
vt 0.967408 0.213019
vt 0.963640 0.213019
vt 0.963640 0.190083
vt 0.953981 0.213020
vt 0.953981 0.190083
vt 0.939220 0.669904
vt 0.745886 0.835954
vt 0.745886 0.858891
vt 0.740754 0.858891
vt 0.740754 0.835954
vt 0.954321 0.595522
vt 0.963980 0.595522
vt 0.963980 0.614138
vt 0.954321 0.614138
vt 0.945681 0.908669
vt 0.945681 0.913801
vt 0.936025 0.913801
vt 0.936025 0.908669
vt 0.740754 0.877507
vt 0.712971 0.877507
vt 0.837888 0.958977
vt 0.837888 0.931194
vt 0.847544 0.931194
vt 0.847544 0.958977
vt 0.930452 0.893620
vt 0.930452 0.865845
vt 0.949068 0.865849
vt 0.949068 0.893624
vt 0.859600 0.529149
vt 0.849941 0.529149
vt 0.849941 0.510533
vt 0.859600 0.510533
vt 0.949448 0.941585
vt 0.949448 0.946717
vt 0.945681 0.946717
vt 0.945681 0.941585
vt 0.936025 0.946717
vt 0.936025 0.941585
vt 0.949448 0.913802
vt 0.949448 0.908669
vt 0.952012 0.814364
vt 0.952008 0.826698
vt 0.947778 0.826697
vt 0.947782 0.814362
vt 0.960521 0.334715
vt 0.956267 0.323137
vt 0.961001 0.321397
vt 0.965256 0.332975
vt 0.237344 0.995414
vt 0.237344 0.991184
vt 0.242388 0.991184
vt 0.242388 0.995414
vt 0.957617 0.814366
vt 0.957613 0.826700
vt 0.237344 0.985579
vt 0.242388 0.985579
vt 0.961847 0.814367
vt 0.961843 0.826702
vt 0.237344 0.981349
vt 0.242388 0.981349
vt 0.961843 0.835891
vt 0.957613 0.835890
vt 0.952009 0.835888
vt 0.961847 0.839462
vt 0.957972 0.839461
vt 0.951657 0.839459
vt 0.947778 0.835886
vt 0.947782 0.839458
vt 0.987094 0.340217
vt 0.983219 0.340217
vt 0.983219 0.331921
vt 0.987094 0.331921
vt 0.971328 0.983779
vt 0.975537 0.982757
vt 0.975537 0.991242
vt 0.971766 0.989815
vt 0.957434 0.693814
vt 0.957368 0.697121
vt 0.951055 0.697100
vt 0.951121 0.693793
vt 0.659360 0.985538
vt 0.663235 0.986363
vt 0.663235 0.991511
vt 0.659360 0.991511
vt 0.957067 0.692002
vt 0.961296 0.692015
vt 0.961327 0.694063
vt 0.951464 0.691983
vt 0.947235 0.691969
vt 0.947266 0.694017
vt 0.043738 0.985759
vt 0.047613 0.984935
vt 0.047613 0.990907
vt 0.043738 0.990907
vt 0.957896 0.840890
vt 0.961667 0.839462
vt 0.961667 0.847948
vt 0.957458 0.846926
vt 0.947223 0.684330
vt 0.951452 0.684344
vt 0.957055 0.684362
vt 0.957098 0.672028
vt 0.951495 0.672010
vt 0.947266 0.671996
vt 0.961327 0.672042
vt 0.961284 0.684376
vt 0.955057 0.313793
vt 0.959881 0.313685
vt 0.956712 0.309382
vt 0.960691 0.311222
vt 0.964520 0.567207
vt 0.960265 0.578784
vt 0.955530 0.577044
vt 0.959785 0.565467
vt 0.959145 0.586496
vt 0.954321 0.586388
vt 0.959955 0.588959
vt 0.955976 0.590799
vt 0.915073 0.220091
vt 0.911198 0.220091
vt 0.911198 0.211795
vt 0.915073 0.211795
vt 0.964519 0.591456
vt 0.963026 0.595521
vt 0.963762 0.304660
vt 0.965256 0.308725
vt 0.066309 0.735775
vt 0.057029 0.719691
vt 0.066313 0.717202
vt 0.075597 0.719691
vt 0.082392 0.726489
vt 0.084877 0.735775
vt 0.082388 0.745061
vt 0.075590 0.751859
vt 0.066305 0.754347
vt 0.057022 0.751859
vt 0.050227 0.745061
vt 0.047742 0.735775
vt 0.050231 0.726489
vt 0.332422 0.939822
vt 0.339451 0.939822
vt 0.339428 0.946628
vt 0.332399 0.946628
vt 0.499684 0.963429
vt 0.499684 0.956403
vt 0.508972 0.956468
vt 0.508972 0.963495
vt 0.345730 0.939822
vt 0.345707 0.946628
vt 0.499684 0.950126
vt 0.508972 0.950192
vt 0.518257 0.956402
vt 0.518257 0.963429
vt 0.518257 0.950126
vt 0.508972 0.944666
vt 0.518257 0.944600
vt 0.499684 0.944600
vt 0.759677 0.920430
vt 0.765205 0.920430
vt 0.765224 0.927249
vt 0.759696 0.927249
vt 0.753398 0.920430
vt 0.753418 0.927249
vt 0.765231 0.936543
vt 0.759703 0.936543
vt 0.753425 0.936543
vt 0.746369 0.920430
vt 0.746389 0.927249
vt 0.746396 0.936543
vt 0.753418 0.945822
vt 0.746388 0.945822
vt 0.759696 0.945822
vt 0.976701 0.024557
vt 0.976701 0.017528
vt 0.983500 0.017508
vt 0.983500 0.024537
vt 0.976701 0.011249
vt 0.983500 0.011230
vt 0.930452 0.908669
vt 0.923423 0.908668
vt 0.923422 0.901291
vt 0.930452 0.901292
vt 0.917144 0.908666
vt 0.917144 0.901289
vt 0.917138 0.898370
vt 0.923417 0.898371
vt 0.930446 0.898373
vt 0.911616 0.901288
vt 0.911610 0.898369
vt 0.911616 0.908665
vt 0.911612 0.893372
vt 0.917139 0.893373
vt 0.923418 0.893375
vt 0.911387 0.888716
vt 0.916990 0.888717
vt 0.923344 0.888719
vt 0.930447 0.893376
vt 0.930448 0.888720
vt 0.923345 0.881099
vt 0.930450 0.881101
vt 0.916992 0.881098
vt 0.922966 0.871472
vt 0.930452 0.871474
vt 0.917601 0.871471
vt 0.016460 0.984413
vt 0.016460 0.991899
vt 0.011025 0.991899
vt 0.011025 0.984413
vt 0.021648 0.986027
vt 0.021648 0.991942
vt 0.017626 0.990710
vt 0.917597 0.865845
vt 0.922962 0.865846
vt 0.301996 0.984849
vt 0.301996 0.990834
vt 0.296561 0.990834
vt 0.296561 0.984849
vt 0.911389 0.881097
vt 0.911617 0.871470
vt 0.974381 0.175299
vt 0.969192 0.176915
vt 0.970358 0.170617
vt 0.974381 0.169384
vt 0.070471 0.958195
vt 0.070471 0.963560
vt 0.066264 0.963560
vt 0.066264 0.958195
vt 0.717470 0.940063
vt 0.722835 0.940063
vt 0.722845 0.945680
vt 0.717480 0.945680
vt 0.711260 0.930436
vt 0.716863 0.930436
vt 0.711485 0.940063
vt 0.723216 0.930436
vt 0.716863 0.922817
vt 0.723216 0.922817
vt 0.711260 0.922817
vt 0.730321 0.922817
vt 0.730321 0.930436
vt 0.730321 0.940063
vt 0.723292 0.918160
vt 0.730321 0.918160
vt 0.717013 0.918160
vt 0.723289 0.913165
vt 0.730318 0.913165
vt 0.717010 0.913165
vt 0.711483 0.913165
vt 0.711485 0.918160
vt 0.248557 0.962108
vt 0.242601 0.962100
vt 0.242601 0.955822
vt 0.248557 0.955830
vt 0.242601 0.950294
vt 0.248557 0.950302
vt 0.242601 0.946650
vt 0.248557 0.946658
vt 0.707839 0.913165
vt 0.707842 0.918160
vt 0.156384 0.831665
vt 0.150427 0.834578
vt 0.144723 0.834495
vt 0.146415 0.831583
vt 0.149674 0.839575
vt 0.144722 0.839492
vt 0.149672 0.844231
vt 0.144719 0.844148
vt 0.707842 0.922816
vt 0.079362 0.894931
vt 0.082780 0.895413
vt 0.082780 0.900366
vt 0.079362 0.900366
vt 0.976793 0.724468
vt 0.982228 0.724550
vt 0.982228 0.732170
vt 0.976793 0.732087
vt 0.907969 0.893373
vt 0.907970 0.888717
vt 0.908427 0.881097
vt 0.910767 0.871471
vt 0.179423 0.988651
vt 0.179423 0.994086
vt 0.176461 0.994087
vt 0.176461 0.989134
vt 0.937045 0.472288
vt 0.941998 0.472369
vt 0.941998 0.481994
vt 0.937045 0.481913
vt 0.301514 0.991684
vt 0.296561 0.991684
vt 0.710635 0.940063
vt 0.708297 0.930436
vt 0.907968 0.898369
vt 0.907972 0.901287
vt 0.147097 0.824207
vt 0.156384 0.826696
vt 0.907973 0.908664
vt 0.156384 0.808123
vt 0.140299 0.817409
vt 0.976701 0.005721
vt 0.976701 0.002078
vt 0.983500 0.002058
vt 0.983500 0.005702
vt 0.165670 0.824207
vt 0.166352 0.831583
vt 0.172469 0.817409
vt 0.983701 0.867039
vt 0.983701 0.870682
vt 0.976903 0.870663
vt 0.976903 0.867019
vt 0.915313 0.482450
vt 0.918957 0.482449
vt 0.918956 0.489825
vt 0.915313 0.489826
vt 0.168044 0.834495
vt 0.162056 0.834578
vt 0.918950 0.492740
vt 0.915308 0.492741
vt 0.924484 0.489824
vt 0.924478 0.492739
vt 0.924485 0.482448
vt 0.930763 0.489822
vt 0.930756 0.492737
vt 0.930763 0.482446
vt 0.983701 0.861511
vt 0.976903 0.861491
vt 0.983701 0.855232
vt 0.976903 0.855213
vt 0.983701 0.848203
vt 0.976903 0.848183
vt 0.937792 0.482445
vt 0.937792 0.489820
vt 0.332422 0.921249
vt 0.339451 0.921249
vt 0.339460 0.930533
vt 0.332430 0.930533
vt 0.345730 0.921249
vt 0.345738 0.930533
vt 0.351258 0.921249
vt 0.351266 0.930533
vt 0.351258 0.939822
vt 0.351235 0.946628
vt 0.354901 0.939822
vt 0.354878 0.946628
vt 0.354910 0.930533
vt 0.499684 0.940958
vt 0.508972 0.941023
vt 0.156384 0.789549
vt 0.165670 0.792038
vt 0.172469 0.798836
vt 0.518257 0.940958
vt 0.147097 0.792038
vt 0.140299 0.798836
vt 0.768848 0.920430
vt 0.768868 0.927249
vt 0.137811 0.808123
vt 0.768875 0.936543
vt 0.768868 0.945822
vt 0.765224 0.945822
vt 0.174957 0.808123
vt 0.354901 0.921249
vt 0.937785 0.492736
vt 0.937787 0.497732
vt 0.930757 0.497734
vt 0.924479 0.497736
vt 0.937788 0.502388
vt 0.930683 0.502390
vt 0.924330 0.502392
vt 0.918951 0.497737
vt 0.918727 0.502393
vt 0.924332 0.509983
vt 0.918729 0.509984
vt 0.930685 0.509981
vt 0.924941 0.519638
vt 0.918957 0.519639
vt 0.930306 0.519637
vt 0.978894 0.773641
vt 0.978894 0.767657
vt 0.984613 0.767657
vt 0.984613 0.773642
vt 0.978917 0.557826
vt 0.984371 0.559546
vt 0.984371 0.565467
vt 0.980041 0.564119
vt 0.930301 0.525259
vt 0.924937 0.525261
vt 0.859630 0.644622
vt 0.859630 0.649987
vt 0.855096 0.649987
vt 0.855096 0.644622
vt 0.987680 0.730389
vt 0.982228 0.732109
vt 0.983351 0.725815
vt 0.987680 0.724468
vt 0.939367 0.784331
vt 0.934003 0.784331
vt 0.934011 0.778720
vt 0.939376 0.778720
vt 0.939749 0.793986
vt 0.933395 0.793986
vt 0.946854 0.793986
vt 0.946854 0.784331
vt 0.958449 0.260140
vt 0.958449 0.252654
vt 0.964168 0.252655
vt 0.964168 0.260141
vt 0.054165 0.779390
vt 0.059882 0.779473
vt 0.059880 0.789127
vt 0.054163 0.789045
vt 0.937790 0.509980
vt 0.937792 0.519635
vt 0.054167 0.771799
vt 0.059884 0.771882
vt 0.054166 0.767143
vt 0.059883 0.767226
vt 0.946854 0.806233
vt 0.939824 0.806234
vt 0.939749 0.801577
vt 0.946854 0.801577
vt 0.933395 0.801577
vt 0.933546 0.806234
vt 0.939822 0.811228
vt 0.933544 0.811228
vt 0.946851 0.811228
vt 0.928016 0.811228
vt 0.928018 0.806234
vt 0.927792 0.801577
vt 0.254230 0.950294
vt 0.254230 0.955822
vt 0.254230 0.962100
vt 0.254230 0.946650
vt 0.924372 0.811228
vt 0.924374 0.806234
vt 0.168042 0.839492
vt 0.162805 0.839575
vt 0.168040 0.844148
vt 0.162803 0.844231
vt 0.924374 0.801578
vt 0.967586 0.258373
vt 0.964168 0.258373
vt 0.964168 0.253136
vt 0.967586 0.252654
vt 0.939989 0.060062
vt 0.934271 0.060144
vt 0.934271 0.052553
vt 0.939989 0.052470
vt 0.927792 0.793986
vt 0.987575 0.766807
vt 0.987575 0.772526
vt 0.984613 0.772043
vt 0.984613 0.766806
vt 0.928018 0.784331
vt 0.924829 0.793986
vt 0.927168 0.784331
vt 0.978894 0.766806
vt 0.984131 0.766806
vt 0.899875 0.225461
vt 0.894638 0.225546
vt 0.894638 0.215893
vt 0.899875 0.215808
vt 0.918108 0.519639
vt 0.915767 0.509985
vt 0.915309 0.497737
vt 0.915310 0.502394
vt 0.254230 0.969129
vt 0.248557 0.969138
vt 0.066304 0.759317
vt 0.060633 0.762229
vt 0.054165 0.762147
vt 0.056339 0.759234
vt 0.076270 0.759234
vt 0.078442 0.762147
vt 0.072259 0.762229
vt 0.242601 0.969129
vt 0.078443 0.767143
vt 0.073010 0.767226
vt 0.078444 0.771799
vt 0.073011 0.771882
vt 0.078443 0.779418
vt 0.073010 0.779501
vt 0.078440 0.789045
vt 0.073008 0.789127
vt 0.886616 0.975646
vt 0.886616 0.955473
vt 0.889070 0.955457
vt 0.889070 0.975631
vt 0.884175 0.975630
vt 0.884175 0.955456
vt 0.890877 0.955415
vt 0.890877 0.975589
vt 0.521828 0.979129
vt 0.521828 0.999308
vt 0.519379 0.999308
vt 0.519379 0.979129
vt 0.516934 0.999308
vt 0.516934 0.979129
vt 0.989350 0.909225
vt 0.989350 0.929404
vt 0.987560 0.929401
vt 0.987560 0.909222
vt 0.985113 0.929400
vt 0.985113 0.909221
vt 0.982665 0.929401
vt 0.982665 0.909222
vt 0.971328 0.969032
vt 0.971328 0.989212
vt 0.969490 0.989213
vt 0.969490 0.969033
vt 0.967026 0.989213
vt 0.967026 0.969034
vt 0.964597 0.989213
vt 0.964597 0.969033
vt 0.882400 0.975587
vt 0.882400 0.955413
vt 0.680419 0.246301
vt 0.680419 0.259186
vt 0.675104 0.259148
vt 0.675105 0.246264
vt 0.669791 0.259186
vt 0.669791 0.246301
vt 0.670027 0.243147
vt 0.675105 0.243111
vt 0.680184 0.243147
vt 0.675105 0.239327
vt 0.680515 0.239365
vt 0.669696 0.239365
vt 0.669700 0.000038
vt 0.675108 0.000000
vt 0.680518 0.000038
vt 0.742405 0.405800
vt 0.746369 0.405813
vt 0.746369 0.645221
vt 0.742405 0.645208
vt 0.736994 0.405795
vt 0.736994 0.645203
vt 0.731587 0.405800
vt 0.731587 0.645208
vt 0.678492 0.405799
vt 0.682452 0.405810
vt 0.682452 0.645219
vt 0.678492 0.645208
vt 0.673083 0.405795
vt 0.673083 0.645204
vt 0.667674 0.405799
vt 0.667674 0.645208
vt 0.663714 0.405810
vt 0.663714 0.645219
vt 0.568958 0.361627
vt 0.563554 0.361623
vt 0.563554 0.122214
vt 0.568958 0.122218
vt 0.574372 0.361623
vt 0.574372 0.122214
vt 0.578344 0.361611
vt 0.578344 0.122203
vt 0.574043 0.365390
vt 0.568960 0.365394
vt 0.666312 0.243245
vt 0.665739 0.239469
vt 0.574277 0.368557
vt 0.568959 0.368561
vt 0.578179 0.368545
vt 0.577771 0.365379
vt 0.574277 0.381446
vt 0.568959 0.381450
vt 0.578179 0.381435
vt 0.563649 0.381446
vt 0.563649 0.368556
vt 0.563886 0.365390
vt 0.663879 0.398876
vt 0.663879 0.385987
vt 0.667769 0.385976
vt 0.667769 0.398865
vt 0.668005 0.402032
vt 0.664287 0.402043
vt 0.673083 0.402028
vt 0.673083 0.398861
vt 0.678161 0.402032
vt 0.678397 0.398865
vt 0.673083 0.385972
vt 0.678397 0.385976
vt 0.682287 0.385987
vt 0.682287 0.398876
vt 0.681878 0.402043
vt 0.731682 0.398866
vt 0.731682 0.385977
vt 0.736994 0.385972
vt 0.736994 0.398861
vt 0.736995 0.402028
vt 0.731918 0.402033
vt 0.742075 0.402033
vt 0.742310 0.398866
vt 0.683903 0.243245
vt 0.684477 0.239469
vt 0.746204 0.398879
vt 0.745796 0.402046
vt 0.742310 0.385977
vt 0.746204 0.385990
s 1
usemtl M249_Gun
f 4/1/1 11/2/2 2/3/3 1/4/4
f 1/5/4 2/6/3 29/7/5 3/8/6
f 1/9/4 3/10/6 6/11/7 5/12/8
f 4/13/1 1/9/4 5/12/8 8/14/9
f 5/15/8 6/16/7 154/17/10 7/18/11
f 8/19/9 5/20/8 7/21/11 9/22/12
f 11/23/2 4/24/1 8/25/9 9/26/12
f 9/22/12 7/21/11 17/27/13 10/28/14
f 12/29/2 11/23/2 9/26/12 10/30/14
f 11/2/2 12/31/2 14/32/15 2/3/3
f 13/33/16 12/29/2 10/30/14 129/34/17
f 12/31/2 13/35/16 15/36/18 14/32/15
f 14/37/15 15/38/18 127/39/19 16/40/20
f 14/41/15 16/42/20 19/43/21 17/44/13
f 2/45/3 14/46/15 17/47/13 7/48/11
f 10/28/14 17/27/13 18/49/22 129/50/17
f 17/51/13 19/52/21 20/53/23 18/54/22
f 19/55/21 21/56/24 23/57/25 20/58/23
f 16/42/20 25/59/26 21/60/24 19/43/21
f 24/61/27 47/62/28 22/63/29 21/56/24
f 21/56/24 22/63/29 52/64/30 23/57/25
f 25/65/26 28/66/31 24/67/27 21/68/24
f 16/69/20 127/70/19 26/71/32 25/72/26
f 25/72/26 26/71/32 62/73/33 27/74/34
f 28/75/31 25/72/26 27/74/34 31/76/34
f 28/77/31 29/78/5 154/79/10 24/80/27
f 3/81/6 29/82/5 28/75/31 30/83/35
f 30/83/35 28/75/31 31/76/34 32/84/36
f 32/84/36 31/76/34 33/85/37 34/86/38
f 31/76/34 27/74/34 36/87/37 33/85/37
f 34/86/38 33/85/37 35/88/39 50/89/40
f 33/85/37 36/87/37 38/90/39 35/88/39
f 27/74/34 62/73/33 37/91/41 36/87/37
f 36/87/37 37/91/41 39/92/42 38/90/39
f 38/93/39 39/94/42 42/95/43 40/96/44
f 35/97/39 38/93/39 40/96/44 43/98/45
f 45/99/46 43/100/45 40/101/44 41/102/47
f 41/102/47 40/101/44 42/103/43 51/104/48
f 50/105/40 35/97/39 43/98/45 44/106/49
f 46/107/50 44/108/49 43/100/45 45/99/46
f 48/109/51 46/107/50 45/99/46 47/62/28
f 47/62/28 45/99/46 41/102/47 22/63/29
f 49/110/52 48/109/51 47/62/28 24/61/27
f 32/111/36 34/112/38 46/113/50 48/114/51
f 30/115/35 32/111/36 48/114/51 49/116/52
f 3/10/6 30/115/35 49/116/52 6/11/7
f 6/117/7 49/110/52 24/61/27 154/118/10
f 34/112/38 50/119/40 44/120/49 46/113/50
f 39/121/42 37/122/41 51/123/48 42/124/43
f 22/63/29 41/102/47 51/104/48 52/64/30
f 56/125/53 52/126/30 51/127/48 53/128/54
f 37/122/41 57/129/55 53/130/54 51/123/48
f 57/131/55 59/132/56 54/133/57 53/134/54
f 53/128/54 54/135/57 152/136/58 55/137/59
f 56/125/53 53/128/54 55/137/59 134/138/60
f 60/139/61 63/140/62 58/141/63 57/129/55
f 57/129/55 58/141/63 153/142/64 59/143/56
f 60/139/61 57/129/55 37/122/41 62/144/33
f 61/145/65 64/146/66 63/140/62 60/139/61
f 26/147/32 61/145/65 60/139/61 62/144/33
f 67/148/67 65/149/68 63/140/62 64/146/66
f 65/149/68 68/150/69 58/141/63 63/140/62
f 65/149/68 66/151/70 70/152/71 68/150/69
f 93/153/72 66/151/70 65/149/68 67/148/67
f 69/154/73 68/155/69 71/134/74 72/156/75
f 68/150/69 69/157/73 153/142/64 58/141/63
f 68/150/69 70/152/71 74/158/76 71/159/74
f 73/160/77 134/138/60 55/137/59 71/161/74
f 71/161/74 55/137/59 152/136/58 72/162/75
f 73/160/77 71/161/74 74/163/76 77/164/78
f 79/165/79 77/166/78 74/167/76 75/168/80
f 75/168/80 74/167/76 76/169/81 148/170/82
f 70/152/71 151/171/83 76/172/81 74/158/76
f 78/173/84 135/174/85 73/160/77 77/164/78
f 80/175/86 78/176/84 77/166/78 79/165/79
f 84/177/87 80/175/86 79/165/79 81/178/88
f 81/178/88 79/165/79 75/168/80 83/179/37
f 86/180/89 84/177/87 81/178/88 82/181/90
f 82/181/90 81/178/88 83/179/37 149/182/38
f 89/183/91 87/184/92 84/185/87 85/186/93
f 139/187/94 85/188/93 84/177/87 86/180/89
f 87/189/92 91/190/95 80/191/86 84/192/87
f 88/193/96 150/194/97 90/195/98 87/196/92
f 138/197/99 88/193/96 87/196/92 89/198/91
f 87/196/92 90/195/98 92/199/98 91/200/95
f 91/200/95 92/199/98 66/201/70 93/202/72
f 94/203/100 91/200/95 93/202/72 96/204/101
f 91/205/95 94/206/100 97/207/102 80/208/86
f 94/206/100 95/209/103 99/210/104 97/207/102
f 95/211/103 94/212/100 96/213/101 111/214/105
f 97/215/102 98/216/106 78/176/84 80/175/86
f 99/217/104 100/218/107 98/219/106 97/220/102
f 101/221/108 113/222/109 100/223/107 99/224/104
f 104/225/110 101/221/108 99/224/104 102/226/111
f 95/227/103 105/228/112 102/229/111 99/230/104
f 137/231/113 104/225/110 102/226/111 103/232/114
f 103/233/114 102/234/111 85/235/93 139/236/94
f 105/237/112 89/183/91 85/186/93 102/238/111
f 106/239/115 138/240/99 89/241/91 105/242/112
f 108/243/116 106/244/115 105/245/112 107/246/117
f 107/246/117 105/245/112 95/247/103 109/248/117
f 108/249/116 107/250/117 104/251/110 137/252/113
f 107/250/117 109/253/117 101/254/108 104/251/110
f 109/248/117 95/247/103 111/255/105 110/256/118
f 109/253/117 110/257/118 113/258/109 101/254/108
f 110/259/118 111/260/105 124/261/119 112/262/120
f 110/257/118 112/263/120 114/264/121 113/258/109
f 113/265/109 114/266/121 115/267/122 100/268/107
f 114/266/121 116/269/123 117/270/124 115/267/122
f 112/263/120 119/271/120 116/272/123 114/264/121
f 118/273/125 128/274/126 117/270/124 116/269/123
f 119/271/120 120/275/120 118/276/125 116/272/123
f 120/277/120 119/278/120 121/279/119 122/280/119
f 112/262/120 124/261/119 121/279/119 119/278/120
f 122/280/119 121/279/119 123/281/127 126/282/128
f 124/261/119 125/283/129 123/281/127 121/279/119
f 111/260/105 96/284/101 125/283/129 124/261/119
f 96/284/101 93/153/72 67/148/67 125/283/129
f 125/283/129 67/148/67 64/146/66 123/281/127
f 126/282/128 123/281/127 64/146/66 61/145/65
f 15/285/18 122/280/119 126/282/128 127/286/19
f 127/286/19 126/282/128 61/145/65 26/147/32
f 13/287/16 120/277/120 122/280/119 15/285/18
f 120/275/120 13/33/16 129/34/17 118/276/125
f 129/288/17 18/289/22 128/274/126 118/273/125
f 128/274/126 130/290/130 131/291/131 117/270/124
f 18/289/22 20/292/23 130/290/130 128/274/126
f 20/292/23 23/293/25 132/294/132 130/290/130
f 130/290/130 132/294/132 133/295/133 131/291/131
f 132/294/132 56/125/53 134/138/60 133/295/133
f 23/293/25 52/126/30 56/125/53 132/294/132
f 135/174/85 133/295/133 134/138/60 73/160/77
f 136/296/134 131/291/131 133/295/133 135/174/85
f 98/297/106 136/296/134 135/174/85 78/173/84
f 115/267/122 117/270/124 131/291/131 136/296/134
f 100/268/107 115/267/122 136/296/134 98/297/106
f 106/298/115 108/299/116 137/300/113 103/301/114
f 138/302/99 106/298/115 103/301/114 139/303/94
f 88/304/96 138/302/99 139/303/94 86/305/89
f 92/199/98 140/306/46 70/307/71 66/201/70
f 90/195/98 142/308/46 140/306/46 92/199/98
f 142/308/46 144/309/45 141/310/45 140/306/46
f 140/306/46 141/310/45 151/311/83 70/307/71
f 143/312/50 145/313/49 144/309/45 142/308/46
f 150/194/97 143/312/50 142/308/46 90/195/98
f 144/314/45 145/315/49 147/316/40 146/317/39
f 141/318/45 144/314/45 146/317/39 148/319/82
f 83/179/37 75/168/80 148/170/82 146/320/39
f 149/182/38 83/179/37 146/320/39 147/321/40
f 151/322/83 141/318/45 148/319/82 76/105/81
f 145/323/49 143/324/50 149/325/38 147/326/40
f 143/324/50 150/327/97 82/328/90 149/325/38
f 150/327/97 88/304/96 86/305/89 82/328/90
f 153/329/64 69/330/73 72/331/75 152/332/58
f 59/333/56 153/329/64 152/332/58 54/334/57
f 29/78/5 2/335/3 7/336/11 154/79/10
f 155/337/46 167/338/135 156/339/136
f 155/337/46 156/339/136 157/340/137
f 155/337/46 157/340/137 158/341/138
f 155/337/46 158/341/138 159/342/139
f 155/337/46 159/342/139 160/343/140
f 155/337/46 160/343/140 161/344/141
f 155/337/46 161/344/141 162/345/142
f 155/337/46 162/345/142 163/346/143
f 155/337/46 163/346/143 164/347/144
f 155/337/46 164/347/144 165/348/145
f 155/337/46 165/348/145 166/349/146
f 155/337/46 166/349/146 167/338/135
f 166/350/146 170/351/147 168/352/148 167/353/135
f 167/353/135 168/352/148 171/354/149 156/355/136
f 169/356/37 171/357/149 168/358/148
f 169/356/37 168/358/148 170/359/147
f 156/355/136 171/354/149 172/360/150 157/361/137
f 169/356/37 172/362/150 171/357/149
f 169/356/37 173/363/151 172/362/150
f 157/361/137 172/360/150 173/364/151 158/365/138
f 169/356/37 174/366/152 173/363/151
f 158/367/138 173/368/151 174/369/152 159/370/139
f 169/356/37 175/371/153 174/366/152
f 159/370/139 174/369/152 175/372/153 160/373/140
f 169/356/37 176/374/154 175/371/153
f 160/375/140 175/376/153 176/377/154 161/378/141
f 169/356/37 177/379/155 176/374/154
f 161/378/141 176/377/154 177/380/155 162/381/142
f 169/356/37 178/382/156 177/379/155
f 162/381/142 177/380/155 178/383/156 163/384/143
f 169/356/37 179/385/157 178/382/156
f 163/386/143 178/387/156 179/388/157 164/389/144
f 169/356/37 180/390/158 179/385/157
f 164/389/144 179/388/157 180/391/158 165/392/145
f 169/356/37 170/359/147 180/390/158
f 165/392/145 180/391/158 170/393/147 166/394/146
f 181/395/46 193/396/159 182/397/136
f 181/395/46 182/397/136 183/398/137
f 181/395/46 183/398/137 184/399/138
f 181/395/46 184/399/138 185/400/139
f 181/395/46 185/400/139 186/401/140
f 181/395/46 186/401/140 187/402/141
f 181/395/46 187/402/141 188/403/160
f 181/395/46 188/403/160 189/404/137
f 181/395/46 189/404/137 190/405/138
f 181/395/46 190/405/138 191/406/161
f 181/395/46 191/406/161 192/407/162
f 181/395/46 192/407/162 193/396/159
f 192/408/162 196/409/163 194/410/164 193/411/159
f 193/411/159 194/410/164 197/412/149 182/413/136
f 195/414/37 197/415/149 194/416/164
f 195/414/37 194/416/164 196/417/163
f 182/413/136 197/412/149 198/418/150 183/419/137
f 195/414/37 198/420/150 197/415/149
f 195/414/37 199/421/151 198/420/150
f 183/419/137 198/418/150 199/422/151 184/423/138
f 195/414/37 200/424/152 199/421/151
f 184/425/138 199/426/151 200/427/152 185/428/139
f 195/414/37 201/429/153 200/424/152
f 185/428/139 200/427/152 201/430/153 186/431/140
f 195/414/37 202/432/154 201/429/153
f 186/433/140 201/434/153 202/435/154 187/436/141
f 195/414/37 203/437/165 202/432/154
f 187/436/141 202/435/154 203/438/165 188/439/160
f 195/414/37 204/440/37 203/437/165
f 188/439/160 203/438/165 205/441/166 206/442/167
f 203/437/165 204/440/37 207/443/37 205/444/166
f 206/445/167 205/446/166 208/447/168 209/448/169
f 205/444/166 207/443/37 210/449/170 208/450/168
f 209/451/169 208/452/168 210/453/170 211/454/171
f 211/454/171 210/453/170 212/455/172 213/456/173
f 207/443/37 214/457/174 212/458/172 210/449/170
f 214/459/174 217/460/175 213/461/173 212/462/172
f 217/460/175 214/459/174 215/463/176 218/464/177
f 216/465/37 233/466/37 215/467/176 214/457/174
f 204/440/37 216/465/37 214/457/174 207/443/37
f 213/461/173 217/460/175 219/468/175 220/469/173
f 217/460/175 218/464/177 221/470/177 219/468/175
f 218/464/177 224/471/178 222/472/178 221/470/177
f 224/473/178 192/408/162 223/474/179 222/475/178
f 196/409/163 192/408/162 224/473/178 225/476/180
f 218/464/177 215/463/176 225/477/180 224/471/178
f 233/466/37 196/417/163 225/478/180 215/467/176
f 192/479/162 191/480/161 226/481/181 223/482/179
f 191/480/161 190/483/138 227/484/182 226/481/181
f 190/485/138 189/486/137 228/487/183 227/488/182
f 189/486/137 188/489/160 229/490/184 228/487/183
f 188/439/160 206/442/167 230/491/167 229/492/184
f 206/445/167 209/448/169 231/493/169 230/494/167
f 209/451/169 211/454/171 232/495/171 231/496/169
f 211/454/171 213/456/173 220/497/173 232/495/171
f 195/414/37 233/466/37 216/465/37
f 195/414/37 216/465/37 204/440/37
f 195/414/37 196/417/163 233/466/37
f 234/498/49 235/499/185 238/500/186 237/501/50
f 236/502/58 255/503/187 235/504/185 234/505/49
f 237/506/50 240/507/188 236/508/58 234/509/49
f 237/501/50 238/500/186 261/510/118 239/511/116
f 239/512/116 242/513/123 240/507/188 237/506/50
f 240/507/188 241/514/188 252/515/58 236/508/58
f 242/513/123 244/516/123 241/514/188 240/507/188
f 242/517/123 243/518/120 245/519/120 244/520/123
f 239/521/116 261/522/118 243/518/120 242/517/123
f 244/520/123 245/519/120 247/523/16 246/524/1
f 244/516/123 246/525/1 248/526/38 241/514/188
f 246/527/1 247/528/16 249/529/189 248/530/38
f 248/530/38 249/529/189 251/531/190 250/532/40
f 241/514/188 248/526/38 250/533/40 252/515/58
f 250/534/40 251/535/190 253/536/191 252/537/58
f 252/537/58 253/536/191 255/503/187 236/502/58
f 253/538/191 254/539/192 258/540/16 256/541/190
f 249/542/189 254/543/192 253/544/191 251/545/190
f 255/503/187 253/536/191 256/546/190 257/547/185
f 258/548/16 259/549/118 257/550/185 256/551/190
f 254/552/192 260/553/193 259/554/118 258/555/16
f 260/556/193 255/557/187 257/558/185 259/559/118
f 243/560/120 261/561/118 238/562/186 260/563/193
f 260/563/193 238/562/186 235/564/185 255/565/187
f 245/566/120 243/560/120 260/563/193 254/543/192
f 247/567/16 245/566/120 254/543/192 249/542/189
f 265/568/58 266/569/194 263/570/195 262/571/49
f 262/572/49 263/573/195 293/574/196 264/575/116
f 264/576/116 267/577/123 265/578/58 262/579/49
f 268/580/58 271/581/194 266/569/194 265/568/58
f 267/577/123 270/582/123 268/583/58 265/578/58
f 269/584/40 272/585/197 271/581/194 268/580/58
f 270/582/123 295/586/1 269/587/40 268/583/58
f 271/581/194 272/585/197 274/588/198 273/589/199
f 266/569/194 271/581/194 273/589/199 276/590/199
f 273/589/199 274/588/198 299/591/200 275/592/201
f 276/590/199 273/589/199 275/592/201 278/593/202
f 263/570/195 266/569/194 276/590/199 277/594/203
f 277/594/203 276/590/199 278/593/202 279/595/204
f 279/596/204 278/597/202 280/598/205 301/599/206
f 284/600/207 280/601/205 278/602/202 281/603/208
f 281/604/208 278/605/202 275/606/201 285/607/209
f 281/608/208 282/609/210 300/610/211 284/611/207
f 283/612/212 294/613/213 282/614/210 281/604/208
f 288/615/214 283/612/212 281/604/208 285/607/209
f 289/616/215 288/615/214 285/607/209 286/617/216
f 286/618/216 285/619/209 287/620/217 296/621/218
f 285/622/209 275/623/201 297/624/206 287/625/217
f 291/626/219 290/627/220 288/615/214 289/616/215
f 290/627/220 292/628/220 283/612/212 288/615/214
f 267/629/123 292/628/220 290/627/220 270/630/123
f 270/630/123 290/627/220 291/626/219 295/631/1
f 264/632/116 293/633/196 292/628/220 267/629/123
f 292/628/220 293/633/196 294/613/213 283/612/212
f 293/574/196 263/573/195 277/634/203 294/635/213
f 294/635/213 277/634/203 279/636/204 282/637/210
f 295/638/1 291/639/219 272/640/197 269/641/40
f 272/640/197 291/639/219 289/642/215 274/643/198
f 274/643/198 289/642/215 286/644/216 299/645/200
f 275/646/201 299/647/200 298/648/205 297/649/206
f 299/645/200 286/644/216 296/650/218 298/651/205
f 282/637/210 279/636/204 301/652/206 300/653/211
f 302/654/221 314/655/222 303/656/223
f 302/654/221 303/656/223 304/657/224
f 302/654/221 304/657/224 305/658/225
f 302/654/221 305/658/225 306/659/226
f 302/654/221 306/659/226 307/660/227
f 302/654/221 307/660/227 308/661/228
f 302/654/221 308/661/228 309/662/221
f 302/654/221 309/662/221 310/663/229
f 302/654/221 310/663/229 311/664/230
f 302/654/221 311/664/230 312/665/231
f 302/654/221 312/665/231 313/666/232
f 302/654/221 313/666/232 314/655/222
f 313/667/232 316/668/233 315/669/234 314/670/222
f 314/671/222 315/672/234 318/673/63 303/674/223
f 316/668/233 414/675/233 317/676/234 315/669/234
f 315/672/234 317/677/234 320/678/63 318/673/63
f 303/674/223 318/673/63 319/679/235 304/680/224
f 318/673/63 320/678/63 322/681/235 319/679/235
f 320/678/63 321/682/63 323/683/235 322/681/235
f 317/677/234 417/684/234 321/682/63 320/678/63
f 322/685/235 323/686/235 325/687/236 324/688/236
f 319/689/235 322/685/235 324/688/236 327/690/236
f 324/688/236 325/687/236 423/691/37 326/692/37
f 327/690/236 324/688/236 326/692/37 328/693/37
f 304/694/224 319/689/235 327/690/236 305/695/225
f 305/695/225 327/690/236 328/693/37 306/696/226
f 306/696/226 328/693/37 329/697/237 307/698/227
f 328/693/37 326/692/37 330/699/237 329/697/237
f 307/700/227 329/701/237 331/702/238 308/703/228
f 329/701/237 330/704/237 332/705/238 331/702/238
f 308/706/228 331/707/238 333/708/239 335/709/240
f 331/707/238 332/710/238 336/711/239 333/708/239
f 336/711/239 338/712/241 334/713/241 333/708/239
f 333/708/239 334/713/241 482/714/242 335/709/240
f 337/715/243 339/716/244 338/712/241 336/711/239
f 332/710/238 395/717/238 337/715/243 336/711/239
f 338/712/241 339/716/244 341/718/245 340/719/246
f 334/713/241 338/712/241 340/719/246 343/720/246
f 340/719/246 341/718/245 385/721/247 342/722/248
f 343/720/246 340/719/246 342/722/248 345/723/248
f 482/714/242 334/713/241 343/720/246 344/724/249
f 344/724/249 343/720/246 345/723/248 346/725/250
f 346/725/250 345/723/248 347/726/37 348/727/2
f 345/723/248 342/722/248 349/728/37 347/726/37
f 348/727/2 347/726/37 350/729/251 351/730/252
f 347/726/37 349/728/37 354/731/253 350/729/251
f 351/732/252 350/733/251 352/734/254 483/735/255
f 352/732/254 350/736/251 353/737/256 359/738/257
f 350/729/251 354/731/253 357/739/258 353/740/256
f 354/741/253 355/742/259 360/743/260 356/744/261
f 349/728/37 386/745/262 355/746/259 354/731/253
f 354/747/253 356/748/261 358/749/263 357/750/258
f 353/751/256 357/752/258 358/753/263 359/754/257
f 356/755/261 352/756/254 359/757/257 358/758/263
f 363/759/264 361/760/46 356/755/261 360/761/260
f 361/760/46 364/762/46 352/756/254 356/755/261
f 362/763/265 366/764/265 364/762/46 361/760/46
f 384/765/266 362/763/265 361/760/46 363/759/264
f 366/764/265 367/766/267 365/767/117 364/762/46
f 364/762/46 365/767/117 483/768/255 352/756/254
f 368/769/268 369/770/269 367/766/267 366/764/265
f 371/771/268 368/769/268 366/764/265 362/763/265
f 370/772/270 481/773/271 369/770/269 368/769/268
f 373/774/270 370/772/270 368/769/268 371/771/268
f 375/775/270 373/774/270 371/771/268 372/776/268
f 372/776/268 371/771/268 362/763/265 384/765/266
f 478/777/272 370/778/270 373/779/270 374/780/272
f 374/780/272 373/779/270 375/781/270 376/782/272
f 376/782/272 375/781/270 377/783/273 378/784/274
f 377/785/273 375/775/270 372/776/268 380/786/275
f 378/787/274 377/788/273 379/789/276 391/790/277
f 379/789/276 377/788/273 380/791/275 381/792/278
f 381/792/278 380/791/275 382/793/279 383/794/280
f 380/786/275 372/776/268 384/765/266 382/795/279
f 385/796/247 383/797/280 382/798/279 384/799/266
f 385/800/247 384/801/266 363/802/264 386/803/262
f 341/718/245 381/804/278 383/805/280 385/721/247
f 342/722/248 385/721/247 386/745/262 349/728/37
f 355/746/259 386/745/262 387/806/281 389/807/282
f 386/808/262 363/809/264 388/810/283 387/811/281
f 387/812/281 388/813/283 390/814/284 389/815/282
f 360/743/260 355/742/259 389/816/282 390/817/284
f 363/759/264 360/761/260 390/818/284 388/819/283
f 339/716/244 379/820/276 381/804/278 341/718/245
f 391/821/277 379/820/276 339/716/244 337/715/243
f 392/822/285 396/823/286 378/787/274 391/790/277
f 395/717/238 392/824/285 391/821/277 337/715/243
f 393/825/286 396/823/286 392/822/285
f 393/825/286 392/822/285 394/826/287
f 424/827/237 394/828/287 392/829/285 395/830/238
f 393/825/286 397/831/288 396/823/286
f 396/823/286 397/831/288 400/832/289 378/787/274
f 393/825/286 398/833/290 397/831/288
f 399/834/291 397/835/288 398/836/290 426/837/292
f 397/838/288 399/839/291 402/840/293 400/841/289
f 400/832/289 401/842/294 465/843/295 378/787/274
f 402/840/293 403/844/296 401/845/294 400/841/289
f 404/846/297 405/847/298 403/844/296 402/840/293
f 399/839/291 407/848/291 404/846/297 402/840/293
f 406/849/297 428/850/298 405/847/298 404/846/297
f 407/848/291 409/851/291 406/849/297 404/846/297
f 407/852/291 399/834/291 426/837/292 408/853/292
f 409/854/291 407/852/291 408/853/292 410/855/292
f 310/856/229 409/854/291 410/855/292 311/857/230
f 409/851/291 310/858/229 427/859/299 406/849/297
f 311/860/230 410/861/292 411/862/46 312/863/231
f 410/861/292 408/864/292 412/865/46 411/862/46
f 312/863/231 411/862/46 316/668/233 313/667/232
f 411/862/46 412/865/46 414/675/233 316/668/233
f 408/864/292 426/866/292 413/867/46 412/865/46
f 412/865/46 413/867/46 415/868/233 414/675/233
f 414/675/233 415/868/233 417/869/234 317/676/234
f 415/868/233 416/870/300 418/871/301 417/869/234
f 413/867/46 425/872/302 416/870/300 415/868/233
f 417/684/234 418/873/301 419/874/303 321/682/63
f 393/825/286 419/875/303 418/876/301
f 393/825/286 418/876/301 416/877/300
f 321/682/63 419/874/303 420/878/304 323/683/235
f 393/825/286 420/879/304 419/875/303
f 393/825/286 421/880/305 420/879/304
f 323/686/235 420/881/304 421/882/305 325/687/236
f 393/825/286 422/883/306 421/880/305
f 325/687/236 421/882/305 422/884/306 423/691/37
f 393/825/286 394/826/287 422/883/306
f 423/691/37 422/884/306 394/885/287 424/886/237
f 326/692/37 423/691/37 424/886/237 330/699/237
f 330/704/237 424/827/237 395/830/238 332/705/238
f 393/825/286 416/877/300 425/887/302
f 393/825/286 425/887/302 398/833/290
f 426/866/292 398/888/290 425/872/302 413/867/46
f 427/859/299 429/889/307 428/850/298 406/849/297
f 428/850/298 429/889/307 431/890/308 430/891/309
f 405/847/298 428/850/298 430/891/309 433/892/309
f 430/891/309 431/890/308 454/893/267 432/894/265
f 433/892/309 430/891/309 432/894/265 435/895/265
f 403/844/296 405/847/298 433/892/309 434/896/310
f 434/896/310 433/892/309 435/895/265 436/897/311
f 436/897/311 435/895/265 437/898/46 438/899/312
f 435/895/265 432/894/265 439/900/46 437/898/46
f 438/899/312 437/898/46 440/901/313 441/902/314
f 437/898/46 439/900/46 443/903/315 440/901/313
f 442/904/316 474/905/317 441/906/314 440/907/313
f 442/908/316 440/909/313 444/910/318 445/911/319
f 440/901/313 443/903/315 446/912/320 444/913/318
f 447/914/321 445/915/319 444/916/318 446/917/320
f 443/918/315 448/919/322 447/920/321 446/921/320
f 448/922/322 442/923/316 445/924/319 447/925/321
f 449/926/37 473/927/37 442/923/316 448/922/322
f 451/928/2 449/926/37 448/922/322 450/929/323
f 450/930/323 448/931/322 443/932/315 452/933/324
f 453/934/117 451/935/2 450/936/323 452/937/324
f 439/900/46 453/938/117 452/939/324 443/903/315
f 454/940/267 455/941/250 451/935/2 453/934/117
f 432/894/265 454/893/267 453/938/117 439/900/46
f 431/942/308 456/943/325 455/941/250 454/940/267
f 456/944/325 459/945/326 457/946/248 455/947/250
f 455/947/250 457/946/248 449/926/37 451/928/2
f 457/946/248 458/948/248 473/927/37 449/926/37
f 459/945/326 461/949/326 458/948/248 457/946/248
f 460/950/327 463/951/327 461/949/326 459/945/326
f 479/952/328 460/950/327 459/945/326 456/944/325
f 463/951/327 464/953/327 462/954/326 461/949/326
f 461/949/326 462/954/326 470/955/329 458/948/248
f 376/782/272 464/956/327 463/957/327 374/780/272
f 374/780/272 463/957/327 460/958/327 478/777/272
f 378/784/274 465/959/295 464/956/327 376/782/272
f 464/953/327 465/960/295 466/961/330 462/954/326
f 465/843/295 401/842/294 467/962/331 466/963/330
f 466/963/330 467/962/331 469/964/332 468/965/333
f 462/954/326 466/961/330 468/966/333 470/955/329
f 470/967/329 468/968/333 469/969/332 436/970/311
f 470/971/329 436/972/311 438/973/312 471/974/334
f 458/948/248 470/955/329 471/975/334 473/927/37
f 471/976/334 438/977/312 477/978/335 472/979/336
f 474/980/317 471/975/334 472/981/336 475/982/337
f 473/927/37 471/975/334 474/980/317 442/923/316
f 441/906/314 474/905/317 475/983/337 476/984/338
f 472/985/336 477/986/335 476/987/338 475/988/337
f 438/899/312 441/902/314 476/989/338 477/990/335
f 467/991/331 434/896/310 436/897/311 469/992/332
f 401/845/294 403/844/296 434/896/310 467/991/331
f 478/777/272 460/958/327 479/993/328 480/994/339
f 480/995/339 479/996/328 429/997/307 427/998/299
f 429/997/307 479/996/328 456/943/325 431/942/308
f 335/999/240 482/1000/242 481/1001/271 480/995/339
f 309/662/221 308/661/228 335/999/240 480/995/339
f 310/663/229 309/662/221 480/995/339 427/998/299
f 480/994/339 481/1002/271 370/778/270 478/777/272
f 481/1001/271 482/1000/242 344/1003/249 369/1004/269
f 369/1004/269 344/1003/249 346/1005/250 367/1006/267
f 367/1006/267 346/1005/250 348/1007/2 365/1008/117
f 365/1008/117 348/1007/2 351/1009/252 483/1010/255
f 484/1011/221 485/1012/221 488/1013/183 487/1014/183
f 486/1015/340 507/1016/340 485/1012/221 484/1011/221
f 487/1014/183 488/1013/183 490/1017/182 489/1018/182
f 489/1019/182 490/1020/182 492/1021/188 491/1022/188
f 491/1022/188 492/1021/188 494/1023/341 493/1024/341
f 493/1025/341 494/1026/341 496/1027/342 495/1028/342
f 495/1028/342 496/1027/342 498/1029/286 497/1030/286
f 497/1030/286 498/1029/286 500/1031/343 499/1032/343
f 499/1033/343 500/1034/343 502/1035/344 501/1036/344
f 501/1036/344 502/1035/344 504/1037/63 503/1038/63
f 503/1038/63 504/1037/63 506/1039/345 505/1040/345
f 505/1041/345 506/1042/345 507/1016/340 486/1015/340
f 511/1043/346 565/1044/234 509/1045/63 508/1046/347
f 508/1046/347 509/1045/63 567/1047/235 510/1048/348
f 508/1046/347 510/1048/348 514/1049/349 512/1050/350
f 511/1043/346 508/1046/347 512/1050/350 513/1051/351
f 513/1051/351 512/1050/350 515/1052/352 517/1053/353
f 512/1050/350 514/1049/349 516/1054/354 515/1052/352
f 515/1052/352 516/1054/354 519/1055/235 518/1056/63
f 517/1053/353 515/1052/352 518/1056/63 520/1057/234
f 522/1058/355 517/1059/353 520/1060/234 521/1061/233
f 524/1062/356 522/1058/355 521/1061/233 523/1063/46
f 526/1064/357 524/1062/356 523/1063/46 525/1065/292
f 528/1066/358 526/1067/357 525/1068/292 527/1069/359
f 530/1070/360 528/1066/358 527/1069/359 529/1071/188
f 532/1072/361 530/1070/360 529/1071/188 531/1073/362
f 534/1074/363 532/1072/361 531/1073/362 533/1075/237
f 536/1076/364 534/1077/363 533/1078/237 535/1079/37
f 538/1080/365 536/1076/364 535/1079/37 537/1081/236
f 516/1082/354 538/1080/365 537/1081/236 519/1083/235
f 539/1084/366 540/1085/367 536/1076/364 538/1080/365
f 514/1049/349 539/1086/366 538/1087/365 516/1054/354
f 541/1088/368 543/1089/369 540/1085/367 539/1084/366
f 510/1090/348 541/1088/368 539/1084/366 514/1091/349
f 541/1088/368 542/1092/236 544/1093/37 543/1089/369
f 510/1090/348 567/1094/235 542/1092/236 541/1088/368
f 543/1089/369 544/1093/37 546/1095/237 545/1096/370
f 543/1089/369 545/1096/370 548/1097/371 540/1085/367
f 545/1098/370 546/1099/237 566/1100/362 547/1101/372
f 545/1098/370 547/1101/372 549/1102/373 548/1103/371
f 548/1103/371 549/1102/373 532/1072/361 534/1074/363
f 540/1085/367 548/1097/371 534/1077/363 536/1076/364
f 549/1102/373 550/1104/374 530/1070/360 532/1072/361
f 547/1101/372 552/1105/375 550/1104/374 549/1102/373
f 550/1104/374 551/1106/376 528/1066/358 530/1070/360
f 552/1105/375 554/1107/377 551/1106/376 550/1104/374
f 552/1105/375 553/1108/188 555/1109/359 554/1107/377
f 547/1101/372 566/1100/362 553/1108/188 552/1105/375
f 554/1107/377 555/1109/359 557/1110/292 556/1111/378
f 554/1107/377 556/1111/378 559/1112/379 551/1106/376
f 556/1113/378 557/1114/292 564/1115/46 558/1116/380
f 556/1113/378 558/1116/380 560/1117/381 559/1118/379
f 551/1106/376 559/1112/379 526/1067/357 528/1066/358
f 559/1118/379 560/1117/381 524/1062/356 526/1064/357
f 560/1117/381 561/1119/382 522/1058/355 524/1062/356
f 558/1116/380 562/1120/383 561/1119/382 560/1117/381
f 561/1121/382 513/1051/351 517/1053/353 522/1122/355
f 562/1120/383 511/1123/346 513/1124/351 561/1119/382
f 562/1120/383 563/1125/233 565/1126/234 511/1123/346
f 558/1116/380 564/1115/46 563/1125/233 562/1120/383
