# Blender 4.0.2
# www.blender.org
mtllib M249_part_12.mtl
o M249_part_12
v 0.000000 0.197929 0.381685
v 0.000000 0.197929 0.397097
v 0.005886 0.196351 0.381685
v -0.005886 0.196351 0.381685
v 0.000000 0.195637 0.381685
v 0.004741 0.194367 0.381685
v 0.000000 0.195637 0.397097
v -0.004741 0.194367 0.381685
v -0.008211 0.190897 0.381685
v -0.004741 0.194367 0.397097
v -0.008211 0.190897 0.397097
v -0.005886 0.196351 0.397097
v -0.010195 0.192042 0.397097
v -0.011773 0.186156 0.397097
v -0.010195 0.192042 0.381685
v -0.011773 0.186156 0.381685
v -0.010195 0.180270 0.381685
v -0.009481 0.186156 0.381685
v -0.008211 0.181415 0.381685
v -0.009481 0.186156 0.397097
v -0.008211 0.181415 0.397097
v -0.004741 0.177945 0.397097
v -0.010195 0.180270 0.397097
v -0.005886 0.175960 0.397097
v -0.005886 0.175960 0.381685
v 0.000000 0.174383 0.397097
v -0.006224 0.168800 0.397044
v -0.006224 0.168800 0.378342
v -0.000016 0.168800 0.397044
v -0.006553 0.164537 0.396874
v -0.000016 0.164537 0.396874
v -0.006553 0.164537 0.375799
v -0.007829 0.160170 0.396700
v -0.000016 0.160170 0.396700
v -0.007829 0.138924 0.395852
v -0.007829 0.160170 0.373195
v -0.007829 0.138924 0.370517
v -0.000016 0.160170 0.373195
v -0.000016 0.138924 0.370517
v 0.007798 0.160170 0.373195
v -0.000016 0.164537 0.375799
v -0.000016 0.168800 0.378342
v 0.006521 0.164537 0.375799
v 0.006193 0.168800 0.378342
v 0.006521 0.164537 0.396874
v 0.006193 0.168800 0.397044
v 0.007798 0.160170 0.396700
v 0.007798 0.138924 0.395852
v 0.007798 0.138924 0.370517
v -0.000016 0.138924 0.395852
v 0.005886 0.175960 0.397097
v 0.010195 0.180270 0.397097
v 0.005886 0.175960 0.381685
v 0.004741 0.177945 0.397097
v 0.004741 0.177945 0.381685
v 0.008211 0.181415 0.397097
v 0.000000 0.176675 0.397097
v 0.000000 0.176675 0.381685
v -0.004741 0.177945 0.381685
v 0.000000 0.174383 0.381685
v 0.008211 0.181415 0.381685
v 0.009481 0.186156 0.397097
v 0.009481 0.186156 0.381685
v 0.008211 0.190897 0.397097
v 0.011773 0.186156 0.397097
v 0.010195 0.192042 0.397097
v 0.011773 0.186156 0.381685
v 0.010195 0.192042 0.381685
v 0.010195 0.180270 0.381685
v 0.008211 0.190897 0.381685
v 0.005886 0.196351 0.397097
v 0.004741 0.194367 0.397097
v -0.019866 0.132219 0.383931
v -0.019866 0.132219 0.379643
v -0.019866 0.130075 0.380217
v -0.019866 0.128505 0.381787
v -0.019866 0.127931 0.383931
v -0.019866 0.128505 0.386076
v -0.019866 0.130075 0.387646
v -0.019866 0.132219 0.388220
v -0.019866 0.134364 0.387646
v -0.019866 0.135934 0.386076
v -0.019866 0.136508 0.383931
v -0.019866 0.135934 0.381787
v -0.019866 0.134364 0.380217
v 0.019541 0.134364 0.380217
v 0.019541 0.132219 0.383931
v 0.019541 0.135934 0.381787
v 0.019541 0.132219 0.379643
v 0.019541 0.130075 0.380217
v 0.019541 0.128505 0.381787
v 0.019541 0.127931 0.383931
v 0.019541 0.128505 0.386076
v 0.019541 0.130075 0.387646
v 0.019541 0.132219 0.388220
v 0.019541 0.134364 0.387646
v 0.019541 0.135934 0.386076
v 0.019541 0.136508 0.383931
v 0.000000 0.084184 0.366416
v 0.000000 0.095993 0.366416
v 0.005904 0.094411 0.366416
v 0.010227 0.090088 0.366416
v 0.011809 0.084184 0.366416
v 0.010227 0.078279 0.366416
v 0.005904 0.073957 0.366416
v 0.000000 0.072375 0.366416
v -0.005904 0.073957 0.366416
v -0.010227 0.078279 0.366416
v -0.011809 0.084184 0.366416
v -0.010227 0.090088 0.366416
v -0.005904 0.094411 0.366416
v -0.008450 0.100486 0.366529
v -0.005904 0.094411 0.393971
v -0.008450 0.100486 0.393513
v 0.000000 0.084184 0.393971
v -0.010227 0.090088 0.393971
v 0.000000 0.095993 0.393971
v 0.005904 0.094411 0.393971
v 0.000000 0.099369 0.393513
v 0.000000 0.099369 0.397846
v 0.008450 0.100486 0.393513
v 0.008450 0.100486 0.397846
v 0.018167 0.108729 0.393513
v 0.008450 0.100486 0.366529
v 0.018167 0.108729 0.366529
v 0.008450 0.100486 0.363184
v 0.000000 0.099369 0.366529
v 0.000000 0.099369 0.363184
v -0.008450 0.100486 0.363184
v 0.000000 0.105148 0.362023
v -0.008080 0.107313 0.362023
v 0.008080 0.107313 0.362023
v 0.000000 0.105148 0.352117
v 0.008080 0.107313 0.352117
v -0.008080 0.107313 0.352117
v 0.000000 0.121307 0.352117
v 0.000000 0.137466 0.352117
v 0.008080 0.135301 0.352117
v 0.013994 0.129386 0.352117
v 0.016159 0.121307 0.352117
v 0.013994 0.113227 0.352117
v -0.013994 0.113227 0.352117
v -0.016159 0.121307 0.352117
v -0.013994 0.129386 0.352117
v -0.008080 0.135301 0.352117
v -0.008080 0.135301 0.362023
v 0.000000 0.137466 0.362023
v -0.008694 0.137384 0.363184
v -0.013994 0.129386 0.362023
v -0.018167 0.129706 0.363184
v -0.016159 0.121307 0.362023
v -0.020977 0.119217 0.363184
v -0.013994 0.113227 0.362023
v -0.018167 0.108729 0.363184
v -0.018167 0.108729 0.366529
v -0.018167 0.108729 0.393513
v -0.020977 0.119217 0.366529
v -0.020977 0.119217 0.393513
v -0.018167 0.129706 0.366529
v -0.018167 0.129706 0.393513
v -0.008694 0.137384 0.366529
v -0.008694 0.137384 0.393513
v -0.008694 0.139346 0.366529
v -0.008694 0.139346 0.393513
v 0.000000 0.139483 0.366529
v -0.008694 0.139346 0.363184
v 0.000000 0.139483 0.363184
v 0.000000 0.137521 0.363184
v 0.008694 0.139346 0.363184
v 0.008694 0.137384 0.363184
v 0.008694 0.139346 0.366529
v 0.008694 0.137384 0.366529
v 0.008694 0.139346 0.393513
v 0.008694 0.139346 0.397846
v 0.000000 0.139483 0.393513
v 0.008694 0.137384 0.393513
v 0.008694 0.137384 0.397846
v 0.018167 0.129706 0.393513
v 0.018167 0.129706 0.397846
v 0.020977 0.119217 0.393513
v 0.018167 0.129706 0.366529
v 0.020977 0.119217 0.366529
v 0.018167 0.129706 0.363184
v 0.020977 0.119217 0.363184
v 0.013994 0.129386 0.362023
v 0.016159 0.121307 0.362023
v 0.008080 0.135301 0.362023
v 0.013994 0.113227 0.362023
v 0.018167 0.108729 0.363184
v 0.020977 0.119217 0.397846
v 0.000000 0.119217 0.397846
v 0.018167 0.108729 0.397846
v 0.000000 0.137521 0.397846
v -0.008450 0.100486 0.397846
v -0.018167 0.108729 0.397846
v -0.020977 0.119217 0.397846
v -0.018167 0.129706 0.397846
v -0.008694 0.137384 0.397846
v -0.008694 0.139346 0.397846
v 0.000000 0.139483 0.397846
v 0.010227 0.090088 0.393971
v 0.011809 0.084184 0.393971
v 0.010227 0.078279 0.393971
v 0.005904 0.073957 0.393971
v 0.000000 0.072375 0.393971
v -0.005904 0.073957 0.393971
v -0.010227 0.078279 0.393971
v -0.011809 0.084184 0.393971
v 0.000000 0.102209 0.423258
v -0.007543 0.100188 0.423258
v 0.000000 0.102209 0.430260
v 0.007543 0.100188 0.423258
v 0.000000 0.094532 0.423258
v -0.003704 0.093539 0.423258
v 0.003704 0.093539 0.423258
v 0.000000 0.093510 0.426549
v -0.003194 0.092654 0.426549
v 0.003194 0.092654 0.426549
v 0.000000 0.087123 0.426549
v 0.005531 0.090317 0.426549
v 0.006387 0.087123 0.426549
v 0.005531 0.083929 0.426549
v 0.003194 0.081592 0.426549
v 0.000000 0.080736 0.426549
v -0.003194 0.081592 0.426549
v -0.005531 0.083929 0.426549
v -0.006387 0.087123 0.426549
v -0.005531 0.090317 0.426549
v -0.006416 0.090827 0.423258
v -0.013065 0.094666 0.423258
v -0.007409 0.087123 0.423258
v -0.006416 0.083419 0.423258
v -0.015086 0.087123 0.423258
v -0.013065 0.079580 0.423258
v -0.015086 0.087123 0.430260
v -0.018746 0.087123 0.430260
v -0.013065 0.094666 0.430260
v -0.013065 0.079580 0.430260
v -0.016235 0.077750 0.430260
v -0.007543 0.074058 0.430260
v 0.000000 0.072037 0.430260
v -0.009373 0.070888 0.430260
v -0.007543 0.074058 0.423258
v 0.000000 0.072037 0.423258
v -0.003704 0.080707 0.423258
v 0.000000 0.079714 0.423258
v 0.003704 0.080707 0.423258
v 0.006416 0.083419 0.423258
v 0.007543 0.074058 0.423258
v 0.007543 0.074058 0.430260
v 0.013065 0.079580 0.423258
v 0.015086 0.087123 0.423258
v 0.013065 0.079580 0.430260
v 0.016235 0.077750 0.430260
v 0.015086 0.087123 0.430260
v 0.013065 0.094666 0.430260
v 0.018746 0.087123 0.430260
v 0.016235 0.096496 0.430260
v 0.018746 0.087123 0.420096
v 0.016235 0.096496 0.420096
v 0.016235 0.077750 0.420096
v 0.011221 0.084935 0.417227
v 0.009717 0.079324 0.417227
v 0.009717 0.090545 0.417227
v 0.011221 0.084935 0.397825
v 0.009717 0.079324 0.397825
v 0.009717 0.090545 0.397825
v 0.008739 0.086312 0.396204
v 0.007568 0.081943 0.396204
v 0.007568 0.090682 0.396204
v 0.008739 0.086312 0.391787
v 0.007568 0.081943 0.391787
v 0.007568 0.090682 0.391787
v 0.009434 0.086312 0.388464
v 0.008170 0.081595 0.388464
v 0.008170 0.091030 0.388464
v 0.010663 0.086029 0.366216
v 0.009234 0.091360 0.366216
v 0.009234 0.080697 0.366216
v 0.013608 0.086191 0.361961
v 0.011785 0.092995 0.361961
v 0.011785 0.079387 0.361961
v 0.019266 0.086191 0.360590
v 0.016685 0.095824 0.360590
v 0.016685 0.076558 0.360590
v 0.019266 0.086191 0.357551
v 0.016685 0.095824 0.357551
v 0.016685 0.076558 0.357551
v 0.016395 0.086191 0.355890
v 0.014199 0.094389 0.355890
v 0.014199 0.077993 0.355890
v 0.016395 0.086191 0.353620
v 0.014199 0.094389 0.353620
v 0.014199 0.077993 0.353620
v 0.018898 0.086191 0.352040
v 0.016366 0.095640 0.352040
v 0.016366 0.076742 0.352040
v 0.018898 0.086191 0.348960
v 0.016366 0.095640 0.348960
v 0.016366 0.076742 0.348960
v 0.015126 0.086191 0.346326
v 0.013100 0.093754 0.346326
v 0.013100 0.078628 0.346326
v 0.007563 0.073091 0.346326
v 0.000000 0.071065 0.346326
v 0.009449 0.069825 0.348960
v 0.000000 0.067293 0.348960
v 0.009449 0.069825 0.352040
v 0.008198 0.071992 0.353620
v 0.000000 0.067293 0.352040
v 0.000000 0.069796 0.353620
v -0.009449 0.069825 0.352040
v -0.016366 0.076742 0.352040
v -0.008198 0.071992 0.353620
v -0.009449 0.069825 0.348960
v -0.016366 0.076742 0.348960
v -0.007563 0.073091 0.346326
v -0.013100 0.078628 0.346326
v -0.015126 0.086191 0.346326
v -0.018898 0.086191 0.348960
v -0.013100 0.093754 0.346326
v -0.007563 0.099291 0.346326
v -0.016366 0.095640 0.348960
v -0.016366 0.095640 0.352040
v -0.009449 0.102557 0.348960
v 0.000000 0.105089 0.348960
v -0.009449 0.102557 0.352040
v 0.000000 0.105089 0.352040
v -0.008198 0.100390 0.353620
v 0.000000 0.102586 0.353620
v -0.008198 0.100390 0.355890
v -0.014199 0.094389 0.353620
v -0.014199 0.094389 0.355890
v -0.016395 0.086191 0.353620
v -0.016395 0.086191 0.355890
v -0.014199 0.077993 0.353620
v -0.018898 0.086191 0.352040
v -0.014199 0.077993 0.355890
v -0.016685 0.076558 0.357551
v -0.008198 0.071992 0.355890
v -0.009633 0.069506 0.357551
v 0.000000 0.069796 0.355890
v 0.000000 0.066925 0.357551
v 0.008198 0.071992 0.355890
v 0.009633 0.069506 0.357551
v 0.009633 0.069506 0.360590
v 0.006804 0.074406 0.361961
v 0.000000 0.066925 0.360590
v -0.009633 0.069506 0.360590
v 0.000000 0.072583 0.361961
v -0.006804 0.074406 0.361961
v 0.000000 0.075366 0.366216
v -0.005331 0.076795 0.366216
v 0.000000 0.076878 0.388464
v 0.005331 0.076795 0.366216
v 0.004717 0.078142 0.388464
v 0.004369 0.078745 0.391787
v 0.004369 0.078745 0.396204
v 0.000000 0.077574 0.391787
v -0.004369 0.078745 0.391787
v 0.000000 0.077574 0.396204
v -0.004369 0.078745 0.396204
v 0.000000 0.073714 0.397825
v 0.000000 0.073714 0.417227
v 0.005610 0.075217 0.397825
v -0.005610 0.075217 0.397825
v -0.005610 0.075217 0.417227
v -0.009717 0.079324 0.397825
v -0.011221 0.084935 0.397825
v -0.009717 0.079324 0.417227
v -0.007568 0.081943 0.396204
v -0.008739 0.086312 0.396204
v -0.007568 0.081943 0.391787
v -0.008739 0.086312 0.391787
v -0.008170 0.081595 0.388464
v -0.009434 0.086312 0.388464
v -0.004717 0.078142 0.388464
v -0.009234 0.080697 0.366216
v -0.010663 0.086029 0.366216
v -0.011785 0.079387 0.361961
v -0.013608 0.086191 0.361961
v -0.016685 0.076558 0.360590
v -0.019266 0.086191 0.360590
v -0.016685 0.095824 0.360590
v -0.019266 0.086191 0.357551
v -0.016685 0.095824 0.357551
v -0.009633 0.102876 0.357551
v 0.000000 0.105457 0.357551
v -0.009633 0.102876 0.360590
v 0.000000 0.105457 0.360590
v -0.006804 0.097976 0.361961
v 0.000000 0.099799 0.361961
v -0.005331 0.095263 0.366216
v -0.011785 0.092995 0.361961
v -0.009234 0.091360 0.366216
v -0.008170 0.091030 0.388464
v -0.007568 0.090682 0.391787
v -0.004717 0.094483 0.388464
v 0.000000 0.095747 0.388464
v -0.004369 0.093880 0.391787
v 0.000000 0.095051 0.391787
v -0.004369 0.093880 0.396204
v -0.005610 0.094652 0.397825
v -0.007568 0.090682 0.396204
v 0.000000 0.095051 0.396204
v 0.000000 0.096155 0.397825
v 0.004369 0.093880 0.396204
v 0.005610 0.094652 0.397825
v 0.004369 0.093880 0.391787
v 0.004717 0.094483 0.388464
v 0.005331 0.095263 0.366216
v 0.000000 0.096692 0.366216
v 0.006804 0.097976 0.361961
v 0.009633 0.102876 0.360590
v 0.009633 0.102876 0.357551
v 0.008198 0.100390 0.355890
v 0.000000 0.102586 0.355890
v 0.008198 0.100390 0.353620
v 0.009449 0.102557 0.352040
v 0.009449 0.102557 0.348960
v 0.007563 0.099291 0.346326
v 0.000000 0.101317 0.346326
v 0.005610 0.094652 0.417227
v 0.009373 0.103358 0.420096
v 0.000000 0.096155 0.417227
v 0.000000 0.105869 0.420096
v -0.005610 0.094652 0.417227
v -0.009373 0.103358 0.420096
v -0.009717 0.090545 0.417227
v -0.016235 0.096496 0.420096
v -0.011221 0.084935 0.417227
v -0.009717 0.090545 0.397825
v -0.018746 0.087123 0.420096
v -0.016235 0.077750 0.420096
v -0.009373 0.070888 0.420096
v 0.000000 0.068377 0.420096
v 0.000000 0.068377 0.430260
v 0.009373 0.070888 0.420096
v 0.009373 0.070888 0.430260
v 0.005610 0.075217 0.417227
v -0.016235 0.096496 0.430260
v -0.009373 0.103358 0.430260
v -0.007543 0.100188 0.430260
v 0.000000 0.105869 0.430260
v 0.009373 0.103358 0.430260
v 0.007543 0.100188 0.430260
v 0.013065 0.094666 0.423258
v 0.006416 0.090827 0.423258
v 0.007409 0.087123 0.423258
vn -0.3786 0.6557 -0.6532
vn -0.3786 0.6557 0.6532
vn -0.0000 0.7572 0.6532
vn -0.0000 0.7572 -0.6532
vn 0.3786 0.6557 0.6532
vn 0.3786 0.6557 -0.6532
vn -0.3189 -0.5523 -0.7703
vn -0.0000 -0.6377 -0.7703
vn 0.3189 -0.5523 -0.7703
vn -0.3189 -0.5523 0.7703
vn -0.0000 -0.6377 0.7703
vn 0.3189 -0.5523 0.7703
vn -0.6557 0.3786 -0.6532
vn 0.5523 -0.3189 -0.7703
vn 0.5523 -0.3189 0.7703
vn -0.6557 0.3786 0.6532
vn -0.7572 -0.0000 0.6532
vn 0.6377 -0.0000 0.7703
vn -0.7572 -0.0000 -0.6532
vn 0.6377 -0.0000 -0.7703
vn -0.6557 -0.3786 -0.6532
vn -0.6557 -0.3786 0.6532
vn 0.5523 0.3189 -0.7703
vn 0.5523 0.3189 0.7703
vn 0.3189 0.5523 -0.7703
vn 0.3189 0.5523 0.7703
vn -0.5453 -0.2138 0.8105
vn -0.6183 -0.0774 -0.7821
vn -0.6995 0.0256 0.7142
vn -0.6927 0.3881 -0.6079
vn -0.0000 -0.0241 0.9997
vn -0.0000 -0.0048 1.0000
vn -0.0000 0.6377 0.7703
vn -0.6740 0.0921 0.7330
vn -0.6339 0.4940 -0.5952
vn -0.0000 -0.0399 0.9992
vn -0.7305 0.0802 0.6782
vn -0.6772 0.2929 -0.6750
vn -0.0000 -0.7211 0.6929
vn -0.5795 -0.5877 0.5647
vn -0.5710 -0.5430 -0.6157
vn -0.0000 0.3255 -0.9455
vn -0.0000 -0.6614 -0.7500
vn -0.0000 0.5122 -0.8588
vn 0.6772 0.2929 -0.6750
vn 0.5710 -0.5430 -0.6157
vn 0.6339 0.4940 -0.5952
vn -0.0000 0.4880 -0.8728
vn 0.6925 0.3874 -0.6085
vn 0.6990 0.0241 0.7147
vn 0.6740 0.0921 0.7330
vn 0.7305 0.0802 0.6782
vn 0.5795 -0.5877 0.5647
vn 0.5456 -0.2153 0.8099
vn 0.6187 -0.0795 -0.7816
vn 0.6557 -0.3786 0.6532
vn -0.5523 0.3189 0.7703
vn -0.3189 0.5523 0.7703
vn 0.6557 -0.3786 -0.6532
vn -0.3189 0.5523 -0.7703
vn -0.0000 0.6377 -0.7703
vn -0.5523 0.3189 -0.7703
vn -0.0001 0.2755 -0.9613
vn -0.6377 -0.0000 -0.7703
vn -0.6377 -0.0000 0.7703
vn 0.7572 -0.0000 0.6532
vn -0.5523 -0.3189 -0.7703
vn -0.5523 -0.3189 0.7703
vn 0.6557 0.3786 0.6532
vn 0.6557 0.3786 -0.6532
vn 0.7572 -0.0000 -0.6532
vn -1.0000 -0.0000 -0.0000
vn -0.6532 0.3786 -0.6557
vn -0.6532 -0.0000 -0.7572
vn -0.6532 -0.3786 -0.6557
vn -0.6532 -0.6557 -0.3786
vn -0.6532 -0.7572 -0.0000
vn -0.6532 -0.6557 0.3786
vn -0.6532 -0.3786 0.6557
vn -0.6532 -0.0000 0.7572
vn -0.6532 0.3786 0.6557
vn -0.6532 0.6557 0.3786
vn -0.6532 0.7572 -0.0000
vn -0.6532 0.6557 -0.3786
vn 0.6532 0.6557 -0.3786
vn 0.6532 0.3786 -0.6557
vn 0.6532 -0.0000 -0.7572
vn 1.0000 -0.0000 -0.0000
vn 0.6532 -0.3786 -0.6557
vn 0.6532 -0.6557 -0.3786
vn 0.6532 -0.7572 -0.0000
vn 0.6532 -0.6557 0.3786
vn 0.6532 -0.3786 0.6557
vn 0.6532 -0.0000 0.7572
vn 0.6532 0.3786 0.6557
vn 0.6532 0.6557 0.3786
vn 0.6532 0.7572 -0.0000
vn -0.0000 -0.0000 -1.0000
vn -0.5043 0.1091 -0.8566
vn -0.0000 0.0138 -0.9999
vn 0.5043 0.1091 -0.8566
vn 0.3786 -0.6557 -0.6532
vn -0.0000 -0.7572 -0.6532
vn -0.3786 -0.6557 -0.6532
vn -0.6222 -0.7630 -0.1751
vn -0.0000 -0.6654 -0.7464
vn -0.4966 0.1378 0.8570
vn -0.6318 -0.7551 0.1749
vn -0.0000 0.0559 0.9984
vn -0.0000 -0.6357 0.7719
vn -0.0000 -0.0000 1.0000
vn 0.4966 0.1378 0.8570
vn 0.6318 -0.7551 0.1749
vn -0.0000 -0.7343 0.6788
vn -0.3085 -0.6956 0.6488
vn 0.3085 -0.6956 0.6488
vn 0.8448 -0.5350 -0.0000
vn 0.6451 -0.4085 0.6458
vn 0.6222 -0.7630 -0.1751
vn 0.6866 -0.4388 -0.5797
vn 0.3262 -0.7403 -0.5879
vn -0.0000 -0.7884 -0.6151
vn -0.3262 -0.7403 -0.5879
vn -0.3624 -0.6217 -0.6944
vn -0.0000 -0.7167 -0.6974
vn 0.3624 -0.6217 -0.6944
vn -0.3897 0.7683 -0.5078
vn -0.0000 0.9251 -0.3796
vn -0.6620 0.4254 -0.6171
vn -0.5672 0.4797 -0.6695
vn -0.0000 0.3897 -0.9210
vn -0.7137 0.4482 -0.5382
vn -0.8180 -0.0072 -0.5752
vn -0.7427 0.0144 -0.6695
vn -0.6866 -0.4388 -0.5797
vn -0.6312 -0.3586 -0.6878
vn -0.8448 -0.5350 -0.0000
vn -0.8388 0.5444 -0.0000
vn -0.9027 0.4303 -0.0000
vn -0.7126 0.7015 -0.0000
vn -0.5815 0.5724 -0.5782
vn -0.0000 1.0000 -0.0000
vn -0.0000 0.7106 -0.7036
vn 0.5672 0.4797 -0.6695
vn 0.5815 0.5724 -0.5782
vn 0.7126 0.7015 -0.0000
vn 0.9027 0.4303 -0.0000
vn 0.5194 0.2476 0.8179
vn 0.5815 0.5724 0.5782
vn -0.0000 0.7106 0.7036
vn 0.6419 0.4166 0.6438
vn 0.8388 0.5444 -0.0000
vn 0.7137 0.4482 -0.5382
vn 0.8180 -0.0072 -0.5752
vn 0.7427 0.0144 -0.6695
vn 0.6620 0.4254 -0.6171
vn 0.3897 0.7683 -0.5078
vn 0.6312 -0.3586 -0.6878
vn -0.5194 0.2476 0.8179
vn -0.6451 -0.4085 0.6458
vn -0.6419 0.4166 0.6438
vn -0.5815 0.5724 0.5782
vn 0.3786 -0.6557 0.6532
vn -0.0000 -0.7572 0.6532
vn -0.3786 -0.6557 0.6532
vn -0.2608 0.4516 0.8532
vn -0.0000 0.5215 0.8532
vn 0.2608 0.4516 0.8532
vn -0.3250 0.5629 0.7599
vn -0.0000 0.6500 0.7599
vn 0.3250 0.5629 0.7599
vn 0.5629 0.3250 0.7599
vn 0.6500 -0.0000 0.7599
vn 0.5629 -0.3250 0.7599
vn 0.3250 -0.5629 0.7599
vn -0.0000 -0.6500 0.7599
vn -0.3250 -0.5629 0.7599
vn -0.5629 -0.3250 0.7599
vn -0.6500 -0.0000 0.7599
vn -0.5629 0.3250 0.7599
vn -0.4516 0.2608 0.8532
vn -0.5215 -0.0000 0.8532
vn -0.4516 -0.2608 0.8532
vn -0.0000 -0.5215 0.8532
vn -0.2608 -0.4516 0.8532
vn 0.2608 -0.4516 0.8532
vn 0.4516 -0.2608 0.8532
vn 0.5215 -0.0000 0.8532
vn 0.7243 0.4239 -0.5437
vn 0.8488 0.0071 -0.5287
vn 0.7498 -0.4237 -0.5083
vn 0.7900 -0.0134 -0.6130
vn 0.6743 0.3785 -0.6341
vn 0.6939 -0.4177 -0.5866
vn 0.7498 -0.4454 -0.4894
vn 0.8921 -0.0171 -0.4516
vn 0.8077 0.4411 -0.3913
vn 0.7278 -0.3973 -0.5590
vn 0.8654 0.0307 -0.5001
vn 0.7684 0.4860 -0.4163
vn 0.8613 -0.4972 0.1048
vn 0.9945 -0.0000 0.1048
vn 0.8613 0.4972 0.1048
vn 0.8589 -0.4948 0.1320
vn 0.9917 0.0011 0.1288
vn 0.8587 0.4969 0.1256
vn 0.8143 -0.4739 0.3351
vn 0.9408 -0.0037 0.3389
vn 0.8152 0.4670 0.3426
vn 0.5230 0.0017 0.8524
vn 0.4480 0.2603 0.8553
vn 0.4579 -0.2626 0.8493
vn 0.8196 -0.0000 0.5729
vn 0.7098 0.4098 0.5729
vn 0.7098 -0.4098 0.5729
vn 0.8843 -0.0000 -0.4669
vn 0.7658 0.4421 -0.4669
vn 0.7658 -0.4421 -0.4669
vn 0.8424 -0.0000 -0.5389
vn 0.7295 0.4212 -0.5389
vn 0.7295 -0.4212 -0.5389
vn 0.8543 -0.0000 0.5198
vn 0.7398 0.4271 0.5198
vn 0.7398 -0.4271 0.5198
vn 0.8921 -0.0000 0.4519
vn 0.7726 0.4460 0.4519
vn 0.7726 -0.4460 0.4519
vn 0.9011 -0.0000 -0.4336
vn 0.7804 0.4505 -0.4336
vn 0.7804 -0.4505 -0.4336
vn 0.5726 -0.0000 -0.8199
vn 0.4958 0.2863 -0.8199
vn 0.4958 -0.2863 -0.8199
vn 0.4505 -0.7804 -0.4336
vn 0.2863 -0.4958 -0.8199
vn -0.0000 -0.9011 -0.4336
vn -0.0000 -0.5726 -0.8199
vn 0.4460 -0.7726 0.4519
vn -0.0000 -0.8921 0.4519
vn 0.4271 -0.7398 0.5198
vn -0.0000 -0.8543 0.5198
vn -0.4271 -0.7398 0.5198
vn -0.4460 -0.7726 0.4519
vn -0.4505 -0.7804 -0.4336
vn -0.7726 -0.4460 0.4519
vn -0.7804 -0.4506 -0.4336
vn -0.7398 -0.4271 0.5198
vn -0.4958 -0.2863 -0.8199
vn -0.2863 -0.4958 -0.8199
vn -0.9011 -0.0000 -0.4336
vn -0.5726 -0.0000 -0.8199
vn -0.7804 0.4505 -0.4336
vn -0.4958 0.2863 -0.8199
vn -0.4505 0.7804 -0.4336
vn -0.2863 0.4958 -0.8199
vn -0.7726 0.4460 0.4519
vn -0.4460 0.7726 0.4519
vn -0.8921 -0.0000 0.4519
vn -0.0000 0.9011 -0.4336
vn -0.0000 0.5726 -0.8199
vn -0.0000 0.8921 0.4519
vn -0.4271 0.7398 0.5198
vn -0.0000 0.8543 0.5198
vn -0.7398 0.4271 0.5198
vn -0.4212 0.7295 -0.5389
vn -0.0000 0.8424 -0.5389
vn -0.7295 0.4212 -0.5389
vn -0.8424 -0.0000 -0.5389
vn -0.8543 -0.0000 0.5198
vn -0.7295 -0.4212 -0.5389
vn -0.4212 -0.7295 -0.5389
vn -0.7658 -0.4422 -0.4669
vn -0.8843 -0.0000 -0.4669
vn -0.4421 -0.7658 -0.4669
vn -0.0000 -0.8843 -0.4669
vn -0.0000 -0.8424 -0.5389
vn 0.4421 -0.7658 -0.4669
vn 0.4212 -0.7295 -0.5389
vn 0.4098 -0.7098 0.5729
vn -0.0000 -0.8196 0.5729
vn 0.2666 -0.4599 0.8470
vn -0.0000 -0.5329 0.8462
vn -0.4098 -0.7098 0.5729
vn -0.2666 -0.4599 0.8470
vn -0.0000 -0.9435 0.3312
vn -0.4700 -0.8178 0.3323
vn 0.4700 -0.8178 0.3323
vn -0.0000 -0.9908 0.1352
vn -0.4959 -0.8579 0.1343
vn 0.4959 -0.8579 0.1343
vn 0.4972 -0.8613 0.1048
vn -0.0000 -0.9945 0.1048
vn 0.4117 -0.6942 -0.5904
vn -0.0000 -0.8000 -0.6001
vn -0.4972 -0.8613 0.1048
vn -0.4117 -0.6942 -0.5904
vn -0.0000 -0.8571 -0.5151
vn -0.4259 -0.7480 -0.5090
vn 0.4259 -0.7480 -0.5090
vn -0.0000 -0.8324 -0.5543
vn -0.4040 -0.7206 -0.5635
vn 0.4040 -0.7206 -0.5635
vn -0.6939 -0.4177 -0.5866
vn -0.7498 -0.4454 -0.4894
vn -0.7278 -0.3973 -0.5590
vn -0.8921 -0.0171 -0.4516
vn -0.8654 0.0307 -0.5001
vn -0.7900 -0.0134 -0.6130
vn -0.9945 -0.0000 0.1048
vn -0.8613 -0.4972 0.1048
vn -0.9917 0.0011 0.1288
vn -0.8589 -0.4948 0.1320
vn -0.9408 -0.0037 0.3389
vn -0.8143 -0.4739 0.3351
vn -0.5230 0.0017 0.8524
vn -0.4579 -0.2626 0.8493
vn -0.7098 -0.4098 0.5729
vn -0.8196 -0.0000 0.5729
vn -0.7098 0.4098 0.5729
vn -0.7658 0.4421 -0.4669
vn -0.4480 0.2603 0.8553
vn -0.4098 0.7098 0.5729
vn -0.4422 0.7658 -0.4669
vn -0.0000 0.8843 -0.4669
vn -0.0000 0.8196 0.5729
vn -0.2566 0.4461 0.8574
vn -0.0000 0.5134 0.8582
vn -0.4708 0.8119 0.3452
vn -0.0000 0.9382 0.3462
vn -0.8152 0.4670 0.3426
vn -0.8587 0.4969 0.1256
vn -0.4957 0.8597 0.1233
vn -0.8613 0.4972 0.1048
vn -0.4972 0.8613 0.1048
vn -0.0000 0.9925 0.1225
vn -0.0000 0.9945 0.1048
vn -0.4464 0.8281 -0.3390
vn -0.0000 0.9510 -0.3092
vn -0.7684 0.4860 -0.4163
vn -0.4894 0.8117 -0.3188
vn -0.0000 0.9595 -0.2817
vn -0.8077 0.4411 -0.3913
vn 0.4894 0.8117 -0.3188
vn 0.4464 0.8281 -0.3390
vn 0.4972 0.8613 0.1048
vn 0.4957 0.8597 0.1233
vn 0.4708 0.8119 0.3452
vn 0.2566 0.4461 0.8574
vn 0.4098 0.7098 0.5729
vn 0.4422 0.7658 -0.4669
vn 0.4212 0.7295 -0.5389
vn 0.4271 0.7398 0.5198
vn 0.4460 0.7726 0.4519
vn 0.4505 0.7804 -0.4336
vn 0.2863 0.4958 -0.8199
vn 0.3854 0.6582 -0.6467
vn -0.0000 0.7592 -0.6509
vn 0.4146 0.7231 -0.5525
vn -0.0000 0.8316 -0.5554
vn -0.4146 0.7231 -0.5525
vn -0.3854 0.6582 -0.6467
vn -0.7243 0.4239 -0.5437
vn -0.6743 0.3785 -0.6341
vn -0.8488 0.0071 -0.5287
vn -0.7498 -0.4237 -0.5083
vn -0.4414 -0.7530 -0.4881
vn -0.0000 -0.8778 -0.4790
vn 0.4414 -0.7530 -0.4881
vn 0.4516 0.2608 0.8532
vt 0.911198 0.211832
vt 0.911198 0.225684
vt 0.905905 0.225647
vt 0.905905 0.211795
vt 0.900614 0.225684
vt 0.900614 0.211832
vt 0.742033 0.103130
vt 0.747323 0.104548
vt 0.746293 0.106332
vt 0.742033 0.105190
vt 0.736742 0.104548
vt 0.737771 0.106332
vt 0.682452 0.637085
vt 0.682455 0.632823
vt 0.696311 0.632823
vt 0.696308 0.637085
vt 0.682455 0.641347
vt 0.696311 0.641347
vt 0.732868 0.108422
vt 0.734651 0.109452
vt 0.682464 0.644467
vt 0.696320 0.644467
vt 0.678533 0.263412
vt 0.682407 0.267286
vt 0.680623 0.268316
vt 0.677503 0.265196
vt 0.673241 0.261994
vt 0.673241 0.264054
vt 0.146985 0.286119
vt 0.160842 0.286119
vt 0.160829 0.289997
vt 0.146972 0.289997
vt 0.683825 0.272578
vt 0.681765 0.272578
vt 0.146990 0.280825
vt 0.160847 0.280825
vt 0.731449 0.113714
vt 0.733509 0.113714
vt 0.146985 0.275535
vt 0.160842 0.275535
vt 0.732866 0.119006
vt 0.734650 0.117976
vt 0.836897 0.286059
vt 0.832632 0.286062
vt 0.832631 0.272206
vt 0.836897 0.272203
vt 0.828373 0.286059
vt 0.828373 0.272203
vt 0.682407 0.277871
vt 0.680623 0.276841
vt 0.840026 0.286050
vt 0.840026 0.272194
vt 0.678533 0.281745
vt 0.677503 0.279961
vt 0.974129 0.689107
vt 0.974129 0.675250
vt 0.978003 0.675261
vt 0.978003 0.689118
vt 0.325400 0.937947
vt 0.325190 0.944382
vt 0.311344 0.943830
vt 0.308599 0.937277
vt 0.673255 0.288182
vt 0.673241 0.283163
vt 0.678836 0.288182
vt 0.673241 0.281103
vt 0.325401 0.934111
vt 0.306469 0.933355
vt 0.673254 0.292015
vt 0.679131 0.292015
vt 0.673254 0.295941
vt 0.680279 0.295941
vt 0.325405 0.930181
vt 0.304289 0.929338
vt 0.673253 0.315042
vt 0.680278 0.315042
vt 0.325405 0.911064
vt 0.302645 0.910156
vt 0.734745 0.156086
vt 0.734807 0.137007
vt 0.741829 0.137007
vt 0.741768 0.156086
vt 0.736011 0.133102
vt 0.741886 0.133102
vt 0.748852 0.137007
vt 0.748791 0.156086
vt 0.747762 0.133102
vt 0.736361 0.129290
vt 0.741942 0.129290
vt 0.747522 0.129290
vt 0.420643 0.917671
vt 0.422774 0.913749
vt 0.439575 0.913079
vt 0.439576 0.916916
vt 0.418463 0.921691
vt 0.439579 0.920848
vt 0.667377 0.292015
vt 0.667673 0.288182
vt 0.666229 0.295941
vt 0.416819 0.940873
vt 0.439579 0.939965
vt 0.666228 0.315042
vt 0.957732 0.083069
vt 0.950707 0.083069
vt 0.950707 0.060290
vt 0.957732 0.060290
vt 0.964757 0.083069
vt 0.964757 0.060290
vt 0.667948 0.281745
vt 0.425519 0.907196
vt 0.439365 0.906644
vt 0.664074 0.277871
vt 0.665858 0.276841
vt 0.668978 0.279961
vt 0.080167 0.802995
vt 0.080167 0.789139
vt 0.084041 0.789127
vt 0.084041 0.802984
vt 0.160847 0.275535
vt 0.165110 0.275565
vt 0.165110 0.289417
vt 0.160847 0.289387
vt 0.953050 0.893628
vt 0.956173 0.893639
vt 0.956173 0.907495
vt 0.953050 0.907485
vt 0.169371 0.275535
vt 0.169371 0.289386
vt 0.747319 0.122880
vt 0.742028 0.124298
vt 0.742029 0.122238
vt 0.746290 0.121096
vt 0.736738 0.122880
vt 0.737768 0.121096
vt 0.948786 0.893624
vt 0.948786 0.907481
vt 0.662656 0.272578
vt 0.664716 0.272578
vt 0.944525 0.893628
vt 0.944525 0.907485
vt 0.664074 0.267286
vt 0.665858 0.268316
vt 0.146961 0.286119
vt 0.133105 0.286119
vt 0.133101 0.280823
vt 0.146957 0.280823
vt 0.133105 0.275535
vt 0.146961 0.275535
vt 0.751196 0.108422
vt 0.752612 0.113714
vt 0.750553 0.113714
vt 0.749412 0.109452
vt 0.751193 0.119006
vt 0.749410 0.117976
vt 0.146972 0.290005
vt 0.133116 0.290005
vt 0.682464 0.629703
vt 0.696320 0.629703
vt 0.667948 0.263412
vt 0.668978 0.265196
vt 0.720308 0.187755
vt 0.717581 0.190481
vt 0.716583 0.188753
vt 0.716583 0.186757
vt 0.717581 0.185028
vt 0.719310 0.184030
vt 0.721306 0.184030
vt 0.723034 0.185028
vt 0.724032 0.186757
vt 0.724032 0.188753
vt 0.723035 0.190481
vt 0.721306 0.191479
vt 0.719310 0.191479
vt 0.972236 0.773873
vt 0.972236 0.809293
vt 0.970837 0.809259
vt 0.970838 0.773839
vt 0.968914 0.809246
vt 0.968914 0.773826
vt 0.712859 0.187755
vt 0.713857 0.191479
vt 0.711861 0.191479
vt 0.710132 0.190481
vt 0.966982 0.809258
vt 0.966982 0.773838
vt 0.715586 0.190481
vt 0.965558 0.809291
vt 0.965558 0.773871
vt 0.716583 0.186757
vt 0.991484 0.873622
vt 0.991484 0.909052
vt 0.989554 0.909052
vt 0.989554 0.873622
vt 0.715586 0.185028
vt 0.987628 0.909052
vt 0.987628 0.873622
vt 0.713857 0.184030
vt 0.975626 0.810266
vt 0.975626 0.845696
vt 0.974216 0.845694
vt 0.974216 0.810264
vt 0.711861 0.184030
vt 0.972288 0.845693
vt 0.972288 0.810263
vt 0.710132 0.185028
vt 0.970360 0.845694
vt 0.970360 0.810264
vt 0.709135 0.186757
vt 0.975585 0.476636
vt 0.975585 0.512066
vt 0.974137 0.512066
vt 0.974137 0.476637
vt 0.709135 0.188753
vt 0.972196 0.512067
vt 0.972196 0.476637
vt 0.970282 0.512066
vt 0.970282 0.476636
vt 0.639069 0.934720
vt 0.644374 0.943915
vt 0.639066 0.945337
vt 0.633760 0.943915
vt 0.629875 0.940029
vt 0.628455 0.934720
vt 0.629878 0.929412
vt 0.633764 0.925526
vt 0.639071 0.924104
vt 0.644378 0.925526
vt 0.648262 0.929412
vt 0.649683 0.934720
vt 0.648259 0.940029
vt 0.646658 0.949375
vt 0.639063 0.948372
vt 0.832429 0.931212
vt 0.837888 0.931616
vt 0.837888 0.955876
vt 0.832429 0.955985
vt 0.828538 0.955972
vt 0.828538 0.931199
vt 0.226135 0.944905
vt 0.226136 0.947941
vt 0.218538 0.948944
vt 0.220827 0.943482
vt 0.226135 0.934288
vt 0.216941 0.939596
vt 0.231444 0.943482
vt 0.233733 0.948944
vt 0.927905 0.111582
vt 0.931801 0.111582
vt 0.931798 0.119179
vt 0.927903 0.119179
vt 0.927903 0.103984
vt 0.931798 0.103984
vt 0.927881 0.095248
vt 0.931777 0.095248
vt 0.903621 0.095248
vt 0.903643 0.103984
vt 0.360699 0.955317
vt 0.355244 0.955209
vt 0.355244 0.930949
vt 0.360699 0.930543
vt 0.631468 0.949375
vt 0.900614 0.095248
vt 0.900635 0.103984
vt 0.903646 0.111582
vt 0.900638 0.111582
vt 0.903643 0.119179
vt 0.900635 0.119179
vt 0.783745 0.885775
vt 0.784748 0.878180
vt 0.790896 0.878490
vt 0.788949 0.885751
vt 0.784748 0.893371
vt 0.790896 0.893014
vt 0.354336 0.959210
vt 0.354330 0.966474
vt 0.345424 0.966474
vt 0.345430 0.959210
vt 0.354330 0.951946
vt 0.345424 0.951946
vt 0.921997 0.922702
vt 0.911727 0.912430
vt 0.918238 0.908670
vt 0.925756 0.908669
vt 0.932266 0.932975
vt 0.925756 0.936735
vt 0.918238 0.936736
vt 0.911727 0.932976
vt 0.907968 0.926464
vt 0.907968 0.918943
vt 0.932266 0.912429
vt 0.936025 0.918941
vt 0.936025 0.926462
vt 0.520270 0.964047
vt 0.520219 0.971312
vt 0.511316 0.971312
vt 0.511368 0.964046
vt 0.374976 0.969845
vt 0.374963 0.975169
vt 0.366057 0.975177
vt 0.366070 0.969853
vt 0.521264 0.963495
vt 0.521261 0.971312
vt 0.811018 0.869452
vt 0.817921 0.877968
vt 0.816058 0.878495
vt 0.810740 0.873178
vt 0.801589 0.866924
vt 0.803477 0.871231
vt 0.374976 0.962579
vt 0.366070 0.962587
vt 0.792159 0.869448
vt 0.796213 0.873175
vt 0.374963 0.955317
vt 0.366057 0.955325
vt 0.354315 0.971791
vt 0.345409 0.971791
vt 0.476125 0.881812
vt 0.476125 0.878805
vt 0.485553 0.878796
vt 0.485553 0.881804
vt 0.903621 0.127915
vt 0.900614 0.127915
vt 0.927881 0.127915
vt 0.476125 0.854545
vt 0.485553 0.854536
vt 0.494985 0.854545
vt 0.494985 0.878805
vt 0.494985 0.881812
vt 0.969191 0.131103
vt 0.969191 0.155355
vt 0.960671 0.155173
vt 0.960671 0.130921
vt 0.969191 0.128096
vt 0.960671 0.127915
vt 0.589856 0.735727
vt 0.589856 0.759987
vt 0.588093 0.759987
vt 0.588093 0.735727
vt 0.589856 0.732719
vt 0.588093 0.732719
vt 0.540095 0.917588
vt 0.540095 0.941839
vt 0.532278 0.941836
vt 0.532278 0.917585
vt 0.540095 0.914581
vt 0.532278 0.914578
vt 0.563414 0.373472
vt 0.563537 0.381287
vt 0.561774 0.381287
vt 0.561651 0.373472
vt 0.563537 0.365658
vt 0.561774 0.365657
vt 0.524462 0.917588
vt 0.524462 0.914582
vt 0.768349 0.492074
vt 0.768349 0.489067
vt 0.770113 0.489067
vt 0.770113 0.492074
vt 0.768349 0.516334
vt 0.770113 0.516334
vt 0.524462 0.941840
vt 0.768349 0.520230
vt 0.770113 0.520230
vt 0.532278 0.945730
vt 0.524462 0.945734
vt 0.961847 0.818438
vt 0.961847 0.814544
vt 0.970360 0.814362
vt 0.970360 0.818256
vt 0.961847 0.842690
vt 0.970360 0.842508
vt 0.946302 0.048568
vt 0.946302 0.052463
vt 0.936864 0.052470
vt 0.936864 0.048575
vt 0.946302 0.024308
vt 0.936864 0.024315
vt 0.946302 0.021300
vt 0.936864 0.021308
vt 0.961847 0.845696
vt 0.970360 0.845514
vt 0.811018 0.902110
vt 0.801589 0.904634
vt 0.803477 0.900278
vt 0.810740 0.898334
vt 0.817921 0.893597
vt 0.816058 0.893019
vt 0.322484 0.969753
vt 0.322484 0.962484
vt 0.331390 0.962490
vt 0.331390 0.969760
vt 0.322495 0.975087
vt 0.331401 0.975094
vt 0.521264 0.979128
vt 0.520270 0.978575
vt 0.511368 0.978575
vt 0.792159 0.902106
vt 0.796213 0.898331
vt 0.322495 0.955225
vt 0.331401 0.955232
vt 0.354315 0.946628
vt 0.345409 0.946628
vt 0.927442 0.024308
vt 0.927442 0.021300
vt 0.927442 0.048568
vt 0.927442 0.052463
vt 0.613825 0.872894
vt 0.618866 0.854720
vt 0.627277 0.859675
vt 0.632084 0.868172
vt 0.607440 0.855556
vt 0.630848 0.879065
vt 0.625359 0.884631
vt 0.619697 0.890022
vt 0.601318 0.860165
vt 0.596602 0.866206
vt 0.595565 0.877615
vt 0.600373 0.886112
vt 0.608784 0.891068
vt 0.969191 0.159249
vt 0.960671 0.159067
vt 0.589856 0.763882
vt 0.588093 0.763882
vt 0.626595 0.885890
vt 0.620933 0.891280
vt 0.540095 0.945733
vt 0.632084 0.880323
vt 0.485553 0.850641
vt 0.494985 0.850649
vt 0.476125 0.850649
vt 0.931777 0.127915
vt 0.235330 0.939596
vt 0.364597 0.930532
vt 0.364597 0.955306
vt 0.236752 0.934288
vt 0.369909 0.930528
vt 0.369909 0.955302
vt 0.235330 0.928979
vt 0.375214 0.930532
vt 0.375214 0.955306
vt 0.231444 0.925093
vt 0.387365 0.960887
vt 0.387365 0.936113
vt 0.391251 0.936102
vt 0.391251 0.960876
vt 0.226135 0.923671
vt 0.396560 0.936098
vt 0.396560 0.960872
vt 0.220827 0.925093
vt 0.401868 0.936102
vt 0.401868 0.960876
vt 0.216941 0.928979
vt 0.405754 0.936113
vt 0.405754 0.960887
vt 0.215518 0.934288
vt 0.817921 0.955972
vt 0.817921 0.931199
vt 0.823228 0.931194
vt 0.823228 0.955968
vt 0.855049 0.815440
vt 0.848968 0.811929
vt 0.853849 0.807048
vt 0.856835 0.808772
vt 0.359789 0.638489
vt 0.359794 0.645271
vt 0.353499 0.645271
vt 0.353493 0.638489
vt 0.359794 0.631707
vt 0.353499 0.631707
vt 0.862070 0.815440
vt 0.860283 0.808772
vt 0.019414 0.973909
vt 0.019438 0.970578
vt 0.022417 0.971037
vt 0.022396 0.973909
vt 0.019438 0.977239
vt 0.022417 0.976779
vt 0.390964 0.822237
vt 0.386904 0.818177
vt 0.389478 0.816691
vt 0.385418 0.820751
vt 0.385418 0.823724
vt 0.386904 0.826298
vt 0.389478 0.827784
vt 0.392451 0.827784
vt 0.395025 0.826298
vt 0.396511 0.823724
vt 0.396511 0.820751
vt 0.395025 0.818177
vt 0.392451 0.816691
vt 0.635089 0.884114
vt 0.635086 0.887445
vt 0.632131 0.887444
vt 0.632133 0.884572
vt 0.019502 0.968139
vt 0.022472 0.968934
vt 0.845458 0.805849
vt 0.845458 0.798828
vt 0.852125 0.800614
vt 0.852125 0.804062
vt 0.635089 0.890774
vt 0.632133 0.890314
vt 0.848968 0.792747
vt 0.853849 0.797628
vt 0.882411 0.987413
vt 0.882411 0.980626
vt 0.888706 0.980630
vt 0.888706 0.987418
vt 0.882400 0.994189
vt 0.888696 0.994194
vt 0.899846 0.720179
vt 0.904208 0.712624
vt 0.906535 0.714951
vt 0.903024 0.721031
vt 0.899846 0.728904
vt 0.903024 0.728052
vt 0.911764 0.708262
vt 0.912615 0.711440
vt 0.882400 0.975646
vt 0.888696 0.975651
vt 0.987718 0.562496
vt 0.987671 0.555715
vt 0.993964 0.555715
vt 0.994012 0.562496
vt 0.920488 0.708262
vt 0.919636 0.711440
vt 0.855049 0.789237
vt 0.862070 0.789237
vt 0.860283 0.795904
vt 0.856835 0.795904
vt 0.302608 0.871083
vt 0.302605 0.874414
vt 0.299649 0.874414
vt 0.299651 0.871543
vt 0.302615 0.868645
vt 0.299657 0.869441
vt 0.868150 0.792747
vt 0.863269 0.797628
vt 0.302608 0.877744
vt 0.299651 0.877285
vt 0.302615 0.880182
vt 0.299657 0.879387
vt 0.871660 0.798828
vt 0.864993 0.800614
vt 0.802818 0.975784
vt 0.802805 0.980754
vt 0.796510 0.980760
vt 0.796522 0.975790
vt 0.987718 0.548932
vt 0.994012 0.548933
vt 0.871660 0.805849
vt 0.864993 0.804062
vt 0.802805 0.987538
vt 0.796510 0.987544
vt 0.932406 0.720179
vt 0.932406 0.728904
vt 0.929227 0.728052
vt 0.929227 0.721031
vt 0.928043 0.712624
vt 0.925717 0.714951
vt 0.802818 0.994318
vt 0.796522 0.994324
vt 0.928043 0.736459
vt 0.925717 0.734132
vt 0.126979 0.957760
vt 0.136116 0.957767
vt 0.136116 0.966201
vt 0.126979 0.966194
vt 0.136103 0.974621
vt 0.126966 0.974614
vt 0.904207 0.769020
vt 0.899846 0.761465
vt 0.905936 0.757820
vt 0.908546 0.762342
vt 0.899846 0.752741
vt 0.905936 0.752598
vt 0.740230 0.814858
vt 0.745270 0.814861
vt 0.745270 0.832306
vt 0.740230 0.832302
vt 0.735182 0.814861
vt 0.735182 0.832306
vt 0.803281 0.007136
vt 0.805891 0.002614
vt 0.807178 0.005409
vt 0.805145 0.008931
vt 0.803281 0.012358
vt 0.805145 0.012998
vt 0.207184 0.957250
vt 0.203259 0.957244
vt 0.203262 0.953273
vt 0.207187 0.953279
vt 0.211115 0.957250
vt 0.211118 0.953279
vt 0.202950 0.950286
vt 0.207187 0.950293
vt 0.211432 0.950293
vt 0.202155 0.930287
vt 0.206944 0.930294
vt 0.211741 0.930294
vt 0.207085 0.926476
vt 0.213207 0.926476
vt 0.200973 0.926467
vt 0.142727 0.897077
vt 0.142727 0.903410
vt 0.137811 0.904727
vt 0.137811 0.895760
vt 0.145893 0.908895
vt 0.142294 0.912492
vt 0.743441 0.894829
vt 0.743441 0.886161
vt 0.746174 0.886163
vt 0.746174 0.894831
vt 0.743454 0.877507
vt 0.746187 0.877509
vt 0.268920 0.913184
vt 0.264438 0.905420
vt 0.266968 0.904755
vt 0.270782 0.911363
vt 0.264438 0.896453
vt 0.266968 0.897125
vt 0.908864 0.281708
vt 0.908864 0.274332
vt 0.910904 0.274333
vt 0.910904 0.281709
vt 0.908876 0.266967
vt 0.910916 0.266969
vt 0.641052 0.921928
vt 0.648682 0.921928
vt 0.649264 0.924104
vt 0.640469 0.924104
vt 0.655290 0.918113
vt 0.656881 0.919706
vt 0.215018 0.899883
vt 0.215018 0.908385
vt 0.212249 0.908383
vt 0.212249 0.899881
vt 0.215005 0.916874
vt 0.212236 0.916872
vt 0.207841 0.898041
vt 0.212236 0.905658
vt 0.208901 0.906529
vt 0.205383 0.900433
vt 0.212236 0.914453
vt 0.208901 0.913569
vt 0.207839 0.922069
vt 0.205382 0.919666
vt 0.200224 0.926467
vt 0.199287 0.923185
vt 0.850292 0.484250
vt 0.850285 0.475754
vt 0.853054 0.475754
vt 0.853061 0.484250
vt 0.850310 0.490469
vt 0.853079 0.490469
vt 0.659105 0.911505
vt 0.659105 0.903875
vt 0.661278 0.903295
vt 0.661278 0.912090
vt 0.655290 0.897267
vt 0.656881 0.895678
vt 0.850292 0.467259
vt 0.853061 0.467259
vt 0.850310 0.461040
vt 0.853079 0.461040
vt 0.648682 0.893451
vt 0.649264 0.891280
vt 0.191432 0.926467
vt 0.183818 0.922069
vt 0.186155 0.919666
vt 0.192250 0.923185
vt 0.179423 0.914453
vt 0.182637 0.913569
vt 0.179423 0.905658
vt 0.182637 0.906529
vt 0.183820 0.898041
vt 0.186157 0.900433
vt 0.496879 0.886942
vt 0.496895 0.880717
vt 0.499663 0.880714
vt 0.499648 0.886940
vt 0.496879 0.895440
vt 0.499648 0.895438
vt 0.191434 0.893644
vt 0.192251 0.896913
vt 0.971507 0.631920
vt 0.971447 0.640417
vt 0.968679 0.640417
vt 0.968739 0.631920
vt 0.630629 0.903875
vt 0.630629 0.911505
vt 0.628455 0.912090
vt 0.628455 0.903295
vt 0.634444 0.897267
vt 0.632852 0.895678
vt 0.010958 0.891555
vt 0.010906 0.898926
vt 0.008866 0.898926
vt 0.008918 0.891555
vt 0.910918 0.261564
vt 0.910904 0.266965
vt 0.908864 0.266967
vt 0.908878 0.261566
vt 0.910918 0.254192
vt 0.908878 0.254194
vt 0.641052 0.893451
vt 0.640469 0.891280
vt 0.910904 0.246824
vt 0.908864 0.246826
vt 0.496895 0.903933
vt 0.499663 0.903931
vt 0.587934 0.645026
vt 0.587949 0.639630
vt 0.589990 0.639630
vt 0.589974 0.645026
vt 0.293408 0.888686
vt 0.297890 0.896451
vt 0.295436 0.897123
vt 0.291622 0.890515
vt 0.285646 0.884204
vt 0.285016 0.886701
vt 0.276682 0.884204
vt 0.277388 0.886701
vt 0.587928 0.652396
vt 0.589968 0.652396
vt 0.268920 0.888688
vt 0.270782 0.890517
vt 0.587934 0.659766
vt 0.589974 0.659766
vt 0.587949 0.665162
vt 0.589990 0.665162
vt 0.850292 0.454700
vt 0.850285 0.446039
vt 0.853018 0.446039
vt 0.853024 0.454700
vt 0.850310 0.461040
vt 0.853043 0.461040
vt 0.151378 0.912061
vt 0.157711 0.912061
vt 0.159025 0.916975
vt 0.150059 0.916975
vt 0.850292 0.437378
vt 0.853024 0.437378
vt 0.163195 0.908895
vt 0.166790 0.912492
vt 0.095473 0.800397
vt 0.100266 0.800401
vt 0.101590 0.804220
vt 0.095473 0.804216
vt 0.090679 0.800401
vt 0.089356 0.804220
vt 0.095473 0.780399
vt 0.099714 0.780403
vt 0.091232 0.780403
vt 0.088127 0.780412
vt 0.087170 0.800411
vt 0.084877 0.804233
vt 0.091544 0.777417
vt 0.095473 0.777414
vt 0.088668 0.777425
vt 0.091544 0.773446
vt 0.095473 0.773442
vt 0.088668 0.773454
vt 0.099401 0.777417
vt 0.099401 0.773446
vt 0.815633 0.000000
vt 0.820155 0.002609
vt 0.818287 0.005406
vt 0.814766 0.003374
vt 0.810413 0.000002
vt 0.810700 0.003375
vt 0.088406 0.954862
vt 0.088402 0.959906
vt 0.070957 0.959906
vt 0.070961 0.954862
vt 0.088402 0.949818
vt 0.070957 0.949818
vt 0.088391 0.963598
vt 0.070947 0.963598
vt 0.822765 0.007130
vt 0.820320 0.008927
vt 0.822765 0.012352
vt 0.820320 0.012993
vt 0.215518 0.948949
vt 0.220561 0.948944
vt 0.220561 0.966389
vt 0.215518 0.966393
vt 0.651061 0.924416
vt 0.654987 0.924295
vt 0.655106 0.928264
vt 0.651180 0.928385
vt 0.102277 0.773454
vt 0.102277 0.777425
vt 0.655195 0.931248
vt 0.650957 0.931379
vt 0.102818 0.780412
vt 0.655538 0.951245
vt 0.650748 0.951393
vt 0.103775 0.800411
vt 0.655795 0.955056
vt 0.649683 0.955244
vt 0.106068 0.804233
vt 0.166362 0.903410
vt 0.171274 0.904727
vt 0.166362 0.897077
vt 0.171274 0.895760
vt 0.850310 0.431038
vt 0.853043 0.431038
vt 0.635074 0.860442
vt 0.635089 0.869101
vt 0.632357 0.869103
vt 0.632341 0.860445
vt 0.635089 0.877764
vt 0.632357 0.877767
vt 0.163195 0.891593
vt 0.166790 0.887995
vt 0.297890 0.905418
vt 0.295436 0.904753
vt 0.635074 0.884111
vt 0.632341 0.884114
vt 0.293408 0.913183
vt 0.291622 0.911362
vt 0.285646 0.917667
vt 0.285016 0.915177
vt 0.942013 0.690039
vt 0.941952 0.698701
vt 0.939220 0.698701
vt 0.939281 0.690039
vt 0.157711 0.888426
vt 0.151378 0.888426
vt 0.150059 0.883512
vt 0.159025 0.883512
vt 0.875294 0.589213
vt 0.870500 0.589180
vt 0.870499 0.585282
vt 0.876617 0.585325
vt 0.878805 0.589306
vt 0.881098 0.585443
vt 0.660330 0.951106
vt 0.661911 0.954878
vt 0.877849 0.609309
vt 0.874742 0.609227
vt 0.659435 0.931125
vt 0.877307 0.612303
vt 0.874430 0.612228
vt 0.659034 0.928150
vt 0.870501 0.609197
vt 0.870501 0.612200
vt 0.874430 0.616197
vt 0.870501 0.616170
vt 0.658915 0.924180
vt 0.661792 0.924104
vt 0.661911 0.928073
vt 0.875545 0.617636
vt 0.870500 0.617600
vt 0.820155 0.016874
vt 0.815633 0.019486
vt 0.814766 0.018550
vt 0.818287 0.016515
vt 0.865457 0.617636
vt 0.866573 0.616197
vt 0.866573 0.612228
vt 0.214000 0.957244
vt 0.214003 0.953273
vt 0.805891 0.016879
vt 0.807178 0.016519
vt 0.863699 0.612303
vt 0.863157 0.609309
vt 0.866260 0.609227
vt 0.214546 0.950286
vt 0.215261 0.930287
vt 0.865708 0.589213
vt 0.862201 0.589306
vt 0.859907 0.585443
vt 0.864383 0.585325
vt 0.145893 0.891593
vt 0.142294 0.887995
vt 0.743454 0.901188
vt 0.746187 0.901190
vt 0.942013 0.707361
vt 0.939281 0.707361
vt 0.276682 0.917667
vt 0.277388 0.915178
vt 0.010958 0.906295
vt 0.008918 0.906295
vt 0.908876 0.287119
vt 0.910916 0.287121
vt 0.634444 0.918113
vt 0.632852 0.919706
vt 0.971507 0.648911
vt 0.968739 0.648911
vt 0.215005 0.893646
vt 0.212236 0.893644
vt 0.200227 0.893644
vt 0.199289 0.896913
vt 0.731479 0.814872
vt 0.731479 0.832316
vt 0.870500 0.635039
vt 0.865457 0.635074
vt 0.911760 0.773382
vt 0.913067 0.764953
vt 0.920481 0.773381
vt 0.918287 0.764952
vt 0.928034 0.769019
vt 0.922808 0.762341
vt 0.875545 0.635074
vt 0.932395 0.761463
vt 0.925418 0.757818
vt 0.225606 0.948949
vt 0.229303 0.948961
vt 0.229303 0.966406
vt 0.225606 0.966393
vt 0.932395 0.752739
vt 0.925418 0.752596
vt 0.928034 0.745183
vt 0.922808 0.748074
vt 0.572125 0.976202
vt 0.562987 0.976210
vt 0.562972 0.967786
vt 0.572110 0.967777
vt 0.562972 0.959356
vt 0.572110 0.959348
vt 0.920481 0.740822
vt 0.918287 0.745464
vt 0.967594 0.229631
vt 0.958456 0.229631
vt 0.958474 0.223462
vt 0.967611 0.223462
vt 0.967587 0.238058
vt 0.958449 0.238058
vt 0.911760 0.740822
vt 0.913067 0.745464
vt 0.904207 0.745185
vt 0.908546 0.748075
vt 0.967594 0.246485
vt 0.958456 0.246485
vt 0.967611 0.252654
vt 0.958474 0.252654
vt 0.088391 0.946125
vt 0.070947 0.946125
vt 0.562987 0.953180
vt 0.572125 0.953172
vt 0.904208 0.736459
vt 0.906535 0.734132
vt 0.911764 0.740822
vt 0.912615 0.737643
vt 0.541327 0.963517
vt 0.550462 0.963517
vt 0.550402 0.971945
vt 0.541267 0.971945
vt 0.550462 0.980371
vt 0.541327 0.980371
vt 0.920488 0.740822
vt 0.919636 0.737643
vt 0.126966 0.951573
vt 0.136103 0.951580
vt 0.359809 0.626743
vt 0.353513 0.626743
vt 0.359808 0.650235
vt 0.353513 0.650235
vt 0.868150 0.811929
vt 0.863269 0.807048
vt 0.019502 0.979676
vt 0.022472 0.978880
vt 0.050278 0.713716
vt 0.050281 0.717049
vt 0.047324 0.716592
vt 0.047322 0.713718
vt 0.050281 0.710388
vt 0.047324 0.710850
s 1
usemtl M249_Gun
f 4/1/1 12/2/2 2/3/3 1/4/4
f 1/4/4 2/3/3 71/5/5 3/6/6
f 1/7/4 3/8/6 6/9/7 5/10/8
f 4/11/1 1/7/4 5/10/8 8/12/9
f 5/13/8 6/14/7 72/15/10 7/16/11
f 8/17/9 5/13/8 7/16/11 10/18/12
f 15/19/13 4/11/1 8/12/9 9/20/14
f 9/21/14 8/17/9 10/18/12 11/22/15
f 12/23/2 13/24/16 11/25/15 10/26/12
f 2/27/3 12/23/2 10/26/12 7/28/11
f 15/29/13 13/30/16 12/31/2 4/32/1
f 13/24/16 14/33/17 20/34/18 11/25/15
f 16/35/19 14/36/17 13/30/16 15/29/13
f 16/37/19 15/19/13 9/20/14 18/38/20
f 17/39/21 23/40/22 14/36/17 16/35/19
f 17/41/21 16/37/19 18/38/20 19/42/23
f 19/43/23 18/44/20 20/45/18 21/46/24
f 18/44/20 9/47/14 11/48/15 20/45/18
f 14/33/17 23/49/22 21/50/24 20/34/18
f 59/51/25 19/43/23 21/46/24 22/52/26
f 23/49/22 24/53/27 22/54/26 21/50/24
f 25/55/28 24/56/27 23/57/22 17/58/21
f 27/59/29 24/60/27 25/61/28 28/62/30
f 29/63/31 26/64/32 24/53/27 27/65/29
f 24/53/27 26/64/32 57/66/33 22/54/26
f 30/67/34 27/59/29 28/62/30 32/68/35
f 31/69/36 29/63/31 27/65/29 30/70/34
f 34/71/36 31/69/36 30/70/34 33/72/37
f 33/73/37 30/67/34 32/68/35 36/74/38
f 50/75/39 34/71/36 33/72/37 35/76/40
f 35/77/40 33/73/37 36/74/38 37/78/41
f 37/79/41 36/80/38 38/81/42 39/82/43
f 36/80/38 32/83/35 41/84/44 38/81/42
f 39/82/43 38/81/42 40/85/45 49/86/46
f 38/81/42 41/84/44 43/87/47 40/85/45
f 32/83/35 28/88/30 42/89/48 41/84/44
f 41/84/44 42/89/48 44/90/49 43/87/47
f 43/91/47 44/92/49 46/93/50 45/94/51
f 40/95/45 43/91/47 45/94/51 47/96/52
f 45/97/51 46/98/50 29/63/31 31/69/36
f 47/99/52 45/97/51 31/69/36 34/71/36
f 49/100/46 40/95/45 47/96/52 48/101/53
f 48/102/53 47/99/52 34/71/36 50/75/39
f 39/103/43 49/104/46 48/105/53 50/106/39
f 37/107/41 39/103/43 50/106/39 35/108/40
f 46/98/50 51/109/54 26/64/32 29/63/31
f 44/92/49 53/110/55 51/111/54 46/93/50
f 51/109/54 52/112/56 56/113/57 54/114/58
f 69/115/59 52/116/56 51/117/54 53/118/55
f 26/64/32 51/109/54 54/114/58 57/66/33
f 55/119/60 58/120/61 57/121/33 54/122/58
f 61/123/62 55/124/60 54/125/58 56/126/57
f 58/120/61 59/127/25 22/128/26 57/121/33
f 53/129/55 60/130/63 58/131/61 55/132/60
f 60/130/63 25/133/28 59/134/25 58/131/61
f 42/89/48 60/130/63 53/129/55 44/90/49
f 28/88/30 25/133/28 60/130/63 42/89/48
f 25/133/28 17/41/21 19/42/23 59/134/25
f 63/135/64 61/123/62 56/126/57 62/136/65
f 52/112/56 65/137/66 62/138/65 56/113/57
f 70/139/67 63/135/64 62/136/65 64/140/68
f 65/137/66 66/141/69 64/142/68 62/138/65
f 68/143/70 66/144/69 65/145/66 67/146/71
f 67/146/71 65/145/66 52/147/56 69/148/59
f 68/149/70 67/150/71 63/151/64 70/152/67
f 67/150/71 69/153/59 61/154/62 63/151/64
f 69/153/59 53/129/55 55/132/60 61/154/62
f 3/155/6 71/156/5 66/144/69 68/143/70
f 3/8/6 68/149/70 70/152/67 6/9/7
f 6/14/7 70/157/67 64/158/68 72/15/10
f 66/141/69 71/159/5 72/160/10 64/142/68
f 71/159/5 2/27/3 7/28/11 72/160/10
f 73/161/72 85/162/73 74/163/74
f 73/161/72 74/163/74 75/164/75
f 73/161/72 75/164/75 76/165/76
f 73/161/72 76/165/76 77/166/77
f 73/161/72 77/166/77 78/167/78
f 73/161/72 78/167/78 79/168/79
f 73/161/72 79/168/79 80/169/80
f 73/161/72 80/169/80 81/170/81
f 73/161/72 81/170/81 82/171/82
f 73/161/72 82/171/82 83/172/83
f 73/161/72 83/172/83 84/173/84
f 73/161/72 84/173/84 85/162/73
f 84/174/84 88/175/85 86/176/86 85/177/73
f 85/177/73 86/176/86 89/178/87 74/179/74
f 87/180/88 89/181/87 86/182/86
f 87/180/88 86/182/86 88/183/85
f 74/179/74 89/178/87 90/184/89 75/185/75
f 87/180/88 90/186/89 89/181/87
f 87/180/88 91/163/90 90/186/89
f 75/185/75 90/184/89 91/187/90 76/188/76
f 87/180/88 92/189/91 91/163/90
f 76/190/76 91/191/90 92/192/91 77/193/77
f 87/180/88 93/194/92 92/189/91
f 77/193/77 92/192/91 93/195/92 78/196/78
f 87/180/88 94/197/93 93/194/92
f 78/198/78 93/199/92 94/200/93 79/201/79
f 87/180/88 95/202/94 94/197/93
f 79/201/79 94/200/93 95/203/94 80/204/80
f 87/180/88 96/205/95 95/202/94
f 80/204/80 95/203/94 96/206/95 81/207/81
f 87/180/88 97/208/96 96/205/95
f 81/209/81 96/210/95 97/211/96 82/212/82
f 87/180/88 98/213/97 97/208/96
f 82/212/82 97/211/96 98/214/97 83/215/83
f 87/180/88 88/183/85 98/213/97
f 83/215/83 98/214/97 88/216/85 84/217/84
f 99/218/98 111/219/99 100/220/100
f 99/218/98 100/220/100 101/221/101
f 99/218/98 101/221/101 102/222/70
f 99/218/98 102/222/70 103/223/71
f 99/218/98 103/223/71 104/224/59
f 99/218/98 104/224/59 105/225/102
f 99/218/98 105/225/102 106/226/103
f 99/218/98 106/226/103 107/227/104
f 99/218/98 107/227/104 108/228/21
f 99/218/98 108/228/21 109/229/19
f 99/218/98 109/229/19 110/230/13
f 99/218/98 110/230/13 111/219/99
f 111/219/99 112/231/105 127/232/106 100/220/100
f 113/233/107 114/234/108 112/235/105 111/236/99
f 110/237/13 116/238/16 113/233/107 111/236/99
f 117/239/109 119/240/110 114/241/108 113/242/107
f 115/243/111 117/239/109 113/242/107
f 115/243/111 113/242/107 116/244/16
f 118/245/112 121/246/113 119/240/110 117/239/109
f 115/243/111 118/245/112 117/239/109
f 119/247/110 120/248/114 194/249/115 114/250/108
f 121/251/113 122/252/116 120/248/114 119/247/110
f 123/253/117 192/254/118 122/252/116 121/251/113
f 125/255/117 123/253/117 121/251/113 124/256/119
f 101/257/101 124/258/119 121/259/113 118/260/112
f 100/220/100 127/232/106 124/261/119 101/221/101
f 189/262/120 125/255/117 124/256/119 126/263/121
f 126/263/121 124/256/119 127/264/106 128/265/122
f 128/265/122 127/264/106 112/266/105 129/267/123
f 128/268/122 129/269/123 131/270/124 130/271/125
f 126/272/121 128/268/122 130/271/125 132/273/126
f 130/274/125 131/275/124 135/276/104 133/277/103
f 132/278/126 130/274/125 133/277/103 134/279/102
f 136/280/98 134/281/102 133/282/103
f 136/280/98 133/282/103 135/283/104
f 136/280/98 145/284/1 137/285/4
f 136/280/98 137/285/4 138/286/6
f 136/280/98 138/286/6 139/287/70
f 136/280/98 139/287/70 140/288/71
f 136/280/98 140/288/71 141/289/59
f 136/280/98 141/289/59 134/281/102
f 136/280/98 135/283/104 142/290/21
f 136/280/98 142/290/21 143/291/19
f 136/280/98 143/291/19 144/292/13
f 136/280/98 144/292/13 145/284/1
f 146/293/127 147/294/128 137/295/4 145/296/1
f 149/297/129 146/298/127 145/299/1 144/300/13
f 148/301/130 168/302/131 147/294/128 146/293/127
f 150/303/132 148/304/130 146/305/127 149/306/129
f 152/307/133 150/303/132 149/306/129 151/308/134
f 151/309/134 149/297/129 144/300/13 143/310/19
f 154/311/135 152/307/133 151/308/134 153/312/136
f 153/313/136 151/309/134 143/310/19 142/314/21
f 129/269/123 154/311/135 153/312/136 131/270/124
f 131/275/124 153/315/136 142/316/21 135/276/104
f 154/317/135 155/318/137 157/319/72 152/320/133
f 129/267/123 112/266/105 155/321/137 154/322/135
f 112/266/105 114/250/108 156/323/137 155/321/137
f 155/318/137 156/324/137 158/325/72 157/319/72
f 157/319/72 158/325/72 160/326/138 159/327/138
f 152/320/133 157/319/72 159/327/138 150/328/132
f 159/329/138 160/330/138 162/331/139 161/332/139
f 150/333/132 159/329/138 161/332/139 148/334/130
f 161/335/139 162/336/139 164/337/140 163/338/140
f 148/339/130 161/335/139 163/338/140 166/340/141
f 163/341/140 164/342/140 175/343/142 165/344/142
f 166/345/141 163/341/140 165/344/142 167/346/143
f 168/347/131 148/348/130 166/349/141 167/350/143
f 170/351/144 168/347/131 167/350/143 169/352/145
f 167/346/143 165/344/142 171/353/146 169/354/145
f 172/355/147 170/356/144 169/357/145 171/358/146
f 176/359/147 172/355/147 171/358/146 173/360/146
f 165/344/142 175/343/142 173/361/146 171/353/146
f 177/362/148 176/359/147 173/360/146 174/363/149
f 175/343/142 200/364/150 174/365/149 173/361/146
f 176/366/147 177/367/148 179/368/151 178/369/152
f 172/370/147 176/366/147 178/369/152 181/371/152
f 178/372/152 179/373/151 190/374/66 180/375/88
f 181/376/152 178/372/152 180/375/88 182/377/88
f 183/378/153 181/376/152 182/377/88 184/379/154
f 170/380/144 172/370/147 181/371/152 183/381/153
f 183/382/153 184/383/154 186/384/155 185/385/156
f 170/386/144 183/382/153 185/385/156 187/387/157
f 185/388/156 186/389/155 140/390/71 139/391/70
f 187/392/157 185/388/156 139/391/70 138/393/6
f 168/302/131 170/394/144 187/395/157 147/294/128
f 147/294/128 187/395/157 138/396/6 137/295/4
f 184/383/154 189/397/120 188/398/158 186/384/155
f 186/389/155 188/399/158 141/400/59 140/390/71
f 188/401/158 132/278/126 134/279/102 141/402/59
f 189/397/120 126/272/121 132/273/126 188/398/158
f 184/379/154 182/377/88 125/403/117 189/404/120
f 182/377/88 180/375/88 123/405/117 125/403/117
f 180/375/88 190/374/66 192/406/118 123/405/117
f 191/407/111 192/408/118 190/409/66
f 191/407/111 190/409/66 179/410/151
f 191/407/111 122/411/116 192/408/118
f 191/407/111 179/410/151 177/412/148
f 191/407/111 177/412/148 193/413/111
f 191/407/111 193/413/111 198/414/159
f 191/407/111 120/415/114 122/411/116
f 191/407/111 194/416/115 120/415/114
f 191/407/111 195/417/160 194/416/115
f 191/407/111 196/418/17 195/417/160
f 191/407/111 197/419/161 196/418/17
f 191/407/111 198/414/159 197/419/161
f 160/330/138 197/420/161 198/421/159 162/331/139
f 162/336/139 198/422/159 199/423/162 164/337/140
f 198/414/159 193/413/111 200/424/150 199/425/162
f 164/342/140 199/426/162 200/364/150 175/343/142
f 193/413/111 177/412/148 174/427/149 200/424/150
f 158/325/72 196/428/17 197/429/161 160/326/138
f 156/324/137 195/430/160 196/428/17 158/325/72
f 114/250/108 194/249/115 195/431/160 156/323/137
f 115/243/111 201/432/69 118/245/112
f 101/257/101 118/260/112 201/433/69 102/434/70
f 115/243/111 202/435/66 201/432/69
f 102/434/70 201/433/69 202/436/66 103/437/71
f 115/243/111 203/438/56 202/435/66
f 103/437/71 202/436/66 203/439/56 104/440/59
f 115/243/111 204/441/163 203/438/56
f 104/442/59 203/443/56 204/444/163 105/445/102
f 115/243/111 205/446/164 204/441/163
f 105/445/102 204/444/163 205/447/164 106/448/103
f 115/243/111 206/449/165 205/446/164
f 106/448/103 205/447/164 206/450/165 107/451/104
f 115/243/111 207/452/22 206/449/165
f 107/451/104 206/450/165 207/453/22 108/454/21
f 115/243/111 208/455/17 207/452/22
f 108/456/21 207/457/22 208/458/17 109/459/19
f 115/243/111 116/244/16 208/455/17
f 109/459/19 208/458/17 116/238/16 110/237/13
f 209/460/164 210/461/163 214/462/166 213/463/167
f 211/464/11 443/465/12 210/466/163 209/467/164
f 446/468/10 211/464/11 209/467/164 212/469/165
f 212/470/165 209/460/164 213/463/167 215/471/168
f 213/472/167 214/473/166 217/474/169 216/475/170
f 215/476/168 213/472/167 216/475/170 218/477/171
f 219/478/111 216/479/170 217/480/169
f 219/478/111 218/481/171 216/479/170
f 219/478/111 220/482/172 218/481/171
f 219/478/111 221/483/173 220/482/172
f 219/478/111 222/484/174 221/483/173
f 219/478/111 223/485/175 222/484/174
f 219/478/111 224/486/176 223/485/175
f 219/478/111 225/487/177 224/486/176
f 219/478/111 226/488/178 225/487/177
f 219/478/111 227/489/179 226/488/178
f 219/478/111 228/490/180 227/489/179
f 219/478/111 217/480/169 228/490/180
f 229/491/181 231/492/182 227/493/179 228/494/180
f 214/473/166 229/495/181 228/496/180 217/474/169
f 230/497/56 233/498/66 231/499/182 229/500/181
f 210/461/163 230/497/56 229/500/181 214/462/166
f 231/492/182 232/501/183 226/502/178 227/493/179
f 233/498/66 234/503/69 232/504/183 231/499/182
f 235/505/18 238/506/24 234/507/69 233/508/66
f 237/509/15 235/505/18 233/508/66 230/510/56
f 236/511/17 239/512/22 238/513/24 235/514/18
f 441/515/16 236/511/17 235/514/18 237/516/15
f 239/512/22 242/517/165 240/518/26 238/513/24
f 238/506/24 240/519/26 243/520/5 234/507/69
f 240/521/26 241/522/33 244/523/3 243/524/5
f 242/517/165 437/525/164 241/526/33 240/518/26
f 243/527/5 244/528/3 246/529/184 245/530/185
f 234/503/69 243/527/5 245/530/185 232/504/183
f 245/531/185 246/532/184 224/533/176 225/534/177
f 232/535/183 245/531/185 225/534/177 226/536/178
f 244/528/3 249/537/2 247/538/186 246/529/184
f 246/532/184 247/539/186 223/540/175 224/533/176
f 247/539/186 248/541/187 222/542/174 223/540/175
f 249/537/2 251/543/16 248/544/187 247/538/186
f 250/545/58 253/546/57 251/547/16 249/548/2
f 241/522/33 250/549/58 249/550/2 244/523/3
f 251/543/16 252/551/17 449/552/188 248/544/187
f 253/546/57 255/553/65 252/554/17 251/547/16
f 254/555/56 257/556/66 255/557/65 253/558/57
f 439/559/163 254/555/56 253/558/57 250/560/58
f 255/553/65 256/561/68 447/562/22 252/554/17
f 257/556/66 258/563/69 256/564/68 255/557/65
f 260/565/189 258/566/69 257/567/66 259/568/190
f 259/568/190 257/567/66 254/569/56 261/570/191
f 260/571/189 259/572/190 262/573/192 264/574/193
f 259/572/190 261/575/191 263/576/194 262/573/192
f 262/577/192 263/578/194 266/579/195 265/580/196
f 264/581/193 262/577/192 265/580/196 267/582/197
f 265/583/196 266/584/195 269/585/198 268/586/199
f 267/587/197 265/583/196 268/586/199 270/588/200
f 268/589/199 269/590/198 272/591/201 271/592/202
f 270/593/200 268/589/199 271/592/202 273/594/203
f 271/592/202 272/591/201 275/595/204 274/596/205
f 273/594/203 271/592/202 274/596/205 276/597/206
f 274/596/205 275/595/204 279/598/207 277/599/208
f 276/597/206 274/596/205 277/599/208 278/600/209
f 278/600/209 277/599/208 280/601/210 281/602/211
f 277/599/208 279/598/207 282/603/212 280/601/210
f 281/604/211 280/605/210 283/606/213 284/607/214
f 280/605/210 282/608/212 285/609/215 283/606/213
f 284/610/214 283/611/213 286/612/216 287/613/217
f 283/611/213 285/614/215 288/615/218 286/612/216
f 287/616/217 286/617/216 289/618/219 290/619/220
f 286/617/216 288/620/218 291/621/221 289/618/219
f 290/622/220 289/623/219 292/624/222 293/625/223
f 289/623/219 291/626/221 294/627/224 292/624/222
f 293/628/223 292/629/222 295/630/225 296/631/226
f 292/629/222 294/632/224 297/633/227 295/630/225
f 296/634/226 295/635/225 298/636/228 299/637/229
f 295/635/225 297/638/227 300/639/230 298/636/228
f 299/640/229 298/641/228 301/642/231 302/643/232
f 298/641/228 300/644/230 303/645/233 301/642/231
f 300/644/230 306/646/234 304/647/235 303/645/233
f 306/646/234 307/648/236 305/649/237 304/647/235
f 308/650/238 310/651/239 307/652/236 306/653/234
f 297/654/227 308/650/238 306/653/234 300/655/230
f 309/656/240 311/657/241 310/658/239 308/659/238
f 294/632/224 309/656/240 308/659/238 297/633/227
f 311/657/241 314/660/242 312/661/243 310/658/239
f 310/651/239 312/662/243 315/663/244 307/652/236
f 312/662/243 313/664/245 316/665/246 315/663/244
f 314/660/242 336/666/247 313/667/245 312/661/243
f 315/668/244 316/669/246 318/670/248 317/671/249
f 307/648/236 315/668/244 317/671/249 305/649/237
f 316/669/246 320/672/250 319/673/251 318/670/248
f 320/672/250 323/674/252 321/675/253 319/673/251
f 323/674/252 325/676/254 322/677/255 321/675/253
f 324/678/256 327/679/257 325/680/254 323/681/252
f 337/682/258 324/678/256 323/681/252 320/683/250
f 325/676/254 326/684/259 422/685/260 322/677/255
f 327/686/257 328/687/261 326/688/259 325/689/254
f 329/690/262 330/691/263 328/692/261 327/693/257
f 332/694/264 329/690/262 327/693/257 324/695/256
f 331/696/265 417/697/266 330/698/263 329/699/262
f 333/700/267 331/701/265 329/702/262 332/703/264
f 335/704/268 333/700/267 332/703/264 334/705/269
f 334/706/269 332/694/264 324/695/256 337/707/258
f 338/708/270 335/704/268 334/705/269 336/709/247
f 336/666/247 334/706/269 337/707/258 313/667/245
f 313/710/245 337/682/258 320/683/250 316/711/246
f 340/712/271 338/713/270 336/714/247 314/715/242
f 339/716/272 385/717/273 335/718/268 338/719/270
f 341/720/274 339/716/272 338/719/270 340/721/271
f 343/722/275 341/720/274 340/721/271 342/723/276
f 342/724/276 340/712/271 314/715/242 311/725/241
f 345/726/277 343/722/275 342/723/276 344/727/278
f 344/728/278 342/724/276 311/725/241 309/729/240
f 288/620/218 345/726/277 344/727/278 291/621/221
f 291/730/221 344/728/278 309/729/240 294/731/224
f 346/732/279 348/733/280 343/734/275 345/735/277
f 285/736/215 346/732/279 345/735/277 288/737/218
f 347/738/281 350/739/282 348/740/280 346/741/279
f 282/608/212 347/738/281 346/741/279 285/609/215
f 348/733/280 349/742/283 341/743/274 343/734/275
f 350/739/282 351/744/284 349/745/283 348/740/280
f 352/746/285 353/747/286 351/748/284 350/749/282
f 355/750/287 352/746/285 350/749/282 347/751/281
f 354/752/288 377/753/289 353/747/286 352/746/285
f 356/754/290 354/752/288 352/746/285 355/750/287
f 275/755/204 356/754/290 355/750/287 279/756/207
f 279/756/207 355/750/287 347/751/281 282/757/212
f 357/758/291 359/759/292 354/752/288 356/754/290
f 272/760/201 357/758/291 356/754/290 275/755/204
f 358/761/293 361/762/294 359/759/292 357/758/291
f 269/763/198 358/761/293 357/758/291 272/760/201
f 359/759/292 360/764/295 377/753/289 354/752/288
f 361/762/294 362/765/296 360/764/295 359/759/292
f 363/766/297 366/767/298 362/768/296 361/769/294
f 365/770/299 363/766/297 361/769/294 358/771/293
f 364/772/300 367/773/301 366/774/298 363/775/297
f 440/776/302 364/772/300 363/775/297 365/777/299
f 367/773/301 370/778/303 368/779/304 366/774/298
f 366/767/298 368/780/304 371/781/305 362/768/296
f 368/780/304 369/782/306 372/783/307 371/781/305
f 370/784/303 431/785/308 369/786/306 368/787/304
f 371/788/305 372/789/307 374/790/309 373/791/310
f 362/765/296 371/792/305 373/793/310 360/764/295
f 373/791/310 374/790/309 376/794/311 375/795/312
f 360/764/295 373/793/310 375/796/312 377/753/289
f 375/795/312 376/794/311 379/797/313 378/798/314
f 377/753/289 375/796/312 378/799/314 353/747/286
f 378/798/314 379/797/313 381/800/315 380/801/316
f 353/747/286 378/799/314 380/802/316 351/748/284
f 351/744/284 380/803/316 382/804/317 349/745/283
f 380/803/316 381/805/315 383/806/318 382/804/317
f 349/742/283 382/807/317 339/808/272 341/743/274
f 382/809/317 383/810/318 385/811/273 339/812/272
f 383/810/318 384/813/319 386/814/320 385/811/273
f 381/805/315 394/815/321 384/816/319 383/806/318
f 385/717/273 386/817/320 333/818/267 335/718/268
f 384/813/319 389/819/322 387/820/323 386/814/320
f 386/817/320 387/821/323 331/822/265 333/818/267
f 387/821/323 388/823/324 417/824/266 331/822/265
f 389/825/322 390/826/325 388/827/324 387/828/323
f 391/829/326 392/830/327 390/831/325 389/832/322
f 394/815/321 391/829/326 389/832/322 384/816/319
f 393/833/328 412/834/329 392/835/327 391/836/326
f 395/837/330 393/833/328 391/836/326 394/838/321
f 379/797/313 395/839/330 394/840/321 381/800/315
f 396/841/331 398/842/332 393/833/328 395/837/330
f 376/794/311 396/843/331 395/839/330 379/797/313
f 397/844/333 400/845/334 398/842/332 396/841/331
f 374/790/309 397/846/333 396/843/331 376/794/311
f 398/842/332 399/847/335 412/834/329 393/833/328
f 400/845/334 401/848/336 399/847/335 398/842/332
f 402/849/337 405/850/338 401/848/336 400/845/334
f 404/851/339 402/852/337 400/853/334 397/846/333
f 403/854/340 406/855/341 405/850/338 402/849/337
f 432/856/342 403/857/340 402/858/337 404/859/339
f 406/855/341 408/860/343 407/861/344 405/850/338
f 405/850/338 407/861/344 409/862/345 401/848/336
f 407/863/344 270/593/200 273/594/203 409/864/345
f 408/865/343 267/587/197 270/588/200 407/866/344
f 409/862/345 273/867/203 276/868/206 410/869/346
f 401/848/336 409/862/345 410/869/346 399/847/335
f 410/870/346 276/597/206 278/600/209 411/871/347
f 399/847/335 410/869/346 411/872/347 412/834/329
f 411/872/347 278/873/209 281/874/211 413/875/348
f 412/834/329 411/872/347 413/875/348 392/835/327
f 413/876/348 281/604/211 284/607/214 414/877/349
f 392/830/327 413/876/348 414/877/349 390/831/325
f 414/878/349 284/610/214 287/613/217 415/879/350
f 390/826/325 414/880/349 415/881/350 388/827/324
f 388/823/324 415/882/350 416/883/351 417/824/266
f 415/882/350 287/616/217 290/619/220 416/883/351
f 417/697/266 416/884/351 418/885/352 330/698/263
f 416/886/351 290/622/220 293/625/223 418/887/352
f 330/691/263 418/888/352 419/889/353 328/692/261
f 418/888/352 293/628/223 296/631/226 419/889/353
f 328/687/261 419/890/353 420/891/354 326/688/259
f 419/892/353 296/634/226 299/637/229 420/893/354
f 326/684/259 420/894/354 421/895/355 422/685/260
f 420/894/354 299/640/229 302/643/232 421/895/355
f 423/896/356 264/581/193 267/582/197 408/897/343
f 425/898/357 423/899/356 408/860/343 406/855/341
f 424/900/358 260/571/189 264/574/193 423/901/356
f 426/902/359 424/900/358 423/901/356 425/903/357
f 428/904/360 426/902/359 425/903/357 427/905/361
f 427/906/361 425/898/357 406/855/341 403/854/340
f 430/907/362 428/904/360 427/905/361 429/908/363
f 429/909/363 427/910/361 403/911/340 432/912/342
f 433/913/364 430/907/362 429/908/363 431/914/308
f 431/785/308 429/909/363 432/912/342 369/786/306
f 369/782/306 432/856/342 404/859/339 372/783/307
f 434/915/365 433/913/364 431/914/308 370/916/303
f 434/917/365 239/918/22 236/919/17 433/920/364
f 433/920/364 236/919/17 441/921/16 430/922/362
f 435/923/366 434/915/365 370/916/303 367/924/301
f 435/925/366 242/926/165 239/927/22 434/928/365
f 436/929/367 437/930/164 242/926/165 435/925/366
f 436/931/367 435/923/366 367/924/301 364/932/300
f 438/933/368 436/931/367 364/932/300 440/934/302
f 438/935/368 439/936/163 437/930/164 436/929/367
f 261/937/191 254/938/56 439/936/163 438/935/368
f 261/575/191 438/933/368 440/934/302 263/576/194
f 263/939/194 440/776/302 365/777/299 266/940/195
f 437/525/164 439/559/163 250/560/58 241/526/33
f 430/922/362 441/921/16 442/941/2 428/942/360
f 442/943/2 441/515/16 237/516/15 443/944/12
f 444/945/3 442/943/2 443/944/12 211/946/11
f 428/947/360 442/948/2 444/949/3 426/950/359
f 426/950/359 444/949/3 445/951/5 424/952/358
f 445/953/5 444/945/3 211/946/11 446/954/10
f 424/955/358 445/956/5 258/566/69 260/565/189
f 258/563/69 445/953/5 446/954/10 256/564/68
f 256/957/68 446/468/10 212/469/165 447/958/22
f 443/465/12 237/959/15 230/960/56 210/466/163
f 372/789/307 404/851/339 397/846/333 374/790/309
f 266/584/195 365/770/299 358/771/293 269/585/198
f 447/961/22 212/470/165 215/471/168 448/962/369
f 252/551/17 447/961/22 448/962/369 449/552/188
f 448/963/369 215/476/168 218/477/171 220/964/172
f 449/965/188 448/966/369 220/967/172 221/968/173
f 248/969/187 449/965/188 221/968/173 222/970/174
